<svg width="128" height="128" viewBox="0 0 128 128" fill="none" xmlns="http://www.w3.org/2000/svg">
<g clip-path="url(#clip0_66_4)">
<rect width="128" height="128" rx="64" fill="#F0F0F0"/>
<path d="M7.80864 76.3798L5.35368 76.4304L4.10654 76.4528C3.69082 76.4528 3.27137 76.4528 2.85378 76.4622H2.77139V76.3798L2.76202 74.2844V74.1889H2.85565L5.33495 74.2001C6.16076 74.2001 6.98844 74.2207 7.81425 74.2301H7.86669V74.2806C7.86669 74.6346 7.85171 74.9885 7.84234 75.3387L7.80864 76.3798ZM7.80864 76.3798L7.78804 75.3199C7.78804 74.9716 7.76744 74.6271 7.7637 74.2844L7.81425 74.335C6.98844 74.3443 6.16076 74.3649 5.33495 74.3649L2.85565 74.378L2.94928 74.2844L2.93805 76.3798L2.85565 76.2955C3.26388 76.2955 3.6721 76.2955 4.08032 76.3049L5.31248 76.3274L7.80864 76.3798Z" fill="#EBEBEB"/>
<path d="M5.04287 79.022L2.58417 79.0726L1.33703 79.0951C0.921312 79.0951 0.501853 79.0951 0.0842664 79.1044H0V79.022V76.9266V76.8311H0.0936292L2.57293 76.8424C3.39874 76.8424 4.22455 76.8629 5.05223 76.8723H5.10279V76.9304C5.10279 77.2843 5.08781 77.6382 5.07845 77.9884L5.04287 79.022ZM5.04287 79.022L5.01665 77.9622C5.01665 77.6139 4.99418 77.2693 4.99231 76.9266L5.04287 76.9772C4.21519 76.9865 3.38938 77.0071 2.56357 77.0071L0.0842664 77.0184L0.177896 76.9266L0.16666 79.022L0.0842664 78.9378C0.49249 78.9378 0.900713 78.9378 1.30894 78.9378L2.5411 78.9602L5.04287 79.022Z" fill="#EBEBEB"/>
<path d="M96.8743 70.3014L94.4156 70.3538L93.1778 70.3763C92.7621 70.3763 92.3427 70.3763 91.9251 70.3857H91.8408V70.3014V68.206V68.1124H91.9363L94.4156 68.1236C95.2414 68.1236 96.0672 68.1442 96.8949 68.1536H96.923V68.2023C96.923 68.558 96.9062 68.912 96.8987 69.2621L96.8743 70.3014ZM96.8743 70.3014L96.8462 69.2434C96.8462 68.8951 96.8256 68.5506 96.8219 68.206L96.8743 68.2584C96.0466 68.2678 95.2208 68.2884 94.395 68.2884L91.9157 68.2996L92.0094 68.206L91.9981 70.3014L91.9157 70.219C92.324 70.219 92.7303 70.219 93.1404 70.219L94.3726 70.2415L96.8743 70.3014Z" fill="#EBEBEB"/>
<path d="M94.1142 72.9436L91.6555 72.9961L90.4084 73.0185C89.9908 73.0185 89.5732 73.0185 89.1537 73.0279H89.0582V72.9436V70.8482V70.7508H89.1519L91.6312 70.7621C92.4588 70.7621 93.2846 70.7827 94.1105 70.792H94.1629V70.8426C94.1629 71.1984 94.146 71.5523 94.1385 71.9025L94.1142 72.9436ZM94.1142 72.9436L94.0861 71.8856C94.0861 71.5373 94.0655 71.1928 94.0618 70.8482L94.1123 70.9006C93.2865 70.91 92.4607 70.9306 91.633 70.9306L89.1537 70.9418L89.2474 70.8482L89.238 72.9436L89.1537 72.8612C89.5638 72.8612 89.9702 72.8612 90.3803 72.8706L91.6124 72.8931L94.1142 72.9436Z" fill="#EBEBEB"/>
<path d="M67.5029 53.1186L65.0461 53.1691L63.7989 53.1916C63.3814 53.1916 62.9638 53.1916 62.5443 53.201H62.4675V53.1186L62.4563 51.0232V50.9277H62.5499L65.0292 50.9389C65.8569 50.9389 66.6827 50.9595 67.5085 50.9689H67.561V51.0194C67.561 51.3733 67.5441 51.7273 67.5366 52.0774L67.5029 53.1186ZM67.5029 53.1186L67.4767 52.0587C67.4767 51.7104 67.4561 51.3658 67.4524 51.0232L67.5029 51.0737C66.6771 51.0831 65.8513 51.1037 65.0236 51.1037L62.5443 51.1168L62.6379 51.0232L62.6286 53.1186L62.5443 53.0343C62.9544 53.0343 63.3608 53.0343 63.7709 53.0455L65.003 53.0661L67.5029 53.1186Z" fill="#EBEBEB"/>
<path d="M64.7371 55.7702L62.2803 55.8207L61.0331 55.8432C60.6155 55.8432 60.1961 55.8432 59.7785 55.8432H59.6961V55.7702L59.6849 53.6747V53.5792H59.7785L62.2578 53.5905C63.0855 53.5905 63.9113 53.6111 64.7371 53.6204H64.7895V53.671C64.7895 54.0249 64.7727 54.3788 64.7633 54.729L64.7371 55.7702ZM64.7371 55.7702L64.7109 54.7103C64.7109 54.362 64.6903 54.0174 64.6865 53.6747L64.7371 53.7253C63.9113 53.7347 63.0855 53.7553 62.2578 53.7553L59.7785 53.7684L59.8721 53.6747L59.8628 55.7702L59.7785 55.6859C60.1867 55.6859 60.5949 55.6859 61.005 55.6953L62.2372 55.7177L64.7371 55.7702Z" fill="#EBEBEB"/>
<path d="M61.9825 53.1186L59.5238 53.1691L58.2767 53.1916C57.861 53.1916 57.4415 53.1916 57.0239 53.201H56.9416V53.1186L56.9322 51.0232V50.9277H57.0258L59.5051 50.9389C60.3309 50.9389 61.1586 50.9595 61.9844 50.9689H62.035V51.0194C62.035 51.3733 62.02 51.7273 62.0106 52.0774L61.9825 53.1186ZM61.9825 53.1186L61.9563 52.0587C61.9563 51.7104 61.9339 51.3658 61.932 51.0232L61.9825 51.0737C61.1567 51.0831 60.3291 51.1037 59.5032 51.1037L57.0239 51.1168L57.1176 51.0232L57.1063 53.1186L57.0239 53.0343C57.4322 53.0343 57.8404 53.0343 58.2486 53.0455L59.4808 53.0661L61.9825 53.1186Z" fill="#EBEBEB"/>
<path d="M118.859 79.022L116.402 79.0726L115.155 79.095C114.737 79.095 114.317 79.095 113.9 79.1044H113.818V79.022L113.806 76.9303V76.8348H113.9L116.379 76.8461C117.207 76.8461 118.033 76.8667 118.859 76.876H118.911V76.9303C118.911 77.2843 118.894 77.6382 118.885 77.9884L118.859 79.022ZM118.859 79.022L118.832 77.9621C118.832 77.6138 118.812 77.2693 118.808 76.9266L118.859 76.9772C118.033 76.9865 117.207 77.0071 116.379 77.0071L113.9 77.0184L113.994 76.9266V79.022L113.909 78.9378C114.317 78.9378 114.726 78.9378 115.136 78.9378L116.368 78.9602L118.859 79.022Z" fill="#EBEBEB"/>
<path d="M96.8743 40.561L94.4156 40.6135L93.1685 40.6341C92.7528 40.6434 92.3333 40.6341 91.9158 40.6453H91.8315V40.561V38.4656V38.372H91.927L94.4063 38.3832C95.2321 38.3832 96.0579 38.4057 96.8856 38.415H96.923V38.4656C96.923 38.8214 96.9062 39.1753 96.8987 39.5236L96.8743 40.561ZM96.8743 40.561L96.8463 39.503C96.8463 39.1528 96.8257 38.8083 96.8219 38.4656L96.8743 38.5162C96.0467 38.5274 95.2209 38.5461 94.395 38.548L91.9158 38.5592L92.0094 38.4656L91.9981 40.561L91.9158 40.4786C92.324 40.4786 92.7303 40.4786 93.1404 40.4786L94.3726 40.4992L96.8743 40.561Z" fill="#EBEBEB"/>
<path d="M116.093 27.7731L113.636 27.8237L112.387 27.8462C111.971 27.8462 111.552 27.8462 111.134 27.8555H111.052V27.7713L111.042 25.6759V25.5804H111.136L113.615 25.5916C114.441 25.5916 115.269 25.6122 116.095 25.6215H116.147V25.6721C116.147 26.0279 116.132 26.3799 116.123 26.7301L116.093 27.7731ZM116.093 27.7731L116.066 26.7133C116.057 26.365 116.046 26.0204 116.042 25.6777L116.093 25.7283C115.267 25.7283 114.439 25.7582 113.613 25.7582L111.134 25.7714L111.228 25.6777V27.7731L111.143 27.6889C111.552 27.6889 111.96 27.6889 112.37 27.7001L113.602 27.7207L116.093 27.7731Z" fill="#EBEBEB"/>
<path d="M118.859 30.4153L116.398 30.4659L115.151 30.4884C114.733 30.4884 114.314 30.4884 113.896 30.4977H113.814V30.4153L113.803 28.3199V28.2244H113.896L116.379 28.2432C117.207 28.2432 118.033 28.2638 118.859 28.2731H118.911V28.3237C118.911 28.6776 118.894 29.0315 118.885 29.3817L118.859 30.4153ZM118.859 30.4153L118.832 29.3555C118.832 29.0072 118.812 28.6626 118.808 28.3199L118.859 28.3705C118.033 28.3705 117.207 28.4004 116.379 28.4004L113.9 28.4136L113.994 28.3199V30.4153L113.909 30.3311C114.318 30.3311 114.726 30.3311 115.136 30.3423L116.368 30.3629L118.859 30.4153Z" fill="#EBEBEB"/>
<path d="M22.7294 40.561L20.2725 40.6135L19.0254 40.6341C18.6078 40.6434 18.1884 40.6341 17.7708 40.6453H17.6884V40.561L17.679 38.4656V38.372H17.7726L20.2519 38.3832C21.0778 38.3832 21.9054 38.4057 22.7312 38.415H22.7837V38.4656C22.7837 38.8214 22.7687 39.1753 22.7593 39.5236L22.7294 40.561ZM22.7294 40.561L22.7032 39.503C22.6938 39.1528 22.6826 38.8083 22.6788 38.4656L22.7294 38.5162C21.9036 38.5274 21.0759 38.5461 20.2501 38.548L17.7708 38.5592L17.8644 38.4656L17.855 40.561L17.7708 40.4786C18.179 40.4786 18.5872 40.4786 18.9973 40.4786L20.2295 40.4992L22.7294 40.561Z" fill="#EBEBEB"/>
<path d="M25.4952 43.2032L23.0384 43.2557L21.7913 43.2763C21.3737 43.2856 20.9542 43.2763 20.5366 43.2875H20.4542V43.2032L20.443 41.1078V41.0142H20.5366L23.0159 41.0254C23.8436 41.0254 24.6694 41.0479 25.4952 41.0573H25.5477V41.1078C25.5477 41.4636 25.5308 41.8175 25.5214 42.1658L25.4952 43.2032ZM25.4952 43.2032L25.469 42.1452C25.469 41.7951 25.4484 41.4505 25.4447 41.1078L25.4952 41.1584C24.6694 41.1677 23.8436 41.1883 23.0159 41.1902L20.5366 41.2014L20.6303 41.1078L20.6209 43.2032L20.5366 43.119C20.9448 43.119 21.3531 43.119 21.7632 43.1302L22.9953 43.1508L25.4952 43.2032Z" fill="#EBEBEB"/>
<path d="M5.04287 27.7731L2.58417 27.8237L1.33703 27.8462C0.921312 27.8462 0.501853 27.8462 0.0842664 27.8555H0V27.7713V25.6759V25.5804H0.0936292L2.57293 25.5916C3.39874 25.5916 4.22455 25.6122 5.05223 25.6215H5.10279V25.6721C5.10279 26.0279 5.08781 26.3799 5.07845 26.7301L5.04287 27.7731ZM5.04287 27.7731L5.01665 26.7133C5.01665 26.365 4.99418 26.0204 4.99231 25.6777L5.04287 25.7283C4.21519 25.7283 3.38938 25.7582 2.56357 25.7582L0.0842664 25.7714L0.177896 25.6777L0.16666 27.7731L0.0842664 27.6814C0.49249 27.6814 0.900713 27.6814 1.30894 27.6926L2.5411 27.7132L5.04287 27.7731Z" fill="#EBEBEB"/>
<path d="M87.2137 23.9943V63.2231H115.284V23.9943H87.2137ZM114.449 62.3823H88.0452V24.8295H114.449V62.3823Z" fill="#EBEBEB"/>
<path d="M114.447 24.8295H88.0489V62.3879H114.447V24.8295Z" fill="#005078"/>
<path d="M110.878 47.308L111.082 47.7237L111.539 47.7892L111.207 48.1113L111.286 48.5663L110.878 48.351L110.467 48.5663L110.546 48.1113L110.215 47.7892L110.672 47.7237L110.878 47.308Z" fill="#DBDBDB"/>
<path d="M98.3463 46.3099L98.5504 46.7256L99.0073 46.7911L98.6758 47.1132L98.7545 47.5682L98.3463 47.3529L97.938 47.5682L98.0148 47.1132L97.6852 46.7911L98.1422 46.7256L98.3463 46.3099Z" fill="#DBDBDB"/>
<path d="M92.854 56.5042L93.0581 56.9181L93.515 56.9836L93.1835 57.3057L93.2622 57.7607L92.854 57.5472L92.4439 57.7607L92.5225 57.3057L92.1929 56.9836L92.648 56.9181L92.854 56.5042Z" fill="#DBDBDB"/>
<path d="M110.878 35.668L111.003 35.9245L111.286 35.9638L111.082 36.1642L111.13 36.4451L110.878 36.3121L110.625 36.4451L110.672 36.1642L110.467 35.9638L110.75 35.9245L110.878 35.668Z" fill="#DBDBDB"/>
<path d="M91.369 45.0403L91.4944 45.2949L91.7772 45.3361L91.5731 45.5365L91.6199 45.8174L91.369 45.6844L91.1162 45.8174L91.1648 45.5365L90.9589 45.3361L91.2416 45.2949L91.369 45.0403Z" fill="#DBDBDB"/>
<path d="M107.762 56.1147L107.889 56.3713L108.172 56.4125L107.968 56.611L108.014 56.8918L107.762 56.7589L107.511 56.8918L107.557 56.611L107.353 56.4125L107.636 56.3713L107.762 56.1147Z" fill="#DBDBDB"/>
<path d="M99.4155 37.2859L99.5428 37.5406L99.8256 37.5818L99.6196 37.7821L99.6683 38.063L99.4155 37.9301L99.1627 38.063L99.2114 37.7821L99.0073 37.5818L99.29 37.5406L99.4155 37.2859Z" fill="#DBDBDB"/>
<path d="M97.2807 40.8775C97.0297 41.3164 96.6732 41.6858 96.2435 41.9523C95.8138 42.2187 95.3244 42.3739 94.8197 42.4036C94.3149 42.4333 93.8108 42.3367 93.3527 42.1226C92.8947 41.9084 92.4973 41.5834 92.1965 41.177C91.8957 40.7706 91.701 40.2956 91.63 39.795C91.5589 39.2944 91.6138 38.784 91.7897 38.3099C91.9656 37.8359 92.2569 37.4132 92.6372 37.0801C93.0176 36.7469 93.475 36.5139 93.9681 36.402C93.5837 36.5786 93.2436 36.8388 92.9724 37.1635C92.7012 37.4882 92.5059 37.8692 92.4007 38.279C92.2954 38.6887 92.2829 39.1167 92.3639 39.5319C92.445 39.9471 92.6177 40.339 92.8693 40.679C93.121 41.019 93.4454 41.2986 93.8188 41.4974C94.1921 41.6963 94.6052 41.8093 95.0278 41.8283C95.4504 41.8473 95.8719 41.7719 96.2616 41.6074C96.6514 41.4429 96.9995 41.1936 97.2807 40.8775Z" fill="#DBDBDB"/>
<path d="M101.664 25.0467H100.831V62.8055H101.664V25.0467Z" fill="#EBEBEB"/>
<path d="M116.038 25.6796H86.4609V26.8406H116.038V25.6796Z" fill="#EBEBEB"/>
<path d="M116.038 26.9867H86.4609V28.1477H116.038V26.9867Z" fill="#EBEBEB"/>
<path d="M116.038 28.2919H86.4609V29.4529H116.038V28.2919Z" fill="#EBEBEB"/>
<path d="M116.038 29.5971H86.4609V30.7581H116.038V29.5971Z" fill="#EBEBEB"/>
<path d="M116.038 30.9023H86.4609V32.0633H116.038V30.9023Z" fill="#EBEBEB"/>
<path d="M116.038 32.2093H86.4609V33.3703H116.038V32.2093Z" fill="#EBEBEB"/>
<path d="M113.561 25.4456H113.353V48.0308H113.561V25.4456Z" fill="#263238"/>
<path d="M113.829 49.0008H113.089L113.274 47.9371H113.643L113.829 49.0008Z" fill="#263238"/>
<path d="M114.312 25.4456H114.104V53.7291H114.312V25.4456Z" fill="#263238"/>
<path d="M114.578 54.508H113.838L114.025 53.4463H114.392L114.578 54.508Z" fill="#263238"/>
<path d="M117.332 23.8333H85.167V26.262H117.332V23.8333Z" fill="#DBDBDB"/>
<path d="M41.0807 30.2057H30.158V41.1284H41.0807V30.2057Z" fill="white"/>
<path d="M41.65 41.6977V29.6383H29.5906V41.6977H41.65ZM30.158 30.2057H41.0808V41.1284H30.158V30.2057Z" fill="#DBDBDB"/>
<path d="M30.9445 32.3217V36.0968H39.4572V32.3217H30.9445Z" fill="#EBEBEB"/>
<path d="M33.4387 33.4864V37.8477H37.8V33.4864H33.4387Z" fill="#E3E3E3"/>
<path d="M29.1224 41.6977H29.5887V29.6383H29.1224V41.6977Z" fill="#E3E3E3"/>
<path d="M56.4546 30.2057H45.5319V41.1284H56.4546V30.2057Z" fill="white"/>
<path d="M54.5783 31.1419H51.7264V39.3813H54.5783V31.1419Z" fill="#E3E3E3"/>
<path d="M57.0239 41.6977V29.6383H44.9645V41.6977H57.0239ZM45.5319 30.2057H56.4547V41.1303H45.5319V30.2057Z" fill="#DBDBDB"/>
<path d="M53.1739 33.4864H48.8126V37.8476H53.1739V33.4864Z" fill="#EBEBEB"/>
<path d="M44.4982 41.6977H44.9645V29.6383H44.4982V41.6977Z" fill="#E3E3E3"/>
<path d="M25.3923 30.2057H14.4695V41.1284H25.3923V30.2057Z" fill="white"/>
<path d="M24.1826 36.0575H18.1884V39.6416H24.1826V36.0575Z" fill="#EBEBEB"/>
<path d="M25.9615 41.6977V29.6383H13.9021V41.6977H25.9615ZM14.4695 30.2057H25.3904V41.1303H14.4695V30.2057Z" fill="#DBDBDB"/>
<path d="M22.1115 33.4864H17.7502V37.8476H22.1115V33.4864Z" fill="#E3E3E3"/>
<path d="M13.4339 41.6977H13.9001L13.9001 29.6383H13.4339L13.4339 41.6977Z" fill="#E3E3E3"/>
<path d="M0.187256 99.3976L15.0088 99.3508L29.8303 99.334L59.4714 99.304L89.1125 99.334L103.934 99.3508L118.756 99.3976L103.934 99.4426L89.1125 99.4594L59.4714 99.4913L29.8303 99.4594L15.0088 99.4426L0.187256 99.3976Z" fill="#263238"/>
<path d="M78.0325 99.3976L77.9857 89.722L77.9688 80.0482L77.9388 60.6988L77.9688 41.3494L77.9857 31.6756L78.0325 22L78.0774 31.6756L78.0943 41.3494L78.1242 60.6988L78.0943 80.0482L78.0774 89.722L78.0325 99.3976Z" fill="#263238"/>
<path d="M12.8366 92.2631H59.8721L59.8721 50.085L12.8366 50.085L12.8366 92.2631Z" fill="#0086C8"/>
<path opacity="0.4" d="M12.8366 92.2631H59.8721L59.8721 50.085L12.8366 50.085L12.8366 92.2631Z" fill="black"/>
<path d="M12.8366 50.085H11.0876V99.3976H12.8366V50.085Z" fill="#0086C8"/>
<path opacity="0.6" d="M12.8366 50.085H11.0876V99.3976H12.8366V50.085Z" fill="black"/>
<path d="M54.0147 92.2631H52.2657V99.3957H54.0147V92.2631Z" fill="#0086C8"/>
<path opacity="0.6" d="M54.0147 92.2631H52.2657V99.3957H54.0147V92.2631Z" fill="black"/>
<path d="M54.0147 99.3976H59.8721V92.2649H54.0147V99.3976Z" fill="#0086C8"/>
<path opacity="0.4" d="M54.0147 99.3976H59.8721V92.2649H54.0147V99.3976Z" fill="black"/>
<path d="M12.8366 99.3976H18.694V92.2649H12.8366V99.3976Z" fill="#0086C8"/>
<path opacity="0.4" d="M12.8366 99.3976H18.694V92.2649H12.8366V99.3976Z" fill="black"/>
<path d="M12.8365 92.2649L71.7199 92.2649V85.9056H12.8365V92.2649Z" fill="#0086C8"/>
<path opacity="0.6" d="M12.8365 92.2649L71.7199 92.2649V85.9056H12.8365V92.2649Z" fill="black"/>
<path d="M71.7199 92.2649H118.755V85.9056H71.7199V92.2649Z" fill="#0086C8"/>
<path opacity="0.4" d="M71.7199 92.2649H118.755V85.9056H71.7199V92.2649Z" fill="black"/>
<path d="M71.7199 92.2631H69.9709V99.3957H71.7199V92.2631Z" fill="#0086C8"/>
<path opacity="0.6" d="M71.7199 92.2631H69.9709V99.3957H71.7199V92.2631Z" fill="black"/>
<path d="M112.898 92.2631H111.149V99.3957H112.898V92.2631Z" fill="#0086C8"/>
<path opacity="0.6" d="M112.898 92.2631H111.149V99.3957H112.898V92.2631Z" fill="black"/>
<path d="M112.898 99.3976H118.755V92.2649H112.898V99.3976Z" fill="#0086C8"/>
<path opacity="0.4" d="M112.898 99.3976H118.755V92.2649H112.898V99.3976Z" fill="black"/>
<path d="M71.72 99.3976H77.5774V92.2649H71.72V99.3976Z" fill="#0086C8"/>
<path opacity="0.4" d="M71.72 99.3976H77.5774V92.2649H71.72V99.3976Z" fill="black"/>
<path d="M15.651 85.9038H72.8604V75.4061H15.651V85.9038Z" fill="#EBEBEB"/>
<path d="M72.8603 85.9038H117.812V75.4061H72.8603V85.9038Z" fill="#DBDBDB"/>
<path d="M63.8814 73.3107C64.2559 73.8575 65.0292 74.6477 64.3589 74.8761C63.9044 75.0073 63.422 75.0073 62.9675 74.8761C62.9675 74.8761 57.4621 75.4379 53.5297 75.6027C49.5973 75.7675 42.2942 75.2151 41.9197 75.1608C41.5452 75.1065 40.7868 75.687 40.5284 75.5596C40.2699 75.4323 40.8467 74.2919 40.8467 74.0728C40.8467 73.8537 39.4123 70.2771 38.9385 67.9345C38.4648 65.5919 38.4142 63.2062 38.3618 62.9309C38.3093 62.6557 37.3637 61.4329 37.6727 61.1295C37.9816 60.8261 39.4909 61.7287 39.6258 61.7755C39.7606 61.8224 46.5824 59.8842 50.4624 59.9554C54.3424 60.0265 59.7767 61.034 59.9115 61.034C60.0463 61.034 61.5743 60.2662 61.9414 60.5059C62.3084 60.7456 61.6137 62.2549 61.6717 62.4478C61.7298 62.6407 63.005 66.0413 63.357 67.9813C63.7091 69.9213 63.8814 73.3107 63.8814 73.3107Z" fill="white"/>
<path d="M46.4794 67.8483C46.4794 67.8483 64.5031 75.4323 67.6546 75.936C69.5459 76.2375 81.4237 76.4304 92.2941 76.2806L93.2173 69.8745C82.9986 65.8821 71.2387 66.2941 70.4691 66.105C69.8886 65.9626 64.3701 61.1445 57.5089 60.7475C53.1383 60.4966 49.4568 62.2044 49.4568 62.2044L46.4794 67.8483Z" fill="#F7A9A0"/>
<path d="M69.3231 65.3709L70.4747 66.0956C73.8864 66.1251 77.2936 66.3471 80.6803 66.7604C84.0732 67.1643 87.4221 67.877 90.6855 68.8895C91.5001 69.146 92.3072 69.4307 93.1086 69.7172C93.2079 69.7509 93.309 69.7864 93.4082 69.8145C93.4505 69.8297 93.4946 69.8392 93.5393 69.8426C93.5871 69.8395 93.6346 69.8332 93.6816 69.8239C93.8839 69.7827 94.088 69.7228 94.2921 69.6666C94.7003 69.5486 95.1085 69.4232 95.5243 69.3146C95.7321 69.2621 95.94 69.2116 96.1534 69.1722C96.3714 69.1232 96.596 69.1099 96.8182 69.1329C97.031 69.1868 97.238 69.2614 97.4362 69.3558C97.6234 69.4438 97.8257 69.543 98.0167 69.6329C98.7807 70.0168 99.5241 70.4362 100.264 70.8613C100.451 70.968 100.638 71.0767 100.826 71.1722L101.387 71.4718C101.762 71.6721 102.136 71.8781 102.511 72.086C103.26 72.5036 103.992 72.9305 104.719 73.3781C105.082 73.6028 105.441 73.8312 105.797 74.0672C106.156 74.2966 106.501 74.5467 106.831 74.8162C106.918 74.8843 106.99 74.969 107.044 75.0653C107.068 75.1743 107.055 75.2878 107.009 75.3892C106.919 75.5859 106.785 75.7585 106.616 75.8929C106.28 76.1627 105.876 76.3328 105.449 76.3836C105.873 76.3269 106.273 76.1517 106.602 75.878C106.765 75.7434 106.894 75.572 106.977 75.378C107.019 75.2833 107.03 75.1776 107.007 75.0765C106.953 74.9879 106.884 74.9104 106.801 74.848C106.468 74.584 106.12 74.3389 105.76 74.114C105.402 73.8837 105.039 73.6627 104.672 73.4455C103.939 73.0085 103.199 72.5866 102.453 72.1796C102.078 71.9755 101.704 71.7733 101.329 71.5766C100.955 71.38 100.565 71.1928 100.206 70.9755C99.4567 70.5561 98.7077 70.1497 97.9586 69.7677C97.7714 69.6741 97.5841 69.5805 97.3837 69.4962C97.1968 69.4077 97.0018 69.3374 96.8014 69.2865C96.5988 69.269 96.3948 69.2829 96.1965 69.3277C95.9905 69.367 95.7845 69.4176 95.5804 69.47C95.1703 69.5786 94.764 69.7041 94.3539 69.8239C94.1479 69.8838 93.9438 69.9437 93.7266 69.9868C93.6693 69.9996 93.611 70.0071 93.5524 70.0093C93.5196 70.0095 93.4869 70.0057 93.455 69.9981L93.3727 69.9756C93.2659 69.9456 93.1648 69.91 93.0637 69.8763C92.2585 69.5917 91.457 69.3146 90.6443 69.0599C87.3924 68.0446 84.0557 67.3239 80.6747 66.9064C78.9893 66.6817 77.2909 66.5132 75.5925 66.3802C73.894 66.2473 72.1919 66.1461 70.4878 66.1106L69.3231 65.3709Z" fill="#263238"/>
<path d="M59.2448 73.0429C59.2448 73.0429 62.3795 66.1031 65.6528 62.7156C65.6528 62.7156 57.9528 58.2214 49.4568 62.2044L46.4794 67.8483C46.4794 67.8483 56.2656 71.998 59.2448 73.0429Z" fill="#0086C8"/>
<path d="M67.0666 75.8068C66.4578 75.6913 65.8562 75.54 65.2652 75.3536C64.6716 75.1757 64.0836 74.9791 63.4994 74.7713C62.9151 74.5634 62.3346 74.3499 61.7541 74.1327C61.1736 73.9155 60.6006 73.6833 60.0257 73.453C58.876 72.9904 57.7299 72.5167 56.5933 72.0261C55.4566 71.5354 54.3218 71.0392 53.1964 70.528H53.2414C52.3931 70.6815 51.5392 70.7808 50.6834 70.8501C50.2546 70.88 49.8276 70.9044 49.3969 70.9156C48.9662 70.9269 48.5393 70.9287 48.1105 70.9156C48.9681 70.8913 49.8239 70.8426 50.6759 70.7508C51.5279 70.6591 52.3762 70.5467 53.2114 70.3763H53.2339L53.2563 70.3857C54.3911 70.88 55.524 71.3763 56.6644 71.8575C57.8048 72.3388 58.9434 72.8238 60.0894 73.2919C61.2354 73.7601 62.3833 74.2282 63.5406 74.657C64.6913 75.112 65.8689 75.496 67.0666 75.8068Z" fill="#263238"/>
<path d="M42.0563 73.3462C42.4309 73.893 43.2042 74.6833 42.5338 74.9136C42.0793 75.0446 41.597 75.0446 41.1425 74.9136C41.1425 74.9136 35.639 75.4754 31.7047 75.6383C27.7704 75.8012 20.4692 75.2525 20.0947 75.1963C19.7202 75.1402 18.9711 75.7225 18.7033 75.5952C18.4356 75.4679 19.0217 74.3293 19.0217 74.1084C19.0217 73.8874 17.5873 70.3127 17.1135 67.9719C16.6398 65.6312 16.5892 63.2436 16.5368 62.9665C16.4843 62.6894 15.5387 61.4684 15.8477 61.1651C16.1566 60.8617 17.6659 61.7643 17.8008 61.813C17.9356 61.8617 24.7574 59.9198 28.6374 59.991C32.5174 60.0621 37.9516 61.0696 38.0865 61.0696C38.2213 61.0696 39.7493 60.3037 40.1163 60.5434C40.4834 60.7831 39.7886 62.2924 39.8467 62.4834C39.9047 62.6744 41.18 66.0769 41.532 68.0169C41.8841 69.9569 42.0563 73.3462 42.0563 73.3462Z" fill="white"/>
<path d="M20.0273 73.9342C20.0273 73.9342 20.1771 69.4213 19.4093 67.457C18.6416 65.4926 17.2278 63.15 17.2278 63.15C17.2278 63.15 17.7278 67.3128 18.1322 68.8296C18.4918 70.1891 20.0273 73.9342 20.0273 73.9342Z" fill="#C7C7C7"/>
<path d="M41.5246 69.322C41.3869 69.8669 41.2966 70.4226 41.2549 70.983C41.2381 71.2639 41.2362 71.5448 41.2418 71.8276C41.2418 71.968 41.2418 72.1084 41.2418 72.2489C41.2433 72.3951 41.2238 72.5408 41.1838 72.6815C41.1838 72.6927 41.2006 72.7002 41.2062 72.6815C41.2611 72.5556 41.3049 72.4253 41.3373 72.292C41.3658 72.1619 41.3839 72.0298 41.3916 71.8968C41.4122 71.6122 41.416 71.3257 41.4328 71.0411C41.4665 70.4662 41.5021 69.8932 41.5826 69.3277C41.5808 69.3089 41.5302 69.2958 41.5246 69.322Z" fill="#263238"/>
<path d="M42.5339 68.2285C42.3254 68.6397 42.1434 69.0637 41.989 69.4981C41.9155 69.7164 41.853 69.9383 41.8017 70.1628C41.7755 70.2696 41.7511 70.3782 41.7287 70.4849C41.7062 70.5917 41.6987 70.7284 41.6725 70.8463C41.6725 70.8594 41.6912 70.8669 41.695 70.8557C41.723 70.7433 41.7736 70.6385 41.8092 70.5299C41.8448 70.4213 41.8803 70.3127 41.9178 70.204C41.9908 69.9849 42.0657 69.7677 42.135 69.5486C42.2755 69.1105 42.4215 68.676 42.5788 68.2378C42.5844 68.221 42.5451 68.2079 42.5339 68.2285Z" fill="#263238"/>
<path d="M117.812 85.9038C117.812 85.9038 118.374 75.6851 117.812 75.275C116.926 74.6252 109.962 75.1851 109.492 74.996C109.022 74.8069 99.6009 68.9738 98.8369 68.8614C98.0729 68.7491 97.571 68.985 97.4474 68.985C97.3238 68.985 97.0991 68.7603 96.5111 68.7715C95.9231 68.7828 94.1891 69.3539 94.1891 69.3539C94.1891 69.3539 79.9388 64.0189 69.8455 64.9926C69.4972 65.0264 64.8944 60.3786 58.6288 60.2138C52.3631 60.049 49.6403 61.7999 49.3108 61.7306C48.9812 61.6613 40.5639 61.4085 39.6876 61.5733C38.8112 61.7381 36.7308 66.4439 36.0248 67.0057C35.3188 67.5675 31.0512 71.0748 29.8715 72.453C28.6918 73.8312 27.6244 79.4172 27.2967 79.9228C26.969 80.4284 24.9222 85.6079 25.0908 86.5498C25.2593 87.4917 29.6224 85.8963 33.0586 85.8963L117.812 85.9038Z" fill="#0086C8"/>
<path d="M42.6687 66.6124C42.5275 66.4155 42.4357 66.1875 42.4009 65.9477C42.3672 65.7604 42.356 65.5732 42.3129 65.4009C42.2946 65.406 42.2758 65.4091 42.2568 65.4102C42.2661 65.5076 42.2568 65.5975 42.2661 65.6967C42.2661 65.8671 42.2792 65.9215 42.2661 66.0919C42.2638 66.3441 42.194 66.5911 42.0639 66.8072C42.0246 66.8671 41.9609 66.9682 41.8766 66.9252C41.7924 66.8821 41.7867 66.7023 41.783 66.6218C41.769 66.4052 41.7963 66.1878 41.8635 65.9814C41.9023 65.8399 41.9577 65.7036 42.0283 65.575C42.062 65.5114 42.1013 65.4477 42.135 65.3878L42.1257 65.3784C42.0072 65.5944 41.8686 65.7988 41.7118 65.9889C41.6293 66.0858 41.5398 66.1765 41.4441 66.2604C41.3649 66.3378 41.2769 66.4057 41.1819 66.4626C41.1388 66.4851 41.0246 66.5525 40.9946 66.4795C40.9647 66.4065 41.0321 66.2604 41.0789 66.1799C41.1356 66.0681 41.2068 65.9642 41.2905 65.8709C41.3809 65.7861 41.4773 65.7078 41.5789 65.6368C41.7284 65.5183 41.8854 65.4095 42.0489 65.311C42.0489 65.311 42.0395 65.311 42.0395 65.2979C41.8504 65.3712 41.6572 65.4338 41.4609 65.4851C41.2201 65.5667 40.9657 65.6011 40.7119 65.5863C40.6445 65.5863 40.5733 65.5563 40.5733 65.4758C40.5733 65.3953 40.6819 65.3241 40.7512 65.2885C40.845 65.2297 40.9456 65.1825 41.0508 65.1481C41.168 65.1248 41.2881 65.1204 41.4066 65.135C41.6107 65.1518 41.813 65.178 42.0133 65.1949C42.0119 65.1894 42.0119 65.1836 42.0133 65.178C41.8261 65.1144 41.6276 65.0339 41.4291 64.9777C41.2065 64.9371 41.0003 64.833 40.8355 64.6781C40.7887 64.6275 40.7044 64.5208 40.725 64.4496C40.7456 64.3784 40.8823 64.4028 40.9366 64.4159C41.1786 64.4784 41.405 64.5907 41.6014 64.7455C41.7512 64.8466 41.9122 64.944 42.0545 65.0544L42.0714 65.0338C42.0264 64.987 41.9871 64.9402 41.9403 64.8971C41.8392 64.8054 41.7249 64.738 41.6238 64.6444C41.4677 64.4941 41.3513 64.3075 41.2849 64.1013C41.268 64.0432 41.2381 63.914 41.3186 63.8766C41.3991 63.8391 41.5059 63.9365 41.5508 63.974C41.7257 64.1218 41.8647 64.3075 41.9571 64.517C42.0342 64.6646 42.1012 64.8173 42.1575 64.9739C42.1313 64.8391 42.107 64.708 42.0901 64.5713C42.0456 64.3269 42.0689 64.075 42.1575 63.8429C42.1912 63.7624 42.4066 63.4028 42.4965 63.6238C42.5281 63.7396 42.5364 63.8605 42.5208 63.9796C42.5157 64.1152 42.4975 64.2501 42.4665 64.3822C42.4234 64.5844 42.3654 64.7829 42.3054 64.9833C42.322 64.9878 42.3378 64.9947 42.3523 65.0039C42.4567 64.816 42.5724 64.6347 42.6987 64.4608C42.8273 64.2758 43.0068 64.132 43.2155 64.047C43.2792 64.0208 43.4028 63.9534 43.4702 64.017C43.5376 64.0807 43.4702 64.1781 43.444 64.2324C43.3198 64.4391 43.1409 64.6076 42.9271 64.7193L42.5919 64.9458C42.5339 64.9833 42.474 65.017 42.4178 65.0544C42.4297 65.0651 42.4387 65.0787 42.444 65.0938L42.4946 65.0601C42.6619 64.942 42.8446 64.8475 43.0376 64.7792C43.1527 64.7403 43.2723 64.7163 43.3934 64.708C43.5175 64.6891 43.6438 64.6891 43.7679 64.708C43.8117 64.71 43.8541 64.7238 43.8906 64.7478C43.9272 64.7719 43.9566 64.8053 43.9758 64.8447C44.0039 64.9327 43.929 65.0095 43.8597 65.0507C43.775 65.1002 43.6788 65.1267 43.5807 65.1275C43.4421 65.1406 43.3054 65.1481 43.1706 65.1574L42.4758 65.2043C42.4775 65.2187 42.4742 65.2332 42.4665 65.2455C42.6892 65.2712 42.9084 65.3214 43.12 65.3953C43.3477 65.4662 43.5572 65.5857 43.7342 65.7454C43.7792 65.796 43.8784 65.8859 43.8353 65.9626C43.7923 66.0394 43.6481 66.0207 43.5732 66.0038C43.3322 65.9339 43.1053 65.8224 42.9028 65.6743C42.738 65.5675 42.577 65.4496 42.4197 65.3316C42.4163 65.3386 42.4116 65.3448 42.4059 65.35C42.4001 65.3551 42.3933 65.3591 42.386 65.3616C42.4439 65.4287 42.4977 65.4994 42.547 65.5732C42.6483 65.694 42.7403 65.8223 42.8223 65.957C42.9329 66.1845 43.002 66.4299 43.0264 66.6817C43.0264 66.7548 43.0264 66.869 42.9253 66.839C42.8183 66.792 42.7286 66.7128 42.6687 66.6124Z" fill="white"/>
<path d="M39.5808 81.5912C39.4398 81.3944 39.3485 81.1663 39.3149 80.9264C39.2812 80.7392 39.2681 80.5519 39.225 80.3797C39.2073 80.3846 39.1891 80.3877 39.1707 80.389C39.1707 80.4864 39.1707 80.5763 39.1707 80.6774C39.1707 80.8459 39.1838 80.9002 39.1707 81.0706C39.1678 81.323 39.0973 81.57 38.9666 81.786C38.9292 81.8459 38.8655 81.947 38.7793 81.9039C38.6932 81.8609 38.6913 81.6811 38.6876 81.6006C38.6729 81.3839 38.7003 81.1664 38.7681 80.9601C38.8053 80.8181 38.8606 80.6816 38.9329 80.5538C38.9666 80.4901 39.0041 80.4265 39.0378 80.3665V80.3572C38.918 80.5728 38.7788 80.7772 38.6221 80.9676C38.5396 81.064 38.4508 81.1548 38.3561 81.2392C38.2767 81.3171 38.188 81.385 38.0921 81.4414C38.0509 81.4639 37.9367 81.5313 37.9048 81.4583C37.873 81.3852 37.9423 81.2392 37.9891 81.1586C38.0458 81.0468 38.117 80.943 38.2007 80.8497C38.2911 80.7648 38.3875 80.6866 38.4891 80.6156C38.639 80.4975 38.7959 80.3887 38.9591 80.2898C38.9575 80.2855 38.9575 80.2809 38.9591 80.2767C38.7692 80.3498 38.5754 80.4123 38.3786 80.4639C38.1378 80.5456 37.8834 80.5799 37.6296 80.565C37.5603 80.565 37.4891 80.5351 37.4891 80.4546C37.4891 80.374 37.5996 80.3029 37.667 80.2673C37.7613 80.2081 37.8626 80.1609 37.9685 80.1269C38.0851 80.1038 38.2045 80.0994 38.3224 80.1137C38.5265 80.1306 38.7307 80.1568 38.9292 80.1737C38.9277 80.1681 38.9277 80.1623 38.9292 80.1568C38.7419 80.0931 38.5434 80.0126 38.3449 79.9583C38.1224 79.9162 37.9165 79.8116 37.7513 79.6568C37.7064 79.6063 37.6202 79.4995 37.6427 79.4284C37.6652 79.3572 37.7981 79.3816 37.8543 79.3947C38.0962 79.4576 38.3225 79.5698 38.5191 79.7242C38.667 79.8254 38.828 79.9227 38.9722 80.0332C38.9769 80.0256 38.9826 80.0187 38.9891 80.0126C38.9423 79.9658 38.9048 79.919 38.858 79.8778C38.755 79.7842 38.6408 79.7168 38.5397 79.6231C38.3841 79.4725 38.2677 79.286 38.2007 79.0801C38.1839 79.022 38.1539 78.8928 38.2344 78.8554C38.3149 78.8179 38.4217 78.9153 38.4685 78.9527C38.6429 79.1011 38.7817 79.2867 38.8749 79.4958C38.9518 79.6432 39.0181 79.7959 39.0733 79.9527C39.049 79.8179 39.0228 79.6868 39.0059 79.5501C38.9625 79.3056 38.9858 79.054 39.0733 78.8217C39.1071 78.7411 39.3243 78.3816 39.4123 78.6026C39.4446 78.7182 39.4535 78.8392 39.4385 78.9584C39.432 79.094 39.4132 79.2287 39.3823 79.361C39.3411 79.5632 39.2812 79.7617 39.2213 79.9621C39.2375 79.9673 39.2532 79.9742 39.2681 79.9827C39.3738 79.7958 39.4901 79.6151 39.6164 79.4415C39.7435 79.2546 39.9235 79.1099 40.1332 79.0258C40.195 78.9996 40.3205 78.9321 40.386 78.9958C40.4516 79.0595 40.386 79.1569 40.3617 79.2112C40.2361 79.4173 40.0577 79.586 39.8448 79.6999L39.5059 79.9265C39.446 79.9639 39.3861 79.9976 39.3318 80.037C39.3434 80.0468 39.3519 80.0598 39.3561 80.0744C39.373 80.0613 39.3898 80.0538 39.4085 80.0407C39.5749 79.9223 39.7571 79.8277 39.9497 79.7598C40.065 79.7218 40.1845 79.6979 40.3055 79.6887C40.4296 79.6697 40.5559 79.6697 40.68 79.6887C40.7238 79.6907 40.7662 79.7044 40.8027 79.7285C40.8393 79.7525 40.8687 79.786 40.8879 79.8254C40.9178 79.9134 40.8411 79.9902 40.7736 80.0332C40.6888 80.0821 40.5926 80.1079 40.4946 80.1081C40.3542 80.1212 40.2194 80.1306 40.0827 80.1381L39.3879 80.1849C39.3915 80.199 39.3915 80.2138 39.3879 80.228C39.6101 80.2521 39.8288 80.3018 40.0396 80.3759C40.2676 80.446 40.4773 80.5656 40.6538 80.7261C40.7006 80.7785 40.798 80.8665 40.7549 80.9433C40.7119 81.0201 40.5677 81.0013 40.4928 80.9845C40.2522 80.9149 40.0259 80.8034 39.8242 80.6549C39.6576 80.5482 39.4965 80.4302 39.3411 80.3122C39.3339 80.326 39.3219 80.3367 39.3074 80.3422C39.3648 80.4098 39.4185 80.4805 39.4685 80.5538C39.5692 80.6758 39.6611 80.8047 39.7437 80.9396C39.8531 81.1667 39.9215 81.4114 39.946 81.6624C39.9553 81.7354 39.946 81.8496 39.8448 81.8197C39.7348 81.7735 39.6423 81.6935 39.5808 81.5912Z" fill="white"/>
<path d="M55.3161 69.7565C55.1749 69.5595 55.0831 69.3316 55.0483 69.0917C55.0146 68.9045 55.0015 68.7172 54.9603 68.5449C54.9416 68.5468 54.9228 68.5468 54.9041 68.5449C54.9135 68.6442 54.9041 68.7322 54.9135 68.8333C54.9135 69.0037 54.9266 69.058 54.9135 69.2284C54.9103 69.4805 54.8405 69.7273 54.7112 69.9437C54.6719 70.0037 54.6083 70.1048 54.524 70.0617C54.4397 70.0186 54.4341 69.837 54.4304 69.7565C54.4165 69.5405 54.4439 69.3238 54.5109 69.1179C54.5488 68.9762 54.6042 68.8397 54.6757 68.7116C54.7094 68.6479 54.7487 68.5842 54.7824 68.5243V68.515C54.6632 68.7306 54.5247 68.9349 54.3686 69.1254C54.2856 69.2219 54.1961 69.3126 54.1008 69.3969C54.0216 69.4744 53.9336 69.5423 53.8386 69.5992C53.7956 69.6198 53.6813 69.6891 53.6514 69.616C53.6214 69.543 53.6888 69.3969 53.7356 69.3164C53.7928 69.2043 53.8639 69.0999 53.9472 69.0056C54.0377 68.9214 54.1341 68.8439 54.2356 68.7734C54.3852 68.6549 54.5422 68.546 54.7056 68.4476C54.7056 68.4476 54.7056 68.4382 54.7056 68.4344C54.5158 68.5078 54.322 68.5703 54.1251 68.6217C53.8843 68.7035 53.63 68.7379 53.3761 68.7228C53.3087 68.7135 53.2357 68.6929 53.2357 68.6123C53.2357 68.5318 53.3461 68.4607 53.4135 68.4251C53.5083 68.3672 53.6095 68.3207 53.715 68.2865C53.8321 68.2625 53.9523 68.258 54.0708 68.2734C54.2749 68.2903 54.4772 68.3165 54.6757 68.3333C54.6735 68.3279 54.6735 68.3219 54.6757 68.3165C54.4884 68.2528 54.2899 68.1723 54.0914 68.1161C53.869 68.0751 53.6629 67.9711 53.4978 67.8165C53.451 67.7659 53.3667 67.6592 53.3873 67.588C53.4079 67.5169 53.5446 67.5412 53.5989 67.5525C53.8408 67.6164 54.0671 67.7292 54.2637 67.8839C54.4116 67.985 54.5727 68.0824 54.7169 68.1929C54.7216 68.1854 54.7273 68.1784 54.7337 68.1723C54.6869 68.1255 54.6495 68.0787 54.6026 68.0356C54.5015 67.9438 54.3873 67.8745 54.2862 67.7828C54.1304 67.6323 54.014 67.4458 53.9472 67.2397C53.9304 67.1798 53.9004 67.0525 53.9809 67.015C54.0615 66.9776 54.1682 67.0749 54.2131 67.1124C54.3879 67.2603 54.5269 67.446 54.6195 67.6554C54.6966 67.803 54.7635 67.9557 54.8199 68.1124C54.7936 67.9775 54.7674 67.8465 54.7506 67.7098C54.7077 67.4651 54.7316 67.2135 54.8199 66.9813C54.8536 66.9008 55.0689 66.5413 55.1588 66.7604C55.1894 66.8763 55.1977 66.9971 55.1831 67.1161C55.1784 67.2518 55.1602 67.3867 55.1288 67.5187C55.0858 67.7229 55.0258 67.9214 54.9678 68.1217C54.9843 68.1262 55.0001 68.1331 55.0146 68.1423C55.119 67.9545 55.2347 67.7731 55.361 67.5993C55.4893 67.4139 55.6689 67.27 55.8779 67.1854C55.9415 67.1592 56.0651 67.0918 56.1325 67.1555C56.2 67.2191 56.1325 67.3165 56.1063 67.3708C55.9821 67.5776 55.8033 67.746 55.5895 67.8577L55.2468 68.0861L55.0727 68.1966C55.0846 68.2073 55.0936 68.2209 55.0989 68.2359L55.1494 68.2004C55.3163 68.0821 55.4992 67.9882 55.6925 67.9214C55.8075 67.8824 55.9271 67.8585 56.0483 67.8502C56.1723 67.8303 56.2987 67.8303 56.4228 67.8502C56.5033 67.8633 56.6101 67.9008 56.6288 67.985C56.6475 68.0693 56.5838 68.1517 56.5145 68.1929C56.4297 68.242 56.3336 68.2684 56.2355 68.2697C56.0951 68.2828 55.9603 68.2903 55.8254 68.2996L55.1307 68.3464C55.1349 68.3598 55.1349 68.3742 55.1307 68.3876C55.3532 68.4136 55.5723 68.4632 55.7842 68.5356C56.0113 68.6075 56.2201 68.7276 56.3966 68.8876C56.4434 68.9382 56.5408 69.028 56.4996 69.1048C56.4584 69.1816 56.3123 69.1629 56.2374 69.146C55.9964 69.0761 55.7696 68.9646 55.567 68.8165C55.4022 68.7097 55.2412 68.5917 55.0839 68.4738C55.0809 68.4808 55.0762 68.4869 55.0704 68.4918C55.0645 68.4967 55.0576 68.5001 55.0502 68.5019C55.1101 68.5711 55.1607 68.6423 55.2112 68.7135C55.3115 68.8358 55.4034 68.9646 55.4865 69.0992C55.5962 69.327 55.6653 69.5723 55.6906 69.8239C55.6906 69.8951 55.6906 70.0112 55.5876 69.9812C55.4758 69.9367 55.3807 69.8581 55.3161 69.7565Z" fill="white"/>
<path d="M89.8447 71.9493C89.7041 71.7515 89.6129 71.5229 89.5788 71.2826C89.5451 71.0954 89.532 70.9081 89.4889 70.7377C89.4708 70.7395 89.4527 70.7395 89.4346 70.7377C89.4346 70.8351 89.4346 70.925 89.4346 71.0261C89.4346 71.1946 89.4458 71.2508 89.4346 71.4193C89.4319 71.6724 89.3614 71.92 89.2305 72.1365C89.193 72.1946 89.1294 72.2976 89.0432 72.2545C88.9571 72.2114 88.9552 72.0298 88.9515 71.9493C88.9367 71.7332 88.9641 71.5164 89.032 71.3107C89.0694 71.1682 89.1248 71.0311 89.1968 70.9025C89.2305 70.8388 89.2679 70.777 89.3016 70.7153C89.1814 70.9306 89.0423 71.1349 88.8859 71.3257C88.804 71.422 88.7151 71.5121 88.62 71.5954C88.5409 71.6734 88.4529 71.7419 88.3579 71.7995C88.3148 71.8201 88.2006 71.8875 88.1706 71.8163C88.1406 71.7452 88.2099 71.5954 88.2567 71.5148C88.313 71.4028 88.3842 71.2989 88.4683 71.2059C88.5577 71.1212 88.6535 71.0436 88.7548 70.9737C88.9043 70.855 89.0613 70.7461 89.2249 70.6478C89.2249 70.6478 89.2249 70.6385 89.2249 70.6347C89.0347 70.707 88.8409 70.7695 88.6444 70.822C88.4039 70.9052 88.1493 70.9402 87.8953 70.925C87.8279 70.9156 87.7549 70.895 87.7549 70.8145C87.7549 70.734 87.8654 70.6609 87.9421 70.6272C88.0368 70.5688 88.138 70.5217 88.2436 70.4868C88.3609 70.4642 88.481 70.4604 88.5994 70.4756C88.8017 70.4924 89.0058 70.5168 89.2043 70.5336C89.203 70.5281 89.203 70.5223 89.2043 70.5168C89.017 70.4531 88.8297 70.3726 88.62 70.3183C88.398 70.2765 88.1926 70.1719 88.0283 70.0168C87.9815 69.9662 87.8953 69.8614 87.9178 69.7883C87.9403 69.7153 88.0732 69.7415 88.1294 69.7546C88.3716 69.8178 88.598 69.9307 88.7942 70.0861C88.9421 70.1872 89.1031 70.2846 89.2473 70.395C89.252 70.3869 89.2577 70.3794 89.2642 70.3726C89.2174 70.3276 89.1799 70.2808 89.1331 70.2377C89.032 70.1441 88.9178 70.0767 88.8148 69.9831C88.6596 69.8328 88.5433 69.6471 88.4758 69.4419C88.459 69.382 88.429 69.2546 88.5095 69.2172C88.5901 69.1797 88.6968 69.2771 88.7436 69.3146C88.9186 69.4616 89.0576 69.6467 89.15 69.8557C89.2269 70.0038 89.2932 70.1571 89.3485 70.3145C89.3241 70.1778 89.2979 70.0467 89.281 69.9119C89.2375 69.6675 89.2608 69.4158 89.3485 69.1835C89.3822 69.103 89.5994 68.7434 89.6874 68.9625C89.7197 69.0782 89.7286 69.1991 89.7136 69.3183C89.7082 69.454 89.6894 69.5889 89.6574 69.7209C89.6162 69.925 89.5563 70.1235 89.4964 70.322C89.5127 70.328 89.5284 70.3355 89.5432 70.3445C89.6489 70.157 89.7652 69.9757 89.8915 69.8014C90.0191 69.615 90.1989 69.4704 90.4083 69.3857C90.472 69.3614 90.5956 69.294 90.6611 69.3576C90.7267 69.4213 90.6611 69.5168 90.6368 69.573C90.5117 69.779 90.3331 69.9473 90.12 70.0598L89.7773 70.2883C89.7174 70.3276 89.6574 70.3613 89.6031 70.3988C89.6139 70.4097 89.6228 70.4224 89.6293 70.4362C89.6462 70.425 89.6631 70.4156 89.6799 70.4025C89.8464 70.2847 90.0285 70.1907 90.2211 70.1235C90.3363 70.085 90.4558 70.0605 90.5769 70.0505C90.701 70.0315 90.8273 70.0315 90.9514 70.0505C91.0319 70.0636 91.1386 70.101 91.1592 70.1853C91.1798 70.2696 91.1124 70.3501 91.045 70.3932C90.9598 70.4414 90.8639 70.4678 90.766 70.4699L90.354 70.498C90.1218 70.5168 89.8934 70.528 89.6593 70.5448C89.6629 70.559 89.6629 70.5738 89.6593 70.5879C89.8812 70.6139 90.0996 70.6635 90.311 70.7359C90.5388 70.8074 90.7483 70.9275 90.9252 71.0879C90.972 71.1385 91.0694 71.2283 91.0263 71.3032C90.9832 71.3781 90.839 71.3632 90.7641 71.3463C90.5233 71.2765 90.297 71.1642 90.0956 71.0149C89.9308 70.91 89.7698 70.792 89.6125 70.6722C89.6093 70.6792 89.6046 70.6855 89.5988 70.6907C89.593 70.6959 89.5862 70.6997 89.5788 70.7021C89.6363 70.7697 89.69 70.8403 89.7398 70.9137C89.8401 71.0361 89.932 71.1649 90.0151 71.2995C90.1242 71.5274 90.1927 71.7727 90.2173 72.0242C90.2173 72.0953 90.2173 72.2114 90.1162 72.1796C90.0031 72.1343 89.9078 72.0535 89.8447 71.9493Z" fill="white"/>
<path d="M117.375 78.0427C117.234 77.8457 117.142 77.6177 117.108 77.3779C117.074 77.1907 117.063 77.0034 117.02 76.8311C117.002 76.8329 116.983 76.8329 116.965 76.8311C116.965 76.9304 116.965 77.0184 116.965 77.1195C116.965 77.2899 116.978 77.3442 116.965 77.5146C116.968 77.7698 116.901 78.0209 116.772 78.2412C116.733 78.3011 116.669 78.4022 116.585 78.3591C116.501 78.3161 116.495 78.1344 116.492 78.0539C116.478 77.8379 116.505 77.6212 116.572 77.4154C116.611 77.2739 116.666 77.1375 116.737 77.009C116.771 76.9453 116.81 76.8817 116.844 76.8218V76.8124C116.725 77.0284 116.587 77.2328 116.43 77.4229C116.347 77.5193 116.257 77.61 116.162 77.6944C116.083 77.7718 115.995 77.8397 115.9 77.8966C115.857 77.9172 115.743 77.9865 115.713 77.9135C115.683 77.8404 115.75 77.6944 115.797 77.6139C115.854 77.5018 115.925 77.3973 116.008 77.303C116.099 77.2193 116.196 77.1417 116.297 77.0708C116.446 76.9523 116.603 76.8435 116.767 76.745C116.767 76.745 116.757 76.7356 116.757 76.7319C116.568 76.8052 116.375 76.8678 116.179 76.9191C115.938 77.0007 115.684 77.0351 115.43 77.0202C115.362 77.0109 115.291 76.9903 115.291 76.9098C115.291 76.8292 115.4 76.7581 115.479 76.7225C115.573 76.665 115.673 76.6185 115.778 76.5839C115.895 76.5599 116.015 76.5555 116.134 76.5708C116.338 76.5877 116.54 76.6139 116.741 76.6307C116.739 76.6252 116.739 76.6194 116.741 76.6139C116.553 76.5502 116.355 76.4697 116.156 76.4135C115.934 76.3721 115.728 76.2682 115.563 76.1139C115.516 76.0634 115.432 75.9566 115.452 75.8855C115.473 75.8143 115.61 75.8386 115.664 75.8499C115.906 75.9138 116.132 76.0266 116.329 76.1813C116.478 76.2824 116.64 76.3798 116.782 76.4903C116.787 76.4822 116.793 76.4752 116.801 76.4697C116.754 76.4229 116.714 76.3761 116.668 76.333C116.566 76.2412 116.452 76.172 116.351 76.0802C116.195 75.9297 116.079 75.7432 116.012 75.5372C115.995 75.4772 115.965 75.3499 116.046 75.3124C116.126 75.275 116.233 75.3724 116.278 75.4098C116.453 75.5574 116.592 75.7432 116.684 75.9529C116.762 76.1005 116.828 76.2531 116.885 76.4098C116.859 76.275 116.834 76.1439 116.817 76.0072C116.773 75.7628 116.796 75.5108 116.885 75.2787C116.919 75.1982 117.134 74.8387 117.224 75.0578C117.255 75.1736 117.264 75.2945 117.248 75.4136C117.243 75.5492 117.225 75.6841 117.194 75.8162C117.151 76.0203 117.093 76.2188 117.033 76.4191C117.049 76.4236 117.065 76.4306 117.08 76.4397C117.184 76.2519 117.3 76.0706 117.426 75.8967C117.555 75.7117 117.734 75.5679 117.943 75.4829C118.007 75.4566 118.13 75.3892 118.198 75.4529C118.265 75.5166 118.197 75.6139 118.171 75.6682C118.047 75.875 117.868 76.0435 117.654 76.1551L117.299 76.3686C117.241 76.4079 117.181 76.4416 117.125 76.4791C117.136 76.4898 117.145 76.5033 117.151 76.5184L117.201 76.4828C117.369 76.3653 117.551 76.2714 117.744 76.2038C117.859 76.1649 117.979 76.141 118.1 76.1326C118.224 76.1128 118.351 76.1128 118.475 76.1326C118.555 76.1457 118.662 76.1832 118.683 76.2675C118.703 76.3517 118.636 76.4341 118.566 76.4753C118.482 76.5248 118.386 76.5513 118.287 76.5521C118.149 76.5652 118.012 76.5727 117.877 76.5821L117.183 76.6289C117.187 76.6423 117.187 76.6567 117.183 76.6701C117.405 76.696 117.624 76.7456 117.836 76.818C118.063 76.8905 118.273 77.0105 118.45 77.1701C118.497 77.2206 118.594 77.3105 118.551 77.3873C118.508 77.464 118.364 77.4453 118.289 77.4285C118.048 77.3585 117.821 77.247 117.619 77.0989C117.454 76.9922 117.293 76.8742 117.136 76.7562C117.133 76.7632 117.128 76.7694 117.122 76.7743C117.116 76.7791 117.109 76.7826 117.102 76.7843C117.162 76.8536 117.213 76.9247 117.263 76.9959C117.364 77.1177 117.456 77.2467 117.538 77.3817C117.649 77.6092 117.718 77.8546 117.742 78.1063C117.742 78.1775 117.742 78.2936 117.641 78.2636C117.532 78.2198 117.439 78.1425 117.375 78.0427Z" fill="white"/>
<path d="M101.058 79.8947C100.917 79.6976 100.826 79.4696 100.792 79.2299C100.758 79.0426 100.745 78.8554 100.702 78.6831C100.684 78.6889 100.666 78.692 100.648 78.6925C100.657 78.7898 100.648 78.8797 100.657 78.9809C100.657 79.1494 100.668 79.2056 100.657 79.3741C100.654 79.6265 100.584 79.8735 100.453 80.0894C100.415 80.1493 100.352 80.2505 100.266 80.2093C100.179 80.1681 100.178 79.9846 100.174 79.904C100.163 79.5397 100.248 79.1788 100.419 78.8573C100.453 78.7936 100.49 78.7299 100.524 78.67C100.404 78.8851 100.265 79.0888 100.108 79.2786C100.026 79.3755 99.9376 79.4662 99.8424 79.5501C99.7628 79.6276 99.6749 79.6961 99.5803 79.7542C99.5372 79.7748 99.423 79.8422 99.393 79.7711C99.3631 79.6999 99.4323 79.5501 99.4792 79.4696C99.5345 79.357 99.6058 79.253 99.6908 79.1606C99.7797 79.0754 99.8755 78.9977 99.9773 78.9284C100.127 78.8091 100.284 78.6996 100.447 78.6007C100.447 78.6007 100.447 78.6007 100.447 78.5895C100.257 78.6618 100.063 78.7243 99.8668 78.7767C99.626 78.8584 99.3716 78.8928 99.1177 78.8779C99.0503 78.8779 98.9773 78.8498 98.9773 78.7692C98.9773 78.6887 99.0878 78.6157 99.1646 78.582C99.2588 78.5228 99.3601 78.4756 99.466 78.4415C99.5832 78.4183 99.7033 78.4139 99.8218 78.4284C100.024 78.4453 100.228 78.4715 100.427 78.4884C100.425 78.4828 100.425 78.4771 100.427 78.4715C100.239 78.4078 100.052 78.3273 99.8424 78.273C99.6204 78.2313 99.415 78.1266 99.2507 77.9715C99.2039 77.921 99.1177 77.8142 99.1402 77.7431C99.1627 77.6719 99.2956 77.6963 99.3518 77.7094C99.5939 77.7719 99.8203 77.8841 100.017 78.0389C100.165 78.1419 100.326 78.2393 100.47 78.3479C100.474 78.3403 100.48 78.3334 100.487 78.3273C100.44 78.2805 100.402 78.2337 100.356 78.1925C100.254 78.0989 100.14 78.0314 100.037 77.9378C99.882 77.7875 99.7657 77.6018 99.6982 77.3966C99.6814 77.3367 99.6514 77.2 99.732 77.1719C99.8125 77.1438 99.9192 77.23 99.966 77.2693C100.141 77.4163 100.28 77.6015 100.372 77.8105C100.449 77.9579 100.516 78.1106 100.571 78.2674C100.547 78.1326 100.52 78.0015 100.503 77.8667C100.46 77.6222 100.483 77.3705 100.571 77.1382C100.605 77.0577 100.822 76.6963 100.91 76.9173C100.942 77.0329 100.951 77.1539 100.936 77.273C100.93 77.4088 100.912 77.5436 100.88 77.6757C100.839 77.8779 100.779 78.0783 100.719 78.2768C100.735 78.282 100.751 78.2889 100.766 78.2974C100.872 78.1108 100.988 77.9301 101.114 77.7562C101.242 77.5698 101.421 77.4252 101.631 77.3405C101.694 77.3161 101.818 77.2468 101.884 77.3105C101.949 77.3742 101.884 77.4715 101.859 77.5277C101.734 77.7333 101.555 77.9015 101.342 78.0146L101 78.2431C100.94 78.2805 100.88 78.3142 100.826 78.3535C100.837 78.3638 100.846 78.3766 100.852 78.391C100.869 78.3779 100.885 78.3704 100.902 78.3573C101.069 78.2394 101.251 78.1455 101.443 78.0783C101.559 78.0389 101.678 78.0144 101.799 78.0052C101.923 77.9863 102.05 77.9863 102.174 78.0052C102.217 78.0076 102.26 78.0215 102.296 78.0455C102.333 78.0695 102.362 78.1028 102.382 78.1419C102.412 78.2299 102.335 78.3067 102.267 78.3498C102.183 78.3986 102.086 78.4245 101.988 78.4247C101.848 78.4378 101.713 78.4472 101.576 78.4547L100.882 78.5015C100.885 78.5156 100.885 78.5304 100.882 78.5445C101.104 78.5687 101.323 78.6183 101.533 78.6925C101.761 78.7633 101.971 78.8835 102.148 79.0445C102.194 79.0951 102.292 79.1831 102.249 79.2599C102.206 79.3366 102.061 79.3198 101.987 79.3029C101.746 79.2315 101.52 79.1194 101.318 78.9715C101.153 78.8666 100.992 78.7468 100.835 78.6288C100.832 78.6359 100.827 78.6422 100.821 78.6473C100.815 78.6525 100.809 78.6564 100.801 78.6588C100.859 78.7259 100.913 78.7966 100.962 78.8704C101.063 78.9923 101.155 79.1212 101.238 79.2561C101.347 79.4833 101.415 79.728 101.44 79.9789C101.44 80.052 101.44 80.1662 101.339 80.1362C101.22 80.0898 101.121 80.0046 101.058 79.8947Z" fill="white"/>
<path d="M72.3136 80.3946C72.1719 80.198 72.08 79.9699 72.0458 79.7299C72.0121 79.5426 71.999 79.3553 71.9578 79.1831C71.9391 79.1848 71.9203 79.1848 71.9016 79.1831C71.911 79.2804 71.9016 79.3703 71.911 79.4715C71.911 79.6419 71.9222 79.6962 71.911 79.8647C71.9083 80.1177 71.8378 80.3654 71.7069 80.5819C71.6694 80.6399 71.6057 80.7429 71.5196 80.6999C71.4335 80.6568 71.4297 80.4752 71.426 80.3946C71.4122 80.1786 71.4395 79.9619 71.5065 79.7561C71.5448 79.6139 71.6001 79.4768 71.6713 79.3479C71.705 79.2861 71.7424 79.2224 71.778 79.1606H71.7687C71.6484 79.376 71.5093 79.5803 71.353 79.7711C71.271 79.8673 71.1822 79.9575 71.087 80.0407C71.0084 80.1193 70.9204 80.1879 70.8249 80.2448C70.7818 80.2654 70.6676 80.3328 70.6376 80.2617C70.6077 80.1905 70.6769 80.0407 70.7238 79.9602C70.78 79.8481 70.8512 79.7442 70.9354 79.6512C71.0247 79.5666 71.1205 79.4889 71.2219 79.419C71.3716 79.2999 71.5293 79.191 71.6938 79.0932C71.6938 79.0932 71.6844 79.0838 71.6844 79.0801C71.4942 79.1524 71.3005 79.2149 71.1039 79.2673C70.8634 79.3506 70.6089 79.3856 70.3549 79.3703C70.2874 79.361 70.2144 79.3404 70.2144 79.2598C70.2144 79.1793 70.3249 79.1082 70.4017 79.0726C70.496 79.014 70.5973 78.9674 70.7032 78.934C70.8202 78.9099 70.9405 78.9055 71.059 78.9209C71.2612 78.9378 71.4653 78.9621 71.6638 78.979C71.6625 78.9734 71.6625 78.9677 71.6638 78.9621C71.4765 78.8984 71.2799 78.8179 71.0795 78.7636C70.8575 78.7219 70.6521 78.6172 70.4878 78.4621C70.441 78.4116 70.3567 78.3067 70.3773 78.2337C70.3979 78.1606 70.5346 78.1869 70.5889 78.2C70.8311 78.2632 71.0575 78.376 71.2537 78.5314C71.4016 78.6325 71.5627 78.7299 71.7069 78.8404C71.7116 78.8322 71.7172 78.8247 71.7237 78.8179C71.6769 78.773 71.6395 78.7262 71.5926 78.6831C71.4915 78.5895 71.3773 78.522 71.2743 78.4284C71.1192 78.2781 71.0028 78.0924 70.9354 77.8872C70.9185 77.8273 70.8904 77.7 70.9709 77.6625C71.0515 77.6251 71.1582 77.7225 71.2031 77.7599C71.3781 77.9069 71.5171 78.0921 71.6095 78.3011C71.6864 78.4491 71.7527 78.6024 71.808 78.7599C71.7836 78.6232 71.7574 78.4921 71.7406 78.3573C71.697 78.1128 71.7203 77.8611 71.808 77.6288C71.8417 77.5483 72.0589 77.1888 72.1469 77.4079C72.1791 77.5235 72.1881 77.6445 72.1731 77.7637C72.1677 77.8994 72.1489 78.0342 72.117 78.1663C72.0758 78.3704 72.0158 78.5689 71.9578 78.7674C71.9735 78.7733 71.9885 78.7809 72.0027 78.7898C72.1085 78.6024 72.2248 78.4211 72.351 78.2468C72.4787 78.0604 72.6584 77.9158 72.8679 77.8311C72.9315 77.8067 73.0551 77.7393 73.1225 77.803C73.19 77.8666 73.1225 77.964 73.0963 78.0183C72.9712 78.2243 72.7926 78.3926 72.5795 78.5052L72.2368 78.7337C72.1769 78.773 72.117 78.8067 72.0627 78.8441C72.0734 78.8551 72.0823 78.8677 72.0889 78.8816L72.1394 78.8479C72.3059 78.73 72.4881 78.6361 72.6806 78.5689C72.7957 78.5301 72.9153 78.5062 73.0364 78.4977C73.1604 78.4778 73.2869 78.4778 73.4109 78.4977C73.4914 78.5108 73.5982 78.5483 73.6188 78.6325C73.6394 78.7168 73.572 78.7973 73.5045 78.8404C73.4193 78.8886 73.3234 78.915 73.2255 78.9172C73.0851 78.9303 72.9503 78.9378 72.8136 78.9471L72.1188 78.9921C72.1224 79.0062 72.1224 79.021 72.1188 79.0351C72.3392 79.0596 72.5564 79.1073 72.7667 79.1775C72.9945 79.249 73.2041 79.3691 73.381 79.5295C73.4278 79.5801 73.5251 79.6699 73.4839 79.7448C73.4427 79.8197 73.2967 79.8048 73.2199 79.7879C72.9791 79.7181 72.7527 79.6058 72.5514 79.4565C72.3866 79.3516 72.2256 79.2336 72.0683 79.1138C72.0652 79.121 72.0606 79.1274 72.0548 79.1326C72.049 79.1378 72.0421 79.1416 72.0346 79.1437C72.0921 79.2113 72.1458 79.2819 72.1956 79.3554C72.2958 79.4777 72.3878 79.6065 72.4709 79.7411C72.5806 79.9689 72.6497 80.2142 72.675 80.4658C72.675 80.5369 72.675 80.653 72.572 80.6212C72.4638 80.5753 72.3732 80.4959 72.3136 80.3946Z" fill="white"/>
<path d="M81.2982 84.4376C81.157 84.2406 81.0652 84.0126 81.0304 83.7728C80.9967 83.5855 80.9836 83.3983 80.9424 83.2279C80.9237 83.2297 80.9049 83.2297 80.8862 83.2279C80.8956 83.3252 80.8862 83.4151 80.8956 83.5163C80.8956 83.6848 80.9087 83.741 80.8956 83.9095C80.8938 84.1618 80.8239 84.4089 80.6934 84.6248C80.654 84.6847 80.5904 84.7859 80.5061 84.7447C80.4218 84.7035 80.4162 84.52 80.4125 84.4394C80.3987 84.2228 80.4261 84.0055 80.493 83.799C80.5313 83.6574 80.5866 83.521 80.6578 83.3927C80.6915 83.329 80.7308 83.2653 80.7645 83.2054C80.6454 83.4204 80.5068 83.6241 80.3507 83.814C80.2681 83.9109 80.1786 84.0016 80.0829 84.0855C80.0038 84.1636 79.9158 84.2321 79.8207 84.2896C79.7777 84.3102 79.6634 84.3776 79.6335 84.3065C79.6035 84.2353 79.6709 84.0855 79.7178 84.005C79.7749 83.8935 79.846 83.7896 79.9294 83.696C80.0194 83.6113 80.1158 83.5337 80.2177 83.4638C80.3668 83.3447 80.5239 83.2358 80.6877 83.138C80.6877 83.138 80.6877 83.1286 80.6877 83.1249C80.4977 83.1974 80.3039 83.2599 80.1073 83.3121C79.8664 83.3938 79.6122 83.4287 79.3582 83.4151C79.2908 83.4058 79.2178 83.3852 79.2178 83.3046C79.2178 83.2241 79.3283 83.1511 79.3957 83.1174C79.4905 83.0593 79.5917 83.0122 79.6972 82.9769C79.8143 82.9535 79.9345 82.9497 80.0529 82.9657C80.2571 82.9826 80.4593 83.0069 80.6578 83.0238C80.6561 83.0183 80.6561 83.0124 80.6578 83.0069C80.4705 82.9432 80.272 82.8627 80.0735 82.8084C79.8511 82.7663 79.6452 82.6617 79.4799 82.5069C79.4331 82.4564 79.3489 82.3515 79.3695 82.2785C79.3901 82.2054 79.5268 82.2317 79.5811 82.2448C79.8228 82.3081 80.0491 82.4202 80.2458 82.5743C80.3956 82.6773 80.5548 82.7747 80.699 82.8852L80.7158 82.8627C80.6709 82.8159 80.6316 82.7691 80.5848 82.7279C80.4836 82.6343 80.3694 82.5669 80.2683 82.4732C80.1124 82.3235 79.996 82.1376 79.9294 81.932C79.9125 81.8721 79.8825 81.7448 79.9631 81.7073C80.0436 81.6699 80.1503 81.7654 80.1953 81.8047C80.3702 81.9517 80.5092 82.1369 80.6016 82.3459C80.6787 82.4941 80.7456 82.6474 80.802 82.8047C80.7758 82.668 80.7514 82.5369 80.7327 82.4021C80.6898 82.1574 80.7138 81.9058 80.802 81.6736C80.8357 81.5931 81.051 81.2317 81.1409 81.4527C81.1717 81.5686 81.18 81.6894 81.1653 81.8085C81.1603 81.9441 81.1421 82.0789 81.111 82.2111C81.0679 82.4152 81.008 82.6137 80.9499 82.8122C80.9662 82.8174 80.9819 82.8243 80.9967 82.8328C81.1016 82.6458 81.2173 82.4651 81.3432 82.2916C81.4717 82.106 81.6512 81.9616 81.86 81.8759C81.9237 81.8515 82.0472 81.7822 82.1147 81.8459C82.1821 81.9096 82.1147 82.0069 82.0884 82.0631C81.9638 82.2695 81.7851 82.4379 81.5716 82.55L81.2289 82.7785C81.169 82.8159 81.111 82.8496 81.0548 82.8889C81.0665 82.899 81.0756 82.9119 81.081 82.9264L81.1316 82.8927C81.2989 82.7752 81.4816 82.6813 81.6746 82.6137C81.7896 82.5741 81.9091 82.5496 82.0304 82.5406C82.1545 82.5217 82.2808 82.5217 82.4049 82.5406C82.4854 82.5519 82.5922 82.5912 82.6109 82.6755C82.6296 82.7597 82.5659 82.8402 82.4967 82.8833C82.4114 82.9315 82.3156 82.9579 82.2177 82.9601L81.8076 82.9882L81.1128 83.035C81.1172 83.049 81.1172 83.064 81.1128 83.0781C81.3355 83.1031 81.5546 83.1527 81.7664 83.226C81.9937 83.2985 82.2031 83.4185 82.3806 83.578C82.4255 83.6286 82.5229 83.7166 82.4817 83.7934C82.4405 83.8702 82.2944 83.8533 82.2195 83.8365C81.9785 83.7659 81.7516 83.6537 81.5491 83.505C81.3843 83.4001 81.2233 83.2803 81.066 83.1623C81.063 83.1695 81.0584 83.1759 81.0525 83.1811C81.0467 83.1863 81.0398 83.1901 81.0323 83.1923C81.0898 83.2598 81.1436 83.3305 81.1933 83.4039C81.2946 83.5254 81.3866 83.6544 81.4686 83.7896C81.5788 84.0173 81.6479 84.2626 81.6727 84.5143C81.6727 84.5855 81.6727 84.7016 81.5716 84.6698C81.4575 84.6243 81.3615 84.5428 81.2982 84.4376Z" fill="white"/>
<path d="M72.9877 68.7678C72.8466 68.5709 72.7554 68.3428 72.7218 68.103C72.6881 67.9157 72.6749 67.7285 72.6319 67.5562C72.6141 67.5611 72.5959 67.5643 72.5776 67.5656C72.5776 67.6629 72.5776 67.7528 72.5776 67.8521C72.5776 68.0225 72.5907 68.0768 72.5776 68.2472C72.5746 68.4996 72.5041 68.7466 72.3735 68.9625C72.336 69.0224 72.2723 69.1236 72.1862 69.0805C72.1001 69.0374 72.0982 68.8558 72.0944 68.7753C72.08 68.5593 72.1067 68.3426 72.1731 68.1367C72.2117 67.9949 72.2677 67.8584 72.3398 67.7304C72.3735 67.6667 72.4109 67.603 72.4446 67.5431V67.5337C72.3248 67.7494 72.1857 67.9537 72.0289 68.1442C71.946 68.2402 71.8572 68.3309 71.763 68.4157C71.6835 68.4936 71.5949 68.5615 71.499 68.618C71.4578 68.6386 71.3435 68.7078 71.3117 68.6348C71.2799 68.5618 71.3492 68.4157 71.396 68.3352C71.4527 68.2234 71.5238 68.1195 71.6076 68.0262C71.698 67.9414 71.7943 67.8632 71.896 67.7921C72.0458 67.6741 72.2028 67.5652 72.366 67.4663C72.3648 67.462 72.3648 67.4575 72.366 67.4532C72.1761 67.5263 71.9823 67.5888 71.7855 67.6405C71.5447 67.7222 71.2903 67.7565 71.0364 67.7416C70.9672 67.7322 70.896 67.7116 70.896 67.6311C70.896 67.5506 71.0065 67.4794 71.0739 67.4438C71.1681 67.3864 71.2687 67.3399 71.3735 67.3053C71.4906 67.2813 71.6108 67.2768 71.7293 67.2922C71.9334 67.309 72.1375 67.3352 72.336 67.3521C72.3344 67.3466 72.3344 67.3407 72.336 67.3352C72.1488 67.2716 71.9503 67.191 71.7518 67.1349C71.5294 67.0935 71.3235 66.9895 71.1582 66.8353C71.1132 66.7847 71.0271 66.678 71.0495 66.6068C71.072 66.5356 71.205 66.56 71.2611 66.5712C71.5029 66.6356 71.729 66.7483 71.9259 66.9027C72.0739 67.0038 72.2349 67.1012 72.3791 67.2116C72.3832 67.2037 72.389 67.1967 72.3959 67.191C72.3491 67.1442 72.3117 67.0974 72.2649 67.0544C72.1619 66.9626 72.0476 66.8933 71.9465 66.8016C71.7913 66.6506 71.6751 66.4642 71.6076 66.2585C71.5907 66.1986 71.5608 66.0712 71.6413 66.0338C71.7218 65.9963 71.8285 66.0937 71.8754 66.1312C72.0496 66.2796 72.1884 66.4652 72.2817 66.6742C72.3582 66.8218 72.4245 66.9745 72.4802 67.1311C72.4559 66.9963 72.4296 66.8652 72.4128 66.7285C72.3692 66.4841 72.3925 66.2324 72.4802 66.0001C72.5139 65.9196 72.7311 65.56 72.8191 65.7791C72.8513 65.8948 72.8602 66.0157 72.8454 66.1349C72.839 66.2706 72.8202 66.4053 72.7892 66.5375C72.748 66.7416 72.6881 66.9401 72.6281 67.1405C72.6447 67.145 72.6605 67.1519 72.675 67.1611C72.7807 66.9736 72.897 66.7923 73.0232 66.618C73.151 66.4322 73.3308 66.2882 73.5401 66.2042C73.6019 66.178 73.7273 66.1106 73.7929 66.1742C73.8584 66.2379 73.7929 66.3353 73.7685 66.3896C73.6434 66.5956 73.4648 66.7639 73.2517 66.8765L72.909 67.1049C72.8491 67.1442 72.7892 67.1779 72.7349 67.2154C72.7463 67.2262 72.7547 67.2397 72.7592 67.2547L72.8098 67.2191C72.9771 67.1016 73.1598 67.0077 73.3528 66.9401C73.4679 66.9012 73.5875 66.8773 73.7086 66.869C73.8327 66.8491 73.9591 66.8491 74.0831 66.869C74.1637 66.8821 74.2704 66.9195 74.291 67.0038C74.3116 67.0881 74.2442 67.1705 74.1768 67.2116C74.0919 67.2608 73.9958 67.2872 73.8977 67.2884C73.7573 67.3015 73.6225 67.309 73.4858 67.3184L72.791 67.3652C72.7945 67.3787 72.7945 67.3929 72.791 67.4064C73.0129 67.4324 73.2314 67.482 73.4427 67.5543C73.6703 67.6263 73.8798 67.7463 74.0569 67.9064C74.1037 67.9569 74.2011 68.0468 74.158 68.1236C74.115 68.2004 73.9708 68.1816 73.8959 68.1648C73.6553 68.0952 73.429 67.9837 73.2274 67.8352C73.0607 67.7285 72.8997 67.6105 72.7442 67.4925C72.7371 67.5059 72.725 67.516 72.7105 67.5206C72.7686 67.5899 72.8191 67.6611 72.8716 67.7322C72.9696 67.8523 73.0597 67.9787 73.1412 68.1105C73.2503 68.3384 73.3188 68.5837 73.3435 68.8352C73.3528 68.9063 73.3435 69.0224 73.2423 68.9925C73.1363 68.9456 73.0473 68.8671 72.9877 68.7678Z" fill="white"/>
<path d="M53.8892 79.6138C53.7479 79.4164 53.6566 79.1876 53.6233 78.9471C53.5877 78.7599 53.5765 78.5726 53.5334 78.4022C53.5154 78.404 53.4972 78.404 53.4791 78.4022C53.4791 78.4996 53.4791 78.5895 53.4791 78.6906C53.4791 78.8591 53.4922 78.9153 53.4791 79.0838C53.477 79.3367 53.4072 79.5844 53.2769 79.801C53.2394 79.8591 53.1757 79.9621 53.0896 79.919C53.0035 79.8759 53.0016 79.6943 52.996 79.6138C52.9832 79.3972 53.0105 79.1801 53.0765 78.9734C53.1154 78.8317 53.1714 78.6952 53.2432 78.567C53.2769 78.5033 53.3143 78.4415 53.348 78.3797C53.2282 78.5948 53.0891 78.7985 52.9323 78.9883C52.8502 79.0857 52.7607 79.1765 52.6645 79.2599C52.5854 79.3379 52.4974 79.4064 52.4024 79.464C52.3612 79.4846 52.2451 79.552 52.2151 79.4808C52.1851 79.4097 52.2526 79.2599 52.2994 79.1793C52.3565 79.0678 52.4276 78.964 52.511 78.8704C52.6014 78.7861 52.6978 78.7085 52.7994 78.6382C52.9485 78.519 53.1055 78.4102 53.2694 78.3123C53.2694 78.3123 53.2694 78.3123 53.2694 78.2992C53.0792 78.3715 52.8854 78.434 52.6889 78.4865C52.4481 78.5687 52.1938 78.6036 51.9398 78.5895C51.8724 78.5801 51.8013 78.5595 51.8013 78.479C51.8013 78.3985 51.9118 78.3254 51.9885 78.2917C52.0827 78.2336 52.1832 78.1865 52.2881 78.1513C52.4054 78.1287 52.5255 78.1249 52.6439 78.1401C52.848 78.1569 53.0503 78.1812 53.2506 78.1981C53.2494 78.1926 53.2494 78.1868 53.2506 78.1812C53.0634 78.1176 52.8649 78.0371 52.6664 77.9828C52.4439 77.9406 52.238 77.8361 52.0728 77.6813C52.026 77.6307 51.9417 77.5258 51.9623 77.4528C51.9829 77.3798 52.1196 77.406 52.1739 77.4191C52.4165 77.4827 52.6434 77.5955 52.8406 77.7506C52.9885 77.8517 53.1495 77.949 53.2937 78.0595C53.2978 78.051 53.3035 78.0434 53.3106 78.0371C53.2638 77.9902 53.2244 77.9453 53.1795 77.9022C53.0765 77.8086 52.9623 77.7412 52.8612 77.6476C52.7053 77.4979 52.5889 77.312 52.5222 77.1064C52.5054 77.0465 52.4754 76.9191 52.5559 76.8817C52.6364 76.8442 52.7432 76.9416 52.7881 76.9791C52.9634 77.1262 53.103 77.3112 53.1963 77.5202C53.2717 77.669 53.338 77.8222 53.3948 77.979C53.3686 77.8423 53.3443 77.7112 53.3274 77.5764C53.2839 77.332 53.3072 77.0803 53.3948 76.848C53.4285 76.7674 53.6439 76.4079 53.7338 76.627C53.7654 76.7428 53.7737 76.8638 53.7581 76.9828C53.7533 77.1185 53.7351 77.2533 53.7038 77.3854C53.6607 77.5895 53.6027 77.788 53.5428 77.9865C53.559 77.9918 53.5747 77.9987 53.5896 78.0071C53.6951 77.8205 53.8108 77.6399 53.936 77.4659C54.0645 77.2803 54.244 77.136 54.4528 77.0502C54.5165 77.0259 54.6401 76.9585 54.7075 77.0221C54.7749 77.0858 54.7075 77.1813 54.6813 77.2375C54.5569 77.4434 54.3789 77.6116 54.1663 77.7243L53.8218 77.9528C53.7637 77.9902 53.7038 78.0258 53.6495 78.0633C53.6602 78.0739 53.6685 78.0867 53.6739 78.1007L53.7244 78.067C53.8917 77.9495 54.0745 77.8556 54.2675 77.788C54.3827 77.7493 54.5021 77.7248 54.6232 77.715C54.7474 77.696 54.8736 77.696 54.9978 77.715C55.0414 77.7166 55.0837 77.73 55.1203 77.7537C55.1569 77.7774 55.1864 77.8107 55.2056 77.8498C55.2356 77.9397 55.1588 78.0146 55.0914 78.0577C55.0055 78.1059 54.909 78.1323 54.8105 78.1344L54.4004 78.1625C54.1682 78.1812 53.9379 78.1925 53.7057 78.2093C53.71 78.2234 53.71 78.2384 53.7057 78.2524C53.9282 78.2784 54.1472 78.328 54.3592 78.4003C54.5866 78.4729 54.7959 78.5929 54.9734 78.7524C55.0202 78.803 55.1176 78.891 55.0745 78.9677C55.0315 79.0445 54.8873 79.0277 54.8124 79.0108C54.571 78.941 54.344 78.8288 54.142 78.6794C53.9772 78.5745 53.8162 78.4565 53.6607 78.3367C53.6537 78.3506 53.6416 78.3613 53.627 78.3666C53.6851 78.4341 53.7356 78.5071 53.7862 78.5782C53.8871 78.7001 53.979 78.829 54.0615 78.964C54.1721 79.1915 54.2412 79.4369 54.2656 79.6887C54.275 79.7598 54.2656 79.8759 54.1645 79.8441C54.05 79.7995 53.9533 79.7186 53.8892 79.6138Z" fill="white"/>
<path d="M48.5262 73.144C48.2225 73.0229 47.9527 72.8302 47.7397 72.5822C47.5693 72.395 47.4195 72.1965 47.2434 72.0204C47.2259 72.0392 47.2064 72.0562 47.1854 72.071C47.2659 72.1759 47.3296 72.2845 47.4045 72.3931C47.5281 72.5803 47.5824 72.6403 47.6947 72.8388C47.8751 73.1287 47.9741 73.4618 47.9812 73.8031C47.9812 73.8986 47.9812 74.0597 47.8502 74.0765C47.7191 74.0934 47.5861 73.8893 47.5225 73.7957C47.3486 73.5591 47.2215 73.2915 47.1479 73.0073C47.0879 72.8184 47.0521 72.6228 47.0412 72.4249C47.0412 72.3275 47.0318 72.2264 47.0206 72.1253H47.0056C47.0242 72.4577 47.0135 72.791 46.9738 73.1215C46.9498 73.2918 46.9135 73.4602 46.8652 73.6252C46.832 73.7714 46.781 73.9128 46.7135 74.0466C46.6817 74.1028 46.5993 74.2619 46.5262 74.1983C46.4139 74.1196 46.4101 73.9192 46.4045 73.7938C46.3876 73.6252 46.3932 73.4552 46.4214 73.2882C46.4631 73.1261 46.5163 72.9671 46.5805 72.8125C46.6659 72.5692 46.7666 72.3315 46.882 72.101C46.8742 72.1007 46.8668 72.0973 46.8614 72.0916C46.6973 72.3123 46.5217 72.5242 46.3352 72.7264C46.1195 72.994 45.8544 73.2178 45.5544 73.3856C45.4701 73.4249 45.3671 73.453 45.3147 73.3612C45.2622 73.2695 45.3297 73.1065 45.3802 73.0148C45.4456 72.8808 45.5267 72.7551 45.6218 72.6403C45.7382 72.5285 45.8724 72.4368 46.0188 72.3687C46.2622 72.2395 46.5131 72.1216 46.7509 71.9942C46.7495 71.9868 46.7495 71.9792 46.7509 71.9718C46.4832 72.041 46.2079 72.0879 45.9401 72.1684C45.6569 72.2824 45.3469 72.3129 45.0469 72.2564C44.957 72.232 44.7829 72.1721 44.7548 72.0691C44.7267 71.9661 44.899 71.9025 44.972 71.8819C45.2941 71.7796 45.6337 71.7439 45.9701 71.777C46.2135 71.7864 46.4663 71.777 46.7191 71.8013C46.717 71.7896 46.717 71.7775 46.7191 71.7658C46.6311 71.7452 46.5543 71.7208 46.4701 71.7058C46.2828 71.674 46.1068 71.6796 45.9233 71.6459C45.6369 71.5865 45.3695 71.4579 45.1443 71.2714C45.0825 71.2171 44.957 71.0841 45.0207 70.9905C45.0843 70.8969 45.2716 70.9269 45.3559 70.9325C45.6626 70.974 45.9559 71.0847 46.2135 71.2564C46.4091 71.3683 46.5968 71.4935 46.7753 71.6309C46.648 71.4942 46.5244 71.3632 46.4008 71.2209C46.1743 70.9734 46.0189 70.6693 45.9514 70.3407C45.9308 70.2246 45.9158 69.6572 46.1779 69.8445C46.2979 69.953 46.3953 70.0841 46.4644 70.2303C46.5561 70.3894 46.6326 70.5568 46.6929 70.7302C46.7921 70.9924 46.8689 71.262 46.9457 71.5336C46.9684 71.5277 46.9916 71.5239 47.015 71.5223C46.9981 71.233 46.9981 70.9428 47.015 70.6535C47.027 70.3522 47.1258 70.0609 47.2996 69.8145C47.3539 69.7396 47.4494 69.5692 47.5693 69.5954C47.6891 69.6217 47.6891 69.7827 47.6966 69.8614C47.7359 70.1891 47.5917 70.4962 47.4607 70.7976L47.2341 71.3089C47.1947 71.395 47.1517 71.4755 47.1161 71.5598C47.1365 71.5634 47.1557 71.5717 47.1723 71.5841C47.1835 71.5579 47.1966 71.5354 47.206 71.5092C47.3109 71.2539 47.4508 71.0144 47.6217 70.7976C47.7245 70.6693 47.8435 70.5547 47.9756 70.4568C48.1046 70.3474 48.2491 70.2578 48.4044 70.1909C48.4552 70.1609 48.5131 70.1451 48.572 70.1451C48.631 70.1451 48.6889 70.1609 48.7396 70.1909C48.837 70.2696 48.8052 70.4119 48.7584 70.5093C48.6977 70.6278 48.6066 70.7279 48.4943 70.7995C48.3445 70.9156 48.1966 71.0242 48.0486 71.131C47.794 71.3182 47.5431 71.5055 47.2996 71.6927C47.3116 71.7084 47.3188 71.7273 47.3202 71.747C47.592 71.6139 47.8778 71.5115 48.1722 71.4418C48.4838 71.3591 48.8095 71.3444 49.1273 71.3987C49.2171 71.4231 49.3932 71.453 49.3988 71.571C49.4044 71.689 49.2302 71.7733 49.131 71.8088C48.8055 71.9042 48.4657 71.9409 48.1273 71.9175C47.8633 71.9175 47.5936 71.8987 47.3277 71.8763C47.3293 71.8866 47.3287 71.8971 47.3257 71.9072C47.3228 71.9172 47.3177 71.9265 47.3109 71.9343C47.427 71.9699 47.5374 72.0148 47.6479 72.0598C47.8511 72.1258 48.0494 72.2059 48.2415 72.2995C48.529 72.4806 48.7825 72.7106 48.9906 72.9792C49.0524 73.0541 49.1347 73.1927 48.9906 73.232C48.8304 73.2522 48.6678 73.2214 48.5262 73.144Z" fill="white"/>
<path d="M61.8402 64.6818C61.5363 64.561 61.2664 64.3683 61.0537 64.12C60.8814 63.9328 60.7316 63.7343 60.5556 63.5582C60.5387 63.5765 60.5198 63.5928 60.4994 63.6069C60.578 63.7118 60.6417 63.8223 60.7166 63.929C60.8402 64.1163 60.9039 64.1762 61.0069 64.3766C61.1872 64.6659 61.2868 64.9982 61.2952 65.3391C61.2952 65.4346 61.2952 65.5975 61.1623 65.6125C61.0293 65.6274 60.8982 65.4252 60.8365 65.3334C60.663 65.0966 60.5359 64.8291 60.4619 64.5451C60.4021 64.3556 60.3662 64.1593 60.3552 63.9608C60.3552 63.8635 60.3458 63.7642 60.3346 63.6631H60.3196C60.3391 63.9955 60.3284 64.3289 60.2878 64.6593C60.2636 64.8288 60.2279 64.9965 60.181 65.1612C60.1464 65.3077 60.0948 65.4497 60.0275 65.5844C59.9957 65.6387 59.9133 65.7997 59.8402 65.7361C59.7298 65.6574 59.7241 65.457 59.7185 65.3316C59.7025 65.1624 59.7082 64.9919 59.7354 64.8241C59.7772 64.6624 59.831 64.504 59.8964 64.3503C59.98 64.106 60.0801 63.8676 60.196 63.6369C60.196 63.6369 60.1792 63.6369 60.1773 63.6369C60.0124 63.8569 59.8362 64.0682 59.6492 64.2698C59.4345 64.5384 59.1692 64.7624 58.8684 64.929C58.7841 64.9683 58.6811 64.9964 58.6287 64.9046C58.5762 64.8129 58.6437 64.6518 58.6942 64.5582C58.7595 64.4242 58.8406 64.2985 58.9358 64.1837C59.0522 64.0713 59.1863 63.979 59.3328 63.9103C59.5762 63.7829 59.8271 63.665 60.0668 63.5358C60.0641 63.5285 60.0641 63.5205 60.0668 63.5133C59.7972 63.5826 59.5219 63.6275 59.2541 63.7099C58.9707 63.8235 58.6607 63.8534 58.3609 63.7961C58.271 63.7717 58.0969 63.7137 58.0688 63.6088C58.0407 63.5039 58.2148 63.4421 58.286 63.4215C58.608 63.3184 58.9477 63.2827 59.2841 63.3167C59.5275 63.3167 59.7803 63.3167 60.0331 63.341C60.031 63.3286 60.031 63.316 60.0331 63.3036C59.947 63.2848 59.8683 63.2586 59.7841 63.2436C59.5968 63.2118 59.4227 63.2174 59.2391 63.1856C58.9524 63.1258 58.6844 62.9972 58.4583 62.8111C58.3965 62.7549 58.271 62.6238 58.3347 62.5302C58.3983 62.4366 58.5856 62.4646 58.6717 62.4721C58.9778 62.514 59.2704 62.6247 59.5275 62.7961C59.7232 62.9078 59.9109 63.0329 60.0893 63.1706C59.962 63.0358 59.8365 62.9028 59.7148 62.7605C59.4867 62.5139 59.3306 62.2095 59.2635 61.8804C59.2429 61.7643 59.2279 61.1969 59.4901 61.3842C59.6101 61.4933 59.7074 61.625 59.7766 61.7718C59.8689 61.9299 59.9455 62.0967 60.005 62.2699C60.1043 62.5339 60.181 62.8036 60.2578 63.0732C60.2808 63.0703 60.3041 63.0703 60.3271 63.0732C60.3103 62.7832 60.3103 62.4925 60.3271 62.2025C60.3388 61.8977 60.439 61.6029 60.6155 61.3542C60.6698 61.2793 60.7653 61.1108 60.8851 61.137C61.005 61.1632 61.0069 61.3242 61.0125 61.401C61.0518 61.7287 60.9076 62.0377 60.7765 62.3373L60.5499 62.8467C60.5106 62.9328 60.4676 63.0152 60.432 63.0976C60.4525 63.1017 60.4718 63.1107 60.4881 63.1238C60.4994 63.0976 60.5125 63.0751 60.5219 63.0489C60.6263 62.7928 60.7662 62.5526 60.9376 62.3354C61.0409 62.2081 61.1598 62.0942 61.2915 61.9965C61.4195 61.8858 61.5642 61.7961 61.7203 61.7306C61.7711 61.7006 61.8289 61.6848 61.8879 61.6848C61.9469 61.6848 62.0047 61.7006 62.0555 61.7306C62.1529 61.8111 62.121 61.9534 62.0742 62.0508C62.0135 62.1687 61.9232 62.2687 61.8121 62.3411C61.6604 62.4553 61.5124 62.5639 61.3645 62.6725L60.6061 63.2343C60.6179 63.2501 60.625 63.2689 60.6267 63.2886C60.8987 63.1563 61.1844 63.0546 61.4787 62.9852C61.79 62.9011 62.1159 62.8858 62.4338 62.9403C62.5236 62.9646 62.6997 62.9965 62.7053 63.1126C62.7109 63.2287 62.5368 63.3167 62.4375 63.3523C62.1118 63.4467 61.7721 63.4834 61.4338 63.4609C61.1698 63.4609 60.9001 63.4403 60.6342 63.4197C60.6356 63.43 60.6348 63.4405 60.6319 63.4505C60.629 63.4605 60.624 63.4697 60.6174 63.4777C60.7322 63.5125 60.8448 63.5544 60.9544 63.6032C61.1516 63.6625 61.3443 63.7357 61.5312 63.8223C61.8219 64.0019 62.0786 64.2314 62.2896 64.5001C62.3514 64.5769 62.4319 64.7155 62.2896 64.7529C62.136 64.7764 61.979 64.7515 61.8402 64.6818Z" fill="white"/>
<path d="M65.3194 74.5971C65.0161 74.4754 64.7465 74.2828 64.5329 74.0353C64.3625 73.8481 64.2127 73.6496 64.0348 73.4736C64.0188 73.4927 63.9999 73.5091 63.9787 73.5222C64.0592 73.6271 64.1229 73.7376 64.1978 73.8443C64.3195 74.0316 64.3757 74.0915 64.488 74.2919C64.6682 74.5812 64.7671 74.9137 64.7745 75.2544C64.7745 75.3499 64.7745 75.5128 64.6434 75.5278C64.5123 75.5428 64.3794 75.3405 64.3157 75.2488C64.1422 75.012 64.0151 74.7445 63.9412 74.4604C63.8812 74.2709 63.8454 74.0746 63.8345 73.8762C63.8345 73.7807 63.8232 73.6795 63.8139 73.5784H63.797C63.8171 73.9107 63.8071 74.2442 63.7671 74.5746C63.7422 74.7448 63.7059 74.9131 63.6584 75.0784C63.6253 75.2245 63.5743 75.366 63.5068 75.4997C63.4731 75.554 63.3925 75.715 63.3195 75.6514C63.2072 75.5727 63.2034 75.3724 63.1978 75.2469C63.1808 75.0784 63.1865 74.9083 63.2146 74.7413C63.2564 74.5792 63.3096 74.4203 63.3738 74.2657C63.459 74.0219 63.559 73.7837 63.6734 73.5522C63.6705 73.5536 63.6673 73.5543 63.6641 73.5543C63.6608 73.5543 63.6576 73.5536 63.6547 73.5522C63.491 73.7727 63.3154 73.984 63.1285 74.1851C62.9134 74.4533 62.6482 74.6772 62.3476 74.8443C62.2634 74.8836 62.1604 74.9117 62.1079 74.82C62.0555 74.7282 62.1229 74.5672 62.1716 74.4735C62.2375 74.3394 62.3193 74.2137 62.4151 74.099C62.5316 73.9877 62.6649 73.8954 62.8102 73.8256C63.0555 73.6983 63.3045 73.5803 63.5442 73.4511C63.5431 73.4436 63.5431 73.4361 63.5442 73.4286C63.2764 73.4979 63.0012 73.5447 62.7334 73.6252C62.4496 73.7397 62.1387 73.7696 61.8383 73.7114C61.7484 73.6889 61.5761 73.629 61.548 73.5241C61.52 73.4193 61.6922 73.3575 61.7653 73.3369C62.0872 73.2336 62.427 73.1979 62.7634 73.232C63.0049 73.232 63.2596 73.232 63.5124 73.2563C63.5112 73.2439 63.5112 73.2313 63.5124 73.2189C63.4244 73.2002 63.3476 73.1739 63.2633 73.1608C63.0761 73.1271 62.9001 73.1328 62.7165 73.1009C62.4301 73.0419 62.1626 72.9133 61.9375 72.7264C61.8758 72.6702 61.7503 72.5391 61.814 72.4455C61.8776 72.3519 62.0649 72.3818 62.1491 72.3875C62.4559 72.429 62.7492 72.5397 63.0068 72.7114C63.2024 72.8233 63.3901 72.9484 63.5686 73.0859C63.4412 72.9511 63.3176 72.82 63.1941 72.6777C62.9681 72.4297 62.8123 72.1259 62.7428 71.7976C62.724 71.6796 62.709 71.1122 62.9693 71.2995C63.0905 71.4081 63.1885 71.5399 63.2577 71.6871C63.3497 71.8461 63.4262 72.0135 63.4862 72.1871C63.5854 72.4493 63.6622 72.7189 63.739 72.9886C63.761 72.9826 63.7836 72.9794 63.8064 72.9792C63.7905 72.6892 63.7905 72.3985 63.8064 72.1084C63.818 71.8037 63.9182 71.5089 64.0948 71.2602C64.1491 71.1853 64.2446 71.0167 64.3625 71.0429C64.4805 71.0692 64.4843 71.2302 64.4918 71.307C64.4992 71.6349 64.417 71.9587 64.2539 72.2433L64.0292 72.7526C63.9899 72.8388 63.9468 72.9212 63.9112 73.0054C63.9319 73.0082 63.9513 73.0166 63.9674 73.0298C63.9768 73.0035 63.9918 72.9811 64.0011 72.9549C64.1061 72.699 64.246 72.4589 64.4168 72.2414C64.5202 72.1141 64.6391 72.0002 64.7708 71.9025C64.8991 71.7931 65.043 71.7035 65.1977 71.6366C65.2487 71.6071 65.3065 71.5916 65.3653 71.5916C65.4242 71.5916 65.482 71.6071 65.5329 71.6366C65.6322 71.7171 65.6003 71.8594 65.5535 71.9568C65.4881 72.0766 65.3926 72.1773 65.2764 72.2489C65.1266 72.365 64.9786 72.4717 64.8307 72.5803L64.0704 73.1421C64.0828 73.1578 64.0905 73.1766 64.0929 73.1964C64.3645 73.065 64.6496 72.9633 64.943 72.8931C65.255 72.8089 65.5815 72.7936 65.8999 72.8481C65.9898 72.8725 66.164 72.9043 66.1715 73.0223C66.1789 73.1402 66.0029 73.2245 65.9037 73.2601C65.578 73.3544 65.2383 73.3911 64.9 73.3687C64.6341 73.3687 64.3644 73.3481 64.1004 73.3275C64.1016 73.3378 64.1008 73.3483 64.0979 73.3583C64.095 73.3682 64.0901 73.3775 64.0835 73.3856C64.198 73.4215 64.3105 73.4634 64.4206 73.511C64.6239 73.5766 64.8223 73.6567 65.0142 73.7507C65.3012 73.9317 65.5546 74.161 65.7632 74.4286C65.825 74.5054 65.9074 74.6439 65.7632 74.6814C65.6102 74.6985 65.4555 74.6692 65.3194 74.5971Z" fill="white"/>
<path d="M81.5491 74.4192C81.2455 74.2981 80.9757 74.1054 80.7627 73.8574C80.5923 73.6702 80.4424 73.4717 80.2664 73.2957C80.2493 73.3144 80.2298 73.3308 80.2084 73.3444C80.2889 73.4511 80.3526 73.5597 80.4275 73.6683C80.5511 73.8556 80.6054 73.9136 80.7177 74.114C80.8981 74.4039 80.9971 74.737 81.0042 75.0784C81.0042 75.1739 81.0042 75.3349 80.8731 75.3518C80.7421 75.3686 80.6091 75.1645 80.5454 75.0709C80.3716 74.8343 80.2445 74.5667 80.1709 74.2825C80.1109 74.0937 80.0751 73.898 80.0642 73.7001C80.0642 73.6028 80.0548 73.5017 80.0436 73.4005H80.0286C80.0472 73.7329 80.0365 74.0663 79.9968 74.3968C79.9728 74.5671 79.9365 74.7354 79.8882 74.9005C79.855 75.0466 79.804 75.1881 79.7365 75.3218C79.7047 75.378 79.6223 75.5372 79.5492 75.4735C79.4369 75.3948 79.4331 75.1945 79.4275 75.069C79.4106 74.9005 79.4162 74.7304 79.4444 74.5634C79.4861 74.4013 79.5393 74.2424 79.6035 74.0878C79.6885 73.8443 79.7892 73.6066 79.905 73.3762C79.8973 73.3779 79.8893 73.3766 79.8825 73.3724C79.7189 73.5929 79.5432 73.8042 79.3564 74.0054C79.1412 74.2741 78.876 74.4985 78.5755 74.6664C78.4912 74.7057 78.3882 74.7338 78.3358 74.6421C78.2834 74.5503 78.3508 74.3874 78.4013 74.2956C78.4663 74.1614 78.5474 74.0357 78.6429 73.9211C78.759 73.8098 78.8925 73.7181 79.038 73.6496C79.2833 73.5204 79.5342 73.4024 79.7721 73.2751C79.7706 73.2677 79.7706 73.26 79.7721 73.2526C79.5043 73.3219 79.229 73.3687 78.9612 73.4492C78.678 73.5632 78.3681 73.5938 78.068 73.5372C77.9781 73.5129 77.804 73.453 77.7759 73.35C77.7478 73.247 77.9201 73.1833 77.9931 73.1627C78.315 73.0595 78.6548 73.0238 78.9912 73.0579C79.2346 73.0672 79.4874 73.0579 79.7402 73.0822C79.7381 73.0704 79.7381 73.0584 79.7402 73.0466C79.6522 73.026 79.5754 73.0017 79.4912 72.9867C79.3039 72.953 79.1279 72.9586 78.9444 72.9268C78.6579 72.8677 78.3904 72.7391 78.1654 72.5523C78.1036 72.4961 77.9781 72.365 78.0418 72.2714C78.1055 72.1777 78.2927 72.2077 78.377 72.2133C78.6838 72.2548 78.977 72.3656 79.2346 72.5373C79.4302 72.6492 79.6179 72.7743 79.7964 72.9118C79.6691 72.7751 79.5455 72.644 79.4219 72.5017C79.196 72.2539 79.0408 71.9499 78.9725 71.6216C78.9519 71.5055 78.9369 70.9381 79.1991 71.1235C79.3186 71.233 79.4159 71.3646 79.4856 71.5111C79.5704 71.6691 79.6406 71.8346 79.6953 72.0055C79.7945 72.2676 79.8713 72.5373 79.9481 72.8069C79.9709 72.8017 79.994 72.7986 80.0174 72.7976C80.0005 72.5082 80.0005 72.2181 80.0174 71.9287C80.0285 71.6238 80.1287 71.3289 80.3058 71.0804C80.3601 71.0055 80.4556 70.8351 80.5754 70.8613C80.6953 70.8875 80.6953 71.0486 80.7027 71.1272C80.7421 71.4549 80.5979 71.762 80.4668 72.0635L80.2571 72.5672C80.2177 72.6534 80.1747 72.7339 80.1391 72.8182C80.1595 72.8217 80.1787 72.8301 80.1953 72.8425C80.2065 72.8163 80.2196 72.7938 80.229 72.7676C80.3303 72.515 80.4657 72.2774 80.6316 72.0616C80.7344 71.9333 80.8534 71.8187 80.9855 71.7208C81.1145 71.6114 81.259 71.5218 81.4143 71.4549C81.4651 71.4249 81.523 71.4091 81.5819 71.4091C81.6409 71.4091 81.6988 71.4249 81.7495 71.4549C81.8469 71.5336 81.8151 71.6759 81.7682 71.7733C81.7062 71.8908 81.6154 71.9907 81.5042 72.0635C81.3544 72.1796 81.2065 72.2863 81.0585 72.395C80.8039 72.5822 80.5529 72.7695 80.3001 72.9567C80.3114 72.9735 80.3185 72.9928 80.3207 73.0129C80.5925 72.8798 80.8783 72.7774 81.1728 72.7077C81.4842 72.6242 81.8101 72.6095 82.1278 72.6646C82.2177 72.689 82.3937 72.7189 82.3993 72.8369C82.4049 72.9549 82.2308 73.0391 82.1315 73.0747C81.8058 73.1691 81.4662 73.2059 81.1278 73.1833C80.8638 73.1833 80.5941 73.1646 80.3282 73.1421C80.3298 73.1524 80.3292 73.163 80.3263 73.173C80.3234 73.1831 80.3183 73.1923 80.3114 73.2002C80.4275 73.2357 80.538 73.2807 80.6484 73.3256C80.8516 73.3917 81.05 73.4718 81.242 73.5653C81.5295 73.7464 81.783 73.9765 81.9911 74.2451C82.0529 74.32 82.1353 74.4585 81.9911 74.496C81.8394 74.5151 81.6855 74.4883 81.5491 74.4192Z" fill="white"/>
<path d="M61.9057 84.8682C61.6021 84.7472 61.3323 84.5544 61.1193 84.3065C60.9488 84.1192 60.799 83.9207 60.623 83.7447C60.6055 83.7635 60.586 83.7804 60.565 83.7952C60.6455 83.9001 60.7092 84.0087 60.7841 84.1173C60.9077 84.3046 60.962 84.3626 61.0743 84.563C61.2547 84.8529 61.3537 85.186 61.3608 85.5274C61.3608 85.6229 61.3608 85.7839 61.2297 85.8008C61.0987 85.8176 60.9657 85.6135 60.902 85.5199C60.7282 85.2833 60.6011 85.0158 60.5275 84.7315C60.4675 84.5427 60.4317 84.347 60.4208 84.1492C60.4208 84.0518 60.4114 83.9507 60.4002 83.8496H60.3852C60.4038 84.1819 60.3931 84.5153 60.3534 84.8458C60.3294 85.0161 60.2931 85.1844 60.2448 85.3495C60.2116 85.4956 60.1606 85.6371 60.0931 85.7708C60.0594 85.827 59.9789 85.9862 59.9058 85.9225C59.7935 85.8439 59.7897 85.6435 59.7841 85.518C59.7671 85.3495 59.7728 85.1795 59.801 85.0124C59.8427 84.8503 59.8959 84.6914 59.9601 84.5368C60.0453 84.2937 60.1453 84.056 60.2597 83.8252C60.2526 83.8244 60.2459 83.8211 60.241 83.8158C60.0773 84.0363 59.9017 84.2476 59.7148 84.4488C59.4992 84.717 59.2341 84.9414 58.9339 85.1098C58.8497 85.1491 58.7467 85.1772 58.6943 85.0855C58.6418 84.9937 58.7092 84.8308 58.7598 84.739C58.8248 84.6048 58.9059 84.4791 59.0014 84.3645C59.1175 84.2532 59.2509 84.1615 59.3965 84.093C59.6418 83.9638 59.8927 83.8458 60.1305 83.7185C60.1291 83.7111 60.1291 83.7034 60.1305 83.696C59.8627 83.7653 59.5875 83.8121 59.3197 83.8833C59.0365 83.9973 58.7265 84.0278 58.4265 83.9713C58.3366 83.9469 58.1624 83.887 58.1344 83.784C58.1063 83.681 58.2785 83.6174 58.3516 83.5968C58.6735 83.4935 59.0133 83.4578 59.3497 83.4919C59.5912 83.5013 59.8459 83.4919 60.0987 83.5162C60.0966 83.5045 60.0966 83.4924 60.0987 83.4807C60.0107 83.4601 59.9339 83.4357 59.8496 83.4207C59.6624 83.387 59.4864 83.3926 59.3028 83.3608C59.0164 83.3018 58.7489 83.1731 58.5239 82.9863C58.4621 82.9301 58.3366 82.799 58.4003 82.7054C58.4639 82.6118 58.6512 82.6417 58.7355 82.6474C59.0422 82.6888 59.3355 82.7996 59.5931 82.9713C59.7887 83.0832 59.9764 83.2083 60.1549 83.3458C60.0275 83.2091 59.9039 83.0781 59.7804 82.9357C59.5544 82.6879 59.3992 82.3839 59.3309 82.0556C59.3103 81.9395 59.2954 81.3721 59.5575 81.5575C59.6771 81.667 59.7744 81.7987 59.844 81.9451C59.9357 82.1043 60.0121 82.2717 60.0725 82.4451C60.1717 82.7073 60.2485 82.9769 60.3253 83.2466C60.3483 83.2445 60.3715 83.2445 60.3946 83.2466C60.3777 82.9572 60.3777 82.6671 60.3946 82.3777C60.4057 82.0728 60.5059 81.7779 60.6829 81.5294C60.7372 81.4545 60.8327 81.2841 60.9526 81.3103C61.0724 81.3365 61.0724 81.4976 61.0799 81.5762C61.0872 81.9039 61.0057 82.2274 60.844 82.5125C60.7672 82.6829 60.6923 82.8533 60.6174 83.0237C60.5781 83.1099 60.535 83.1904 60.4994 83.2747C60.5198 83.2782 60.5391 83.2866 60.5556 83.299C60.5668 83.2728 60.5799 83.2503 60.5893 83.2241C60.6942 82.9688 60.8341 82.7293 61.005 82.5125C61.1033 82.3858 61.2172 82.2719 61.344 82.1736C61.4726 82.0638 61.6172 81.9741 61.7728 81.9077C61.8232 81.8777 61.8808 81.8618 61.9394 81.8618C61.9981 81.8618 62.0557 81.8777 62.1061 81.9077C62.2054 81.9863 62.1735 82.1286 62.1267 82.226C62.0647 82.3436 61.9738 82.4434 61.8627 82.5163C61.7129 82.6324 61.5649 82.7391 61.417 82.8477C61.1623 83.035 60.9114 83.2222 60.6586 83.4095C60.6696 83.4264 60.6766 83.4456 60.6792 83.4657C60.951 83.3325 61.2367 83.2302 61.5312 83.1604C61.8427 83.0769 62.1685 83.0622 62.4862 83.1174C62.5761 83.1417 62.7521 83.1717 62.7578 83.2896C62.7634 83.4076 62.5892 83.4919 62.49 83.5275C62.1643 83.6219 61.8246 83.6586 61.4863 83.6361C61.2222 83.6361 60.9526 83.6174 60.6867 83.5949C60.6883 83.6052 60.6876 83.6158 60.6847 83.6258C60.6818 83.6358 60.6767 83.6451 60.6698 83.6529C60.7859 83.6885 60.8964 83.7335 61.0069 83.7784C61.2101 83.8445 61.4084 83.9246 61.6005 84.0181C61.888 84.1992 62.1415 84.4293 62.3495 84.6978C62.4113 84.7727 62.4937 84.9113 62.3495 84.9488C62.1969 84.9671 62.0422 84.939 61.9057 84.8682Z" fill="white"/>
<path d="M93.2434 83.5986C92.9398 83.4776 92.6699 83.2848 92.4569 83.0369C92.2865 82.8496 92.1367 82.6511 91.9588 82.4751C91.9415 82.4934 91.9227 82.5103 91.9026 82.5256C91.9832 82.6305 92.0449 82.7391 92.1217 82.8477C92.2434 83.035 92.2977 83.093 92.412 83.2934C92.5916 83.5836 92.6905 83.9166 92.6985 84.2578C92.6985 84.3533 92.6985 84.5143 92.5674 84.5312C92.4363 84.548 92.3034 84.3439 92.2397 84.2503C92.0659 84.0137 91.9388 83.7461 91.8652 83.4619C91.806 83.2729 91.7702 83.0773 91.7584 82.8796C91.7584 82.7822 91.7584 82.6811 91.7397 82.58H91.7229C91.7433 82.9123 91.7326 83.2458 91.691 83.5762C91.6677 83.7464 91.632 83.9148 91.5843 84.0799C91.5502 84.2257 91.4993 84.3671 91.4326 84.5012C91.3989 84.5574 91.3184 84.7166 91.236 84.6529C91.1536 84.5892 91.1199 84.3739 91.1143 84.2484C91.0979 84.0798 91.1042 83.9098 91.133 83.7428C91.173 83.5802 91.2263 83.4211 91.2922 83.2672C91.3757 83.0235 91.4758 82.7857 91.5918 82.5556C91.5857 82.5576 91.5791 82.5576 91.5731 82.5556C91.4094 82.7761 91.2337 82.9874 91.0469 83.1885C90.831 83.4573 90.5652 83.6817 90.2641 83.8496C90.1817 83.8889 90.0769 83.917 90.0263 83.8252C89.9757 83.7335 90.0413 83.5706 90.09 83.4788C90.155 83.3446 90.2361 83.2188 90.3315 83.1043C90.448 82.9925 90.5821 82.9008 90.7285 82.8328C90.972 82.7035 91.2229 82.5856 91.4626 82.4582C91.4626 82.4582 91.4626 82.4489 91.4626 82.4358C91.1948 82.505 90.9177 82.5519 90.6517 82.6324C90.3679 82.7465 90.0573 82.7771 89.7566 82.7204C89.6668 82.6961 89.4926 82.6361 89.4645 82.5331C89.4364 82.4301 89.6106 82.3665 89.6817 82.3459C90.0037 82.2428 90.3435 82.2071 90.6798 82.241C90.9233 82.2504 91.1779 82.241 91.4289 82.2654C91.4267 82.2536 91.4267 82.2415 91.4289 82.2298C91.3427 82.2092 91.266 82.1848 91.1817 82.1699C90.9944 82.1362 90.8184 82.1418 90.6349 82.1099C90.3484 82.0509 90.0809 81.9223 89.8559 81.7354C89.7922 81.6792 89.6686 81.5482 89.7304 81.4545C89.7922 81.3609 89.9814 81.3909 90.0675 81.3965C90.3742 81.4383 90.6674 81.549 90.9251 81.7204C91.1204 81.8328 91.3081 81.9579 91.4869 82.095C91.3596 81.9583 91.236 81.8272 91.1124 81.6849C90.8858 81.4372 90.7299 81.1333 90.6611 80.8047C90.6405 80.6886 90.6274 80.1213 90.8877 80.3066C91.0073 80.4162 91.1046 80.5478 91.1742 80.6943C91.2664 80.8534 91.3435 81.0208 91.4045 81.1942C91.5038 81.4564 91.5787 81.7261 91.6554 81.9957C91.6782 81.9905 91.7014 81.9874 91.7247 81.9863C91.7079 81.697 91.7079 81.4068 91.7247 81.1175C91.735 80.8124 91.8353 80.5172 92.0131 80.2692C92.0674 80.1943 92.1629 80.0239 92.2809 80.0501C92.3989 80.0763 92.4026 80.2373 92.4082 80.316C92.4476 80.6437 92.3034 80.9508 92.1723 81.2523L91.9476 81.7635C91.9064 81.8496 91.8633 81.9302 91.8277 82.0144C91.8486 82.0184 91.8683 82.0267 91.8858 82.0388C91.8858 82.0126 91.9083 81.9901 91.9195 81.9639C92.023 81.7078 92.163 81.4682 92.3352 81.2523C92.4373 81.124 92.5557 81.0094 92.6872 80.9115C92.8162 80.8021 92.9607 80.7125 93.1161 80.6456C93.1668 80.6156 93.2247 80.5998 93.2837 80.5998C93.3426 80.5998 93.4005 80.6156 93.4513 80.6456C93.5486 80.7242 93.5187 80.8665 93.4719 80.9639C93.4098 81.0815 93.319 81.1813 93.2078 81.2542C93.058 81.3703 92.9082 81.477 92.7603 81.5856C92.5075 81.7729 92.2547 81.9601 92.0112 82.1474C92.0238 82.1635 92.031 82.1831 92.0318 82.2036C92.3038 82.071 92.5896 81.9687 92.8839 81.8983C93.1953 81.8149 93.5212 81.8002 93.8389 81.8553C93.9288 81.8796 94.1048 81.9096 94.1123 82.0275C94.1198 82.1455 93.9419 82.2298 93.8426 82.2654C93.5176 82.3597 93.1785 82.3964 92.8408 82.374C92.5749 82.374 92.3052 82.3552 92.0412 82.3328C92.0425 82.3431 92.0416 82.3535 92.0387 82.3635C92.0358 82.3735 92.0309 82.3828 92.0244 82.3908C92.1405 82.4264 92.2509 82.4713 92.3614 82.5163C92.5645 82.5827 92.7628 82.6628 92.955 82.756C93.2421 82.9376 93.4955 83.1676 93.7041 83.4357C93.7659 83.5106 93.8464 83.6492 93.7041 83.6866C93.5451 83.7063 93.3839 83.6755 93.2434 83.5986Z" fill="white"/>
<path d="M99.8125 72.8612C99.5089 72.74 99.2391 72.5473 99.026 72.2995C98.8556 72.1122 98.7058 71.9137 98.5279 71.7377C98.511 71.7559 98.4922 71.7723 98.4717 71.7864C98.5522 71.8912 98.614 72.0017 98.6889 72.1085C98.8125 72.2957 98.8762 72.3556 98.981 72.556C99.1598 72.846 99.2586 73.178 99.2675 73.5185C99.2675 73.614 99.2675 73.7769 99.1365 73.7919C99.0054 73.8069 98.8724 73.6047 98.8088 73.5129C98.6353 73.2761 98.5083 73.0086 98.4342 72.7245C98.3752 72.5348 98.3393 72.3386 98.3275 72.1403C98.3275 72.0448 98.3275 71.9437 98.3069 71.8426H98.2919C98.3124 72.1749 98.3017 72.5084 98.2601 72.8388C98.237 73.0085 98.2013 73.1762 98.1534 73.3406C98.1193 73.4871 98.0684 73.6291 98.0017 73.7638C97.968 73.8181 97.8875 73.9792 97.8144 73.9155C97.7039 73.8369 97.6983 73.6365 97.6927 73.511C97.6763 73.3424 97.6826 73.1724 97.7114 73.0054C97.7515 72.8428 97.8047 72.6837 97.8706 72.5298C97.9541 72.2854 98.0542 72.0471 98.1702 71.8163C98.1702 71.8163 98.1552 71.8163 98.1515 71.8163C97.9878 72.0368 97.8122 72.2481 97.6253 72.4493C97.4099 72.718 97.144 72.9419 96.8426 73.1084C96.7602 73.1477 96.6553 73.1758 96.6029 73.0841C96.5504 72.9923 96.6197 72.8313 96.6684 72.7376C96.7337 72.6036 96.8148 72.4779 96.91 72.3631C97.0263 72.2508 97.1605 72.1584 97.3069 72.0897C97.5504 71.9624 97.8013 71.8444 98.041 71.7152C98.0391 71.7078 98.0391 71.7001 98.041 71.6927C97.7732 71.762 97.4961 71.807 97.2302 71.88C96.9464 71.9945 96.6355 72.0244 96.3351 71.9661C96.2452 71.9418 96.071 71.8837 96.043 71.7789C96.0149 71.674 96.189 71.6122 96.2602 71.5916C96.5822 71.4886 96.9219 71.4529 97.2583 71.4868C97.5017 71.4868 97.7564 71.4868 98.0073 71.5111C98.0052 71.4987 98.0052 71.486 98.0073 71.4737C97.9212 71.4549 97.8444 71.4287 97.7601 71.4156C97.5729 71.3819 97.3968 71.3875 97.2133 71.3557C96.9271 71.2958 96.6598 71.1673 96.4343 70.9812C96.3707 70.925 96.2471 70.7939 96.3089 70.7003C96.3707 70.6066 96.5598 70.6347 96.6459 70.6422C96.952 70.6841 97.2446 70.7948 97.5017 70.9662C97.6973 71.0781 97.885 71.2032 98.0635 71.3407C97.9361 71.2059 97.8126 71.0729 97.689 70.9306C97.462 70.684 97.306 70.3805 97.2377 70.0524C97.2171 69.9344 97.204 69.367 97.4642 69.5543C97.5843 69.6634 97.6816 69.7951 97.7507 69.9419C97.843 70.1003 97.9201 70.2671 97.9811 70.44C98.0785 70.704 98.1552 70.9737 98.232 71.2433C98.2546 71.2372 98.2779 71.2341 98.3013 71.234C98.2835 70.944 98.2835 70.6532 98.3013 70.3632C98.3121 70.0583 98.4124 69.7633 98.5897 69.5149C98.644 69.44 98.7395 69.2715 98.8575 69.2977C98.9754 69.3239 98.9792 69.485 98.9848 69.5617C99.0241 69.8894 98.8799 70.1984 98.7488 70.498L98.5241 71.0074C98.4829 71.0935 98.4399 71.1759 98.4043 71.2602C98.4254 71.2633 98.4453 71.2717 98.4623 71.2845C98.4717 71.2583 98.4848 71.2358 98.496 71.2096C98.5995 70.953 98.7395 70.7127 98.9118 70.4962C99.0144 70.3689 99.1327 70.255 99.2638 70.1572C99.3928 70.0478 99.5373 69.9582 99.6926 69.8913C99.7436 69.8619 99.8014 69.8464 99.8602 69.8464C99.9191 69.8464 99.9769 69.8619 100.028 69.8913C100.066 69.935 100.089 69.9901 100.092 70.0479C100.096 70.1058 100.081 70.1633 100.048 70.2115C99.9864 70.3291 99.8956 70.429 99.7844 70.5018C99.6346 70.6179 99.4848 70.7246 99.3368 70.8332L98.5784 71.395C98.5902 71.4109 98.5973 71.4297 98.599 71.4493C98.8711 71.3173 99.1568 71.2156 99.4511 71.1459C99.7624 71.0619 100.088 71.0465 100.406 71.101C100.496 71.1254 100.672 71.1572 100.679 71.2752C100.687 71.3931 100.509 71.4774 100.41 71.513C100.085 71.6073 99.7457 71.644 99.408 71.6216C99.1421 71.6216 98.8724 71.601 98.6084 71.5804C98.6105 71.6012 98.6045 71.622 98.5915 71.6384C98.706 71.6744 98.8185 71.7163 98.9286 71.7639C99.1315 71.8292 99.3292 71.9093 99.5203 72.0036C99.8114 72.1827 100.068 72.4123 100.279 72.6815C100.341 72.7582 100.421 72.8968 100.279 72.9343C100.12 72.9597 99.9563 72.9342 99.8125 72.8612Z" fill="white"/>
<path d="M112.861 83.1211C112.557 82.9996 112.288 82.8069 112.074 82.5594C111.904 82.3721 111.754 82.1717 111.578 81.9976C111.56 82.0164 111.541 82.0333 111.52 82.0481C111.6 82.153 111.664 82.2616 111.739 82.3702C111.863 82.5575 111.926 82.6174 112.029 82.8159C112.21 83.1058 112.309 83.4389 112.316 83.7803C112.316 83.8758 112.316 84.0368 112.185 84.0537C112.054 84.0705 111.921 83.8664 111.857 83.7728C111.683 83.5362 111.556 83.2686 111.482 82.9844C111.422 82.7956 111.387 82.5999 111.376 82.4021C111.376 82.3047 111.366 82.2054 111.355 82.1024H111.34C111.359 82.4348 111.348 82.7682 111.308 83.0987C111.284 83.269 111.248 83.4373 111.2 83.6024C111.167 83.7486 111.116 83.8901 111.048 84.0237C111.016 84.0799 110.934 84.2391 110.861 84.1754C110.748 84.0967 110.745 83.8964 110.739 83.7709C110.722 83.6024 110.728 83.4323 110.756 83.2653C110.797 83.1037 110.851 82.9454 110.915 82.7915C111 82.5475 111.101 82.3092 111.217 82.0781C111.209 82.0778 111.201 82.0744 111.196 82.0687C111.032 82.2894 110.856 82.5013 110.67 82.7035C110.454 82.9711 110.189 83.1949 109.889 83.3627C109.805 83.402 109.702 83.4301 109.649 83.3383C109.597 83.2466 109.664 83.0837 109.715 82.9919C109.78 82.858 109.861 82.7322 109.956 82.6174C110.073 82.5061 110.207 82.4144 110.353 82.3459C110.597 82.2167 110.848 82.0987 111.085 81.9714C111.084 81.9639 111.084 81.9563 111.085 81.9489C110.818 82.0182 110.542 82.065 110.275 82.1455C109.991 82.2595 109.681 82.2901 109.381 82.2335C109.291 82.2092 109.117 82.1493 109.089 82.0463C109.061 81.9433 109.233 81.8796 109.306 81.859C109.628 81.7551 109.968 81.7188 110.305 81.7523C110.548 81.7523 110.801 81.7523 111.054 81.7766C111.051 81.7648 111.051 81.7528 111.054 81.741C110.966 81.7204 110.889 81.6961 110.805 81.6811C110.617 81.6493 110.441 81.6549 110.258 81.6212C109.971 81.5618 109.704 81.4332 109.479 81.2467C109.417 81.1924 109.291 81.0594 109.355 80.9658C109.419 80.8722 109.606 80.9021 109.69 80.9077C109.997 80.9492 110.29 81.06 110.548 81.2317C110.744 81.3436 110.931 81.4687 111.11 81.6062C110.982 81.4695 110.859 81.3384 110.735 81.1961C110.509 80.9487 110.353 80.6446 110.286 80.316C110.265 80.1999 110.25 79.6325 110.512 79.8198C110.626 79.9305 110.717 80.0621 110.78 80.2074C110.872 80.3665 110.948 80.5339 111.009 80.7074C111.108 80.9695 111.185 81.2392 111.261 81.5107C111.284 81.5048 111.307 81.501 111.331 81.4995C111.314 81.2101 111.314 80.92 111.331 80.6306C111.342 80.3258 111.442 80.0309 111.619 79.7823C111.673 79.7074 111.769 79.537 111.889 79.5632C112.009 79.5894 112.01 79.7505 112.016 79.8291C112.055 80.1568 111.911 80.4639 111.78 80.7654C111.703 80.934 111.628 81.1044 111.554 81.2748C111.514 81.3609 111.471 81.4414 111.436 81.5257C111.456 81.5293 111.475 81.5376 111.492 81.55C111.503 81.5238 111.516 81.5013 111.525 81.4751C111.63 81.2198 111.77 80.9803 111.941 80.7635C112.044 80.6352 112.163 80.5206 112.295 80.4227C112.424 80.3132 112.568 80.2242 112.724 80.1587C112.775 80.1283 112.833 80.1123 112.892 80.1123C112.951 80.1123 113.008 80.1283 113.059 80.1587C113.157 80.2373 113.125 80.3797 113.078 80.477C113.017 80.5955 112.926 80.6957 112.814 80.7673C112.664 80.8834 112.516 80.992 112.368 81.0987C112.113 81.286 111.863 81.4733 111.619 81.6605C111.631 81.6762 111.638 81.6951 111.64 81.7148C111.911 81.5817 112.197 81.4793 112.492 81.4096C112.803 81.3269 113.129 81.3122 113.447 81.3665C113.537 81.3909 113.713 81.4208 113.718 81.5388C113.724 81.6568 113.55 81.741 113.451 81.7766C113.125 81.8719 112.785 81.9087 112.447 81.8852C112.183 81.8852 111.913 81.8665 111.647 81.844C111.649 81.8543 111.648 81.8649 111.645 81.8749C111.642 81.885 111.637 81.8942 111.63 81.9021C111.746 81.9377 111.857 81.9826 111.967 82.0275C112.171 82.0936 112.369 82.1737 112.561 82.2672C112.848 82.4483 113.102 82.6784 113.31 82.947C113.372 83.0219 113.454 83.1605 113.31 83.1998C113.156 83.2197 112.999 83.1923 112.861 83.1211Z" fill="white"/>
<path d="M34.4293 76.8835C34.126 76.7618 33.8563 76.5692 33.6428 76.3218C33.4724 76.1345 33.3226 75.9341 33.1447 75.76C33.1278 75.7788 33.109 75.7958 33.0885 75.8105C33.169 75.9154 33.2308 76.024 33.3076 76.1326C33.4293 76.3199 33.4836 76.3798 33.5979 76.5783C33.7775 76.8685 33.8764 77.2015 33.8844 77.5427C33.8844 77.6382 33.8844 77.7992 33.7533 77.8161C33.6222 77.8329 33.4893 77.6288 33.4256 77.5352C33.2522 77.299 33.1251 77.0322 33.0511 76.7487C32.9928 76.5589 32.9576 76.3627 32.9462 76.1645C32.9462 76.0671 32.935 75.9772 32.9256 75.8649H32.9088C32.9292 76.1978 32.9185 76.532 32.8769 76.8629C32.8536 77.0326 32.8179 77.2003 32.7702 77.3648C32.7362 77.5113 32.6853 77.6533 32.6185 77.788C32.5848 77.8423 32.5043 78.0033 32.4219 77.9397C32.3114 77.861 32.3058 77.6607 32.3002 77.5352C32.2848 77.3659 32.2911 77.1954 32.3189 77.0277C32.3589 76.8657 32.4122 76.7073 32.4781 76.554C32.5624 76.3099 32.6625 76.0716 32.7777 75.8405C32.7715 75.8419 32.7651 75.8419 32.759 75.8405C32.5944 76.0602 32.4187 76.2715 32.2328 76.4734C32.0168 76.7416 31.751 76.9655 31.45 77.1326C31.3676 77.1719 31.2628 77.2 31.2122 77.1083C31.1616 77.0165 31.2272 76.8555 31.2759 76.7618C31.3412 76.6278 31.4223 76.5021 31.5174 76.3873C31.6338 76.275 31.7679 76.1826 31.9144 76.1139C32.1579 75.9866 32.4088 75.8667 32.6485 75.7394C32.6468 75.732 32.6468 75.7243 32.6485 75.7169C32.3807 75.7843 32.1035 75.8312 31.8376 75.9135C31.5536 76.0271 31.243 76.057 30.9425 75.9997C30.8527 75.9753 30.6804 75.9173 30.6523 75.8124C30.6242 75.7076 30.7965 75.6458 30.8676 75.6252C31.1894 75.5213 31.5294 75.4856 31.8657 75.5203C32.1092 75.5203 32.3638 75.5203 32.6148 75.5428C32.6127 75.531 32.6127 75.519 32.6148 75.5072C32.5286 75.4885 32.4518 75.4622 32.3676 75.4473C32.1803 75.4154 32.0043 75.4211 31.8208 75.3873C31.5341 75.3291 31.2663 75.2004 31.0418 75.0128C30.9781 74.9585 30.8545 74.8256 30.9163 74.7338C30.9781 74.6421 31.1673 74.6683 31.2534 74.6758C31.5601 74.7176 31.8533 74.8283 32.111 74.9997C32.3068 75.1114 32.4945 75.2365 32.6728 75.3742C32.5455 75.2375 32.4219 75.1065 32.2983 74.9641C32.0709 74.7171 31.915 74.4129 31.847 74.084C31.8283 73.9679 31.8133 73.4005 32.0736 73.5878C32.194 73.6966 32.2914 73.8284 32.3601 73.9754C32.4523 74.1339 32.5294 74.3006 32.5904 74.4735C32.6897 74.7357 32.7664 75.0072 32.8432 75.2769C32.8651 75.2706 32.8878 75.2674 32.9106 75.2675C32.8938 74.9775 32.8938 74.6868 32.9106 74.3968C32.9211 74.0918 33.0214 73.7966 33.199 73.5485C33.2533 73.4736 33.3488 73.3032 33.4668 73.3312C33.5848 73.3593 33.5885 73.5185 33.5941 73.5953C33.6029 73.9231 33.5213 74.2471 33.3582 74.5316L33.1335 75.0409C33.0923 75.1271 33.0492 75.2095 33.0155 75.2918C33.0358 75.2967 33.0549 75.3056 33.0717 75.3181C33.081 75.29 33.0941 75.2694 33.1054 75.2413C33.2103 74.986 33.3502 74.7465 33.5211 74.5297C33.6238 74.4024 33.742 74.2885 33.8731 74.1908C34.0012 74.0801 34.1459 73.9903 34.302 73.9249C34.3526 73.8945 34.4105 73.8785 34.4696 73.8785C34.5286 73.8785 34.5865 73.8945 34.6372 73.9249C34.7364 74.0054 34.7046 74.1477 34.6578 74.2451C34.5952 74.3617 34.5044 74.4608 34.3937 74.5335C34.2439 74.6496 34.0941 74.7582 33.9462 74.8649C33.6934 75.0522 33.4406 75.2394 33.1971 75.4267C33.2097 75.4421 33.2169 75.4611 33.2177 75.481C33.4895 75.3482 33.7753 75.2464 34.0698 75.1776C34.3811 75.0935 34.7069 75.0782 35.0248 75.1327C35.1147 75.157 35.2907 75.187 35.2982 75.305C35.3057 75.4229 35.1278 75.5072 35.0285 75.5446C34.7035 75.6389 34.3644 75.6757 34.0267 75.6533C33.7608 75.6533 33.4911 75.6327 33.2271 75.6121C33.229 75.6328 33.223 75.6536 33.2102 75.6701C33.3247 75.7054 33.4372 75.7467 33.5473 75.7937C33.7504 75.8607 33.9487 75.9414 34.1409 76.0353C34.4287 76.2151 34.6823 76.4446 34.89 76.7131C34.9517 76.7899 35.0323 76.9285 34.89 76.9659C34.7316 76.9873 34.5705 76.9585 34.4293 76.8835Z" fill="white"/>
<path opacity="0.4" d="M117.812 85.9038C117.812 85.9038 118.374 75.6851 117.812 75.275C116.926 74.6252 109.962 75.1851 109.492 74.996C109.022 74.8069 99.6009 68.9738 98.8369 68.8614C98.0729 68.7491 97.571 68.985 97.4474 68.985C97.3238 68.985 97.0991 68.7603 96.5111 68.7715C95.9231 68.7828 94.1891 69.3539 94.1891 69.3539C94.1891 69.3539 79.9388 64.0189 69.8455 64.9926C69.4972 65.0264 64.8944 60.3786 58.6288 60.2138C52.3631 60.049 49.6403 61.7999 49.3108 61.7306C48.9812 61.6613 40.5639 61.4085 39.6876 61.5733C38.8112 61.7381 36.7308 66.4439 36.0248 67.0057C35.3188 67.5675 31.0512 71.0748 29.8715 72.453C28.6918 73.8312 27.6244 79.4172 27.2967 79.9228C26.969 80.4284 24.9222 85.6079 25.0908 86.5498C25.2593 87.4917 29.6224 85.8963 33.0586 85.8963L117.812 85.9038Z" fill="white"/>
<path opacity="0.4" d="M42.5676 61.5246C41.7979 63.0882 39.3673 67.9569 38.6763 68.6086C37.8561 69.3876 32.6841 73.4773 32.4144 74.1084C32.1448 74.7394 31.1579 79.5389 30.9613 80.08C30.7647 80.6212 28.6449 86.1322 28.3546 86.4899C26.5645 86.8213 25.19 87.0741 25.0963 86.5554C24.9297 85.6191 26.9802 80.4321 27.3041 79.9284C27.6281 79.4246 28.6973 73.8368 29.8789 72.4586C31.0605 71.0804 35.315 67.5824 36.0247 67.0057C36.7345 66.4289 38.8149 61.7306 39.6913 61.5658C39.9965 61.5171 41.1481 61.5078 42.5676 61.5246Z" fill="white"/>
</g>
<defs>
<clipPath id="clip0_66_4">
<rect width="128" height="128" fill="white"/>
</clipPath>
</defs>
</svg>
