<svg width="128" height="128" viewBox="0 0 128 128" fill="none" xmlns="http://www.w3.org/2000/svg">
<g clip-path="url(#clip0_66_4)">
<rect width="128" height="128" rx="64" fill="#F0F0F0"/>
<path d="M14.8086 76.3798L12.3537 76.4304L11.1065 76.4528C10.6908 76.4528 10.2714 76.4528 9.85378 76.4622H9.77139V76.3798L9.76202 74.2844V74.1889H9.85565L12.335 74.2001C13.1608 74.2001 13.9884 74.2207 14.8143 74.2301H14.8667V74.2806C14.8667 74.6346 14.8517 74.9885 14.8423 75.3387L14.8086 76.3798ZM14.8086 76.3798L14.788 75.3199C14.788 74.9716 14.7674 74.6271 14.7637 74.2844L14.8143 74.335C13.9884 74.3443 13.1608 74.3649 12.335 74.3649L9.85565 74.378L9.94928 74.2844L9.93805 76.3798L9.85565 76.2955C10.2639 76.2955 10.6721 76.2955 11.0803 76.3049L12.3125 76.3274L14.8086 76.3798Z" fill="#EBEBEB"/>
<path d="M12.0429 79.022L9.58417 79.0726L8.33703 79.0951C7.92131 79.0951 7.50185 79.0951 7.08427 79.1044H7V79.022V76.9266V76.8311H7.09363L9.57293 76.8424C10.3987 76.8424 11.2245 76.8629 12.0522 76.8723H12.1028V76.9304C12.1028 77.2843 12.0878 77.6382 12.0784 77.9884L12.0429 79.022ZM12.0429 79.022L12.0167 77.9622C12.0167 77.6139 11.9942 77.2693 11.9923 76.9266L12.0429 76.9772C11.2152 76.9865 10.3894 77.0071 9.56357 77.0071L7.08427 77.0184L7.1779 76.9266L7.16666 79.022L7.08427 78.9378C7.49249 78.9378 7.90071 78.9378 8.30894 78.9378L9.5411 78.9602L12.0429 79.022Z" fill="#EBEBEB"/>
<path d="M103.874 70.3014L101.416 70.3538L100.178 70.3763C99.7621 70.3763 99.3427 70.3763 98.9251 70.3857H98.8408V70.3014V68.206V68.1124H98.9363L101.416 68.1236C102.241 68.1236 103.067 68.1442 103.895 68.1536H103.923V68.2023C103.923 68.558 103.906 68.912 103.899 69.2621L103.874 70.3014ZM103.874 70.3014L103.846 69.2434C103.846 68.8951 103.826 68.5506 103.822 68.206L103.874 68.2584C103.047 68.2678 102.221 68.2884 101.395 68.2884L98.9157 68.2996L99.0094 68.206L98.9981 70.3014L98.9157 70.219C99.324 70.219 99.7303 70.219 100.14 70.219L101.373 70.2415L103.874 70.3014Z" fill="#EBEBEB"/>
<path d="M101.114 72.9436L98.6555 72.9961L97.4084 73.0185C96.9908 73.0185 96.5732 73.0185 96.1537 73.0279H96.0582V72.9436V70.8482V70.7508H96.1519L98.6312 70.7621C99.4588 70.7621 100.285 70.7827 101.11 70.792H101.163V70.8426C101.163 71.1984 101.146 71.5523 101.139 71.9025L101.114 72.9436ZM101.114 72.9436L101.086 71.8856C101.086 71.5373 101.066 71.1928 101.062 70.8482L101.112 70.9006C100.287 70.91 99.4607 70.9306 98.633 70.9306L96.1537 70.9418L96.2474 70.8482L96.238 72.9436L96.1537 72.8612C96.5638 72.8612 96.9702 72.8612 97.3803 72.8706L98.6124 72.8931L101.114 72.9436Z" fill="#EBEBEB"/>
<path d="M74.5029 53.1186L72.0461 53.1691L70.7989 53.1916C70.3814 53.1916 69.9638 53.1916 69.5443 53.201H69.4675V53.1186L69.4563 51.0232V50.9277H69.5499L72.0292 50.9389C72.8569 50.9389 73.6827 50.9595 74.5085 50.9689H74.561V51.0194C74.561 51.3733 74.5441 51.7273 74.5366 52.0774L74.5029 53.1186ZM74.5029 53.1186L74.4767 52.0587C74.4767 51.7104 74.4561 51.3658 74.4524 51.0232L74.5029 51.0737C73.6771 51.0831 72.8513 51.1037 72.0236 51.1037L69.5443 51.1168L69.6379 51.0232L69.6286 53.1186L69.5443 53.0343C69.9544 53.0343 70.3608 53.0343 70.7709 53.0455L72.003 53.0661L74.5029 53.1186Z" fill="#EBEBEB"/>
<path d="M71.7371 55.7702L69.2803 55.8207L68.0331 55.8432C67.6155 55.8432 67.1961 55.8432 66.7785 55.8432H66.6961V55.7702L66.6849 53.6747V53.5792H66.7785L69.2578 53.5905C70.0855 53.5905 70.9113 53.6111 71.7371 53.6204H71.7895V53.671C71.7895 54.0249 71.7727 54.3788 71.7633 54.729L71.7371 55.7702ZM71.7371 55.7702L71.7109 54.7103C71.7109 54.362 71.6903 54.0174 71.6865 53.6747L71.7371 53.7253C70.9113 53.7347 70.0855 53.7553 69.2578 53.7553L66.7785 53.7684L66.8721 53.6747L66.8628 55.7702L66.7785 55.6859C67.1867 55.6859 67.5949 55.6859 68.005 55.6953L69.2372 55.7177L71.7371 55.7702Z" fill="#EBEBEB"/>
<path d="M68.9825 53.1186L66.5238 53.1691L65.2767 53.1916C64.861 53.1916 64.4415 53.1916 64.0239 53.201H63.9416V53.1186L63.9322 51.0232V50.9277H64.0258L66.5051 50.9389C67.3309 50.9389 68.1586 50.9595 68.9844 50.9689H69.035V51.0194C69.035 51.3733 69.02 51.7273 69.0106 52.0774L68.9825 53.1186ZM68.9825 53.1186L68.9563 52.0587C68.9563 51.7104 68.9339 51.3658 68.932 51.0232L68.9825 51.0737C68.1567 51.0831 67.3291 51.1037 66.5032 51.1037L64.0239 51.1168L64.1176 51.0232L64.1063 53.1186L64.0239 53.0343C64.4322 53.0343 64.8404 53.0343 65.2486 53.0455L66.4808 53.0661L68.9825 53.1186Z" fill="#EBEBEB"/>
<path d="M125.859 79.022L123.402 79.0726L122.155 79.095C121.737 79.095 121.317 79.095 120.9 79.1044H120.818V79.022L120.806 76.9303V76.8348H120.9L123.379 76.8461C124.207 76.8461 125.033 76.8667 125.859 76.876H125.911V76.9303C125.911 77.2843 125.894 77.6382 125.885 77.9884L125.859 79.022ZM125.859 79.022L125.832 77.9621C125.832 77.6138 125.812 77.2693 125.808 76.9266L125.859 76.9772C125.033 76.9865 124.207 77.0071 123.379 77.0071L120.9 77.0184L120.994 76.9266V79.022L120.909 78.9378C121.317 78.9378 121.726 78.9378 122.136 78.9378L123.368 78.9602L125.859 79.022Z" fill="#EBEBEB"/>
<path d="M103.874 40.561L101.416 40.6135L100.169 40.6341C99.7528 40.6434 99.3333 40.6341 98.9158 40.6453H98.8315V40.561V38.4656V38.372H98.927L101.406 38.3832C102.232 38.3832 103.058 38.4057 103.886 38.415H103.923V38.4656C103.923 38.8214 103.906 39.1753 103.899 39.5236L103.874 40.561ZM103.874 40.561L103.846 39.503C103.846 39.1528 103.826 38.8083 103.822 38.4656L103.874 38.5162C103.047 38.5274 102.221 38.5461 101.395 38.548L98.9158 38.5592L99.0094 38.4656L98.9981 40.561L98.9158 40.4786C99.324 40.4786 99.7303 40.4786 100.14 40.4786L101.373 40.4992L103.874 40.561Z" fill="#EBEBEB"/>
<path d="M123.093 27.7731L120.636 27.8237L119.387 27.8462C118.971 27.8462 118.552 27.8462 118.134 27.8555H118.052V27.7713L118.042 25.6759V25.5804H118.136L120.615 25.5916C121.441 25.5916 122.269 25.6122 123.095 25.6215H123.147V25.6721C123.147 26.0279 123.132 26.3799 123.123 26.7301L123.093 27.7731ZM123.093 27.7731L123.066 26.7133C123.057 26.365 123.046 26.0204 123.042 25.6777L123.093 25.7283C122.267 25.7283 121.439 25.7582 120.613 25.7582L118.134 25.7714L118.228 25.6777V27.7731L118.143 27.6889C118.552 27.6889 118.96 27.6889 119.37 27.7001L120.602 27.7207L123.093 27.7731Z" fill="#EBEBEB"/>
<path d="M125.859 30.4153L123.398 30.4659L122.151 30.4884C121.733 30.4884 121.314 30.4884 120.896 30.4977H120.814V30.4153L120.803 28.3199V28.2244H120.896L123.379 28.2432C124.207 28.2432 125.033 28.2638 125.859 28.2731H125.911V28.3237C125.911 28.6776 125.894 29.0315 125.885 29.3817L125.859 30.4153ZM125.859 30.4153L125.832 29.3555C125.832 29.0072 125.812 28.6626 125.808 28.3199L125.859 28.3705C125.033 28.3705 124.207 28.4004 123.379 28.4004L120.9 28.4136L120.994 28.3199V30.4153L120.909 30.3311C121.318 30.3311 121.726 30.3311 122.136 30.3423L123.368 30.3629L125.859 30.4153Z" fill="#EBEBEB"/>
<path d="M29.7294 40.561L27.2725 40.6135L26.0254 40.6341C25.6078 40.6434 25.1884 40.6341 24.7708 40.6453H24.6884V40.561L24.679 38.4656V38.372H24.7726L27.2519 38.3832C28.0778 38.3832 28.9054 38.4057 29.7312 38.415H29.7837V38.4656C29.7837 38.8214 29.7687 39.1753 29.7593 39.5236L29.7294 40.561ZM29.7294 40.561L29.7032 39.503C29.6938 39.1528 29.6826 38.8083 29.6788 38.4656L29.7294 38.5162C28.9036 38.5274 28.0759 38.5461 27.2501 38.548L24.7708 38.5592L24.8644 38.4656L24.855 40.561L24.7708 40.4786C25.179 40.4786 25.5872 40.4786 25.9973 40.4786L27.2295 40.4992L29.7294 40.561Z" fill="#EBEBEB"/>
<path d="M32.4952 43.2032L30.0384 43.2557L28.7913 43.2763C28.3737 43.2856 27.9542 43.2763 27.5366 43.2875H27.4542V43.2032L27.443 41.1078V41.0142H27.5366L30.0159 41.0254C30.8436 41.0254 31.6694 41.0479 32.4952 41.0573H32.5477V41.1078C32.5477 41.4636 32.5308 41.8175 32.5214 42.1658L32.4952 43.2032ZM32.4952 43.2032L32.469 42.1452C32.469 41.7951 32.4484 41.4505 32.4447 41.1078L32.4952 41.1584C31.6694 41.1677 30.8436 41.1883 30.0159 41.1902L27.5366 41.2014L27.6303 41.1078L27.6209 43.2032L27.5366 43.119C27.9448 43.119 28.3531 43.119 28.7632 43.1302L29.9953 43.1508L32.4952 43.2032Z" fill="#EBEBEB"/>
<path d="M12.0429 27.7731L9.58417 27.8237L8.33703 27.8462C7.92131 27.8462 7.50185 27.8462 7.08427 27.8555H7V27.7713V25.6759V25.5804H7.09363L9.57293 25.5916C10.3987 25.5916 11.2245 25.6122 12.0522 25.6215H12.1028V25.6721C12.1028 26.0279 12.0878 26.3799 12.0784 26.7301L12.0429 27.7731ZM12.0429 27.7731L12.0167 26.7133C12.0167 26.365 11.9942 26.0204 11.9923 25.6777L12.0429 25.7283C11.2152 25.7283 10.3894 25.7582 9.56357 25.7582L7.08427 25.7714L7.1779 25.6777L7.16666 27.7731L7.08427 27.6814C7.49249 27.6814 7.90071 27.6814 8.30894 27.6926L9.5411 27.7132L12.0429 27.7731Z" fill="#EBEBEB"/>
<path d="M94.2137 23.9943V63.2231H122.284V23.9943H94.2137ZM121.449 62.3823H95.0452V24.8295H121.449V62.3823Z" fill="#EBEBEB"/>
<path d="M121.447 24.8295H95.0489V62.3879H121.447V24.8295Z" fill="#005078"/>
<path d="M117.878 47.308L118.082 47.7237L118.539 47.7892L118.207 48.1113L118.286 48.5663L117.878 48.351L117.467 48.5663L117.546 48.1113L117.215 47.7892L117.672 47.7237L117.878 47.308Z" fill="#DBDBDB"/>
<path d="M105.346 46.3099L105.55 46.7256L106.007 46.7911L105.676 47.1132L105.754 47.5682L105.346 47.3529L104.938 47.5682L105.015 47.1132L104.685 46.7911L105.142 46.7256L105.346 46.3099Z" fill="#DBDBDB"/>
<path d="M99.854 56.5042L100.058 56.9181L100.515 56.9836L100.184 57.3057L100.262 57.7607L99.854 57.5472L99.4439 57.7607L99.5225 57.3057L99.1929 56.9836L99.648 56.9181L99.854 56.5042Z" fill="#DBDBDB"/>
<path d="M117.878 35.668L118.003 35.9245L118.286 35.9638L118.082 36.1642L118.13 36.4451L117.878 36.3121L117.625 36.4451L117.672 36.1642L117.467 35.9638L117.75 35.9245L117.878 35.668Z" fill="#DBDBDB"/>
<path d="M98.369 45.0403L98.4944 45.2949L98.7772 45.3361L98.5731 45.5365L98.6199 45.8174L98.369 45.6844L98.1162 45.8174L98.1648 45.5365L97.9589 45.3361L98.2416 45.2949L98.369 45.0403Z" fill="#DBDBDB"/>
<path d="M114.762 56.1147L114.889 56.3713L115.172 56.4125L114.968 56.611L115.014 56.8918L114.762 56.7589L114.511 56.8918L114.557 56.611L114.353 56.4125L114.636 56.3713L114.762 56.1147Z" fill="#DBDBDB"/>
<path d="M106.415 37.2859L106.543 37.5406L106.826 37.5818L106.62 37.7821L106.668 38.063L106.415 37.9301L106.163 38.063L106.211 37.7821L106.007 37.5818L106.29 37.5406L106.415 37.2859Z" fill="#DBDBDB"/>
<path d="M104.281 40.8775C104.03 41.3164 103.673 41.6858 103.244 41.9523C102.814 42.2187 102.324 42.3739 101.82 42.4036C101.315 42.4333 100.811 42.3367 100.353 42.1226C99.8947 41.9084 99.4973 41.5834 99.1965 41.177C98.8957 40.7706 98.701 40.2956 98.63 39.795C98.5589 39.2944 98.6138 38.784 98.7897 38.3099C98.9656 37.8359 99.2569 37.4132 99.6372 37.0801C100.018 36.7469 100.475 36.5139 100.968 36.402C100.584 36.5786 100.244 36.8388 99.9724 37.1635C99.7012 37.4882 99.5059 37.8692 99.4007 38.279C99.2954 38.6887 99.2829 39.1167 99.3639 39.5319C99.445 39.9471 99.6177 40.339 99.8693 40.679C100.121 41.019 100.445 41.2986 100.819 41.4974C101.192 41.6963 101.605 41.8093 102.028 41.8283C102.45 41.8473 102.872 41.7719 103.262 41.6074C103.651 41.4429 104 41.1936 104.281 40.8775Z" fill="#DBDBDB"/>
<path d="M108.664 25.0467H107.831V62.8055H108.664V25.0467Z" fill="#EBEBEB"/>
<path d="M123.038 25.6796H93.4609V26.8406H123.038V25.6796Z" fill="#EBEBEB"/>
<path d="M123.038 26.9867H93.4609V28.1477H123.038V26.9867Z" fill="#EBEBEB"/>
<path d="M123.038 28.2919H93.4609V29.4529H123.038V28.2919Z" fill="#EBEBEB"/>
<path d="M123.038 29.5971H93.4609V30.7581H123.038V29.5971Z" fill="#EBEBEB"/>
<path d="M123.038 30.9023H93.4609V32.0633H123.038V30.9023Z" fill="#EBEBEB"/>
<path d="M123.038 32.2093H93.4609V33.3703H123.038V32.2093Z" fill="#EBEBEB"/>
<path d="M120.561 25.4456H120.353V48.0308H120.561V25.4456Z" fill="#263238"/>
<path d="M120.829 49.0008H120.089L120.274 47.9371H120.643L120.829 49.0008Z" fill="#263238"/>
<path d="M121.312 25.4456H121.104V53.7291H121.312V25.4456Z" fill="#263238"/>
<path d="M121.578 54.508H120.838L121.025 53.4463H121.392L121.578 54.508Z" fill="#263238"/>
<path d="M124.332 23.8333H92.167V26.262H124.332V23.8333Z" fill="#DBDBDB"/>
<path d="M48.0807 30.2057H37.158V41.1284H48.0807V30.2057Z" fill="white"/>
<path d="M48.65 41.6977V29.6383H36.5906V41.6977H48.65ZM37.158 30.2057H48.0808V41.1284H37.158V30.2057Z" fill="#DBDBDB"/>
<path d="M37.9445 32.3217V36.0968H46.4572V32.3217H37.9445Z" fill="#EBEBEB"/>
<path d="M40.4387 33.4864V37.8477H44.8V33.4864H40.4387Z" fill="#E3E3E3"/>
<path d="M36.1224 41.6977H36.5887V29.6383H36.1224V41.6977Z" fill="#E3E3E3"/>
<path d="M63.4546 30.2057H52.5319V41.1284H63.4546V30.2057Z" fill="white"/>
<path d="M61.5783 31.1419H58.7264V39.3813H61.5783V31.1419Z" fill="#E3E3E3"/>
<path d="M64.0239 41.6977V29.6383H51.9645V41.6977H64.0239ZM52.5319 30.2057H63.4547V41.1303H52.5319V30.2057Z" fill="#DBDBDB"/>
<path d="M60.1739 33.4864H55.8126V37.8476H60.1739V33.4864Z" fill="#EBEBEB"/>
<path d="M51.4982 41.6977H51.9645V29.6383H51.4982V41.6977Z" fill="#E3E3E3"/>
<path d="M32.3923 30.2057H21.4695V41.1284H32.3923V30.2057Z" fill="white"/>
<path d="M31.1826 36.0575H25.1884V39.6416H31.1826V36.0575Z" fill="#EBEBEB"/>
<path d="M32.9615 41.6977V29.6383H20.9021V41.6977H32.9615ZM21.4695 30.2057H32.3904V41.1303H21.4695V30.2057Z" fill="#DBDBDB"/>
<path d="M29.1115 33.4864H24.7502V37.8476H29.1115V33.4864Z" fill="#E3E3E3"/>
<path d="M20.4339 41.6977H20.9001V29.6383H20.4339V41.6977Z" fill="#E3E3E3"/>
<path d="M7.18726 99.3976L22.0088 99.3508L36.8303 99.334L66.4714 99.304L96.1125 99.334L110.934 99.3508L125.756 99.3976L110.934 99.4426L96.1125 99.4594L66.4714 99.4913L36.8303 99.4594L22.0088 99.4426L7.18726 99.3976Z" fill="#263238"/>
<path d="M85.0325 99.3976L84.9857 89.722L84.9688 80.0482L84.9388 60.6988L84.9688 41.3494L84.9857 31.6756L85.0325 22L85.0774 31.6756L85.0943 41.3494L85.1242 60.6988L85.0943 80.0482L85.0774 89.722L85.0325 99.3976Z" fill="#263238"/>
<path d="M19.8366 92.2631H66.8721V50.085L19.8366 50.085L19.8366 92.2631Z" fill="#0086C8"/>
<path opacity="0.4" d="M19.8366 92.2631H66.8721V50.085L19.8366 50.085L19.8366 92.2631Z" fill="black"/>
<path d="M19.8366 50.085H18.0876V99.3976H19.8366V50.085Z" fill="#0086C8"/>
<path opacity="0.6" d="M19.8366 50.085H18.0876V99.3976H19.8366V50.085Z" fill="black"/>
<path d="M61.0147 92.2631H59.2657V99.3957H61.0147V92.2631Z" fill="#0086C8"/>
<path opacity="0.6" d="M61.0147 92.2631H59.2657V99.3957H61.0147V92.2631Z" fill="black"/>
<path d="M61.0147 99.3976H66.8721V92.2649H61.0147V99.3976Z" fill="#0086C8"/>
<path opacity="0.4" d="M61.0147 99.3976H66.8721V92.2649H61.0147V99.3976Z" fill="black"/>
<path d="M19.8366 99.3976H25.694V92.2649H19.8366V99.3976Z" fill="#0086C8"/>
<path opacity="0.4" d="M19.8366 99.3976H25.694V92.2649H19.8366V99.3976Z" fill="black"/>
<path d="M19.8365 92.2649L78.7199 92.2649V85.9056H19.8365V92.2649Z" fill="#0086C8"/>
<path opacity="0.6" d="M19.8365 92.2649L78.7199 92.2649V85.9056H19.8365V92.2649Z" fill="black"/>
<path d="M78.7199 92.2649H125.755V85.9056H78.7199V92.2649Z" fill="#0086C8"/>
<path opacity="0.4" d="M78.7199 92.2649H125.755V85.9056H78.7199V92.2649Z" fill="black"/>
<path d="M78.7199 92.2631H76.9709V99.3957H78.7199V92.2631Z" fill="#0086C8"/>
<path opacity="0.6" d="M78.7199 92.2631H76.9709V99.3957H78.7199V92.2631Z" fill="black"/>
<path d="M119.898 92.2631H118.149V99.3957H119.898V92.2631Z" fill="#0086C8"/>
<path opacity="0.6" d="M119.898 92.2631H118.149V99.3957H119.898V92.2631Z" fill="black"/>
<path d="M119.898 99.3976H125.755V92.2649H119.898V99.3976Z" fill="#0086C8"/>
<path opacity="0.4" d="M119.898 99.3976H125.755V92.2649H119.898V99.3976Z" fill="black"/>
<path d="M78.72 99.3976H84.5774V92.2649H78.72V99.3976Z" fill="#0086C8"/>
<path opacity="0.4" d="M78.72 99.3976H84.5774V92.2649H78.72V99.3976Z" fill="black"/>
<path d="M22.651 85.9038H79.8604V75.4061H22.651V85.9038Z" fill="#EBEBEB"/>
<path d="M79.8603 85.9038H124.812V75.4061H79.8603V85.9038Z" fill="#DBDBDB"/>
<path d="M70.8814 73.3107C71.2559 73.8575 72.0292 74.6477 71.3589 74.8761C70.9044 75.0073 70.422 75.0073 69.9675 74.8761C69.9675 74.8761 64.4621 75.4379 60.5297 75.6027C56.5973 75.7675 49.2942 75.2151 48.9197 75.1608C48.5452 75.1065 47.7868 75.687 47.5284 75.5596C47.2699 75.4323 47.8467 74.2919 47.8467 74.0728C47.8467 73.8537 46.4123 70.2771 45.9385 67.9345C45.4648 65.5919 45.4142 63.2062 45.3618 62.9309C45.3093 62.6557 44.3637 61.4329 44.6727 61.1295C44.9816 60.8261 46.4909 61.7287 46.6258 61.7755C46.7606 61.8224 53.5824 59.8842 57.4624 59.9554C61.3424 60.0265 66.7767 61.034 66.9115 61.034C67.0463 61.034 68.5743 60.2662 68.9414 60.5059C69.3084 60.7456 68.6137 62.2549 68.6717 62.4478C68.7298 62.6407 70.005 66.0413 70.357 67.9813C70.7091 69.9213 70.8814 73.3107 70.8814 73.3107Z" fill="white"/>
<path d="M53.4794 67.8483C53.4794 67.8483 71.5031 75.4323 74.6546 75.936C76.5459 76.2375 88.4237 76.4304 99.2941 76.2806L100.217 69.8745C89.9986 65.8821 78.2387 66.2941 77.4691 66.105C76.8886 65.9626 71.3701 61.1445 64.5089 60.7475C60.1383 60.4966 56.4568 62.2044 56.4568 62.2044L53.4794 67.8483Z" fill="#F7A9A0"/>
<path d="M76.3231 65.3709L77.4747 66.0956C80.8864 66.1251 84.2936 66.3471 87.6803 66.7604C91.0732 67.1643 94.4221 67.877 97.6855 68.8895C98.5001 69.146 99.3072 69.4307 100.109 69.7172C100.208 69.7509 100.309 69.7864 100.408 69.8145C100.45 69.8297 100.495 69.8392 100.539 69.8426C100.587 69.8395 100.635 69.8332 100.682 69.8239C100.884 69.7827 101.088 69.7228 101.292 69.6666C101.7 69.5486 102.109 69.4232 102.524 69.3146C102.732 69.2621 102.94 69.2116 103.153 69.1722C103.371 69.1232 103.596 69.1099 103.818 69.1329C104.031 69.1868 104.238 69.2614 104.436 69.3558C104.623 69.4438 104.826 69.543 105.017 69.6329C105.781 70.0168 106.524 70.4362 107.264 70.8613C107.451 70.968 107.638 71.0767 107.826 71.1722L108.387 71.4718C108.762 71.6721 109.136 71.8781 109.511 72.086C110.26 72.5036 110.992 72.9305 111.719 73.3781C112.082 73.6028 112.441 73.8312 112.797 74.0672C113.156 74.2966 113.501 74.5467 113.831 74.8162C113.918 74.8843 113.99 74.969 114.044 75.0653C114.068 75.1743 114.055 75.2878 114.009 75.3892C113.919 75.5859 113.785 75.7585 113.616 75.8929C113.28 76.1627 112.876 76.3328 112.449 76.3836C112.873 76.3269 113.273 76.1517 113.602 75.878C113.765 75.7434 113.894 75.572 113.977 75.378C114.019 75.2833 114.03 75.1776 114.007 75.0765C113.953 74.9879 113.884 74.9104 113.801 74.848C113.468 74.584 113.12 74.3389 112.76 74.114C112.402 73.8837 112.039 73.6627 111.672 73.4455C110.939 73.0085 110.199 72.5866 109.453 72.1796C109.078 71.9755 108.704 71.7733 108.329 71.5766C107.955 71.38 107.565 71.1928 107.206 70.9755C106.457 70.5561 105.708 70.1497 104.959 69.7677C104.771 69.6741 104.584 69.5805 104.384 69.4962C104.197 69.4077 104.002 69.3374 103.801 69.2865C103.599 69.269 103.395 69.2829 103.197 69.3277C102.991 69.367 102.785 69.4176 102.58 69.47C102.17 69.5786 101.764 69.7041 101.354 69.8239C101.148 69.8838 100.944 69.9437 100.727 69.9868C100.669 69.9996 100.611 70.0071 100.552 70.0093C100.52 70.0095 100.487 70.0057 100.455 69.9981L100.373 69.9756C100.266 69.9456 100.165 69.91 100.064 69.8763C99.2585 69.5917 98.457 69.3146 97.6443 69.0599C94.3924 68.0446 91.0557 67.3239 87.6747 66.9064C85.9893 66.6817 84.2909 66.5132 82.5925 66.3802C80.894 66.2473 79.1919 66.1461 77.4878 66.1106L76.3231 65.3709Z" fill="#263238"/>
<path d="M66.2448 73.0429C66.2448 73.0429 69.3795 66.1031 72.6528 62.7156C72.6528 62.7156 64.9528 58.2214 56.4568 62.2044L53.4794 67.8483C53.4794 67.8483 63.2656 71.998 66.2448 73.0429Z" fill="#0086C8"/>
<path d="M74.0666 75.8068C73.4578 75.6913 72.8562 75.54 72.2652 75.3536C71.6716 75.1757 71.0836 74.9791 70.4994 74.7713C69.9151 74.5634 69.3346 74.3499 68.7541 74.1327C68.1736 73.9155 67.6006 73.6833 67.0257 73.453C65.876 72.9904 64.7299 72.5167 63.5933 72.0261C62.4566 71.5354 61.3218 71.0392 60.1964 70.528H60.2414C59.3931 70.6815 58.5392 70.7808 57.6834 70.8501C57.2546 70.88 56.8276 70.9044 56.3969 70.9156C55.9662 70.9269 55.5393 70.9287 55.1105 70.9156C55.9681 70.8913 56.8239 70.8426 57.6759 70.7508C58.5279 70.6591 59.3762 70.5467 60.2114 70.3763H60.2339L60.2563 70.3857C61.3911 70.88 62.524 71.3763 63.6644 71.8575C64.8048 72.3388 65.9434 72.8238 67.0894 73.2919C68.2354 73.7601 69.3833 74.2282 70.5406 74.657C71.6913 75.112 72.8689 75.496 74.0666 75.8068Z" fill="#263238"/>
<path d="M49.0563 73.3462C49.4309 73.893 50.2042 74.6833 49.5338 74.9136C49.0793 75.0446 48.597 75.0446 48.1425 74.9136C48.1425 74.9136 42.639 75.4754 38.7047 75.6383C34.7704 75.8012 27.4692 75.2525 27.0947 75.1963C26.7202 75.1402 25.9711 75.7225 25.7033 75.5952C25.4356 75.4679 26.0217 74.3293 26.0217 74.1084C26.0217 73.8874 24.5873 70.3127 24.1135 67.9719C23.6398 65.6312 23.5892 63.2436 23.5368 62.9665C23.4843 62.6894 22.5387 61.4684 22.8477 61.1651C23.1566 60.8617 24.6659 61.7643 24.8008 61.813C24.9356 61.8617 31.7574 59.9198 35.6374 59.991C39.5174 60.0621 44.9516 61.0696 45.0865 61.0696C45.2213 61.0696 46.7493 60.3037 47.1163 60.5434C47.4834 60.7831 46.7886 62.2924 46.8467 62.4834C46.9047 62.6744 48.18 66.0769 48.532 68.0169C48.8841 69.9569 49.0563 73.3462 49.0563 73.3462Z" fill="white"/>
<path d="M27.0273 73.9342C27.0273 73.9342 27.1771 69.4213 26.4093 67.457C25.6416 65.4926 24.2278 63.15 24.2278 63.15C24.2278 63.15 24.7278 67.3128 25.1322 68.8296C25.4918 70.1891 27.0273 73.9342 27.0273 73.9342Z" fill="#C7C7C7"/>
<path d="M48.5246 69.322C48.3869 69.8669 48.2966 70.4226 48.2549 70.983C48.2381 71.2639 48.2362 71.5448 48.2418 71.8276C48.2418 71.968 48.2418 72.1084 48.2418 72.2489C48.2433 72.3951 48.2238 72.5408 48.1838 72.6815C48.1838 72.6927 48.2006 72.7002 48.2062 72.6815C48.2611 72.5556 48.3049 72.4253 48.3373 72.292C48.3658 72.1619 48.3839 72.0298 48.3916 71.8968C48.4122 71.6122 48.416 71.3257 48.4328 71.0411C48.4665 70.4662 48.5021 69.8932 48.5826 69.3277C48.5808 69.3089 48.5302 69.2958 48.5246 69.322Z" fill="#263238"/>
<path d="M49.5339 68.2285C49.3254 68.6397 49.1434 69.0637 48.989 69.4981C48.9155 69.7164 48.853 69.9383 48.8017 70.1628C48.7755 70.2696 48.7511 70.3782 48.7287 70.4849C48.7062 70.5917 48.6987 70.7284 48.6725 70.8463C48.6725 70.8594 48.6912 70.8669 48.695 70.8557C48.723 70.7433 48.7736 70.6385 48.8092 70.5299C48.8448 70.4213 48.8803 70.3127 48.9178 70.204C48.9908 69.9849 49.0657 69.7677 49.135 69.5486C49.2755 69.1105 49.4215 68.676 49.5788 68.2378C49.5844 68.221 49.5451 68.2079 49.5339 68.2285Z" fill="#263238"/>
<path d="M124.812 85.9038C124.812 85.9038 125.374 75.6851 124.812 75.275C123.926 74.6252 116.962 75.1851 116.492 74.996C116.022 74.8069 106.601 68.9738 105.837 68.8614C105.073 68.7491 104.571 68.985 104.447 68.985C104.324 68.985 104.099 68.7603 103.511 68.7715C102.923 68.7828 101.189 69.3539 101.189 69.3539C101.189 69.3539 86.9388 64.0189 76.8455 64.9926C76.4972 65.0264 71.8944 60.3786 65.6288 60.2138C59.3631 60.049 56.6403 61.7999 56.3108 61.7306C55.9812 61.6613 47.5639 61.4085 46.6876 61.5733C45.8112 61.7381 43.7308 66.4439 43.0248 67.0057C42.3188 67.5675 38.0512 71.0748 36.8715 72.453C35.6918 73.8312 34.6244 79.4172 34.2967 79.9228C33.969 80.4284 31.9222 85.6079 32.0908 86.5498C32.2593 87.4917 36.6224 85.8963 40.0586 85.8963L124.812 85.9038Z" fill="#0086C8"/>
<path d="M49.6687 66.6124C49.5275 66.4155 49.4357 66.1875 49.4009 65.9477C49.3672 65.7604 49.356 65.5732 49.3129 65.4009C49.2946 65.406 49.2758 65.4091 49.2568 65.4102C49.2661 65.5076 49.2568 65.5975 49.2661 65.6967C49.2661 65.8671 49.2792 65.9215 49.2661 66.0919C49.2638 66.3441 49.194 66.5911 49.0639 66.8072C49.0246 66.8671 48.9609 66.9682 48.8766 66.9252C48.7924 66.8821 48.7867 66.7023 48.783 66.6218C48.769 66.4052 48.7963 66.1878 48.8635 65.9814C48.9023 65.8399 48.9577 65.7036 49.0283 65.575C49.062 65.5114 49.1013 65.4477 49.135 65.3878L49.1257 65.3784C49.0072 65.5944 48.8686 65.7988 48.7118 65.9889C48.6293 66.0858 48.5398 66.1765 48.4441 66.2604C48.3649 66.3378 48.2769 66.4057 48.1819 66.4626C48.1388 66.4851 48.0246 66.5525 47.9946 66.4795C47.9647 66.4065 48.0321 66.2604 48.0789 66.1799C48.1356 66.0681 48.2068 65.9642 48.2905 65.8709C48.3809 65.7861 48.4773 65.7078 48.5789 65.6368C48.7284 65.5183 48.8854 65.4095 49.0489 65.311C49.0489 65.311 49.0395 65.311 49.0395 65.2979C48.8504 65.3712 48.6572 65.4338 48.4609 65.4851C48.2201 65.5667 47.9657 65.6011 47.7119 65.5863C47.6445 65.5863 47.5733 65.5563 47.5733 65.4758C47.5733 65.3953 47.6819 65.3241 47.7512 65.2885C47.845 65.2297 47.9456 65.1825 48.0508 65.1481C48.168 65.1248 48.2881 65.1204 48.4066 65.135C48.6107 65.1518 48.813 65.178 49.0133 65.1949C49.0119 65.1894 49.0119 65.1836 49.0133 65.178C48.8261 65.1144 48.6276 65.0339 48.4291 64.9777C48.2065 64.9371 48.0003 64.833 47.8355 64.6781C47.7887 64.6275 47.7044 64.5208 47.725 64.4496C47.7456 64.3784 47.8823 64.4028 47.9366 64.4159C48.1786 64.4784 48.405 64.5907 48.6014 64.7455C48.7512 64.8466 48.9122 64.944 49.0545 65.0544L49.0714 65.0338C49.0264 64.987 48.9871 64.9402 48.9403 64.8971C48.8392 64.8054 48.7249 64.738 48.6238 64.6444C48.4677 64.4941 48.3513 64.3075 48.2849 64.1013C48.268 64.0432 48.2381 63.914 48.3186 63.8766C48.3991 63.8391 48.5059 63.9365 48.5508 63.974C48.7257 64.1218 48.8647 64.3075 48.9571 64.517C49.0342 64.6646 49.1012 64.8173 49.1575 64.9739C49.1313 64.8391 49.107 64.708 49.0901 64.5713C49.0456 64.3269 49.0689 64.075 49.1575 63.8429C49.1912 63.7624 49.4066 63.4028 49.4965 63.6238C49.5281 63.7396 49.5364 63.8605 49.5208 63.9796C49.5157 64.1152 49.4975 64.2501 49.4665 64.3822C49.4234 64.5844 49.3654 64.7829 49.3054 64.9833C49.322 64.9878 49.3378 64.9947 49.3523 65.0039C49.4567 64.816 49.5724 64.6347 49.6987 64.4608C49.8273 64.2758 50.0068 64.132 50.2155 64.047C50.2792 64.0208 50.4028 63.9534 50.4702 64.017C50.5376 64.0807 50.4702 64.1781 50.444 64.2324C50.3198 64.4391 50.1409 64.6076 49.9271 64.7193L49.5919 64.9458C49.5339 64.9833 49.474 65.017 49.4178 65.0544C49.4297 65.0651 49.4387 65.0787 49.444 65.0938L49.4946 65.0601C49.6619 64.942 49.8446 64.8475 50.0376 64.7792C50.1527 64.7403 50.2723 64.7163 50.3934 64.708C50.5175 64.6891 50.6438 64.6891 50.7679 64.708C50.8117 64.71 50.8541 64.7238 50.8906 64.7478C50.9272 64.7719 50.9566 64.8053 50.9758 64.8447C51.0039 64.9327 50.929 65.0095 50.8597 65.0507C50.775 65.1002 50.6788 65.1267 50.5807 65.1275C50.4421 65.1406 50.3054 65.1481 50.1706 65.1574L49.4758 65.2043C49.4775 65.2187 49.4742 65.2332 49.4665 65.2455C49.6892 65.2712 49.9084 65.3214 50.12 65.3953C50.3477 65.4662 50.5572 65.5857 50.7342 65.7454C50.7792 65.796 50.8784 65.8859 50.8353 65.9626C50.7923 66.0394 50.6481 66.0207 50.5732 66.0038C50.3322 65.9339 50.1053 65.8224 49.9028 65.6743C49.738 65.5675 49.577 65.4496 49.4197 65.3316C49.4163 65.3386 49.4116 65.3448 49.4059 65.35C49.4001 65.3551 49.3933 65.3591 49.386 65.3616C49.4439 65.4287 49.4977 65.4994 49.547 65.5732C49.6483 65.694 49.7403 65.8223 49.8223 65.957C49.9329 66.1845 50.002 66.4299 50.0264 66.6817C50.0264 66.7548 50.0264 66.869 49.9253 66.839C49.8183 66.792 49.7286 66.7128 49.6687 66.6124Z" fill="white"/>
<path d="M46.5808 81.5912C46.4398 81.3944 46.3485 81.1663 46.3149 80.9264C46.2812 80.7392 46.2681 80.5519 46.225 80.3797C46.2073 80.3846 46.1891 80.3877 46.1707 80.389C46.1707 80.4864 46.1707 80.5763 46.1707 80.6774C46.1707 80.8459 46.1838 80.9002 46.1707 81.0706C46.1678 81.323 46.0973 81.57 45.9666 81.786C45.9292 81.8459 45.8655 81.947 45.7793 81.9039C45.6932 81.8609 45.6913 81.6811 45.6876 81.6006C45.6729 81.3839 45.7003 81.1664 45.7681 80.9601C45.8053 80.8181 45.8606 80.6816 45.9329 80.5538C45.9666 80.4901 46.0041 80.4265 46.0378 80.3665V80.3572C45.918 80.5728 45.7788 80.7772 45.6221 80.9676C45.5396 81.064 45.4508 81.1548 45.3561 81.2392C45.2767 81.3171 45.188 81.385 45.0921 81.4414C45.0509 81.4639 44.9367 81.5313 44.9048 81.4583C44.873 81.3852 44.9423 81.2392 44.9891 81.1586C45.0458 81.0468 45.117 80.943 45.2007 80.8497C45.2911 80.7648 45.3875 80.6866 45.4891 80.6156C45.639 80.4975 45.7959 80.3887 45.9591 80.2898C45.9575 80.2855 45.9575 80.2809 45.9591 80.2767C45.7692 80.3498 45.5754 80.4123 45.3786 80.4639C45.1378 80.5456 44.8834 80.5799 44.6296 80.565C44.5603 80.565 44.4891 80.5351 44.4891 80.4546C44.4891 80.374 44.5996 80.3029 44.667 80.2673C44.7613 80.2081 44.8626 80.1609 44.9685 80.1269C45.0851 80.1038 45.2045 80.0994 45.3224 80.1137C45.5265 80.1306 45.7307 80.1568 45.9292 80.1737C45.9277 80.1681 45.9277 80.1623 45.9292 80.1568C45.7419 80.0931 45.5434 80.0126 45.3449 79.9583C45.1224 79.9162 44.9165 79.8116 44.7513 79.6568C44.7064 79.6063 44.6202 79.4995 44.6427 79.4284C44.6652 79.3572 44.7981 79.3816 44.8543 79.3947C45.0962 79.4576 45.3225 79.5698 45.5191 79.7242C45.667 79.8254 45.828 79.9227 45.9722 80.0332C45.9769 80.0256 45.9826 80.0187 45.9891 80.0126C45.9423 79.9658 45.9048 79.919 45.858 79.8778C45.755 79.7842 45.6408 79.7168 45.5397 79.6231C45.3841 79.4725 45.2677 79.286 45.2007 79.0801C45.1839 79.022 45.1539 78.8928 45.2344 78.8554C45.3149 78.8179 45.4217 78.9153 45.4685 78.9527C45.6429 79.1011 45.7817 79.2867 45.8749 79.4958C45.9518 79.6432 46.0181 79.7959 46.0733 79.9527C46.049 79.8179 46.0228 79.6868 46.0059 79.5501C45.9625 79.3056 45.9858 79.054 46.0733 78.8217C46.1071 78.7411 46.3243 78.3816 46.4123 78.6026C46.4446 78.7182 46.4535 78.8392 46.4385 78.9584C46.432 79.094 46.4132 79.2287 46.3823 79.361C46.3411 79.5632 46.2812 79.7617 46.2213 79.9621C46.2375 79.9673 46.2532 79.9742 46.2681 79.9827C46.3738 79.7958 46.4901 79.6151 46.6164 79.4415C46.7435 79.2546 46.9235 79.1099 47.1332 79.0258C47.195 78.9996 47.3205 78.9321 47.386 78.9958C47.4516 79.0595 47.386 79.1569 47.3617 79.2112C47.2361 79.4173 47.0577 79.586 46.8448 79.6999L46.5059 79.9265C46.446 79.9639 46.3861 79.9976 46.3318 80.037C46.3434 80.0468 46.3519 80.0598 46.3561 80.0744C46.373 80.0613 46.3898 80.0538 46.4085 80.0407C46.5749 79.9223 46.7571 79.8277 46.9497 79.7598C47.065 79.7218 47.1845 79.6979 47.3055 79.6887C47.4296 79.6697 47.5559 79.6697 47.68 79.6887C47.7238 79.6907 47.7662 79.7044 47.8027 79.7285C47.8393 79.7525 47.8687 79.786 47.8879 79.8254C47.9178 79.9134 47.8411 79.9902 47.7736 80.0332C47.6888 80.0821 47.5926 80.1079 47.4946 80.1081C47.3542 80.1212 47.2194 80.1306 47.0827 80.1381L46.3879 80.1849C46.3915 80.199 46.3915 80.2138 46.3879 80.228C46.6101 80.2521 46.8288 80.3018 47.0396 80.3759C47.2676 80.446 47.4773 80.5656 47.6538 80.7261C47.7006 80.7785 47.798 80.8665 47.7549 80.9433C47.7119 81.0201 47.5677 81.0013 47.4928 80.9845C47.2522 80.9149 47.0259 80.8034 46.8242 80.6549C46.6576 80.5482 46.4965 80.4302 46.3411 80.3122C46.3339 80.326 46.3219 80.3367 46.3074 80.3422C46.3648 80.4098 46.4185 80.4805 46.4685 80.5538C46.5692 80.6758 46.6611 80.8047 46.7437 80.9396C46.8531 81.1667 46.9215 81.4114 46.946 81.6624C46.9553 81.7354 46.946 81.8496 46.8448 81.8197C46.7348 81.7735 46.6423 81.6935 46.5808 81.5912Z" fill="white"/>
<path d="M62.3161 69.7565C62.1749 69.5595 62.0831 69.3316 62.0483 69.0917C62.0146 68.9045 62.0015 68.7172 61.9603 68.5449C61.9416 68.5468 61.9228 68.5468 61.9041 68.5449C61.9135 68.6442 61.9041 68.7322 61.9135 68.8333C61.9135 69.0037 61.9266 69.058 61.9135 69.2284C61.9103 69.4805 61.8405 69.7273 61.7112 69.9437C61.6719 70.0037 61.6083 70.1048 61.524 70.0617C61.4397 70.0186 61.4341 69.837 61.4304 69.7565C61.4165 69.5405 61.4439 69.3238 61.5109 69.1179C61.5488 68.9762 61.6042 68.8397 61.6757 68.7116C61.7094 68.6479 61.7487 68.5842 61.7824 68.5243V68.515C61.6632 68.7306 61.5247 68.9349 61.3686 69.1254C61.2856 69.2219 61.1961 69.3126 61.1008 69.3969C61.0216 69.4744 60.9336 69.5423 60.8386 69.5992C60.7956 69.6198 60.6813 69.6891 60.6514 69.616C60.6214 69.543 60.6888 69.3969 60.7356 69.3164C60.7928 69.2043 60.8639 69.0999 60.9472 69.0056C61.0377 68.9214 61.1341 68.8439 61.2356 68.7734C61.3852 68.6549 61.5422 68.546 61.7056 68.4476C61.7056 68.4476 61.7056 68.4382 61.7056 68.4344C61.5158 68.5078 61.322 68.5703 61.1251 68.6217C60.8843 68.7035 60.63 68.7379 60.3761 68.7228C60.3087 68.7135 60.2357 68.6929 60.2357 68.6123C60.2357 68.5318 60.3461 68.4607 60.4135 68.4251C60.5083 68.3672 60.6095 68.3207 60.715 68.2865C60.8321 68.2625 60.9523 68.258 61.0708 68.2734C61.2749 68.2903 61.4772 68.3165 61.6757 68.3333C61.6735 68.3279 61.6735 68.3219 61.6757 68.3165C61.4884 68.2528 61.2899 68.1723 61.0914 68.1161C60.869 68.0751 60.6629 67.9711 60.4978 67.8165C60.451 67.7659 60.3667 67.6592 60.3873 67.588C60.4079 67.5169 60.5446 67.5412 60.5989 67.5525C60.8408 67.6164 61.0671 67.7292 61.2637 67.8839C61.4116 67.985 61.5727 68.0824 61.7169 68.1929C61.7216 68.1854 61.7273 68.1784 61.7337 68.1723C61.6869 68.1255 61.6495 68.0787 61.6026 68.0356C61.5015 67.9438 61.3873 67.8745 61.2862 67.7828C61.1304 67.6323 61.014 67.4458 60.9472 67.2397C60.9304 67.1798 60.9004 67.0525 60.9809 67.015C61.0615 66.9776 61.1682 67.0749 61.2131 67.1124C61.3879 67.2603 61.5269 67.446 61.6195 67.6554C61.6966 67.803 61.7635 67.9557 61.8199 68.1124C61.7936 67.9775 61.7674 67.8465 61.7506 67.7098C61.7077 67.4651 61.7316 67.2135 61.8199 66.9813C61.8536 66.9008 62.0689 66.5413 62.1588 66.7604C62.1894 66.8763 62.1977 66.9971 62.1831 67.1161C62.1784 67.2518 62.1602 67.3867 62.1288 67.5187C62.0858 67.7229 62.0258 67.9214 61.9678 68.1217C61.9843 68.1262 62.0001 68.1331 62.0146 68.1423C62.119 67.9545 62.2347 67.7731 62.361 67.5993C62.4893 67.4139 62.6689 67.27 62.8779 67.1854C62.9415 67.1592 63.0651 67.0918 63.1325 67.1555C63.2 67.2191 63.1325 67.3165 63.1063 67.3708C62.9821 67.5776 62.8033 67.746 62.5895 67.8577L62.2468 68.0861L62.0727 68.1966C62.0846 68.2073 62.0936 68.2209 62.0989 68.2359L62.1494 68.2004C62.3163 68.0821 62.4992 67.9882 62.6925 67.9214C62.8075 67.8824 62.9271 67.8585 63.0483 67.8502C63.1723 67.8303 63.2987 67.8303 63.4228 67.8502C63.5033 67.8633 63.6101 67.9008 63.6288 67.985C63.6475 68.0693 63.5838 68.1517 63.5145 68.1929C63.4297 68.242 63.3336 68.2684 63.2355 68.2697C63.0951 68.2828 62.9603 68.2903 62.8254 68.2996L62.1307 68.3464C62.1349 68.3598 62.1349 68.3742 62.1307 68.3876C62.3532 68.4136 62.5723 68.4632 62.7842 68.5356C63.0113 68.6075 63.2201 68.7276 63.3966 68.8876C63.4434 68.9382 63.5408 69.028 63.4996 69.1048C63.4584 69.1816 63.3123 69.1629 63.2374 69.146C62.9964 69.0761 62.7696 68.9646 62.567 68.8165C62.4022 68.7097 62.2412 68.5917 62.0839 68.4738C62.0809 68.4808 62.0762 68.4869 62.0704 68.4918C62.0645 68.4967 62.0576 68.5001 62.0502 68.5019C62.1101 68.5711 62.1607 68.6423 62.2112 68.7135C62.3115 68.8358 62.4034 68.9646 62.4865 69.0992C62.5962 69.327 62.6653 69.5723 62.6906 69.8239C62.6906 69.8951 62.6906 70.0112 62.5876 69.9812C62.4758 69.9367 62.3807 69.8581 62.3161 69.7565Z" fill="white"/>
<path d="M96.8447 71.9493C96.7041 71.7515 96.6129 71.5229 96.5788 71.2826C96.5451 71.0954 96.532 70.9081 96.4889 70.7377C96.4708 70.7395 96.4527 70.7395 96.4346 70.7377C96.4346 70.8351 96.4346 70.925 96.4346 71.0261C96.4346 71.1946 96.4458 71.2508 96.4346 71.4193C96.4319 71.6724 96.3614 71.92 96.2305 72.1365C96.193 72.1946 96.1294 72.2976 96.0432 72.2545C95.9571 72.2114 95.9552 72.0298 95.9515 71.9493C95.9367 71.7332 95.9641 71.5164 96.032 71.3107C96.0694 71.1682 96.1248 71.0311 96.1968 70.9025C96.2305 70.8388 96.2679 70.777 96.3016 70.7153C96.1814 70.9306 96.0423 71.1349 95.8859 71.3257C95.804 71.422 95.7151 71.5121 95.62 71.5954C95.5409 71.6734 95.4529 71.7419 95.3579 71.7995C95.3148 71.8201 95.2006 71.8875 95.1706 71.8163C95.1406 71.7452 95.2099 71.5954 95.2567 71.5148C95.313 71.4028 95.3842 71.2989 95.4683 71.2059C95.5577 71.1212 95.6535 71.0436 95.7548 70.9737C95.9043 70.855 96.0613 70.7461 96.2249 70.6478C96.2249 70.6478 96.2249 70.6385 96.2249 70.6347C96.0347 70.707 95.8409 70.7695 95.6444 70.822C95.4039 70.9052 95.1493 70.9402 94.8953 70.925C94.8279 70.9156 94.7549 70.895 94.7549 70.8145C94.7549 70.734 94.8654 70.6609 94.9421 70.6272C95.0368 70.5688 95.138 70.5217 95.2436 70.4868C95.3609 70.4642 95.481 70.4604 95.5994 70.4756C95.8017 70.4924 96.0058 70.5168 96.2043 70.5336C96.203 70.5281 96.203 70.5223 96.2043 70.5168C96.017 70.4531 95.8297 70.3726 95.62 70.3183C95.398 70.2765 95.1926 70.1719 95.0283 70.0168C94.9815 69.9662 94.8953 69.8614 94.9178 69.7883C94.9403 69.7153 95.0732 69.7415 95.1294 69.7546C95.3716 69.8178 95.598 69.9307 95.7942 70.0861C95.9421 70.1872 96.1031 70.2846 96.2473 70.395C96.252 70.3869 96.2577 70.3794 96.2642 70.3726C96.2174 70.3276 96.1799 70.2808 96.1331 70.2377C96.032 70.1441 95.9178 70.0767 95.8148 69.9831C95.6596 69.8328 95.5433 69.6471 95.4758 69.4419C95.459 69.382 95.429 69.2546 95.5095 69.2172C95.5901 69.1797 95.6968 69.2771 95.7436 69.3146C95.9186 69.4616 96.0576 69.6467 96.15 69.8557C96.2269 70.0038 96.2932 70.1571 96.3485 70.3145C96.3241 70.1778 96.2979 70.0467 96.281 69.9119C96.2375 69.6675 96.2608 69.4158 96.3485 69.1835C96.3822 69.103 96.5994 68.7434 96.6874 68.9625C96.7197 69.0782 96.7286 69.1991 96.7136 69.3183C96.7082 69.454 96.6894 69.5889 96.6574 69.7209C96.6162 69.925 96.5563 70.1235 96.4964 70.322C96.5127 70.328 96.5284 70.3355 96.5432 70.3445C96.6489 70.157 96.7652 69.9757 96.8915 69.8014C97.0191 69.615 97.1989 69.4704 97.4083 69.3857C97.472 69.3614 97.5956 69.294 97.6611 69.3576C97.7267 69.4213 97.6611 69.5168 97.6368 69.573C97.5117 69.779 97.3331 69.9473 97.12 70.0598L96.7773 70.2883C96.7174 70.3276 96.6574 70.3613 96.6031 70.3988C96.6139 70.4097 96.6228 70.4224 96.6293 70.4362C96.6462 70.425 96.6631 70.4156 96.6799 70.4025C96.8464 70.2847 97.0285 70.1907 97.2211 70.1235C97.3363 70.085 97.4558 70.0605 97.5769 70.0505C97.701 70.0315 97.8273 70.0315 97.9514 70.0505C98.0319 70.0636 98.1386 70.101 98.1592 70.1853C98.1798 70.2696 98.1124 70.3501 98.045 70.3932C97.9598 70.4414 97.8639 70.4678 97.766 70.4699L97.354 70.498C97.1218 70.5168 96.8934 70.528 96.6593 70.5448C96.6629 70.559 96.6629 70.5738 96.6593 70.5879C96.8812 70.6139 97.0996 70.6635 97.311 70.7359C97.5388 70.8074 97.7483 70.9275 97.9252 71.0879C97.972 71.1385 98.0694 71.2283 98.0263 71.3032C97.9832 71.3781 97.839 71.3632 97.7641 71.3463C97.5233 71.2765 97.297 71.1642 97.0956 71.0149C96.9308 70.91 96.7698 70.792 96.6125 70.6722C96.6093 70.6792 96.6046 70.6855 96.5988 70.6907C96.593 70.6959 96.5862 70.6997 96.5788 70.7021C96.6363 70.7697 96.69 70.8403 96.7398 70.9137C96.8401 71.0361 96.932 71.1649 97.0151 71.2995C97.1242 71.5274 97.1927 71.7727 97.2173 72.0242C97.2173 72.0953 97.2173 72.2114 97.1162 72.1796C97.0031 72.1343 96.9078 72.0535 96.8447 71.9493Z" fill="white"/>
<path d="M124.375 78.0427C124.234 77.8457 124.142 77.6177 124.108 77.3779C124.074 77.1907 124.063 77.0034 124.02 76.8311C124.002 76.8329 123.983 76.8329 123.965 76.8311C123.965 76.9304 123.965 77.0184 123.965 77.1195C123.965 77.2899 123.978 77.3442 123.965 77.5146C123.968 77.7698 123.901 78.0209 123.772 78.2412C123.733 78.3011 123.669 78.4022 123.585 78.3591C123.501 78.3161 123.495 78.1344 123.492 78.0539C123.478 77.8379 123.505 77.6212 123.572 77.4154C123.611 77.2739 123.666 77.1375 123.737 77.009C123.771 76.9453 123.81 76.8817 123.844 76.8218V76.8124C123.725 77.0284 123.587 77.2328 123.43 77.4229C123.347 77.5193 123.257 77.61 123.162 77.6944C123.083 77.7718 122.995 77.8397 122.9 77.8966C122.857 77.9172 122.743 77.9865 122.713 77.9135C122.683 77.8404 122.75 77.6944 122.797 77.6139C122.854 77.5018 122.925 77.3973 123.008 77.303C123.099 77.2193 123.196 77.1417 123.297 77.0708C123.446 76.9523 123.603 76.8435 123.767 76.745C123.767 76.745 123.757 76.7356 123.757 76.7319C123.568 76.8052 123.375 76.8678 123.179 76.9191C122.938 77.0007 122.684 77.0351 122.43 77.0202C122.362 77.0109 122.291 76.9903 122.291 76.9098C122.291 76.8292 122.4 76.7581 122.479 76.7225C122.573 76.665 122.673 76.6185 122.778 76.5839C122.895 76.5599 123.015 76.5555 123.134 76.5708C123.338 76.5877 123.54 76.6139 123.741 76.6307C123.739 76.6252 123.739 76.6194 123.741 76.6139C123.553 76.5502 123.355 76.4697 123.156 76.4135C122.934 76.3721 122.728 76.2682 122.563 76.1139C122.516 76.0634 122.432 75.9566 122.452 75.8855C122.473 75.8143 122.61 75.8386 122.664 75.8499C122.906 75.9138 123.132 76.0266 123.329 76.1813C123.478 76.2824 123.64 76.3798 123.782 76.4903C123.787 76.4822 123.793 76.4752 123.801 76.4697C123.754 76.4229 123.714 76.3761 123.668 76.333C123.566 76.2412 123.452 76.172 123.351 76.0802C123.195 75.9297 123.079 75.7432 123.012 75.5372C122.995 75.4772 122.965 75.3499 123.046 75.3124C123.126 75.275 123.233 75.3724 123.278 75.4098C123.453 75.5574 123.592 75.7432 123.684 75.9529C123.762 76.1005 123.828 76.2531 123.885 76.4098C123.859 76.275 123.834 76.1439 123.817 76.0072C123.773 75.7628 123.796 75.5108 123.885 75.2787C123.919 75.1982 124.134 74.8387 124.224 75.0578C124.255 75.1736 124.264 75.2945 124.248 75.4136C124.243 75.5492 124.225 75.6841 124.194 75.8162C124.151 76.0203 124.093 76.2188 124.033 76.4191C124.049 76.4236 124.065 76.4306 124.08 76.4397C124.184 76.2519 124.3 76.0706 124.426 75.8967C124.555 75.7117 124.734 75.5679 124.943 75.4829C125.007 75.4566 125.13 75.3892 125.198 75.4529C125.265 75.5166 125.197 75.6139 125.171 75.6682C125.047 75.875 124.868 76.0435 124.654 76.1551L124.299 76.3686C124.241 76.4079 124.181 76.4416 124.125 76.4791C124.136 76.4898 124.145 76.5033 124.151 76.5184L124.201 76.4828C124.369 76.3653 124.551 76.2714 124.744 76.2038C124.859 76.1649 124.979 76.141 125.1 76.1326C125.224 76.1128 125.351 76.1128 125.475 76.1326C125.555 76.1457 125.662 76.1832 125.683 76.2675C125.703 76.3517 125.636 76.4341 125.566 76.4753C125.482 76.5248 125.386 76.5513 125.287 76.5521C125.149 76.5652 125.012 76.5727 124.877 76.5821L124.183 76.6289C124.187 76.6423 124.187 76.6567 124.183 76.6701C124.405 76.696 124.624 76.7456 124.836 76.818C125.063 76.8905 125.273 77.0105 125.45 77.1701C125.497 77.2206 125.594 77.3105 125.551 77.3873C125.508 77.464 125.364 77.4453 125.289 77.4285C125.048 77.3585 124.821 77.247 124.619 77.0989C124.454 76.9922 124.293 76.8742 124.136 76.7562C124.133 76.7632 124.128 76.7694 124.122 76.7743C124.116 76.7791 124.109 76.7826 124.102 76.7843C124.162 76.8536 124.213 76.9247 124.263 76.9959C124.364 77.1177 124.456 77.2467 124.538 77.3817C124.649 77.6092 124.718 77.8546 124.742 78.1063C124.742 78.1775 124.742 78.2936 124.641 78.2636C124.532 78.2198 124.439 78.1425 124.375 78.0427Z" fill="white"/>
<path d="M108.058 79.8947C107.917 79.6976 107.826 79.4696 107.792 79.2299C107.758 79.0426 107.745 78.8554 107.702 78.6831C107.684 78.6889 107.666 78.692 107.648 78.6925C107.657 78.7898 107.648 78.8797 107.657 78.9809C107.657 79.1494 107.668 79.2056 107.657 79.3741C107.654 79.6265 107.584 79.8735 107.453 80.0894C107.415 80.1493 107.352 80.2505 107.266 80.2093C107.179 80.1681 107.178 79.9846 107.174 79.904C107.163 79.5397 107.248 79.1788 107.419 78.8573C107.453 78.7936 107.49 78.7299 107.524 78.67C107.404 78.8851 107.265 79.0888 107.108 79.2786C107.026 79.3755 106.938 79.4662 106.842 79.5501C106.763 79.6276 106.675 79.6961 106.58 79.7542C106.537 79.7748 106.423 79.8422 106.393 79.7711C106.363 79.6999 106.432 79.5501 106.479 79.4696C106.535 79.357 106.606 79.253 106.691 79.1606C106.78 79.0754 106.875 78.9977 106.977 78.9284C107.127 78.8091 107.284 78.6996 107.447 78.6007C107.447 78.6007 107.447 78.6007 107.447 78.5895C107.257 78.6618 107.063 78.7243 106.867 78.7767C106.626 78.8584 106.372 78.8928 106.118 78.8779C106.05 78.8779 105.977 78.8498 105.977 78.7692C105.977 78.6887 106.088 78.6157 106.165 78.582C106.259 78.5228 106.36 78.4756 106.466 78.4415C106.583 78.4183 106.703 78.4139 106.822 78.4284C107.024 78.4453 107.228 78.4715 107.427 78.4884C107.425 78.4828 107.425 78.4771 107.427 78.4715C107.239 78.4078 107.052 78.3273 106.842 78.273C106.62 78.2313 106.415 78.1266 106.251 77.9715C106.204 77.921 106.118 77.8142 106.14 77.7431C106.163 77.6719 106.296 77.6963 106.352 77.7094C106.594 77.7719 106.82 77.8841 107.017 78.0389C107.165 78.1419 107.326 78.2393 107.47 78.3479C107.474 78.3403 107.48 78.3334 107.487 78.3273C107.44 78.2805 107.402 78.2337 107.356 78.1925C107.254 78.0989 107.14 78.0314 107.037 77.9378C106.882 77.7875 106.766 77.6018 106.698 77.3966C106.681 77.3367 106.651 77.2 106.732 77.1719C106.812 77.1438 106.919 77.23 106.966 77.2693C107.141 77.4163 107.28 77.6015 107.372 77.8105C107.449 77.9579 107.516 78.1106 107.571 78.2674C107.547 78.1326 107.52 78.0015 107.503 77.8667C107.46 77.6222 107.483 77.3705 107.571 77.1382C107.605 77.0577 107.822 76.6963 107.91 76.9173C107.942 77.0329 107.951 77.1539 107.936 77.273C107.93 77.4088 107.912 77.5436 107.88 77.6757C107.839 77.8779 107.779 78.0783 107.719 78.2768C107.735 78.282 107.751 78.2889 107.766 78.2974C107.872 78.1108 107.988 77.9301 108.114 77.7562C108.242 77.5698 108.421 77.4252 108.631 77.3405C108.694 77.3161 108.818 77.2468 108.884 77.3105C108.949 77.3742 108.884 77.4715 108.859 77.5277C108.734 77.7333 108.555 77.9015 108.342 78.0146L108 78.2431C107.94 78.2805 107.88 78.3142 107.826 78.3535C107.837 78.3638 107.846 78.3766 107.852 78.391C107.869 78.3779 107.885 78.3704 107.902 78.3573C108.069 78.2394 108.251 78.1455 108.443 78.0783C108.559 78.0389 108.678 78.0144 108.799 78.0052C108.923 77.9863 109.05 77.9863 109.174 78.0052C109.217 78.0076 109.26 78.0215 109.296 78.0455C109.333 78.0695 109.362 78.1028 109.382 78.1419C109.412 78.2299 109.335 78.3067 109.267 78.3498C109.183 78.3986 109.086 78.4245 108.988 78.4247C108.848 78.4378 108.713 78.4472 108.576 78.4547L107.882 78.5015C107.885 78.5156 107.885 78.5304 107.882 78.5445C108.104 78.5687 108.323 78.6183 108.533 78.6925C108.761 78.7633 108.971 78.8835 109.148 79.0445C109.194 79.0951 109.292 79.1831 109.249 79.2599C109.206 79.3366 109.061 79.3198 108.987 79.3029C108.746 79.2315 108.52 79.1194 108.318 78.9715C108.153 78.8666 107.992 78.7468 107.835 78.6288C107.832 78.6359 107.827 78.6422 107.821 78.6473C107.815 78.6525 107.809 78.6564 107.801 78.6588C107.859 78.7259 107.913 78.7966 107.962 78.8704C108.063 78.9923 108.155 79.1212 108.238 79.2561C108.347 79.4833 108.415 79.728 108.44 79.9789C108.44 80.052 108.44 80.1662 108.339 80.1362C108.22 80.0898 108.121 80.0046 108.058 79.8947Z" fill="white"/>
<path d="M79.3136 80.3946C79.1719 80.198 79.08 79.9699 79.0458 79.7299C79.0121 79.5426 78.999 79.3553 78.9578 79.1831C78.9391 79.1848 78.9203 79.1848 78.9016 79.1831C78.911 79.2804 78.9016 79.3703 78.911 79.4715C78.911 79.6419 78.9222 79.6962 78.911 79.8647C78.9083 80.1177 78.8378 80.3654 78.7069 80.5819C78.6694 80.6399 78.6057 80.7429 78.5196 80.6999C78.4335 80.6568 78.4297 80.4752 78.426 80.3946C78.4122 80.1786 78.4395 79.9619 78.5065 79.7561C78.5448 79.6139 78.6001 79.4768 78.6713 79.3479C78.705 79.2861 78.7424 79.2224 78.778 79.1606H78.7687C78.6484 79.376 78.5093 79.5803 78.353 79.7711C78.271 79.8673 78.1822 79.9575 78.087 80.0407C78.0084 80.1193 77.9204 80.1879 77.8249 80.2448C77.7818 80.2654 77.6676 80.3328 77.6376 80.2617C77.6077 80.1905 77.6769 80.0407 77.7238 79.9602C77.78 79.8481 77.8512 79.7442 77.9354 79.6512C78.0247 79.5666 78.1205 79.4889 78.2219 79.419C78.3716 79.2999 78.5293 79.191 78.6938 79.0932C78.6938 79.0932 78.6844 79.0838 78.6844 79.0801C78.4942 79.1524 78.3005 79.2149 78.1039 79.2673C77.8634 79.3506 77.6089 79.3856 77.3549 79.3703C77.2874 79.361 77.2144 79.3404 77.2144 79.2598C77.2144 79.1793 77.3249 79.1082 77.4017 79.0726C77.496 79.014 77.5973 78.9674 77.7032 78.934C77.8202 78.9099 77.9405 78.9055 78.059 78.9209C78.2612 78.9378 78.4653 78.9621 78.6638 78.979C78.6625 78.9734 78.6625 78.9677 78.6638 78.9621C78.4765 78.8984 78.2799 78.8179 78.0795 78.7636C77.8575 78.7219 77.6521 78.6172 77.4878 78.4621C77.441 78.4116 77.3567 78.3067 77.3773 78.2337C77.3979 78.1606 77.5346 78.1869 77.5889 78.2C77.8311 78.2632 78.0575 78.376 78.2537 78.5314C78.4016 78.6325 78.5627 78.7299 78.7069 78.8404C78.7116 78.8322 78.7172 78.8247 78.7237 78.8179C78.6769 78.773 78.6395 78.7262 78.5926 78.6831C78.4915 78.5895 78.3773 78.522 78.2743 78.4284C78.1192 78.2781 78.0028 78.0924 77.9354 77.8872C77.9185 77.8273 77.8904 77.7 77.9709 77.6625C78.0515 77.6251 78.1582 77.7225 78.2031 77.7599C78.3781 77.9069 78.5171 78.0921 78.6095 78.3011C78.6864 78.4491 78.7527 78.6024 78.808 78.7599C78.7836 78.6232 78.7574 78.4921 78.7406 78.3573C78.697 78.1128 78.7203 77.8611 78.808 77.6288C78.8417 77.5483 79.0589 77.1888 79.1469 77.4079C79.1791 77.5235 79.1881 77.6445 79.1731 77.7637C79.1677 77.8994 79.1489 78.0342 79.117 78.1663C79.0758 78.3704 79.0158 78.5689 78.9578 78.7674C78.9735 78.7733 78.9885 78.7809 79.0027 78.7898C79.1085 78.6024 79.2248 78.4211 79.351 78.2468C79.4787 78.0604 79.6584 77.9158 79.8679 77.8311C79.9315 77.8067 80.0551 77.7393 80.1225 77.803C80.19 77.8666 80.1225 77.964 80.0963 78.0183C79.9712 78.2243 79.7926 78.3926 79.5795 78.5052L79.2368 78.7337C79.1769 78.773 79.117 78.8067 79.0627 78.8441C79.0734 78.8551 79.0823 78.8677 79.0889 78.8816L79.1394 78.8479C79.3059 78.73 79.4881 78.6361 79.6806 78.5689C79.7957 78.5301 79.9153 78.5062 80.0364 78.4977C80.1604 78.4778 80.2869 78.4778 80.4109 78.4977C80.4914 78.5108 80.5982 78.5483 80.6188 78.6325C80.6394 78.7168 80.572 78.7973 80.5045 78.8404C80.4193 78.8886 80.3234 78.915 80.2255 78.9172C80.0851 78.9303 79.9503 78.9378 79.8136 78.9471L79.1188 78.9921C79.1224 79.0062 79.1224 79.021 79.1188 79.0351C79.3392 79.0596 79.5564 79.1073 79.7667 79.1775C79.9945 79.249 80.2041 79.3691 80.381 79.5295C80.4278 79.5801 80.5251 79.6699 80.4839 79.7448C80.4427 79.8197 80.2967 79.8048 80.2199 79.7879C79.9791 79.7181 79.7527 79.6058 79.5514 79.4565C79.3866 79.3516 79.2256 79.2336 79.0683 79.1138C79.0652 79.121 79.0606 79.1274 79.0548 79.1326C79.049 79.1378 79.0421 79.1416 79.0346 79.1437C79.0921 79.2113 79.1458 79.2819 79.1956 79.3554C79.2958 79.4777 79.3878 79.6065 79.4709 79.7411C79.5806 79.9689 79.6497 80.2142 79.675 80.4658C79.675 80.5369 79.675 80.653 79.572 80.6212C79.4638 80.5753 79.3732 80.4959 79.3136 80.3946Z" fill="white"/>
<path d="M88.2982 84.4376C88.157 84.2406 88.0652 84.0126 88.0304 83.7728C87.9967 83.5855 87.9836 83.3983 87.9424 83.2279C87.9237 83.2297 87.9049 83.2297 87.8862 83.2279C87.8956 83.3252 87.8862 83.4151 87.8956 83.5163C87.8956 83.6848 87.9087 83.741 87.8956 83.9095C87.8938 84.1618 87.8239 84.4089 87.6934 84.6248C87.654 84.6847 87.5904 84.7859 87.5061 84.7447C87.4218 84.7035 87.4162 84.52 87.4125 84.4394C87.3987 84.2228 87.4261 84.0055 87.493 83.799C87.5313 83.6574 87.5866 83.521 87.6578 83.3927C87.6915 83.329 87.7308 83.2653 87.7645 83.2054C87.6454 83.4204 87.5068 83.6241 87.3507 83.814C87.2681 83.9109 87.1786 84.0016 87.0829 84.0855C87.0038 84.1636 86.9158 84.2321 86.8207 84.2896C86.7777 84.3102 86.6634 84.3776 86.6335 84.3065C86.6035 84.2353 86.6709 84.0855 86.7178 84.005C86.7749 83.8935 86.846 83.7896 86.9294 83.696C87.0194 83.6113 87.1158 83.5337 87.2177 83.4638C87.3668 83.3447 87.5239 83.2358 87.6877 83.138C87.6877 83.138 87.6877 83.1286 87.6877 83.1249C87.4977 83.1974 87.3039 83.2599 87.1073 83.3121C86.8664 83.3938 86.6122 83.4287 86.3582 83.4151C86.2908 83.4058 86.2178 83.3852 86.2178 83.3046C86.2178 83.2241 86.3283 83.1511 86.3957 83.1174C86.4905 83.0593 86.5917 83.0122 86.6972 82.9769C86.8143 82.9535 86.9345 82.9497 87.0529 82.9657C87.2571 82.9826 87.4593 83.0069 87.6578 83.0238C87.6561 83.0183 87.6561 83.0124 87.6578 83.0069C87.4705 82.9432 87.272 82.8627 87.0735 82.8084C86.8511 82.7663 86.6452 82.6617 86.4799 82.5069C86.4331 82.4564 86.3489 82.3515 86.3695 82.2785C86.3901 82.2054 86.5268 82.2317 86.5811 82.2448C86.8228 82.3081 87.0491 82.4202 87.2458 82.5743C87.3956 82.6773 87.5548 82.7747 87.699 82.8852L87.7158 82.8627C87.6709 82.8159 87.6316 82.7691 87.5848 82.7279C87.4836 82.6343 87.3694 82.5669 87.2683 82.4732C87.1124 82.3235 86.996 82.1376 86.9294 81.932C86.9125 81.8721 86.8825 81.7448 86.9631 81.7073C87.0436 81.6699 87.1503 81.7654 87.1953 81.8047C87.3702 81.9517 87.5092 82.1369 87.6016 82.3459C87.6787 82.4941 87.7456 82.6474 87.802 82.8047C87.7758 82.668 87.7514 82.5369 87.7327 82.4021C87.6898 82.1574 87.7138 81.9058 87.802 81.6736C87.8357 81.5931 88.051 81.2317 88.1409 81.4527C88.1717 81.5686 88.18 81.6894 88.1653 81.8085C88.1603 81.9441 88.1421 82.0789 88.111 82.2111C88.0679 82.4152 88.008 82.6137 87.9499 82.8122C87.9662 82.8174 87.9819 82.8243 87.9967 82.8328C88.1016 82.6458 88.2173 82.4651 88.3432 82.2916C88.4717 82.106 88.6512 81.9616 88.86 81.8759C88.9237 81.8515 89.0472 81.7822 89.1147 81.8459C89.1821 81.9096 89.1147 82.0069 89.0884 82.0631C88.9638 82.2695 88.7851 82.4379 88.5716 82.55L88.2289 82.7785C88.169 82.8159 88.111 82.8496 88.0548 82.8889C88.0665 82.899 88.0756 82.9119 88.081 82.9264L88.1316 82.8927C88.2989 82.7752 88.4816 82.6813 88.6746 82.6137C88.7896 82.5741 88.9091 82.5496 89.0304 82.5406C89.1545 82.5217 89.2808 82.5217 89.4049 82.5406C89.4854 82.5519 89.5922 82.5912 89.6109 82.6755C89.6296 82.7597 89.5659 82.8402 89.4967 82.8833C89.4114 82.9315 89.3156 82.9579 89.2177 82.9601L88.8076 82.9882L88.1128 83.035C88.1172 83.049 88.1172 83.064 88.1128 83.0781C88.3355 83.1031 88.5546 83.1527 88.7664 83.226C88.9937 83.2985 89.2031 83.4185 89.3806 83.578C89.4255 83.6286 89.5229 83.7166 89.4817 83.7934C89.4405 83.8702 89.2944 83.8533 89.2195 83.8365C88.9785 83.7659 88.7516 83.6537 88.5491 83.505C88.3843 83.4001 88.2233 83.2803 88.066 83.1623C88.063 83.1695 88.0584 83.1759 88.0525 83.1811C88.0467 83.1863 88.0398 83.1901 88.0323 83.1923C88.0898 83.2598 88.1436 83.3305 88.1933 83.4039C88.2946 83.5254 88.3866 83.6544 88.4686 83.7896C88.5788 84.0173 88.6479 84.2626 88.6727 84.5143C88.6727 84.5855 88.6727 84.7016 88.5716 84.6698C88.4575 84.6243 88.3615 84.5428 88.2982 84.4376Z" fill="white"/>
<path d="M79.9877 68.7678C79.8466 68.5709 79.7554 68.3428 79.7218 68.103C79.6881 67.9157 79.6749 67.7285 79.6319 67.5562C79.6141 67.5611 79.5959 67.5643 79.5776 67.5656C79.5776 67.6629 79.5776 67.7528 79.5776 67.8521C79.5776 68.0225 79.5907 68.0768 79.5776 68.2472C79.5746 68.4996 79.5041 68.7466 79.3735 68.9625C79.336 69.0224 79.2723 69.1236 79.1862 69.0805C79.1001 69.0374 79.0982 68.8558 79.0944 68.7753C79.08 68.5593 79.1067 68.3426 79.1731 68.1367C79.2117 67.9949 79.2677 67.8584 79.3398 67.7304C79.3735 67.6667 79.4109 67.603 79.4446 67.5431V67.5337C79.3248 67.7494 79.1857 67.9537 79.0289 68.1442C78.946 68.2402 78.8572 68.3309 78.763 68.4157C78.6835 68.4936 78.5949 68.5615 78.499 68.618C78.4578 68.6386 78.3435 68.7078 78.3117 68.6348C78.2799 68.5618 78.3492 68.4157 78.396 68.3352C78.4527 68.2234 78.5238 68.1195 78.6076 68.0262C78.698 67.9414 78.7943 67.8632 78.896 67.7921C79.0458 67.6741 79.2028 67.5652 79.366 67.4663C79.3648 67.462 79.3648 67.4575 79.366 67.4532C79.1761 67.5263 78.9823 67.5888 78.7855 67.6405C78.5447 67.7222 78.2903 67.7565 78.0364 67.7416C77.9672 67.7322 77.896 67.7116 77.896 67.6311C77.896 67.5506 78.0065 67.4794 78.0739 67.4438C78.1681 67.3864 78.2687 67.3399 78.3735 67.3053C78.4906 67.2813 78.6108 67.2768 78.7293 67.2922C78.9334 67.309 79.1375 67.3352 79.336 67.3521C79.3344 67.3466 79.3344 67.3407 79.336 67.3352C79.1488 67.2716 78.9503 67.191 78.7518 67.1349C78.5294 67.0935 78.3235 66.9895 78.1582 66.8353C78.1132 66.7847 78.0271 66.678 78.0495 66.6068C78.072 66.5356 78.205 66.56 78.2611 66.5712C78.5029 66.6356 78.729 66.7483 78.9259 66.9027C79.0739 67.0038 79.2349 67.1012 79.3791 67.2116C79.3832 67.2037 79.389 67.1967 79.3959 67.191C79.3491 67.1442 79.3117 67.0974 79.2649 67.0544C79.1619 66.9626 79.0476 66.8933 78.9465 66.8016C78.7913 66.6506 78.6751 66.4642 78.6076 66.2585C78.5907 66.1986 78.5608 66.0712 78.6413 66.0338C78.7218 65.9963 78.8285 66.0937 78.8754 66.1312C79.0496 66.2796 79.1884 66.4652 79.2817 66.6742C79.3582 66.8218 79.4245 66.9745 79.4802 67.1311C79.4559 66.9963 79.4296 66.8652 79.4128 66.7285C79.3692 66.4841 79.3925 66.2324 79.4802 66.0001C79.5139 65.9196 79.7311 65.56 79.8191 65.7791C79.8513 65.8948 79.8602 66.0157 79.8454 66.1349C79.839 66.2706 79.8202 66.4053 79.7892 66.5375C79.748 66.7416 79.6881 66.9401 79.6281 67.1405C79.6447 67.145 79.6605 67.1519 79.675 67.1611C79.7807 66.9736 79.897 66.7923 80.0232 66.618C80.151 66.4322 80.3308 66.2882 80.5401 66.2042C80.6019 66.178 80.7273 66.1106 80.7929 66.1742C80.8584 66.2379 80.7929 66.3353 80.7685 66.3896C80.6434 66.5956 80.4648 66.7639 80.2517 66.8765L79.909 67.1049C79.8491 67.1442 79.7892 67.1779 79.7349 67.2154C79.7463 67.2262 79.7547 67.2397 79.7592 67.2547L79.8098 67.2191C79.9771 67.1016 80.1598 67.0077 80.3528 66.9401C80.4679 66.9012 80.5875 66.8773 80.7086 66.869C80.8327 66.8491 80.9591 66.8491 81.0831 66.869C81.1637 66.8821 81.2704 66.9195 81.291 67.0038C81.3116 67.0881 81.2442 67.1705 81.1768 67.2116C81.0919 67.2608 80.9958 67.2872 80.8977 67.2884C80.7573 67.3015 80.6225 67.309 80.4858 67.3184L79.791 67.3652C79.7945 67.3787 79.7945 67.3929 79.791 67.4064C80.0129 67.4324 80.2314 67.482 80.4427 67.5543C80.6703 67.6263 80.8798 67.7463 81.0569 67.9064C81.1037 67.9569 81.2011 68.0468 81.158 68.1236C81.115 68.2004 80.9708 68.1816 80.8959 68.1648C80.6553 68.0952 80.429 67.9837 80.2274 67.8352C80.0607 67.7285 79.8997 67.6105 79.7442 67.4925C79.7371 67.5059 79.725 67.516 79.7105 67.5206C79.7686 67.5899 79.8191 67.6611 79.8716 67.7322C79.9696 67.8523 80.0597 67.9787 80.1412 68.1105C80.2503 68.3384 80.3188 68.5837 80.3435 68.8352C80.3528 68.9063 80.3435 69.0224 80.2423 68.9925C80.1363 68.9456 80.0473 68.8671 79.9877 68.7678Z" fill="white"/>
<path d="M60.8892 79.6138C60.7479 79.4164 60.6566 79.1876 60.6233 78.9471C60.5877 78.7599 60.5765 78.5726 60.5334 78.4022C60.5154 78.404 60.4972 78.404 60.4791 78.4022C60.4791 78.4996 60.4791 78.5895 60.4791 78.6906C60.4791 78.8591 60.4922 78.9153 60.4791 79.0838C60.477 79.3367 60.4072 79.5844 60.2769 79.801C60.2394 79.8591 60.1757 79.9621 60.0896 79.919C60.0035 79.8759 60.0016 79.6943 59.996 79.6138C59.9832 79.3972 60.0105 79.1801 60.0765 78.9734C60.1154 78.8317 60.1714 78.6952 60.2432 78.567C60.2769 78.5033 60.3143 78.4415 60.348 78.3797C60.2282 78.5948 60.0891 78.7985 59.9323 78.9883C59.8502 79.0857 59.7607 79.1765 59.6645 79.2599C59.5854 79.3379 59.4974 79.4064 59.4024 79.464C59.3612 79.4846 59.2451 79.552 59.2151 79.4808C59.1851 79.4097 59.2526 79.2599 59.2994 79.1793C59.3565 79.0678 59.4276 78.964 59.511 78.8704C59.6014 78.7861 59.6978 78.7085 59.7994 78.6382C59.9485 78.519 60.1055 78.4102 60.2694 78.3123C60.2694 78.3123 60.2694 78.3123 60.2694 78.2992C60.0792 78.3715 59.8854 78.434 59.6889 78.4865C59.4481 78.5687 59.1938 78.6036 58.9398 78.5895C58.8724 78.5801 58.8013 78.5595 58.8013 78.479C58.8013 78.3985 58.9118 78.3254 58.9885 78.2917C59.0827 78.2336 59.1832 78.1865 59.2881 78.1513C59.4054 78.1287 59.5255 78.1249 59.6439 78.1401C59.848 78.1569 60.0503 78.1812 60.2506 78.1981C60.2494 78.1926 60.2494 78.1868 60.2506 78.1812C60.0634 78.1176 59.8649 78.0371 59.6664 77.9828C59.4439 77.9406 59.238 77.8361 59.0728 77.6813C59.026 77.6307 58.9417 77.5258 58.9623 77.4528C58.9829 77.3798 59.1196 77.406 59.1739 77.4191C59.4165 77.4827 59.6434 77.5955 59.8406 77.7506C59.9885 77.8517 60.1495 77.949 60.2937 78.0595C60.2978 78.051 60.3035 78.0434 60.3106 78.0371C60.2638 77.9902 60.2244 77.9453 60.1795 77.9022C60.0765 77.8086 59.9623 77.7412 59.8612 77.6476C59.7053 77.4979 59.5889 77.312 59.5222 77.1064C59.5054 77.0465 59.4754 76.9191 59.5559 76.8817C59.6364 76.8442 59.7432 76.9416 59.7881 76.9791C59.9634 77.1262 60.103 77.3112 60.1963 77.5202C60.2717 77.669 60.338 77.8222 60.3948 77.979C60.3686 77.8423 60.3443 77.7112 60.3274 77.5764C60.2839 77.332 60.3072 77.0803 60.3948 76.848C60.4285 76.7674 60.6439 76.4079 60.7338 76.627C60.7654 76.7428 60.7737 76.8638 60.7581 76.9828C60.7533 77.1185 60.7351 77.2533 60.7038 77.3854C60.6607 77.5895 60.6027 77.788 60.5428 77.9865C60.559 77.9918 60.5747 77.9987 60.5896 78.0071C60.6951 77.8205 60.8108 77.6399 60.936 77.4659C61.0645 77.2803 61.244 77.136 61.4528 77.0502C61.5165 77.0259 61.6401 76.9585 61.7075 77.0221C61.7749 77.0858 61.7075 77.1813 61.6813 77.2375C61.5569 77.4434 61.3789 77.6116 61.1663 77.7243L60.8218 77.9528C60.7637 77.9902 60.7038 78.0258 60.6495 78.0633C60.6602 78.0739 60.6685 78.0867 60.6739 78.1007L60.7244 78.067C60.8917 77.9495 61.0745 77.8556 61.2675 77.788C61.3827 77.7493 61.5021 77.7248 61.6232 77.715C61.7474 77.696 61.8736 77.696 61.9978 77.715C62.0414 77.7166 62.0837 77.73 62.1203 77.7537C62.1569 77.7774 62.1864 77.8107 62.2056 77.8498C62.2356 77.9397 62.1588 78.0146 62.0914 78.0577C62.0055 78.1059 61.909 78.1323 61.8105 78.1344L61.4004 78.1625C61.1682 78.1812 60.9379 78.1925 60.7057 78.2093C60.71 78.2234 60.71 78.2384 60.7057 78.2524C60.9282 78.2784 61.1472 78.328 61.3592 78.4003C61.5866 78.4729 61.7959 78.5929 61.9734 78.7524C62.0202 78.803 62.1176 78.891 62.0745 78.9677C62.0315 79.0445 61.8873 79.0277 61.8124 79.0108C61.571 78.941 61.344 78.8288 61.142 78.6794C60.9772 78.5745 60.8162 78.4565 60.6607 78.3367C60.6537 78.3506 60.6416 78.3613 60.627 78.3666C60.6851 78.4341 60.7356 78.5071 60.7862 78.5782C60.8871 78.7001 60.979 78.829 61.0615 78.964C61.1721 79.1915 61.2412 79.4369 61.2656 79.6887C61.275 79.7598 61.2656 79.8759 61.1645 79.8441C61.05 79.7995 60.9533 79.7186 60.8892 79.6138Z" fill="white"/>
<path d="M55.5262 73.144C55.2225 73.0229 54.9527 72.8302 54.7397 72.5822C54.5693 72.395 54.4195 72.1965 54.2434 72.0204C54.2259 72.0392 54.2064 72.0562 54.1854 72.071C54.2659 72.1759 54.3296 72.2845 54.4045 72.3931C54.5281 72.5803 54.5824 72.6403 54.6947 72.8388C54.8751 73.1287 54.9741 73.4618 54.9812 73.8031C54.9812 73.8986 54.9812 74.0597 54.8502 74.0765C54.7191 74.0934 54.5861 73.8893 54.5225 73.7957C54.3486 73.5591 54.2215 73.2915 54.1479 73.0073C54.0879 72.8184 54.0521 72.6228 54.0412 72.4249C54.0412 72.3275 54.0318 72.2264 54.0206 72.1253H54.0056C54.0242 72.4577 54.0135 72.791 53.9738 73.1215C53.9498 73.2918 53.9135 73.4602 53.8652 73.6252C53.832 73.7714 53.781 73.9128 53.7135 74.0466C53.6817 74.1028 53.5993 74.2619 53.5262 74.1983C53.4139 74.1196 53.4101 73.9192 53.4045 73.7938C53.3876 73.6252 53.3932 73.4552 53.4214 73.2882C53.4631 73.1261 53.5163 72.9671 53.5805 72.8125C53.6659 72.5692 53.7666 72.3315 53.882 72.101C53.8742 72.1007 53.8668 72.0973 53.8614 72.0916C53.6973 72.3123 53.5217 72.5242 53.3352 72.7264C53.1195 72.994 52.8544 73.2178 52.5544 73.3856C52.4701 73.4249 52.3671 73.453 52.3147 73.3612C52.2622 73.2695 52.3297 73.1065 52.3802 73.0148C52.4456 72.8808 52.5267 72.7551 52.6218 72.6403C52.7382 72.5285 52.8724 72.4368 53.0188 72.3687C53.2622 72.2395 53.5131 72.1216 53.7509 71.9942C53.7495 71.9868 53.7495 71.9792 53.7509 71.9718C53.4832 72.041 53.2079 72.0879 52.9401 72.1684C52.6569 72.2824 52.3469 72.3129 52.0469 72.2564C51.957 72.232 51.7829 72.1721 51.7548 72.0691C51.7267 71.9661 51.899 71.9025 51.972 71.8819C52.2941 71.7796 52.6337 71.7439 52.9701 71.777C53.2135 71.7864 53.4663 71.777 53.7191 71.8013C53.717 71.7896 53.717 71.7775 53.7191 71.7658C53.6311 71.7452 53.5543 71.7208 53.4701 71.7058C53.2828 71.674 53.1068 71.6796 52.9233 71.6459C52.6369 71.5865 52.3695 71.4579 52.1443 71.2714C52.0825 71.2171 51.957 71.0841 52.0207 70.9905C52.0843 70.8969 52.2716 70.9269 52.3559 70.9325C52.6626 70.974 52.9559 71.0847 53.2135 71.2564C53.4091 71.3683 53.5968 71.4935 53.7753 71.6309C53.648 71.4942 53.5244 71.3632 53.4008 71.2209C53.1743 70.9734 53.0189 70.6693 52.9514 70.3407C52.9308 70.2246 52.9158 69.6572 53.1779 69.8445C53.2979 69.953 53.3953 70.0841 53.4644 70.2303C53.5561 70.3894 53.6326 70.5568 53.6929 70.7302C53.7921 70.9924 53.8689 71.262 53.9457 71.5336C53.9684 71.5277 53.9916 71.5239 54.015 71.5223C53.9981 71.233 53.9981 70.9428 54.015 70.6535C54.027 70.3522 54.1258 70.0609 54.2996 69.8145C54.3539 69.7396 54.4494 69.5692 54.5693 69.5954C54.6891 69.6217 54.6891 69.7827 54.6966 69.8614C54.7359 70.1891 54.5917 70.4962 54.4607 70.7976L54.2341 71.3089C54.1947 71.395 54.1517 71.4755 54.1161 71.5598C54.1365 71.5634 54.1557 71.5717 54.1723 71.5841C54.1835 71.5579 54.1966 71.5354 54.206 71.5092C54.3109 71.2539 54.4508 71.0144 54.6217 70.7976C54.7245 70.6693 54.8435 70.5547 54.9756 70.4568C55.1046 70.3474 55.2491 70.2578 55.4044 70.1909C55.4552 70.1609 55.5131 70.1451 55.572 70.1451C55.631 70.1451 55.6889 70.1609 55.7396 70.1909C55.837 70.2696 55.8052 70.4119 55.7584 70.5093C55.6977 70.6278 55.6066 70.7279 55.4943 70.7995C55.3445 70.9156 55.1966 71.0242 55.0486 71.131C54.794 71.3182 54.5431 71.5055 54.2996 71.6927C54.3116 71.7084 54.3188 71.7273 54.3202 71.747C54.592 71.6139 54.8778 71.5115 55.1722 71.4418C55.4838 71.3591 55.8095 71.3444 56.1273 71.3987C56.2171 71.4231 56.3932 71.453 56.3988 71.571C56.4044 71.689 56.2302 71.7733 56.131 71.8088C55.8055 71.9042 55.4657 71.9409 55.1273 71.9175C54.8633 71.9175 54.5936 71.8987 54.3277 71.8763C54.3293 71.8866 54.3287 71.8971 54.3257 71.9072C54.3228 71.9172 54.3177 71.9265 54.3109 71.9343C54.427 71.9699 54.5374 72.0148 54.6479 72.0598C54.8511 72.1258 55.0494 72.2059 55.2415 72.2995C55.529 72.4806 55.7825 72.7106 55.9906 72.9792C56.0524 73.0541 56.1347 73.1927 55.9906 73.232C55.8304 73.2522 55.6678 73.2214 55.5262 73.144Z" fill="white"/>
<path d="M68.8402 64.6818C68.5363 64.561 68.2664 64.3683 68.0537 64.12C67.8814 63.9328 67.7316 63.7343 67.5556 63.5582C67.5387 63.5765 67.5198 63.5928 67.4994 63.6069C67.578 63.7118 67.6417 63.8223 67.7166 63.929C67.8402 64.1163 67.9039 64.1762 68.0069 64.3766C68.1872 64.6659 68.2868 64.9982 68.2952 65.3391C68.2952 65.4346 68.2952 65.5975 68.1623 65.6125C68.0293 65.6274 67.8982 65.4252 67.8365 65.3334C67.663 65.0966 67.5359 64.8291 67.4619 64.5451C67.4021 64.3556 67.3662 64.1593 67.3552 63.9608C67.3552 63.8635 67.3458 63.7642 67.3346 63.6631H67.3196C67.3391 63.9955 67.3284 64.3289 67.2878 64.6593C67.2636 64.8288 67.2279 64.9965 67.181 65.1612C67.1464 65.3077 67.0948 65.4497 67.0275 65.5844C66.9957 65.6387 66.9133 65.7997 66.8402 65.7361C66.7298 65.6574 66.7241 65.457 66.7185 65.3316C66.7025 65.1624 66.7082 64.9919 66.7354 64.8241C66.7772 64.6624 66.831 64.504 66.8964 64.3503C66.98 64.106 67.0801 63.8676 67.196 63.6369C67.196 63.6369 67.1792 63.6369 67.1773 63.6369C67.0124 63.8569 66.8362 64.0682 66.6492 64.2698C66.4345 64.5384 66.1692 64.7624 65.8684 64.929C65.7841 64.9683 65.6811 64.9964 65.6287 64.9046C65.5762 64.8129 65.6437 64.6518 65.6942 64.5582C65.7595 64.4242 65.8406 64.2985 65.9358 64.1837C66.0522 64.0713 66.1863 63.979 66.3328 63.9103C66.5762 63.7829 66.8271 63.665 67.0668 63.5358C67.0641 63.5285 67.0641 63.5205 67.0668 63.5133C66.7972 63.5826 66.5219 63.6275 66.2541 63.7099C65.9707 63.8235 65.6607 63.8534 65.3609 63.7961C65.271 63.7717 65.0969 63.7137 65.0688 63.6088C65.0407 63.5039 65.2148 63.4421 65.286 63.4215C65.608 63.3184 65.9477 63.2827 66.2841 63.3167C66.5275 63.3167 66.7803 63.3167 67.0331 63.341C67.031 63.3286 67.031 63.316 67.0331 63.3036C66.947 63.2848 66.8683 63.2586 66.7841 63.2436C66.5968 63.2118 66.4227 63.2174 66.2391 63.1856C65.9524 63.1258 65.6844 62.9972 65.4583 62.8111C65.3965 62.7549 65.271 62.6238 65.3347 62.5302C65.3983 62.4366 65.5856 62.4646 65.6717 62.4721C65.9778 62.514 66.2704 62.6247 66.5275 62.7961C66.7232 62.9078 66.9109 63.0329 67.0893 63.1706C66.962 63.0358 66.8365 62.9028 66.7148 62.7605C66.4867 62.5139 66.3306 62.2095 66.2635 61.8804C66.2429 61.7643 66.2279 61.1969 66.4901 61.3842C66.6101 61.4933 66.7074 61.625 66.7766 61.7718C66.8689 61.9299 66.9455 62.0967 67.005 62.2699C67.1043 62.5339 67.181 62.8036 67.2578 63.0732C67.2808 63.0703 67.3041 63.0703 67.3271 63.0732C67.3103 62.7832 67.3103 62.4925 67.3271 62.2025C67.3388 61.8977 67.439 61.6029 67.6155 61.3542C67.6698 61.2793 67.7653 61.1108 67.8851 61.137C68.005 61.1632 68.0069 61.3242 68.0125 61.401C68.0518 61.7287 67.9076 62.0377 67.7765 62.3373L67.5499 62.8467C67.5106 62.9328 67.4676 63.0152 67.432 63.0976C67.4525 63.1017 67.4718 63.1107 67.4881 63.1238C67.4994 63.0976 67.5125 63.0751 67.5219 63.0489C67.6263 62.7928 67.7662 62.5526 67.9376 62.3354C68.0409 62.2081 68.1598 62.0942 68.2915 61.9965C68.4195 61.8858 68.5642 61.7961 68.7203 61.7306C68.7711 61.7006 68.8289 61.6848 68.8879 61.6848C68.9469 61.6848 69.0047 61.7006 69.0555 61.7306C69.1529 61.8111 69.121 61.9534 69.0742 62.0508C69.0135 62.1687 68.9232 62.2687 68.8121 62.3411C68.6604 62.4553 68.5124 62.5639 68.3645 62.6725L67.6061 63.2343C67.6179 63.2501 67.625 63.2689 67.6267 63.2886C67.8987 63.1563 68.1844 63.0546 68.4787 62.9852C68.79 62.9011 69.1159 62.8858 69.4338 62.9403C69.5236 62.9646 69.6997 62.9965 69.7053 63.1126C69.7109 63.2287 69.5368 63.3167 69.4375 63.3523C69.1118 63.4467 68.7721 63.4834 68.4338 63.4609C68.1698 63.4609 67.9001 63.4403 67.6342 63.4197C67.6356 63.43 67.6348 63.4405 67.6319 63.4505C67.629 63.4605 67.624 63.4697 67.6174 63.4777C67.7322 63.5125 67.8448 63.5544 67.9544 63.6032C68.1516 63.6625 68.3443 63.7357 68.5312 63.8223C68.8219 64.0019 69.0786 64.2314 69.2896 64.5001C69.3514 64.5769 69.4319 64.7155 69.2896 64.7529C69.136 64.7764 68.979 64.7515 68.8402 64.6818Z" fill="white"/>
<path d="M72.3194 74.5971C72.0161 74.4754 71.7465 74.2828 71.5329 74.0353C71.3625 73.8481 71.2127 73.6496 71.0348 73.4736C71.0188 73.4927 70.9999 73.5091 70.9787 73.5222C71.0592 73.6271 71.1229 73.7376 71.1978 73.8443C71.3195 74.0316 71.3757 74.0915 71.488 74.2919C71.6682 74.5812 71.7671 74.9137 71.7745 75.2544C71.7745 75.3499 71.7745 75.5128 71.6434 75.5278C71.5123 75.5428 71.3794 75.3405 71.3157 75.2488C71.1422 75.012 71.0151 74.7445 70.9412 74.4604C70.8812 74.2709 70.8454 74.0746 70.8345 73.8762C70.8345 73.7807 70.8232 73.6795 70.8139 73.5784H70.797C70.8171 73.9107 70.8071 74.2442 70.7671 74.5746C70.7422 74.7448 70.7059 74.9131 70.6584 75.0784C70.6253 75.2245 70.5743 75.366 70.5068 75.4997C70.4731 75.554 70.3925 75.715 70.3195 75.6514C70.2072 75.5727 70.2034 75.3724 70.1978 75.2469C70.1808 75.0784 70.1865 74.9083 70.2146 74.7413C70.2564 74.5792 70.3096 74.4203 70.3738 74.2657C70.459 74.0219 70.559 73.7837 70.6734 73.5522C70.6705 73.5536 70.6673 73.5543 70.6641 73.5543C70.6608 73.5543 70.6576 73.5536 70.6547 73.5522C70.491 73.7727 70.3154 73.984 70.1285 74.1851C69.9134 74.4533 69.6482 74.6772 69.3476 74.8443C69.2634 74.8836 69.1604 74.9117 69.1079 74.82C69.0555 74.7282 69.1229 74.5672 69.1716 74.4735C69.2375 74.3394 69.3193 74.2137 69.4151 74.099C69.5316 73.9877 69.6649 73.8954 69.8102 73.8256C70.0555 73.6983 70.3045 73.5803 70.5442 73.4511C70.5431 73.4436 70.5431 73.4361 70.5442 73.4286C70.2764 73.4979 70.0012 73.5447 69.7334 73.6252C69.4496 73.7397 69.1387 73.7696 68.8383 73.7114C68.7484 73.6889 68.5761 73.629 68.548 73.5241C68.52 73.4193 68.6922 73.3575 68.7653 73.3369C69.0872 73.2336 69.427 73.1979 69.7634 73.232C70.0049 73.232 70.2596 73.232 70.5124 73.2563C70.5112 73.2439 70.5112 73.2313 70.5124 73.2189C70.4244 73.2002 70.3476 73.1739 70.2633 73.1608C70.0761 73.1271 69.9001 73.1328 69.7165 73.1009C69.4301 73.0419 69.1626 72.9133 68.9375 72.7264C68.8758 72.6702 68.7503 72.5391 68.814 72.4455C68.8776 72.3519 69.0649 72.3818 69.1491 72.3875C69.4559 72.429 69.7492 72.5397 70.0068 72.7114C70.2024 72.8233 70.3901 72.9484 70.5686 73.0859C70.4412 72.9511 70.3176 72.82 70.1941 72.6777C69.9681 72.4297 69.8123 72.1259 69.7428 71.7976C69.724 71.6796 69.709 71.1122 69.9693 71.2995C70.0905 71.4081 70.1885 71.5399 70.2577 71.6871C70.3497 71.8461 70.4262 72.0135 70.4862 72.1871C70.5854 72.4493 70.6622 72.7189 70.739 72.9886C70.761 72.9826 70.7836 72.9794 70.8064 72.9792C70.7905 72.6892 70.7905 72.3985 70.8064 72.1084C70.818 71.8037 70.9182 71.5089 71.0948 71.2602C71.1491 71.1853 71.2446 71.0167 71.3625 71.0429C71.4805 71.0692 71.4843 71.2302 71.4918 71.307C71.4992 71.6349 71.417 71.9587 71.2539 72.2433L71.0292 72.7526C70.9899 72.8388 70.9468 72.9212 70.9112 73.0054C70.9319 73.0082 70.9513 73.0166 70.9674 73.0298C70.9768 73.0035 70.9918 72.9811 71.0011 72.9549C71.1061 72.699 71.246 72.4589 71.4168 72.2414C71.5202 72.1141 71.6391 72.0002 71.7708 71.9025C71.8991 71.7931 72.043 71.7035 72.1977 71.6366C72.2487 71.6071 72.3065 71.5916 72.3653 71.5916C72.4242 71.5916 72.482 71.6071 72.5329 71.6366C72.6322 71.7171 72.6003 71.8594 72.5535 71.9568C72.4881 72.0766 72.3926 72.1773 72.2764 72.2489C72.1266 72.365 71.9786 72.4717 71.8307 72.5803L71.0704 73.1421C71.0828 73.1578 71.0905 73.1766 71.0929 73.1964C71.3645 73.065 71.6496 72.9633 71.943 72.8931C72.255 72.8089 72.5815 72.7936 72.8999 72.8481C72.9898 72.8725 73.164 72.9043 73.1715 73.0223C73.1789 73.1402 73.0029 73.2245 72.9037 73.2601C72.578 73.3544 72.2383 73.3911 71.9 73.3687C71.6341 73.3687 71.3644 73.3481 71.1004 73.3275C71.1016 73.3378 71.1008 73.3483 71.0979 73.3583C71.095 73.3682 71.0901 73.3775 71.0835 73.3856C71.198 73.4215 71.3105 73.4634 71.4206 73.511C71.6239 73.5766 71.8223 73.6567 72.0142 73.7507C72.3012 73.9317 72.5546 74.161 72.7632 74.4286C72.825 74.5054 72.9074 74.6439 72.7632 74.6814C72.6102 74.6985 72.4555 74.6692 72.3194 74.5971Z" fill="white"/>
<path d="M88.5491 74.4192C88.2455 74.2981 87.9757 74.1054 87.7627 73.8574C87.5923 73.6702 87.4424 73.4717 87.2664 73.2957C87.2493 73.3144 87.2298 73.3308 87.2084 73.3444C87.2889 73.4511 87.3526 73.5597 87.4275 73.6683C87.5511 73.8556 87.6054 73.9136 87.7177 74.114C87.8981 74.4039 87.9971 74.737 88.0042 75.0784C88.0042 75.1739 88.0042 75.3349 87.8731 75.3518C87.7421 75.3686 87.6091 75.1645 87.5454 75.0709C87.3716 74.8343 87.2445 74.5667 87.1709 74.2825C87.1109 74.0937 87.0751 73.898 87.0642 73.7001C87.0642 73.6028 87.0548 73.5017 87.0436 73.4005H87.0286C87.0472 73.7329 87.0365 74.0663 86.9968 74.3968C86.9728 74.5671 86.9365 74.7354 86.8882 74.9005C86.855 75.0466 86.804 75.1881 86.7365 75.3218C86.7047 75.378 86.6223 75.5372 86.5492 75.4735C86.4369 75.3948 86.4331 75.1945 86.4275 75.069C86.4106 74.9005 86.4162 74.7304 86.4444 74.5634C86.4861 74.4013 86.5393 74.2424 86.6035 74.0878C86.6885 73.8443 86.7892 73.6066 86.905 73.3762C86.8973 73.3779 86.8893 73.3766 86.8825 73.3724C86.7189 73.5929 86.5432 73.8042 86.3564 74.0054C86.1412 74.2741 85.876 74.4985 85.5755 74.6664C85.4912 74.7057 85.3882 74.7338 85.3358 74.6421C85.2834 74.5503 85.3508 74.3874 85.4013 74.2956C85.4663 74.1614 85.5474 74.0357 85.6429 73.9211C85.759 73.8098 85.8925 73.7181 86.038 73.6496C86.2833 73.5204 86.5342 73.4024 86.7721 73.2751C86.7706 73.2677 86.7706 73.26 86.7721 73.2526C86.5043 73.3219 86.229 73.3687 85.9612 73.4492C85.678 73.5632 85.3681 73.5938 85.068 73.5372C84.9781 73.5129 84.804 73.453 84.7759 73.35C84.7478 73.247 84.9201 73.1833 84.9931 73.1627C85.315 73.0595 85.6548 73.0238 85.9912 73.0579C86.2346 73.0672 86.4874 73.0579 86.7402 73.0822C86.7381 73.0704 86.7381 73.0584 86.7402 73.0466C86.6522 73.026 86.5754 73.0017 86.4912 72.9867C86.3039 72.953 86.1279 72.9586 85.9444 72.9268C85.6579 72.8677 85.3904 72.7391 85.1654 72.5523C85.1036 72.4961 84.9781 72.365 85.0418 72.2714C85.1055 72.1777 85.2927 72.2077 85.377 72.2133C85.6838 72.2548 85.977 72.3656 86.2346 72.5373C86.4302 72.6492 86.6179 72.7743 86.7964 72.9118C86.6691 72.7751 86.5455 72.644 86.4219 72.5017C86.196 72.2539 86.0408 71.9499 85.9725 71.6216C85.9519 71.5055 85.9369 70.9381 86.1991 71.1235C86.3186 71.233 86.4159 71.3646 86.4856 71.5111C86.5704 71.6691 86.6406 71.8346 86.6953 72.0055C86.7945 72.2676 86.8713 72.5373 86.9481 72.8069C86.9709 72.8017 86.994 72.7986 87.0174 72.7976C87.0005 72.5082 87.0005 72.2181 87.0174 71.9287C87.0285 71.6238 87.1287 71.3289 87.3058 71.0804C87.3601 71.0055 87.4556 70.8351 87.5754 70.8613C87.6953 70.8875 87.6953 71.0486 87.7027 71.1272C87.7421 71.4549 87.5979 71.762 87.4668 72.0635L87.2571 72.5672C87.2177 72.6534 87.1747 72.7339 87.1391 72.8182C87.1595 72.8217 87.1787 72.8301 87.1953 72.8425C87.2065 72.8163 87.2196 72.7938 87.229 72.7676C87.3303 72.515 87.4657 72.2774 87.6316 72.0616C87.7344 71.9333 87.8534 71.8187 87.9855 71.7208C88.1145 71.6114 88.259 71.5218 88.4143 71.4549C88.4651 71.4249 88.523 71.4091 88.5819 71.4091C88.6409 71.4091 88.6988 71.4249 88.7495 71.4549C88.8469 71.5336 88.8151 71.6759 88.7682 71.7733C88.7062 71.8908 88.6154 71.9907 88.5042 72.0635C88.3544 72.1796 88.2065 72.2863 88.0585 72.395C87.8039 72.5822 87.5529 72.7695 87.3001 72.9567C87.3114 72.9735 87.3185 72.9928 87.3207 73.0129C87.5925 72.8798 87.8783 72.7774 88.1728 72.7077C88.4842 72.6242 88.8101 72.6095 89.1278 72.6646C89.2177 72.689 89.3937 72.7189 89.3993 72.8369C89.4049 72.9549 89.2308 73.0391 89.1315 73.0747C88.8058 73.1691 88.4662 73.2059 88.1278 73.1833C87.8638 73.1833 87.5941 73.1646 87.3282 73.1421C87.3298 73.1524 87.3292 73.163 87.3263 73.173C87.3234 73.1831 87.3183 73.1923 87.3114 73.2002C87.4275 73.2357 87.538 73.2807 87.6484 73.3256C87.8516 73.3917 88.05 73.4718 88.242 73.5653C88.5295 73.7464 88.783 73.9765 88.9911 74.2451C89.0529 74.32 89.1353 74.4585 88.9911 74.496C88.8394 74.5151 88.6855 74.4883 88.5491 74.4192Z" fill="white"/>
<path d="M68.9057 84.8682C68.6021 84.7472 68.3323 84.5544 68.1193 84.3065C67.9488 84.1192 67.799 83.9207 67.623 83.7447C67.6055 83.7635 67.586 83.7804 67.565 83.7952C67.6455 83.9001 67.7092 84.0087 67.7841 84.1173C67.9077 84.3046 67.962 84.3626 68.0743 84.563C68.2547 84.8529 68.3537 85.186 68.3608 85.5274C68.3608 85.6229 68.3608 85.7839 68.2297 85.8008C68.0987 85.8176 67.9657 85.6135 67.902 85.5199C67.7282 85.2833 67.6011 85.0158 67.5275 84.7315C67.4675 84.5427 67.4317 84.347 67.4208 84.1492C67.4208 84.0518 67.4114 83.9507 67.4002 83.8496H67.3852C67.4038 84.1819 67.3931 84.5153 67.3534 84.8458C67.3294 85.0161 67.2931 85.1844 67.2448 85.3495C67.2116 85.4956 67.1606 85.6371 67.0931 85.7708C67.0594 85.827 66.9789 85.9862 66.9058 85.9225C66.7935 85.8439 66.7897 85.6435 66.7841 85.518C66.7671 85.3495 66.7728 85.1795 66.801 85.0124C66.8427 84.8503 66.8959 84.6914 66.9601 84.5368C67.0453 84.2937 67.1453 84.056 67.2597 83.8252C67.2526 83.8244 67.2459 83.8211 67.241 83.8158C67.0773 84.0363 66.9017 84.2476 66.7148 84.4488C66.4992 84.717 66.2341 84.9414 65.9339 85.1098C65.8497 85.1491 65.7467 85.1772 65.6943 85.0855C65.6418 84.9937 65.7092 84.8308 65.7598 84.739C65.8248 84.6048 65.9059 84.4791 66.0014 84.3645C66.1175 84.2532 66.2509 84.1615 66.3965 84.093C66.6418 83.9638 66.8927 83.8458 67.1305 83.7185C67.1291 83.7111 67.1291 83.7034 67.1305 83.696C66.8627 83.7653 66.5875 83.8121 66.3197 83.8833C66.0365 83.9973 65.7265 84.0278 65.4265 83.9713C65.3366 83.9469 65.1624 83.887 65.1344 83.784C65.1063 83.681 65.2785 83.6174 65.3516 83.5968C65.6735 83.4935 66.0133 83.4578 66.3497 83.4919C66.5912 83.5013 66.8459 83.4919 67.0987 83.5162C67.0966 83.5045 67.0966 83.4924 67.0987 83.4807C67.0107 83.4601 66.9339 83.4357 66.8496 83.4207C66.6624 83.387 66.4864 83.3926 66.3028 83.3608C66.0164 83.3018 65.7489 83.1731 65.5239 82.9863C65.4621 82.9301 65.3366 82.799 65.4003 82.7054C65.4639 82.6118 65.6512 82.6417 65.7355 82.6474C66.0422 82.6888 66.3355 82.7996 66.5931 82.9713C66.7887 83.0832 66.9764 83.2083 67.1549 83.3458C67.0275 83.2091 66.9039 83.0781 66.7804 82.9357C66.5544 82.6879 66.3992 82.3839 66.3309 82.0556C66.3103 81.9395 66.2954 81.3721 66.5575 81.5575C66.6771 81.667 66.7744 81.7987 66.844 81.9451C66.9357 82.1043 67.0121 82.2717 67.0725 82.4451C67.1717 82.7073 67.2485 82.9769 67.3253 83.2466C67.3483 83.2445 67.3715 83.2445 67.3946 83.2466C67.3777 82.9572 67.3777 82.6671 67.3946 82.3777C67.4057 82.0728 67.5059 81.7779 67.6829 81.5294C67.7372 81.4545 67.8327 81.2841 67.9526 81.3103C68.0724 81.3365 68.0724 81.4976 68.0799 81.5762C68.0872 81.9039 68.0057 82.2274 67.844 82.5125C67.7672 82.6829 67.6923 82.8533 67.6174 83.0237C67.5781 83.1099 67.535 83.1904 67.4994 83.2747C67.5198 83.2782 67.5391 83.2866 67.5556 83.299C67.5668 83.2728 67.5799 83.2503 67.5893 83.2241C67.6942 82.9688 67.8341 82.7293 68.005 82.5125C68.1033 82.3858 68.2172 82.2719 68.344 82.1736C68.4726 82.0638 68.6172 81.9741 68.7728 81.9077C68.8232 81.8777 68.8808 81.8618 68.9394 81.8618C68.9981 81.8618 69.0557 81.8777 69.1061 81.9077C69.2054 81.9863 69.1735 82.1286 69.1267 82.226C69.0647 82.3436 68.9738 82.4434 68.8627 82.5163C68.7129 82.6324 68.5649 82.7391 68.417 82.8477C68.1623 83.035 67.9114 83.2222 67.6586 83.4095C67.6696 83.4264 67.6766 83.4456 67.6792 83.4657C67.951 83.3325 68.2367 83.2302 68.5312 83.1604C68.8427 83.0769 69.1685 83.0622 69.4862 83.1174C69.5761 83.1417 69.7521 83.1717 69.7578 83.2896C69.7634 83.4076 69.5892 83.4919 69.49 83.5275C69.1643 83.6219 68.8246 83.6586 68.4863 83.6361C68.2222 83.6361 67.9526 83.6174 67.6867 83.5949C67.6883 83.6052 67.6876 83.6158 67.6847 83.6258C67.6818 83.6358 67.6767 83.6451 67.6698 83.6529C67.7859 83.6885 67.8964 83.7335 68.0069 83.7784C68.2101 83.8445 68.4084 83.9246 68.6005 84.0181C68.888 84.1992 69.1415 84.4293 69.3495 84.6978C69.4113 84.7727 69.4937 84.9113 69.3495 84.9488C69.1969 84.9671 69.0422 84.939 68.9057 84.8682Z" fill="white"/>
<path d="M100.243 83.5986C99.9398 83.4776 99.6699 83.2848 99.4569 83.0369C99.2865 82.8496 99.1367 82.6511 98.9588 82.4751C98.9415 82.4934 98.9227 82.5103 98.9026 82.5256C98.9832 82.6305 99.0449 82.7391 99.1217 82.8477C99.2434 83.035 99.2977 83.093 99.412 83.2934C99.5916 83.5836 99.6905 83.9166 99.6985 84.2578C99.6985 84.3533 99.6985 84.5143 99.5674 84.5312C99.4363 84.548 99.3034 84.3439 99.2397 84.2503C99.0659 84.0137 98.9388 83.7461 98.8652 83.4619C98.806 83.2729 98.7702 83.0773 98.7584 82.8796C98.7584 82.7822 98.7584 82.6811 98.7397 82.58H98.7229C98.7433 82.9123 98.7326 83.2458 98.691 83.5762C98.6677 83.7464 98.632 83.9148 98.5843 84.0799C98.5502 84.2257 98.4993 84.3671 98.4326 84.5012C98.3989 84.5574 98.3184 84.7166 98.236 84.6529C98.1536 84.5892 98.1199 84.3739 98.1143 84.2484C98.0979 84.0798 98.1042 83.9098 98.133 83.7428C98.173 83.5802 98.2263 83.4211 98.2922 83.2672C98.3757 83.0235 98.4758 82.7857 98.5918 82.5556C98.5857 82.5576 98.5791 82.5576 98.5731 82.5556C98.4094 82.7761 98.2337 82.9874 98.0469 83.1885C97.831 83.4573 97.5652 83.6817 97.2641 83.8496C97.1817 83.8889 97.0769 83.917 97.0263 83.8252C96.9757 83.7335 97.0413 83.5706 97.09 83.4788C97.155 83.3446 97.2361 83.2188 97.3315 83.1043C97.448 82.9925 97.5821 82.9008 97.7285 82.8328C97.972 82.7035 98.2229 82.5856 98.4626 82.4582C98.4626 82.4582 98.4626 82.4489 98.4626 82.4358C98.1948 82.505 97.9177 82.5519 97.6517 82.6324C97.3679 82.7465 97.0573 82.7771 96.7566 82.7204C96.6668 82.6961 96.4926 82.6361 96.4645 82.5331C96.4364 82.4301 96.6106 82.3665 96.6817 82.3459C97.0037 82.2428 97.3435 82.2071 97.6798 82.241C97.9233 82.2504 98.1779 82.241 98.4289 82.2654C98.4267 82.2536 98.4267 82.2415 98.4289 82.2298C98.3427 82.2092 98.266 82.1848 98.1817 82.1699C97.9944 82.1362 97.8184 82.1418 97.6349 82.1099C97.3484 82.0509 97.0809 81.9223 96.8559 81.7354C96.7922 81.6792 96.6686 81.5482 96.7304 81.4545C96.7922 81.3609 96.9814 81.3909 97.0675 81.3965C97.3742 81.4383 97.6674 81.549 97.9251 81.7204C98.1204 81.8328 98.3081 81.9579 98.4869 82.095C98.3596 81.9583 98.236 81.8272 98.1124 81.6849C97.8858 81.4372 97.7299 81.1333 97.6611 80.8047C97.6405 80.6886 97.6274 80.1213 97.8877 80.3066C98.0073 80.4162 98.1046 80.5478 98.1742 80.6943C98.2664 80.8534 98.3435 81.0208 98.4045 81.1942C98.5038 81.4564 98.5787 81.7261 98.6554 81.9957C98.6782 81.9905 98.7014 81.9874 98.7247 81.9863C98.7079 81.697 98.7079 81.4068 98.7247 81.1175C98.735 80.8124 98.8353 80.5172 99.0131 80.2692C99.0674 80.1943 99.1629 80.0239 99.2809 80.0501C99.3989 80.0763 99.4026 80.2373 99.4082 80.316C99.4476 80.6437 99.3034 80.9508 99.1723 81.2523L98.9476 81.7635C98.9064 81.8496 98.8633 81.9302 98.8277 82.0144C98.8486 82.0184 98.8683 82.0267 98.8858 82.0388C98.8858 82.0126 98.9083 81.9901 98.9195 81.9639C99.023 81.7078 99.163 81.4682 99.3352 81.2523C99.4373 81.124 99.5557 81.0094 99.6872 80.9115C99.8162 80.8021 99.9607 80.7125 100.116 80.6456C100.167 80.6156 100.225 80.5998 100.284 80.5998C100.343 80.5998 100.4 80.6156 100.451 80.6456C100.549 80.7242 100.519 80.8665 100.472 80.9639C100.41 81.0815 100.319 81.1813 100.208 81.2542C100.058 81.3703 99.9082 81.477 99.7603 81.5856C99.5075 81.7729 99.2547 81.9601 99.0112 82.1474C99.0238 82.1635 99.031 82.1831 99.0318 82.2036C99.3038 82.071 99.5896 81.9687 99.8839 81.8983C100.195 81.8149 100.521 81.8002 100.839 81.8553C100.929 81.8796 101.105 81.9096 101.112 82.0275C101.12 82.1455 100.942 82.2298 100.843 82.2654C100.518 82.3597 100.179 82.3964 99.8408 82.374C99.5749 82.374 99.3052 82.3552 99.0412 82.3328C99.0425 82.3431 99.0416 82.3535 99.0387 82.3635C99.0358 82.3735 99.0309 82.3828 99.0244 82.3908C99.1405 82.4264 99.2509 82.4713 99.3614 82.5163C99.5645 82.5827 99.7628 82.6628 99.955 82.756C100.242 82.9376 100.496 83.1676 100.704 83.4357C100.766 83.5106 100.846 83.6492 100.704 83.6866C100.545 83.7063 100.384 83.6755 100.243 83.5986Z" fill="white"/>
<path d="M106.812 72.8612C106.509 72.74 106.239 72.5473 106.026 72.2995C105.856 72.1122 105.706 71.9137 105.528 71.7377C105.511 71.7559 105.492 71.7723 105.472 71.7864C105.552 71.8912 105.614 72.0017 105.689 72.1085C105.813 72.2957 105.876 72.3556 105.981 72.556C106.16 72.846 106.259 73.178 106.268 73.5185C106.268 73.614 106.268 73.7769 106.136 73.7919C106.005 73.8069 105.872 73.6047 105.809 73.5129C105.635 73.2761 105.508 73.0086 105.434 72.7245C105.375 72.5348 105.339 72.3386 105.328 72.1403C105.328 72.0448 105.328 71.9437 105.307 71.8426H105.292C105.312 72.1749 105.302 72.5084 105.26 72.8388C105.237 73.0085 105.201 73.1762 105.153 73.3406C105.119 73.4871 105.068 73.6291 105.002 73.7638C104.968 73.8181 104.887 73.9792 104.814 73.9155C104.704 73.8369 104.698 73.6365 104.693 73.511C104.676 73.3424 104.683 73.1724 104.711 73.0054C104.751 72.8428 104.805 72.6837 104.871 72.5298C104.954 72.2854 105.054 72.0471 105.17 71.8163C105.17 71.8163 105.155 71.8163 105.151 71.8163C104.988 72.0368 104.812 72.2481 104.625 72.4493C104.41 72.718 104.144 72.9419 103.843 73.1084C103.76 73.1477 103.655 73.1758 103.603 73.0841C103.55 72.9923 103.62 72.8313 103.668 72.7376C103.734 72.6036 103.815 72.4779 103.91 72.3631C104.026 72.2508 104.16 72.1584 104.307 72.0897C104.55 71.9624 104.801 71.8444 105.041 71.7152C105.039 71.7078 105.039 71.7001 105.041 71.6927C104.773 71.762 104.496 71.807 104.23 71.88C103.946 71.9945 103.636 72.0244 103.335 71.9661C103.245 71.9418 103.071 71.8837 103.043 71.7789C103.015 71.674 103.189 71.6122 103.26 71.5916C103.582 71.4886 103.922 71.4529 104.258 71.4868C104.502 71.4868 104.756 71.4868 105.007 71.5111C105.005 71.4987 105.005 71.486 105.007 71.4737C104.921 71.4549 104.844 71.4287 104.76 71.4156C104.573 71.3819 104.397 71.3875 104.213 71.3557C103.927 71.2958 103.66 71.1673 103.434 70.9812C103.371 70.925 103.247 70.7939 103.309 70.7003C103.371 70.6066 103.56 70.6347 103.646 70.6422C103.952 70.6841 104.245 70.7948 104.502 70.9662C104.697 71.0781 104.885 71.2032 105.063 71.3407C104.936 71.2059 104.813 71.0729 104.689 70.9306C104.462 70.684 104.306 70.3805 104.238 70.0524C104.217 69.9344 104.204 69.367 104.464 69.5543C104.584 69.6634 104.682 69.7951 104.751 69.9419C104.843 70.1003 104.92 70.2671 104.981 70.44C105.078 70.704 105.155 70.9737 105.232 71.2433C105.255 71.2372 105.278 71.2341 105.301 71.234C105.284 70.944 105.284 70.6532 105.301 70.3632C105.312 70.0583 105.412 69.7633 105.59 69.5149C105.644 69.44 105.739 69.2715 105.857 69.2977C105.975 69.3239 105.979 69.485 105.985 69.5617C106.024 69.8894 105.88 70.1984 105.749 70.498L105.524 71.0074C105.483 71.0935 105.44 71.1759 105.404 71.2602C105.425 71.2633 105.445 71.2717 105.462 71.2845C105.472 71.2583 105.485 71.2358 105.496 71.2096C105.599 70.953 105.74 70.7127 105.912 70.4962C106.014 70.3689 106.133 70.255 106.264 70.1572C106.393 70.0478 106.537 69.9582 106.693 69.8913C106.744 69.8619 106.801 69.8464 106.86 69.8464C106.919 69.8464 106.977 69.8619 107.028 69.8913C107.066 69.935 107.089 69.9901 107.092 70.0479C107.096 70.1058 107.081 70.1633 107.048 70.2115C106.986 70.3291 106.896 70.429 106.784 70.5018C106.635 70.6179 106.485 70.7246 106.337 70.8332L105.578 71.395C105.59 71.4109 105.597 71.4297 105.599 71.4493C105.871 71.3173 106.157 71.2156 106.451 71.1459C106.762 71.0619 107.088 71.0465 107.406 71.101C107.496 71.1254 107.672 71.1572 107.679 71.2752C107.687 71.3931 107.509 71.4774 107.41 71.513C107.085 71.6073 106.746 71.644 106.408 71.6216C106.142 71.6216 105.872 71.601 105.608 71.5804C105.611 71.6012 105.604 71.622 105.592 71.6384C105.706 71.6744 105.819 71.7163 105.929 71.7639C106.131 71.8292 106.329 71.9093 106.52 72.0036C106.811 72.1827 107.068 72.4123 107.279 72.6815C107.341 72.7582 107.421 72.8968 107.279 72.9343C107.12 72.9597 106.956 72.9342 106.812 72.8612Z" fill="white"/>
<path d="M119.861 83.1211C119.557 82.9996 119.288 82.8069 119.074 82.5594C118.904 82.3721 118.754 82.1717 118.578 81.9976C118.56 82.0164 118.541 82.0333 118.52 82.0481C118.6 82.153 118.664 82.2616 118.739 82.3702C118.863 82.5575 118.926 82.6174 119.029 82.8159C119.21 83.1058 119.309 83.4389 119.316 83.7803C119.316 83.8758 119.316 84.0368 119.185 84.0537C119.054 84.0705 118.921 83.8664 118.857 83.7728C118.683 83.5362 118.556 83.2686 118.482 82.9844C118.422 82.7956 118.387 82.5999 118.376 82.4021C118.376 82.3047 118.366 82.2054 118.355 82.1024H118.34C118.359 82.4348 118.348 82.7682 118.308 83.0987C118.284 83.269 118.248 83.4373 118.2 83.6024C118.167 83.7486 118.116 83.8901 118.048 84.0237C118.016 84.0799 117.934 84.2391 117.861 84.1754C117.748 84.0967 117.745 83.8964 117.739 83.7709C117.722 83.6024 117.728 83.4323 117.756 83.2653C117.797 83.1037 117.851 82.9454 117.915 82.7915C118 82.5475 118.101 82.3092 118.217 82.0781C118.209 82.0778 118.201 82.0744 118.196 82.0687C118.032 82.2894 117.856 82.5013 117.67 82.7035C117.454 82.9711 117.189 83.1949 116.889 83.3627C116.805 83.402 116.702 83.4301 116.649 83.3383C116.597 83.2466 116.664 83.0837 116.715 82.9919C116.78 82.858 116.861 82.7322 116.956 82.6174C117.073 82.5061 117.207 82.4144 117.353 82.3459C117.597 82.2167 117.848 82.0987 118.085 81.9714C118.084 81.9639 118.084 81.9563 118.085 81.9489C117.818 82.0182 117.542 82.065 117.275 82.1455C116.991 82.2595 116.681 82.2901 116.381 82.2335C116.291 82.2092 116.117 82.1493 116.089 82.0463C116.061 81.9433 116.233 81.8796 116.306 81.859C116.628 81.7551 116.968 81.7188 117.305 81.7523C117.548 81.7523 117.801 81.7523 118.054 81.7766C118.051 81.7648 118.051 81.7528 118.054 81.741C117.966 81.7204 117.889 81.6961 117.805 81.6811C117.617 81.6493 117.441 81.6549 117.258 81.6212C116.971 81.5618 116.704 81.4332 116.479 81.2467C116.417 81.1924 116.291 81.0594 116.355 80.9658C116.419 80.8722 116.606 80.9021 116.69 80.9077C116.997 80.9492 117.29 81.06 117.548 81.2317C117.744 81.3436 117.931 81.4687 118.11 81.6062C117.982 81.4695 117.859 81.3384 117.735 81.1961C117.509 80.9487 117.353 80.6446 117.286 80.316C117.265 80.1999 117.25 79.6325 117.512 79.8198C117.626 79.9305 117.717 80.0621 117.78 80.2074C117.872 80.3665 117.948 80.5339 118.009 80.7074C118.108 80.9695 118.185 81.2392 118.261 81.5107C118.284 81.5048 118.307 81.501 118.331 81.4995C118.314 81.2101 118.314 80.92 118.331 80.6306C118.342 80.3258 118.442 80.0309 118.619 79.7823C118.673 79.7074 118.769 79.537 118.889 79.5632C119.009 79.5894 119.01 79.7505 119.016 79.8291C119.055 80.1568 118.911 80.4639 118.78 80.7654C118.703 80.934 118.628 81.1044 118.554 81.2748C118.514 81.3609 118.471 81.4414 118.436 81.5257C118.456 81.5293 118.475 81.5376 118.492 81.55C118.503 81.5238 118.516 81.5013 118.525 81.4751C118.63 81.2198 118.77 80.9803 118.941 80.7635C119.044 80.6352 119.163 80.5206 119.295 80.4227C119.424 80.3132 119.568 80.2242 119.724 80.1587C119.775 80.1283 119.833 80.1123 119.892 80.1123C119.951 80.1123 120.008 80.1283 120.059 80.1587C120.157 80.2373 120.125 80.3797 120.078 80.477C120.017 80.5955 119.926 80.6957 119.814 80.7673C119.664 80.8834 119.516 80.992 119.368 81.0987C119.113 81.286 118.863 81.4733 118.619 81.6605C118.631 81.6762 118.638 81.6951 118.64 81.7148C118.911 81.5817 119.197 81.4793 119.492 81.4096C119.803 81.3269 120.129 81.3122 120.447 81.3665C120.537 81.3909 120.713 81.4208 120.718 81.5388C120.724 81.6568 120.55 81.741 120.451 81.7766C120.125 81.8719 119.785 81.9087 119.447 81.8852C119.183 81.8852 118.913 81.8665 118.647 81.844C118.649 81.8543 118.648 81.8649 118.645 81.8749C118.642 81.885 118.637 81.8942 118.63 81.9021C118.746 81.9377 118.857 81.9826 118.967 82.0275C119.171 82.0936 119.369 82.1737 119.561 82.2672C119.848 82.4483 120.102 82.6784 120.31 82.947C120.372 83.0219 120.454 83.1605 120.31 83.1998C120.156 83.2197 119.999 83.1923 119.861 83.1211Z" fill="white"/>
<path d="M41.4293 76.8835C41.126 76.7618 40.8563 76.5692 40.6428 76.3218C40.4724 76.1345 40.3226 75.9341 40.1447 75.76C40.1278 75.7788 40.109 75.7958 40.0885 75.8105C40.169 75.9154 40.2308 76.024 40.3076 76.1326C40.4293 76.3199 40.4836 76.3798 40.5979 76.5783C40.7775 76.8685 40.8764 77.2015 40.8844 77.5427C40.8844 77.6382 40.8844 77.7992 40.7533 77.8161C40.6222 77.8329 40.4893 77.6288 40.4256 77.5352C40.2522 77.299 40.1251 77.0322 40.0511 76.7487C39.9928 76.5589 39.9576 76.3627 39.9462 76.1645C39.9462 76.0671 39.935 75.9772 39.9256 75.8649H39.9088C39.9292 76.1978 39.9185 76.532 39.8769 76.8629C39.8536 77.0326 39.8179 77.2003 39.7702 77.3648C39.7362 77.5113 39.6853 77.6533 39.6185 77.788C39.5848 77.8423 39.5043 78.0033 39.4219 77.9397C39.3114 77.861 39.3058 77.6607 39.3002 77.5352C39.2848 77.3659 39.2911 77.1954 39.3189 77.0277C39.3589 76.8657 39.4122 76.7073 39.4781 76.554C39.5624 76.3099 39.6625 76.0716 39.7777 75.8405C39.7715 75.8419 39.7651 75.8419 39.759 75.8405C39.5944 76.0602 39.4187 76.2715 39.2328 76.4734C39.0168 76.7416 38.751 76.9655 38.45 77.1326C38.3676 77.1719 38.2628 77.2 38.2122 77.1083C38.1616 77.0165 38.2272 76.8555 38.2759 76.7618C38.3412 76.6278 38.4223 76.5021 38.5174 76.3873C38.6338 76.275 38.7679 76.1826 38.9144 76.1139C39.1579 75.9866 39.4088 75.8667 39.6485 75.7394C39.6468 75.732 39.6468 75.7243 39.6485 75.7169C39.3807 75.7843 39.1035 75.8312 38.8376 75.9135C38.5536 76.0271 38.243 76.057 37.9425 75.9997C37.8527 75.9753 37.6804 75.9173 37.6523 75.8124C37.6242 75.7076 37.7965 75.6458 37.8676 75.6252C38.1894 75.5213 38.5294 75.4856 38.8657 75.5203C39.1092 75.5203 39.3638 75.5203 39.6148 75.5428C39.6127 75.531 39.6127 75.519 39.6148 75.5072C39.5286 75.4885 39.4518 75.4622 39.3676 75.4473C39.1803 75.4154 39.0043 75.4211 38.8208 75.3873C38.5341 75.3291 38.2663 75.2004 38.0418 75.0128C37.9781 74.9585 37.8545 74.8256 37.9163 74.7338C37.9781 74.6421 38.1673 74.6683 38.2534 74.6758C38.5601 74.7176 38.8533 74.8283 39.111 74.9997C39.3068 75.1114 39.4945 75.2365 39.6728 75.3742C39.5455 75.2375 39.4219 75.1065 39.2983 74.9641C39.0709 74.7171 38.915 74.4129 38.847 74.084C38.8283 73.9679 38.8133 73.4005 39.0736 73.5878C39.194 73.6966 39.2914 73.8284 39.3601 73.9754C39.4523 74.1339 39.5294 74.3006 39.5904 74.4735C39.6897 74.7357 39.7664 75.0072 39.8432 75.2769C39.8651 75.2706 39.8878 75.2674 39.9106 75.2675C39.8938 74.9775 39.8938 74.6868 39.9106 74.3968C39.9211 74.0918 40.0214 73.7966 40.199 73.5485C40.2533 73.4736 40.3488 73.3032 40.4668 73.3312C40.5848 73.3593 40.5885 73.5185 40.5941 73.5953C40.6029 73.9231 40.5213 74.2471 40.3582 74.5316L40.1335 75.0409C40.0923 75.1271 40.0492 75.2095 40.0155 75.2918C40.0358 75.2967 40.0549 75.3056 40.0717 75.3181C40.081 75.29 40.0941 75.2694 40.1054 75.2413C40.2103 74.986 40.3502 74.7465 40.5211 74.5297C40.6238 74.4024 40.742 74.2885 40.8731 74.1908C41.0012 74.0801 41.1459 73.9903 41.302 73.9249C41.3526 73.8945 41.4105 73.8785 41.4696 73.8785C41.5286 73.8785 41.5865 73.8945 41.6372 73.9249C41.7364 74.0054 41.7046 74.1477 41.6578 74.2451C41.5952 74.3617 41.5044 74.4608 41.3937 74.5335C41.2439 74.6496 41.0941 74.7582 40.9462 74.8649C40.6934 75.0522 40.4406 75.2394 40.1971 75.4267C40.2097 75.4421 40.2169 75.4611 40.2177 75.481C40.4895 75.3482 40.7753 75.2464 41.0698 75.1776C41.3811 75.0935 41.7069 75.0782 42.0248 75.1327C42.1147 75.157 42.2907 75.187 42.2982 75.305C42.3057 75.4229 42.1278 75.5072 42.0285 75.5446C41.7035 75.6389 41.3644 75.6757 41.0267 75.6533C40.7608 75.6533 40.4911 75.6327 40.2271 75.6121C40.229 75.6328 40.223 75.6536 40.2102 75.6701C40.3247 75.7054 40.4372 75.7467 40.5473 75.7937C40.7504 75.8607 40.9487 75.9414 41.1409 76.0353C41.4287 76.2151 41.6823 76.4446 41.89 76.7131C41.9517 76.7899 42.0323 76.9285 41.89 76.9659C41.7316 76.9873 41.5705 76.9585 41.4293 76.8835Z" fill="white"/>
<path opacity="0.4" d="M124.812 85.9038C124.812 85.9038 125.374 75.6851 124.812 75.275C123.926 74.6252 116.962 75.1851 116.492 74.996C116.022 74.8069 106.601 68.9738 105.837 68.8614C105.073 68.7491 104.571 68.985 104.447 68.985C104.324 68.985 104.099 68.7603 103.511 68.7715C102.923 68.7828 101.189 69.3539 101.189 69.3539C101.189 69.3539 86.9388 64.0189 76.8455 64.9926C76.4972 65.0264 71.8944 60.3786 65.6288 60.2138C59.3631 60.049 56.6403 61.7999 56.3108 61.7306C55.9812 61.6613 47.5639 61.4085 46.6876 61.5733C45.8112 61.7381 43.7308 66.4439 43.0248 67.0057C42.3188 67.5675 38.0512 71.0748 36.8715 72.453C35.6918 73.8312 34.6244 79.4172 34.2967 79.9228C33.969 80.4284 31.9222 85.6079 32.0908 86.5498C32.2593 87.4917 36.6224 85.8963 40.0586 85.8963L124.812 85.9038Z" fill="white"/>
<path opacity="0.4" d="M49.5676 61.5246C48.7979 63.0882 46.3673 67.9569 45.6763 68.6086C44.8561 69.3876 39.6841 73.4773 39.4144 74.1084C39.1448 74.7394 38.1579 79.5389 37.9613 80.08C37.7647 80.6212 35.6449 86.1322 35.3546 86.4899C33.5645 86.8213 32.19 87.0741 32.0963 86.5554C31.9297 85.6191 33.9802 80.4321 34.3041 79.9284C34.6281 79.4246 35.6973 73.8368 36.8789 72.4586C38.0605 71.0804 42.315 67.5824 43.0247 67.0057C43.7345 66.4289 45.8149 61.7306 46.6913 61.5658C46.9965 61.5171 48.1481 61.5078 49.5676 61.5246Z" fill="white"/>
</g>
<defs>
<clipPath id="clip0_66_4">
<rect width="128" height="128" fill="white"/>
</clipPath>
</defs>
</svg>
