<svg width="128" height="128" viewBox="0 0 128 128" fill="none" xmlns="http://www.w3.org/2000/svg">
<g clip-path="url(#clip0_66_23)">
<rect width="128" height="128" rx="64" fill="#F0F0F0"/>
<path d="M24.9961 68.1939H18.1549V70.2708H24.9961V68.1939Z" fill="#EBEBEB"/>
<path d="M21.1802 70.8127H14.3389V72.8896H21.1802V70.8127Z" fill="#DBDBDB"/>
<path d="M28.812 70.8127H21.9708V72.8896H28.812V70.8127Z" fill="#EBEBEB"/>
<path d="M24.9961 87.4184H18.1549V89.4952H24.9961V87.4184Z" fill="#DBDBDB"/>
<path d="M105.313 70.8127H98.4714V72.8896H105.313V70.8127Z" fill="#EBEBEB"/>
<path d="M123.401 75.7831H116.56V77.86H123.401V75.7831Z" fill="#EBEBEB"/>
<path d="M127.217 78.4019H120.376V80.4788H127.217V78.4019Z" fill="#DBDBDB"/>
<path d="M44.7569 98.985H51.5981V96.9081H44.7569V98.985Z" fill="#DBDBDB"/>
<path d="M116.562 98.985H123.403V96.9081H116.562V98.985Z" fill="#EBEBEB"/>
<path d="M129.062 64.6731H11.5234V66.0743H129.062V64.6731Z" fill="#EBEBEB"/>
<path d="M19.764 64.6731C19.8606 64.8935 19.9081 65.1322 19.9032 65.3728C19.9092 65.614 19.8617 65.8536 19.764 66.0743C19.6664 65.8536 19.6188 65.614 19.6248 65.3728C19.62 65.1322 19.6674 64.8935 19.764 64.6731Z" fill="#DBDBDB"/>
<path d="M28.9512 64.6731C29.0478 64.8935 29.0953 65.1322 29.0904 65.3728C29.0964 65.614 29.0489 65.8536 28.9512 66.0743C28.8536 65.8536 28.806 65.614 28.812 65.3728C28.8071 65.1322 28.8546 64.8935 28.9512 64.6731Z" fill="#DBDBDB"/>
<path d="M38.1384 64.6731C38.235 64.8935 38.2825 65.1322 38.2776 65.3728C38.2836 65.614 38.2361 65.8536 38.1384 66.0743C37.9529 65.6257 37.9529 65.1217 38.1384 64.6731Z" fill="#DBDBDB"/>
<path d="M47.3256 64.6731C47.4222 64.8935 47.4697 65.1322 47.4648 65.3728C47.4708 65.614 47.4233 65.8536 47.3256 66.0743C47.1401 65.6257 47.1401 65.1217 47.3256 64.6731Z" fill="#DBDBDB"/>
<path d="M56.5128 64.6731C56.6085 64.8937 56.656 65.1323 56.652 65.3728C56.6568 65.6139 56.6094 65.8533 56.5128 66.0743C56.4198 65.8525 56.3719 65.6143 56.3719 65.3737C56.3719 65.1331 56.4198 64.8949 56.5128 64.6731Z" fill="#DBDBDB"/>
<path d="M65.7 64.6731C65.7957 64.8937 65.8432 65.1323 65.8392 65.3728C65.844 65.6139 65.7965 65.8533 65.7 66.0743C65.607 65.8525 65.5591 65.6143 65.5591 65.3737C65.5591 65.1331 65.607 64.8949 65.7 64.6731Z" fill="#DBDBDB"/>
<path d="M74.8872 64.6731C74.9829 64.8937 75.0304 65.1323 75.0264 65.3728C75.0312 65.6139 74.9837 65.8533 74.8872 66.0743C74.789 65.8538 74.7409 65.6142 74.7462 65.3728C74.7422 65.1321 74.7903 64.8934 74.8872 64.6731Z" fill="#DBDBDB"/>
<path d="M84.0726 64.6731C84.1695 64.8934 84.2176 65.1321 84.2136 65.3728C84.2189 65.6142 84.1708 65.8538 84.0726 66.0743C83.9761 65.8533 83.9286 65.6139 83.9334 65.3728C83.9294 65.1323 83.9769 64.8937 84.0726 64.6731Z" fill="#DBDBDB"/>
<path d="M93.2598 64.6731C93.3528 64.8949 93.4008 65.1331 93.4008 65.3737C93.4008 65.6143 93.3528 65.8525 93.2598 66.0743C93.1633 65.8533 93.1158 65.6139 93.1206 65.3728C93.1166 65.1323 93.1641 64.8937 93.2598 64.6731Z" fill="#DBDBDB"/>
<path d="M102.447 64.6731C102.54 64.8949 102.588 65.1331 102.588 65.3737C102.588 65.6143 102.54 65.8525 102.447 66.0743C102.35 65.8533 102.303 65.6139 102.308 65.3728C102.304 65.1323 102.351 64.8937 102.447 64.6731Z" fill="#DBDBDB"/>
<path d="M111.634 64.6731C111.82 65.1217 111.82 65.6257 111.634 66.0743C111.537 65.8536 111.489 65.614 111.495 65.3728C111.49 65.1322 111.538 64.8935 111.634 64.6731Z" fill="#DBDBDB"/>
<path d="M120.821 64.6731C120.918 64.8935 120.965 65.1322 120.961 65.3728C120.967 65.614 120.919 65.8536 120.821 66.0743C120.724 65.8536 120.676 65.614 120.682 65.3728C120.677 65.1322 120.725 64.8935 120.821 64.6731Z" fill="#DBDBDB"/>
<path d="M104.631 39.914C105.921 39.914 127.601 40.057 128.964 40.0143C129.062 40.0143 129.114 39.8658 129.017 39.8175C128.158 39.3925 127.184 39.4779 126.291 39.1772C125.766 38.9916 125.445 38.6575 125.079 38.2641C124.778 37.9178 124.388 37.661 123.951 37.5217C123.552 37.4013 123.129 37.3878 122.724 37.4827C122.284 37.5885 121.902 37.839 121.482 37.9987C120.439 38.3921 119.428 38.0172 118.683 37.2563C118.071 36.6215 117.468 36.022 116.642 35.6805C116.301 35.5263 115.933 35.4439 115.559 35.4385C115.186 35.4331 114.815 35.5047 114.47 35.649C113.674 36.0202 113.128 36.7347 112.382 37.1709C111.497 37.6887 110.437 37.5662 109.459 37.7277C108.481 37.8892 107.731 38.7076 106.872 39.1809C106.595 39.3604 106.274 39.4606 105.944 39.4705C105.752 39.4541 105.562 39.4275 105.374 39.3907C105.079 39.3535 104.799 39.3628 104.6 39.6097C104.531 39.6598 104.541 39.914 104.631 39.914Z" fill="#EBEBEB"/>
<path d="M12.5739 32.6181C13.5149 32.6181 29.3447 32.722 30.3395 32.6905C30.41 32.6905 30.449 32.5847 30.3785 32.5494C29.7512 32.2376 29.0403 32.3007 28.387 32.0817C28.0385 31.9412 27.7336 31.7106 27.5036 31.4135C27.2828 31.1627 26.9979 30.9766 26.6795 30.8753C26.3883 30.7873 26.0791 30.7777 25.783 30.8475C25.4727 30.9511 25.1695 31.0751 24.8755 31.2187C24.1164 31.5063 23.3758 31.2335 22.8339 30.6619C22.3866 30.1997 21.9448 29.7617 21.3361 29.5111C21.0876 29.3988 20.8186 29.3388 20.5459 29.335C20.2732 29.3312 20.0026 29.3835 19.751 29.4889C19.1701 29.7524 18.7729 30.2814 18.2273 30.6025C17.5795 30.9737 16.8074 30.8902 16.0929 31.0034C15.3783 31.1166 14.8308 31.7198 14.2053 32.065C14.0012 32.1965 13.765 32.2697 13.5223 32.2766C13.3812 32.2766 13.2439 32.2358 13.1066 32.219C13.008 32.1932 12.9042 32.1945 12.8063 32.2225C12.7083 32.2506 12.6197 32.3045 12.5498 32.3787C12.4978 32.4325 12.5052 32.6181 12.5739 32.6181Z" fill="#EBEBEB"/>
<path d="M68.2186 43.7541C69.1596 43.7541 84.9876 43.858 85.9824 43.8265C85.9989 43.8263 86.015 43.8208 86.0281 43.8107C86.0412 43.8007 86.0507 43.7866 86.0551 43.7707C86.0595 43.7547 86.0586 43.7378 86.0525 43.7224C86.0464 43.707 86.0355 43.694 86.0214 43.6854C85.3941 43.3736 84.6832 43.4367 84.0317 43.2177C83.6824 43.0778 83.3768 42.8471 83.1464 42.5496C82.926 42.2983 82.641 42.1122 82.3224 42.0113C82.0312 41.9233 81.722 41.9137 81.4259 41.9835C81.1161 42.0871 80.8136 42.2111 80.5202 42.3547C79.7592 42.6405 79.0205 42.3695 78.4786 41.7979C78.0313 41.3339 77.5914 40.8977 76.9827 40.6472C76.7338 40.5349 76.4645 40.4749 76.1915 40.4711C75.9185 40.4673 75.6477 40.5196 75.3958 40.6249C74.8167 40.8884 74.4177 41.4174 73.872 41.7385C73.2261 42.1097 72.4522 42.028 71.7395 42.1412C71.0268 42.2544 70.4755 42.8576 69.85 43.2029C69.6462 43.3349 69.4098 43.4081 69.167 43.4144C69.0278 43.4144 68.8905 43.3736 68.7513 43.3569C68.6529 43.3307 68.5492 43.3315 68.4512 43.3593C68.3532 43.387 68.2645 43.4407 68.1945 43.5147C68.15 43.5685 68.1555 43.7541 68.2186 43.7541Z" fill="#EBEBEB"/>
<path d="M26.6182 51.4064C27.5592 51.4064 43.389 51.5103 44.3839 51.4788C44.4544 51.4788 44.4934 51.3711 44.4228 51.3359C43.7955 51.0259 43.0847 51.0872 42.4332 50.8681C42.0839 50.7282 41.7783 50.4975 41.5479 50.2C41.327 49.9497 41.0421 49.7642 40.7238 49.6636C40.4327 49.5759 40.1237 49.5657 39.8274 49.6339C39.5176 49.7391 39.2145 49.8631 38.9198 50.0051C38.1607 50.2928 37.4202 50.02 36.8782 49.4483C36.4309 48.9843 35.9892 48.5463 35.3823 48.2976C35.1335 48.1849 34.8642 48.1247 34.5911 48.1209C34.3181 48.117 34.0472 48.1696 33.7954 48.2753C33.2145 48.537 32.8173 49.066 32.2716 49.3889C31.6239 49.7601 30.8518 49.6766 30.1372 49.7917C29.4226 49.9067 28.8751 50.5062 28.2497 50.8533C28.0452 50.984 27.8092 51.0571 27.5666 51.0649C27.4256 51.0649 27.2882 51.0222 27.1509 51.0055C27.0523 50.9801 26.9487 50.9815 26.8508 51.0096C26.7529 51.0376 26.6643 51.0913 26.5941 51.1651C26.5496 51.2208 26.557 51.4064 26.6182 51.4064Z" fill="#EBEBEB"/>
<path d="M46.0877 37.3621C46.1062 37.414 71.036 37.3621 70.7224 37.3621C70.5795 37.3621 70.9395 37.1468 70.8003 37.0781C69.9874 36.6753 69.1002 36.6642 68.2168 36.5825C67.6943 36.5589 67.1816 36.4328 66.7079 36.2113C66.2364 35.9645 65.945 35.5376 65.611 35.1423C65.0967 34.5339 64.436 34.0665 63.6911 33.7843C62.9461 33.5021 62.1415 33.4144 61.3533 33.5294C59.5808 33.8078 58.1832 35.159 56.4089 35.4058C55.3417 35.5562 54.332 35.1423 53.2908 34.9975C52.4843 34.8872 51.6637 35.0374 50.9486 35.4262C50.3918 35.7046 49.8665 35.9385 49.2318 35.983C48.7436 36.0183 48.2536 35.9608 47.7637 35.9571C46.9642 35.9749 46.1987 36.2838 45.6107 36.8257C45.5253 36.8869 45.2748 37.3621 46.0877 37.3621Z" fill="#EBEBEB"/>
<path d="M11.529 100.815C49.1779 100.7 91.4131 100.7 129.062 100.815C91.4131 100.928 49.1779 100.928 11.529 100.815Z" fill="#263238"/>
<path d="M15.2205 95.5087C14.4596 95.5365 13.6114 95.5792 12.9822 95.0855C12.3994 94.6308 11.8797 93.9515 11.9577 93.172C11.98 92.9493 12.0301 92.8119 12.2695 92.9066C12.6407 93.0513 12.9117 93.4522 13.1622 93.7325C13.4818 94.0992 13.8354 94.4347 14.2183 94.7347C14.4893 94.9407 14.7751 95.1208 15.0572 95.3231L15.1612 95.3992L15.2001 95.4289H15.2224C15.2284 95.4289 15.2342 95.4305 15.2394 95.4334C15.2446 95.4363 15.249 95.4405 15.2521 95.4456C15.2531 95.4499 15.2531 95.4543 15.2521 95.4586C15.2543 95.4694 15.2523 95.4806 15.2464 95.49C15.2405 95.4993 15.2313 95.506 15.2205 95.5087Z" fill="#EE553F"/>
<path d="M15.2595 95.4586C14.5895 95.4474 13.8675 95.4771 13.333 95.0243C13.0877 94.8063 12.8779 94.5515 12.7112 94.2689C12.6351 94.1427 12.4031 93.7677 12.4978 93.6174C12.6723 93.3483 13.4703 94.4489 13.5798 94.5454C13.9996 94.9261 14.5114 95.191 15.0646 95.3138L15.1686 95.3899C14.7762 95.3104 14.3999 95.1661 14.055 94.963C13.5798 94.6809 13.3126 94.2614 12.9414 93.8717C12.8616 93.7863 12.6184 93.5005 12.5275 93.6861C12.4681 93.803 12.6908 94.1705 12.7391 94.2429C12.8978 94.5106 13.0962 94.7528 13.3274 94.9611C13.8601 95.427 14.5784 95.4103 15.2521 95.4381C15.2571 95.4438 15.2597 95.4511 15.2595 95.4586Z" fill="white"/>
<path d="M15.64 95.9727L15.6233 96.0618C15.6226 96.0651 15.621 96.0683 15.6187 96.0709C15.6164 96.0735 15.6135 96.0754 15.6103 96.0766C15.6067 96.0785 15.6027 96.0795 15.5986 96.0798C15.5946 96.08 15.5905 96.0795 15.5867 96.0781C15.5828 96.0767 15.5793 96.0745 15.5764 96.0717C15.5734 96.0689 15.5711 96.0655 15.5695 96.0618C15.5676 96.0557 15.5676 96.0492 15.5695 96.0432C15.5695 96.0432 15.5695 96.0432 15.5695 96.0321V96.0061C15.4358 95.5031 15.3839 94.9797 15.241 94.4749C15.098 93.97 14.9366 93.5227 14.8382 93.0328C14.777 92.7228 14.5617 91.1768 15.2465 91.3624C15.549 91.4477 15.7569 91.8876 15.872 92.1493C16.022 92.5024 16.1075 92.8796 16.1244 93.2629C16.1801 94.2039 15.833 95.0651 15.64 95.9727Z" fill="#EE553F"/>
<path d="M15.859 94.0387C15.8737 93.6845 15.8368 93.33 15.7495 92.9864C15.7198 92.8676 15.5639 92.2959 15.3783 92.3108C15.2521 92.3108 15.2317 92.5651 15.2205 92.6467C15.1779 92.9919 15.2892 93.3446 15.356 93.6805C15.4903 94.3651 15.574 95.0586 15.6066 95.7555C15.6066 95.7982 15.5936 95.8428 15.5899 95.8873C15.5862 95.9318 15.5899 95.9597 15.575 95.9968C15.5602 96.0339 15.575 96.0209 15.575 96.0339C15.575 96.0469 15.575 96.0525 15.575 96.0636C15.5786 96.0704 15.5846 96.0757 15.5917 96.0784C15.5989 96.0811 15.6068 96.0812 15.614 96.0785C15.614 96.0506 15.614 96.0228 15.627 95.9949C15.627 96.0172 15.627 96.0395 15.627 96.0636C15.627 96.0376 15.627 96.0154 15.64 95.9912C15.6409 95.9857 15.6409 95.9801 15.64 95.9745C15.64 95.9356 15.64 95.8966 15.64 95.8595C15.7491 95.2574 15.8222 94.6494 15.859 94.0387ZM15.6289 95.607C15.6103 95.2006 15.5695 94.7941 15.5119 94.3914C15.4655 94.0647 15.4043 93.7436 15.3263 93.4225C15.2821 93.2396 15.253 93.0534 15.2391 92.8657C15.2391 92.7247 15.254 92.2013 15.5231 92.5242C15.7087 92.7599 15.7662 93.2666 15.7885 93.5506C15.812 93.8716 15.8058 94.194 15.7699 94.5139C15.7439 94.8851 15.6827 95.247 15.6289 95.607Z" fill="white"/>
<path d="M16.0502 98.0607C16.0409 98.0619 16.0316 98.0619 16.0223 98.0607C15.3263 98.0254 14.4002 98.0904 13.8211 97.6301C13.3924 97.2904 12.9729 96.6186 13.1084 96.0488C13.2625 95.4066 14.1292 96.1768 14.3594 96.3624C14.9581 96.8837 15.5275 97.4376 16.065 98.0217V98.0347C16.0817 98.0514 16.0669 98.057 16.0502 98.0607Z" fill="#EE553F"/>
<path d="M16.0743 98.0402L15.9537 97.966C15.4971 97.6765 15.0516 97.3702 14.6229 97.038C14.5134 96.9563 13.7302 96.2585 13.6132 96.5072C13.5427 96.6594 13.7988 96.9656 13.8824 97.064C14.0312 97.2495 14.21 97.4088 14.4113 97.5354C14.8753 97.8249 15.4377 97.8862 15.9629 98.0254L16.0372 98.0458H16.0502C16.0669 98.0569 16.0799 98.0514 16.0743 98.0402ZM14.6972 97.6449C14.4765 97.543 14.274 97.4057 14.0977 97.2385C13.9807 97.1271 13.5687 96.7113 13.6782 96.5406C13.7376 96.4496 13.7859 96.4979 13.8954 96.5517C13.9465 96.5773 13.9961 96.6058 14.0438 96.6371C14.1608 96.7132 14.2684 96.8041 14.3761 96.8895C14.5617 97.0436 14.7603 97.1902 14.9588 97.335C15.2818 97.5707 15.614 97.7915 15.9537 98.0031C15.5435 97.8751 15.0962 97.8231 14.6972 97.6449Z" fill="white"/>
<path d="M17.3215 96.6278C17.1402 97.425 16.7254 98.15 16.13 98.7103H16.117C16.1102 98.7123 16.103 98.7121 16.0963 98.7098C16.0896 98.7075 16.0839 98.7031 16.0799 98.6973C16.075 98.6916 16.0724 98.6843 16.0724 98.6769C16.0724 98.6694 16.075 98.6621 16.0799 98.6564L16.1151 98.6212C16.2302 97.6765 16.3583 96.7355 16.4548 95.7871C16.4771 95.5625 16.6534 94.1408 17.0895 94.3728C17.3605 94.5157 17.3772 95.0985 17.4013 95.3602C17.4397 95.7843 17.4128 96.2119 17.3215 96.6278Z" fill="#EE553F"/>
<path d="M17.0691 95.3602C17.045 95.2804 17.0042 95.1987 16.9151 95.2544C16.7462 95.3602 16.6794 96.0302 16.6497 96.2139C16.5327 96.9786 16.3527 97.7117 16.169 98.4579C16.1541 98.521 16.1374 98.5841 16.1226 98.6435L16.0799 98.6991C16.0836 98.7048 16.089 98.7091 16.0954 98.7115C16.1017 98.7138 16.1086 98.714 16.1151 98.7121C16.1151 98.7121 16.1151 98.6991 16.1151 98.6936C16.1151 98.688 16.1541 98.6435 16.1708 98.6175C16.4691 98.2089 16.7014 97.7561 16.8594 97.2756C16.9583 96.9738 17.0266 96.663 17.0635 96.3476C17.1025 96.0506 17.1582 95.646 17.0691 95.3602ZM16.1764 98.5711C16.1671 98.583 16.1584 98.5954 16.1504 98.6082C16.1504 98.5822 16.1671 98.5581 16.1745 98.5321C16.3532 97.9627 16.4952 97.3824 16.5995 96.7949C16.6497 96.4961 16.6812 96.1954 16.7443 95.9003C16.7684 95.7741 16.8315 95.4177 16.9299 95.3602C17.0283 95.3027 17.032 95.44 17.0431 95.5217C17.0468 95.594 17.0468 95.6665 17.0431 95.7388C17.0604 96.7507 16.757 97.7421 16.1764 98.5711Z" fill="white"/>
<path d="M16.2451 100.75H16.1003C16.1003 100.628 16.1003 100.505 16.1003 100.379C16.0836 99.8851 16.065 99.3914 16.0353 98.894C16.0186 98.6138 15.9982 98.3372 15.9685 98.057C15.9676 98.0471 15.9676 98.0371 15.9685 98.0273C15.9685 98.005 15.9685 97.9827 15.9592 97.9604C15.95 97.9382 15.9592 97.9103 15.9592 97.8862C15.8967 97.2592 15.7357 96.646 15.4822 96.0692C15.3932 95.8836 15.2966 95.698 15.1946 95.5124L15.1667 95.4604V95.4456L15.137 95.3899C15.1279 95.3769 15.1198 95.3633 15.1129 95.3491C14.79 94.783 14.4225 94.2355 14.0735 93.6972L13.7747 93.2276C13.7674 93.2188 13.7617 93.2088 13.758 93.1979C13.7489 93.188 13.7414 93.1767 13.7357 93.1645C13.2959 92.4723 12.8653 91.7744 12.4087 91.0951C12.392 91.0691 12.4328 91.0468 12.4495 91.0728C12.7576 91.522 13.075 91.9656 13.3924 92.4129L13.5186 92.5985L13.7432 92.9381C13.9084 93.1738 14.0698 93.4095 14.2294 93.649C14.6989 94.3128 15.1266 95.0052 15.5101 95.7221C15.5379 95.7778 15.5639 95.8316 15.5899 95.8873C15.6159 95.943 15.6233 95.956 15.6363 95.9894C15.6493 96.0228 15.6734 96.0692 15.692 96.1082C15.9744 96.806 16.1327 97.5478 16.1597 98.3001C16.1597 98.3521 16.1597 98.4059 16.169 98.4579V98.5321C16.168 98.5451 16.168 98.5581 16.169 98.5711C16.1681 98.5878 16.1681 98.6045 16.169 98.6212C16.169 98.6323 16.169 98.6453 16.169 98.6583V98.7938C16.1894 99.2875 16.2024 99.783 16.2116 100.279C16.2265 100.434 16.2376 100.592 16.2451 100.75Z" fill="#EE553F"/>
<path d="M12.0913 91.7967C11.7201 91.2844 11.2227 90.2283 11.7832 89.679C11.885 89.5723 12.0228 89.5071 12.1699 89.4962C12.317 89.4852 12.4629 89.5292 12.5794 89.6196C12.8764 89.8349 13.01 90.2395 13.1047 90.5754C13.3627 91.4719 13.5334 92.385 13.8471 93.2629C13.8471 93.2629 13.8731 93.3371 13.8824 93.3576C13.8916 93.378 13.8601 93.3835 13.8527 93.3576C13.8452 93.3316 13.8322 93.3 13.8211 93.2722C13.2216 92.8397 12.5423 92.4036 12.0913 91.7967Z" fill="#EE553F"/>
<path d="M13.8601 93.2648L13.8508 93.2499C13.7216 93.0361 13.605 92.8149 13.5019 92.5873C13.2853 92.1103 13.0993 91.6199 12.9451 91.1192C12.8838 90.9336 12.6092 89.9852 12.2732 90.3601C12.1322 90.5179 12.1526 90.7981 12.1749 90.9912C12.2128 91.302 12.3118 91.6022 12.4662 91.8746C12.7891 92.3999 13.2207 92.8498 13.732 93.1942L13.7989 93.2462L13.8118 93.2685L13.823 93.2852C13.8258 93.2864 13.8288 93.287 13.8318 93.287C13.8349 93.2869 13.8379 93.2863 13.8406 93.2851C13.8434 93.2839 13.8459 93.2821 13.848 93.2799C13.8501 93.2777 13.8517 93.2751 13.8527 93.2722C13.856 93.2707 13.8586 93.2681 13.8601 93.2648ZM13.7116 93.1608C13.3008 92.8593 12.939 92.4962 12.6389 92.0844C12.4878 91.8661 12.3702 91.6265 12.2899 91.3735C12.2545 91.2602 12.2291 91.1441 12.2138 91.0264C12.2014 90.9392 12.1965 90.851 12.199 90.7629C12.199 90.5773 12.2844 90.3583 12.3994 90.3379C12.5145 90.3174 12.585 90.3954 12.6815 90.5569C12.7127 90.6121 12.7406 90.6691 12.7651 90.7276C12.8259 90.873 12.8786 91.0218 12.9228 91.1731C13.0026 91.4218 13.0824 91.6705 13.1715 91.9155C13.2328 92.0825 13.2959 92.2458 13.3683 92.4092C13.4885 92.6889 13.628 92.9599 13.7859 93.2202C13.7599 93.2017 13.7357 93.1813 13.7116 93.1608Z" fill="white"/>
<path d="M19.4411 93.9682C19.1998 94.4192 18.927 94.8535 18.6504 95.2822C18.4945 95.5272 18.3349 95.7685 18.179 96.0135C18.0231 96.2585 17.8078 96.548 17.7688 96.8728C17.7659 96.8868 17.7615 96.9005 17.7558 96.9137C17.7501 96.9175 17.7433 96.9196 17.7364 96.9198C17.7295 96.92 17.7227 96.9183 17.7167 96.9148C17.7107 96.9113 17.7058 96.9063 17.7026 96.9001C17.6993 96.894 17.6978 96.8871 17.6983 96.8802C17.6983 96.8802 17.6983 96.8654 17.6983 96.858C17.6874 96.763 17.6874 96.6671 17.6983 96.5721C17.6857 95.7819 17.8113 94.9955 18.0695 94.2484C18.2227 93.8007 18.4342 93.3751 18.6987 92.9826C18.9158 92.6727 19.2351 92.2068 19.5933 92.0417C19.9181 91.895 19.9645 92.3498 19.9645 92.5688C19.9292 93.0662 19.662 93.5413 19.4411 93.9682Z" fill="#EE553F"/>
<path d="M19.3984 92.7989C19.2258 92.7321 18.8843 93.2425 18.7284 93.4596C18.485 93.8021 18.2843 94.1729 18.1308 94.564C17.8611 95.2677 17.7117 96.0119 17.689 96.7652C17.689 96.7949 17.689 96.8264 17.689 96.8561V96.8784C17.6881 96.8853 17.6891 96.8922 17.6921 96.8985C17.6951 96.9047 17.6999 96.91 17.7058 96.9135C17.7117 96.9171 17.7186 96.9188 17.7255 96.9185C17.7324 96.9182 17.7391 96.9159 17.7447 96.9118C17.7577 96.8506 17.7707 96.7893 17.7855 96.7262C17.8004 96.6631 17.8152 96.6186 17.8319 96.5647C18.0279 95.9825 18.2849 95.4226 18.5985 94.8943C18.9363 94.2781 19.6267 92.8898 19.3984 92.7989ZM17.754 96.6724C17.7336 96.7522 17.7169 96.8339 17.702 96.9137L17.7132 96.7281C17.7493 96.066 17.8741 95.4118 18.0844 94.783C18.2067 94.4294 18.3673 94.0902 18.5632 93.7714C18.6674 93.6001 18.7827 93.4358 18.9084 93.2796C18.9604 93.2128 19.2666 92.7952 19.365 92.8602C19.4337 92.9047 19.2889 93.3316 19.2852 93.3409C19.2574 93.4262 19.2258 93.5116 19.1905 93.5951C19.1219 93.7696 19.0421 93.9385 18.9604 94.1055C18.7748 94.4675 18.5892 94.8201 18.4036 95.1764C18.1298 95.6482 17.9118 96.1502 17.754 96.6724Z" fill="white"/>
<path d="M21.6442 96.329C21.0874 96.8246 20.3709 97.0919 19.662 97.283C19.2908 97.387 18.8991 97.4686 18.5168 97.5651C18.1711 97.6298 17.8328 97.7293 17.5071 97.8621C17.4924 97.8684 17.4781 97.8758 17.4645 97.8844C17.3757 97.9279 17.2923 97.9815 17.2157 98.044C17.2128 98.0453 17.2097 98.046 17.2065 98.046C17.2033 98.046 17.2001 98.0453 17.1972 98.044L17.1768 98.0663C17.1768 98.0663 17.1619 98.0663 17.1656 98.0663C17.1713 98.0574 17.1763 98.0481 17.1805 98.0384C17.1782 98.0348 17.1769 98.0306 17.1769 98.0264C17.1769 98.0221 17.1782 98.0179 17.1805 98.0143L17.1972 97.9864C17.5684 97.2979 18.3553 96.7633 18.9975 96.3717C19.6288 95.9564 20.3619 95.7221 21.1171 95.6943C21.3027 95.6943 21.7537 95.6646 21.8706 95.865C21.9875 96.0655 21.7629 96.2251 21.6442 96.329Z" fill="#EE553F"/>
<path d="M21.1542 96.1416C21.0614 95.9337 20.4749 96.1416 20.3301 96.1768C19.8954 96.3192 19.4738 96.4986 19.0699 96.7132C18.3989 97.0269 17.7814 97.444 17.2399 97.9493L17.2176 97.9623C17.2176 97.9734 17.2065 97.9827 17.2009 97.992C17.1984 97.9959 17.1971 98.0004 17.1971 98.005C17.1971 98.0096 17.1984 98.0141 17.2009 98.018L17.2324 98.0013C17.3141 97.953 17.3976 97.9103 17.483 97.8676L17.5257 97.8472C18.124 97.5826 18.7383 97.3557 19.365 97.1679C19.7999 97.0303 20.2207 96.8513 20.6215 96.6334C20.705 96.5926 21.2321 96.3179 21.1542 96.1416ZM20.8869 96.42C20.2726 96.8951 19.4504 97.0974 18.7247 97.3368C18.2309 97.4851 17.7528 97.6816 17.2974 97.9233C17.8018 97.4815 18.3637 97.11 18.9678 96.819C19.3056 96.6399 19.6532 96.48 20.009 96.3402C20.2014 96.2633 20.3993 96.2012 20.6011 96.1546C20.7226 96.1248 20.8472 96.1093 20.9723 96.1082C21.208 96.1267 20.9927 96.3383 20.8869 96.42Z" fill="white"/>
<path d="M16.5457 99.4768C16.5399 99.4804 16.5331 99.4823 16.5262 99.4823C16.5194 99.4823 16.5126 99.4804 16.5068 99.4768C16.5059 99.4817 16.5059 99.4867 16.5068 99.4916C16.5086 99.4937 16.5096 99.4963 16.5096 99.4991C16.5096 99.5018 16.5086 99.5045 16.5068 99.5065C16.5043 99.5082 16.5014 99.5091 16.4984 99.5091C16.4954 99.5091 16.4925 99.5082 16.49 99.5065C16.1356 98.6824 15.8516 97.7396 15.8664 96.8376C15.8673 96.4587 15.93 96.0826 16.052 95.724C16.1393 95.4771 16.3156 94.9816 16.5921 94.8869C17.1489 94.7013 16.9466 96.3513 16.9151 96.6019C16.8575 97.0566 16.761 97.5057 16.6961 97.9604C16.6237 98.4579 16.5884 98.959 16.5532 99.4601C16.5519 99.4661 16.5494 99.4718 16.5457 99.4768Z" fill="#EE553F"/>
<path d="M16.5457 99.4768C16.5457 99.4304 16.5309 99.3821 16.5253 99.3339C16.4171 98.566 16.4278 97.786 16.5569 97.0213C16.6332 96.6371 16.6773 96.2473 16.6886 95.8557C16.6886 95.7592 16.7072 95.3973 16.503 95.5068C16.3991 95.5625 16.2209 96.1972 16.1894 96.3643C16.1208 96.7507 16.1002 97.144 16.1281 97.5354C16.1643 98.1912 16.2835 98.8398 16.4826 99.4657L16.4993 99.5213C16.5011 99.5193 16.5022 99.5167 16.5022 99.5139C16.5022 99.5112 16.5011 99.5085 16.4993 99.5065C16.4983 99.5016 16.4983 99.4965 16.4993 99.4916C16.5075 99.4952 16.5168 99.4956 16.5253 99.4929C16.5338 99.4902 16.5411 99.4845 16.5457 99.4768ZM16.1987 97.8491C16.1535 97.4627 16.1491 97.0727 16.1857 96.6854C16.2027 96.5313 16.2281 96.3783 16.2618 96.2269C16.2875 96.1084 16.3217 95.9918 16.3638 95.878C16.4733 95.6033 16.5235 95.5402 16.5736 95.5495C16.6237 95.5588 16.633 95.5996 16.6497 95.7963C16.6584 95.9233 16.654 96.0508 16.6367 96.1768C16.6181 96.3624 16.5921 96.535 16.5624 96.7132C16.5067 97.0696 16.4455 97.4259 16.4158 97.786C16.3715 98.3022 16.3952 98.822 16.4863 99.332C16.3495 98.8466 16.2533 98.3505 16.1987 97.8491Z" fill="white"/>
<path d="M18.9864 98.7567C18.8044 99.0206 18.5677 99.2422 18.2922 99.4063C17.7596 99.7515 17.1601 99.9779 16.6033 100.286C16.5216 100.331 16.4381 100.379 16.3583 100.429C16.3583 100.429 16.2673 100.518 16.271 100.511L16.3304 100.412C16.516 100.119 17.0858 99.2355 17.5257 98.8402C17.7956 98.5877 18.0947 98.3684 18.4166 98.1869C18.5725 98.1071 18.927 97.9419 19.0959 98.0718C19.2648 98.2017 19.0699 98.6156 18.9864 98.7567Z" fill="#EE553F"/>
<path d="M18.7525 98.4412C18.5966 98.237 17.7094 98.9701 17.5925 99.0648C17.1581 99.4109 16.7712 99.8128 16.4418 100.26C16.4028 100.31 16.3675 100.362 16.3304 100.412L16.2692 100.511C16.2692 100.511 16.349 100.436 16.3583 100.429L16.3991 100.403L16.6033 100.286C16.9633 100.034 17.329 99.7868 17.6835 99.5251C17.9412 99.3397 18.1838 99.1343 18.4091 98.9107C18.4593 98.8588 18.8193 98.5302 18.7525 98.4412ZM18.591 98.6824C17.986 99.3859 17.1471 99.796 16.4158 100.353L16.3805 100.379L16.4232 100.323C16.7039 99.959 17.0183 99.6222 17.3624 99.3172C17.5729 99.1329 17.7942 98.9612 18.025 98.8031C18.148 98.7106 18.277 98.6263 18.411 98.5507C18.4704 98.521 18.6374 98.4449 18.6708 98.482C18.7043 98.5191 18.6319 98.636 18.591 98.6917V98.6824Z" fill="white"/>
<path d="M23.6338 92.8193C22.4924 93.9738 20.6642 94.0072 19.4485 95.0799L19.339 95.182C19.3354 95.1854 19.3311 95.1878 19.3264 95.1891C19.3216 95.1904 19.3167 95.1905 19.3119 95.1894C19.3071 95.1883 19.3027 95.186 19.299 95.1828C19.2953 95.1796 19.2925 95.1755 19.2908 95.1709C19.2884 95.1673 19.2872 95.1631 19.2872 95.1588C19.2872 95.1545 19.2884 95.1503 19.2908 95.1468C19.2985 95.1378 19.3072 95.1297 19.3167 95.1226C19.7846 94.3217 20.3925 93.6114 21.1115 93.0253C21.7073 92.5187 22.4107 92.0973 23.2051 92.0212C23.3907 92.0008 23.7841 91.9489 23.9122 92.1567C24.0403 92.3646 23.7748 92.6783 23.6338 92.8193Z" fill="#EE553F"/>
<path d="M23.0677 92.669C23.012 92.5818 22.8691 92.6059 22.7893 92.6152C22.5914 92.6361 22.3969 92.6816 22.2102 92.7507C21.8265 92.8915 21.4662 93.0892 21.1412 93.3372C20.5715 93.7428 20.0547 94.2179 19.6026 94.7514C19.5017 94.8703 19.407 94.9942 19.3186 95.1226L19.2852 95.1709C19.2872 95.1752 19.2902 95.179 19.2939 95.182C19.2976 95.185 19.302 95.1871 19.3066 95.1881C19.3113 95.1892 19.3161 95.1892 19.3207 95.1882C19.3254 95.1871 19.3297 95.185 19.3334 95.182C19.3687 95.1468 19.4021 95.1152 19.4392 95.0836H19.4485C19.6749 94.8514 19.9236 94.6419 20.1909 94.4582C20.6154 94.1894 21.0568 93.9482 21.5124 93.7362C21.6831 93.6434 23.2589 92.966 23.0677 92.669ZM22.8469 92.953C22.517 93.1864 22.1637 93.3848 21.7926 93.545C21.4326 93.7306 21.0707 93.9162 20.7143 94.1018C20.4315 94.2489 20.1609 94.4183 19.9051 94.6085C19.6927 94.7714 19.4952 94.9527 19.3149 95.1505C19.471 94.9385 19.6403 94.7364 19.8216 94.5454C20.1478 94.2101 20.4949 93.8958 20.8609 93.6044L20.8739 93.5933C21.1893 93.328 21.5351 93.1013 21.904 92.9177C22.1059 92.8208 22.3183 92.7473 22.5369 92.6987C22.7856 92.6467 22.9916 92.63 23.0176 92.7135C23.0436 92.7971 22.9378 92.8787 22.8469 92.953Z" fill="white"/>
<path d="M20.8925 93.6304C20.5584 93.9515 20.2318 94.2818 19.9051 94.6122C19.7529 94.7681 19.5989 94.924 19.4485 95.0799H19.4392L19.2722 95.247C18.751 95.7426 18.2706 96.2795 17.8357 96.8524C17.62 97.1637 17.4336 97.4942 17.2789 97.8398L17.2325 97.9456C17.2325 97.966 17.2158 97.9846 17.2083 98.005C17.2029 98.015 17.1985 98.0256 17.1953 98.0365C17.0654 98.3372 16.9522 98.6453 16.8427 98.9441C16.6887 99.3617 16.5662 99.7867 16.4455 100.212C16.4449 100.224 16.4449 100.237 16.4455 100.249C16.4455 100.269 16.4344 100.288 16.427 100.308C16.4195 100.329 16.427 100.327 16.427 100.338L16.4102 100.392C16.3731 100.529 16.3342 100.666 16.2933 100.804L16.1671 100.754C16.2372 100.323 16.3389 99.8981 16.4715 99.4824C16.4715 99.4731 16.4715 99.4656 16.4715 99.4564C16.4845 99.4155 16.4975 99.3747 16.5123 99.3339C16.5272 99.293 16.5439 99.2355 16.5624 99.1854C16.6051 99.0648 16.646 98.946 16.6886 98.8272C16.9266 98.1282 17.2462 97.4598 17.6408 96.8357L17.676 96.7856L17.689 96.7652L17.7132 96.7281L17.754 96.6724C17.78 96.639 17.8041 96.6056 17.8301 96.574L17.8524 96.5443C18.2705 96.0425 18.7219 95.5694 19.2035 95.1282C19.2889 95.0465 19.3724 94.9648 19.4597 94.885L19.6026 94.7514L19.8216 94.5491C20.1668 94.2336 20.5176 93.9255 20.8609 93.6081C20.8832 93.5877 20.9092 93.6155 20.8925 93.6304Z" fill="#EE553F"/>
<path d="M120.365 82.5723C120.365 82.5723 124.491 89.8534 124.491 89.859C125.153 91.3271 125.706 92.6263 125.931 93.326C125.932 93.3296 125.932 93.3335 125.931 93.3371C126 93.4947 126.033 93.6662 126.026 93.8382C126.026 93.8382 126.026 93.8494 126.026 93.8531C125.721 94.3449 114.147 99.9779 113.67 100.034C113.193 100.089 112.991 98.7585 113.267 98.1776C113.544 97.5966 117.015 93.4615 117.015 93.4615L112.971 86.1507L120.365 82.5723Z" fill="#EB9481"/>
<path d="M113.848 99.9909C114.318 99.9297 125.714 94.345 126.018 93.8531C126.019 93.8488 126.019 93.8444 126.018 93.8401C126.026 93.6674 125.993 93.4953 125.924 93.3371V93.326C125.699 92.6282 125.146 91.3271 124.485 89.859C124.485 89.859 123.791 88.5858 123.514 88.1441L116.148 91.9507L117.005 93.4671C117.005 93.4671 113.726 97.5614 113.446 98.1349C113.165 98.7084 113.377 100.052 113.848 99.9909Z" fill="#EBEBEB"/>
<path d="M113.637 99.835C114.11 99.7626 125.649 93.8178 125.944 93.313C126.059 93.1274 125.291 91.3902 124.303 89.3245C124.292 89.3034 124.281 89.2817 124.272 89.2595L116.785 93.0123L116.851 93.1367C116.851 93.1367 113.453 97.3925 113.188 97.9771C112.922 98.5618 113.169 99.9074 113.637 99.835Z" fill="#EE553F"/>
<path d="M113.54 99.319C115.461 98.2704 123.307 94.2169 125.285 93.3241C125.3 93.3241 125.305 93.3241 125.285 93.3371C123.405 94.4192 115.526 98.4077 113.551 99.3506C113.512 99.371 113.496 99.3413 113.54 99.319Z" fill="white"/>
<path d="M116.239 93.4819C116.929 92.9437 117.926 92.5799 118.793 92.823C118.826 92.8323 118.811 92.8806 118.793 92.8861C117.94 93.0269 117.104 93.2584 116.3 93.5766C116.288 93.5847 116.272 93.5875 116.258 93.5844C116.243 93.5812 116.23 93.5724 116.222 93.5599C116.214 93.5473 116.211 93.532 116.214 93.5174C116.218 93.5028 116.226 93.49 116.239 93.4819Z" fill="#263238"/>
<path d="M115.857 94.1C116.549 93.5617 117.546 93.1979 118.412 93.4411C118.446 93.4504 118.431 93.4986 118.412 93.5042C117.559 93.6438 116.723 93.8753 115.92 94.1946C115.907 94.203 115.892 94.206 115.877 94.2031C115.862 94.2001 115.849 94.1914 115.841 94.1788C115.832 94.1663 115.829 94.1509 115.832 94.1361C115.835 94.1213 115.844 94.1083 115.857 94.1Z" fill="#263238"/>
<path d="M115.476 94.7161C116.168 94.1797 117.165 93.8141 118.03 94.0591C118.063 94.0591 118.05 94.1166 118.021 94.1204C117.168 94.2615 116.333 94.4936 115.53 94.8126C115.517 94.8177 115.503 94.8181 115.491 94.8136C115.478 94.809 115.467 94.8 115.46 94.7882C115.454 94.7763 115.452 94.7624 115.455 94.7492C115.458 94.7359 115.465 94.7242 115.476 94.7161Z" fill="#263238"/>
<path d="M123.032 91.535C123.654 90.6849 124.973 91.6482 124.351 92.5001C123.73 93.352 122.41 92.3813 123.032 91.535Z" fill="white"/>
<path opacity="0.1" d="M116.345 93.7751L115.515 98.9552C114.47 99.4749 113.748 99.8164 113.637 99.835C113.165 99.9074 112.924 98.5655 113.186 97.979C113.388 97.5317 115.396 94.9797 116.345 93.7751Z" fill="black"/>
<path d="M113.247 99.5121C113.082 99.6977 113.485 100.368 113.661 100.347C113.837 100.327 126.391 93.7881 126.581 93.6304C126.77 93.4726 126.297 92.7451 126.024 92.8342C125.751 92.9232 113.247 99.5121 113.247 99.5121Z" fill="#EE553F"/>
<path opacity="0.4" d="M113.247 99.5121C113.082 99.6977 113.485 100.368 113.661 100.347C113.837 100.327 126.391 93.7881 126.581 93.6304C126.77 93.4726 126.297 92.7451 126.024 92.8342C125.751 92.9232 113.247 99.5121 113.247 99.5121Z" fill="black"/>
<path d="M123.531 87.4629L115.233 91.895C115.233 91.895 104.758 76.9654 104.548 73.0436C104.26 67.626 108.884 50.4357 108.884 50.4357L116.261 50.3856C116.261 50.3856 113.262 68.0677 113.505 71.0818C113.633 72.6613 123.531 87.4629 123.531 87.4629Z" fill="#263238"/>
<path d="M114.509 90.1801C114.936 89.872 118.869 87.5928 121.864 86.1359C121.885 86.1266 121.898 86.1544 121.881 86.1674C120.972 86.7669 115.101 89.9833 114.531 90.2116C114.511 90.2191 114.489 90.1931 114.509 90.1801Z" fill="#37474F"/>
<path d="M112.482 67.303C112.824 64.7158 113.201 62.1304 113.631 59.5561C114.062 56.9818 114.518 54.3834 115.059 51.8184C115.125 51.5054 115.193 51.1923 115.263 50.8793C115.265 50.8701 115.272 50.8622 115.28 50.8573C115.288 50.8523 115.298 50.8506 115.307 50.8524C115.317 50.8543 115.325 50.8596 115.331 50.8673C115.337 50.875 115.34 50.8845 115.339 50.8941C114.884 53.4387 114.411 55.9833 113.999 58.5353C113.587 61.0873 113.19 63.6449 112.839 66.208C112.753 66.8427 112.668 67.4775 112.586 68.1122C112.486 68.767 112.424 69.427 112.401 70.0889C112.39 70.7219 112.498 71.3514 112.718 71.9449C112.952 72.5256 113.236 73.0845 113.568 73.6153C114.903 75.874 120.881 85.7405 121.035 86.0282C121.046 86.0468 121.02 86.0672 121.007 86.0486C119.572 83.8214 115.123 76.7129 113.769 74.4171C113.158 73.3833 112.458 72.3346 112.26 71.1264C112.055 69.8625 112.317 68.5484 112.482 67.303Z" fill="#37474F"/>
<path d="M114.607 87.4629C114.607 87.4629 114.691 95.8799 114.691 95.8873C114.646 97.4964 114.578 98.907 114.476 99.6327C114.477 99.637 114.477 99.6414 114.476 99.6457C114.469 99.8183 114.424 99.9871 114.342 100.139V100.149C113.854 100.46 100.979 100.479 100.528 100.334C100.077 100.189 100.472 98.8922 100.971 98.4931C101.471 98.0941 106.4 95.8817 106.4 95.8817V87.4703L114.607 87.4629Z" fill="#EB9481"/>
<path d="M114.674 94.1575C114.674 94.1575 114.691 95.8799 114.691 95.8873C114.646 97.4964 114.578 98.907 114.476 99.6327C114.477 99.637 114.477 99.6414 114.476 99.6457C114.45 99.8149 114.406 99.9805 114.342 100.139V100.149C113.854 100.46 100.979 100.479 100.528 100.334C100.077 100.19 100.472 98.8922 100.971 98.4931C101.471 98.0941 106.4 95.8817 106.4 95.8817V94.1259L114.674 94.1575Z" fill="#EBEBEB"/>
<path d="M100.511 100.314C100.968 100.459 113.945 100.23 114.431 99.9074C114.617 99.7886 114.697 97.8955 114.723 95.6052V95.5365L106.348 95.5903V95.7332C106.348 95.7332 101.421 98.0421 100.921 98.4541C100.422 98.8662 100.055 100.176 100.511 100.314Z" fill="#EE553F"/>
<path d="M100.649 99.8053C102.837 99.7144 111.664 99.5473 113.826 99.6197C113.843 99.6197 113.843 99.6327 113.826 99.6327C111.66 99.7719 102.831 99.8665 100.649 99.8387C100.604 99.8424 100.602 99.8053 100.649 99.8053Z" fill="white"/>
<path d="M105.654 95.7666C106.512 95.5903 107.568 95.7035 108.236 96.3067C108.262 96.329 108.236 96.3661 108.201 96.3569C107.373 96.1065 106.521 95.9447 105.66 95.8743C105.653 95.8747 105.646 95.8736 105.639 95.8713C105.632 95.8689 105.626 95.8652 105.621 95.8605C105.616 95.8558 105.611 95.85 105.608 95.8436C105.605 95.8372 105.603 95.8303 105.603 95.8233C105.603 95.8162 105.604 95.8091 105.606 95.8024C105.609 95.7958 105.612 95.7896 105.617 95.7844C105.622 95.7791 105.627 95.7748 105.634 95.7718C105.64 95.7688 105.647 95.767 105.654 95.7666Z" fill="#263238"/>
<path d="M105.038 96.1527C105.897 95.9764 106.951 96.0896 107.622 96.6909C107.647 96.715 107.612 96.7522 107.584 96.7429C106.757 96.4922 105.905 96.3304 105.044 96.2603C105.029 96.2611 105.015 96.2561 105.005 96.2465C104.994 96.237 104.988 96.2236 104.987 96.2093C104.986 96.195 104.991 96.181 105.001 96.1704C105.01 96.1598 105.024 96.1534 105.038 96.1527Z" fill="#263238"/>
<path d="M104.424 96.5369C105.281 96.3606 106.337 96.4756 107.005 97.077C107.031 97.1011 107.005 97.1364 106.97 97.1289C106.143 96.8774 105.291 96.7156 104.429 96.6464C104.416 96.6448 104.404 96.6386 104.395 96.629C104.386 96.6194 104.381 96.607 104.381 96.594C104.38 96.5809 104.384 96.568 104.392 96.5576C104.4 96.5471 104.411 96.5398 104.424 96.5369Z" fill="#263238"/>
<path d="M100.305 99.8517C100.073 99.9445 100.138 100.724 100.305 100.78C100.472 100.835 114.622 100.529 114.862 100.47C115.101 100.41 114.999 99.5417 114.719 99.512C114.439 99.4823 100.305 99.8517 100.305 99.8517Z" fill="#EE553F"/>
<path opacity="0.4" d="M100.305 99.8517C100.073 99.9445 100.138 100.724 100.305 100.78C100.472 100.835 114.622 100.529 114.862 100.47C115.101 100.41 114.999 99.5417 114.719 99.512C114.439 99.4823 100.305 99.8517 100.305 99.8517Z" fill="black"/>
<path d="M112.612 97.0213C113.54 96.5332 114.303 97.9827 113.37 98.469C112.436 98.9553 111.673 97.5113 112.612 97.0213Z" fill="white"/>
<path d="M108.976 50.4116C109.025 50.5637 111.677 57.8356 111.926 57.9451C112.208 58.0768 106.068 68.3888 105.706 73.181C105.472 76.2452 105.929 93.597 105.929 93.597H114.904C114.904 93.597 114.474 78.0066 114.268 73.0659C114.188 71.1505 120.432 61.6125 120.508 55.6733C120.532 53.8006 119.188 50.38 119.188 50.38L108.976 50.4116Z" fill="#263238"/>
<path d="M114.221 72.9304C114.221 72.8506 114.283 72.8246 114.288 72.9063C114.492 75.5808 114.539 78.2386 114.659 80.9168C114.78 83.595 114.715 84.2316 114.834 86.9024C114.901 88.4132 114.834 89.9277 114.873 91.4403C114.872 91.4445 114.869 91.4481 114.865 91.4507C114.862 91.4532 114.858 91.4546 114.853 91.4546C114.849 91.4546 114.845 91.4532 114.841 91.4507C114.838 91.4481 114.835 91.4445 114.834 91.4403C114.563 88.7788 114.223 74.4449 114.221 72.9304Z" fill="#37474F"/>
<path d="M105.71 73.2942C105.722 72.6341 105.784 71.9758 105.895 71.325C106.02 70.6927 106.207 70.0741 106.452 69.4783C106.948 68.2273 107.534 67.0079 108.095 65.7848C108.655 64.5617 109.242 63.3126 109.839 62.0895C110.177 61.4016 110.516 60.7142 110.857 60.0275C111.202 59.3352 111.573 58.6522 111.933 57.9674C111.948 57.9414 111.991 57.9674 111.978 57.9878C111.402 59.2239 110.834 60.4618 110.259 61.6998C109.684 62.9377 109.117 64.1757 108.553 65.4118C107.989 66.6479 107.44 67.8524 106.916 69.0848C106.654 69.6722 106.44 70.2799 106.276 70.9018C106.127 71.5436 106.039 72.1979 106.012 72.8562C105.925 74.3892 105.882 75.9279 105.732 77.4572C105.732 77.4758 105.699 77.4739 105.699 77.4572C105.645 76.0726 105.667 74.6788 105.71 73.2942Z" fill="#37474F"/>
<path d="M106.582 91.8245C107.104 91.7577 111.081 91.6203 114.409 91.7614C114.413 91.7614 114.418 91.7632 114.421 91.7663C114.424 91.7694 114.426 91.7737 114.426 91.7781C114.426 91.7825 114.424 91.7868 114.421 91.7899C114.418 91.793 114.413 91.7948 114.409 91.7948C113.325 91.8913 107.198 91.934 106.588 91.8635C106.565 91.8579 106.558 91.8245 106.582 91.8245Z" fill="#37474F"/>
<path d="M110.689 57.5497C111.651 57.7929 112.59 58.1183 113.496 58.5223C113.503 58.525 113.51 58.5306 113.513 58.5379C113.517 58.5452 113.517 58.5536 113.514 58.5613C113.512 58.5689 113.506 58.5751 113.499 58.5786C113.491 58.5821 113.483 58.5825 113.475 58.5798C112.534 58.2847 111.575 58.0082 110.65 57.663C110.635 57.6578 110.623 57.6469 110.616 57.6326C110.609 57.6183 110.608 57.6019 110.613 57.5869C110.619 57.5718 110.629 57.5595 110.644 57.5525C110.658 57.5456 110.674 57.5446 110.689 57.5497Z" fill="#37474F"/>
<path d="M109.784 51.3971C109.784 51.3656 109.838 51.3526 109.839 51.386C109.942 52.3929 110.096 53.3939 110.3 54.3853C110.391 54.8456 111.027 57.3771 111.814 57.1062C111.946 57.0616 112 56.9206 112 56.7164C111.97 56.4506 111.907 56.1895 111.814 55.9387C111.669 55.4116 111.541 54.879 111.443 54.3407C111.247 53.3383 111.153 52.3183 111.165 51.2969C111.165 51.29 111.167 51.2834 111.172 51.2785C111.177 51.2736 111.184 51.2709 111.191 51.2709C111.197 51.2709 111.204 51.2736 111.209 51.2785C111.214 51.2834 111.217 51.29 111.217 51.2969C111.336 52.7021 111.562 54.0962 111.892 55.4673C112.061 56.1243 112.501 57.0969 111.814 57.2714C111.127 57.4458 110.48 55.8107 110.344 55.3597C109.987 54.0685 109.799 52.7366 109.784 51.3971Z" fill="#37474F"/>
<path d="M111.799 57.1785C111.889 57.3445 111.968 57.5163 112.035 57.6927C112.102 57.8275 112.142 57.9735 112.156 58.1232C112.156 58.1511 112.119 58.1585 112.102 58.14C112.004 58.0176 111.925 57.8804 111.87 57.7335C111.792 57.5757 111.71 57.418 111.636 57.2565C111.628 57.2353 111.629 57.212 111.638 57.1911C111.646 57.1703 111.662 57.1534 111.682 57.1437C111.703 57.1339 111.726 57.1321 111.748 57.1386C111.769 57.145 111.788 57.1593 111.799 57.1785Z" fill="#37474F"/>
<path d="M113.301 75.5678C113.256 74.2927 113.115 72.9546 113.533 71.7222C113.761 71.1201 114.035 70.5362 114.351 69.9757C114.663 69.3743 114.969 68.7711 115.268 68.1661C116.467 65.7533 117.598 63.2829 118.609 60.7755C119.095 59.5672 119.537 58.3274 119.704 57.0319C119.863 55.6705 119.779 54.2915 119.454 52.9599C119.377 52.6276 119.298 52.2973 119.207 51.9688C119.207 51.9446 119.236 51.9316 119.244 51.9558C119.669 53.2131 119.905 54.5267 119.943 55.8534C119.936 57.1236 119.707 58.3828 119.268 59.5747C118.837 60.8275 118.299 62.045 117.768 63.2588C117.22 64.5098 116.652 65.7502 116.063 66.9801C115.476 68.2051 114.849 69.4077 114.229 70.616C113.909 71.1894 113.677 71.8075 113.54 72.4497C113.445 73.1153 113.42 73.789 113.466 74.4598C113.572 77.2827 113.815 86.6778 113.852 89.4934L113.863 90.5661C113.863 90.5725 113.861 90.5787 113.856 90.5832C113.852 90.5877 113.846 90.5903 113.839 90.5903C113.833 90.5903 113.827 90.5877 113.822 90.5832C113.818 90.5787 113.815 90.5725 113.815 90.5661C113.633 87.7562 113.403 78.3834 113.301 75.5678Z" fill="#37474F"/>
<path d="M115.315 52.2397C115.315 52.2212 115.346 52.2249 115.348 52.2397C115.454 53.0174 115.515 53.8229 115.89 54.5282C116.235 55.1741 116.835 55.5917 117.49 55.8831C117.87 56.0472 118.26 56.1909 118.655 56.3137C118.683 56.3137 118.676 56.3675 118.655 56.3601C117.913 56.206 117.158 56.0334 116.512 55.6177C115.821 55.1722 115.467 54.4577 115.352 53.6577C115.29 53.1876 115.278 52.7124 115.315 52.2397Z" fill="#37474F"/>
<path d="M108.882 41.4118C109.529 46.6736 109.468 52.0838 108.449 53.2661C106.985 54.9643 103.206 57.8671 100.61 58.8062C99.8467 59.0809 97.2502 54.3778 97.9963 53.9361C99.0189 53.3329 103.82 50.0979 103.904 50.0385C104.09 49.9012 106.317 42.724 106.591 41.28C107.08 38.7429 108.529 38.587 108.882 41.4118Z" fill="#EB9481"/>
<path d="M101.892 58.1567C101.317 58.5557 98.2302 60.7439 97.3523 61.0149C96.4744 61.2859 93.8945 61.8798 93.6198 61.2283C93.3452 60.5769 94.0857 60.343 94.0857 60.343C94.0857 60.343 92.9573 60.421 92.7401 59.7398C92.5229 59.0587 93.6885 58.7339 93.6885 58.7339C93.6885 58.7339 92.523 58.7339 92.3541 58.0342C92.1852 57.3345 93.4138 57.2082 93.4138 57.2082C93.4138 57.2082 92.3466 57.2546 92.4487 56.6236C92.5731 55.8664 94.5478 56.0037 95.4944 55.6325C95.7097 55.549 99.7279 53.6169 99.7279 53.6169L101.892 58.1567Z" fill="#EB9481"/>
<path d="M93.3099 57.2212C94.7631 57.3196 95.4165 57.1117 96.6767 56.4287C96.7008 56.4157 96.7268 56.4491 96.7027 56.4659C95.5278 57.2454 94.7483 57.6259 93.3025 57.2918C93.2301 57.2751 93.2394 57.2175 93.3099 57.2212Z" fill="#263238"/>
<path d="M93.5735 58.7227C95.0917 58.693 95.8007 58.474 97.1741 57.856C97.1927 57.856 97.2093 57.8801 97.1908 57.8894C95.8916 58.6077 95.1065 58.9696 93.5864 58.8007C93.5178 58.7877 93.4955 58.7246 93.5735 58.7227Z" fill="#263238"/>
<path d="M94.1544 60.3096C95.6225 60.1741 96.4113 59.9663 97.6678 59.196C97.6737 59.1921 97.6809 59.1907 97.6879 59.192C97.6948 59.1934 97.701 59.1975 97.7049 59.2034C97.7088 59.2094 97.7103 59.2166 97.7089 59.2235C97.7075 59.2305 97.7034 59.2366 97.6975 59.2406C96.4929 60.15 95.5111 60.4173 94.1711 60.3542C94.0727 60.3486 94.0634 60.317 94.1544 60.3096Z" fill="#263238"/>
<path d="M100.227 52.572C100.227 52.572 98.4157 52.3474 97.5991 52.4235C96.7825 52.4996 93.8426 53.9083 94.1098 54.5616C94.455 55.4024 96.3129 54.9328 97.1926 54.5709C97.1926 54.5709 97.9907 56.5197 99.3976 56.4659C100.804 56.412 100.227 52.572 100.227 52.572Z" fill="#EB9481"/>
<path d="M94.2806 54.762C95.151 55.3021 96.2739 54.762 97.1537 54.4855C97.1663 54.4807 97.1799 54.479 97.1933 54.4806C97.2068 54.4823 97.2196 54.4871 97.2307 54.4948C97.2419 54.5024 97.251 54.5127 97.2573 54.5247C97.2636 54.5366 97.2669 54.5499 97.2669 54.5635C97.6548 55.3578 98.4362 56.3656 99.3586 56.5085C99.3632 56.5099 99.3672 56.5127 99.3701 56.5166C99.373 56.5204 99.3745 56.5251 99.3745 56.5299C99.3745 56.5347 99.373 56.5393 99.3701 56.5432C99.3672 56.547 99.3632 56.5499 99.3586 56.5512C98.3471 56.5327 97.5026 55.6047 97.1314 54.7082C96.235 55.0089 95.0898 55.4989 94.2787 54.7695C94.2713 54.7658 94.275 54.7583 94.2806 54.762Z" fill="#263238"/>
<path d="M99.5331 52.301L103.111 57.9042C103.111 57.9042 108.627 54.3444 108.989 52.893C109.351 51.4416 109.658 45.3094 109.014 41.5473C108.369 37.7852 106.985 39.1753 106.333 41.5306C105.66 43.9657 103.9 49.9086 103.811 49.9661C103.722 50.0237 99.5331 52.301 99.5331 52.301Z" fill="#455A64"/>
<path d="M100.745 52.0411C100.734 52.0244 100.764 52.0059 100.777 52.0226C101.888 53.5296 102.918 55.0959 103.859 56.7145C103.859 56.7312 103.841 56.7498 103.828 56.7331C102.715 55.2265 101.686 53.6602 100.745 52.0411Z" fill="#263238"/>
<path opacity="0.1" d="M108.989 52.8856C108.737 53.9009 105.986 55.935 104.34 57.0765L107.579 39.2886C108.121 39.0065 108.676 39.5503 109.015 41.5399C109.658 45.302 109.351 51.4268 108.989 52.8856Z" fill="black"/>
<path d="M107.972 54.4577L120.111 52.3474C120.229 52.083 120.293 51.7975 120.298 51.508C120.303 51.2184 120.25 50.9308 120.142 50.6621C118.657 47.3213 113.997 39.3535 110.541 38.3365C109.799 38.1174 108.063 38.4775 107.653 39.3535C106.645 41.5028 106.64 50.4097 107.117 53.5093C107.202 54.1217 107.93 54.4354 107.972 54.4577Z" fill="#455A64"/>
<path d="M108.475 41.0165C109.175 40.9478 109.945 39.58 110.109 38.6278C110.12 38.5629 109.838 38.0135 109.526 37.3286C109.34 36.9129 109.14 36.4452 108.988 36.0053L106.46 37.6293C106.805 38.1256 107.089 38.6622 107.304 39.2273C107.325 39.2875 107.339 39.3497 107.347 39.4129C107.346 39.4234 107.346 39.434 107.347 39.4445C107.415 39.799 107.8 41.0833 108.475 41.0165Z" fill="#EB9481"/>
<path d="M106.458 37.6293C106.804 38.1259 107.089 38.6632 107.304 39.2292C107.325 39.2893 107.339 39.3515 107.347 39.4148C107.346 39.4246 107.346 39.4346 107.347 39.4445C107.446 39.4268 107.543 39.3995 107.636 39.3628C109.229 38.7763 108.999 36.6345 108.908 36.061L106.458 37.6293Z" fill="#263238"/>
<path d="M107.926 32.4956C108.624 33.3215 109.297 36.2837 108.884 37.1857C108.284 38.4849 106.716 39.2644 105.456 38.4107C104.236 37.581 103.425 33.7057 103.943 32.826C104.704 31.5305 106.896 31.2762 107.926 32.4956Z" fill="#EB9481"/>
<path opacity="0.2" d="M107.935 33.9321C108.163 34.1883 108.663 34.8026 108.82 34.8008C108.598 33.7762 108.28 32.8872 107.841 32.4306C107.659 32.2413 107.444 32.0872 107.206 31.9759C107.28 32.2469 107.696 33.6649 107.935 33.9321Z" fill="#263238"/>
<path d="M104.817 33.483C104.952 33.5953 105.114 33.6713 105.287 33.7038C105.459 33.7363 105.638 33.7242 105.804 33.6686C105.973 33.6106 106.124 33.5107 106.244 33.3782C106.363 33.2458 106.447 33.0851 106.487 32.9114C106.487 32.9002 106.506 32.9114 106.504 32.9114C106.477 33.0984 106.399 33.2744 106.279 33.4208C106.16 33.5672 106.003 33.6785 105.825 33.7428C105.647 33.7961 105.457 33.8014 105.276 33.7584C105.095 33.7154 104.928 33.6256 104.793 33.4978C104.791 33.4946 104.79 33.4908 104.791 33.4871C104.792 33.4835 104.794 33.4803 104.798 33.4784C104.801 33.4764 104.805 33.4758 104.808 33.4766C104.812 33.4775 104.815 33.4798 104.817 33.483Z" fill="#263238"/>
<path d="M105.433 30.7937C105.702 30.7479 105.978 30.7704 106.235 30.8593C106.493 30.9482 106.724 31.1005 106.907 31.3022C107.066 31.5096 107.15 31.7648 107.145 32.0261C107.145 32.0261 107.124 32.0372 107.122 32.0261C107.096 31.7998 107.009 31.5849 106.871 31.4039C106.733 31.2229 106.548 31.0826 106.337 30.9978C106.105 30.8969 105.853 30.851 105.601 30.8639C105.348 30.8768 105.102 30.948 104.882 31.0721C104.666 31.1883 104.499 31.377 104.409 31.6047C104.409 31.6289 104.355 31.6233 104.361 31.6047C104.457 31.2038 104.899 30.8735 105.433 30.7937Z" fill="#263238"/>
<path d="M102.234 32.6571C102.28 32.3497 102.434 32.0689 102.668 31.8645C102.991 31.5787 103.41 31.5416 103.817 31.5119C103.819 31.5119 103.822 31.5129 103.823 31.5146C103.825 31.5164 103.826 31.5187 103.826 31.5212C103.826 31.5236 103.825 31.526 103.823 31.5277C103.822 31.5295 103.819 31.5305 103.817 31.5305C103.464 31.5289 103.119 31.6288 102.822 31.8181C102.582 31.9965 102.411 32.2522 102.337 32.542C102.271 32.8382 102.313 33.1484 102.457 33.4159C102.6 33.6835 102.835 33.8904 103.119 33.9989C103.284 34.0567 103.459 34.0802 103.633 34.0681C103.807 34.056 103.977 34.0085 104.132 33.9284C104.145 33.9284 104.158 33.9395 104.145 33.9451C103.868 34.0997 103.543 34.1473 103.233 34.0789C102.923 34.0105 102.649 33.8309 102.462 33.5739C102.275 33.3071 102.193 32.9804 102.234 32.6571Z" fill="#263238"/>
<path d="M108.343 33.251C108.343 33.251 108.715 32.0984 108.141 31.5806C107.816 31.2818 106.946 31.4822 106.946 31.4822C106.649 31.1747 106.243 30.9972 105.816 30.9885C105.051 30.9514 104.253 31.5342 104.253 31.5342C104.253 31.5342 103.484 31.2576 102.898 31.7476C102.078 32.4306 102.438 33.7892 103.434 34.0825C104.134 34.2829 104.908 33.5572 104.908 33.5572C104.993 33.5572 105.947 33.9284 106.463 33.0357C106.463 33.0357 107.076 33.4069 107.492 33.0004C107.591 33.1237 107.726 33.2137 107.878 33.2585C108.031 33.3032 108.193 33.3006 108.343 33.251Z" fill="#263238"/>
<path d="M108.26 35.1979C108.26 35.1979 108.529 34.0491 109.019 34.1029C109.509 34.1567 109.576 35.6508 109.166 36.0202C109.117 36.0711 109.058 36.1116 108.993 36.1393C108.928 36.1669 108.859 36.1812 108.788 36.1812C108.717 36.1812 108.648 36.1669 108.583 36.1393C108.518 36.1116 108.459 36.0711 108.41 36.0202L108.26 35.1979Z" fill="#EB9481"/>
<path d="M109.025 34.5354V34.5465C108.744 34.8175 108.694 35.1998 108.702 35.571C108.707 35.5295 108.722 35.4898 108.745 35.4545C108.767 35.4193 108.797 35.3894 108.833 35.3669C108.868 35.3445 108.908 35.33 108.949 35.3246C108.991 35.3191 109.033 35.3228 109.073 35.3353C109.084 35.3353 109.073 35.3557 109.073 35.3576C109.007 35.3625 108.944 35.3878 108.893 35.4301C108.841 35.4723 108.805 35.5293 108.787 35.5933C108.758 35.7013 108.742 35.812 108.737 35.9237C108.737 35.9589 108.672 35.9663 108.67 35.9237C108.494 35.4949 108.585 34.7637 109.025 34.5354Z" fill="#263238"/>
<path d="M111.974 39.0603C115.842 42.2619 119.327 47.3417 119.329 50.3392C119.329 52.674 117.163 51.4045 116.731 51.0927C115.324 50.0626 112.395 44.8287 111.187 41.4415C110.094 38.3531 111.018 38.2678 111.974 39.0603Z" fill="#455A64"/>
<path d="M115.649 50.5861C115.452 50.2149 115.248 49.8325 115.057 49.452L114.468 48.318C114.082 47.5589 113.689 46.8035 113.314 46.0389C112.939 45.2742 112.551 44.5151 112.182 43.7485C111.994 43.3662 111.812 42.9814 111.636 42.5941C111.45 42.2099 111.289 41.8183 111.118 41.4248C111.38 42.2379 111.687 43.036 112.037 43.8154C112.378 44.5986 112.751 45.3651 113.128 46.1317C113.505 46.8982 113.911 47.6517 114.331 48.3941C114.75 49.1365 115.177 49.8789 115.649 50.5861Z" fill="#263238"/>
<path d="M111.514 42.4289C111.443 42.2932 111.365 42.1619 111.28 42.0354C111.235 41.9742 111.196 41.9111 111.15 41.8498C111.103 41.7886 111.063 41.7273 111.011 41.6642C111.043 41.8176 111.106 41.9627 111.196 42.0911C111.281 42.2216 111.389 42.336 111.514 42.4289Z" fill="#263238"/>
<path d="M108.848 48.1844C109.184 48.2657 109.536 48.2432 109.858 48.1199C110.18 47.9966 110.457 47.7783 110.652 47.4939C111.059 46.8907 111.024 46.1223 110.907 45.4412C110.734 44.4334 110.446 43.4534 110.535 42.4196C110.606 41.564 110.849 40.6175 110.435 39.8045C110.435 39.8045 110.435 39.7915 110.435 39.786C110.235 39.0436 109.392 38.7485 108.709 38.9916C107.857 39.2923 107.447 40.1757 107.271 40.9998C106.892 42.867 106.965 44.7977 107.484 46.6309C107.675 47.3455 108.087 47.995 108.848 48.1844Z" fill="#EE553F"/>
<path opacity="0.3" d="M108.848 48.1844C109.184 48.2657 109.536 48.2432 109.858 48.1199C110.18 47.9966 110.457 47.7783 110.652 47.4939C111.059 46.8907 111.024 46.1223 110.907 45.4412C110.734 44.4334 110.446 43.4534 110.535 42.4196C110.606 41.564 110.849 40.6175 110.435 39.8045C110.435 39.8045 110.435 39.7915 110.435 39.786C110.235 39.0436 109.392 38.7485 108.709 38.9916C107.857 39.2923 107.447 40.1757 107.271 40.9998C106.892 42.867 106.965 44.7977 107.484 46.6309C107.675 47.3455 108.087 47.995 108.848 48.1844Z" fill="black"/>
<g opacity="0.1">
<path d="M110.042 42.4957C110.073 41.345 109.999 40.3001 109.544 39.2292C109.543 39.2256 109.543 39.2217 109.545 39.2182C109.546 39.2147 109.548 39.2118 109.552 39.2099C109.555 39.2079 109.559 39.2072 109.562 39.2076C109.566 39.2081 109.57 39.2098 109.572 39.2125C110.786 40.8829 109.862 43.279 110.264 45.1517C110.264 45.1721 110.233 45.1832 110.227 45.1609C109.995 44.2831 110.014 43.3977 110.042 42.4957Z" fill="black"/>
<path d="M109.851 47.6146C110.22 46.9928 110.38 46.2686 110.307 45.5489C110.307 45.5359 110.322 45.534 110.326 45.5489C110.418 45.9086 110.429 46.2846 110.355 46.6488C110.282 47.013 110.127 47.3559 109.903 47.6517C109.882 47.6721 109.828 47.6517 109.851 47.6146Z" fill="black"/>
<path d="M107.631 45.7623C107.452 44.8633 107.39 43.9451 107.445 43.0303C107.486 41.8703 107.581 39.7006 108.859 39.1457C108.871 39.1457 108.88 39.1587 108.871 39.1642C107.69 39.9345 107.622 41.7849 107.571 43.0507C107.523 44.58 107.571 46.4602 108.551 47.7315C108.574 47.7594 108.535 47.8002 108.507 47.7761C107.983 47.2805 107.787 46.4453 107.631 45.7623Z" fill="black"/>
<path d="M108.668 43.4219C108.618 42.0317 108.596 40.4523 109.164 39.1531C108.921 39.8584 108.884 40.6379 108.833 41.3803C108.78 42.1413 108.772 42.9049 108.809 43.6669C108.886 45.0904 109.103 46.5029 109.457 47.8837C109.47 47.9357 109.42 47.9375 109.403 47.8837C108.963 46.4354 108.715 44.9351 108.668 43.4219Z" fill="black"/>
<path d="M108.26 44.0399C108.26 44.0047 108.314 43.9954 108.316 44.0399C108.381 45.0875 108.568 46.124 108.872 47.1283C108.875 47.1345 108.875 47.1413 108.872 47.1474C108.87 47.1535 108.865 47.1583 108.859 47.1608C108.852 47.1633 108.845 47.1632 108.839 47.1606C108.833 47.158 108.829 47.153 108.826 47.1469C108.343 46.1873 108.258 45.0886 108.26 44.0399Z" fill="black"/>
</g>
<path d="M110.238 49.3221C110.559 49.4498 110.911 49.4769 111.248 49.3996C111.584 49.3224 111.889 49.1445 112.122 48.8896C112.607 48.3514 112.679 47.5904 112.661 46.8944C112.631 45.8718 112.475 44.8528 112.711 43.8506C112.896 43.0117 113.267 42.1078 112.978 41.2522C112.978 41.2522 112.978 41.2392 112.978 41.2318C112.883 40.4783 112.091 40.0588 111.38 40.2036C110.495 40.3892 109.966 41.2002 109.676 41.9909C109.039 43.7863 108.84 45.7082 109.097 47.596C109.194 48.318 109.513 49.0177 110.238 49.3221Z" fill="#EE553F"/>
<path opacity="0.4" d="M110.238 49.3221C110.559 49.4498 110.911 49.4769 111.248 49.3996C111.584 49.3224 111.889 49.1445 112.122 48.8896C112.607 48.3514 112.679 47.5904 112.661 46.8944C112.631 45.8718 112.475 44.8528 112.711 43.8506C112.896 43.0117 113.267 42.1078 112.978 41.2522C112.978 41.2522 112.978 41.2392 112.978 41.2318C112.883 40.4783 112.091 40.0588 111.38 40.2036C110.495 40.3892 109.966 41.2002 109.676 41.9909C109.039 43.7863 108.84 45.7082 109.097 47.596C109.194 48.318 109.513 49.0177 110.238 49.3221Z" fill="black"/>
<g opacity="0.1">
<path d="M112.215 43.8469C112.401 42.7129 112.482 41.6661 112.182 40.5432C112.181 40.5395 112.182 40.5358 112.183 40.5325C112.185 40.5292 112.188 40.5266 112.191 40.5251C112.195 40.5236 112.199 40.5233 112.202 40.5242C112.206 40.5252 112.209 40.5273 112.211 40.5302C113.18 42.3473 111.929 44.5967 112.067 46.5084C112.067 46.5138 112.064 46.519 112.061 46.5228C112.057 46.5267 112.052 46.5288 112.046 46.5288C112.041 46.5288 112.036 46.5267 112.032 46.5228C112.028 46.519 112.026 46.5138 112.026 46.5084C111.922 45.6101 112.065 44.7359 112.215 43.8469Z" fill="black"/>
<path d="M111.313 48.8897C111.765 48.3256 112.026 47.6317 112.055 46.9093C112.055 46.8963 112.072 46.8982 112.074 46.9093C112.115 47.2778 112.072 47.6509 111.949 48.0006C111.826 48.3503 111.625 48.6676 111.361 48.9286C111.334 48.9509 111.289 48.9175 111.313 48.8897Z" fill="black"/>
<path d="M109.372 46.7441C109.32 45.8292 109.388 44.9115 109.572 44.0139C109.773 42.8707 110.172 40.7344 111.514 40.3651C111.527 40.3651 111.534 40.3799 111.514 40.3855C110.238 40.9831 109.91 42.7983 109.693 44.0511C109.431 45.56 109.218 47.4271 110.008 48.8228C110.025 48.8544 109.98 48.8897 109.956 48.8618C109.509 48.3013 109.431 47.442 109.372 46.7441Z" fill="black"/>
<path d="M110.727 44.5726C110.871 43.188 111.072 41.6197 111.816 40.4189C111.476 41.0815 111.33 41.8517 111.178 42.5774C111.017 43.3227 110.902 44.077 110.832 44.8361C110.706 46.2569 110.719 47.6867 110.871 49.1049C110.871 49.1588 110.827 49.1532 110.819 49.1049C110.588 47.6049 110.557 46.0808 110.727 44.5726Z" fill="black"/>
<path d="M110.237 45.1257C110.237 45.0923 110.294 45.0904 110.292 45.1257C110.208 46.1715 110.247 47.2236 110.407 48.2605C110.408 48.2666 110.406 48.2728 110.402 48.2777C110.398 48.2827 110.393 48.2861 110.387 48.2875C110.381 48.2888 110.375 48.2879 110.369 48.285C110.364 48.2821 110.36 48.2774 110.357 48.2716C110.014 47.2638 110.088 46.1669 110.237 45.1257Z" fill="black"/>
</g>
<path d="M103.178 42.9913C103.575 43.1249 105.127 43.6984 104.767 44.1643C104.735 44.207 104.479 44.2496 104.431 44.2849C104.099 44.5058 104.208 44.8844 104.481 45.1071C105.051 45.573 105.907 45.714 106.469 46.1836C107.796 47.2972 108.325 48.1046 108.325 48.1083C108.325 48.112 108.412 48.2363 108.431 48.1695C108.522 47.854 108.026 44.9364 107.688 43.7671C107.588 43.4274 107.391 42.8391 106.961 42.7927C106.59 42.7481 106.614 43.0859 106.552 43.3495C106.168 43.0971 105.892 42.3751 105.676 42.0187C105.453 41.6279 105.192 41.2599 104.897 40.92C104.572 40.5562 103.889 39.8565 103.332 40.0421C102.92 40.1757 103.464 40.8457 103.082 41.0146C102.989 41.0555 102.737 40.9385 102.573 40.9088C102.51 40.8977 101.469 40.4486 101.168 40.9088C100.428 42.041 102.479 42.7556 103.178 42.9913Z" fill="#37474F"/>
<path d="M112.055 53.5909C112.557 53.3385 115.025 52.2193 115.109 52.1154C115.192 52.0115 113.752 48.1491 113.711 47.8188C113.67 47.4884 113.349 42.982 113.364 42.9096C113.379 42.8373 113.188 43.1138 113.178 43.1119C113.169 43.1101 113.048 42.8243 113.028 42.8076C113.008 42.7909 112.902 43.0414 112.881 43.0525C112.861 43.0637 112.753 42.7964 112.724 42.7909C112.694 42.7853 112.538 43.0544 112.538 43.0581C112.538 43.0618 112.276 42.7296 112.239 42.75C112.202 42.7704 112.1 43.0191 112.072 43.0303C112.044 43.0414 111.952 42.7797 111.92 42.7686C111.888 42.7574 111.822 42.9876 111.794 43.0006C111.766 43.0136 111.608 42.815 111.582 42.7909C111.556 42.7667 111.443 43.0061 111.415 43.0191C111.387 43.0321 111.25 42.7797 111.207 42.776C111.165 42.7723 111.074 43.0191 111.05 43.0173C111.025 43.0154 110.864 42.8707 110.814 42.8632C110.764 42.8558 110.697 43.0711 110.678 43.1008C110.66 43.1305 110.443 42.943 110.415 42.9505C110.387 42.9579 110.363 43.1658 110.342 43.175C110.322 43.1843 110.17 43.034 110.157 43.0396C110.144 43.0451 110.157 43.2641 110.144 43.2734C110.131 43.2827 109.997 43.1212 109.977 43.1119C109.938 43.2281 109.908 43.3473 109.888 43.4683C109.888 43.4683 110.697 48.4517 110.816 49.0047C110.934 49.5578 112.055 53.5909 112.055 53.5909Z" fill="#EE553F"/>
<path opacity="0.1" d="M112.055 53.5909C112.557 53.3385 115.025 52.2193 115.109 52.1154C115.192 52.0115 113.752 48.1491 113.711 47.8188C113.67 47.4884 113.349 42.982 113.364 42.9096C113.379 42.8373 113.188 43.1138 113.178 43.1119C113.169 43.1101 113.048 42.8243 113.028 42.8076C113.008 42.7909 112.902 43.0414 112.881 43.0525C112.861 43.0637 112.753 42.7964 112.724 42.7909C112.694 42.7853 112.538 43.0544 112.538 43.0581C112.538 43.0618 112.276 42.7296 112.239 42.75C112.202 42.7704 112.1 43.0191 112.072 43.0303C112.044 43.0414 111.952 42.7797 111.92 42.7686C111.888 42.7574 111.822 42.9876 111.794 43.0006C111.766 43.0136 111.608 42.815 111.582 42.7909C111.556 42.7667 111.443 43.0061 111.415 43.0191C111.387 43.0321 111.25 42.7797 111.207 42.776C111.165 42.7723 111.074 43.0191 111.05 43.0173C111.025 43.0154 110.864 42.8707 110.814 42.8632C110.764 42.8558 110.697 43.0711 110.678 43.1008C110.66 43.1305 110.443 42.943 110.415 42.9505C110.387 42.9579 110.363 43.1658 110.342 43.175C110.322 43.1843 110.17 43.034 110.157 43.0396C110.144 43.0451 110.157 43.2641 110.144 43.2734C110.131 43.2827 109.997 43.1212 109.977 43.1119C109.938 43.2281 109.908 43.3473 109.888 43.4683C109.888 43.4683 110.697 48.4517 110.816 49.0047C110.934 49.5578 112.055 53.5909 112.055 53.5909Z" fill="black"/>
<path d="M109.843 43.3476C109.828 43.5666 111.09 49.9643 111.328 50.6436C111.566 51.3229 112.139 53.5297 112.055 53.5909C111.972 53.6521 107.003 54.3333 106.916 54.3834C106.829 54.4335 105.495 48.7245 105.391 48.3718C105.287 48.0192 104.108 44.6394 104.108 44.6394C104.233 44.7143 104.365 44.7764 104.502 44.825C104.546 44.8157 104.657 44.6116 104.698 44.5113C104.739 44.4111 104.871 44.6969 104.921 44.7118C104.971 44.7266 105.095 44.4427 105.14 44.3944C105.185 44.3462 105.376 44.5652 105.4 44.5689C105.424 44.5726 105.48 44.2626 105.537 44.2404C105.595 44.2181 105.767 44.4575 105.827 44.4445C105.886 44.4315 105.942 44.0993 105.988 44.0882C106.035 44.077 106.307 44.3053 106.345 44.2961C106.382 44.2868 106.447 43.9249 106.499 43.9063C106.551 43.8877 106.792 44.1865 106.844 44.1754C106.896 44.1643 106.938 43.7411 107.005 43.7541C107.072 43.7671 107.287 44.0492 107.313 44.0251C107.339 44.0009 107.436 43.7151 107.467 43.6817C107.499 43.6483 107.742 43.9193 107.764 43.9137C107.787 43.9081 107.874 43.5221 107.896 43.5165C107.918 43.511 108.249 43.8339 108.267 43.8098C108.286 43.7857 108.377 43.4182 108.405 43.4015C108.433 43.3848 108.626 43.6576 108.65 43.652C108.691 43.5448 108.725 43.4351 108.752 43.3235C108.752 43.3124 108.937 43.5444 108.937 43.5407C108.937 43.5369 108.988 43.2957 109.006 43.2882C109.025 43.2808 109.14 43.4738 109.162 43.4738C109.184 43.4738 109.236 43.2233 109.259 43.2047C109.281 43.1862 109.396 43.407 109.418 43.4033C109.44 43.3996 109.567 43.1713 109.581 43.1695C109.596 43.1676 109.641 43.3087 109.658 43.3124C109.674 43.3161 109.817 43.1472 109.843 43.1472C109.869 43.1472 109.843 43.3476 109.843 43.3476Z" fill="#EE553F"/>
<path d="M118.923 51.4881C117.898 52.3455 115.953 52.3492 110.673 51.9762C109.941 51.9242 108.921 46.668 109.704 46.6829C110.689 46.7014 114.515 46.9891 114.791 47.0541C117.121 47.5218 119.609 50.9071 118.923 51.4881Z" fill="#EB9481"/>
<path d="M111.432 46.5771L113.266 52.674C113.266 52.674 118.791 52.6072 119.051 51.2876C119.286 50.0886 117.009 47.6183 115.339 47.0726C114.643 46.8444 111.432 46.5771 111.432 46.5771Z" fill="#455A64"/>
<path d="M111.499 46.7794L111.449 46.5734L111.437 46.5864C111.983 46.6569 112.531 46.7219 113.076 46.7961C113.622 46.8703 114.166 46.9409 114.704 47.0429C114.973 47.0873 115.238 47.1493 115.498 47.2285C115.755 47.3166 116.003 47.4265 116.241 47.5571C116.719 47.8258 117.151 48.1692 117.521 48.5741C117.189 48.1282 116.775 47.7502 116.3 47.4605C116.061 47.3141 115.808 47.194 115.543 47.1023C115.278 47.0156 115.008 46.9474 114.734 46.8982C114.188 46.7998 113.639 46.7311 113.089 46.6755C112.54 46.6198 111.991 46.5864 111.439 46.5715H111.423V46.5845L111.499 46.7794Z" fill="#263238"/>
<path d="M113.082 47.3417C113.154 47.6517 113.253 47.9579 113.344 48.2697C113.434 48.5816 113.529 48.8822 113.626 49.1848C113.822 49.7917 114.021 50.3986 114.229 51.0018C114.285 51.167 114.342 51.3322 114.401 51.4955C114.461 51.6588 114.55 51.8388 114.613 52.0152C114.613 52.03 114.639 52.0152 114.633 52.0152C114.589 51.8648 114.565 51.7089 114.522 51.5586C114.479 51.4082 114.431 51.2449 114.383 51.0909C114.289 50.7865 114.193 50.4821 114.095 50.1777C113.91 49.5708 113.702 48.9639 113.486 48.3625C113.366 48.0229 113.253 47.6777 113.115 47.3455C113.116 47.341 113.114 47.3366 113.112 47.3331C113.109 47.3296 113.105 47.3274 113.1 47.3269C113.096 47.3264 113.092 47.3277 113.088 47.3305C113.085 47.3333 113.082 47.3373 113.082 47.3417Z" fill="#263238"/>
<path d="M104.099 47.3956C104.054 47.5533 104.059 47.7208 104.113 47.8757C104.166 48.0307 104.265 48.1655 104.398 48.2623C104.184 48.4415 104.04 48.6897 103.991 48.9639C103.928 49.4502 104.663 49.762 104.663 49.762C104.482 49.9944 104.374 50.2754 104.353 50.5693C104.34 51.0408 105.036 51.4621 105.036 51.4621C104.988 51.7673 105.049 52.0799 105.211 52.3437C105.673 53.0285 106.935 52.9858 107.737 52.9673C108.538 52.9487 110.797 52.1414 111.243 52.0393L111.163 46.8889C111.163 46.8889 107.542 45.9609 106.601 46.1075C105.81 46.2319 104.294 46.7998 104.099 47.3956Z" fill="#EB9481"/>
<path d="M104.431 48.1788C105.24 47.8373 106.101 47.7519 106.964 47.622C106.983 47.622 106.989 47.6498 106.964 47.6517C106.109 47.7761 105.294 48.0656 104.438 48.2234C104.433 48.2243 104.427 48.2229 104.422 48.2195C104.417 48.216 104.413 48.2107 104.412 48.2048C104.412 48.1989 104.413 48.1928 104.416 48.188C104.42 48.1831 104.425 48.1798 104.431 48.1788Z" fill="#263238"/>
<path d="M104.678 49.6933C104.869 49.6327 105.068 49.5977 105.268 49.5894C105.48 49.5671 105.689 49.5485 105.901 49.5337C106.326 49.504 106.749 49.4836 107.174 49.4743C107.193 49.4743 107.198 49.504 107.174 49.504C106.753 49.5356 106.332 49.5727 105.91 49.6209L105.281 49.6989C105.084 49.7383 104.884 49.7557 104.683 49.7508C104.657 49.749 104.65 49.7044 104.678 49.6933Z" fill="#263238"/>
<path d="M105.055 51.4602C105.228 51.4087 105.409 51.3867 105.589 51.3953L106.168 51.3637C106.554 51.3396 106.94 51.3155 107.326 51.2783C107.345 51.2783 107.351 51.3062 107.326 51.308C106.937 51.347 106.545 51.3934 106.153 51.4287L105.576 51.4806C105.403 51.5122 105.225 51.5122 105.051 51.4806C105.05 51.4804 105.048 51.4799 105.047 51.4792C105.046 51.4784 105.045 51.4775 105.044 51.4763C105.044 51.4752 105.043 51.474 105.043 51.4726C105.042 51.4713 105.042 51.4699 105.043 51.4686C105.043 51.4672 105.043 51.466 105.044 51.4648C105.045 51.4637 105.046 51.4627 105.047 51.4619C105.048 51.4611 105.049 51.4606 105.051 51.4603C105.052 51.46 105.053 51.46 105.055 51.4602Z" fill="#263238"/>
<path d="M113.266 52.674C114.802 52.52 116.371 52.3975 117.863 51.9873C118.231 51.9051 118.578 51.7477 118.882 51.5252C119.403 50.9684 119.266 50.0701 119.177 49.3648C119.113 48.9815 119.021 48.6032 118.904 48.2326C119.222 48.9534 119.388 49.7316 119.394 50.5192C119.394 51.1855 119.129 51.7312 118.475 51.9669C116.818 52.5831 115.012 52.6425 113.266 52.674Z" fill="#263238"/>
<path d="M33.9513 60.9333C33.9513 60.9333 32.37 60.2725 32.1324 59.8995C31.8948 59.5264 30.8666 57.9655 30.5066 57.9043C29.1498 57.676 25.4471 57.8152 24.1962 58.4833C23.515 58.8545 24.2333 61.555 24.8569 62.1953C25.4805 62.8357 29.946 62.9619 30.668 62.8171C31.39 62.6723 31.9208 61.9299 31.9208 61.9299L33.697 62.4236L33.9513 60.9333Z" fill="#EE553F"/>
<path d="M34.3893 58.9399C34.3893 58.9399 33.1866 59.1144 32.9045 59.3668C32.6224 59.6192 31.7018 61.6367 31.7594 62.3364C31.8169 63.0361 32.5537 63.7525 32.5537 63.7525L34.3893 58.9399Z" fill="#EE553F"/>
<path opacity="0.1" d="M34.3893 58.9399C34.3893 58.9399 33.1866 59.1144 32.9045 59.3668C32.6224 59.6192 31.7018 61.6367 31.7594 62.3364C31.8169 63.0361 32.5537 63.7525 32.5537 63.7525L34.3893 58.9399Z" fill="black"/>
<path d="M93.0983 60.9333C93.0983 60.9333 94.6815 60.2725 94.919 59.8995C95.1566 59.5264 96.1848 57.9655 96.5449 57.9043C97.9016 57.676 101.604 57.8152 102.855 58.4833C103.536 58.8545 102.818 61.555 102.195 62.1953C101.571 62.8357 97.1054 62.9619 96.3834 62.8171C95.6614 62.6723 95.1288 61.9299 95.1288 61.9299L93.3526 62.4236L93.0983 60.9333Z" fill="#EE553F"/>
<path d="M92.6603 58.9399C92.6603 58.9399 93.863 59.1144 94.1544 59.3668C94.4458 59.6192 95.3571 61.6367 95.2995 62.3364C95.242 63.0361 94.5033 63.7525 94.5033 63.7525L92.6603 58.9399Z" fill="#EE553F"/>
<path opacity="0.1" d="M92.6603 58.9399C92.6603 58.9399 93.863 59.1144 94.1544 59.3668C94.4458 59.6192 95.3571 61.6367 95.2995 62.3364C95.242 63.0361 94.5033 63.7525 94.5033 63.7525L92.6603 58.9399Z" fill="black"/>
<path d="M34.1109 77.1361H26.9059C25.7527 77.1361 24.8179 78.071 24.8179 79.2241V98.7845C24.8179 99.9377 25.7527 100.873 26.9059 100.873H34.1109C35.2641 100.873 36.1989 99.9377 36.1989 98.7845V79.2241C36.1989 78.071 35.2641 77.1361 34.1109 77.1361Z" fill="#263238"/>
<path d="M28.58 70.2764C28.58 70.2764 25.9408 71.622 25.3209 72.8636C24.701 74.1053 25.3209 86.934 25.3209 87.9176C25.3209 88.9013 27.2326 95.3156 27.5964 95.9875C27.9601 96.6594 32.9788 97.4371 32.9788 97.4371L28.58 70.2764Z" fill="#EE553F"/>
<path opacity="0.1" d="M28.58 70.2764C28.58 70.2764 25.9408 71.622 25.3209 72.8636C24.701 74.1053 25.3209 86.934 25.3209 87.9176C25.3209 88.9013 27.2326 95.3156 27.5964 95.9875C27.9601 96.6594 32.9788 97.4371 32.9788 97.4371L28.58 70.2764Z" fill="black"/>
<path d="M92.9405 100.871H100.146C101.299 100.871 102.234 99.9358 102.234 98.7827V79.2223C102.234 78.0691 101.299 77.1343 100.146 77.1343H92.9405C91.7874 77.1343 90.8525 78.0691 90.8525 79.2223V98.7827C90.8525 99.9358 91.7874 100.871 92.9405 100.871Z" fill="#263238"/>
<path d="M98.4714 70.2764C98.4714 70.2764 101.111 71.622 101.731 72.8636C102.35 74.1053 101.731 86.934 101.731 87.9176C101.731 88.9013 99.8189 95.3156 99.4551 95.9875C99.0913 96.6594 94.0727 97.4371 94.0727 97.4371L98.4714 70.2764Z" fill="#EE553F"/>
<path opacity="0.1" d="M98.4714 70.2764C98.4714 70.2764 101.111 71.622 101.731 72.8636C102.35 74.1053 101.731 86.934 101.731 87.9176C101.731 88.9013 99.8189 95.3156 99.4551 95.9875C99.0913 96.6594 94.0727 97.4371 94.0727 97.4371L98.4714 70.2764Z" fill="black"/>
<path d="M99.4978 91.6166C99.4718 91.9526 98.3322 96.7652 97.8664 97.2552C97.4005 97.7452 88.089 98.1349 87.5192 98.1349C86.9494 98.1349 85.1676 97.1271 84.8317 97.0492C84.4957 96.9712 65.8095 97.0213 63.5267 97.0213C61.2438 97.0213 42.5539 96.9675 42.2216 97.0473C41.8894 97.1271 40.1002 98.1349 39.5304 98.1349C38.9606 98.1349 29.6509 97.747 29.1832 97.2552C28.7155 96.7633 27.5797 91.9526 27.5537 91.6166C27.5277 91.2807 27.8915 90.091 27.8915 89.8312C27.8915 89.5713 27.6131 71.5514 27.6892 71.2006C27.7652 70.8499 28.5039 68.4074 28.8362 67.884C29.1684 67.3606 32.1139 63.6356 32.1918 63.4017C34.0051 57.9599 39.0776 49.9977 39.8552 49.2961C40.5809 48.6506 41.476 48.2262 42.4351 48.073C43.2109 47.9784 53.7066 47.5905 63.5267 47.5905C73.3468 47.5905 83.8424 47.9784 84.6164 48.073C85.5759 48.2265 86.4716 48.6508 87.1981 49.2961C87.972 49.9958 93.0445 57.9581 94.8597 63.4017C94.9376 63.6356 97.8868 67.3606 98.2153 67.884C98.5438 68.4074 99.2825 70.8536 99.3586 71.2006C99.4347 71.5477 99.1619 89.5751 99.1619 89.8312C99.1619 90.0873 99.5238 91.2807 99.4978 91.6166Z" fill="#EE553F"/>
<path opacity="0.1" d="M97.239 88.4076C97.239 88.7194 96.8177 91.1341 96.5449 91.2009C89.0522 93.0662 71.0564 94.6308 63.5267 94.5083C55.995 94.6308 37.9992 93.0662 30.5066 91.2009C30.2337 91.1341 29.8143 88.7194 29.8143 88.4076C29.8143 88.0958 30.1242 84.6585 30.5066 84.5545C30.8889 84.4506 38.8159 85.876 45.4808 86.7613C51.466 87.5184 57.4937 87.8904 63.5267 87.8749C69.559 87.8903 75.586 87.5183 81.5707 86.7613C88.2337 85.876 96.1607 84.4506 96.5449 84.5545C96.9291 84.6585 97.239 88.0977 97.239 88.4076Z" fill="black"/>
<path opacity="0.5" d="M89.9171 85.5234L87.3707 92.7804C79.0632 93.8643 68.7643 94.5937 63.5285 94.5083C58.2927 94.5937 47.9975 93.8643 39.69 92.7804L37.138 85.5234C39.716 85.9299 42.706 86.392 45.49 86.7613C51.4747 87.5184 57.5018 87.8904 63.5341 87.8749C69.567 87.8903 75.5947 87.5184 81.58 86.7613C84.3454 86.392 87.341 85.9299 89.9171 85.5234Z" fill="white"/>
<path d="M81.5707 86.7613C81.6078 86.934 80.175 89.7811 79.0948 91.4737C78.7737 91.9786 77.2239 93.1441 76.8676 93.2202C76.5112 93.2963 72.042 94.5083 63.5304 94.5083C55.0188 94.5083 50.5551 93.2963 50.1913 93.2202C49.8275 93.1441 48.2815 91.9786 47.9641 91.4737C46.8839 89.7811 45.4511 86.934 45.4882 86.7613C45.5253 86.5887 50.8706 87.8749 63.5341 87.8749C76.1976 87.8749 81.5391 86.5887 81.5707 86.7613Z" fill="#263238"/>
<path d="M34.3839 89.8227C35.186 89.4904 35.567 88.5709 35.2347 87.7687C34.9025 86.9666 33.9829 86.5857 33.1807 86.918C32.3786 87.2502 31.9977 88.1698 32.33 88.9719C32.6622 89.774 33.5818 90.1549 34.3839 89.8227Z" fill="white"/>
<path d="M32.6707 87.2587C33.6581 86.2305 35.5066 86.9172 35.553 88.3723C35.561 88.6071 35.5207 88.841 35.4346 89.0596C35.3485 89.2781 35.2184 89.4766 35.0524 89.6428C34.8864 89.809 34.688 89.9393 34.4695 90.0257C34.2511 90.112 34.0172 90.1526 33.7824 90.1448C32.3273 90.0984 31.6424 88.248 32.6688 87.2606L32.6707 87.2587ZM32.6707 87.2587C32.5295 87.4015 32.4191 87.5718 32.3465 87.7589C32.2738 87.9461 32.2403 88.1462 32.2482 88.3469C32.256 88.5475 32.3049 88.7444 32.392 88.9253C32.479 89.1062 32.6023 89.2674 32.7542 89.3987C34.1425 90.5123 35.9279 88.7287 34.8106 87.3404C34.679 87.1889 34.5177 87.066 34.3367 86.9793C34.1557 86.8925 33.9589 86.8438 33.7583 86.8362C33.5578 86.8285 33.3578 86.8621 33.1707 86.9348C32.9836 87.0074 32.8135 87.1177 32.6707 87.2587Z" fill="#DBDBDB"/>
<path d="M93.6308 90.076C94.473 89.859 94.9797 89.0003 94.7627 88.1581C94.5456 87.316 93.687 86.8092 92.8448 87.0263C92.0026 87.2433 91.4959 88.102 91.713 88.9442C91.93 89.7863 92.7887 90.2931 93.6308 90.076Z" fill="white"/>
<path d="M94.2101 87.2587C94.0673 87.1177 93.8971 87.0074 93.71 86.9348C93.5229 86.8621 93.3229 86.8285 93.1224 86.8362C92.9218 86.8438 92.725 86.8925 92.544 86.9793C92.363 87.066 92.2017 87.1889 92.0701 87.3404C90.9565 88.7287 92.7401 90.516 94.1265 89.3987C94.2784 89.2674 94.4017 89.1062 94.4887 88.9253C94.5758 88.7444 94.6247 88.5475 94.6326 88.3468C94.6404 88.1462 94.6069 87.9461 94.5342 87.7589C94.4616 87.5718 94.3512 87.4015 94.2101 87.2587ZM94.2101 87.2587C95.2383 88.2461 94.5534 90.0966 93.0965 90.143C92.8617 90.1507 92.6278 90.1102 92.4094 90.0238C92.1909 89.9375 91.9925 89.8072 91.8265 89.641C91.6605 89.4748 91.5304 89.2763 91.4442 89.0577C91.3581 88.8392 91.3178 88.6053 91.3258 88.3705C91.3722 86.9172 93.2208 86.2305 94.2082 87.2569L94.2101 87.2587Z" fill="#DBDBDB"/>
<path d="M93.4435 63.1382C93.4435 63.1382 79.4233 63.7525 63.5267 63.7525C47.63 63.7525 33.6079 63.1382 33.6079 63.1382C36.4773 55.9462 40.2301 50.3856 40.644 50.0756C41.0579 49.7657 42.5316 49.2219 42.9436 49.118C44.7068 48.6781 57.2998 48.6001 63.5267 48.6001C69.7535 48.6001 82.3428 48.6781 84.106 49.118C84.5199 49.2219 85.9954 49.7657 86.4093 50.0756C86.8232 50.3856 90.5742 55.9462 93.4435 63.1382Z" fill="#455A64"/>
<path d="M93.4435 63.1382C93.4435 63.1382 79.4233 63.7525 63.5267 63.7525C47.63 63.7525 33.6079 63.1382 33.6079 63.1382C33.8789 62.4626 34.1555 61.7981 34.4357 61.1541C37.6633 61.284 49.9055 61.7332 63.5267 61.7332C77.1478 61.7332 89.3882 61.284 92.6158 61.1541C92.896 61.7981 93.1726 62.4626 93.4435 63.1382Z" fill="#263238"/>
<g opacity="0.7">
<path d="M58.8922 57.2287H39.317C39.0463 57.2289 38.7845 57.3256 38.5787 57.5015C38.3729 57.6773 38.2365 57.9208 38.1941 58.1882L37.693 61.3434C37.6673 61.5049 37.6769 61.6701 37.7209 61.8276C37.765 61.9851 37.8425 62.1312 37.9482 62.256C38.054 62.3808 38.1854 62.4812 38.3336 62.5505C38.4817 62.6198 38.643 62.6563 38.8066 62.6575H59.3933C59.5577 62.6576 59.7201 62.6221 59.8693 62.5534C60.0186 62.4847 60.1512 62.3844 60.2579 62.2595C60.3647 62.1346 60.4431 61.988 60.4877 61.8298C60.5323 61.6717 60.542 61.5057 60.5162 61.3434L60.0151 58.1882C59.9727 57.9208 59.8364 57.6773 59.6305 57.5015C59.4247 57.3256 59.1629 57.2289 58.8922 57.2287Z" fill="#263238"/>
<path d="M55.325 53.5668H42.8842C42.4896 53.5668 42.1697 53.8867 42.1697 54.2813V57.7409C42.1697 58.1356 42.4896 58.4555 42.8842 58.4555H55.325C55.7196 58.4555 56.0395 58.1356 56.0395 57.7409V54.2813C56.0395 53.8867 55.7196 53.5668 55.325 53.5668Z" fill="#263238"/>
</g>
<g opacity="0.7">
<path d="M87.7419 57.2287H68.1592C67.8885 57.2289 67.6267 57.3256 67.4209 57.5015C67.2151 57.6773 67.0787 57.9208 67.0363 58.1882L66.5352 61.3434C66.5094 61.5057 66.5192 61.6717 66.5638 61.8298C66.6084 61.988 66.6867 62.1346 66.7935 62.2595C66.9003 62.3844 67.0328 62.4847 67.1821 62.5534C67.3314 62.6221 67.4938 62.6576 67.6581 62.6575H88.2356C88.3991 62.6563 88.5605 62.6198 88.7086 62.5505C88.8568 62.4812 88.9882 62.3808 89.0939 62.256C89.1997 62.1312 89.2772 61.9851 89.3213 61.8276C89.3653 61.6701 89.3748 61.5049 89.3492 61.3434L88.8481 58.1882C88.8061 57.9236 88.6722 57.6824 88.4699 57.5068C88.2675 57.3313 88.0097 57.2328 87.7419 57.2287Z" fill="#263238"/>
<path d="M84.1672 53.5668H71.7265C71.3318 53.5668 71.0119 53.8867 71.0119 54.2813V57.7409C71.0119 58.1356 71.3318 58.4555 71.7265 58.4555H84.1672C84.5619 58.4555 84.8818 58.1356 84.8818 57.7409V54.2813C84.8818 53.8867 84.5619 53.5668 84.1672 53.5668Z" fill="#263238"/>
</g>
<path d="M87.6472 62.4552H68.2465L70.1025 59.8141L77.9459 59.3965L85.7894 59.8141L87.6472 62.4552Z" fill="#263238"/>
<path d="M77.9459 55.7995C76.744 55.801 75.5918 56.2793 74.742 57.1293C73.8923 57.9794 73.4146 59.1318 73.4136 60.3338C73.4137 60.9472 73.5385 61.5542 73.7804 62.1179C74.0222 62.6817 74.376 63.1904 74.8204 63.6133L76.3869 63.5818C75.7753 63.288 75.2592 62.8274 74.898 62.2531C74.5368 61.6788 74.3452 61.0141 74.3453 60.3356C74.3446 59.8147 74.4569 59.2997 74.6745 58.8264C74.8921 58.3531 75.2099 57.9326 75.6058 57.5941C76.0018 57.2555 76.4664 57.0069 76.9678 56.8653C77.4692 56.7238 77.9953 56.6928 78.5098 56.7744C79.0243 56.856 79.515 57.0482 79.948 57.3379C80.381 57.6276 80.746 58.0077 81.0178 58.4522C81.2896 58.8966 81.4616 59.3948 81.5222 59.9122C81.5827 60.4296 81.5302 60.954 81.3684 61.4492C81.0823 62.3326 80.4667 63.0718 79.6497 63.5131L81.2199 63.4704C81.7683 62.9006 82.1568 62.1965 82.3465 61.4288C82.4341 61.0754 82.4777 60.7126 82.4764 60.3486C82.4779 59.7524 82.3618 59.1617 82.1349 58.6103C81.908 58.0589 81.5746 57.5577 81.1539 57.1352C80.7331 56.7128 80.2332 56.3774 79.6828 56.1482C79.1324 55.919 78.5422 55.8005 77.9459 55.7995Z" fill="#263238"/>
<path d="M78.0387 60.8646L74.6422 58.1715L75.2213 57.4402L78.0387 59.6749L80.858 57.4402L81.4371 58.1715L78.0387 60.8646Z" fill="#263238"/>
<g opacity="0.1">
<path d="M58.547 48.615L43.699 63.4723C42.3998 63.4388 41.2027 63.4036 40.1151 63.372L54.8387 48.6465C56.0878 48.6335 57.3443 48.6224 58.547 48.615Z" fill="white"/>
<path d="M86.8937 50.677L73.9017 63.669C72.6879 63.6857 71.4388 63.7024 70.1674 63.7154L84.609 49.2739C85.2196 49.4836 86.1049 49.8437 86.4111 50.0719C86.5897 50.2589 86.7512 50.4614 86.8937 50.677Z" fill="white"/>
<path d="M92.3819 60.6233L89.7222 63.2811C88.6476 63.3182 87.367 63.3609 85.9156 63.4017L91.1978 58.1195C91.5912 58.9139 91.9866 59.751 92.3819 60.6233Z" fill="white"/>
<path d="M53.6546 48.6614L38.9811 63.3349L38.4243 63.3182L53.0755 48.6688L53.6546 48.6614Z" fill="white"/>
<path d="M71.4091 48.641L56.3347 63.7117H55.7779L70.8523 48.6335C71.0379 48.6354 71.2235 48.6354 71.4091 48.641Z" fill="white"/>
<path d="M90.4943 56.7461L83.7682 63.4723L83.1854 63.489L90.2976 56.3749L90.4943 56.7461Z" fill="white"/>
<path d="M45.6311 48.8711L35.3526 59.1589C35.7776 58.2662 36.2045 57.418 36.6202 56.6255L44.2836 48.9509C44.6715 48.9231 45.1244 48.8952 45.6311 48.8711Z" fill="white"/>
<path d="M76.3665 48.7096L61.3329 63.7432H60.0726L75.1211 48.6874C75.5443 48.6929 75.96 48.7041 76.3665 48.7096Z" fill="white"/>
</g>
<path opacity="0.1" d="M33.6079 63.1382C32.9546 64.662 32.06 66.0874 31.1524 67.4701L31.0559 67.6167C31.0077 67.7763 31.1914 68.1067 31.2879 68.2774C31.4271 68.5262 31.5886 68.7637 31.7482 69.0087C31.3566 68.6988 30.449 67.9322 30.7645 67.3754C31.5534 65.8626 32.507 64.4416 33.6079 63.1382Z" fill="black"/>
<path opacity="0.1" d="M93.4435 63.1382C94.5444 64.442 95.4986 65.863 96.2888 67.3754C96.6043 67.9322 95.6948 68.6969 95.3032 69.0087C95.4628 68.7637 95.6262 68.5262 95.7635 68.2774C95.86 68.1086 96.0456 67.7763 95.9955 67.6167C95.9732 67.5796 95.9231 67.5072 95.899 67.4701C94.9914 66.0874 94.0968 64.6638 93.4435 63.1382Z" fill="black"/>
<path opacity="0.1" d="M98.8927 74.8699C98.8927 75.1985 98.8779 77.0842 98.6218 77.2382C97.9053 77.6669 94.7446 78.6673 92.7717 79.033C83.5399 80.7349 70.1285 81.6945 63.5267 81.585C56.9304 81.6945 43.5116 80.7349 34.2798 79.033C32.3087 78.6618 29.1461 77.6669 28.4297 77.2382C28.1736 77.0842 28.1587 75.1966 28.1587 74.8699C28.1587 74.5433 30.3544 70.1539 30.7571 70.0443C31.1599 69.9348 35.7238 72.5277 43.3612 73.903C51.1917 75.3117 63.5211 75.3488 63.5211 75.3488C63.5211 75.3488 75.8486 75.3117 83.6791 73.903C91.3165 72.5277 95.8749 70.1668 96.2832 70.2782C96.6915 70.3896 98.8927 74.5396 98.8927 74.8699Z" fill="black"/>
<path opacity="0.5" d="M98.6218 77.2382C95.9881 78.6432 93.0538 79.3763 90.1306 79.8793C87.2055 80.4188 84.2687 80.8741 81.3201 81.2453C75.4181 81.9877 69.4844 82.5816 63.5267 82.5724C53.8588 82.4907 44.2243 81.2824 34.7327 79.4543C32.5375 79.0095 30.4141 78.2644 28.4223 77.2401C30.457 78.1291 32.596 78.757 34.7884 79.1091C44.2985 80.4825 53.9052 81.5887 63.5192 81.6388C69.4325 81.6741 75.3438 81.108 81.2273 80.5252C84.1728 80.2078 87.1164 79.857 90.0489 79.4339C91.5114 79.2186 92.9851 79.0534 94.4142 78.6673C95.8433 78.2813 97.2725 77.8655 98.6143 77.2401L98.6218 77.2382Z" fill="white"/>
<path d="M32.4331 69.1702C34.0255 69.3168 41.5832 74.0106 41.8987 74.3967C42.2142 74.7827 42.9826 78.6655 42.5075 79.0367C42.0323 79.4079 36.3177 79.2223 34.5972 78.9476C32.8767 78.6729 29.3206 77.7059 28.5206 77.0916C27.7207 76.4772 28.335 72.1379 29.1201 71.2674C30.1409 70.1576 31.4197 69.0755 32.4331 69.1702Z" fill="white"/>
<path d="M32.4331 69.1702C32.8426 69.2522 33.2407 69.3831 33.6191 69.5599C34.7679 70.061 35.8667 70.6735 36.9599 71.2656C38.6006 72.1843 40.2468 73.103 41.8096 74.1591C42.0038 74.2954 42.1402 74.4992 42.1919 74.7307C42.3226 75.1331 42.4323 75.542 42.5204 75.9557C42.721 76.7822 42.833 77.6278 42.8545 78.478C42.8415 78.9643 42.7599 79.2872 42.2272 79.3522C40.863 79.5508 39.4859 79.4784 38.118 79.4524C36.8578 79.3912 35.5939 79.3503 34.3466 79.1276C32.4906 78.7564 30.6532 78.2553 28.9252 77.4776C28.7206 77.3851 28.5326 77.2597 28.3684 77.1064C27.9044 76.364 28.0696 75.4026 28.1235 74.5767C28.2886 73.4631 28.439 72.24 29.0849 71.2804C29.9646 70.3858 31.0856 69.1498 32.4257 69.1665L32.4331 69.1702ZM32.4331 69.1702C31.1506 69.1702 30.1688 70.2299 29.328 71.0818C29.0375 71.3803 28.8285 71.7484 28.7211 72.1509C28.48 72.9469 28.3293 73.7674 28.2719 74.5971C28.2099 75.212 28.2299 75.8324 28.3313 76.442C28.3981 76.7482 28.4872 76.9821 28.7712 77.1157C30.1688 77.7876 31.7092 78.1142 33.2108 78.4706C34.8255 78.8603 36.4866 78.929 38.1421 78.9903C38.9718 79.0237 39.8125 79.0422 40.6329 79.0311C41.2064 79.0088 41.8374 79.0404 42.3794 78.8882C42.4087 78.846 42.426 78.7966 42.4295 78.7453C42.5372 77.8562 42.3627 76.9282 42.2161 76.0225C42.1386 75.5172 42.0143 75.0201 41.8449 74.5377C41.8189 74.4653 41.7409 74.4226 41.6704 74.3521C40.1559 73.2552 38.5523 72.2753 36.9432 71.3138C35.87 70.6687 34.7622 70.0832 33.6246 69.5599C33.2483 69.3793 32.8512 69.2453 32.4424 69.1609L32.4331 69.1702Z" fill="#DBDBDB"/>
<path d="M36.3641 74.959C36.3845 76.841 34.0701 77.873 32.6781 76.5682C32.4605 76.3603 32.2873 76.1104 32.169 75.8336C32.0507 75.5569 31.9897 75.2591 31.9897 74.9581C31.9897 74.6572 32.0507 74.3593 32.169 74.0826C32.2873 73.8059 32.4605 73.556 32.6781 73.348C34.0701 72.0488 36.3901 73.0771 36.366 74.959H36.3641ZM36.3641 74.959C36.3752 73.1829 34.1369 72.3235 32.962 73.6339C32.6309 73.9961 32.4473 74.4692 32.4473 74.96C32.4473 75.4508 32.6309 75.9238 32.962 76.2861C34.1332 77.5983 36.3771 76.7352 36.366 74.959H36.3641Z" fill="#DBDBDB"/>
<path d="M40.5995 76.3362C40.631 77.9286 38.6284 78.8381 37.4443 77.7226C37.2551 77.5444 37.1044 77.3294 37.0014 77.0908C36.8984 76.8523 36.8453 76.5951 36.8453 76.3353C36.8453 76.0754 36.8984 75.8183 37.0014 75.5797C37.1044 75.3411 37.2551 75.1261 37.4443 74.9479C38.621 73.8343 40.6255 74.7437 40.5995 76.3362ZM40.5995 76.3362C40.5995 74.831 38.7194 74.122 37.7357 75.2337C36.8077 76.2081 37.4925 77.9064 38.8381 77.9825C39.0634 77.9963 39.2891 77.9641 39.5015 77.8878C39.7138 77.8115 39.9084 77.6926 40.0733 77.5385C40.2381 77.3844 40.3698 77.1983 40.4603 76.9916C40.5508 76.7849 40.5982 76.5618 40.5995 76.3362Z" fill="#DBDBDB"/>
<path d="M31.7464 73.0158C31.5032 73.7229 31.2434 77.1621 31.3752 77.6168C31.4839 77.8751 31.6358 78.113 31.8243 78.3202C30.3989 77.9342 28.9995 77.4572 28.5318 77.0971C27.7318 76.4828 28.3462 72.1435 29.1331 71.2749C30.1409 70.1613 31.4216 69.0737 32.4424 69.1702C32.8024 69.2036 33.4706 69.4708 34.2984 69.868C34.2891 69.868 31.9876 72.3087 31.7464 73.0158Z" fill="#EE553F"/>
<path opacity="0.2" d="M31.7464 73.0158C31.5032 73.7211 31.2434 77.1621 31.3752 77.6168C31.4839 77.8751 31.6358 78.113 31.8243 78.3203C30.3989 77.9342 28.9995 77.4572 28.5318 77.0971C27.7318 76.4828 28.3462 72.1435 29.1331 71.273C30.1409 70.1594 31.4216 69.0737 32.4424 69.1702C32.8024 69.2036 33.4706 69.469 34.2984 69.868C34.2891 69.868 31.9876 72.3087 31.7464 73.0158Z" fill="black"/>
<path d="M94.6091 69.1702C93.0185 69.3168 85.459 74.0106 85.1435 74.3967C84.828 74.7827 84.0596 78.6655 84.5366 79.0367C85.0136 79.4079 90.7245 79.2223 92.445 78.9476C94.1655 78.6729 97.7216 77.7059 98.5234 77.0916C99.3252 76.4772 98.709 72.1379 97.922 71.2674C96.9105 70.1576 95.6317 69.0755 94.6091 69.1702Z" fill="white"/>
<path d="M94.6091 69.1702C94.2002 69.2546 93.8032 69.3886 93.4268 69.5692C92.2893 70.0925 91.1814 70.678 90.1083 71.3231C88.501 72.2845 86.8955 73.2645 85.3811 74.3614C85.3105 74.4264 85.2326 74.4691 85.2084 74.547C85.035 75.0288 84.9076 75.526 84.828 76.0318C84.6813 76.9375 84.5069 77.8655 84.6145 78.7546C84.6275 78.8399 84.6702 78.9197 84.6665 78.8975C84.7373 78.9233 84.8108 78.9414 84.8855 78.9513C86.2107 79.1072 87.5656 79.0348 88.9019 78.9995C90.5574 78.9383 92.2186 78.8696 93.8333 78.4799C95.3348 78.1235 96.8753 77.7969 98.2728 77.125C98.5549 76.9914 98.644 76.7538 98.7127 76.4513C98.816 75.8418 98.836 75.2212 98.7721 74.6064C98.7157 73.7734 98.5644 72.9496 98.3211 72.1509C98.2129 71.7495 98.0032 71.3826 97.7123 71.0856C96.8734 70.2337 95.8897 69.172 94.6072 69.1739L94.6091 69.1702ZM94.6091 69.1702C95.9584 69.1516 97.0757 70.3896 97.9499 71.2842C98.5958 72.2437 98.7461 73.4575 98.9132 74.5804C98.9651 75.4119 99.1303 76.3585 98.6663 77.1101C98.5022 77.2634 98.3141 77.3888 98.1095 77.4813C96.3816 78.259 94.5404 78.7508 92.6881 79.1313C90.6075 79.4635 88.5028 79.5025 86.4019 79.4784C85.8682 79.4754 85.3354 79.4345 84.8076 79.3559C84.677 79.3375 84.551 79.2947 84.4364 79.2297C84.3753 79.1799 84.3246 79.1185 84.2874 79.0491C84.2501 78.9796 84.2269 78.9035 84.2192 78.8251C84.1078 77.8525 84.338 76.9023 84.5199 75.9594C84.6081 75.5457 84.7177 75.1368 84.8484 74.7345C84.9007 74.5031 85.0369 74.2995 85.2307 74.1628C86.7935 73.1067 88.4397 72.188 90.0804 71.2693C91.1792 70.6698 92.278 70.0648 93.4212 69.5636C93.7993 69.386 94.1975 69.2551 94.6072 69.1739L94.6091 69.1702Z" fill="#DBDBDB"/>
<path d="M90.6874 74.959C90.6762 76.7352 92.9146 77.5983 94.0913 76.2861C94.4224 75.9238 94.606 75.4508 94.606 74.96C94.606 74.4692 94.4224 73.9961 94.0913 73.6339C92.922 72.3235 90.6799 73.1828 90.6892 74.959H90.6874ZM90.6874 74.959C90.6669 73.0771 92.9832 72.0433 94.3752 73.348C94.5928 73.556 94.766 73.8059 94.8843 74.0826C95.0026 74.3593 95.0636 74.6572 95.0636 74.9581C95.0636 75.2591 95.0026 75.5569 94.8843 75.8336C94.766 76.1104 94.5928 76.3602 94.3752 76.5682C92.9851 77.8674 90.6632 76.841 90.6892 74.959H90.6874Z" fill="#DBDBDB"/>
<path d="M86.4594 76.3362C86.4607 76.5618 86.5081 76.7849 86.5986 76.9916C86.6891 77.1983 86.8208 77.3844 86.9856 77.5385C87.1505 77.6926 87.3451 77.8115 87.5574 77.8878C87.7698 77.9641 87.9955 77.9963 88.2207 77.9825C90.2438 77.782 90.2438 74.8922 88.2207 74.6918C87.9957 74.6779 87.7701 74.71 87.5579 74.7862C87.3456 74.8625 87.1511 74.9811 86.9863 75.135C86.8215 75.2889 86.6897 75.4748 86.5991 75.6813C86.5085 75.8879 86.461 76.1107 86.4594 76.3362ZM86.4594 76.3362C86.4278 74.7437 88.4323 73.8324 89.6146 74.9479C89.8037 75.1261 89.9545 75.3411 90.0575 75.5797C90.1605 75.8183 90.2136 76.0754 90.2136 76.3353C90.2136 76.5951 90.1605 76.8522 90.0575 77.0908C89.9545 77.3294 89.8037 77.5444 89.6146 77.7226C88.4379 78.8362 86.4353 77.9286 86.4594 76.3362Z" fill="#DBDBDB"/>
<path d="M95.3051 73.0158C95.5482 73.7229 95.8081 77.1621 95.6763 77.6168C95.5676 77.8751 95.4157 78.113 95.2271 78.3202C96.6525 77.9342 98.052 77.4572 98.5197 77.0971C99.3196 76.4828 98.7053 72.1435 97.9183 71.2749C96.9105 70.1613 95.6299 69.0737 94.6091 69.1702C94.2509 69.2036 93.5809 69.4708 92.7642 69.868C92.7661 69.868 95.0638 72.3087 95.3051 73.0158Z" fill="#EE553F"/>
<path opacity="0.2" d="M95.3051 73.0158C95.5482 73.7211 95.8081 77.1621 95.6763 77.6168C95.5676 77.8751 95.4157 78.113 95.2271 78.3203C96.6525 77.9342 98.052 77.4572 98.5197 77.0971C99.3196 76.4828 98.7053 72.1435 97.9183 71.273C96.9105 70.1594 95.6299 69.0737 94.6091 69.1702C94.2509 69.2036 93.5809 69.469 92.7642 69.868C92.7661 69.868 95.0638 72.3087 95.3051 73.0158Z" fill="black"/>
<path d="M83.6847 73.9011C83.7255 74.0737 81.8046 78.2033 81.4575 78.71C81.1104 79.2167 79.4419 80.0872 79.0447 80.1633C78.6475 80.2394 72.6842 81.4513 63.523 81.4513C54.3617 81.4513 48.3873 80.2412 47.9975 80.1633C47.6077 80.0853 45.9411 79.2148 45.594 78.71C45.2469 78.2052 43.3222 74.07 43.3668 73.9011C43.4113 73.7322 49.1464 74.8477 52.619 74.9832C54.3265 75.0518 59.681 75.3544 63.5267 75.3544C67.3723 75.3544 72.725 75.0593 74.4325 74.9832C77.9051 74.8477 83.6476 73.7285 83.6847 73.9011Z" fill="#37474F"/>
<path d="M47.1437 74.3911C47.927 74.5025 48.764 74.6194 49.5955 74.7178H43.6786C43.6248 74.599 43.5784 74.4895 43.5394 74.3911H47.1437ZM79.9077 74.3911C79.1263 74.5025 78.2874 74.6194 77.4578 74.7178H83.3729C83.4267 74.599 83.4731 74.4895 83.5121 74.3911H79.9077ZM67.1013 75.2876C65.8689 75.321 64.6402 75.347 63.5341 75.347C62.4279 75.347 61.1974 75.321 59.965 75.2876H43.9291C43.9755 75.3915 44.0238 75.4991 44.0758 75.6105H82.9757C83.0276 75.4991 83.0759 75.3915 83.1223 75.2876H67.1013ZM44.3449 76.1803C44.3931 76.2898 44.4451 76.3974 44.4971 76.5051H82.5636C82.6138 76.3974 82.6657 76.2898 82.714 76.1803H44.3449ZM44.7643 77.0749L44.924 77.4015H82.1349L82.2945 77.0749H44.7643ZM45.2005 77.9676L45.3694 78.2943H81.6895L81.8584 77.9676H45.2005ZM45.735 78.8622C45.8615 78.9811 45.9967 79.0903 46.1396 79.1889H80.9192C81.0625 79.0908 81.1978 78.9816 81.3238 78.8622H45.735ZM47.0862 79.7587C47.3068 79.8781 47.5336 79.9859 47.7655 80.0816H79.2989C79.5316 79.9863 79.759 79.8785 79.9801 79.7587H47.0862ZM51.0191 80.6514C51.8004 80.759 52.7229 80.8704 53.7752 80.9762H73.2855C74.3378 80.8704 75.2584 80.759 76.0398 80.6514H51.0191Z" fill="#455A64"/>
<path d="M71.1752 84.2836H55.8781V88.3705H71.1752V84.2836Z" fill="white"/>
</g>
<defs>
<clipPath id="clip0_66_23">
<rect width="128" height="128" fill="white"/>
</clipPath>
</defs>
</svg>
