<svg width="128" height="128" viewBox="0 0 128 128" fill="none" xmlns="http://www.w3.org/2000/svg">
<g clip-path="url(#clip0_66_23)">
<rect width="128" height="128" rx="64" fill="#F0F0F0"/>
<path d="M18.9961 68.1939H12.1549V70.2708H18.9961V68.1939Z" fill="#EBEBEB"/>
<path d="M15.1802 70.8127H8.33894V72.8896H15.1802V70.8127Z" fill="#DBDBDB"/>
<path d="M22.812 70.8127H15.9708V72.8896H22.812V70.8127Z" fill="#EBEBEB"/>
<path d="M18.9961 87.4184H12.1549V89.4952H18.9961V87.4184Z" fill="#DBDBDB"/>
<path d="M99.3126 70.8127H92.4714V72.8896H99.3126V70.8127Z" fill="#EBEBEB"/>
<path d="M117.401 75.7831H110.56V77.86H117.401V75.7831Z" fill="#EBEBEB"/>
<path d="M121.217 78.4019H114.376V80.4788H121.217V78.4019Z" fill="#DBDBDB"/>
<path d="M38.7569 98.985H45.5981V96.9081H38.7569V98.985Z" fill="#DBDBDB"/>
<path d="M110.562 98.985H117.403V96.9081H110.562V98.985Z" fill="#EBEBEB"/>
<path d="M123.062 64.6731H5.52338V66.0743H123.062V64.6731Z" fill="#EBEBEB"/>
<path d="M13.764 64.6731C13.8606 64.8935 13.9081 65.1322 13.9032 65.3728C13.9092 65.614 13.8617 65.8536 13.764 66.0743C13.6664 65.8536 13.6188 65.614 13.6248 65.3728C13.62 65.1322 13.6674 64.8935 13.764 64.6731Z" fill="#DBDBDB"/>
<path d="M22.9512 64.6731C23.0478 64.8935 23.0953 65.1322 23.0904 65.3728C23.0964 65.614 23.0489 65.8536 22.9512 66.0743C22.8536 65.8536 22.806 65.614 22.812 65.3728C22.8071 65.1322 22.8546 64.8935 22.9512 64.6731Z" fill="#DBDBDB"/>
<path d="M32.1384 64.6731C32.235 64.8935 32.2825 65.1322 32.2776 65.3728C32.2836 65.614 32.2361 65.8536 32.1384 66.0743C31.9529 65.6257 31.9529 65.1217 32.1384 64.6731Z" fill="#DBDBDB"/>
<path d="M41.3256 64.6731C41.4222 64.8935 41.4697 65.1322 41.4648 65.3728C41.4708 65.614 41.4233 65.8536 41.3256 66.0743C41.1401 65.6257 41.1401 65.1217 41.3256 64.6731Z" fill="#DBDBDB"/>
<path d="M50.5128 64.6731C50.6085 64.8937 50.656 65.1323 50.652 65.3728C50.6568 65.6139 50.6094 65.8533 50.5128 66.0743C50.4198 65.8525 50.3719 65.6143 50.3719 65.3737C50.3719 65.1331 50.4198 64.8949 50.5128 64.6731Z" fill="#DBDBDB"/>
<path d="M59.7 64.6731C59.7957 64.8937 59.8432 65.1323 59.8392 65.3728C59.844 65.6139 59.7965 65.8533 59.7 66.0743C59.607 65.8525 59.5591 65.6143 59.5591 65.3737C59.5591 65.1331 59.607 64.8949 59.7 64.6731Z" fill="#DBDBDB"/>
<path d="M68.8872 64.6731C68.9829 64.8937 69.0304 65.1323 69.0264 65.3728C69.0312 65.6139 68.9837 65.8533 68.8872 66.0743C68.789 65.8538 68.7409 65.6142 68.7462 65.3728C68.7422 65.1321 68.7903 64.8934 68.8872 64.6731Z" fill="#DBDBDB"/>
<path d="M78.0726 64.6731C78.1695 64.8934 78.2176 65.1321 78.2136 65.3728C78.2189 65.6142 78.1708 65.8538 78.0726 66.0743C77.9761 65.8533 77.9286 65.6139 77.9334 65.3728C77.9294 65.1323 77.9769 64.8937 78.0726 64.6731Z" fill="#DBDBDB"/>
<path d="M87.2598 64.6731C87.3528 64.8949 87.4008 65.1331 87.4008 65.3737C87.4008 65.6143 87.3528 65.8525 87.2598 66.0743C87.1633 65.8533 87.1158 65.6139 87.1206 65.3728C87.1166 65.1323 87.1641 64.8937 87.2598 64.6731Z" fill="#DBDBDB"/>
<path d="M96.447 64.6731C96.54 64.8949 96.588 65.1331 96.588 65.3737C96.588 65.6143 96.54 65.8525 96.447 66.0743C96.3505 65.8533 96.303 65.6139 96.3078 65.3728C96.3038 65.1323 96.3513 64.8937 96.447 64.6731Z" fill="#DBDBDB"/>
<path d="M105.634 64.6731C105.82 65.1217 105.82 65.6257 105.634 66.0743C105.537 65.8536 105.489 65.614 105.495 65.3728C105.49 65.1322 105.538 64.8935 105.634 64.6731Z" fill="#DBDBDB"/>
<path d="M114.821 64.6731C114.918 64.8935 114.965 65.1322 114.961 65.3728C114.967 65.614 114.919 65.8536 114.821 66.0743C114.724 65.8536 114.676 65.614 114.682 65.3728C114.677 65.1322 114.725 64.8935 114.821 64.6731Z" fill="#DBDBDB"/>
<path d="M98.6315 39.914C99.9214 39.914 121.601 40.057 122.964 40.0143C123.062 40.0143 123.114 39.8658 123.017 39.8175C122.158 39.3925 121.184 39.4779 120.291 39.1772C119.766 38.9916 119.445 38.6575 119.079 38.2641C118.778 37.9178 118.388 37.661 117.951 37.5217C117.552 37.4013 117.129 37.3878 116.724 37.4827C116.284 37.5885 115.902 37.839 115.482 37.9987C114.439 38.3921 113.428 38.0172 112.683 37.2563C112.071 36.6215 111.468 36.022 110.642 35.6805C110.301 35.5263 109.933 35.4439 109.559 35.4385C109.186 35.4331 108.815 35.5047 108.47 35.649C107.674 36.0202 107.128 36.7347 106.382 37.1709C105.497 37.6887 104.437 37.5662 103.459 37.7277C102.481 37.8892 101.731 38.7076 100.872 39.1809C100.595 39.3604 100.274 39.4606 99.9437 39.4705C99.7525 39.4541 99.5622 39.4275 99.3739 39.3907C99.0788 39.3535 98.7985 39.3628 98.5999 39.6097C98.5313 39.6598 98.5405 39.914 98.6315 39.914Z" fill="#EBEBEB"/>
<path d="M6.57389 32.6181C7.51488 32.6181 23.3447 32.722 24.3395 32.6905C24.41 32.6905 24.449 32.5847 24.3785 32.5494C23.7512 32.2376 23.0403 32.3007 22.387 32.0817C22.0385 31.9412 21.7336 31.7106 21.5036 31.4135C21.2828 31.1627 20.9979 30.9766 20.6795 30.8753C20.3883 30.7873 20.0791 30.7777 19.783 30.8475C19.4727 30.9511 19.1695 31.0751 18.8755 31.2187C18.1164 31.5063 17.3758 31.2335 16.8339 30.6619C16.3866 30.1997 15.9448 29.7617 15.3361 29.5111C15.0876 29.3988 14.8186 29.3388 14.5459 29.335C14.2732 29.3312 14.0026 29.3835 13.751 29.4889C13.1701 29.7524 12.7729 30.2814 12.2273 30.6025C11.5795 30.9737 10.8074 30.8902 10.0929 31.0034C9.3783 31.1166 8.83078 31.7198 8.20531 32.065C8.00121 32.1965 7.76501 32.2697 7.5223 32.2766C7.38125 32.2766 7.2439 32.2358 7.10656 32.219C7.00797 32.1932 6.90425 32.1945 6.80628 32.2225C6.70831 32.2506 6.61971 32.3045 6.54976 32.3787C6.49779 32.4325 6.50521 32.6181 6.57389 32.6181Z" fill="#EBEBEB"/>
<path d="M62.2186 43.7541C63.1596 43.7541 78.9876 43.858 79.9824 43.8265C79.9989 43.8263 80.015 43.8208 80.0281 43.8107C80.0412 43.8007 80.0507 43.7866 80.0551 43.7707C80.0595 43.7547 80.0586 43.7378 80.0525 43.7224C80.0464 43.707 80.0355 43.694 80.0214 43.6854C79.3941 43.3736 78.6832 43.4367 78.0317 43.2177C77.6824 43.0778 77.3768 42.8471 77.1464 42.5496C76.926 42.2983 76.641 42.1122 76.3224 42.0113C76.0312 41.9233 75.722 41.9137 75.4259 41.9835C75.1161 42.0871 74.8136 42.2111 74.5202 42.3547C73.7592 42.6405 73.0205 42.3695 72.4786 41.7979C72.0313 41.3339 71.5914 40.8977 70.9827 40.6472C70.7338 40.5349 70.4645 40.4749 70.1915 40.4711C69.9185 40.4673 69.6477 40.5196 69.3958 40.6249C68.8167 40.8884 68.4177 41.4174 67.872 41.7385C67.2261 42.1097 66.4522 42.028 65.7395 42.1412C65.0268 42.2544 64.4755 42.8576 63.85 43.2029C63.6462 43.3349 63.4098 43.4081 63.167 43.4144C63.0278 43.4144 62.8905 43.3736 62.7513 43.3569C62.6529 43.3307 62.5492 43.3315 62.4512 43.3593C62.3532 43.387 62.2645 43.4407 62.1945 43.5147C62.15 43.5685 62.1555 43.7541 62.2186 43.7541Z" fill="#EBEBEB"/>
<path d="M20.6182 51.4064C21.5592 51.4064 37.389 51.5103 38.3839 51.4788C38.4544 51.4788 38.4934 51.3711 38.4228 51.3359C37.7955 51.0259 37.0847 51.0872 36.4332 50.8681C36.0839 50.7282 35.7783 50.4975 35.5479 50.2C35.327 49.9497 35.0421 49.7642 34.7238 49.6636C34.4327 49.5759 34.1237 49.5657 33.8274 49.6339C33.5176 49.7391 33.2145 49.8631 32.9198 50.0051C32.1607 50.2928 31.4202 50.02 30.8782 49.4483C30.4309 48.9843 29.9892 48.5463 29.3823 48.2976C29.1335 48.1849 28.8642 48.1247 28.5911 48.1209C28.3181 48.117 28.0472 48.1696 27.7954 48.2753C27.2145 48.537 26.8173 49.066 26.2716 49.3889C25.6239 49.7601 24.8518 49.6766 24.1372 49.7917C23.4226 49.9067 22.8751 50.5062 22.2497 50.8533C22.0452 50.984 21.8092 51.0571 21.5666 51.0649C21.4256 51.0649 21.2882 51.0222 21.1509 51.0055C21.0523 50.9801 20.9487 50.9815 20.8508 51.0096C20.7529 51.0376 20.6643 51.0913 20.5941 51.1651C20.5496 51.2208 20.557 51.4064 20.6182 51.4064Z" fill="#EBEBEB"/>
<path d="M40.0877 37.3621C40.1062 37.414 65.036 37.3621 64.7224 37.3621C64.5795 37.3621 64.9395 37.1468 64.8003 37.0781C63.9874 36.6753 63.1002 36.6642 62.2168 36.5825C61.6943 36.5589 61.1816 36.4328 60.7079 36.2113C60.2364 35.9645 59.945 35.5376 59.611 35.1423C59.0967 34.5339 58.436 34.0665 57.6911 33.7843C56.9461 33.5021 56.1415 33.4144 55.3533 33.5294C53.5808 33.8078 52.1832 35.159 50.4089 35.4058C49.3417 35.5562 48.332 35.1423 47.2908 34.9975C46.4843 34.8872 45.6637 35.0374 44.9486 35.4262C44.3918 35.7046 43.8665 35.9385 43.2318 35.983C42.7436 36.0183 42.2536 35.9608 41.7637 35.9571C40.9642 35.9749 40.1987 36.2838 39.6107 36.8257C39.5253 36.8869 39.2748 37.3621 40.0877 37.3621Z" fill="#EBEBEB"/>
<path d="M5.52896 100.815C43.1779 100.7 85.4131 100.7 123.062 100.815C85.4131 100.928 43.1779 100.928 5.52896 100.815Z" fill="#263238"/>
<path d="M9.22055 95.5087C8.45959 95.5365 7.6114 95.5792 6.98221 95.0855C6.39943 94.6308 5.87975 93.9515 5.9577 93.172C5.97997 92.9493 6.03009 92.8119 6.26951 92.9066C6.64071 93.0513 6.91169 93.4522 7.16225 93.7325C7.48185 94.0992 7.83545 94.4347 8.21831 94.7347C8.48929 94.9407 8.77511 95.1208 9.05722 95.3231L9.16116 95.3992L9.20013 95.4289H9.2224C9.22836 95.4289 9.23421 95.4305 9.2394 95.4334C9.2446 95.4363 9.24897 95.4405 9.2521 95.4456C9.25306 95.4499 9.25306 95.4543 9.2521 95.4586C9.25434 95.4694 9.25231 95.4806 9.24643 95.49C9.24054 95.4993 9.23127 95.506 9.22055 95.5087Z" fill="#EE553F"/>
<path d="M9.25952 95.4586C8.5895 95.4474 7.86752 95.4771 7.33299 95.0243C7.08772 94.8063 6.87795 94.5515 6.71123 94.2689C6.63514 94.1427 6.40314 93.7677 6.49779 93.6174C6.67226 93.3483 7.47034 94.4489 7.57984 94.5454C7.99964 94.9261 8.51137 95.191 9.06464 95.3138L9.16858 95.3899C8.77625 95.3104 8.3999 95.1661 8.05498 94.963C7.57984 94.6809 7.31258 94.2614 6.94138 93.8717C6.86157 93.7863 6.61843 93.5005 6.52749 93.6861C6.4681 93.803 6.69082 94.1705 6.73907 94.2429C6.89785 94.5106 7.09621 94.7528 7.32742 94.9611C7.8601 95.427 8.57837 95.4103 9.2521 95.4381C9.25706 95.4438 9.25971 95.4511 9.25952 95.4586Z" fill="white"/>
<path d="M9.63999 95.9727L9.62329 96.0618C9.62255 96.0651 9.62098 96.0683 9.6187 96.0709C9.61643 96.0735 9.61354 96.0754 9.6103 96.0766C9.60667 96.0785 9.60269 96.0795 9.59863 96.0798C9.59456 96.08 9.59048 96.0795 9.58665 96.0781C9.58282 96.0767 9.57932 96.0745 9.57636 96.0717C9.5734 96.0689 9.57106 96.0655 9.56946 96.0618C9.5676 96.0557 9.5676 96.0492 9.56946 96.0432C9.56946 96.0432 9.56946 96.0432 9.56946 96.0321V96.0061C9.43583 95.5031 9.38386 94.9797 9.24095 94.4749C9.09804 93.97 8.93657 93.5227 8.8382 93.0328C8.77695 92.7228 8.56166 91.1768 9.24652 91.3624C9.54905 91.4477 9.75692 91.8876 9.87199 92.1493C10.022 92.5024 10.1075 92.8796 10.1244 93.2629C10.1801 94.2039 9.83302 95.0651 9.63999 95.9727Z" fill="#EE553F"/>
<path d="M9.85901 94.0387C9.87367 93.6845 9.83678 93.33 9.74951 92.9864C9.71981 92.8676 9.56391 92.2959 9.37831 92.3108C9.2521 92.3108 9.23168 92.5651 9.22055 92.6467C9.17786 92.9919 9.28922 93.3446 9.35603 93.6805C9.4903 94.3651 9.57404 95.0586 9.60659 95.7555C9.60659 95.7982 9.5936 95.8428 9.58989 95.8873C9.58618 95.9318 9.58989 95.9597 9.57504 95.9968C9.56019 96.0339 9.57504 96.0209 9.57504 96.0339C9.57504 96.0469 9.57504 96.0525 9.57504 96.0636C9.57862 96.0704 9.58455 96.0757 9.59173 96.0784C9.5989 96.0811 9.60683 96.0812 9.61402 96.0785C9.61402 96.0506 9.61402 96.0228 9.62701 95.9949C9.62701 96.0172 9.62701 96.0395 9.62701 96.0636C9.62701 96.0376 9.62701 96.0154 9.64 95.9912C9.64087 95.9857 9.64087 95.9801 9.64 95.9745C9.64 95.9356 9.64 95.8966 9.64 95.8595C9.7491 95.2574 9.82223 94.6494 9.85901 94.0387ZM9.62887 95.607C9.61031 95.2006 9.56947 94.7941 9.51194 94.3914C9.46554 94.0647 9.40429 93.7436 9.32634 93.4225C9.28214 93.2396 9.25297 93.0534 9.23911 92.8657C9.23911 92.7247 9.25395 92.2013 9.52307 92.5242C9.70867 92.7599 9.76621 93.2666 9.78848 93.5506C9.81201 93.8716 9.8058 94.194 9.76992 94.5139C9.74394 94.8851 9.68269 95.247 9.62887 95.607Z" fill="white"/>
<path d="M10.0502 98.0607C10.0409 98.0619 10.0316 98.0619 10.0223 98.0607C9.32634 98.0254 8.4002 98.0904 7.82113 97.6301C7.39239 97.2904 6.97294 96.6186 7.10842 96.0488C7.26247 95.4066 8.12922 96.1768 8.35937 96.3624C8.95808 96.8837 9.5275 97.4376 10.065 98.0217V98.0347C10.0817 98.0514 10.0669 98.057 10.0502 98.0607Z" fill="#EE553F"/>
<path d="M10.0743 98.0402L9.95366 97.966C9.49709 97.6765 9.05165 97.3702 8.62291 97.038C8.51341 96.9563 7.73018 96.2585 7.61325 96.5072C7.54272 96.6594 7.79885 96.9656 7.88237 97.064C8.03122 97.2495 8.21 97.4088 8.41133 97.5354C8.87533 97.8249 9.4377 97.8862 9.96294 98.0254L10.0372 98.0458H10.0502C10.0669 98.0569 10.0799 98.0514 10.0743 98.0402ZM8.69715 97.6449C8.47648 97.543 8.27398 97.4057 8.09766 97.2385C7.98074 97.1271 7.5687 96.7113 7.67821 96.5406C7.7376 96.4496 7.78586 96.4979 7.89536 96.5517C7.94647 96.5773 7.99605 96.6058 8.04384 96.6371C8.16077 96.7132 8.26842 96.8041 8.37606 96.8895C8.56166 97.0436 8.76026 97.1902 8.95885 97.335C9.28179 97.5707 9.61402 97.7915 9.95366 98.0031C9.54349 97.8751 9.09619 97.8231 8.69715 97.6449Z" fill="white"/>
<path d="M11.3215 96.6278C11.1402 97.425 10.7254 98.15 10.13 98.7103H10.117C10.1102 98.7123 10.103 98.7121 10.0963 98.7098C10.0896 98.7075 10.0839 98.7031 10.0799 98.6973C10.075 98.6916 10.0724 98.6843 10.0724 98.6769C10.0724 98.6694 10.075 98.6621 10.0799 98.6564L10.1151 98.6212C10.2302 97.6765 10.3583 96.7355 10.4548 95.7871C10.4771 95.5625 10.6534 94.1408 11.0895 94.3728C11.3605 94.5157 11.3772 95.0985 11.4013 95.3602C11.4397 95.7843 11.4128 96.2119 11.3215 96.6278Z" fill="#EE553F"/>
<path d="M11.0691 95.3602C11.045 95.2804 11.0042 95.1987 10.9151 95.2544C10.7462 95.3602 10.6794 96.0302 10.6497 96.2139C10.5327 96.9786 10.3527 97.7117 10.169 98.4579C10.1541 98.521 10.1374 98.5841 10.1226 98.6435L10.0799 98.6991C10.0836 98.7048 10.089 98.7091 10.0954 98.7115C10.1017 98.7138 10.1086 98.714 10.1151 98.7121C10.1151 98.7121 10.1151 98.6991 10.1151 98.6936C10.1151 98.688 10.1541 98.6435 10.1708 98.6175C10.4691 98.2089 10.7014 97.7561 10.8594 97.2756C10.9583 96.9738 11.0266 96.663 11.0635 96.3476C11.1025 96.0506 11.1582 95.646 11.0691 95.3602ZM10.1764 98.5711C10.1671 98.583 10.1584 98.5954 10.1504 98.6082C10.1504 98.5822 10.1671 98.5581 10.1745 98.5321C10.3532 97.9627 10.4952 97.3824 10.5995 96.7949C10.6497 96.4961 10.6812 96.1954 10.7443 95.9003C10.7684 95.7741 10.8315 95.4177 10.9299 95.3602C11.0283 95.3027 11.032 95.44 11.0431 95.5217C11.0468 95.594 11.0468 95.6665 11.0431 95.7388C11.0604 96.7507 10.757 97.7421 10.1764 98.5711Z" fill="white"/>
<path d="M10.2451 100.75H10.1003C10.1003 100.628 10.1003 100.505 10.1003 100.379C10.0836 99.8851 10.065 99.3914 10.0353 98.894C10.0186 98.6138 9.99821 98.3372 9.96851 98.057C9.96759 98.0471 9.96759 98.0371 9.96851 98.0273C9.96851 98.005 9.96851 97.9827 9.95923 97.9604C9.94995 97.9382 9.95923 97.9103 9.95923 97.8862C9.89671 97.2592 9.73574 96.646 9.48224 96.0692C9.39315 95.8836 9.29664 95.698 9.19456 95.5124L9.16672 95.4604V95.4456L9.13703 95.3899C9.1279 95.3769 9.11983 95.3633 9.1129 95.3491C8.78995 94.783 8.42247 94.2355 8.07354 93.6972L7.77472 93.2276C7.7674 93.2188 7.76174 93.2088 7.75802 93.1979C7.74893 93.188 7.74142 93.1767 7.73575 93.1645C7.29587 92.4723 6.86528 91.7744 6.40871 91.0951C6.392 91.0691 6.43283 91.0468 6.44954 91.0728C6.75763 91.522 7.07501 91.9656 7.39239 92.4129L7.51859 92.5985L7.74317 92.9381C7.90835 93.1738 8.06983 93.4095 8.22944 93.649C8.69889 94.3128 9.1266 95.0052 9.51008 95.7221C9.53792 95.7778 9.56391 95.8316 9.58989 95.8873C9.61587 95.943 9.6233 95.956 9.63629 95.9894C9.64928 96.0228 9.67341 96.0692 9.69197 96.1082C9.97442 96.806 10.1327 97.5478 10.1597 98.3001C10.1597 98.3521 10.1597 98.4059 10.169 98.4579V98.5321C10.168 98.5451 10.168 98.5581 10.169 98.5711C10.1681 98.5878 10.1681 98.6045 10.169 98.6212C10.169 98.6323 10.169 98.6453 10.169 98.6583V98.7938C10.1894 99.2875 10.2024 99.783 10.2116 100.279C10.2265 100.434 10.2376 100.592 10.2451 100.75Z" fill="#EE553F"/>
<path d="M6.09132 91.7967C5.72012 91.2844 5.22271 90.2283 5.78322 89.679C5.88505 89.5723 6.02283 89.5071 6.16991 89.4962C6.31699 89.4852 6.46292 89.5292 6.57944 89.6196C6.8764 89.8349 7.01004 90.2395 7.10469 90.5754C7.36268 91.4719 7.53343 92.385 7.84709 93.2629C7.84709 93.2629 7.87308 93.3371 7.88236 93.3576C7.89164 93.378 7.86008 93.3835 7.85266 93.3576C7.84524 93.3316 7.83224 93.3 7.82111 93.2722C7.22162 92.8397 6.54232 92.4036 6.09132 91.7967Z" fill="#EE553F"/>
<path d="M7.8601 93.2648L7.85082 93.2499C7.72155 93.0361 7.60504 92.8149 7.50189 92.5873C7.28528 92.1103 7.0993 91.6199 6.94509 91.1192C6.88384 90.9336 6.60916 89.9852 6.27322 90.3601C6.13216 90.5179 6.15258 90.7981 6.17485 90.9912C6.21276 91.302 6.3118 91.6022 6.46624 91.8746C6.78906 92.3999 7.22068 92.8498 7.73204 93.1942L7.79885 93.2462L7.81184 93.2685L7.82298 93.2852C7.82577 93.2864 7.82878 93.287 7.83182 93.287C7.83485 93.2869 7.83785 93.2863 7.84063 93.2851C7.84341 93.2839 7.84592 93.2821 7.84799 93.2799C7.85006 93.2777 7.85165 93.2751 7.85268 93.2722C7.85597 93.2707 7.85861 93.2681 7.8601 93.2648ZM7.71162 93.1608C7.30085 92.8593 6.93901 92.4962 6.63885 92.0844C6.48779 91.8661 6.37019 91.6265 6.28992 91.3735C6.25452 91.2602 6.22906 91.1441 6.21383 91.0264C6.20144 90.9392 6.19647 90.851 6.19898 90.7629C6.19898 90.5773 6.28436 90.3583 6.39943 90.3379C6.5145 90.3174 6.58503 90.3954 6.68154 90.5569C6.71272 90.6121 6.7406 90.6691 6.76506 90.7276C6.8259 90.873 6.87857 91.0218 6.92282 91.1731C7.00263 91.4218 7.08244 91.6705 7.17152 91.9155C7.23277 92.0825 7.29588 92.2458 7.36826 92.4092C7.48849 92.6889 7.62803 92.9599 7.78586 93.2202C7.75988 93.2017 7.73575 93.1813 7.71162 93.1608Z" fill="white"/>
<path d="M13.4411 93.9682C13.1998 94.4192 12.927 94.8535 12.6504 95.2822C12.4945 95.5272 12.3349 95.7685 12.179 96.0135C12.0231 96.2585 11.8078 96.548 11.7688 96.8728C11.7659 96.8868 11.7615 96.9005 11.7558 96.9137C11.7501 96.9175 11.7433 96.9196 11.7364 96.9198C11.7295 96.92 11.7227 96.9183 11.7167 96.9148C11.7107 96.9113 11.7058 96.9063 11.7026 96.9001C11.6993 96.894 11.6978 96.8871 11.6983 96.8802C11.6983 96.8802 11.6983 96.8654 11.6983 96.858C11.6874 96.763 11.6874 96.6671 11.6983 96.5721C11.6857 95.7819 11.8113 94.9955 12.0695 94.2484C12.2227 93.8007 12.4342 93.3751 12.6987 92.9826C12.9158 92.6727 13.2351 92.2068 13.5933 92.0417C13.9181 91.895 13.9645 92.3498 13.9645 92.5688C13.9292 93.0662 13.662 93.5413 13.4411 93.9682Z" fill="#EE553F"/>
<path d="M13.3984 92.7989C13.2258 92.7321 12.8843 93.2425 12.7284 93.4596C12.485 93.8021 12.2843 94.1729 12.1308 94.564C11.8611 95.2677 11.7117 96.0119 11.689 96.7652C11.689 96.7949 11.689 96.8264 11.689 96.8561V96.8784C11.6881 96.8853 11.6891 96.8922 11.6921 96.8985C11.6951 96.9047 11.6999 96.91 11.7058 96.9135C11.7117 96.9171 11.7186 96.9188 11.7255 96.9185C11.7324 96.9182 11.7391 96.9159 11.7447 96.9118C11.7577 96.8506 11.7707 96.7893 11.7855 96.7262C11.8004 96.6631 11.8152 96.6186 11.8319 96.5647C12.0279 95.9825 12.2849 95.4226 12.5985 94.8943C12.9363 94.2781 13.6267 92.8898 13.3984 92.7989ZM11.754 96.6724C11.7336 96.7522 11.7169 96.8339 11.702 96.9137L11.7132 96.7281C11.7493 96.066 11.8741 95.4118 12.0844 94.783C12.2067 94.4294 12.3673 94.0902 12.5632 93.7714C12.6674 93.6001 12.7827 93.4358 12.9084 93.2796C12.9604 93.2128 13.2666 92.7952 13.365 92.8602C13.4337 92.9047 13.2889 93.3316 13.2852 93.3409C13.2574 93.4262 13.2258 93.5116 13.1905 93.5951C13.1219 93.7696 13.0421 93.9385 12.9604 94.1055C12.7748 94.4675 12.5892 94.8201 12.4036 95.1764C12.1298 95.6482 11.9118 96.1502 11.754 96.6724Z" fill="white"/>
<path d="M15.6442 96.329C15.0874 96.8246 14.3709 97.0919 13.662 97.283C13.2908 97.387 12.8991 97.4686 12.5168 97.5651C12.1711 97.6298 11.8328 97.7293 11.5071 97.8621C11.4924 97.8684 11.4781 97.8758 11.4645 97.8844C11.3757 97.9279 11.2923 97.9815 11.2157 98.044C11.2128 98.0453 11.2097 98.046 11.2065 98.046C11.2033 98.046 11.2001 98.0453 11.1972 98.044L11.1768 98.0663C11.1768 98.0663 11.1619 98.0663 11.1656 98.0663C11.1713 98.0574 11.1763 98.0481 11.1805 98.0384C11.1782 98.0348 11.1769 98.0306 11.1769 98.0264C11.1769 98.0221 11.1782 98.0179 11.1805 98.0143L11.1972 97.9864C11.5684 97.2979 12.3553 96.7633 12.9975 96.3717C13.6288 95.9564 14.3619 95.7221 15.1171 95.6943C15.3027 95.6943 15.7537 95.6646 15.8706 95.865C15.9875 96.0655 15.7629 96.2251 15.6442 96.329Z" fill="#EE553F"/>
<path d="M15.1542 96.1416C15.0614 95.9337 14.4749 96.1416 14.3301 96.1768C13.8954 96.3192 13.4738 96.4986 13.0699 96.7132C12.3989 97.0269 11.7814 97.444 11.2399 97.9493L11.2176 97.9623C11.2176 97.9734 11.2065 97.9827 11.2009 97.992C11.1984 97.9959 11.1971 98.0004 11.1971 98.005C11.1971 98.0096 11.1984 98.0141 11.2009 98.018L11.2324 98.0013C11.3141 97.953 11.3976 97.9103 11.483 97.8676L11.5257 97.8472C12.124 97.5826 12.7383 97.3557 13.365 97.1679C13.7999 97.0303 14.2207 96.8513 14.6215 96.6334C14.705 96.5926 15.2321 96.3179 15.1542 96.1416ZM14.8869 96.42C14.2726 96.8951 13.4504 97.0974 12.7247 97.3368C12.2309 97.4851 11.7528 97.6816 11.2974 97.9233C11.8018 97.4815 12.3637 97.11 12.9678 96.819C13.3056 96.6399 13.6532 96.48 14.009 96.3402C14.2014 96.2633 14.3993 96.2012 14.6011 96.1546C14.7226 96.1248 14.8472 96.1093 14.9723 96.1082C15.208 96.1267 14.9927 96.3383 14.8869 96.42Z" fill="white"/>
<path d="M10.5457 99.4768C10.5399 99.4804 10.5331 99.4823 10.5262 99.4823C10.5194 99.4823 10.5126 99.4804 10.5068 99.4768C10.5059 99.4817 10.5059 99.4867 10.5068 99.4916C10.5086 99.4937 10.5096 99.4963 10.5096 99.4991C10.5096 99.5018 10.5086 99.5045 10.5068 99.5065C10.5043 99.5082 10.5014 99.5091 10.4984 99.5091C10.4954 99.5091 10.4925 99.5082 10.49 99.5065C10.1356 98.6824 9.85158 97.7396 9.86643 96.8376C9.86727 96.4587 9.92997 96.0826 10.052 95.724C10.1393 95.4771 10.3156 94.9816 10.5921 94.8869C11.1489 94.7013 10.9466 96.3513 10.9151 96.6019C10.8575 97.0566 10.761 97.5057 10.6961 97.9604C10.6237 98.4579 10.5884 98.959 10.5532 99.4601C10.5519 99.4661 10.5494 99.4718 10.5457 99.4768Z" fill="#EE553F"/>
<path d="M10.5457 99.4768C10.5457 99.4304 10.5309 99.3821 10.5253 99.3339C10.4171 98.566 10.4278 97.786 10.5569 97.0213C10.6332 96.6371 10.6773 96.2473 10.6886 95.8557C10.6886 95.7592 10.7072 95.3973 10.503 95.5068C10.3991 95.5625 10.2209 96.1972 10.1894 96.3643C10.1208 96.7507 10.1002 97.144 10.1281 97.5354C10.1643 98.1912 10.2835 98.8398 10.4826 99.4657L10.4993 99.5213C10.5011 99.5193 10.5022 99.5167 10.5022 99.5139C10.5022 99.5112 10.5011 99.5085 10.4993 99.5065C10.4983 99.5016 10.4983 99.4965 10.4993 99.4916C10.5075 99.4952 10.5168 99.4956 10.5253 99.4929C10.5338 99.4902 10.5411 99.4845 10.5457 99.4768ZM10.1987 97.8491C10.1535 97.4627 10.1491 97.0727 10.1857 96.6854C10.2027 96.5313 10.2281 96.3783 10.2618 96.2269C10.2875 96.1084 10.3217 95.9918 10.3638 95.878C10.4733 95.6033 10.5235 95.5402 10.5736 95.5495C10.6237 95.5588 10.633 95.5996 10.6497 95.7963C10.6584 95.9233 10.654 96.0508 10.6367 96.1768C10.6181 96.3624 10.5921 96.535 10.5624 96.7132C10.5067 97.0696 10.4455 97.4259 10.4158 97.786C10.3715 98.3022 10.3952 98.822 10.4863 99.332C10.3495 98.8466 10.2533 98.3505 10.1987 97.8491Z" fill="white"/>
<path d="M12.9864 98.7567C12.8044 99.0206 12.5677 99.2422 12.2922 99.4063C11.7596 99.7515 11.1601 99.9779 10.6033 100.286C10.5216 100.331 10.4381 100.379 10.3583 100.429C10.3583 100.429 10.2673 100.518 10.271 100.511L10.3304 100.412C10.516 100.119 11.0858 99.2355 11.5257 98.8402C11.7956 98.5877 12.0947 98.3684 12.4166 98.1869C12.5725 98.1071 12.927 97.9419 13.0959 98.0718C13.2648 98.2017 13.0699 98.6156 12.9864 98.7567Z" fill="#EE553F"/>
<path d="M12.7525 98.4412C12.5966 98.237 11.7094 98.9701 11.5925 99.0648C11.1581 99.4109 10.7712 99.8128 10.4418 100.26C10.4028 100.31 10.3675 100.362 10.3304 100.412L10.2692 100.511C10.2692 100.511 10.349 100.436 10.3583 100.429L10.3991 100.403L10.6033 100.286C10.9633 100.034 11.329 99.7868 11.6835 99.5251C11.9412 99.3397 12.1838 99.1343 12.4091 98.9107C12.4593 98.8588 12.8193 98.5302 12.7525 98.4412ZM12.591 98.6824C11.986 99.3859 11.1471 99.796 10.4158 100.353L10.3805 100.379L10.4232 100.323C10.7039 99.959 11.0183 99.6222 11.3624 99.3172C11.5729 99.1329 11.7942 98.9612 12.025 98.8031C12.148 98.7106 12.277 98.6263 12.411 98.5507C12.4704 98.521 12.6374 98.4449 12.6708 98.482C12.7043 98.5191 12.6319 98.636 12.591 98.6917V98.6824Z" fill="white"/>
<path d="M17.6338 92.8193C16.4924 93.9738 14.6642 94.0072 13.4485 95.0799L13.339 95.182C13.3354 95.1854 13.3311 95.1878 13.3264 95.1891C13.3216 95.1904 13.3167 95.1905 13.3119 95.1894C13.3071 95.1883 13.3027 95.186 13.299 95.1828C13.2953 95.1796 13.2925 95.1755 13.2908 95.1709C13.2884 95.1673 13.2872 95.1631 13.2872 95.1588C13.2872 95.1545 13.2884 95.1503 13.2908 95.1468C13.2985 95.1378 13.3072 95.1297 13.3167 95.1226C13.7846 94.3217 14.3925 93.6114 15.1115 93.0253C15.7073 92.5187 16.4107 92.0973 17.2051 92.0212C17.3907 92.0008 17.7841 91.9489 17.9122 92.1567C18.0403 92.3646 17.7748 92.6783 17.6338 92.8193Z" fill="#EE553F"/>
<path d="M17.0677 92.669C17.012 92.5818 16.8691 92.6059 16.7893 92.6152C16.5914 92.6361 16.3969 92.6816 16.2102 92.7507C15.8265 92.8915 15.4662 93.0892 15.1412 93.3372C14.5715 93.7428 14.0547 94.2179 13.6026 94.7514C13.5017 94.8703 13.407 94.9942 13.3186 95.1226L13.2852 95.1709C13.2872 95.1752 13.2902 95.179 13.2939 95.182C13.2976 95.185 13.302 95.1871 13.3066 95.1881C13.3113 95.1892 13.3161 95.1892 13.3207 95.1882C13.3254 95.1871 13.3297 95.185 13.3334 95.182C13.3687 95.1468 13.4021 95.1152 13.4392 95.0836H13.4485C13.6749 94.8514 13.9236 94.6419 14.1909 94.4582C14.6154 94.1894 15.0568 93.9482 15.5124 93.7362C15.6831 93.6434 17.2589 92.966 17.0677 92.669ZM16.8469 92.953C16.517 93.1864 16.1637 93.3848 15.7926 93.545C15.4326 93.7306 15.0707 93.9162 14.7143 94.1018C14.4315 94.2489 14.1609 94.4183 13.9051 94.6085C13.6927 94.7714 13.4952 94.9527 13.3149 95.1505C13.471 94.9385 13.6403 94.7364 13.8216 94.5454C14.1478 94.2101 14.4949 93.8958 14.8609 93.6044L14.8739 93.5933C15.1893 93.328 15.5351 93.1013 15.904 92.9177C16.1059 92.8208 16.3183 92.7473 16.5369 92.6987C16.7856 92.6467 16.9916 92.63 17.0176 92.7135C17.0436 92.7971 16.9378 92.8787 16.8469 92.953Z" fill="white"/>
<path d="M14.8925 93.6304C14.5584 93.9515 14.2318 94.2818 13.9051 94.6122C13.7529 94.7681 13.5989 94.924 13.4485 95.0799H13.4392L13.2722 95.247C12.751 95.7426 12.2706 96.2795 11.8357 96.8524C11.62 97.1637 11.4336 97.4942 11.2789 97.8398L11.2325 97.9456C11.2325 97.966 11.2158 97.9846 11.2083 98.005C11.2029 98.015 11.1985 98.0256 11.1953 98.0365C11.0654 98.3372 10.9522 98.6453 10.8427 98.9441C10.6887 99.3617 10.5662 99.7867 10.4455 100.212C10.4449 100.224 10.4449 100.237 10.4455 100.249C10.4455 100.269 10.4344 100.288 10.427 100.308C10.4195 100.329 10.427 100.327 10.427 100.338L10.4102 100.392C10.3731 100.529 10.3342 100.666 10.2933 100.804L10.1671 100.754C10.2372 100.323 10.3389 99.8981 10.4715 99.4824C10.4715 99.4731 10.4715 99.4656 10.4715 99.4564C10.4845 99.4155 10.4975 99.3747 10.5123 99.3339C10.5272 99.293 10.5439 99.2355 10.5624 99.1854C10.6051 99.0648 10.646 98.946 10.6886 98.8272C10.9266 98.1282 11.2462 97.4598 11.6408 96.8357L11.676 96.7856L11.689 96.7652L11.7132 96.7281L11.754 96.6724C11.78 96.639 11.8041 96.6056 11.8301 96.574L11.8524 96.5443C12.2705 96.0425 12.7219 95.5694 13.2035 95.1282C13.2889 95.0465 13.3724 94.9648 13.4597 94.885L13.6026 94.7514L13.8216 94.5491C14.1668 94.2336 14.5176 93.9255 14.8609 93.6081C14.8832 93.5877 14.9092 93.6155 14.8925 93.6304Z" fill="#EE553F"/>
<path d="M114.365 82.5723C114.365 82.5723 118.491 89.8534 118.491 89.859C119.153 91.3271 119.706 92.6263 119.931 93.326C119.932 93.3296 119.932 93.3335 119.931 93.3371C120 93.4947 120.033 93.6662 120.026 93.8382C120.026 93.8382 120.026 93.8494 120.026 93.8531C119.721 94.3449 108.147 99.9779 107.67 100.034C107.193 100.089 106.991 98.7585 107.267 98.1776C107.544 97.5966 111.015 93.4615 111.015 93.4615L106.971 86.1507L114.365 82.5723Z" fill="#EB9481"/>
<path d="M107.848 99.9909C108.318 99.9297 119.714 94.345 120.018 93.8531C120.019 93.8488 120.019 93.8444 120.018 93.8401C120.026 93.6674 119.993 93.4953 119.924 93.3371V93.326C119.699 92.6282 119.146 91.3271 118.485 89.859C118.485 89.859 117.791 88.5858 117.514 88.1441L110.148 91.9507L111.005 93.4671C111.005 93.4671 107.726 97.5614 107.446 98.1349C107.165 98.7084 107.377 100.052 107.848 99.9909Z" fill="#EBEBEB"/>
<path d="M107.637 99.835C108.11 99.7626 119.649 93.8178 119.944 93.313C120.059 93.1274 119.291 91.3902 118.303 89.3245C118.292 89.3034 118.281 89.2817 118.272 89.2595L110.785 93.0123L110.851 93.1367C110.851 93.1367 107.453 97.3925 107.188 97.9771C106.922 98.5618 107.169 99.9074 107.637 99.835Z" fill="#EE553F"/>
<path d="M107.54 99.319C109.461 98.2704 117.307 94.2169 119.285 93.3241C119.3 93.3241 119.305 93.3241 119.285 93.3371C117.405 94.4192 109.526 98.4077 107.551 99.3506C107.512 99.371 107.496 99.3413 107.54 99.319Z" fill="white"/>
<path d="M110.239 93.4819C110.929 92.9437 111.926 92.5799 112.793 92.823C112.826 92.8323 112.811 92.8806 112.793 92.8861C111.94 93.0269 111.104 93.2584 110.3 93.5766C110.288 93.5847 110.272 93.5875 110.258 93.5844C110.243 93.5812 110.23 93.5724 110.222 93.5599C110.214 93.5473 110.211 93.532 110.214 93.5174C110.218 93.5028 110.226 93.49 110.239 93.4819Z" fill="#263238"/>
<path d="M109.857 94.1C110.549 93.5617 111.546 93.1979 112.412 93.4411C112.446 93.4504 112.431 93.4986 112.412 93.5042C111.559 93.6438 110.723 93.8753 109.92 94.1946C109.907 94.203 109.892 94.206 109.877 94.2031C109.862 94.2001 109.849 94.1914 109.841 94.1788C109.832 94.1663 109.829 94.1509 109.832 94.1361C109.835 94.1213 109.844 94.1083 109.857 94.1Z" fill="#263238"/>
<path d="M109.476 94.7161C110.168 94.1797 111.165 93.8141 112.03 94.0591C112.063 94.0591 112.05 94.1166 112.021 94.1204C111.168 94.2615 110.333 94.4936 109.53 94.8126C109.517 94.8177 109.503 94.8181 109.491 94.8136C109.478 94.809 109.467 94.8 109.46 94.7882C109.454 94.7763 109.452 94.7624 109.455 94.7492C109.458 94.7359 109.465 94.7242 109.476 94.7161Z" fill="#263238"/>
<path d="M117.032 91.535C117.654 90.6849 118.973 91.6482 118.351 92.5001C117.73 93.352 116.41 92.3813 117.032 91.535Z" fill="white"/>
<path opacity="0.1" d="M110.345 93.7751L109.515 98.9552C108.47 99.4749 107.748 99.8164 107.637 99.835C107.165 99.9074 106.924 98.5655 107.186 97.979C107.388 97.5317 109.396 94.9797 110.345 93.7751Z" fill="black"/>
<path d="M107.247 99.5121C107.082 99.6977 107.485 100.368 107.661 100.347C107.837 100.327 120.391 93.7881 120.581 93.6304C120.77 93.4726 120.297 92.7451 120.024 92.8342C119.751 92.9232 107.247 99.5121 107.247 99.5121Z" fill="#EE553F"/>
<path opacity="0.4" d="M107.247 99.5121C107.082 99.6977 107.485 100.368 107.661 100.347C107.837 100.327 120.391 93.7881 120.581 93.6304C120.77 93.4726 120.297 92.7451 120.024 92.8342C119.751 92.9232 107.247 99.5121 107.247 99.5121Z" fill="black"/>
<path d="M117.531 87.4629L109.233 91.895C109.233 91.895 98.7577 76.9654 98.548 73.0436C98.2603 67.626 102.884 50.4357 102.884 50.4357L110.261 50.3856C110.261 50.3856 107.262 68.0677 107.505 71.0818C107.633 72.6613 117.531 87.4629 117.531 87.4629Z" fill="#263238"/>
<path d="M108.509 90.1801C108.936 89.872 112.869 87.5928 115.864 86.1359C115.885 86.1266 115.898 86.1544 115.881 86.1674C114.972 86.7669 109.101 89.9833 108.531 90.2116C108.511 90.2191 108.489 90.1931 108.509 90.1801Z" fill="#37474F"/>
<path d="M106.482 67.303C106.824 64.7158 107.201 62.1304 107.631 59.5561C108.062 56.9818 108.518 54.3834 109.059 51.8184C109.125 51.5054 109.193 51.1923 109.263 50.8793C109.265 50.8701 109.272 50.8622 109.28 50.8573C109.288 50.8523 109.298 50.8506 109.307 50.8524C109.317 50.8543 109.325 50.8596 109.331 50.8673C109.337 50.875 109.34 50.8845 109.339 50.8941C108.884 53.4387 108.411 55.9833 107.999 58.5353C107.587 61.0873 107.19 63.6449 106.839 66.208C106.753 66.8427 106.668 67.4775 106.586 68.1122C106.486 68.767 106.424 69.427 106.401 70.0889C106.39 70.7219 106.498 71.3514 106.718 71.9449C106.952 72.5256 107.236 73.0845 107.568 73.6153C108.903 75.874 114.881 85.7405 115.035 86.0282C115.046 86.0468 115.02 86.0672 115.007 86.0486C113.572 83.8214 109.123 76.7129 107.769 74.4171C107.158 73.3833 106.458 72.3346 106.26 71.1264C106.055 69.8625 106.317 68.5484 106.482 67.303Z" fill="#37474F"/>
<path d="M108.607 87.4629C108.607 87.4629 108.691 95.8799 108.691 95.8873C108.646 97.4964 108.578 98.907 108.476 99.6327C108.477 99.637 108.477 99.6414 108.476 99.6457C108.469 99.8183 108.424 99.9871 108.342 100.139V100.149C107.854 100.46 94.9789 100.479 94.5279 100.334C94.0769 100.189 94.4722 98.8922 94.9715 98.4931C95.4707 98.0941 100.4 95.8817 100.4 95.8817V87.4703L108.607 87.4629Z" fill="#EB9481"/>
<path d="M108.674 94.1575C108.674 94.1575 108.691 95.8799 108.691 95.8873C108.646 97.4964 108.578 98.907 108.476 99.6327C108.477 99.637 108.477 99.6414 108.476 99.6457C108.45 99.8149 108.406 99.9805 108.342 100.139V100.149C107.854 100.46 94.9789 100.479 94.5279 100.334C94.0769 100.19 94.4722 98.8922 94.9715 98.4931C95.4707 98.0941 100.4 95.8817 100.4 95.8817V94.1259L108.674 94.1575Z" fill="#EBEBEB"/>
<path d="M94.5112 100.314C94.9677 100.459 107.945 100.23 108.431 99.9074C108.617 99.7886 108.697 97.8955 108.723 95.6052V95.5365L100.348 95.5903V95.7332C100.348 95.7332 95.4206 98.0421 94.9213 98.4541C94.4221 98.8662 94.0546 100.176 94.5112 100.314Z" fill="#EE553F"/>
<path d="M94.6485 99.8053C96.8367 99.7144 105.664 99.5473 107.826 99.6197C107.843 99.6197 107.843 99.6327 107.826 99.6327C105.66 99.7719 96.8312 99.8665 94.6485 99.8387C94.604 99.8424 94.6021 99.8053 94.6485 99.8053Z" fill="white"/>
<path d="M99.6542 95.7666C100.512 95.5903 101.568 95.7035 102.236 96.3067C102.262 96.329 102.236 96.3661 102.201 96.3569C101.373 96.1065 100.521 95.9447 99.6597 95.8743C99.6526 95.8747 99.6456 95.8736 99.6389 95.8713C99.6322 95.8689 99.6261 95.8652 99.6208 95.8605C99.6156 95.8558 99.6113 95.85 99.6083 95.8436C99.6052 95.8372 99.6035 95.8303 99.6031 95.8233C99.6027 95.8162 99.6038 95.8091 99.6061 95.8024C99.6085 95.7958 99.6122 95.7896 99.6169 95.7844C99.6216 95.7791 99.6274 95.7748 99.6338 95.7718C99.6402 95.7688 99.6471 95.767 99.6542 95.7666Z" fill="#263238"/>
<path d="M99.038 96.1527C99.8973 95.9764 100.951 96.0896 101.622 96.6909C101.647 96.715 101.612 96.7522 101.584 96.7429C100.757 96.4922 99.9052 96.3304 99.0435 96.2603C99.0292 96.2611 99.0153 96.2561 99.0047 96.2465C98.994 96.237 98.9876 96.2236 98.9869 96.2093C98.9862 96.195 98.9911 96.181 99.0007 96.1704C99.0103 96.1598 99.0237 96.1534 99.038 96.1527Z" fill="#263238"/>
<path d="M98.4236 96.5369C99.2811 96.3606 100.337 96.4756 101.005 97.077C101.031 97.1011 101.005 97.1364 100.97 97.1289C100.143 96.8774 99.291 96.7156 98.4292 96.6464C98.4162 96.6448 98.4042 96.6386 98.3953 96.629C98.3864 96.6194 98.3812 96.607 98.3805 96.594C98.3799 96.5809 98.3838 96.568 98.3917 96.5576C98.3996 96.5471 98.4109 96.5398 98.4236 96.5369Z" fill="#263238"/>
<path d="M94.3052 99.8517C94.0732 99.9445 94.1381 100.724 94.3052 100.78C94.4722 100.835 108.622 100.529 108.862 100.47C109.101 100.41 108.999 99.5417 108.719 99.512C108.439 99.4823 94.3052 99.8517 94.3052 99.8517Z" fill="#EE553F"/>
<path opacity="0.4" d="M94.3052 99.8517C94.0732 99.9445 94.1381 100.724 94.3052 100.78C94.4722 100.835 108.622 100.529 108.862 100.47C109.101 100.41 108.999 99.5417 108.719 99.512C108.439 99.4823 94.3052 99.8517 94.3052 99.8517Z" fill="black"/>
<path d="M106.612 97.0213C107.54 96.5332 108.303 97.9827 107.37 98.469C106.436 98.9553 105.673 97.5113 106.612 97.0213Z" fill="white"/>
<path d="M102.976 50.4116C103.025 50.5637 105.677 57.8356 105.926 57.9451C106.208 58.0768 100.068 68.3888 99.7061 73.181C99.4723 76.2452 99.9288 93.597 99.9288 93.597H108.904C108.904 93.597 108.474 78.0066 108.268 73.0659C108.188 71.1505 114.432 61.6125 114.508 55.6733C114.532 53.8006 113.188 50.38 113.188 50.38L102.976 50.4116Z" fill="#263238"/>
<path d="M108.221 72.9304C108.221 72.8506 108.283 72.8246 108.288 72.9063C108.492 75.5808 108.539 78.2386 108.659 80.9168C108.78 83.595 108.715 84.2316 108.834 86.9024C108.901 88.4132 108.834 89.9277 108.873 91.4403C108.872 91.4445 108.869 91.4481 108.865 91.4507C108.862 91.4532 108.858 91.4546 108.853 91.4546C108.849 91.4546 108.845 91.4532 108.841 91.4507C108.838 91.4481 108.835 91.4445 108.834 91.4403C108.563 88.7788 108.223 74.4449 108.221 72.9304Z" fill="#37474F"/>
<path d="M99.7098 73.2942C99.7224 72.6341 99.7844 71.9758 99.8954 71.325C100.02 70.6927 100.207 70.0741 100.452 69.4783C100.948 68.2273 101.534 67.0079 102.095 65.7848C102.655 64.5617 103.242 63.3126 103.839 62.0895C104.177 61.4016 104.516 60.7142 104.857 60.0275C105.202 59.3352 105.573 58.6522 105.933 57.9674C105.948 57.9414 105.991 57.9674 105.978 57.9878C105.402 59.2239 104.834 60.4618 104.259 61.6998C103.684 62.9377 103.117 64.1757 102.553 65.4118C101.989 66.6479 101.44 67.8524 100.916 69.0848C100.654 69.6722 100.44 70.2799 100.276 70.9018C100.127 71.5436 100.039 72.1979 100.012 72.8562C99.9251 74.3892 99.8824 75.9279 99.7321 77.4572C99.7321 77.4758 99.6987 77.4739 99.6987 77.4572C99.6449 76.0726 99.6671 74.6788 99.7098 73.2942Z" fill="#37474F"/>
<path d="M100.582 91.8245C101.104 91.7577 105.081 91.6203 108.409 91.7614C108.413 91.7614 108.418 91.7632 108.421 91.7663C108.424 91.7694 108.426 91.7737 108.426 91.7781C108.426 91.7825 108.424 91.7868 108.421 91.7899C108.418 91.793 108.413 91.7948 108.409 91.7948C107.325 91.8913 101.198 91.934 100.588 91.8635C100.565 91.8579 100.558 91.8245 100.582 91.8245Z" fill="#37474F"/>
<path d="M104.689 57.5497C105.651 57.7929 106.59 58.1183 107.496 58.5223C107.503 58.525 107.51 58.5306 107.513 58.5379C107.517 58.5452 107.517 58.5536 107.514 58.5613C107.512 58.5689 107.506 58.5751 107.499 58.5786C107.491 58.5821 107.483 58.5825 107.475 58.5798C106.534 58.2847 105.575 58.0082 104.65 57.663C104.635 57.6578 104.623 57.6469 104.616 57.6326C104.609 57.6183 104.608 57.6019 104.613 57.5869C104.619 57.5718 104.629 57.5595 104.644 57.5525C104.658 57.5456 104.674 57.5446 104.689 57.5497Z" fill="#37474F"/>
<path d="M103.784 51.3971C103.784 51.3656 103.838 51.3526 103.839 51.386C103.942 52.3929 104.096 53.3939 104.3 54.3853C104.391 54.8456 105.027 57.3771 105.814 57.1062C105.946 57.0616 106 56.9206 106 56.7164C105.97 56.4506 105.907 56.1895 105.814 55.9387C105.669 55.4116 105.541 54.879 105.443 54.3407C105.247 53.3383 105.153 52.3183 105.165 51.2969C105.165 51.29 105.167 51.2834 105.172 51.2785C105.177 51.2736 105.184 51.2709 105.191 51.2709C105.197 51.2709 105.204 51.2736 105.209 51.2785C105.214 51.2834 105.217 51.29 105.217 51.2969C105.336 52.7021 105.562 54.0962 105.892 55.4673C106.061 56.1243 106.501 57.0969 105.814 57.2714C105.127 57.4458 104.48 55.8107 104.344 55.3597C103.987 54.0685 103.799 52.7366 103.784 51.3971Z" fill="#37474F"/>
<path d="M105.799 57.1785C105.889 57.3445 105.968 57.5163 106.035 57.6927C106.102 57.8275 106.142 57.9735 106.156 58.1232C106.156 58.1511 106.119 58.1585 106.102 58.14C106.004 58.0176 105.925 57.8804 105.87 57.7335C105.792 57.5757 105.71 57.418 105.636 57.2565C105.628 57.2353 105.629 57.212 105.638 57.1911C105.646 57.1703 105.662 57.1534 105.682 57.1437C105.703 57.1339 105.726 57.1321 105.748 57.1386C105.769 57.145 105.788 57.1593 105.799 57.1785Z" fill="#37474F"/>
<path d="M107.301 75.5678C107.256 74.2927 107.115 72.9546 107.533 71.7222C107.761 71.1201 108.035 70.5362 108.351 69.9757C108.663 69.3743 108.969 68.7711 109.268 68.1661C110.467 65.7533 111.598 63.2829 112.609 60.7755C113.095 59.5672 113.537 58.3274 113.704 57.0319C113.863 55.6705 113.779 54.2915 113.454 52.9599C113.377 52.6276 113.298 52.2973 113.207 51.9688C113.207 51.9446 113.236 51.9316 113.244 51.9558C113.669 53.2131 113.905 54.5267 113.943 55.8534C113.936 57.1236 113.707 58.3828 113.268 59.5747C112.837 60.8275 112.299 62.045 111.768 63.2588C111.22 64.5098 110.652 65.7502 110.063 66.9801C109.476 68.2051 108.849 69.4077 108.229 70.616C107.909 71.1894 107.677 71.8075 107.54 72.4497C107.445 73.1153 107.42 73.789 107.466 74.4598C107.572 77.2827 107.815 86.6778 107.852 89.4934L107.863 90.5661C107.863 90.5725 107.861 90.5787 107.856 90.5832C107.852 90.5877 107.846 90.5903 107.839 90.5903C107.833 90.5903 107.827 90.5877 107.822 90.5832C107.818 90.5787 107.815 90.5725 107.815 90.5661C107.633 87.7562 107.403 78.3834 107.301 75.5678Z" fill="#37474F"/>
<path d="M109.315 52.2397C109.315 52.2212 109.346 52.2249 109.348 52.2397C109.454 53.0174 109.515 53.8229 109.89 54.5282C110.235 55.1741 110.835 55.5917 111.49 55.8831C111.87 56.0472 112.26 56.1909 112.655 56.3137C112.683 56.3137 112.676 56.3675 112.655 56.3601C111.913 56.206 111.158 56.0334 110.512 55.6177C109.821 55.1722 109.467 54.4577 109.352 53.6577C109.29 53.1876 109.278 52.7124 109.315 52.2397Z" fill="#37474F"/>
<path d="M102.882 41.4118C103.529 46.6736 103.468 52.0838 102.449 53.2661C100.985 54.9643 97.2061 57.8671 94.6095 58.8062C93.8467 59.0809 91.2502 54.3778 91.9963 53.9361C93.0189 53.3329 97.8204 50.0979 97.9039 50.0385C98.0895 49.9012 100.317 42.724 100.591 41.28C101.08 38.7429 102.529 38.587 102.882 41.4118Z" fill="#EB9481"/>
<path d="M95.892 58.1567C95.3167 58.5557 92.2302 60.7439 91.3523 61.0149C90.4744 61.2859 87.8945 61.8798 87.6198 61.2283C87.3452 60.5769 88.0857 60.343 88.0857 60.343C88.0857 60.343 86.9573 60.421 86.7401 59.7398C86.5229 59.0587 87.6885 58.7339 87.6885 58.7339C87.6885 58.7339 86.523 58.7339 86.3541 58.0342C86.1852 57.3345 87.4138 57.2082 87.4138 57.2082C87.4138 57.2082 86.3466 57.2546 86.4487 56.6236C86.5731 55.8664 88.5478 56.0037 89.4944 55.6325C89.7097 55.549 93.7279 53.6169 93.7279 53.6169L95.892 58.1567Z" fill="#EB9481"/>
<path d="M87.3099 57.2212C88.7631 57.3196 89.4165 57.1117 90.6767 56.4287C90.7008 56.4157 90.7268 56.4491 90.7027 56.4659C89.5278 57.2454 88.7483 57.6259 87.3025 57.2918C87.2301 57.2751 87.2394 57.2175 87.3099 57.2212Z" fill="#263238"/>
<path d="M87.5735 58.7227C89.0917 58.693 89.8007 58.474 91.1741 57.856C91.1927 57.856 91.2093 57.8801 91.1908 57.8894C89.8916 58.6077 89.1065 58.9696 87.5864 58.8007C87.5178 58.7877 87.4955 58.7246 87.5735 58.7227Z" fill="#263238"/>
<path d="M88.1544 60.3096C89.6225 60.1741 90.4113 59.9663 91.6678 59.196C91.6737 59.1921 91.6809 59.1907 91.6879 59.192C91.6948 59.1934 91.701 59.1975 91.7049 59.2034C91.7088 59.2094 91.7103 59.2166 91.7089 59.2235C91.7075 59.2305 91.7034 59.2366 91.6975 59.2406C90.4929 60.15 89.5111 60.4173 88.1711 60.3542C88.0727 60.3486 88.0634 60.317 88.1544 60.3096Z" fill="#263238"/>
<path d="M94.2272 52.572C94.2272 52.572 92.4157 52.3474 91.5991 52.4235C90.7825 52.4996 87.8426 53.9083 88.1098 54.5616C88.455 55.4024 90.3129 54.9328 91.1926 54.5709C91.1926 54.5709 91.9907 56.5197 93.3976 56.4659C94.8044 56.412 94.2272 52.572 94.2272 52.572Z" fill="#EB9481"/>
<path d="M88.2806 54.762C89.151 55.3021 90.2739 54.762 91.1537 54.4855C91.1663 54.4807 91.1799 54.479 91.1933 54.4806C91.2068 54.4823 91.2196 54.4871 91.2307 54.4948C91.2419 54.5024 91.251 54.5127 91.2573 54.5247C91.2636 54.5366 91.2669 54.5499 91.2669 54.5635C91.6548 55.3578 92.4362 56.3656 93.3586 56.5085C93.3632 56.5099 93.3672 56.5127 93.3701 56.5166C93.373 56.5204 93.3745 56.5251 93.3745 56.5299C93.3745 56.5347 93.373 56.5393 93.3701 56.5432C93.3672 56.547 93.3632 56.5499 93.3586 56.5512C92.3471 56.5327 91.5026 55.6047 91.1314 54.7082C90.235 55.0089 89.0898 55.4989 88.2787 54.7695C88.2713 54.7658 88.275 54.7583 88.2806 54.762Z" fill="#263238"/>
<path d="M93.5331 52.301L97.1114 57.9042C97.1114 57.9042 102.627 54.3444 102.989 52.893C103.351 51.4416 103.658 45.3094 103.014 41.5473C102.369 37.7852 100.985 39.1753 100.333 41.5306C99.6597 43.9657 97.9002 49.9086 97.8111 49.9661C97.7221 50.0237 93.5331 52.301 93.5331 52.301Z" fill="#455A64"/>
<path d="M94.745 52.0411C94.7339 52.0244 94.7636 52.0059 94.7766 52.0226C95.8884 53.5296 96.9175 55.0959 97.8594 56.7145C97.8594 56.7312 97.8408 56.7498 97.8278 56.7331C96.7154 55.2265 95.6863 53.6602 94.745 52.0411Z" fill="#263238"/>
<path opacity="0.1" d="M102.989 52.8856C102.737 53.9009 99.9864 55.935 98.3401 57.0765L101.579 39.2886C102.121 39.0065 102.676 39.5503 103.015 41.5399C103.658 45.302 103.351 51.4268 102.989 52.8856Z" fill="black"/>
<path d="M101.972 54.4577L114.111 52.3474C114.229 52.083 114.293 51.7975 114.298 51.508C114.303 51.2184 114.25 50.9308 114.142 50.6621C112.657 47.3213 107.997 39.3535 104.541 38.3365C103.799 38.1174 102.063 38.4775 101.653 39.3535C100.645 41.5028 100.64 50.4097 101.117 53.5093C101.202 54.1217 101.93 54.4354 101.972 54.4577Z" fill="#455A64"/>
<path d="M102.475 41.0165C103.175 40.9478 103.945 39.58 104.109 38.6278C104.12 38.5629 103.838 38.0135 103.526 37.3286C103.34 36.9129 103.14 36.4452 102.988 36.0053L100.46 37.6293C100.805 38.1256 101.089 38.6622 101.304 39.2273C101.325 39.2875 101.339 39.3497 101.347 39.4129C101.346 39.4234 101.346 39.434 101.347 39.4445C101.415 39.799 101.8 41.0833 102.475 41.0165Z" fill="#EB9481"/>
<path d="M100.458 37.6293C100.804 38.1259 101.089 38.6632 101.304 39.2292C101.325 39.2893 101.339 39.3515 101.347 39.4148C101.346 39.4246 101.346 39.4346 101.347 39.4445C101.446 39.4268 101.543 39.3995 101.636 39.3628C103.229 38.7763 102.999 36.6345 102.908 36.061L100.458 37.6293Z" fill="#263238"/>
<path d="M101.926 32.4956C102.624 33.3215 103.297 36.2837 102.884 37.1857C102.284 38.4849 100.716 39.2644 99.4556 38.4107C98.2362 37.581 97.4251 33.7057 97.9429 32.826C98.7039 31.5305 100.896 31.2762 101.926 32.4956Z" fill="#EB9481"/>
<path opacity="0.2" d="M101.935 33.9321C102.163 34.1883 102.663 34.8026 102.82 34.8008C102.598 33.7762 102.28 32.8872 101.841 32.4306C101.659 32.2413 101.444 32.0872 101.206 31.9759C101.28 32.2469 101.696 33.6649 101.935 33.9321Z" fill="#263238"/>
<path d="M98.8171 33.483C98.9523 33.5953 99.114 33.6713 99.2867 33.7038C99.4595 33.7363 99.6377 33.7242 99.8045 33.6686C99.9732 33.6106 100.124 33.5107 100.244 33.3782C100.363 33.2458 100.447 33.0851 100.487 32.9114C100.487 32.9002 100.506 32.9114 100.504 32.9114C100.477 33.0984 100.399 33.2744 100.279 33.4208C100.16 33.5672 100.003 33.6785 99.8249 33.7428C99.6465 33.7961 99.4573 33.8014 99.2761 33.7584C99.095 33.7154 98.9284 33.6256 98.793 33.4978C98.791 33.4946 98.7904 33.4908 98.7913 33.4871C98.7921 33.4835 98.7944 33.4803 98.7976 33.4784C98.8008 33.4764 98.8047 33.4758 98.8083 33.4766C98.812 33.4775 98.8151 33.4798 98.8171 33.483Z" fill="#263238"/>
<path d="M99.4333 30.7937C99.7019 30.7479 99.9777 30.7704 100.235 30.8593C100.493 30.9482 100.724 31.1005 100.907 31.3022C101.066 31.5096 101.15 31.7648 101.145 32.0261C101.145 32.0261 101.124 32.0372 101.122 32.0261C101.096 31.7998 101.009 31.5849 100.871 31.4039C100.733 31.2229 100.548 31.0826 100.337 30.9978C100.105 30.8969 99.8533 30.851 99.6009 30.8639C99.3484 30.8768 99.1023 30.948 98.882 31.0721C98.6664 31.1883 98.4988 31.377 98.4088 31.6047C98.4088 31.6289 98.3549 31.6233 98.3605 31.6047C98.457 31.2038 98.8987 30.8735 99.4333 30.7937Z" fill="#263238"/>
<path d="M96.2335 32.6571C96.2797 32.3497 96.4337 32.0689 96.6678 31.8645C96.9908 31.5787 97.4102 31.5416 97.8167 31.5119C97.8192 31.5119 97.8215 31.5129 97.8233 31.5146C97.825 31.5164 97.826 31.5187 97.826 31.5212C97.826 31.5236 97.825 31.526 97.8233 31.5277C97.8215 31.5295 97.8192 31.5305 97.8167 31.5305C97.4644 31.5289 97.119 31.6288 96.8219 31.8181C96.5819 31.9965 96.4108 32.2522 96.3375 32.542C96.271 32.8382 96.3134 33.1484 96.4569 33.4159C96.6004 33.6835 96.8353 33.8904 97.1188 33.9989C97.2837 34.0567 97.4586 34.0802 97.6328 34.0681C97.807 34.056 97.977 34.0085 98.1322 33.9284C98.1452 33.9284 98.1582 33.9395 98.1452 33.9451C97.8677 34.0997 97.5433 34.1473 97.2331 34.0789C96.9229 34.0105 96.6485 33.8309 96.4618 33.5739C96.2748 33.3071 96.1935 32.9804 96.2335 32.6571Z" fill="#263238"/>
<path d="M102.343 33.251C102.343 33.251 102.715 32.0984 102.141 31.5806C101.816 31.2818 100.946 31.4822 100.946 31.4822C100.649 31.1747 100.243 30.9972 99.8156 30.9885C99.0509 30.9514 98.2529 31.5342 98.2529 31.5342C98.2529 31.5342 97.4845 31.2576 96.898 31.7476C96.0776 32.4306 96.4377 33.7892 97.4344 34.0825C98.1341 34.2829 98.908 33.5572 98.908 33.5572C98.9934 33.5572 99.9474 33.9284 100.463 33.0357C100.463 33.0357 101.076 33.4069 101.492 33.0004C101.591 33.1237 101.726 33.2137 101.878 33.2585C102.031 33.3032 102.193 33.3006 102.343 33.251Z" fill="#263238"/>
<path d="M102.26 35.1979C102.26 35.1979 102.529 34.0491 103.019 34.1029C103.509 34.1567 103.576 35.6508 103.166 36.0202C103.117 36.0711 103.058 36.1116 102.993 36.1393C102.928 36.1669 102.859 36.1812 102.788 36.1812C102.717 36.1812 102.648 36.1669 102.583 36.1393C102.518 36.1116 102.459 36.0711 102.41 36.0202L102.26 35.1979Z" fill="#EB9481"/>
<path d="M103.025 34.5354V34.5465C102.744 34.8175 102.694 35.1998 102.702 35.571C102.707 35.5295 102.722 35.4898 102.745 35.4545C102.767 35.4193 102.797 35.3894 102.833 35.3669C102.868 35.3445 102.908 35.33 102.949 35.3246C102.991 35.3191 103.033 35.3228 103.073 35.3353C103.084 35.3353 103.073 35.3557 103.073 35.3576C103.007 35.3625 102.944 35.3878 102.893 35.4301C102.841 35.4723 102.805 35.5293 102.787 35.5933C102.758 35.7013 102.742 35.812 102.737 35.9237C102.737 35.9589 102.672 35.9663 102.67 35.9237C102.494 35.4949 102.585 34.7637 103.025 34.5354Z" fill="#263238"/>
<path d="M105.974 39.0603C109.842 42.2619 113.327 47.3417 113.329 50.3392C113.329 52.674 111.163 51.4045 110.731 51.0927C109.324 50.0626 106.395 44.8287 105.187 41.4415C104.094 38.3531 105.018 38.2678 105.974 39.0603Z" fill="#455A64"/>
<path d="M109.649 50.5861C109.452 50.2149 109.248 49.8325 109.057 49.452L108.468 48.318C108.082 47.5589 107.689 46.8035 107.314 46.0389C106.939 45.2742 106.551 44.5151 106.182 43.7485C105.994 43.3662 105.812 42.9814 105.636 42.5941C105.45 42.2099 105.289 41.8183 105.118 41.4248C105.38 42.2379 105.687 43.036 106.037 43.8154C106.378 44.5986 106.751 45.3651 107.128 46.1317C107.505 46.8982 107.911 47.6517 108.331 48.3941C108.75 49.1365 109.177 49.8789 109.649 50.5861Z" fill="#263238"/>
<path d="M105.514 42.4289C105.443 42.2932 105.365 42.1619 105.28 42.0354C105.235 41.9742 105.196 41.9111 105.15 41.8498C105.103 41.7886 105.063 41.7273 105.011 41.6642C105.043 41.8176 105.106 41.9627 105.196 42.0911C105.281 42.2216 105.389 42.336 105.514 42.4289Z" fill="#263238"/>
<path d="M102.848 48.1844C103.184 48.2657 103.536 48.2432 103.858 48.1199C104.18 47.9966 104.457 47.7783 104.652 47.4939C105.059 46.8907 105.024 46.1223 104.907 45.4412C104.734 44.4334 104.446 43.4534 104.535 42.4196C104.606 41.564 104.849 40.6175 104.435 39.8045C104.435 39.8045 104.435 39.7915 104.435 39.786C104.235 39.0436 103.392 38.7485 102.709 38.9916C101.857 39.2923 101.447 40.1757 101.271 40.9998C100.892 42.867 100.965 44.7977 101.484 46.6309C101.675 47.3455 102.087 47.995 102.848 48.1844Z" fill="#EE553F"/>
<path opacity="0.3" d="M102.848 48.1844C103.184 48.2657 103.536 48.2432 103.858 48.1199C104.18 47.9966 104.457 47.7783 104.652 47.4939C105.059 46.8907 105.024 46.1223 104.907 45.4412C104.734 44.4334 104.446 43.4534 104.535 42.4196C104.606 41.564 104.849 40.6175 104.435 39.8045C104.435 39.8045 104.435 39.7915 104.435 39.786C104.235 39.0436 103.392 38.7485 102.709 38.9916C101.857 39.2923 101.447 40.1757 101.271 40.9998C100.892 42.867 100.965 44.7977 101.484 46.6309C101.675 47.3455 102.087 47.995 102.848 48.1844Z" fill="black"/>
<g opacity="0.1">
<path d="M104.042 42.4957C104.073 41.345 103.999 40.3001 103.544 39.2292C103.543 39.2256 103.543 39.2217 103.545 39.2182C103.546 39.2147 103.548 39.2118 103.552 39.2099C103.555 39.2079 103.559 39.2072 103.562 39.2076C103.566 39.2081 103.57 39.2098 103.572 39.2125C104.786 40.8829 103.862 43.279 104.264 45.1517C104.264 45.1721 104.233 45.1832 104.227 45.1609C103.995 44.2831 104.014 43.3977 104.042 42.4957Z" fill="black"/>
<path d="M103.851 47.6146C104.22 46.9928 104.38 46.2686 104.307 45.5489C104.307 45.5359 104.322 45.534 104.326 45.5489C104.418 45.9086 104.429 46.2846 104.355 46.6488C104.282 47.013 104.127 47.3559 103.903 47.6517C103.882 47.6721 103.828 47.6517 103.851 47.6146Z" fill="black"/>
<path d="M101.631 45.7623C101.452 44.8633 101.39 43.9451 101.445 43.0303C101.486 41.8703 101.581 39.7006 102.859 39.1457C102.871 39.1457 102.88 39.1587 102.871 39.1642C101.69 39.9345 101.622 41.7849 101.571 43.0507C101.523 44.58 101.571 46.4602 102.551 47.7315C102.574 47.7594 102.535 47.8002 102.507 47.7761C101.983 47.2805 101.787 46.4453 101.631 45.7623Z" fill="black"/>
<path d="M102.668 43.4219C102.618 42.0317 102.596 40.4523 103.164 39.1531C102.921 39.8584 102.884 40.6379 102.833 41.3803C102.78 42.1413 102.772 42.9049 102.809 43.6669C102.886 45.0904 103.103 46.5029 103.457 47.8837C103.47 47.9357 103.42 47.9375 103.403 47.8837C102.963 46.4354 102.715 44.9351 102.668 43.4219Z" fill="black"/>
<path d="M102.26 44.0399C102.26 44.0047 102.314 43.9954 102.316 44.0399C102.381 45.0875 102.568 46.124 102.872 47.1283C102.875 47.1345 102.875 47.1413 102.872 47.1474C102.87 47.1535 102.865 47.1583 102.859 47.1608C102.852 47.1633 102.845 47.1632 102.839 47.1606C102.833 47.158 102.829 47.153 102.826 47.1469C102.343 46.1873 102.258 45.0886 102.26 44.0399Z" fill="black"/>
</g>
<path d="M104.238 49.3221C104.559 49.4498 104.911 49.4769 105.248 49.3996C105.584 49.3224 105.889 49.1445 106.122 48.8896C106.607 48.3514 106.679 47.5904 106.661 46.8944C106.631 45.8718 106.475 44.8528 106.711 43.8506C106.896 43.0117 107.267 42.1078 106.978 41.2522C106.978 41.2522 106.978 41.2392 106.978 41.2318C106.883 40.4783 106.091 40.0588 105.38 40.2036C104.495 40.3892 103.966 41.2002 103.676 41.9909C103.039 43.7863 102.84 45.7082 103.097 47.596C103.194 48.318 103.513 49.0177 104.238 49.3221Z" fill="#EE553F"/>
<path opacity="0.4" d="M104.238 49.3221C104.559 49.4498 104.911 49.4769 105.248 49.3996C105.584 49.3224 105.889 49.1445 106.122 48.8896C106.607 48.3514 106.679 47.5904 106.661 46.8944C106.631 45.8718 106.475 44.8528 106.711 43.8506C106.896 43.0117 107.267 42.1078 106.978 41.2522C106.978 41.2522 106.978 41.2392 106.978 41.2318C106.883 40.4783 106.091 40.0588 105.38 40.2036C104.495 40.3892 103.966 41.2002 103.676 41.9909C103.039 43.7863 102.84 45.7082 103.097 47.596C103.194 48.318 103.513 49.0177 104.238 49.3221Z" fill="black"/>
<g opacity="0.1">
<path d="M106.215 43.8469C106.401 42.7129 106.482 41.6661 106.182 40.5432C106.181 40.5395 106.182 40.5358 106.183 40.5325C106.185 40.5292 106.188 40.5266 106.191 40.5251C106.195 40.5236 106.199 40.5233 106.202 40.5242C106.206 40.5252 106.209 40.5273 106.211 40.5302C107.18 42.3473 105.929 44.5967 106.067 46.5084C106.067 46.5138 106.064 46.519 106.061 46.5228C106.057 46.5267 106.052 46.5288 106.046 46.5288C106.041 46.5288 106.036 46.5267 106.032 46.5228C106.028 46.519 106.026 46.5138 106.026 46.5084C105.922 45.6101 106.065 44.7359 106.215 43.8469Z" fill="black"/>
<path d="M105.313 48.8897C105.765 48.3256 106.026 47.6317 106.055 46.9093C106.055 46.8963 106.072 46.8982 106.074 46.9093C106.115 47.2778 106.072 47.6509 105.949 48.0006C105.826 48.3503 105.625 48.6676 105.361 48.9286C105.334 48.9509 105.289 48.9175 105.313 48.8897Z" fill="black"/>
<path d="M103.372 46.7441C103.32 45.8292 103.388 44.9115 103.572 44.0139C103.773 42.8707 104.172 40.7344 105.514 40.3651C105.527 40.3651 105.534 40.3799 105.514 40.3855C104.238 40.9831 103.91 42.7983 103.693 44.0511C103.431 45.56 103.218 47.4271 104.008 48.8228C104.025 48.8544 103.98 48.8897 103.956 48.8618C103.509 48.3013 103.431 47.442 103.372 46.7441Z" fill="black"/>
<path d="M104.727 44.5726C104.871 43.188 105.072 41.6197 105.816 40.4189C105.476 41.0815 105.33 41.8517 105.178 42.5774C105.017 43.3227 104.902 44.077 104.832 44.8361C104.706 46.2569 104.719 47.6867 104.871 49.1049C104.871 49.1588 104.827 49.1532 104.819 49.1049C104.588 47.6049 104.557 46.0808 104.727 44.5726Z" fill="black"/>
<path d="M104.237 45.1257C104.237 45.0923 104.294 45.0904 104.292 45.1257C104.208 46.1715 104.247 47.2236 104.407 48.2605C104.408 48.2666 104.406 48.2728 104.402 48.2777C104.398 48.2827 104.393 48.2861 104.387 48.2875C104.381 48.2888 104.375 48.2879 104.369 48.285C104.364 48.2821 104.36 48.2774 104.357 48.2716C104.014 47.2638 104.088 46.1669 104.237 45.1257Z" fill="black"/>
</g>
<path d="M97.1782 42.9913C97.5754 43.1249 99.127 43.6984 98.767 44.1643C98.7354 44.207 98.4793 44.2496 98.431 44.2849C98.0988 44.5058 98.2083 44.8844 98.4812 45.1071C99.0509 45.573 99.9066 45.714 100.469 46.1836C101.796 47.2972 102.325 48.1046 102.325 48.1083C102.325 48.112 102.412 48.2363 102.431 48.1695C102.522 47.854 102.026 44.9364 101.688 43.7671C101.588 43.4274 101.391 42.8391 100.961 42.7927C100.59 42.7481 100.614 43.0859 100.552 43.3495C100.168 43.0971 99.8917 42.3751 99.6764 42.0187C99.4531 41.6279 99.192 41.2599 98.8969 40.92C98.5721 40.5562 97.8891 39.8565 97.3323 40.0421C96.9203 40.1757 97.4641 40.8457 97.0817 41.0146C96.9889 41.0555 96.7365 40.9385 96.5732 40.9088C96.5101 40.8977 95.4689 40.4486 95.1682 40.9088C94.4277 42.041 96.4785 42.7556 97.1782 42.9913Z" fill="#37474F"/>
<path d="M106.055 53.5909C106.557 53.3385 109.025 52.2193 109.109 52.1154C109.192 52.0115 107.752 48.1491 107.711 47.8188C107.67 47.4884 107.349 42.982 107.364 42.9096C107.379 42.8373 107.188 43.1138 107.178 43.1119C107.169 43.1101 107.048 42.8243 107.028 42.8076C107.008 42.7909 106.902 43.0414 106.881 43.0525C106.861 43.0637 106.753 42.7964 106.724 42.7909C106.694 42.7853 106.538 43.0544 106.538 43.0581C106.538 43.0618 106.276 42.7296 106.239 42.75C106.202 42.7704 106.1 43.0191 106.072 43.0303C106.044 43.0414 105.952 42.7797 105.92 42.7686C105.888 42.7574 105.822 42.9876 105.794 43.0006C105.766 43.0136 105.608 42.815 105.582 42.7909C105.556 42.7667 105.443 43.0061 105.415 43.0191C105.387 43.0321 105.25 42.7797 105.207 42.776C105.165 42.7723 105.074 43.0191 105.05 43.0173C105.025 43.0154 104.864 42.8707 104.814 42.8632C104.764 42.8558 104.697 43.0711 104.678 43.1008C104.66 43.1305 104.443 42.943 104.415 42.9505C104.387 42.9579 104.363 43.1658 104.342 43.175C104.322 43.1843 104.17 43.034 104.157 43.0396C104.144 43.0451 104.157 43.2641 104.144 43.2734C104.131 43.2827 103.997 43.1212 103.977 43.1119C103.938 43.2281 103.908 43.3473 103.888 43.4683C103.888 43.4683 104.697 48.4517 104.816 49.0047C104.934 49.5578 106.055 53.5909 106.055 53.5909Z" fill="#EE553F"/>
<path opacity="0.1" d="M106.055 53.5909C106.557 53.3385 109.025 52.2193 109.109 52.1154C109.192 52.0115 107.752 48.1491 107.711 47.8188C107.67 47.4884 107.349 42.982 107.364 42.9096C107.379 42.8373 107.188 43.1138 107.178 43.1119C107.169 43.1101 107.048 42.8243 107.028 42.8076C107.008 42.7909 106.902 43.0414 106.881 43.0525C106.861 43.0637 106.753 42.7964 106.724 42.7909C106.694 42.7853 106.538 43.0544 106.538 43.0581C106.538 43.0618 106.276 42.7296 106.239 42.75C106.202 42.7704 106.1 43.0191 106.072 43.0303C106.044 43.0414 105.952 42.7797 105.92 42.7686C105.888 42.7574 105.822 42.9876 105.794 43.0006C105.766 43.0136 105.608 42.815 105.582 42.7909C105.556 42.7667 105.443 43.0061 105.415 43.0191C105.387 43.0321 105.25 42.7797 105.207 42.776C105.165 42.7723 105.074 43.0191 105.05 43.0173C105.025 43.0154 104.864 42.8707 104.814 42.8632C104.764 42.8558 104.697 43.0711 104.678 43.1008C104.66 43.1305 104.443 42.943 104.415 42.9505C104.387 42.9579 104.363 43.1658 104.342 43.175C104.322 43.1843 104.17 43.034 104.157 43.0396C104.144 43.0451 104.157 43.2641 104.144 43.2734C104.131 43.2827 103.997 43.1212 103.977 43.1119C103.938 43.2281 103.908 43.3473 103.888 43.4683C103.888 43.4683 104.697 48.4517 104.816 49.0047C104.934 49.5578 106.055 53.5909 106.055 53.5909Z" fill="black"/>
<path d="M103.843 43.3476C103.828 43.5666 105.09 49.9643 105.328 50.6436C105.566 51.3229 106.139 53.5297 106.055 53.5909C105.972 53.6521 101.003 54.3333 100.916 54.3834C100.829 54.4335 99.4945 48.7245 99.3906 48.3718C99.2867 48.0192 98.1081 44.6394 98.1081 44.6394C98.2327 44.7143 98.3645 44.7764 98.5016 44.825C98.5461 44.8157 98.6575 44.6116 98.6983 44.5113C98.7391 44.4111 98.8709 44.6969 98.921 44.7118C98.9711 44.7266 99.0955 44.4427 99.14 44.3944C99.1846 44.3462 99.3758 44.5652 99.3999 44.5689C99.424 44.5726 99.4797 44.2626 99.5372 44.2404C99.5948 44.2181 99.7674 44.4575 99.8268 44.4445C99.8862 44.4315 99.9418 44.0993 99.9882 44.0882C100.035 44.077 100.307 44.3053 100.345 44.2961C100.382 44.2868 100.447 43.9249 100.499 43.9063C100.551 43.8877 100.792 44.1865 100.844 44.1754C100.896 44.1643 100.938 43.7411 101.005 43.7541C101.072 43.7671 101.287 44.0492 101.313 44.0251C101.339 44.0009 101.436 43.7151 101.467 43.6817C101.499 43.6483 101.742 43.9193 101.764 43.9137C101.787 43.9081 101.874 43.5221 101.896 43.5165C101.918 43.511 102.249 43.8339 102.267 43.8098C102.286 43.7857 102.377 43.4182 102.405 43.4015C102.433 43.3848 102.626 43.6576 102.65 43.652C102.691 43.5448 102.725 43.4351 102.752 43.3235C102.752 43.3124 102.937 43.5444 102.937 43.5407C102.937 43.5369 102.988 43.2957 103.006 43.2882C103.025 43.2808 103.14 43.4738 103.162 43.4738C103.184 43.4738 103.236 43.2233 103.259 43.2047C103.281 43.1862 103.396 43.407 103.418 43.4033C103.44 43.3996 103.567 43.1713 103.581 43.1695C103.596 43.1676 103.641 43.3087 103.658 43.3124C103.674 43.3161 103.817 43.1472 103.843 43.1472C103.869 43.1472 103.843 43.3476 103.843 43.3476Z" fill="#EE553F"/>
<path d="M112.923 51.4881C111.898 52.3455 109.953 52.3492 104.673 51.9762C103.941 51.9242 102.921 46.668 103.704 46.6829C104.689 46.7014 108.515 46.9891 108.791 47.0541C111.121 47.5218 113.609 50.9071 112.923 51.4881Z" fill="#EB9481"/>
<path d="M105.432 46.5771L107.266 52.674C107.266 52.674 112.791 52.6072 113.051 51.2876C113.286 50.0886 111.009 47.6183 109.339 47.0726C108.643 46.8444 105.432 46.5771 105.432 46.5771Z" fill="#455A64"/>
<path d="M105.499 46.7794L105.449 46.5734L105.437 46.5864C105.983 46.6569 106.531 46.7219 107.076 46.7961C107.622 46.8703 108.166 46.9409 108.704 47.0429C108.973 47.0873 109.238 47.1493 109.498 47.2285C109.755 47.3166 110.003 47.4265 110.241 47.5571C110.719 47.8258 111.151 48.1692 111.521 48.5741C111.189 48.1282 110.775 47.7502 110.3 47.4605C110.061 47.3141 109.808 47.194 109.543 47.1023C109.278 47.0156 109.008 46.9474 108.734 46.8982C108.188 46.7998 107.639 46.7311 107.089 46.6755C106.54 46.6198 105.991 46.5864 105.439 46.5715H105.423V46.5845L105.499 46.7794Z" fill="#263238"/>
<path d="M107.082 47.3417C107.154 47.6517 107.253 47.9579 107.344 48.2697C107.434 48.5816 107.529 48.8822 107.626 49.1848C107.822 49.7917 108.021 50.3986 108.229 51.0018C108.285 51.167 108.342 51.3322 108.401 51.4955C108.461 51.6588 108.55 51.8388 108.613 52.0152C108.613 52.03 108.639 52.0152 108.633 52.0152C108.589 51.8648 108.565 51.7089 108.522 51.5586C108.479 51.4082 108.431 51.2449 108.383 51.0909C108.289 50.7865 108.193 50.4821 108.095 50.1777C107.91 49.5708 107.702 48.9639 107.486 48.3625C107.366 48.0229 107.253 47.6777 107.115 47.3455C107.116 47.341 107.114 47.3366 107.112 47.3331C107.109 47.3296 107.105 47.3274 107.1 47.3269C107.096 47.3264 107.092 47.3277 107.088 47.3305C107.085 47.3333 107.082 47.3373 107.082 47.3417Z" fill="#263238"/>
<path d="M98.0988 47.3956C98.0543 47.5533 98.0591 47.7208 98.1125 47.8757C98.1659 48.0307 98.2654 48.1655 98.3976 48.2623C98.1843 48.4415 98.0405 48.6897 97.9912 48.9639C97.9281 49.4502 98.663 49.762 98.663 49.762C98.4819 49.9944 98.374 50.2754 98.3531 50.5693C98.3401 51.0408 99.0361 51.4621 99.0361 51.4621C98.9875 51.7673 99.0494 52.0799 99.2106 52.3437C99.6727 53.0285 100.935 52.9858 101.737 52.9673C102.538 52.9487 104.797 52.1414 105.243 52.0393L105.163 46.8889C105.163 46.8889 101.542 45.9609 100.601 46.1075C99.81 46.2319 98.2937 46.7998 98.0988 47.3956Z" fill="#EB9481"/>
<path d="M98.431 48.1788C99.2403 47.8373 100.101 47.7519 100.964 47.622C100.983 47.622 100.989 47.6498 100.964 47.6517C100.109 47.7761 99.2941 48.0656 98.4385 48.2234C98.4326 48.2243 98.4265 48.2229 98.4216 48.2195C98.4168 48.216 98.4135 48.2107 98.4125 48.2048C98.4115 48.1989 98.4129 48.1928 98.4164 48.188C98.4199 48.1831 98.4251 48.1798 98.431 48.1788Z" fill="#263238"/>
<path d="M98.6779 49.6933C98.8692 49.6327 99.0676 49.5977 99.2681 49.5894C99.4797 49.5671 99.6894 49.5485 99.901 49.5337C100.326 49.504 100.749 49.4836 101.174 49.4743C101.193 49.4743 101.198 49.504 101.174 49.504C100.753 49.5356 100.332 49.5727 99.9103 49.6209L99.2811 49.6989C99.0844 49.7383 98.884 49.7557 98.6835 49.7508C98.6575 49.749 98.6501 49.7044 98.6779 49.6933Z" fill="#263238"/>
<path d="M99.0547 51.4602C99.2279 51.4087 99.4086 51.3867 99.5892 51.3953L100.168 51.3637C100.554 51.3396 100.94 51.3155 101.326 51.2783C101.345 51.2783 101.351 51.3062 101.326 51.308C100.937 51.347 100.545 51.3934 100.153 51.4287L99.5762 51.4806C99.4025 51.5122 99.2246 51.5122 99.051 51.4806C99.0496 51.4804 99.0483 51.4799 99.0472 51.4792C99.046 51.4784 99.0451 51.4775 99.0443 51.4763C99.0435 51.4752 99.043 51.474 99.0427 51.4726C99.0424 51.4713 99.0424 51.4699 99.0426 51.4686C99.0429 51.4672 99.0434 51.466 99.0441 51.4648C99.0448 51.4637 99.0458 51.4627 99.0469 51.4619C99.048 51.4611 99.0493 51.4606 99.0506 51.4603C99.0519 51.46 99.0533 51.46 99.0547 51.4602Z" fill="#263238"/>
<path d="M107.266 52.674C108.802 52.52 110.371 52.3975 111.863 51.9873C112.231 51.9051 112.578 51.7477 112.882 51.5252C113.403 50.9684 113.266 50.0701 113.177 49.3648C113.113 48.9815 113.021 48.6032 112.904 48.2326C113.222 48.9534 113.388 49.7316 113.394 50.5192C113.394 51.1855 113.129 51.7312 112.475 51.9669C110.818 52.5831 109.012 52.6425 107.266 52.674Z" fill="#263238"/>
<path d="M27.9513 60.9333C27.9513 60.9333 26.37 60.2725 26.1324 59.8995C25.8948 59.5264 24.8666 57.9655 24.5066 57.9043C23.1498 57.676 19.4471 57.8152 18.1962 58.4833C17.515 58.8545 18.2333 61.555 18.8569 62.1953C19.4805 62.8357 23.946 62.9619 24.668 62.8171C25.39 62.6723 25.9208 61.9299 25.9208 61.9299L27.697 62.4236L27.9513 60.9333Z" fill="#EE553F"/>
<path d="M28.3893 58.9399C28.3893 58.9399 27.1866 59.1144 26.9045 59.3668C26.6224 59.6192 25.7018 61.6367 25.7594 62.3364C25.8169 63.0361 26.5537 63.7525 26.5537 63.7525L28.3893 58.9399Z" fill="#EE553F"/>
<path opacity="0.1" d="M28.3893 58.9399C28.3893 58.9399 27.1866 59.1144 26.9045 59.3668C26.6224 59.6192 25.7018 61.6367 25.7594 62.3364C25.8169 63.0361 26.5537 63.7525 26.5537 63.7525L28.3893 58.9399Z" fill="black"/>
<path d="M87.0983 60.9333C87.0983 60.9333 88.6815 60.2725 88.919 59.8995C89.1566 59.5264 90.1848 57.9655 90.5449 57.9043C91.9016 57.676 95.6044 57.8152 96.8553 58.4833C97.5364 58.8545 96.8182 61.555 96.1946 62.1953C95.5709 62.8357 91.1054 62.9619 90.3834 62.8171C89.6614 62.6723 89.1288 61.9299 89.1288 61.9299L87.3526 62.4236L87.0983 60.9333Z" fill="#EE553F"/>
<path d="M86.6603 58.9399C86.6603 58.9399 87.863 59.1144 88.1544 59.3668C88.4458 59.6192 89.3571 61.6367 89.2995 62.3364C89.242 63.0361 88.5033 63.7525 88.5033 63.7525L86.6603 58.9399Z" fill="#EE553F"/>
<path opacity="0.1" d="M86.6603 58.9399C86.6603 58.9399 87.863 59.1144 88.1544 59.3668C88.4458 59.6192 89.3571 61.6367 89.2995 62.3364C89.242 63.0361 88.5033 63.7525 88.5033 63.7525L86.6603 58.9399Z" fill="black"/>
<path d="M28.1109 77.1361H20.9059C19.7527 77.1361 18.8179 78.071 18.8179 79.2241V98.7845C18.8179 99.9377 19.7527 100.873 20.9059 100.873H28.1109C29.2641 100.873 30.1989 99.9377 30.1989 98.7845V79.2241C30.1989 78.071 29.2641 77.1361 28.1109 77.1361Z" fill="#263238"/>
<path d="M22.58 70.2764C22.58 70.2764 19.9408 71.622 19.3209 72.8636C18.701 74.1053 19.3209 86.934 19.3209 87.9176C19.3209 88.9013 21.2326 95.3156 21.5964 95.9875C21.9601 96.6594 26.9788 97.4371 26.9788 97.4371L22.58 70.2764Z" fill="#EE553F"/>
<path opacity="0.1" d="M22.58 70.2764C22.58 70.2764 19.9408 71.622 19.3209 72.8636C18.701 74.1053 19.3209 86.934 19.3209 87.9176C19.3209 88.9013 21.2326 95.3156 21.5964 95.9875C21.9601 96.6594 26.9788 97.4371 26.9788 97.4371L22.58 70.2764Z" fill="black"/>
<path d="M86.9405 100.871H94.1455C95.2987 100.871 96.2335 99.9358 96.2335 98.7827V79.2223C96.2335 78.0691 95.2987 77.1343 94.1455 77.1343H86.9405C85.7874 77.1343 84.8525 78.0691 84.8525 79.2223V98.7827C84.8525 99.9358 85.7874 100.871 86.9405 100.871Z" fill="#263238"/>
<path d="M92.4714 70.2764C92.4714 70.2764 95.1107 71.622 95.7306 72.8636C96.3505 74.1053 95.7306 86.934 95.7306 87.9176C95.7306 88.9013 93.8189 95.3156 93.4551 95.9875C93.0913 96.6594 88.0727 97.4371 88.0727 97.4371L92.4714 70.2764Z" fill="#EE553F"/>
<path opacity="0.1" d="M92.4714 70.2764C92.4714 70.2764 95.1107 71.622 95.7306 72.8636C96.3505 74.1053 95.7306 86.934 95.7306 87.9176C95.7306 88.9013 93.8189 95.3156 93.4551 95.9875C93.0913 96.6594 88.0727 97.4371 88.0727 97.4371L92.4714 70.2764Z" fill="black"/>
<path d="M93.4978 91.6166C93.4718 91.9526 92.3322 96.7652 91.8664 97.2552C91.4005 97.7452 82.089 98.1349 81.5192 98.1349C80.9494 98.1349 79.1676 97.1271 78.8317 97.0492C78.4957 96.9712 59.8095 97.0213 57.5267 97.0213C55.2438 97.0213 36.5539 96.9675 36.2216 97.0473C35.8894 97.1271 34.1002 98.1349 33.5304 98.1349C32.9606 98.1349 23.6509 97.747 23.1832 97.2552C22.7155 96.7633 21.5797 91.9526 21.5537 91.6166C21.5277 91.2807 21.8915 90.091 21.8915 89.8312C21.8915 89.5713 21.6131 71.5514 21.6892 71.2006C21.7652 70.8499 22.5039 68.4074 22.8362 67.884C23.1684 67.3606 26.1139 63.6356 26.1918 63.4017C28.0051 57.9599 33.0776 49.9977 33.8552 49.2961C34.5809 48.6506 35.476 48.2262 36.4351 48.073C37.2109 47.9784 47.7066 47.5905 57.5267 47.5905C67.3468 47.5905 77.8424 47.9784 78.6164 48.073C79.5759 48.2265 80.4716 48.6508 81.1981 49.2961C81.972 49.9958 87.0445 57.9581 88.8597 63.4017C88.9376 63.6356 91.8868 67.3606 92.2153 67.884C92.5438 68.4074 93.2825 70.8536 93.3586 71.2006C93.4347 71.5477 93.1619 89.5751 93.1619 89.8312C93.1619 90.0873 93.5238 91.2807 93.4978 91.6166Z" fill="#EE553F"/>
<path opacity="0.1" d="M91.239 88.4076C91.239 88.7194 90.8177 91.1341 90.5449 91.2009C83.0522 93.0662 65.0564 94.6308 57.5267 94.5083C49.995 94.6308 31.9992 93.0662 24.5066 91.2009C24.2337 91.1341 23.8143 88.7194 23.8143 88.4076C23.8143 88.0958 24.1242 84.6585 24.5066 84.5545C24.8889 84.4506 32.8159 85.876 39.4808 86.7613C45.466 87.5184 51.4937 87.8904 57.5267 87.8749C63.559 87.8903 69.586 87.5183 75.5707 86.7613C82.2337 85.876 90.1607 84.4506 90.5449 84.5545C90.9291 84.6585 91.239 88.0977 91.239 88.4076Z" fill="black"/>
<path opacity="0.5" d="M83.9171 85.5234L81.3707 92.7804C73.0632 93.8643 62.7643 94.5937 57.5285 94.5083C52.2927 94.5937 41.9975 93.8643 33.69 92.7804L31.138 85.5234C33.716 85.9299 36.706 86.392 39.49 86.7613C45.4747 87.5184 51.5018 87.8904 57.5341 87.8749C63.567 87.8903 69.5947 87.5184 75.58 86.7613C78.3454 86.392 81.341 85.9299 83.9171 85.5234Z" fill="white"/>
<path d="M75.5707 86.7613C75.6078 86.934 74.175 89.7811 73.0948 91.4737C72.7737 91.9786 71.2239 93.1441 70.8676 93.2202C70.5112 93.2963 66.042 94.5083 57.5304 94.5083C49.0188 94.5083 44.5551 93.2963 44.1913 93.2202C43.8275 93.1441 42.2815 91.9786 41.9641 91.4737C40.8839 89.7811 39.4511 86.934 39.4882 86.7613C39.5253 86.5887 44.8706 87.8749 57.5341 87.8749C70.1976 87.8749 75.5391 86.5887 75.5707 86.7613Z" fill="#263238"/>
<path d="M28.3839 89.8227C29.186 89.4904 29.567 88.5709 29.2347 87.7687C28.9025 86.9666 27.9829 86.5857 27.1807 86.918C26.3786 87.2502 25.9977 88.1698 26.33 88.9719C26.6622 89.774 27.5818 90.1549 28.3839 89.8227Z" fill="white"/>
<path d="M26.6707 87.2587C27.6581 86.2305 29.5066 86.9172 29.553 88.3723C29.561 88.6071 29.5207 88.841 29.4346 89.0596C29.3485 89.2781 29.2184 89.4766 29.0524 89.6428C28.8864 89.809 28.688 89.9393 28.4695 90.0257C28.2511 90.112 28.0172 90.1526 27.7824 90.1448C26.3273 90.0984 25.6424 88.248 26.6688 87.2606L26.6707 87.2587ZM26.6707 87.2587C26.5295 87.4015 26.4191 87.5718 26.3465 87.7589C26.2738 87.9461 26.2403 88.1462 26.2482 88.3469C26.256 88.5475 26.3049 88.7444 26.392 88.9253C26.479 89.1062 26.6023 89.2674 26.7542 89.3987C28.1425 90.5123 29.9279 88.7287 28.8106 87.3404C28.679 87.1889 28.5177 87.066 28.3367 86.9793C28.1557 86.8925 27.9589 86.8438 27.7583 86.8362C27.5578 86.8285 27.3578 86.8621 27.1707 86.9348C26.9836 87.0074 26.8135 87.1177 26.6707 87.2587Z" fill="#DBDBDB"/>
<path d="M87.6308 90.076C88.473 89.859 88.9797 89.0003 88.7627 88.1581C88.5456 87.316 87.687 86.8092 86.8448 87.0263C86.0026 87.2433 85.4959 88.102 85.713 88.9442C85.93 89.7863 86.7887 90.2931 87.6308 90.076Z" fill="white"/>
<path d="M88.2101 87.2587C88.0673 87.1177 87.8971 87.0074 87.71 86.9348C87.5229 86.8621 87.3229 86.8285 87.1224 86.8362C86.9218 86.8438 86.725 86.8925 86.544 86.9793C86.363 87.066 86.2017 87.1889 86.0701 87.3404C84.9565 88.7287 86.7401 90.516 88.1265 89.3987C88.2784 89.2674 88.4017 89.1062 88.4887 88.9253C88.5758 88.7444 88.6247 88.5475 88.6326 88.3468C88.6404 88.1462 88.6069 87.9461 88.5342 87.7589C88.4616 87.5718 88.3512 87.4015 88.2101 87.2587ZM88.2101 87.2587C89.2383 88.2461 88.5534 90.0966 87.0965 90.143C86.8617 90.1507 86.6278 90.1102 86.4094 90.0238C86.1909 89.9375 85.9925 89.8072 85.8265 89.641C85.6605 89.4748 85.5304 89.2763 85.4442 89.0577C85.3581 88.8392 85.3178 88.6053 85.3258 88.3705C85.3722 86.9172 87.2208 86.2305 88.2082 87.2569L88.2101 87.2587Z" fill="#DBDBDB"/>
<path d="M87.4435 63.1382C87.4435 63.1382 73.4233 63.7525 57.5267 63.7525C41.63 63.7525 27.6079 63.1382 27.6079 63.1382C30.4773 55.9462 34.2301 50.3856 34.644 50.0756C35.0579 49.7657 36.5316 49.2219 36.9436 49.118C38.7068 48.6781 51.2998 48.6001 57.5267 48.6001C63.7535 48.6001 76.3428 48.6781 78.106 49.118C78.5199 49.2219 79.9954 49.7657 80.4093 50.0756C80.8232 50.3856 84.5742 55.9462 87.4435 63.1382Z" fill="#455A64"/>
<path d="M87.4435 63.1382C87.4435 63.1382 73.4233 63.7525 57.5267 63.7525C41.63 63.7525 27.6079 63.1382 27.6079 63.1382C27.8789 62.4626 28.1555 61.7981 28.4357 61.1541C31.6633 61.284 43.9055 61.7332 57.5267 61.7332C71.1478 61.7332 83.3882 61.284 86.6158 61.1541C86.896 61.7981 87.1726 62.4626 87.4435 63.1382Z" fill="#263238"/>
<g opacity="0.7">
<path d="M52.8922 57.2287H33.317C33.0463 57.2289 32.7845 57.3256 32.5787 57.5015C32.3729 57.6773 32.2365 57.9208 32.1941 58.1882L31.693 61.3434C31.6673 61.5049 31.6769 61.6701 31.7209 61.8276C31.765 61.9851 31.8425 62.1312 31.9482 62.256C32.054 62.3808 32.1854 62.4812 32.3336 62.5505C32.4817 62.6198 32.643 62.6563 32.8066 62.6575H53.3933C53.5577 62.6576 53.7201 62.6221 53.8693 62.5534C54.0186 62.4847 54.1512 62.3844 54.2579 62.2595C54.3647 62.1346 54.4431 61.988 54.4877 61.8298C54.5323 61.6717 54.542 61.5057 54.5162 61.3434L54.0151 58.1882C53.9727 57.9208 53.8364 57.6773 53.6305 57.5015C53.4247 57.3256 53.1629 57.2289 52.8922 57.2287Z" fill="#263238"/>
<path d="M49.325 53.5668H36.8842C36.4896 53.5668 36.1697 53.8867 36.1697 54.2813V57.7409C36.1697 58.1356 36.4896 58.4555 36.8842 58.4555H49.325C49.7196 58.4555 50.0395 58.1356 50.0395 57.7409V54.2813C50.0395 53.8867 49.7196 53.5668 49.325 53.5668Z" fill="#263238"/>
</g>
<g opacity="0.7">
<path d="M81.7419 57.2287H62.1592C61.8885 57.2289 61.6267 57.3256 61.4209 57.5015C61.2151 57.6773 61.0787 57.9208 61.0363 58.1882L60.5352 61.3434C60.5094 61.5057 60.5192 61.6717 60.5638 61.8298C60.6084 61.988 60.6867 62.1346 60.7935 62.2595C60.9003 62.3844 61.0328 62.4847 61.1821 62.5534C61.3314 62.6221 61.4938 62.6576 61.6581 62.6575H82.2356C82.3991 62.6563 82.5605 62.6198 82.7086 62.5505C82.8568 62.4812 82.9882 62.3808 83.0939 62.256C83.1997 62.1312 83.2772 61.9851 83.3213 61.8276C83.3653 61.6701 83.3748 61.5049 83.3492 61.3434L82.8481 58.1882C82.8061 57.9236 82.6722 57.6824 82.4699 57.5068C82.2675 57.3313 82.0097 57.2328 81.7419 57.2287Z" fill="#263238"/>
<path d="M78.1672 53.5668H65.7265C65.3318 53.5668 65.0119 53.8867 65.0119 54.2813V57.7409C65.0119 58.1356 65.3318 58.4555 65.7265 58.4555H78.1672C78.5619 58.4555 78.8818 58.1356 78.8818 57.7409V54.2813C78.8818 53.8867 78.5619 53.5668 78.1672 53.5668Z" fill="#263238"/>
</g>
<path d="M81.6472 62.4552H62.2465L64.1025 59.8141L71.9459 59.3965L79.7894 59.8141L81.6472 62.4552Z" fill="#263238"/>
<path d="M71.9459 55.7995C70.744 55.801 69.5918 56.2793 68.742 57.1293C67.8923 57.9794 67.4146 59.1318 67.4136 60.3338C67.4137 60.9472 67.5385 61.5542 67.7804 62.1179C68.0222 62.6817 68.376 63.1904 68.8204 63.6133L70.3869 63.5818C69.7753 63.288 69.2592 62.8274 68.898 62.2531C68.5368 61.6788 68.3452 61.0141 68.3453 60.3356C68.3446 59.8147 68.4569 59.2997 68.6745 58.8264C68.8921 58.3531 69.2099 57.9326 69.6058 57.5941C70.0018 57.2555 70.4664 57.0069 70.9678 56.8653C71.4692 56.7238 71.9953 56.6928 72.5098 56.7744C73.0243 56.856 73.515 57.0482 73.948 57.3379C74.381 57.6276 74.746 58.0077 75.0178 58.4522C75.2896 58.8966 75.4616 59.3948 75.5222 59.9122C75.5827 60.4296 75.5302 60.954 75.3684 61.4492C75.0823 62.3326 74.4667 63.0718 73.6497 63.5131L75.2199 63.4704C75.7683 62.9006 76.1568 62.1965 76.3465 61.4288C76.4341 61.0754 76.4777 60.7126 76.4764 60.3486C76.4779 59.7524 76.3618 59.1617 76.1349 58.6103C75.908 58.0589 75.5746 57.5577 75.1539 57.1352C74.7331 56.7128 74.2332 56.3774 73.6828 56.1482C73.1324 55.919 72.5422 55.8005 71.9459 55.7995Z" fill="#263238"/>
<path d="M72.0387 60.8646L68.6422 58.1715L69.2213 57.4402L72.0387 59.6749L74.858 57.4402L75.4371 58.1715L72.0387 60.8646Z" fill="#263238"/>
<g opacity="0.1">
<path d="M52.547 48.615L37.699 63.4723C36.3998 63.4388 35.2027 63.4036 34.1151 63.372L48.8387 48.6465C50.0878 48.6335 51.3443 48.6224 52.547 48.615Z" fill="white"/>
<path d="M80.8937 50.677L67.9017 63.669C66.6879 63.6857 65.4388 63.7024 64.1674 63.7154L78.609 49.2739C79.2196 49.4836 80.1049 49.8437 80.4111 50.0719C80.5897 50.2589 80.7512 50.4614 80.8937 50.677Z" fill="white"/>
<path d="M86.3819 60.6233L83.7222 63.2811C82.6476 63.3182 81.367 63.3609 79.9156 63.4017L85.1978 58.1195C85.5912 58.9139 85.9866 59.751 86.3819 60.6233Z" fill="white"/>
<path d="M47.6546 48.6614L32.9811 63.3349L32.4243 63.3182L47.0755 48.6688L47.6546 48.6614Z" fill="white"/>
<path d="M65.4091 48.641L50.3347 63.7117H49.7779L64.8523 48.6335C65.0379 48.6354 65.2235 48.6354 65.4091 48.641Z" fill="white"/>
<path d="M84.4943 56.7461L77.7682 63.4723L77.1854 63.489L84.2976 56.3749L84.4943 56.7461Z" fill="white"/>
<path d="M39.6311 48.8711L29.3526 59.1589C29.7776 58.2662 30.2045 57.418 30.6202 56.6255L38.2836 48.9509C38.6715 48.9231 39.1244 48.8952 39.6311 48.8711Z" fill="white"/>
<path d="M70.3665 48.7096L55.3329 63.7432H54.0726L69.1211 48.6874C69.5443 48.6929 69.96 48.7041 70.3665 48.7096Z" fill="white"/>
</g>
<path opacity="0.1" d="M27.6079 63.1382C26.9546 64.662 26.06 66.0874 25.1524 67.4701L25.0559 67.6167C25.0077 67.7763 25.1914 68.1067 25.2879 68.2774C25.4271 68.5262 25.5886 68.7637 25.7482 69.0087C25.3566 68.6988 24.449 67.9322 24.7645 67.3754C25.5534 65.8626 26.507 64.4416 27.6079 63.1382Z" fill="black"/>
<path opacity="0.1" d="M87.4435 63.1382C88.5444 64.442 89.4986 65.863 90.2888 67.3754C90.6043 67.9322 89.6948 68.6969 89.3032 69.0087C89.4628 68.7637 89.6262 68.5262 89.7635 68.2774C89.86 68.1086 90.0456 67.7763 89.9955 67.6167C89.9732 67.5796 89.9231 67.5072 89.899 67.4701C88.9914 66.0874 88.0968 64.6638 87.4435 63.1382Z" fill="black"/>
<path opacity="0.1" d="M92.8927 74.8699C92.8927 75.1985 92.8779 77.0842 92.6218 77.2382C91.9053 77.6669 88.7446 78.6673 86.7717 79.033C77.5399 80.7349 64.1285 81.6945 57.5267 81.585C50.9304 81.6945 37.5116 80.7349 28.2798 79.033C26.3087 78.6618 23.1461 77.6669 22.4297 77.2382C22.1736 77.0842 22.1587 75.1966 22.1587 74.8699C22.1587 74.5433 24.3544 70.1539 24.7571 70.0443C25.1599 69.9348 29.7238 72.5277 37.3612 73.903C45.1917 75.3117 57.5211 75.3488 57.5211 75.3488C57.5211 75.3488 69.8486 75.3117 77.6791 73.903C85.3165 72.5277 89.8749 70.1668 90.2832 70.2782C90.6915 70.3896 92.8927 74.5396 92.8927 74.8699Z" fill="black"/>
<path opacity="0.5" d="M92.6218 77.2382C89.9881 78.6432 87.0538 79.3763 84.1306 79.8793C81.2055 80.4188 78.2687 80.8741 75.3201 81.2453C69.4181 81.9877 63.4844 82.5816 57.5267 82.5724C47.8588 82.4907 38.2243 81.2824 28.7327 79.4543C26.5375 79.0095 24.4141 78.2644 22.4223 77.2401C24.457 78.1291 26.596 78.757 28.7884 79.1091C38.2985 80.4825 47.9052 81.5887 57.5192 81.6388C63.4325 81.6741 69.3438 81.108 75.2273 80.5252C78.1728 80.2078 81.1164 79.857 84.0489 79.4339C85.5114 79.2186 86.9851 79.0534 88.4142 78.6673C89.8433 78.2813 91.2725 77.8655 92.6143 77.2401L92.6218 77.2382Z" fill="white"/>
<path d="M26.4331 69.1702C28.0255 69.3168 35.5832 74.0106 35.8987 74.3967C36.2142 74.7827 36.9826 78.6655 36.5075 79.0367C36.0323 79.4079 30.3177 79.2223 28.5972 78.9476C26.8767 78.6729 23.3206 77.7059 22.5206 77.0916C21.7207 76.4772 22.335 72.1379 23.1201 71.2674C24.1409 70.1576 25.4197 69.0755 26.4331 69.1702Z" fill="white"/>
<path d="M26.4331 69.1702C26.8426 69.2522 27.2407 69.3831 27.6191 69.5599C28.7679 70.061 29.8667 70.6735 30.9599 71.2656C32.6006 72.1843 34.2468 73.103 35.8096 74.1591C36.0038 74.2954 36.1402 74.4992 36.1919 74.7307C36.3226 75.1331 36.4323 75.542 36.5204 75.9557C36.721 76.7822 36.833 77.6278 36.8545 78.478C36.8415 78.9643 36.7599 79.2872 36.2272 79.3522C34.863 79.5508 33.4859 79.4784 32.118 79.4524C30.8578 79.3912 29.5939 79.3503 28.3466 79.1276C26.4906 78.7564 24.6532 78.2553 22.9252 77.4776C22.7206 77.3851 22.5326 77.2597 22.3684 77.1064C21.9044 76.364 22.0696 75.4026 22.1235 74.5767C22.2886 73.4631 22.439 72.24 23.0849 71.2804C23.9646 70.3858 25.0856 69.1498 26.4257 69.1665L26.4331 69.1702ZM26.4331 69.1702C25.1506 69.1702 24.1688 70.2299 23.328 71.0818C23.0375 71.3803 22.8285 71.7484 22.7211 72.1509C22.48 72.9469 22.3293 73.7674 22.2719 74.5971C22.2099 75.212 22.2299 75.8324 22.3313 76.442C22.3981 76.7482 22.4872 76.9821 22.7712 77.1157C24.1688 77.7876 25.7092 78.1142 27.2108 78.4706C28.8255 78.8603 30.4866 78.929 32.1421 78.9903C32.9718 79.0237 33.8125 79.0422 34.6329 79.0311C35.2064 79.0088 35.8374 79.0404 36.3794 78.8882C36.4087 78.846 36.426 78.7966 36.4295 78.7453C36.5372 77.8562 36.3627 76.9282 36.2161 76.0225C36.1386 75.5172 36.0143 75.0201 35.8449 74.5377C35.8189 74.4653 35.7409 74.4226 35.6704 74.3521C34.1559 73.2552 32.5523 72.2753 30.9432 71.3138C29.87 70.6687 28.7622 70.0832 27.6246 69.5599C27.2483 69.3793 26.8512 69.2453 26.4424 69.1609L26.4331 69.1702Z" fill="#DBDBDB"/>
<path d="M30.3641 74.959C30.3845 76.841 28.0701 77.873 26.6781 76.5682C26.4605 76.3603 26.2873 76.1104 26.169 75.8336C26.0507 75.5569 25.9897 75.2591 25.9897 74.9581C25.9897 74.6572 26.0507 74.3593 26.169 74.0826C26.2873 73.8059 26.4605 73.556 26.6781 73.348C28.0701 72.0488 30.3901 73.0771 30.366 74.959H30.3641ZM30.3641 74.959C30.3752 73.1829 28.1369 72.3235 26.962 73.6339C26.6309 73.9961 26.4473 74.4692 26.4473 74.96C26.4473 75.4508 26.6309 75.9238 26.962 76.2861C28.1332 77.5983 30.3771 76.7352 30.366 74.959H30.3641Z" fill="#DBDBDB"/>
<path d="M34.5995 76.3362C34.631 77.9286 32.6284 78.8381 31.4443 77.7226C31.2551 77.5444 31.1044 77.3294 31.0014 77.0908C30.8984 76.8523 30.8453 76.5951 30.8453 76.3353C30.8453 76.0754 30.8984 75.8183 31.0014 75.5797C31.1044 75.3411 31.2551 75.1261 31.4443 74.9479C32.621 73.8343 34.6255 74.7437 34.5995 76.3362ZM34.5995 76.3362C34.5995 74.831 32.7194 74.122 31.7357 75.2337C30.8077 76.2081 31.4925 77.9064 32.8381 77.9825C33.0634 77.9963 33.2891 77.9641 33.5015 77.8878C33.7138 77.8115 33.9084 77.6926 34.0733 77.5385C34.2381 77.3844 34.3698 77.1983 34.4603 76.9916C34.5508 76.7849 34.5982 76.5618 34.5995 76.3362Z" fill="#DBDBDB"/>
<path d="M25.7464 73.0158C25.5032 73.7229 25.2434 77.1621 25.3752 77.6168C25.4839 77.8751 25.6358 78.113 25.8243 78.3202C24.3989 77.9342 22.9995 77.4572 22.5318 77.0971C21.7318 76.4828 22.3462 72.1435 23.1331 71.2749C24.1409 70.1613 25.4216 69.0737 26.4424 69.1702C26.8024 69.2036 27.4706 69.4708 28.2984 69.868C28.2891 69.868 25.9876 72.3087 25.7464 73.0158Z" fill="#EE553F"/>
<path opacity="0.2" d="M25.7464 73.0158C25.5032 73.7211 25.2434 77.1621 25.3752 77.6168C25.4839 77.8751 25.6358 78.113 25.8243 78.3203C24.3989 77.9342 22.9995 77.4572 22.5318 77.0971C21.7318 76.4828 22.3462 72.1435 23.1331 71.273C24.1409 70.1594 25.4216 69.0737 26.4424 69.1702C26.8024 69.2036 27.4706 69.469 28.2984 69.868C28.2891 69.868 25.9876 72.3087 25.7464 73.0158Z" fill="black"/>
<path d="M88.6091 69.1702C87.0185 69.3168 79.459 74.0106 79.1435 74.3967C78.828 74.7827 78.0596 78.6655 78.5366 79.0367C79.0136 79.4079 84.7245 79.2223 86.445 78.9476C88.1655 78.6729 91.7216 77.7059 92.5234 77.0916C93.3252 76.4772 92.709 72.1379 91.922 71.2674C90.9105 70.1576 89.6317 69.0755 88.6091 69.1702Z" fill="white"/>
<path d="M88.6091 69.1702C88.2002 69.2546 87.8032 69.3886 87.4268 69.5692C86.2893 70.0925 85.1814 70.678 84.1083 71.3231C82.501 72.2845 80.8955 73.2645 79.381 74.3614C79.3105 74.4264 79.2326 74.4691 79.2084 74.547C79.035 75.0288 78.9076 75.526 78.828 76.0318C78.6813 76.9375 78.5069 77.8655 78.6145 78.7546C78.6275 78.8399 78.6702 78.9197 78.6665 78.8975C78.7373 78.9233 78.8107 78.9414 78.8855 78.9513C80.2107 79.1072 81.5656 79.0348 82.9019 78.9995C84.5574 78.9383 86.2186 78.8696 87.8333 78.4799C89.3348 78.1235 90.8753 77.7969 92.2728 77.125C92.5549 76.9914 92.644 76.7538 92.7127 76.4513C92.816 75.8418 92.836 75.2212 92.7721 74.6064C92.7157 73.7734 92.5644 72.9496 92.3211 72.1509C92.2129 71.7495 92.0032 71.3826 91.7123 71.0856C90.8734 70.2337 89.8897 69.172 88.6072 69.1739L88.6091 69.1702ZM88.6091 69.1702C89.9584 69.1516 91.0757 70.3896 91.9499 71.2842C92.5958 72.2437 92.7461 73.4575 92.9131 74.5804C92.9651 75.4119 93.1303 76.3585 92.6663 77.1101C92.5022 77.2634 92.3141 77.3888 92.1095 77.4813C90.3816 78.259 88.5404 78.7508 86.6881 79.1313C84.6075 79.4635 82.5028 79.5025 80.4018 79.4784C79.8682 79.4754 79.3354 79.4345 78.8075 79.3559C78.677 79.3375 78.551 79.2947 78.4363 79.2297C78.3753 79.1799 78.3246 79.1185 78.2874 79.0491C78.2501 78.9796 78.2269 78.9035 78.2192 78.8251C78.1078 77.8525 78.338 76.9023 78.5199 75.9594C78.6081 75.5457 78.7177 75.1368 78.8484 74.7345C78.9006 74.5031 79.0369 74.2995 79.2307 74.1628C80.7935 73.1067 82.4397 72.188 84.0804 71.2693C85.1792 70.6698 86.2779 70.0648 87.4212 69.5636C87.7992 69.386 88.1975 69.2551 88.6072 69.1739L88.6091 69.1702Z" fill="#DBDBDB"/>
<path d="M84.6874 74.959C84.6762 76.7352 86.9146 77.5983 88.0913 76.2861C88.4224 75.9238 88.606 75.4508 88.606 74.96C88.606 74.4692 88.4224 73.9961 88.0913 73.6339C86.922 72.3235 84.6799 73.1828 84.6892 74.959H84.6874ZM84.6874 74.959C84.6669 73.0771 86.9832 72.0433 88.3752 73.348C88.5928 73.556 88.766 73.8059 88.8843 74.0826C89.0026 74.3593 89.0636 74.6572 89.0636 74.9581C89.0636 75.2591 89.0026 75.5569 88.8843 75.8336C88.766 76.1104 88.5928 76.3602 88.3752 76.5682C86.9851 77.8674 84.6632 76.841 84.6892 74.959H84.6874Z" fill="#DBDBDB"/>
<path d="M80.4594 76.3362C80.4607 76.5618 80.5081 76.7849 80.5986 76.9916C80.6891 77.1983 80.8208 77.3844 80.9856 77.5385C81.1505 77.6926 81.3451 77.8115 81.5574 77.8878C81.7698 77.9641 81.9955 77.9963 82.2207 77.9825C84.2438 77.782 84.2438 74.8922 82.2207 74.6918C81.9957 74.6779 81.7701 74.71 81.5579 74.7862C81.3456 74.8625 81.1511 74.9811 80.9863 75.135C80.8215 75.2889 80.6897 75.4748 80.5991 75.6813C80.5085 75.8879 80.461 76.1107 80.4594 76.3362ZM80.4594 76.3362C80.4278 74.7437 82.4323 73.8324 83.6146 74.9479C83.8037 75.1261 83.9545 75.3411 84.0575 75.5797C84.1605 75.8183 84.2136 76.0754 84.2136 76.3353C84.2136 76.5951 84.1605 76.8522 84.0575 77.0908C83.9545 77.3294 83.8037 77.5444 83.6146 77.7226C82.4379 78.8362 80.4353 77.9286 80.4594 76.3362Z" fill="#DBDBDB"/>
<path d="M89.3051 73.0158C89.5482 73.7229 89.8081 77.1621 89.6763 77.6168C89.5676 77.8751 89.4157 78.113 89.2271 78.3202C90.6525 77.9342 92.052 77.4572 92.5197 77.0971C93.3196 76.4828 92.7053 72.1435 91.9183 71.2749C90.9105 70.1613 89.6299 69.0737 88.6091 69.1702C88.2509 69.2036 87.5809 69.4708 86.7642 69.868C86.7661 69.868 89.0638 72.3087 89.3051 73.0158Z" fill="#EE553F"/>
<path opacity="0.2" d="M89.3051 73.0158C89.5482 73.7211 89.8081 77.1621 89.6763 77.6168C89.5676 77.8751 89.4157 78.113 89.2271 78.3203C90.6525 77.9342 92.052 77.4572 92.5197 77.0971C93.3196 76.4828 92.7053 72.1435 91.9183 71.273C90.9105 70.1594 89.6299 69.0737 88.6091 69.1702C88.2509 69.2036 87.5809 69.469 86.7642 69.868C86.7661 69.868 89.0638 72.3087 89.3051 73.0158Z" fill="black"/>
<path d="M77.6847 73.9011C77.7255 74.0737 75.8046 78.2033 75.4575 78.71C75.1104 79.2167 73.4419 80.0872 73.0447 80.1633C72.6475 80.2394 66.6842 81.4513 57.523 81.4513C48.3617 81.4513 42.3873 80.2412 41.9975 80.1633C41.6077 80.0853 39.9411 79.2148 39.594 78.71C39.2469 78.2052 37.3222 74.07 37.3668 73.9011C37.4113 73.7322 43.1464 74.8477 46.619 74.9832C48.3265 75.0518 53.681 75.3544 57.5267 75.3544C61.3723 75.3544 66.725 75.0593 68.4325 74.9832C71.9051 74.8477 77.6476 73.7285 77.6847 73.9011Z" fill="#37474F"/>
<path d="M41.1437 74.3911C41.927 74.5025 42.764 74.6194 43.5955 74.7178H37.6786C37.6248 74.599 37.5784 74.4895 37.5394 74.3911H41.1437ZM73.9077 74.3911C73.1263 74.5025 72.2874 74.6194 71.4578 74.7178H77.3729C77.4267 74.599 77.4731 74.4895 77.5121 74.3911H73.9077ZM61.1013 75.2876C59.8689 75.321 58.6402 75.347 57.5341 75.347C56.4279 75.347 55.1974 75.321 53.965 75.2876H37.9291C37.9755 75.3915 38.0238 75.4991 38.0758 75.6105H76.9757C77.0276 75.4991 77.0759 75.3915 77.1223 75.2876H61.1013ZM38.3449 76.1803C38.3931 76.2898 38.4451 76.3974 38.4971 76.5051H76.5636C76.6138 76.3974 76.6657 76.2898 76.714 76.1803H38.3449ZM38.7643 77.0749L38.924 77.4015H76.1349L76.2945 77.0749H38.7643ZM39.2005 77.9676L39.3694 78.2943H75.6895L75.8584 77.9676H39.2005ZM39.735 78.8622C39.8615 78.9811 39.9967 79.0903 40.1396 79.1889H74.9192C75.0625 79.0908 75.1978 78.9816 75.3238 78.8622H39.735ZM41.0862 79.7587C41.3068 79.8781 41.5336 79.9859 41.7655 80.0816H73.2989C73.5316 79.9863 73.759 79.8785 73.9801 79.7587H41.0862ZM45.0191 80.6514C45.8004 80.759 46.7229 80.8704 47.7752 80.9762H67.2855C68.3378 80.8704 69.2584 80.759 70.0398 80.6514H45.0191Z" fill="#455A64"/>
<path d="M65.1752 84.2836H49.8781V88.3705H65.1752V84.2836Z" fill="white"/>
</g>
<defs>
<clipPath id="clip0_66_23">
<rect width="128" height="128" fill="white"/>
</clipPath>
</defs>
</svg>
