<svg width="128" height="128" viewBox="0 0 128 128" fill="none" xmlns="http://www.w3.org/2000/svg">
<g clip-path="url(#clip0_110_878)">
<rect width="128" height="128" rx="64" fill="#F0F0F0"/>
<path d="M30.4147 83.2009L27.0748 83.272C25.9512 83.2909 24.8181 83.3099 23.6851 83.3099H23.5784V83.2009V80.5484V80.4299H23.6969L27.0582 80.4441C28.1794 80.4441 29.3006 80.4725 30.4194 80.4844H30.4858V80.546L30.4147 83.2009ZM30.4147 83.2009L30.353 80.5484L30.4147 80.6124C29.2958 80.6242 28.1746 80.6503 27.0534 80.6527L23.6922 80.6669L23.8107 80.5484V83.2009L23.7041 83.0966C24.811 83.0966 25.9204 83.1155 27.0368 83.1345L30.4147 83.2009Z" fill="#EBEBEB"/>
<path d="M26.6647 86.5478L23.3295 86.6166C22.2083 86.6356 21.0753 86.6545 19.9399 86.6545H19.8356V86.5478L19.8237 83.8954V83.7769H19.9423L23.3058 83.7911C24.427 83.7911 25.5459 83.8195 26.6671 83.8314H26.7311V83.893L26.6647 86.5478ZM26.6647 86.5478L26.6007 83.8954L26.6623 83.9594C25.5411 83.9712 24.4223 83.9973 23.3011 83.9997L19.9375 84.0139L20.056 83.8954V86.5478L19.9494 86.4436C21.0587 86.4436 22.1657 86.4625 23.2845 86.4815L26.6647 86.5478Z" fill="#EBEBEB"/>
<path d="M85.7967 65.2333L82.4639 65.2997C81.3403 65.3187 80.2073 65.3376 79.0742 65.34H78.9675V65.2333L78.9557 62.5785V62.46H79.0766L82.4378 62.4742C83.559 62.4742 84.6778 62.5026 85.799 62.5145H85.8607V62.5785L85.7967 65.2333ZM85.7967 65.2333L85.735 62.5785L85.7967 62.6401C84.6755 62.6543 83.5566 62.678 82.4354 62.6804L79.0742 62.697L79.1904 62.5785L79.1785 65.231L79.0742 65.1243C80.1812 65.1243 81.2882 65.1456 82.407 65.1646L85.7967 65.2333Z" fill="#EBEBEB"/>
<path d="M78.2185 65.2333L74.8833 65.2997C73.7621 65.3187 72.6291 65.3376 71.4936 65.34H71.4012V65.2333L71.3751 62.5785V62.46H71.4936L74.8572 62.4742C75.9784 62.4742 77.0973 62.5026 78.2185 62.5145H78.2753V62.5785L78.2185 65.2333ZM78.2185 65.2333L78.1568 62.5785L78.2185 62.6401C77.0973 62.6543 75.9784 62.678 74.8572 62.6804L71.4936 62.697L71.6122 62.5785L71.6003 65.231L71.4936 65.1243C72.603 65.1243 73.71 65.1456 74.8288 65.1646L78.2185 65.2333Z" fill="#EBEBEB"/>
<path d="M82.0158 68.5779L78.6807 68.6443C77.5571 68.6633 76.4265 68.6822 75.291 68.6846H75.1938V68.5779V65.9255V65.8069H75.3124L78.676 65.8212C79.7948 65.8212 80.916 65.8496 82.0372 65.8615H82.1012V65.9231L82.0158 68.5779ZM82.0158 68.5779L81.9518 65.9255L82.0158 65.9871C80.8946 66.0013 79.7735 66.025 78.6546 66.0274L75.291 66.044L75.4096 65.9255L75.3977 68.5779L75.291 68.4713C76.4004 68.4713 77.5074 68.4926 78.6262 68.5116L82.0158 68.5779Z" fill="#EBEBEB"/>
<path d="M108.64 86.5478L105.305 86.6166C104.181 86.6356 103.048 86.6545 101.915 86.6545H101.809V86.5478V83.8954V83.7769H101.927L105.288 83.7911C106.41 83.7911 107.531 83.8195 108.652 83.8314H108.716V83.893L108.64 86.5478ZM108.64 86.5478L108.576 83.8954L108.64 83.9594C107.519 83.9712 106.398 83.9973 105.277 83.9997L101.915 84.0139L102.034 83.8954L102.022 86.5478L101.915 86.4436C103.022 86.4436 104.132 86.4625 105.25 86.4815L108.64 86.5478Z" fill="#EBEBEB"/>
<path d="M104.888 19.2689L101.555 19.3353C100.431 19.3543 99.2984 19.3732 98.1654 19.3732H98.0587V19.2666V16.6165V16.4956H98.1796L101.541 16.5098C102.662 16.5098 103.781 16.5382 104.902 16.5501H104.966V16.6141L104.888 19.2689ZM104.888 19.2689L104.824 16.6165L104.885 16.6781C103.764 16.6781 102.645 16.716 101.524 16.7184L98.163 16.7326L98.2792 16.6165V19.2666L98.1749 19.1623C99.2818 19.1623 100.389 19.1812 101.508 19.2002L104.888 19.2689Z" fill="#EBEBEB"/>
<path d="M108.64 22.6112L105.298 22.6799C104.174 22.6989 103.041 22.7178 101.908 22.7178H101.802V22.6112V19.9611V19.8402H101.92L105.281 19.8544C106.402 19.8544 107.524 19.8828 108.645 19.8947H108.709V19.9587L108.64 22.6112ZM108.64 22.6112L108.576 19.9611L108.64 20.0227C107.519 20.0227 106.398 20.0606 105.277 20.063L101.915 20.0772L102.034 19.9611L102.022 22.6112L101.915 22.5069C103.022 22.5069 104.132 22.5258 105.25 22.5448L108.64 22.6112Z" fill="#EBEBEB"/>
<path d="M26.6647 19.2689L23.3295 19.3353C22.2083 19.3543 21.0753 19.3732 19.9399 19.3732H19.8356V19.2666L19.8237 16.6165V16.4956H19.9423L23.3058 16.5098C24.427 16.5098 25.5459 16.5382 26.6671 16.5501H26.7311V16.6141L26.6647 19.2689ZM26.6647 19.2689L26.6007 16.6165L26.6623 16.6781C25.5411 16.6781 24.4223 16.716 23.3011 16.7184L19.9375 16.7326L20.056 16.6165V19.2666L19.9494 19.1623C21.0587 19.1623 22.1657 19.1812 23.2845 19.2002L26.6647 19.2689Z" fill="#EBEBEB"/>
<path d="M60.8316 41.8161L57.4988 41.8825C56.3753 41.9015 55.2422 41.9204 54.1092 41.9228H54.0025V41.8161V39.1637V39.0451H54.121L57.4822 39.0594C58.6034 39.0594 59.7246 39.0878 60.8435 39.0997H60.9075V39.1613L60.8316 41.8161ZM60.8316 41.8161L60.77 39.1637L60.8316 39.2253C59.7128 39.2395 58.5916 39.2632 57.4704 39.2656L54.1092 39.2822L54.2277 39.1637L54.2158 41.8161L54.1092 41.7095C55.2161 41.7095 56.3255 41.7284 57.4419 41.7474L60.8316 41.8161Z" fill="#EBEBEB"/>
<path d="M30.1089 0H29.8719V32.8561H30.1089V0Z" fill="#C7C7C7"/>
<path d="M41.5082 43.959L40.5813 45.9952H19.3971L18.475 43.959L27.492 37.7154H32.4888L41.5082 43.959Z" fill="#EBEBEB"/>
<path d="M33.1145 31.7017L32.4887 37.7154H27.4919L26.8661 31.7017H33.1145Z" fill="#DBDBDB"/>
<path d="M41.5057 43.959L40.5789 45.9952H19.397L18.4726 43.959H41.5057Z" fill="#DBDBDB"/>
<path d="M54.844 0H54.6069V19.7146H54.844V0Z" fill="#C7C7C7"/>
<path d="M66.2409 30.8175L65.3164 32.8537H44.1322L43.2101 30.8175L52.2271 24.5739H57.2239L66.2409 30.8175Z" fill="#EBEBEB"/>
<path d="M57.8497 18.5602L57.2239 24.5739H52.2271L51.6013 18.5602H57.8497Z" fill="#DBDBDB"/>
<path d="M66.2408 30.8175L65.314 32.8537H44.1322L43.2077 30.8175H66.2408Z" fill="#DBDBDB"/>
<path d="M110.107 107.884L98.6512 107.941L87.1975 107.962L64.29 108L41.3825 107.962L29.9263 107.941L18.4726 107.884L29.9263 107.825L41.3825 107.803L64.29 107.765L87.1975 107.803L98.6512 107.825L110.107 107.884Z" fill="#263238"/>
<path d="M60.7818 107.881H37.9644C37.7771 107.147 37.5946 106.424 37.4121 105.713C37.2035 104.895 36.9973 104.096 36.8005 103.318C36.7579 103.145 36.7128 102.97 36.6678 102.799C36.5192 102.205 36.3723 101.625 36.2269 101.059L35.9685 100.043C35.8784 99.7012 35.7955 99.3646 35.7125 99.0375C35.6888 98.9522 35.6675 98.8644 35.6461 98.7815L35.575 98.4994L35.4897 98.1628C35.4565 98.0443 35.4281 97.9258 35.3996 97.812C35.3404 97.5915 35.2858 97.3758 35.2337 97.1649C35.1531 96.852 35.0749 96.5462 34.9967 96.2475C34.9635 96.1172 34.9279 95.9868 34.8971 95.8612C34.8434 95.6526 34.7912 95.4487 34.7407 95.2496C34.7075 95.1168 34.6743 94.9865 34.6435 94.8585C34.506 94.337 34.3827 93.8439 34.2666 93.3841L34.1741 93.0285C34.1244 92.8294 34.0769 92.6398 34.0295 92.4549C33.9987 92.3387 33.9679 92.2179 33.9418 92.1159C33.8423 91.7224 33.7498 91.3645 33.6716 91.0492C33.6479 90.9639 33.6266 90.8833 33.6076 90.8122C33.5555 90.6036 33.5057 90.4187 33.4654 90.2552C33.4488 90.1888 33.4346 90.1248 33.4156 90.0655C33.3966 90.0063 33.3848 89.9399 33.3706 89.8854C33.3563 89.8309 33.3492 89.8024 33.3421 89.7692C33.335 89.7361 33.3137 89.6578 33.3018 89.6128C33.29 89.5678 33.29 89.563 33.2829 89.5441C33.2497 89.4066 33.2307 89.3378 33.2307 89.3378H55.4413C55.4413 89.3378 56.1738 91.8599 57.3376 95.9252C57.5747 96.7524 57.8307 97.6461 58.1056 98.5942C58.895 101.294 59.8028 104.456 60.7818 107.881Z" fill="#37474F"/>
<path d="M41.7001 107.881H41.1312C40.2858 104.386 39.4672 100.884 38.6755 97.3759C38.4827 96.5225 38.2938 95.6684 38.109 94.8135C38.0924 94.7329 38.0734 94.6547 38.0568 94.5764C38.0546 94.5676 38.056 94.5583 38.0607 94.5505C38.0653 94.5428 38.0729 94.5372 38.0817 94.535C38.0905 94.5328 38.0998 94.5341 38.1076 94.5388C38.1154 94.5435 38.121 94.551 38.1232 94.5598C38.1232 94.5859 38.1374 94.612 38.1469 94.6381C38.4029 95.553 38.6613 96.4728 38.9125 97.3925C39.8702 100.877 40.7994 104.373 41.7001 107.881Z" fill="#0A2B3C"/>
<path d="M54.7255 89.3284L53.7465 94.2351L52.9429 98.2648L51.5752 105.125L51.433 105.836L51.1959 107.007L51.0205 107.896H37.9596C37.7748 107.158 37.5875 106.436 37.4097 105.727C37.2011 104.909 36.9949 104.11 36.7981 103.333C36.7555 103.16 36.7104 102.984 36.6654 102.814C36.5169 102.219 36.3699 101.639 36.2245 101.074L35.9661 100.057C35.8761 99.7154 35.7931 99.3788 35.7101 99.0517C35.6864 98.9664 35.6651 98.8787 35.6438 98.7957L35.5727 98.5137L35.4873 98.1771C35.4541 98.0585 35.4257 97.94 35.3972 97.8262C35.338 97.6058 35.2835 97.3901 35.2313 97.1791C35.1507 96.8662 35.0725 96.5604 34.9943 96.2618C34.9587 96.129 34.9255 96.001 34.8947 95.8754C34.841 95.6668 34.7888 95.463 34.7383 95.2638C34.7051 95.1311 34.6719 95.0007 34.6411 94.8727C34.5036 94.3512 34.3803 93.8582 34.2642 93.3983L34.1718 93.0428C34.122 92.8437 34.0746 92.654 34.0272 92.4691C33.9963 92.353 33.9655 92.2321 33.9395 92.1302C33.8399 91.7367 33.7474 91.3788 33.6692 91.0635C33.6455 90.9782 33.6242 90.8976 33.6052 90.8265C33.5531 90.6179 33.5033 90.433 33.463 90.2694C33.4464 90.203 33.4322 90.139 33.4132 90.0798C33.3943 90.0205 33.3824 89.9542 33.3682 89.8996C33.354 89.8451 33.3469 89.8167 33.3397 89.7835C33.3326 89.7503 33.3113 89.6721 33.2994 89.627C33.2876 89.582 33.2876 89.5773 33.2805 89.5583C33.2473 89.4208 33.2283 89.3521 33.2283 89.3521L54.7255 89.3284Z" fill="#0A2B3C"/>
<path d="M54.7302 89.3189C54.7302 89.4398 54.6378 90.7649 54.4221 92.7868C54.3628 93.377 54.2893 94.0241 54.2064 94.7187C54.076 95.8138 53.9148 97.0227 53.7133 98.3003C53.372 100.529 52.9287 102.961 52.3504 105.338C52.1441 106.194 51.9189 107.042 51.6795 107.872H22.9977C23.3343 103.503 23.6449 99.5519 23.8914 96.4372C24.2469 92.0733 24.4674 89.3284 24.4674 89.3284H50.473L54.7302 89.3189Z" fill="#37474F"/>
<path d="M54.6686 91.9548C54.6378 92.9811 54.5928 94.0051 54.5264 95.0244C54.4576 96.1314 54.3557 97.236 54.2111 98.343C54.2087 98.3843 54.204 98.4254 54.1969 98.4662C54.0626 99.4997 53.9045 100.532 53.7228 101.562C53.5569 102.522 53.436 103.558 53.0117 104.444C52.8511 104.788 52.623 105.096 52.3409 105.35C52.0826 105.587 51.766 105.75 51.4235 105.824C51.3675 105.838 51.3105 105.848 51.2529 105.852C51.2386 105.852 51.222 105.852 51.2031 105.852C51.2138 105.858 51.2227 105.866 51.2286 105.877C51.2345 105.888 51.2372 105.9 51.2363 105.912C51.2244 106.255 51.2363 106.606 51.196 106.948C51.1948 106.962 51.1948 106.976 51.196 106.99C51.1628 107.289 51.1059 107.583 51.0514 107.879H50.5607C50.5607 107.879 50.5607 107.867 50.5607 107.86C50.6484 107.538 50.7195 107.211 50.7978 106.884C50.876 106.556 50.9945 106.225 51.0727 105.886C51.0772 105.873 51.0855 105.862 51.0964 105.855C50.7845 105.869 50.4757 105.788 50.2114 105.622C49.947 105.456 49.7397 105.213 49.6173 104.926C49.4514 104.487 49.5272 104.03 49.5936 103.579C49.6837 102.991 49.769 102.394 49.8591 101.818C50.0274 100.739 50.2431 99.6728 50.4351 98.599L50.5204 98.1107C50.9068 95.9275 51.3074 93.7444 51.7909 91.5826C51.8075 91.4925 51.8289 91.4025 51.8478 91.3124C51.8668 91.2223 51.9592 91.2697 51.9521 91.3266C51.9379 91.4712 51.9237 91.6182 51.9071 91.7628C51.8218 92.5948 51.7246 93.422 51.6084 94.2446C51.4686 95.214 51.3714 96.1883 51.2386 97.1554C51.1912 97.4873 51.1462 97.8167 51.0964 98.1462C50.8736 99.7391 50.6437 101.332 50.3711 102.92C50.2431 103.657 49.7832 104.978 50.8452 105.208C51.0856 105.259 51.3362 105.227 51.5563 105.118C52.025 104.835 52.3754 104.392 52.5424 103.871C52.8434 103.027 52.9501 102.095 53.1065 101.216C53.2796 100.244 53.4313 99.2722 53.5687 98.2979C53.7426 97.0827 53.9235 95.8675 54.1116 94.6523C54.2064 94.0336 54.3059 93.4149 54.4031 92.7962C54.4505 92.5094 54.4956 92.2226 54.543 91.9358C54.5714 91.8765 54.6686 91.8931 54.6686 91.9548Z" fill="#0A2B3C"/>
<path d="M29.2982 99.5756C30.4922 99.565 31.6802 99.4058 32.8348 99.1015C33.3682 98.9664 33.8944 98.7957 34.4159 98.6274C34.9323 98.4868 35.4158 98.2451 35.8381 97.9163C36.6441 97.2242 37.0233 96.1314 37.367 95.1619C37.7491 94.0686 38.0587 92.9513 38.2939 91.8173C38.3057 91.7604 38.3887 91.7794 38.3887 91.8315C38.4194 93.1122 38.2597 94.3904 37.9146 95.6242C37.6278 96.6742 37.239 97.8428 36.3928 98.5777C35.5015 99.3504 34.2903 99.623 33.1501 99.7629C31.8693 99.9115 30.5746 99.894 29.2982 99.7107C29.2803 99.7107 29.2631 99.7036 29.2504 99.6909C29.2378 99.6783 29.2307 99.6611 29.2307 99.6432C29.2307 99.6252 29.2378 99.6081 29.2504 99.5954C29.2631 99.5827 29.2803 99.5756 29.2982 99.5756Z" fill="#0A2B3C"/>
<path d="M27.3118 91.8386C27.247 93.4426 27.1791 95.0481 27.1079 96.6552C26.9499 100.399 26.7698 104.141 26.5675 107.881H26.0294C26.2759 104.131 26.5359 100.384 26.8093 96.6386C26.9278 95.0363 27.0463 93.4386 27.172 91.8362C27.1752 91.8199 27.1841 91.8053 27.1971 91.7949C27.21 91.7845 27.2262 91.7789 27.2429 91.7792C27.2595 91.7795 27.2755 91.7856 27.2881 91.7964C27.3007 91.8073 27.3091 91.8222 27.3118 91.8386Z" fill="#0A2B3C"/>
<path d="M48.1713 61.033C52.7011 67.8668 63.7898 80.437 69.3816 82.2551C72.6053 83.3052 86.2114 80.9704 89.3616 80.072C91.0351 79.5979 84.6611 65.9326 82.8596 66.3924C81.0131 66.8665 72.4939 68.6277 71.1072 68.6917C69.7205 68.7557 58.8689 60.6964 53.2155 57.0341C46.0853 52.4166 44.464 55.4365 48.1713 61.033Z" fill="#D3766A"/>
<path d="M87.1881 80.4678C88.9398 80.2498 96.9825 78.5715 99.0827 77.602C101.183 76.6325 107.028 73.4041 106.448 71.7187C105.867 70.0334 104.077 70.844 104.077 70.844C104.077 70.844 106.329 69.0899 105.592 67.4473C104.855 65.8046 102.117 67.1533 102.117 67.1533C102.117 67.1533 104.298 65.1835 103.444 63.5977C102.591 62.0119 100.064 63.8348 100.064 63.8348C100.064 63.8348 102.143 62.1257 100.891 61.1159C99.3837 59.8999 95.9135 63.4863 93.5099 64.3776C92.9647 64.5814 82.1723 67.7199 82.1723 67.7199L87.1881 80.4678Z" fill="#D3766A"/>
<path d="M100.289 63.6806C97.7268 66.307 96.1529 67.0158 92.6399 67.8573C92.5712 67.8739 92.5783 67.9782 92.6399 67.9687C96.1576 67.4567 98.2601 66.8546 100.412 63.7968C100.529 63.6474 100.412 63.555 100.289 63.6806Z" fill="#0A2B3C"/>
<path d="M102.321 66.9424C99.4217 69.4526 97.7126 70.2206 94.1049 71.375C94.0527 71.3892 94.0765 71.4793 94.1286 71.4675C97.7695 70.6331 99.8555 69.9836 102.425 67.1083C102.539 66.9779 102.453 66.8286 102.321 66.9424Z" fill="#0A2B3C"/>
<path d="M103.897 70.8961C100.915 73.1125 99.0851 74.0488 95.4323 74.7172C95.4163 74.7215 95.4024 74.7315 95.3931 74.7452C95.3839 74.7589 95.3799 74.7755 95.3819 74.792C95.3839 74.8084 95.3918 74.8236 95.4041 74.8347C95.4164 74.8458 95.4323 74.852 95.4489 74.8523C99.2415 74.5347 101.531 73.3803 103.954 70.9933C104.113 70.8321 104.084 70.7563 103.897 70.8961Z" fill="#0A2B3C"/>
<path d="M79.9346 68.2153C79.9346 68.2153 82.4804 64.3847 83.9643 62.9483C85.4482 61.5118 92.9718 58.2075 93.7801 59.7885C94.8231 61.8318 90.8574 64.598 88.7383 65.6979C88.7383 65.6979 91.1513 70.4245 88.7383 73.0248C86.3252 75.6251 79.9346 68.2153 79.9346 68.2153Z" fill="#D3766A"/>
<path d="M93.8749 60.4451C93.4815 62.9956 90.6062 64.2614 88.6293 65.4822C88.5993 65.4988 88.5739 65.5224 88.5552 65.551C88.5364 65.5797 88.5249 65.6124 88.5217 65.6465C88.5184 65.6805 88.5235 65.7149 88.5364 65.7466C88.5494 65.7782 88.5699 65.8063 88.5961 65.8282C89.4755 67.8786 90.1179 71.0242 88.8734 73.0224C88.8664 73.0341 88.8641 73.0479 88.8668 73.0612C88.8695 73.0745 88.8771 73.0864 88.8881 73.0944C88.8991 73.1024 88.9126 73.106 88.9262 73.1045C88.9397 73.1031 88.9521 73.0966 88.9611 73.0864C90.5848 71.1261 90.2056 67.9829 89.0986 65.7998C91.1443 64.5791 93.9721 63.1924 93.901 60.4475C93.901 60.4309 93.8773 60.4261 93.8749 60.4451Z" fill="#0A2B3C"/>
<path d="M62.5003 62.0237L57.1645 75.0467C57.1645 75.0467 48.4533 63.5669 45.7226 58.1339C42.8782 52.4734 44.0776 50.4325 51.2883 54.7229C58.5441 59.0394 62.5003 62.0237 62.5003 62.0237Z" fill="#0086C8"/>
<path d="M62.5004 62.0238L59.9664 68.2081L57.1646 75.0467C57.1646 75.0467 48.4558 63.5669 45.7227 58.1339C44.2768 55.2634 43.8762 53.3244 44.7745 52.6702C45.6729 52.016 47.7423 52.6086 51.2955 54.7229C58.5442 59.0418 62.5004 62.0238 62.5004 62.0238Z" fill="#0086C8"/>
<path d="M46.5974 52.5493C46.6803 52.5683 46.7657 52.5896 46.8534 52.6157L46.6306 52.7721C45.8602 53.3244 45.104 53.8981 44.3526 54.4836C44.3526 54.4172 44.3313 54.3532 44.3265 54.2916C45.0685 53.699 45.8128 53.0969 46.5974 52.5493ZM54.2561 56.5268C53.9721 57.229 53.6019 57.893 53.1539 58.5037C52.2695 59.7131 51.1605 60.7408 49.8875 61.5307C49.3577 61.8631 48.8029 62.154 48.2282 62.4007C48.2709 62.4694 48.3183 62.5382 48.361 62.6093C48.954 62.346 49.5268 62.0394 50.0747 61.6919C51.3007 60.9145 52.3747 59.92 53.244 58.7574C53.7347 58.1086 54.1373 57.3976 54.441 56.643L54.2561 56.5268ZM55.3655 72.6455L55.6025 72.9774C55.6428 72.994 55.6855 73.0177 55.7258 73.0366C56.3574 73.3479 56.9645 73.7068 57.5415 74.1104L57.6292 73.8995C57.423 73.7572 57.2144 73.6198 56.9987 73.487C56.4765 73.1626 55.9305 72.8782 55.3655 72.636V72.6455ZM60.386 65.8283C58.4517 65.3921 56.681 64.4274 54.7255 64.0623C53.1326 63.7637 51.4306 63.9414 50.1696 65.0413C50.1293 65.0792 50.0866 65.1148 50.0487 65.1575C50.089 65.2167 50.134 65.2807 50.1743 65.3447C50.7696 64.7783 51.5135 64.3928 52.3195 64.233C54.2964 63.8419 56.2733 64.6715 58.0938 65.3447C58.9748 65.6904 59.8857 65.9546 60.815 66.1341L60.9051 65.9136C60.7344 65.897 60.5566 65.8567 60.386 65.8188V65.8283Z" fill="white"/>
<path d="M59.9 61.9835C59.7365 62.2774 59.6156 62.5975 59.4805 62.9056C59.3454 63.2138 59.2031 63.5385 59.0633 63.8538C58.7812 64.4938 58.511 65.1409 58.2431 65.788C57.7074 67.0822 57.167 68.3741 56.655 69.6778C56.5127 70.0358 56.3729 70.3889 56.2425 70.7564C56.1121 71.1238 55.9912 71.5291 55.8538 71.906C55.8538 71.9297 55.8798 71.9416 55.8893 71.9178C56.0315 71.6026 56.1998 71.2968 56.3444 70.9697C56.489 70.6426 56.6336 70.3202 56.7735 69.9907C57.0461 69.346 57.3163 68.6989 57.5794 68.0517C58.0962 66.7717 58.6176 65.4964 59.1083 64.207C59.2458 63.8467 59.3785 63.4958 59.516 63.1261C59.6535 62.7563 59.8265 62.3723 59.9332 61.9859C59.9403 61.9788 59.9095 61.9646 59.9 61.9835Z" fill="#0A2B3C"/>
<path opacity="0.1" d="M59.9664 68.2081L57.1646 75.0467C57.1646 75.0467 48.4558 63.5669 45.7227 58.134C44.2768 55.2634 43.8762 53.3244 44.7745 52.6702C46.2181 52.7105 47.2184 52.7342 47.2184 52.7342L59.9664 68.2081Z" fill="black"/>
<path d="M58.8666 98.2315L22.097 98.3382C22.097 98.3382 25.3041 70.6686 38.8083 54.3223C41.9325 50.5297 46.9648 52.5967 49.0863 54.6044C54.4671 59.7031 58.9709 98.0988 58.8666 98.2315Z" fill="#0086C8"/>
<path d="M46.4386 52.9096C44.867 54.045 43.357 55.28 41.8281 56.4652C41.0388 57.0744 40.2708 57.7215 39.4459 58.2786C38.7845 58.7242 38.0236 59.094 37.213 59.0489C36.6759 59.0093 36.1646 58.8029 35.7504 58.4587C35.7765 58.4161 35.8073 58.371 35.8358 58.3284C36.0059 58.4659 36.1921 58.5821 36.3904 58.6744C37.2035 59.0466 38.0876 58.8617 38.8438 58.4374C39.6806 57.9775 40.4177 57.3257 41.1715 56.7426L43.6391 54.8273C44.4901 54.1683 45.3339 53.4572 46.2181 52.8124L46.4386 52.9096ZM40.9866 71.8586C41.7997 70.6947 42.1955 69.1326 41.6978 67.7673C41.2403 66.5465 40.1475 65.7429 38.9078 65.4443C37.616 65.1387 36.2577 65.299 35.0725 65.897C33.5246 66.6816 32.3987 68.0754 31.0073 69.0828C30.6149 69.365 30.1928 69.6035 29.7486 69.794C29.7083 69.8911 29.6704 69.986 29.6301 70.0808C31.1282 69.5142 32.2375 68.3196 33.4393 67.3003C34.0654 66.7313 34.7763 66.2635 35.5466 65.9136C36.1973 65.6495 36.8924 65.512 37.5946 65.5083C38.941 65.4941 40.3774 65.9966 41.1502 67.1676C42.0225 68.4831 41.7665 70.1898 40.9724 71.4769C38.96 74.7386 34.506 74.53 31.1779 74.5916C30.0353 74.5976 28.8954 74.7047 27.7717 74.9116C27.7361 74.9993 27.7053 75.0847 27.6769 75.1724C28.956 74.9374 30.2543 74.8223 31.5548 74.8287C34.7952 74.7907 38.9102 74.8429 40.9961 71.8586H40.9866ZM41.7997 63.6143C44.6948 63.9439 47.6149 63.2649 50.0676 61.6919C50.7218 61.2766 51.3353 60.8004 51.8999 60.2697C51.8739 60.1867 51.8478 60.1061 51.817 60.0327C51.2253 60.6025 50.5754 61.1086 49.878 61.5426C47.3384 63.1421 44.3036 63.7631 41.3398 63.2896C38.8959 62.8724 36.7033 61.3696 34.3306 60.7059C34.2832 60.7793 34.2405 60.8528 34.1931 60.9263C35.2216 61.2457 36.2248 61.6419 37.194 62.1115C38.6897 62.7894 40.176 63.4105 41.8092 63.6143H41.7997ZM39.0714 85.9292C40.057 84.9451 40.6474 83.6336 40.7306 82.2433C40.8017 80.9704 40.3964 79.6358 39.3843 78.7943C38.2228 77.8462 36.6441 77.8035 35.2692 78.2492C33.6835 78.7635 32.4532 79.861 31.3771 81.0936C30.2061 82.4424 29.1797 83.9784 27.7551 85.0806C26.7856 85.8297 25.5648 86.4436 24.3156 86.5242C24.2967 86.5977 24.2801 86.6712 24.2611 86.7447C24.903 86.7102 25.5342 86.565 26.1266 86.3156C27.6911 85.6566 28.8763 84.4786 29.9477 83.1962C31.076 81.8522 32.1285 80.3517 33.6005 79.3372C34.8852 78.4578 36.599 77.8841 38.1398 78.3724C39.5763 78.8252 40.4059 80.1549 40.5102 81.6127C40.5529 82.3344 40.4489 83.0573 40.2044 83.7377C39.96 84.418 39.5802 85.0418 39.088 85.5713C37.9431 86.8181 36.3952 87.5933 34.8212 88.1787C32.9997 88.8298 31.1402 89.3697 29.2532 89.7954C27.2455 90.2694 24.83 90.6724 23.147 91.9548C23.1233 92.0804 23.0973 92.1918 23.0759 92.3198C24.7613 90.9094 27.3426 90.4899 29.4286 89.9992C31.3094 89.5765 33.1619 89.0366 34.9753 88.3826C36.4687 87.8161 37.9454 87.0789 39.0808 85.9292H39.0714ZM36.701 92.014C35.082 91.905 33.7024 92.9172 32.7874 94.164C31.8393 95.4582 31.2751 96.98 30.3981 98.3146H30.6636C31.0215 97.7528 31.3296 97.1554 31.6283 96.5794C32.4058 95.0742 33.2591 93.3865 34.8568 92.6066C35.6102 92.2187 36.4799 92.1208 37.3007 92.3317C37.6676 92.4515 38.0042 92.6497 38.287 92.9125C38.5698 93.1752 38.7921 93.4963 38.9386 93.8535C39.5549 95.2496 39.3226 96.807 39.4127 98.2837H39.6497C39.5786 97.0772 39.7043 95.8565 39.4411 94.6618C39.1401 93.2822 38.2156 92.1136 36.7199 92.014H36.701ZM53.3862 97.3095C52.8362 95.8138 52.8291 94.1877 52.9121 92.6185C53.097 88.6789 53.8721 84.7037 53.2534 80.7665C52.7794 77.7514 51.4851 74.6936 48.9322 72.8707C47.6332 71.9463 45.8507 71.3513 44.3763 72.2283C43.1247 72.9679 42.4681 74.466 42.4515 75.8788C42.4302 77.7087 43.2836 79.4225 44.1796 80.968C45.0756 82.5135 46.0759 83.9452 46.9766 85.4717C47.8774 86.9983 48.6359 88.5699 48.9654 90.2931C49.269 91.8936 49.2164 93.5414 48.8113 95.1193C48.533 96.2282 48.0904 97.2892 47.4981 98.2671H47.766C47.8869 98.0633 48.003 97.8547 48.1097 97.6461C48.8298 96.2411 49.2536 94.7031 49.3547 93.1275C49.4558 91.552 49.2321 89.9724 48.6975 88.4869C47.4886 85.1683 45.0566 82.4874 43.5561 79.3064C42.7881 77.6803 42.2927 75.7508 43.0963 74.0346C43.4099 73.3239 43.9455 72.7342 44.6228 72.354C45.0248 72.1606 45.4616 72.0502 45.9071 72.0294C46.3527 72.0087 46.7979 72.0779 47.216 72.2331C48.7995 72.7522 50.1198 74.0298 51.03 75.3905C51.8958 76.7332 52.505 78.2249 52.8268 79.7899C53.6706 83.6134 53.0045 87.5435 52.732 91.3906C52.6134 93.0499 52.5115 94.7495 52.8671 96.3898C52.9994 97.0427 53.2338 97.6706 53.5616 98.2506H53.8603C53.668 97.9553 53.509 97.6397 53.3862 97.3095ZM49.4039 68.9525C50.1719 70.5122 51.7293 71.3608 53.2748 71.9937C53.8484 72.2307 54.4268 72.4464 54.9933 72.6882C54.9791 72.6076 54.9625 72.5294 54.9483 72.4512C54.0499 72.0695 53.1349 71.74 52.2579 71.2897C50.7669 70.5406 49.2238 69.1895 49.2451 67.3738C49.2641 65.7145 50.8001 64.5293 52.3266 64.2212C52.5693 64.1748 52.8148 64.1447 53.0614 64.1311C53.0425 64.0671 53.0235 63.9983 53.0069 63.932C51.9676 63.9726 50.9716 64.3588 50.1767 65.0295C49.6208 65.4979 49.2413 66.1419 49.1009 66.8552C48.9604 67.5684 49.0673 68.3082 49.4039 68.9525Z" fill="white"/>
<path d="M37.3813 64.0979C37.3813 73.122 40.2471 92.097 45.4406 96.2309C52.2579 101.657 66.4732 102.662 70.9745 102.771C72.9372 102.818 74.0252 89.7953 72.4963 88.3565C70.9674 86.9177 54.6022 83.957 53.1871 83.2791C51.772 82.6012 47.1876 69.3625 43.523 62.6993C38.9007 54.2939 37.3813 56.515 37.3813 64.0979Z" fill="#D3766A"/>
<path d="M78.6285 90.9473C77.7704 90.433 78.0335 89.9802 79.7995 89.7621C81.5654 89.5441 88.7406 90.1461 88.7406 87.6288C88.7406 85.1114 78.6048 84.3932 75.7034 84.9929C72.8021 85.5926 68.296 87.579 68.296 87.579C70.2302 88.1052 74.8264 89.8498 78.6285 90.9473Z" fill="#D3766A"/>
<path d="M65.9493 102.238C71.4842 103.544 78.2919 105.504 84.4194 103.605C85.105 103.413 85.706 102.995 86.1261 102.42C88.8876 101.616 89.338 100.073 89.338 100.073C91.6823 98.5373 91.9264 96.8947 91.9264 96.8947C91.9264 96.8947 95.1573 95.9181 94.8918 93.8653C94.6003 91.5636 90.1178 93.3912 87.0411 92.8816C79.9891 91.7248 70.2918 88.1076 68.2912 87.5719L65.9493 102.238Z" fill="#D3766A"/>
<path d="M78.7944 96.8615C80.8757 97.1602 82.9142 97.5086 85.0262 97.5229C87.3421 97.5395 89.5726 97.1673 91.8553 96.8473C91.8685 96.8471 91.8813 96.8514 91.8916 96.8596C91.9019 96.8677 91.9091 96.8792 91.9119 96.8921C91.9147 96.9049 91.913 96.9184 91.907 96.9301C91.901 96.9418 91.8911 96.9511 91.879 96.9563C87.8494 98.1913 82.8312 98.1178 78.7802 96.9563C78.6807 96.9279 78.6901 96.8449 78.7944 96.8615Z" fill="#0A2B3C"/>
<path d="M77.4789 101.014C79.5198 101.192 83.1109 101.488 89.319 100.002C89.338 100.002 89.3546 100.031 89.3332 100.04C85.4292 101.538 81.5536 101.818 77.4813 101.112C77.3438 101.09 77.3414 101.003 77.4789 101.014Z" fill="#0A2B3C"/>
<path d="M76.8128 103.259C80.2949 103.432 82.5136 103.098 86.1047 102.406C86.1261 102.406 86.1379 102.434 86.1166 102.441C82.1177 103.66 80.5272 103.648 76.7891 103.39C76.6611 103.371 76.6753 103.254 76.8128 103.259Z" fill="#0A2B3C"/>
<path d="M48.7805 72.9276L37.3386 81.122C37.3386 81.122 36.0633 66.7693 36.6275 60.7153C37.2248 54.4077 39.3274 53.3173 43.1532 60.784C47.0146 68.2982 48.7805 72.9276 48.7805 72.9276Z" fill="#0086C8"/>
<path d="M39.8915 79.2969L39.69 79.4391C39.2921 78.936 38.7519 78.5643 38.1398 78.3724C37.8041 78.2672 37.4556 78.2081 37.1039 78.197L37.0897 77.9789C37.9288 77.9853 38.7415 78.2724 39.3985 78.7944C39.5803 78.9438 39.7456 79.1122 39.8915 79.2969ZM39.4459 58.2762C39.9626 57.9254 40.4604 57.5414 40.9511 57.1503C40.9179 57.1005 40.8776 57.0555 40.842 57.0081C40.2176 57.5415 39.5491 58.0213 38.8438 58.4421C38.2577 58.7971 37.5652 58.9339 36.8882 58.8285C36.8882 58.883 36.8669 58.9399 36.8574 58.9968C36.9746 59.0217 37.0934 59.0383 37.213 59.0466C38.026 59.0916 38.7845 58.7219 39.4459 58.2762ZM38.9054 65.4443C38.1124 65.2571 37.2882 65.245 36.49 65.4087C36.49 65.487 36.49 65.5628 36.49 65.6458C36.8524 65.5685 37.2217 65.5288 37.5922 65.5273C38.9386 65.513 40.3751 66.0156 41.1478 67.1865C42.0201 68.5021 41.7641 70.2088 40.97 71.4959C40.0219 73.0438 38.5072 73.8094 36.8337 74.1958L36.8479 74.4328C38.4906 74.0583 39.984 73.3259 40.9985 71.8752C41.8115 70.7113 42.2074 69.1492 41.7096 67.7839C41.2379 66.5465 40.1451 65.743 38.9054 65.4443ZM44.4759 63.3915C43.4308 63.5007 42.3758 63.4672 41.3398 63.292C39.6805 63.0075 38.135 62.2229 36.5706 61.5426L36.5564 61.8294L37.194 62.1163C38.6802 62.7894 40.176 63.4105 41.8092 63.6143C42.7332 63.7261 43.6671 63.7301 44.592 63.6262L44.4759 63.3915ZM48.6999 72.7167C47.4294 71.8847 45.7677 71.4058 44.3787 72.2426C43.1271 72.9822 42.4705 74.4802 42.4539 75.893C42.4505 76.3842 42.5038 76.8742 42.6127 77.3532L42.8261 77.2038C42.5654 76.1478 42.6612 75.0352 43.0987 74.0394C43.4122 73.3287 43.9479 72.739 44.6252 72.3587C45.0271 72.1653 45.4639 72.055 45.9095 72.0342C46.355 72.0134 46.8002 72.0827 47.2184 72.2378C47.7487 72.4147 48.2509 72.667 48.7094 72.9869L48.7805 72.9371C48.7805 72.9371 48.7544 72.8565 48.6999 72.7167Z" fill="white"/>
<path d="M46.5997 71.5101C46.3058 71.6737 46.0308 71.8799 45.7535 72.0695L44.8954 72.6526C44.3147 73.0461 43.7434 73.4491 43.1722 73.8568C42.0296 74.6675 40.8871 75.4758 39.7588 76.3054C39.4483 76.5425 39.1401 76.7629 38.8367 76.9999C38.5333 77.237 38.2157 77.5214 37.8885 77.768C37.8672 77.7822 37.8885 77.8106 37.9122 77.7964C38.2014 77.6044 38.5072 77.4361 38.7964 77.2441C39.0856 77.0521 39.389 76.8482 39.6806 76.6444C40.2542 76.243 40.8255 75.8377 41.3944 75.4284C42.5108 74.6201 43.632 73.8165 44.7319 72.9869L45.6516 72.2757C45.974 72.0387 46.3153 71.8017 46.5997 71.5314C46.6353 71.5291 46.6187 71.5006 46.5997 71.5101Z" fill="#0A2B3C"/>
<path d="M45.424 64.0007C45.424 63.9722 45.3719 63.9865 45.3766 64.0149C45.4593 64.5555 45.5837 65.0888 45.7487 65.6102C45.6397 65.385 45.5354 65.1574 45.424 64.9322C45.0661 64.2069 44.6963 63.4863 44.3407 62.761C44.3376 62.7563 44.333 62.753 44.3276 62.7514C44.3223 62.7499 44.3165 62.7503 44.3114 62.7525C44.3063 62.7548 44.3022 62.7588 44.2998 62.7638C44.2973 62.7688 44.2967 62.7745 44.2981 62.7799C44.8314 64.086 45.3126 65.4182 45.8862 66.71C46.4599 68.0019 47.0311 69.2914 47.6237 70.5738C47.9508 71.2849 48.4083 72.1288 48.7378 72.8351C48.4415 73.1196 48.0054 73.4064 47.6806 73.7074C47.6522 73.7335 47.6972 73.7762 47.7304 73.7549C48.1073 73.487 48.6098 73.2357 48.9796 72.9157C49.027 72.8754 47.0074 68.2579 45.9787 66.0937C45.8127 65.3802 45.6326 64.6786 45.424 64.0007Z" fill="#0A2B3C"/>
<path d="M39.1164 79.9582C38.7908 80.1016 38.4741 80.2647 38.1682 80.4465C37.9146 80.5958 37.6776 80.7665 37.4358 80.9206C37.4358 80.5128 37.386 80.1028 37.3599 79.6974C37.3267 79.2139 37.2943 78.7303 37.2627 78.2467C37.1987 77.2796 37.1324 76.3125 37.0731 75.3454C37.0139 74.3783 36.9451 73.4111 36.8882 72.4416C36.8313 71.4721 36.7887 70.505 36.7104 69.5379C36.6227 68.4499 36.5421 67.3595 36.4592 66.2715C36.4592 66.2614 36.4552 66.2518 36.4481 66.2447C36.441 66.2376 36.4313 66.2336 36.4213 66.2336C36.4112 66.2336 36.4015 66.2376 36.3944 66.2447C36.3873 66.2518 36.3833 66.2614 36.3833 66.2715C36.3707 67.2765 36.3707 68.2816 36.3833 69.2866C36.2364 68.7106 36.042 68.1441 35.9235 67.561C35.9219 67.5516 35.9166 67.5432 35.9089 67.5376C35.9011 67.532 35.8914 67.5298 35.882 67.5314C35.8726 67.5329 35.8641 67.5382 35.8586 67.546C35.853 67.5538 35.8508 67.5634 35.8524 67.5729C35.9021 68.3243 36.0135 69.1278 36.3952 69.7892C36.4141 70.5738 36.4378 71.3607 36.4781 72.1477C36.5753 74.0843 36.6938 76.0186 36.8598 77.9528C36.9072 78.4956 36.9546 79.0385 37.0067 79.5836C37.0589 80.1288 37.0873 80.6598 37.1893 81.1837C37.1955 81.2041 37.207 81.2226 37.2226 81.2373C37.2382 81.252 37.2574 81.2623 37.2782 81.2673C37.299 81.2724 37.3208 81.2719 37.3413 81.2659C37.3619 81.26 37.3806 81.2488 37.3955 81.2334C37.6647 80.9955 37.9498 80.7761 38.2488 80.5768C38.5333 80.373 38.8248 80.1786 39.1188 79.989C39.1638 79.9866 39.1401 79.9487 39.1164 79.9582Z" fill="#0A2B3C"/>
<path d="M50.2241 55.7494C50.2454 56.335 50.2359 56.9212 50.1956 57.5058C50.1756 58.0335 50.1058 58.5581 49.987 59.0727C49.75 60.0042 49.1835 60.9074 48.1808 61.2771C47.7148 61.429 47.2231 61.4862 46.7346 61.4455C46.2462 61.4048 45.7708 61.267 45.3363 61.0401C44.4095 60.585 43.6415 59.8691 42.9327 59.1698C42.4942 58.7361 42.0723 58.2857 41.6741 57.8187C41.4726 57.5817 41.2711 57.3446 41.0815 57.1076C40.8918 56.8706 40.714 56.6075 40.5102 56.3728C40.4936 56.3538 40.4533 56.3728 40.4675 56.3965C40.8752 56.9583 42.1268 58.7432 42.5132 59.1746C43.2243 59.9592 44.0065 60.7556 44.9736 61.2819C45.9051 61.8225 47.0111 61.9773 48.0552 61.7133C48.5523 61.5705 49.0046 61.3031 49.3693 60.9364C49.734 60.5696 49.9988 60.1158 50.1387 59.6179C50.3005 59.0226 50.374 58.4069 50.3568 57.7903C50.3568 57.1123 50.3165 56.4344 50.2596 55.7636C50.2383 55.7399 50.2241 55.7423 50.2241 55.7494Z" fill="#0A2B3C"/>
<path d="M47.1378 59.7103C44.8788 59.9331 41.5744 56.0883 40.4556 53.1846C40.3798 52.9855 42.1481 45.668 42.3519 44.1771C42.3899 43.8736 51.3808 47.6971 51.3808 47.6971C51.3808 47.6971 50.0439 50.6885 49.7215 53.2818C49.6836 53.5046 49.3185 59.4969 47.1378 59.7103Z" fill="#D3766A"/>
<path d="M51.3785 47.7019C51.3785 47.7019 50.0416 50.6933 49.7073 53.2865C49.7073 53.3387 49.6765 53.7132 49.6149 54.256C45.2344 53.251 42.7787 50.1505 41.5555 47.9934C41.9253 46.3341 42.2667 44.7863 42.3425 44.1842C42.3899 43.8784 51.3785 47.7019 51.3785 47.7019Z" fill="#0A2B3C"/>
<path d="M51.0348 29.6442C51.5776 29.5778 54.5667 33.1808 54.8606 35.0652C55.1545 36.9497 55.0313 40.8063 54.4861 40.9533C53.9409 41.1003 50.6152 29.6963 51.0348 29.6442Z" fill="#0A2B3C"/>
<path d="M39.0951 35.0036C38.1635 38.3625 40.1807 47.946 42.6104 50.0319C46.1351 53.0518 51.7767 53.2011 54.3177 48.9984C56.7782 44.9261 53.9314 32.4815 51.2362 30.6018C47.2469 27.8308 40.4699 30.0376 39.0951 35.0036Z" fill="#D3766A"/>
<path d="M48.3775 46.6968C48.5624 46.8153 48.7615 46.9907 49.0009 46.9599C49.2398 46.9045 49.4643 46.7995 49.6599 46.6517C49.6641 46.6488 49.6692 46.6473 49.6743 46.6474C49.6794 46.6476 49.6844 46.6494 49.6884 46.6526C49.6924 46.6558 49.6952 46.6602 49.6965 46.6652C49.6978 46.6702 49.6974 46.6754 49.6955 46.6802C49.6293 46.8263 49.5251 46.9521 49.3938 47.0442C49.2624 47.1364 49.1088 47.1916 48.9488 47.204C48.8091 47.1956 48.6749 47.1461 48.5632 47.0618C48.4514 46.9775 48.3671 46.862 48.3206 46.73C48.3017 46.7134 48.3491 46.6968 48.3775 46.6968Z" fill="#0A2B3C"/>
<path d="M48.6454 44.6274C48.8635 44.8486 49.1249 45.0223 49.4133 45.1377C49.7017 45.2532 50.0108 45.3078 50.3212 45.2983C50.5923 45.2927 50.8613 45.2488 51.1201 45.1679C51.1715 45.1567 51.2215 45.14 51.2694 45.1181L51.4045 45.066C51.4377 45.0526 51.4655 45.0286 51.4835 44.9977C51.5015 44.9668 51.5088 44.9308 51.5041 44.8953C51.4991 44.8725 51.492 44.8503 51.4827 44.8289L51.4685 44.772C51.3784 44.2719 51.1698 43.5252 51.1698 43.5252C51.3713 43.5797 52.3859 43.8002 52.3171 43.5442C51.7364 41.4108 51.0892 39.0546 50.0629 37.0635C50.0567 37.0492 50.0454 37.0377 50.0311 37.0315C50.0169 37.0252 50.0008 37.0245 49.986 37.0296C49.9713 37.0347 49.9591 37.0452 49.9518 37.059C49.9445 37.0727 49.9427 37.0888 49.9467 37.1038C50.4208 39.1684 51.2623 41.1335 51.7767 43.2028C51.4567 43.1507 50.9304 43.0464 50.6721 43.1056C50.6057 43.1412 51.0987 44.5421 51.1201 44.7649C51.1209 44.7728 51.1209 44.7807 51.1201 44.7886C50.3046 45.0731 49.622 44.9522 48.6928 44.5516C48.6454 44.5303 48.598 44.5848 48.6454 44.6274Z" fill="#0A2B3C"/>
<path d="M50.7787 44.9759C50.581 45.3893 50.2797 45.7445 49.9041 46.007C49.693 46.1443 49.4444 46.2122 49.1929 46.2014C48.6478 46.1753 48.5363 45.7036 48.5458 45.2793C48.5517 45.0525 48.5852 44.8272 48.6454 44.6085C49.2988 44.9564 50.0466 45.0852 50.7787 44.9759Z" fill="#0A2B3C"/>
<path d="M49.9017 46.007C49.6907 46.1442 49.4421 46.2122 49.1906 46.2014C48.6454 46.1753 48.534 45.7036 48.5434 45.2793C49.1195 45.2176 49.7405 45.4784 49.9017 46.007Z" fill="#FF97B8"/>
<path d="M40.4225 43.3498C42.1624 43.2242 42.6957 41.1833 42.8522 38.4194C42.9446 36.8051 42.0296 33.7687 42.0296 33.7687C42.0296 33.7687 46.742 35.1127 49.1906 34.4798C51.6392 33.8469 53.4147 31.3769 52.9832 29.4474C52.6158 27.7881 49.4466 26.072 45.7109 26.5152C43.1034 26.8234 39.0738 29.5968 37.5946 32.6996C37.5946 32.6996 34.5913 34.7808 35.4731 37.1631C36.3549 39.5453 38.4527 43.492 40.4225 43.3498Z" fill="#0A2B3C"/>
<path d="M40.5126 43.1412C42.8474 43.255 43.4922 39.6614 43.2622 37.8813C43.0252 36.0324 42.013 34.2854 41.4038 32.5408C41.4038 32.5408 41.4038 32.5266 41.4181 32.5408C42.5345 34.5959 43.8051 37.2199 43.4329 39.6188C43.1959 41.1287 42.5274 43.6722 40.5055 43.2763C40.4367 43.2479 40.4391 43.1412 40.5126 43.1412Z" fill="#0A2B3C"/>
<path d="M34.8615 36.5041C34.935 34.9396 36.4189 33.1666 37.8103 32.5764C37.8222 32.5764 37.8316 32.5929 37.8103 32.6001C36.1818 33.5127 34.4918 35.8357 35.3498 37.6893C36.0325 39.1708 37.1087 41.0956 38.3673 42.1551C38.4005 42.1836 38.3673 42.2286 38.3247 42.2049C37.3576 41.508 36.8171 40.4816 36.2079 39.4789C35.6864 38.6138 34.8118 37.5945 34.8615 36.5041Z" fill="#0A2B3C"/>
<path d="M37.3054 32.9912C38.8699 29.7319 42.7408 25.6903 46.6519 25.9795V25.9985C42.5582 26.0364 39.5028 30.0282 37.4595 33.0931C37.3979 33.1855 37.2675 33.0836 37.3054 32.9912Z" fill="#0A2B3C"/>
<path d="M41.5342 43.2763C41.5342 43.2763 39.2373 40.2446 37.8506 41.0742C36.464 41.9039 38.2749 46.3555 39.9579 46.9101C40.1688 46.9962 40.3949 47.0387 40.6226 47.0352C40.8504 47.0317 41.0751 46.9821 41.2832 46.8896C41.4913 46.7971 41.6785 46.6634 41.8337 46.4967C41.9889 46.3299 42.1087 46.1335 42.1861 45.9193L41.5342 43.2763Z" fill="#D3766A"/>
<path d="M38.3982 42.3376C38.3721 42.3376 38.3698 42.3732 38.3982 42.3827C39.5834 42.8094 40.2353 43.8642 40.7046 44.9664C40.3443 44.5492 39.8631 44.3312 39.3013 44.7649C39.2705 44.7886 39.3013 44.8337 39.3345 44.8266C39.5364 44.753 39.7563 44.744 39.9635 44.8009C40.1708 44.8578 40.3552 44.9778 40.4913 45.1442C40.7174 45.4235 40.9129 45.7263 41.0744 46.0473C41.1313 46.1492 41.3114 46.0876 41.2735 45.9691C41.2735 45.9691 41.2735 45.9501 41.2735 45.943C41.2308 44.4592 39.9982 42.4301 38.3982 42.3376Z" fill="#0A2B3C"/>
<path d="M88.3163 20.6936C88.2189 19.9443 88.1651 19.1901 88.1552 18.4346C88.1363 17.6799 88.1624 16.9248 88.2334 16.1732C88.3312 16.9224 88.3842 17.6767 88.3922 18.4322C88.4107 19.1868 88.3853 19.9419 88.3163 20.6936Z" fill="#A6A6A6"/>
<path d="M77.998 23.5712C77.5386 22.9718 77.1152 22.3457 76.7298 21.6962C76.3373 21.0522 75.9827 20.3857 75.6679 19.7003C76.1271 20.2977 76.5498 20.9223 76.9337 21.5706C77.3281 22.2156 77.6835 22.8837 77.998 23.5712Z" fill="#A6A6A6"/>
<path d="M70.5028 31.2228C69.8053 30.9337 69.1253 30.6036 68.4667 30.2344C67.8031 29.8735 67.162 29.473 66.5466 29.035C67.244 29.3254 67.9239 29.6563 68.5828 30.0258C69.2458 30.3867 69.8869 30.7864 70.5028 31.2228Z" fill="#A6A6A6"/>
<path d="M67.8456 41.598C67.0972 41.6954 66.3437 41.7492 65.589 41.7592C64.8343 41.7782 64.0792 41.752 63.3276 41.681C64.8267 41.497 66.3408 41.4692 67.8456 41.598Z" fill="#A6A6A6"/>
<path d="M70.7162 51.9117C70.1164 52.3697 69.4903 52.7924 68.8412 53.1774C68.1972 53.5722 67.5299 53.9276 66.843 54.2418C67.4422 53.7829 68.0683 53.3602 68.7179 52.976C69.3619 52.5812 70.0292 52.2258 70.7162 51.9117Z" fill="#A6A6A6"/>
<path d="M106.554 51.5466C107.948 52.1332 109.275 52.8666 110.513 53.7345C109.122 53.1439 107.796 52.4107 106.557 51.5466H106.554Z" fill="#A6A6A6"/>
<path d="M109.221 41.1714C109.969 41.0737 110.723 41.0207 111.477 41.0126C112.232 40.9917 112.987 41.017 113.739 41.0885C112.99 41.1863 112.237 41.2393 111.482 41.2473C110.728 41.2682 109.972 41.2429 109.221 41.1714Z" fill="#A6A6A6"/>
<path d="M106.343 30.8531C106.942 30.3945 107.567 29.9718 108.216 29.5873C108.86 29.1925 109.527 28.8371 110.214 28.523C109.615 28.9824 108.989 29.4051 108.339 29.7888C107.696 30.183 107.029 30.5384 106.343 30.8531Z" fill="#A6A6A6"/>
<path d="M98.6891 23.3579C98.9804 22.6647 99.3112 21.9888 99.68 21.3336C100.04 20.6703 100.44 20.0291 100.877 19.4135C100.588 20.1103 100.258 20.7895 99.8886 21.4473C99.5265 22.1071 99.126 22.7451 98.6891 23.3579Z" fill="#A6A6A6"/>
<path d="M67.8788 27.608L69.8581 27.2406L70.3013 25.1546L70.7446 27.2406L72.7239 27.608L70.7517 28.0916L70.3013 30.0614L69.8509 28.0916L67.8788 27.608Z" fill="#0086C8"/>
<path d="M99.7843 62.3105L101.764 61.9455L102.207 59.8572L102.648 61.9455L104.629 62.3129L102.657 62.7941L102.207 64.7663L101.756 62.7941L99.7843 62.3105Z" fill="#0086C8"/>
<path d="M73.5559 57.9325L74.6629 57.7286L74.9094 56.5624L75.1583 57.7286L76.2653 57.9325L75.163 58.2027L74.9094 59.3049L74.6581 58.2027L73.5559 57.9325Z" fill="#0086C8"/>
<path d="M79.579 22.2177L80.6836 22.0115L80.9325 20.8452L81.1791 22.0115L82.286 22.2177L81.1838 22.4856L80.9325 23.5878L80.6789 22.4856L79.579 22.2177Z" fill="#0086C8"/>
<path d="M74.9094 63.3868C74.9898 63.3798 75.0647 63.343 75.1193 63.2835C75.1739 63.2241 75.2041 63.1463 75.2041 63.0656C75.2041 62.9849 75.1739 62.9071 75.1193 62.8476C75.0647 62.7881 74.9898 62.7513 74.9094 62.7444C74.829 62.7513 74.7541 62.7881 74.6995 62.8476C74.6449 62.9071 74.6146 62.9849 74.6146 63.0656C74.6146 63.1463 74.6449 63.2241 74.6995 63.2835C74.7541 63.343 74.829 63.3798 74.9094 63.3868Z" fill="#0086C8"/>
<path d="M106.135 59.3049C106.184 59.2905 106.227 59.2606 106.258 59.2196C106.289 59.1785 106.305 59.1286 106.305 59.0773C106.305 59.0261 106.289 58.9762 106.258 58.9351C106.227 58.8941 106.184 58.8642 106.135 58.8498C106.085 58.8642 106.042 58.8941 106.011 58.9351C105.981 58.9762 105.964 59.0261 105.964 59.0773C105.964 59.1286 105.981 59.1785 106.011 59.2196C106.042 59.2606 106.085 59.2905 106.135 59.3049Z" fill="#0086C8"/>
<path d="M73.7076 29.6726C73.7559 29.6576 73.7982 29.6275 73.8282 29.5868C73.8582 29.5461 73.8744 29.4968 73.8744 29.4462C73.8744 29.3956 73.8582 29.3464 73.8282 29.3056C73.7982 29.2649 73.7559 29.2349 73.7076 29.2198C73.6593 29.2349 73.6171 29.2649 73.5871 29.3056C73.5571 29.3464 73.5409 29.3956 73.5409 29.4462C73.5409 29.4968 73.5571 29.5461 73.5871 29.5868C73.6171 29.6275 73.6593 29.6576 73.7076 29.6726Z" fill="#0086C8"/>
<path d="M110.733 33.1239C110.782 33.1095 110.826 33.0796 110.856 33.0385C110.887 32.9975 110.904 32.9476 110.904 32.8963C110.904 32.845 110.887 32.7951 110.856 32.7541C110.826 32.7131 110.782 32.6831 110.733 32.6688C110.684 32.6831 110.641 32.7131 110.61 32.7541C110.579 32.7951 110.562 32.845 110.562 32.8963C110.562 32.9476 110.579 32.9975 110.61 33.0385C110.641 33.0796 110.684 33.1095 110.733 33.1239Z" fill="#0086C8"/>
<path d="M107.827 35.2098C108.619 35.2098 108.619 33.9796 107.827 33.9796C107.035 33.9796 107.033 35.2098 107.827 35.2098Z" fill="#0086C8"/>
<g opacity="0.5">
<path d="M106.09 42.4301C105.217 53.3339 96.1339 56.6217 96.1339 56.6217C95.4655 58.2809 94.5956 62.4979 94.5956 62.4979H82.4639C82.4639 62.4979 81.5939 58.2809 80.9255 56.6217C80.9255 56.6217 71.8398 53.3339 70.9698 42.4301C70.3654 34.8448 75.7604 23.6495 88.4634 23.6471H88.5937C101.297 23.6589 106.694 34.8614 106.09 42.4301Z" fill="#FFA800"/>
</g>
<g opacity="0.7">
<path d="M104.587 42.4941C103.793 52.4687 95.482 55.4673 95.482 55.4673C94.8705 56.9843 94.0764 62.5003 94.0764 62.5003H82.9829C82.9829 62.5003 82.1865 56.9843 81.5749 55.4673C81.5749 55.4673 73.2643 52.4616 72.4679 42.487C71.9156 35.556 76.8531 25.3182 88.468 25.3159H88.5889C100.206 25.3182 105.144 35.556 104.587 42.4941Z" fill="#FFA800"/>
</g>
<path d="M82.367 44.3705L81.668 44.5011L85.2346 63.5962L85.9337 63.4657L82.367 44.3705Z" fill="white"/>
<path d="M94.687 44.3714L91.1337 63.469L91.8328 63.5991L95.3861 44.5014L94.687 44.3714Z" fill="white"/>
<path d="M88.5297 50.7549C87.4441 50.7549 86.4485 49.7403 85.7492 48.4437C85.6296 48.609 85.4758 48.7467 85.2983 48.8473C85.1208 48.9479 84.9238 49.0091 84.7205 49.0268C82.9498 49.0268 82.2339 45.348 82.2031 45.1915L82.4402 45.1489C82.4402 45.1844 83.1513 48.7898 84.7229 48.7898C85.0357 48.7898 85.351 48.5717 85.6378 48.2209C85.0933 47.1657 84.7874 46.0036 84.7418 44.817C84.7418 43.8001 85.1187 43.217 85.7801 43.217C86.5504 43.217 86.9913 43.8381 86.9913 44.919C86.9532 46.1042 86.581 47.2546 85.9175 48.2375C86.5789 49.508 87.5223 50.5202 88.525 50.5202C89.2835 50.5202 90.042 49.9276 90.6583 48.8609C90.7128 48.7637 90.7674 48.6642 90.8195 48.5622C90.1084 47.799 89.7125 46.5474 89.7125 45.3551C89.7125 44.0443 90.2008 43.2217 90.9854 43.2217C91.1364 43.2215 91.2844 43.2633 91.4129 43.3424C91.5414 43.4216 91.6454 43.5349 91.7132 43.6698C92.2441 44.5871 91.9502 46.7916 91.104 48.5172C91.4339 48.8499 91.8822 49.0383 92.3508 49.0411C93.7019 49.0411 94.7212 45.4144 94.7354 45.3788L94.9724 45.4428C94.9274 45.5993 93.8892 49.2781 92.365 49.2781C91.8604 49.2734 91.3764 49.0768 91.0115 48.7282L90.8764 48.9652C90.4023 49.7783 89.6154 50.7549 88.5297 50.7549ZM90.9973 43.4541C90.2317 43.4541 89.9614 44.4709 89.9614 45.3504C89.9614 46.2985 90.2791 47.5643 90.9404 48.3347C91.7108 46.7015 92 44.6203 91.5211 43.7906C91.4753 43.6902 91.4015 43.6051 91.3086 43.5455C91.2158 43.4858 91.1077 43.4541 90.9973 43.4541ZM85.7824 43.4541C85.0855 43.4541 84.9812 44.3074 84.9812 44.817C85.0274 45.9251 85.3077 47.0109 85.8038 48.0028C86.3948 47.0813 86.7227 46.0157 86.7519 44.9213C86.7519 44.3714 86.6239 43.4541 85.7777 43.4541H85.7824Z" fill="white"/>
<path d="M96.1269 62.5215H80.9326V70.8843H96.1269V62.5215Z" fill="#005078"/>
<path d="M94.3941 70.8748C93.5005 72.4606 91.7867 73.8781 88.5203 73.8781C85.2539 73.8781 83.5424 72.4559 82.644 70.8748H94.3941Z" fill="#005078"/>
<path d="M94.3941 70.8748C94.1285 71.3487 93.7965 71.7822 93.408 72.1619L82.9498 71.3584C82.8399 71.2057 82.7378 71.0474 82.644 70.8843L94.3941 70.8748Z" fill="#72ADCA"/>
<path d="M96.5701 64.1169L80.4869 65.6031V64.873L96.5701 63.3868V64.1169Z" fill="#72ADCA"/>
<path d="M96.5701 66.3237L80.4869 67.8099V67.0822L96.5701 65.5936V66.3237Z" fill="#72ADCA"/>
<path d="M96.5701 68.5305L80.4869 70.0167V69.289L96.5701 67.8004V68.5305Z" fill="#72ADCA"/>
<g opacity="0.5">
<path d="M74.7956 39.8914C75.3527 39.9838 76.0756 37.1085 79.1666 33.7805C80.5391 32.3037 85.7492 30.4619 85.3747 28.7482C85.0002 27.0344 80.3518 28.7956 78.0123 31.5049C74.2457 35.8641 74.2836 39.8037 74.7956 39.8914Z" fill="white"/>
<path d="M102.216 40.4887C103.24 40.4887 103.243 38.8958 102.216 38.8958C101.19 38.8958 101.18 40.4887 102.216 40.4887Z" fill="white"/>
<path d="M97.1935 52.464C97.7529 52.8931 100.472 50.3828 101.697 47.389C102.717 44.9048 102.882 41.764 102.207 41.5815C101.531 41.399 101.079 45.7084 100.256 47.2965C99.2178 49.3043 96.5938 52.0089 97.1935 52.464Z" fill="white"/>
</g>
</g>
<defs>
<clipPath id="clip0_110_878">
<rect width="128" height="128" fill="white"/>
</clipPath>
</defs>
</svg>
