<?xml version="1.0" encoding="UTF-8" standalone="no"?>
<!-- Created with Inkscape (http://www.inkscape.org/) -->

<svg
   width="74.291748mm"
   height="17.22093mm"
   viewBox="0 0 74.291749 17.22093"
   version="1.1"
   id="svg5"
   inkscape:version="1.1.2 (b8e25be833, 2022-02-05)"
   sodipodi:docname="kasulampua-type.svg"
   xmlns:inkscape="http://www.inkscape.org/namespaces/inkscape"
   xmlns:sodipodi="http://sodipodi.sourceforge.net/DTD/sodipodi-0.dtd"
   xmlns="http://www.w3.org/2000/svg"
   xmlns:svg="http://www.w3.org/2000/svg">
  <sodipodi:namedview
     id="namedview7"
     pagecolor="#ffffff"
     bordercolor="#666666"
     borderopacity="1.0"
     inkscape:pageshadow="2"
     inkscape:pageopacity="0.0"
     inkscape:pagecheckerboard="0"
     inkscape:document-units="mm"
     showgrid="false"
     fit-margin-top="0"
     fit-margin-left="0"
     fit-margin-right="0"
     fit-margin-bottom="0"
     inkscape:zoom="0.45291836"
     inkscape:cx="102.66751"
     inkscape:cy="222.99825"
     inkscape:window-width="1920"
     inkscape:window-height="1009"
     inkscape:window-x="-8"
     inkscape:window-y="-8"
     inkscape:window-maximized="1"
     inkscape:current-layer="layer1" />
  <defs
     id="defs2" />
  <g
     inkscape:label="Layer 1"
     inkscape:groupmode="layer"
     id="layer1"
     transform="translate(219.87885,-333.55497)">
    <path
       id="path13763"
       style="font-weight:normal;font-size:45.3659px;line-height:1.25;font-family:Jogjakartype;-inkscape-font-specification:Jogjakartype;text-align:start;text-anchor:start;stroke-width:0.356615"
       d="m -218.02448,333.55497 c -0.26374,0 -0.5085,0.0507 -0.73402,0.15217 -0.21538,0.10144 -0.40927,0.23833 -0.58167,0.41077 -0.16225,0.17244 -0.2937,0.37523 -0.39447,0.60853 -0.0924,0.22317 -0.13649,0.46153 -0.13225,0.71513 l 0.0508,9.06852 c 0.25359,0 0.49324,-0.0507 0.71876,-0.15218 0.22552,-0.10144 0.41925,-0.23833 0.5815,-0.41077 0.17239,-0.17244 0.30482,-0.37029 0.39725,-0.59345 0.10257,-0.22317 0.15093,-0.46647 0.14489,-0.73021 l -0.006,-1.84119 h 1.30857 c 0.23331,0 0.43622,0.0863 0.60871,0.25877 0.17248,0.17244 0.25897,0.37523 0.25964,0.60853 l -5.4e-4,0.94339 c -0.004,0.26374 0.0449,0.51232 0.14698,0.74563 0.1003,0.22316 0.23672,0.42083 0.40921,0.59328 0.1707,0.1623 0.36658,0.29425 0.58739,0.39569 0.23094,0.10143 0.47825,0.15218 0.74199,0.15218 h 0.98897 c 0.17244,0 0.31393,-0.061 0.42429,-0.18268 0.12049,-0.12173 0.18064,-0.26884 0.1806,-0.44128 h -0.77596 c -0.2351,-0.0101 -0.43801,-0.0963 -0.60871,-0.2586 -0.16055,-0.16229 -0.23618,-0.36014 -0.2267,-0.59345 l -0.0172,-0.95846 c 0.002,-0.33475 -0.0826,-0.63918 -0.2527,-0.91306 -0.16178,-0.28403 -0.37456,-0.51218 -0.63834,-0.68462 0.2434,-0.17244 0.43815,-0.39056 0.58427,-0.65429 0.15447,-0.27388 0.22833,-0.5732 0.22167,-0.8978 l -0.013,-2.05404 c -0.2536,0 -0.49307,0.0507 -0.71859,0.15218 -0.22552,0.10144 -0.42452,0.23833 -0.59692,0.41077 -0.16225,0.17244 -0.29388,0.3754 -0.39465,0.60871 -0.0924,0.22316 -0.1365,0.46153 -0.13224,0.71512 l -0.004,0.5782 c 5.3e-4,0.23331 -0.0801,0.43609 -0.24231,0.60853 -0.16404,0.16231 -0.36275,0.24352 -0.59605,0.24352 h -1.24774 z m 28.63563,0 c -0.2536,0 -0.49307,0.0507 -0.71859,0.15217 -0.22552,0.10144 -0.42452,0.23833 -0.59692,0.41077 -0.16225,0.17244 -0.29388,0.37523 -0.39465,0.60853 -0.0924,0.22317 -0.13649,0.46153 -0.13225,0.71513 l 0.0468,7.15141 c -0.004,0.26374 0.0449,0.51232 0.14697,0.74563 0.10031,0.22316 0.23672,0.42083 0.40921,0.59328 0.1707,0.1623 0.36642,0.29425 0.58722,0.39569 0.23095,0.10143 0.47825,0.15218 0.74199,0.15218 h 1.64326 c 0.17244,0 0.31393,-0.061 0.42429,-0.18268 0.12049,-0.12173 0.18065,-0.26884 0.1806,-0.44128 h -1.415 c -0.2333,0 -0.4354,-0.0811 -0.6061,-0.24335 -0.17249,-0.17244 -0.25387,-0.37539 -0.24439,-0.6087 z m -7.49858,3.28651 c -0.25359,0 -0.49324,0.0507 -0.71876,0.15218 -0.22552,0.10144 -0.42435,0.23833 -0.59674,0.41077 -0.16226,0.17244 -0.29388,0.3754 -0.39465,0.60871 -0.0924,0.22316 -0.1365,0.46153 -0.13225,0.71512 l 0.0288,3.86472 c -0.004,0.26374 0.045,0.51232 0.14714,0.74563 0.1003,0.22316 0.23655,0.42083 0.40905,0.59328 0.18083,0.1623 0.38166,0.29425 0.60246,0.39569 0.23094,0.10143 0.47842,0.15218 0.74216,0.15218 h 2.02353 c 0.26374,0 0.46699,-0.0559 0.60957,-0.16743 0.15272,-0.11158 0.24692,-0.23843 0.28268,-0.38044 0.0967,0.20287 0.23855,0.34487 0.42533,0.42602 0.19693,0.0811 0.39172,0.12185 0.58444,0.12185 h 1.06506 c 0.17245,0 0.31888,-0.061 0.43937,-0.18268 0.1205,-0.12173 0.17572,-0.26884 0.16553,-0.44128 h -0.74563 c -0.24345,0 -0.4513,-0.0861 -0.62379,-0.2586 -0.16233,-0.17244 -0.24389,-0.37522 -0.24456,-0.60852 l -0.0366,-6.1472 c -0.26374,0 -0.50832,0.0507 -0.73384,0.15218 -0.21538,0.10144 -0.40927,0.23833 -0.58167,0.41077 -0.16226,0.17244 -0.29388,0.3754 -0.39466,0.60871 -0.0924,0.22316 -0.13649,0.46153 -0.13224,0.71512 l 0.0182,4.06248 c -0.002,0.27388 -0.065,0.52247 -0.18788,0.74563 -0.11451,0.21301 -0.33403,0.31943 -0.65862,0.31943 h -0.45653 c -0.23331,0 -0.43524,-0.0811 -0.60593,-0.24335 -0.17249,-0.17244 -0.25404,-0.37539 -0.24456,-0.6087 z m 38.09985,0 c -0.25359,0 -0.49324,0.0507 -0.71877,0.15218 -0.22551,0.10144 -0.42434,0.23833 -0.59674,0.41077 -0.16225,0.17244 -0.29388,0.3754 -0.39465,0.60871 -0.0924,0.22316 -0.13649,0.46153 -0.13225,0.71512 l 0.0288,3.86472 c -0.004,0.26374 0.045,0.51232 0.14715,0.74563 0.1003,0.22316 0.23655,0.42083 0.40904,0.59328 0.18084,0.1623 0.38166,0.29425 0.60246,0.39569 0.23095,0.10143 0.47843,0.15218 0.74216,0.15218 h 2.0237 c 0.26374,0 0.46682,-0.0559 0.6094,-0.16743 0.15272,-0.11158 0.24693,-0.23843 0.28269,-0.38044 0.0967,0.20287 0.23854,0.34487 0.42532,0.42602 0.19694,0.0811 0.39172,0.12185 0.58445,0.12185 h 1.06506 c 0.17244,0 0.31904,-0.061 0.43954,-0.18268 0.1205,-0.12173 0.17555,-0.26884 0.16535,-0.44128 h -0.74545 c -0.24346,0 -0.45147,-0.0861 -0.62397,-0.2586 -0.16233,-0.17244 -0.24388,-0.37522 -0.24455,-0.60852 l -0.0366,-6.1472 c -0.26374,0 -0.50831,0.0507 -0.73384,0.15218 -0.21537,0.10144 -0.40927,0.23833 -0.58166,0.41077 -0.16226,0.17244 -0.29388,0.3754 -0.39465,0.60871 -0.0924,0.22316 -0.1365,0.46153 -0.13225,0.71512 l 0.0182,4.06248 c -0.002,0.27388 -0.065,0.52247 -0.18788,0.74563 -0.1145,0.21301 -0.33402,0.31943 -0.65862,0.31943 h -0.45653 c -0.2333,0 -0.43523,-0.0811 -0.60593,-0.24335 -0.17248,-0.17244 -0.25404,-0.37539 -0.24456,-0.6087 z m -51.66675,0.0305 c -0.26373,0 -0.50832,0.0506 -0.73384,0.152 -0.22552,0.10143 -0.42452,0.2385 -0.59692,0.41094 -0.17419,0.1623 -0.31173,0.36015 -0.4125,0.59345 -0.0906,0.23331 -0.13372,0.47661 -0.12948,0.73021 l 0.0234,3.83438 c -0.004,0.26374 0.0449,0.51233 0.14698,0.74563 0.1003,0.22316 0.23671,0.42084 0.40921,0.59328 0.1707,0.1623 0.37152,0.29426 0.60246,0.3957 0.23096,0.10143 0.47826,0.15217 0.74199,0.15217 h 2.0237 c 0.26374,0 0.46682,-0.0559 0.6094,-0.16742 0.15272,-0.11159 0.24692,-0.23844 0.28268,-0.38045 0.0967,0.20288 0.23856,0.34488 0.42534,0.42602 0.19693,0.0812 0.39171,0.12185 0.58443,0.12185 h 1.06507 c 0.17244,0 0.31904,-0.061 0.43954,-0.18268 0.1205,-0.12172 0.17554,-0.26883 0.16535,-0.44127 h -0.74546 c -0.24345,0 -0.45146,-0.0862 -0.62395,-0.2586 -0.16234,-0.17244 -0.24389,-0.37523 -0.24456,-0.60853 l -0.0312,-6.11668 z m 7.51643,0 c -0.65934,0 -1.136,0.1723 -1.43007,0.51718 -0.29587,0.33475 -0.44367,0.76092 -0.44354,1.27825 l 0.0144,0.42603 c -0.004,0.26373 0.0449,0.51214 0.14698,0.74545 0.10031,0.22316 0.23672,0.42101 0.40921,0.59345 0.17249,0.17244 0.36918,0.30933 0.58999,0.41077 0.22915,0.0913 0.47547,0.13693 0.73921,0.13693 h 0.8673 c 0.2351,0.0101 0.43388,0.10158 0.59623,0.27402 0.17068,0.1623 0.25636,0.35997 0.25703,0.59327 l 0.007,1.15641 c 5.3e-4,0.2333 -0.081,0.43115 -0.24507,0.59345 -0.15391,0.16229 -0.34669,0.24844 -0.57821,0.2586 h -2.57139 c 4e-5,0.17244 0.0616,0.31955 0.18458,0.44127 0.12296,0.12172 0.27057,0.18268 0.44301,0.18268 h 2.75408 c 0.25359,0 0.49307,-0.0507 0.71859,-0.15217 0.23567,-0.10144 0.44058,-0.2334 0.61477,-0.3957 0.1724,-0.17244 0.30483,-0.37012 0.39725,-0.59328 0.10078,-0.2333 0.14816,-0.48189 0.14212,-0.74563 l -0.001,-0.34993 c -0.004,-0.25359 -0.0574,-0.49707 -0.15945,-0.73038 -0.092,-0.2333 -0.22837,-0.43115 -0.40921,-0.59345 -0.1725,-0.17245 -0.37412,-0.30933 -0.60507,-0.41077 -0.23095,-0.10144 -0.47331,-0.15218 -0.72691,-0.15218 h -0.8673 c -0.23331,0 -0.43523,-0.081 -0.60593,-0.24334 -0.16234,-0.17244 -0.24389,-0.3754 -0.24456,-0.6087 l -0.007,-1.15641 c -5.4e-4,-0.2333 0.081,-0.43115 0.24507,-0.59345 0.16405,-0.16229 0.36194,-0.24844 0.59345,-0.25859 h 2.25179 c -4e-5,-0.17244 -0.0615,-0.31955 -0.18441,-0.44128 -0.12296,-0.12173 -0.27074,-0.1825 -0.44318,-0.1825 z m 17.7566,0 c -0.26374,0 -0.50832,0.0506 -0.73385,0.152 -0.22552,0.10143 -0.42452,0.2385 -0.59691,0.41094 -0.17419,0.1623 -0.31156,0.36015 -0.41234,0.59345 -0.0906,0.23331 -0.13389,0.47661 -0.12964,0.73021 l 0.0234,3.83438 c -0.004,0.26374 0.0449,0.51233 0.14698,0.74563 0.1003,0.22316 0.23671,0.42084 0.40921,0.59328 0.1707,0.1623 0.37152,0.29426 0.60247,0.3957 0.23094,0.10143 0.47825,0.15217 0.74199,0.15217 h 2.02369 c 0.26374,0 0.467,-0.0559 0.60958,-0.16742 0.15271,-0.11159 0.24692,-0.23844 0.28268,-0.38045 0.0967,0.20288 0.23838,0.34488 0.42516,0.42602 0.19693,0.0812 0.39188,0.12185 0.58461,0.12185 h 1.06506 c 0.17244,0 0.31887,-0.061 0.43937,-0.18268 0.1205,-0.12172 0.17572,-0.26883 0.16552,-0.44127 h -0.74563 c -0.24345,0 -0.45129,-0.0862 -0.62378,-0.2586 -0.16233,-0.17244 -0.24388,-0.37523 -0.24455,-0.60853 l -0.0312,-6.11668 z m 5.91892,0 0.0567,7.63809 c 0.25359,0 0.49307,-0.0507 0.71859,-0.15218 0.22552,-0.10143 0.41941,-0.23832 0.58166,-0.41077 0.1724,-0.17244 0.30483,-0.37028 0.39726,-0.59345 0.10257,-0.22316 0.15093,-0.46646 0.1449,-0.7302 l -0.0238,-5.12771 h 1.30841 c 0.23331,0 0.43621,0.0861 0.6087,0.25859 0.1707,0.1623 0.25127,0.36015 0.24178,0.59345 l 0.0394,6.16227 c 0.25359,0 0.49324,-0.0507 0.71876,-0.15218 0.22553,-0.10143 0.41942,-0.23832 0.58167,-0.41077 0.1724,-0.17244 0.30465,-0.37028 0.39708,-0.59345 0.10258,-0.22316 0.15606,-0.46646 0.16015,-0.7302 l -0.0255,-4.27567 c -5.4e-4,-0.2333 0.081,-0.43115 0.24507,-0.59345 0.16226,-0.17244 0.36015,-0.25859 0.59346,-0.25859 h 0.45635 c 0.2333,0 0.43621,0.0861 0.6087,0.25859 0.17069,0.1623 0.25637,0.36015 0.25704,0.59345 l 0.0173,4.22991 c 0.006,0.26374 0.0601,0.51233 0.16223,0.74563 0.10031,0.22316 0.23672,0.42101 0.40921,0.59345 0.17249,0.17245 0.36919,0.30934 0.58999,0.41078 0.23095,0.10143 0.47825,0.15217 0.74199,0.15217 h 0.97372 c 0.17064,-0.0101 0.31707,-0.0711 0.43936,-0.18268 0.1205,-0.12172 0.18082,-0.26883 0.18078,-0.44127 h -0.79121 c -0.23331,0 -0.43111,-0.0862 -0.59345,-0.2586 -0.16234,-0.17244 -0.24389,-0.37523 -0.24456,-0.60853 l -0.0173,-4.23008 c -0.004,-0.2536 -0.0574,-0.4969 -0.15945,-0.73021 -0.1021,-0.2333 -0.23852,-0.43115 -0.40922,-0.59345 -0.17249,-0.17244 -0.37411,-0.30951 -0.60506,-0.41094 -0.23095,-0.10144 -0.47332,-0.152 -0.72692,-0.152 h -2.11486 c -0.35503,0 -0.67466,0.0861 -0.95864,0.25859 -0.28407,-0.17245 -0.60361,-0.25859 -0.95864,-0.25859 z m 11.63992,0 0.0513,7.60776 0.0123,1.96269 c 0.25359,0 0.49306,-0.0506 0.71859,-0.152 0.22551,-0.10144 0.41941,-0.2385 0.58166,-0.41095 0.1724,-0.17244 0.30483,-0.37011 0.39725,-0.59328 0.10257,-0.22316 0.15076,-0.46663 0.14473,-0.73037 l 0.002,-0.0761 h 2.16063 c 0.25359,0 0.49324,-0.0507 0.71876,-0.15217 0.23567,-0.10144 0.43547,-0.2334 0.59952,-0.3957 0.17239,-0.17244 0.30482,-0.37012 0.39725,-0.59328 0.10078,-0.2333 0.14816,-0.48189 0.14212,-0.74563 l -0.0234,-3.83438 c -0.0121,-0.52747 -0.19569,-0.96352 -0.55082,-1.30841 -0.35691,-0.35503 -0.79167,-0.54777 -1.30424,-0.57819 z m 16.38718,0 c -0.26374,0 -0.50832,0.0506 -0.73384,0.152 -0.22552,0.10143 -0.42452,0.2385 -0.59692,0.41094 -0.17418,0.1623 -0.31173,0.36015 -0.4125,0.59345 -0.0906,0.23331 -0.13372,0.47661 -0.12947,0.73021 l 0.0234,3.83438 c -0.004,0.26374 0.0449,0.51233 0.14697,0.74563 0.1003,0.22316 0.23672,0.42084 0.40921,0.59328 0.1707,0.1623 0.37152,0.29426 0.60246,0.3957 0.23095,0.10143 0.47826,0.15217 0.74199,0.15217 h 2.02371 c 0.26373,0 0.46681,-0.0559 0.60939,-0.16742 0.15273,-0.11159 0.2471,-0.23844 0.28286,-0.38045 0.0967,0.20288 0.23837,0.34488 0.42516,0.42602 0.19693,0.0812 0.39171,0.12185 0.58444,0.12185 h 1.06523 c 0.17245,0 0.31887,-0.061 0.43937,-0.18268 0.12051,-0.12172 0.17572,-0.26883 0.16553,-0.44127 h -0.74563 c -0.24345,0 -0.45147,-0.0862 -0.62396,-0.2586 -0.16234,-0.17244 -0.24389,-0.37523 -0.24456,-0.60853 l -0.0312,-6.11668 z m -58.39369,0.62378 h 1.30858 l 0.0454,5.50798 c 5.4e-4,0.2333 -0.0853,0.43626 -0.25773,0.6087 -0.16404,0.1623 -0.36274,0.24335 -0.59605,0.24335 h -0.45636 c -0.2333,0 -0.4354,-0.0811 -0.60609,-0.24335 -0.1725,-0.17244 -0.25387,-0.3754 -0.24439,-0.6087 l -0.0444,-4.64069 c 0.009,-0.2333 0.0955,-0.43626 0.25773,-0.6087 0.16225,-0.17244 0.35997,-0.25859 0.59328,-0.25859 z m 25.2732,0 h 1.3084 l 0.0454,5.50798 c 5.3e-4,0.2333 -0.0852,0.43626 -0.25756,0.6087 -0.16405,0.1623 -0.36275,0.24335 -0.59605,0.24335 h -0.45653 c -0.23331,0 -0.43523,-0.0811 -0.60593,-0.24335 -0.17249,-0.17244 -0.25404,-0.3754 -0.24456,-0.6087 l -0.0442,-4.64069 c 0.009,-0.2333 0.0953,-0.43626 0.25756,-0.6087 0.16225,-0.17244 0.36014,-0.25859 0.59345,-0.25859 z m 18.60864,0 h 1.29333 c 0.2333,0 0.43621,0.0861 0.6087,0.25859 0.17069,0.1623 0.25637,0.36015 0.25704,0.59345 l 0.0468,4.65594 c -0.009,0.2333 -0.0953,0.43626 -0.25755,0.6087 -0.16405,0.1623 -0.36275,0.24335 -0.59605,0.24335 h -1.32384 z m 15.33721,0 h 1.30858 l 0.0454,5.50798 c 5.4e-4,0.2333 -0.0852,0.43626 -0.25755,0.6087 -0.16405,0.1623 -0.36275,0.24335 -0.59606,0.24335 h -0.45652 c -0.23331,0 -0.43524,-0.0811 -0.60594,-0.24335 -0.17248,-0.17244 -0.25403,-0.3754 -0.24455,-0.6087 l -0.0442,-4.64069 c 0.009,-0.2333 0.0953,-0.43626 0.25756,-0.6087 0.16225,-0.17244 0.35997,-0.25859 0.59328,-0.25859 z m -65.00885,9.75749 v 2.34209 c 0,0.12949 0.0361,0.2304 0.10832,0.30261 0.0747,0.0722 0.17562,0.10833 0.30263,0.10833 0.0573,0 0.12322,-0.007 0.19793,-0.0224 0.0747,-0.0149 0.13933,-0.0337 0.19412,-0.0562 l -0.0522,-0.26518 c -0.0324,0.0125 -0.0673,0.0237 -0.10469,0.0336 -0.0374,0.007 -0.0697,0.0113 -0.0971,0.0113 -0.0697,0 -0.12447,-0.0199 -0.16431,-0.0598 -0.0374,-0.0423 -0.0562,-0.0995 -0.0562,-0.17176 v -2.22267 z m 1.0609,0 v 0.41094 h 0.32862 v -0.41094 z m 23.40566,0 v 2.34209 c 0,0.12949 0.0361,0.2304 0.10833,0.30261 0.0747,0.0722 0.17562,0.10833 0.30262,0.10833 0.0573,0 0.12322,-0.007 0.19793,-0.0224 0.0747,-0.0149 0.13951,-0.0337 0.19429,-0.0562 l -0.0523,-0.26518 c -0.0324,0.0125 -0.0672,0.0237 -0.10451,0.0336 -0.0374,0.007 -0.0697,0.0113 -0.0971,0.0113 -0.0697,0 -0.12464,-0.0199 -0.16448,-0.0598 -0.0374,-0.0423 -0.056,-0.0995 -0.056,-0.17176 v -2.22267 z m 10.1192,0 v 0.41094 h 0.32879 v -0.41094 z m 10.90728,0 v 2.34209 c 0,0.12949 0.0361,0.2304 0.10833,0.30261 0.0747,0.0722 0.17561,0.10833 0.30262,0.10833 0.0573,0 0.12322,-0.007 0.19793,-0.0224 0.0747,-0.0149 0.13951,-0.0337 0.19429,-0.0562 l -0.0523,-0.26518 c -0.0324,0.0125 -0.0673,0.0237 -0.10469,0.0336 -0.0374,0.007 -0.0697,0.0113 -0.0971,0.0113 -0.0697,0 -0.12446,-0.0199 -0.1643,-0.0598 -0.0374,-0.0423 -0.056,-0.0995 -0.056,-0.17176 v -2.22267 z m 3.30576,0 v 2.72686 h 0.32879 v -0.60143 l 0.37351,-0.35114 0.67231,0.95257 h 0.35496 l -0.81444,-1.13924 0.777,-0.80681 h -0.36224 l -1.0011,1.01219 v -1.793 z m -27.96298,0.0562 c -0.13696,0 -0.26391,0.0173 -0.38095,0.0522 -0.11705,0.0324 -0.21795,0.0822 -0.30262,0.1494 -0.0847,0.0672 -0.15062,0.14952 -0.19794,0.24664 -0.0473,0.0971 -0.0709,0.20924 -0.0709,0.33624 0,0.10459 0.0173,0.19411 0.0522,0.26882 0.0349,0.0747 0.086,0.13819 0.15322,0.19048 0.0697,0.0523 0.15562,0.0971 0.25772,0.13449 0.10211,0.0374 0.22032,0.0723 0.35479,0.10469 0.12202,0.0299 0.23035,0.0597 0.32498,0.0896 0.0971,0.0274 0.17807,0.0597 0.24283,0.0971 0.0647,0.0374 0.11338,0.0822 0.14576,0.1345 0.0349,0.0498 0.0522,0.11213 0.0522,0.18684 0,0.13447 -0.0523,0.23521 -0.15686,0.30245 -0.10459,0.0672 -0.2515,0.10087 -0.44075,0.10087 -0.1021,0 -0.20037,-0.01 -0.295,-0.0298 -0.0921,-0.0224 -0.17936,-0.0498 -0.26154,-0.0822 -0.0797,-0.0349 -0.1519,-0.0736 -0.21665,-0.11595 -0.0623,-0.0424 -0.11337,-0.0845 -0.15322,-0.12687 l -0.16049,0.28389 c 0.14942,0.12203 0.31495,0.21534 0.49674,0.28009 0.18427,0.0623 0.3785,0.0934 0.5827,0.0934 0.13697,0 0.26392,-0.0137 0.38096,-0.0411 0.11705,-0.0299 0.21796,-0.0747 0.30262,-0.1345 0.0872,-0.0623 0.15558,-0.13941 0.20539,-0.23155 0.0498,-0.0946 0.0747,-0.20543 0.0747,-0.33244 0,-0.11953 -0.0211,-0.22044 -0.0634,-0.30261 -0.0398,-0.0822 -0.0995,-0.15193 -0.17921,-0.2092 -0.0772,-0.0573 -0.17184,-0.1046 -0.2839,-0.14195 -0.10957,-0.0398 -0.2329,-0.0746 -0.36987,-0.10452 -0.11953,-0.0274 -0.22291,-0.0536 -0.31007,-0.0785 -0.0872,-0.0249 -0.16053,-0.0536 -0.22029,-0.086 -0.0573,-0.0349 -0.0997,-0.0759 -0.12705,-0.12323 -0.0274,-0.0473 -0.0411,-0.10699 -0.0411,-0.17921 0,-0.13447 0.0473,-0.24033 0.14195,-0.31753 0.0971,-0.0772 0.24897,-0.11578 0.45566,-0.11578 0.0797,0 0.1557,0.009 0.22792,0.0262 0.0747,0.0149 0.14313,0.036 0.20538,0.0634 0.0623,0.0249 0.11832,0.0536 0.16813,0.086 0.0498,0.0324 0.0897,0.066 0.11959,0.10088 l 0.15685,-0.27281 c -0.11206,-0.0921 -0.24034,-0.16551 -0.38477,-0.22029 -0.14444,-0.0548 -0.30635,-0.0821 -0.48565,-0.0821 z m -23.59249,0.0186 -1.36717,1.46803 v -1.46422 h -0.33624 v 2.64835 h 0.33624 v -0.81063 l 0.45948,-0.47802 0.96367,1.28865 h 0.36605 l -1.12433,-1.48294 1.06454,-1.16923 z m 42.97901,0 v 2.65216 h 0.33624 v -2.05074 l 0.88533,1.57254 h 0.19048 l 0.88151,-1.57254 v 2.05074 h 0.33624 v -2.65216 h -0.35115 l -0.96367,1.72212 -0.96002,-1.72212 z m 17.6124,0 v 2.65216 h 0.33606 v -0.95258 h 0.79191 c 0.11704,0 0.22289,-0.0236 0.31752,-0.0709 0.0971,-0.0473 0.1794,-0.1108 0.24664,-0.19048 0.0697,-0.0797 0.12314,-0.17071 0.16049,-0.27281 0.0374,-0.1021 0.0562,-0.20778 0.0562,-0.31735 0,-0.10459 -0.0199,-0.20682 -0.0598,-0.30643 -0.0398,-0.10211 -0.0959,-0.19295 -0.16813,-0.27264 -0.0697,-0.0822 -0.15448,-0.14698 -0.25409,-0.1943 -0.0971,-0.0498 -0.20411,-0.0747 -0.32116,-0.0747 z m -48.1154,0.0523 v 0.64995 h -0.26518 v 0.25773 h 0.26518 v 1.31118 c 0,0.13945 0.0437,0.24266 0.13086,0.30989 0.0872,0.0648 0.19037,0.0972 0.3099,0.0972 0.0523,0 0.10226,-0.005 0.14958,-0.0149 0.0498,-0.007 0.0945,-0.0175 0.13432,-0.03 0.0424,-0.0149 0.0798,-0.0286 0.11214,-0.0411 0.0324,-0.015 0.0586,-0.0273 0.0785,-0.0373 l -0.0785,-0.26154 c -0.0199,0.0124 -0.0574,0.0299 -0.11214,0.0523 -0.0523,0.0199 -0.11083,0.0298 -0.17557,0.0298 -0.0573,0 -0.10707,-0.0161 -0.14941,-0.0485 -0.0423,-0.0324 -0.0659,-0.0846 -0.0709,-0.15686 v -1.2103 h 0.43694 v -0.25772 h -0.43694 v -0.64997 z m 48.45146,0.24646 h 0.75083 c 0.0648,0 0.12575,0.0138 0.18303,0.0412 0.0598,0.0274 0.11088,0.066 0.15321,0.11578 0.0448,0.0498 0.0796,0.10834 0.10452,0.17558 0.0274,0.0672 0.0411,0.13945 0.0411,0.21665 0,0.0747 -0.011,0.1456 -0.0335,0.21284 -0.0224,0.0672 -0.0536,0.12692 -0.0934,0.17921 -0.0398,0.0498 -0.0885,0.0897 -0.14576,0.11959 -0.0548,0.0274 -0.11694,0.0411 -0.18667,0.0411 h -0.77336 z m -40.93521,0.30799 c -0.0917,0 -0.18344,0.0353 -0.25374,0.10555 l -0.41736,0.41736 c -0.14059,0.1406 -0.14059,0.3669 0,0.50748 l 0.41736,0.41737 c 0.1406,0.14059 0.36689,0.14059 0.50749,0 l 0.41736,-0.41737 c 0.14059,-0.14059 0.14059,-0.36688 0,-0.50748 l -0.41736,-0.41736 c -0.0703,-0.0703 -0.162,-0.10555 -0.25375,-0.10555 z m 20.34273,0 c -0.0917,0 -0.18362,0.0353 -0.25392,0.10555 l -0.41735,0.41736 c -0.1406,0.1406 -0.1406,0.3669 0,0.50748 l 0.41735,0.41737 c 0.1406,0.14059 0.36707,0.14059 0.50766,0 l 0.41736,-0.41737 c 0.14059,-0.14058 0.14059,-0.36688 0,-0.50748 l -0.41736,-0.41736 c -0.0703,-0.0703 -0.162,-0.10555 -0.25374,-0.10555 z m 17.46421,0 c -0.0917,0 -0.18345,0.0353 -0.25375,0.10555 l -0.41736,0.41736 c -0.14059,0.1406 -0.14059,0.36689 0,0.50748 l 0.41736,0.41737 c 0.1406,0.14059 0.3669,0.14059 0.50749,0 l 0.41736,-0.41737 c 0.14059,-0.14058 0.14059,-0.36688 0,-0.50748 l -0.41736,-0.41736 c -0.0703,-0.0703 -0.162,-0.10555 -0.25374,-0.10555 z m -56.39097,0.0619 c -0.254,0 -0.50677,0.0847 -0.75828,0.25409 l 0.10833,0.21284 c 0.21664,-0.15191 0.42323,-0.22792 0.61997,-0.22792 0.16435,0 0.29148,0.0462 0.38113,0.13831 0.0896,0.0897 0.13433,0.21414 0.13433,0.37351 v 0.15685 c -0.0747,-0.0299 -0.16061,-0.0535 -0.25774,-0.0709 -0.0971,-0.0174 -0.19291,-0.0262 -0.28754,-0.0262 -0.11953,0 -0.23032,0.0148 -0.33243,0.0447 -0.0996,0.0299 -0.18683,0.0711 -0.26154,0.12341 -0.0722,0.0523 -0.12827,0.11577 -0.16812,0.19048 -0.0398,0.0722 -0.0598,0.15317 -0.0598,0.24282 0,0.0872 0.0164,0.16794 0.0487,0.24265 0.0349,0.0722 0.0809,0.13587 0.13814,0.19066 0.0598,0.0548 0.12951,0.0983 0.2092,0.13068 0.0797,0.0299 0.16559,0.0449 0.25773,0.0449 0.1519,0 0.29386,-0.03 0.42584,-0.0898 0.13448,-0.0623 0.24528,-0.15178 0.33244,-0.26882 l 0.007,0.13813 c 0.007,0.0548 0.0299,0.10211 0.0672,0.14195 0.0398,0.0374 0.0921,0.056 0.15687,0.056 0.0249,0 0.0486,-0.001 0.0711,-0.004 0.0224,-0.002 0.0509,-0.006 0.0858,-0.0113 v -0.2839 c -0.0697,-0.002 -0.10452,-0.0422 -0.10452,-0.11942 v -0.79572 c 0,-0.24902 -0.0722,-0.4421 -0.21664,-0.57907 -0.14195,-0.13696 -0.34112,-0.20538 -0.59762,-0.20538 z m 4.30687,0 c -0.15938,0 -0.30267,0.0399 -0.42967,0.11959 -0.12701,0.0772 -0.23022,0.188 -0.3099,0.33243 v -0.4184 h -0.29898 v 1.94987 h 0.32879 v -1.17668 c 0.0448,-0.15439 0.12084,-0.27755 0.22792,-0.3697 0.10708,-0.0946 0.22662,-0.14195 0.3586,-0.14195 0.12949,0 0.22661,0.0473 0.29136,0.14195 0.0647,0.0946 0.0971,0.24649 0.0971,0.45567 v 1.09071 h 0.32861 v -1.17287 c 0.0448,-0.1519 0.11969,-0.27524 0.22428,-0.36987 0.10708,-0.0971 0.22777,-0.14559 0.36224,-0.14559 0.1295,0 0.22661,0.0485 0.29135,0.14559 0.0672,0.0971 0.10088,0.24782 0.10088,0.45203 v 1.09071 h 0.32879 l -1.8e-4,-1.16542 c 0,-0.11703 -0.01,-0.22536 -0.0298,-0.32497 -0.0199,-0.0996 -0.0522,-0.18551 -0.0971,-0.25773 -0.0448,-0.0747 -0.10583,-0.13209 -0.18303,-0.17194 -0.0747,-0.0424 -0.1682,-0.0634 -0.28026,-0.0634 -0.32124,0 -0.56888,0.15812 -0.7432,0.47438 -0.0224,-0.13945 -0.0823,-0.25272 -0.17939,-0.33988 -0.0946,-0.0897 -0.22406,-0.1345 -0.38841,-0.1345 z m 3.14144,0 c -0.25401,0 -0.50676,0.0847 -0.75828,0.25409 l 0.10832,0.21284 c 0.21666,-0.15191 0.42325,-0.22792 0.61998,-0.22792 0.16435,0 0.29149,0.0462 0.38114,0.13831 0.0896,0.0897 0.13431,0.21414 0.13431,0.37351 v 0.15685 c -0.0747,-0.0299 -0.1606,-0.0535 -0.25772,-0.0709 -0.0971,-0.0174 -0.19291,-0.0262 -0.28754,-0.0262 -0.11953,0 -0.23033,0.0148 -0.33243,0.0447 -0.0996,0.0299 -0.18684,0.0711 -0.26154,0.12341 -0.0722,0.0523 -0.12828,0.11577 -0.16813,0.19048 -0.0398,0.0722 -0.0596,0.15317 -0.0596,0.24282 0,0.0872 0.0162,0.16794 0.0485,0.24265 0.0349,0.0722 0.0809,0.13587 0.13813,0.19066 0.0598,0.0548 0.12951,0.0983 0.2092,0.13068 0.0797,0.0299 0.16559,0.0449 0.25773,0.0449 0.15191,0 0.29387,-0.03 0.42585,-0.0898 0.13447,-0.0623 0.24527,-0.15178 0.33243,-0.26882 l 0.007,0.13813 c 0.007,0.0548 0.0299,0.10211 0.0673,0.14195 0.0398,0.0374 0.0921,0.056 0.15686,0.056 0.0249,0 0.0486,-0.001 0.0711,-0.004 0.0224,-0.002 0.0509,-0.006 0.0858,-0.0113 v -0.2839 c -0.0697,-0.002 -0.10451,-0.0422 -0.10451,-0.11942 v -0.79572 c 0,-0.24902 -0.0722,-0.4421 -0.21665,-0.57907 -0.14194,-0.13696 -0.34112,-0.20538 -0.59762,-0.20538 z m 2.45042,0 c -0.17183,0 -0.33127,0.0411 -0.47819,0.12323 -0.14444,0.0822 -0.25524,0.19183 -0.33243,0.32879 v -0.4184 h -0.29881 v 1.94987 h 0.32862 v -1.17668 c 0.0224,-0.0747 0.056,-0.14313 0.10087,-0.20539 0.0448,-0.0622 0.0971,-0.11584 0.15686,-0.16067 0.0598,-0.0448 0.12341,-0.0796 0.19065,-0.10451 0.0672,-0.0274 0.13433,-0.0411 0.20157,-0.0411 0.1295,0 0.22546,0.0473 0.28772,0.14195 0.0647,0.0946 0.0971,0.24648 0.0971,0.45566 v 1.09071 h 0.3288 v -1.16541 c 0,-0.11704 -0.0101,-0.22536 -0.03,-0.32498 -0.0174,-0.0996 -0.0484,-0.18551 -0.0932,-0.25773 -0.0448,-0.0747 -0.10468,-0.13209 -0.17939,-0.17193 -0.0747,-0.0424 -0.16803,-0.0634 -0.28009,-0.0634 z m 3.11892,0 c -0.25401,0 -0.50677,0.0847 -0.75829,0.25409 l 0.10833,0.21284 c 0.21665,-0.15191 0.42342,-0.22792 0.62015,-0.22792 0.16435,0 0.29131,0.0462 0.38095,0.13831 0.0897,0.0897 0.1345,0.21414 0.1345,0.37351 v 0.15685 c -0.0747,-0.0299 -0.16061,-0.0535 -0.25773,-0.0709 -0.0971,-0.0174 -0.19291,-0.0262 -0.28754,-0.0262 -0.11952,0 -0.2305,0.0148 -0.3326,0.0447 -0.0996,0.0299 -0.18666,0.0711 -0.26137,0.12341 -0.0722,0.0523 -0.12828,0.11577 -0.16812,0.19048 -0.0398,0.0722 -0.0598,0.15317 -0.0598,0.24282 0,0.0872 0.0161,0.16794 0.0485,0.24265 0.0349,0.0722 0.081,0.13587 0.13831,0.19066 0.0598,0.0548 0.12951,0.0983 0.2092,0.13068 0.0797,0.0299 0.16559,0.0449 0.25773,0.0449 0.1519,0 0.29387,-0.03 0.42585,-0.0898 0.13447,-0.0623 0.24527,-0.15178 0.33243,-0.26882 l 0.007,0.13813 c 0.007,0.0548 0.0299,0.10211 0.0673,0.14195 0.0398,0.0374 0.0921,0.056 0.15686,0.056 0.0249,0 0.0485,-0.001 0.0709,-0.004 0.0224,-0.002 0.0511,-0.006 0.086,-0.0113 v -0.2839 c -0.0697,-0.002 -0.10452,-0.0422 -0.10452,-0.11942 v -0.79572 c 0,-0.24902 -0.0722,-0.4421 -0.21664,-0.57907 -0.14195,-0.13696 -0.3413,-0.20538 -0.59779,-0.20538 z m 2.45041,0 c -0.17182,0 -0.33109,0.0411 -0.47801,0.12323 -0.14444,0.0822 -0.25524,0.19183 -0.33244,0.32879 v -0.4184 h -0.29898 v 1.94987 h 0.32879 v -1.17668 c 0.0224,-0.0747 0.056,-0.14313 0.10087,-0.20539 0.0448,-0.0622 0.0971,-0.11584 0.15687,-0.16067 0.0598,-0.0448 0.12324,-0.0796 0.19047,-0.10451 0.0672,-0.0274 0.13451,-0.0411 0.20175,-0.0411 0.12949,0 0.22529,0.0473 0.28754,0.14195 0.0648,0.0946 0.0972,0.24648 0.0972,0.45566 v 1.09071 h 0.32862 v -1.16541 c 0,-0.11704 -0.01,-0.22536 -0.0298,-0.32498 -0.0174,-0.0996 -0.0486,-0.18551 -0.0934,-0.25773 -0.0448,-0.0747 -0.10451,-0.13209 -0.17922,-0.17193 -0.0747,-0.0424 -0.1682,-0.0634 -0.28026,-0.0634 z m 12.13631,0 c -0.254,0 -0.50677,0.0847 -0.75828,0.25409 l 0.10833,0.21284 c 0.21665,-0.15191 0.42324,-0.22792 0.61997,-0.22792 0.16435,0 0.29148,0.0462 0.38113,0.13831 0.0897,0.0897 0.13433,0.21414 0.13433,0.37351 v 0.15685 c -0.0747,-0.0299 -0.16062,-0.0535 -0.25774,-0.0709 -0.0971,-0.0174 -0.1929,-0.0262 -0.28754,-0.0262 -0.11953,0 -0.23032,0.0148 -0.33242,0.0447 -0.0996,0.0299 -0.18684,0.0711 -0.26155,0.12341 -0.0722,0.0523 -0.12828,0.11577 -0.16812,0.19048 -0.0398,0.0722 -0.0596,0.15317 -0.0596,0.24282 0,0.0872 0.0161,0.16794 0.0485,0.24265 0.0349,0.0722 0.0809,0.13587 0.13814,0.19066 0.0598,0.0548 0.12951,0.0983 0.2092,0.13068 0.0797,0.0299 0.16558,0.0449 0.25772,0.0449 0.1519,0 0.29387,-0.03 0.42586,-0.0898 0.13447,-0.0623 0.24527,-0.15178 0.33242,-0.26882 l 0.007,0.13813 c 0.007,0.0548 0.0299,0.10211 0.0673,0.14195 0.0398,0.0374 0.0921,0.056 0.15685,0.056 0.0249,0 0.0486,-0.001 0.0711,-0.004 0.0224,-0.002 0.0509,-0.006 0.0858,-0.0113 v -0.2839 c -0.0697,-0.002 -0.10452,-0.0422 -0.10452,-0.11942 v -0.79572 c 0,-0.24902 -0.0722,-0.4421 -0.21665,-0.57907 -0.14194,-0.13696 -0.34111,-0.20538 -0.59761,-0.20538 z m 5.14349,0 c -0.14693,0 -0.2813,0.0274 -0.40332,0.0822 -0.12203,0.0523 -0.22788,0.12451 -0.31753,0.21666 -0.0872,0.0921 -0.15558,0.19931 -0.20538,0.32133 -0.0473,0.12202 -0.0711,0.25146 -0.0711,0.38842 0,0.13696 0.0238,0.26771 0.0711,0.39222 0.0498,0.12203 0.11822,0.22903 0.20538,0.32117 0.0872,0.0921 0.19169,0.16567 0.31371,0.22046 0.12202,0.0523 0.25657,0.0785 0.40349,0.0785 0.0971,0 0.19044,-0.0125 0.28009,-0.0374 0.0897,-0.0249 0.17061,-0.0585 0.24283,-0.10087 0.0747,-0.0448 0.1395,-0.0971 0.19429,-0.15686 0.0573,-0.0598 0.10212,-0.12572 0.1345,-0.19793 l -0.2839,-0.0785 c -0.02,0.0498 -0.0498,0.0947 -0.0896,0.1345 -0.0374,0.0398 -0.0811,0.0735 -0.13086,0.10087 -0.0498,0.0274 -0.10322,0.0498 -0.16049,0.0673 -0.0573,0.0149 -0.11581,0.0224 -0.17558,0.0224 -0.0847,0 -0.16562,-0.0161 -0.24282,-0.0485 -0.0747,-0.0324 -0.14198,-0.0772 -0.20175,-0.13451 -0.0598,-0.0573 -0.10824,-0.12569 -0.14559,-0.20538 -0.0374,-0.0797 -0.0598,-0.16806 -0.0673,-0.26518 h 1.61727 c 0.002,-0.0124 0.004,-0.0299 0.004,-0.0523 0.002,-0.0224 0.004,-0.0473 0.004,-0.0747 0,-0.1295 -0.0236,-0.25398 -0.0709,-0.37351 -0.0448,-0.12202 -0.10962,-0.22787 -0.19429,-0.31752 -0.0847,-0.0921 -0.18805,-0.16568 -0.31007,-0.22047 -0.11953,-0.0548 -0.25276,-0.0821 -0.39968,-0.0821 z m 2.00966,0 c -0.10459,0 -0.20285,0.0137 -0.295,0.0411 -0.0897,0.0249 -0.16813,0.0635 -0.23537,0.11578 -0.0672,0.0498 -0.12082,0.11328 -0.16067,0.19048 -0.0374,0.0747 -0.056,0.16061 -0.056,0.25773 0,0.0772 0.0124,0.142 0.0373,0.19429 0.0249,0.0523 0.0648,0.0971 0.11959,0.1345 0.0548,0.0374 0.12454,0.0697 0.2092,0.0971 0.0847,0.0274 0.18558,0.0561 0.30262,0.086 0.0921,0.0224 0.17292,0.0435 0.24265,0.0634 0.0697,0.02 0.12711,0.0424 0.17193,0.0673 0.0448,0.0249 0.0785,0.0549 0.10088,0.0898 0.0224,0.0324 0.0336,0.0721 0.0336,0.11942 0,0.1021 -0.0424,0.1819 -0.12705,0.23918 -0.0822,0.0548 -0.1943,0.0822 -0.33625,0.0822 -0.127,0 -0.24769,-0.0213 -0.36224,-0.0636 -0.11455,-0.0448 -0.22914,-0.11078 -0.3437,-0.19794 l -0.14195,0.22047 c 0.10958,0.0921 0.24032,0.16303 0.39223,0.21284 0.15191,0.0473 0.30623,0.0711 0.46312,0.0711 0.23657,0 0.4247,-0.0536 0.56415,-0.16067 0.13946,-0.10708 0.2092,-0.25151 0.2092,-0.4333 0,-0.0822 -0.0163,-0.15192 -0.0487,-0.2092 -0.0299,-0.0573 -0.0772,-0.10707 -0.14196,-0.1494 -0.0623,-0.0423 -0.14189,-0.0785 -0.23901,-0.10833 -0.0946,-0.0324 -0.20675,-0.0635 -0.33624,-0.0934 -0.0822,-0.0199 -0.15308,-0.0386 -0.21284,-0.056 -0.0573,-0.0174 -0.10459,-0.0374 -0.14195,-0.0598 -0.0373,-0.0224 -0.0647,-0.0486 -0.0822,-0.0785 -0.0149,-0.0299 -0.0224,-0.0671 -0.0224,-0.11196 0,-0.11206 0.0411,-0.19301 0.12323,-0.24282 0.0847,-0.0523 0.18672,-0.0785 0.30626,-0.0785 0.10708,0 0.21161,0.0188 0.31371,0.0562 0.1021,0.0348 0.19427,0.0883 0.27645,0.1605 l 0.1494,-0.19794 c -0.0872,-0.0772 -0.19416,-0.13935 -0.32117,-0.18666 -0.127,-0.0473 -0.26401,-0.0711 -0.41094,-0.0711 z m 10.73552,0 c -0.254,0 -0.50676,0.0847 -0.75828,0.25409 l 0.10833,0.21284 c 0.21664,-0.15191 0.42324,-0.22792 0.61997,-0.22792 0.16435,0 0.29148,0.0462 0.38113,0.13831 0.0897,0.0897 0.1345,0.21414 0.1345,0.37351 v 0.15685 c -0.0747,-0.0299 -0.16078,-0.0535 -0.25791,-0.0709 -0.0971,-0.0174 -0.1929,-0.0262 -0.28754,-0.0262 -0.11953,0 -0.23033,0.0148 -0.33243,0.0447 -0.0996,0.0299 -0.18683,0.0711 -0.26154,0.12341 -0.0722,0.0523 -0.12827,0.11577 -0.16812,0.19048 -0.0398,0.0722 -0.0596,0.15317 -0.0596,0.24282 0,0.0872 0.0161,0.16794 0.0485,0.24265 0.0349,0.0722 0.0809,0.13587 0.13814,0.19066 0.0598,0.0548 0.12951,0.0983 0.2092,0.13068 0.0797,0.0299 0.16559,0.0449 0.25773,0.0449 0.1519,0 0.29386,-0.03 0.42585,-0.0898 0.13447,-0.0623 0.24527,-0.15178 0.33243,-0.26882 l 0.007,0.13813 c 0.007,0.0548 0.0299,0.10211 0.0673,0.14195 0.0398,0.0374 0.0921,0.056 0.15685,0.056 0.0249,0 0.0486,-0.001 0.0711,-0.004 0.0224,-0.002 0.0511,-0.006 0.086,-0.0113 v -0.2839 c -0.0697,-0.002 -0.10469,-0.0422 -0.10469,-0.11942 v -0.79572 c 0,-0.24902 -0.0722,-0.4421 -0.21665,-0.57907 -0.14194,-0.13696 -0.34111,-0.20538 -0.59761,-0.20538 z m 16.67092,0 c -0.25401,0 -0.50677,0.0847 -0.75829,0.25409 l 0.10833,0.21284 c 0.21665,-0.15191 0.42342,-0.22792 0.62014,-0.22792 0.16436,0 0.29131,0.0462 0.38096,0.13831 0.0896,0.0897 0.1345,0.21414 0.1345,0.37351 v 0.15685 c -0.0747,-0.0299 -0.16061,-0.0535 -0.25773,-0.0709 -0.0971,-0.0174 -0.19308,-0.0262 -0.28771,-0.0262 -0.11953,0 -0.23033,0.0148 -0.33243,0.0447 -0.0996,0.0299 -0.18684,0.0711 -0.26154,0.12341 -0.0722,0.0523 -0.12811,0.11577 -0.16795,0.19048 -0.0398,0.0722 -0.0598,0.15317 -0.0598,0.24282 0,0.0872 0.0162,0.16794 0.0485,0.24265 0.0349,0.0722 0.0809,0.13587 0.13813,0.19066 0.0598,0.0548 0.12951,0.0983 0.2092,0.13068 0.0797,0.0299 0.16559,0.0449 0.25773,0.0449 0.1519,0 0.29387,-0.03 0.42585,-0.0898 0.13448,-0.0623 0.24527,-0.15178 0.33243,-0.26882 l 0.007,0.13813 c 0.007,0.0548 0.0299,0.10211 0.0673,0.14195 0.0398,0.0374 0.0923,0.056 0.15702,0.056 0.0249,0 0.0485,-0.001 0.0709,-0.004 0.0224,-0.002 0.0511,-0.006 0.086,-0.0113 v -0.2839 c -0.0697,-0.002 -0.10469,-0.0422 -0.10469,-0.11942 v -0.79572 c 0,-0.24902 -0.0722,-0.4421 -0.21665,-0.57907 -0.14194,-0.13696 -0.34112,-0.20538 -0.59761,-0.20538 z m 2.34208,0 c -0.14941,0 -0.28643,0.0374 -0.41094,0.11214 -0.12202,0.0722 -0.22161,0.16801 -0.29881,0.28754 v -0.36606 h -0.29135 v 2.74558 h 0.32879 v -1.18048 c 0.0722,0.12202 0.16933,0.22292 0.29135,0.30261 0.12452,0.0797 0.26763,0.11959 0.42949,0.11959 0.1295,0 0.24771,-0.0262 0.35479,-0.0785 0.10708,-0.0548 0.19925,-0.127 0.27645,-0.21665 0.0772,-0.0921 0.13705,-0.19914 0.17939,-0.32117 0.0423,-0.12451 0.0634,-0.25658 0.0634,-0.39603 0,-0.13199 -0.0236,-0.25895 -0.0709,-0.38096 -0.0448,-0.12203 -0.10829,-0.22921 -0.19048,-0.32134 -0.0822,-0.0946 -0.17929,-0.16932 -0.29135,-0.22411 -0.11206,-0.0548 -0.23539,-0.0822 -0.36987,-0.0822 z m 4.29941,0 c -0.254,0 -0.50676,0.0847 -0.75828,0.25409 l 0.10833,0.21284 c 0.21665,-0.15191 0.42324,-0.22792 0.61997,-0.22792 0.16436,0 0.29149,0.0462 0.38113,0.13831 0.0897,0.0897 0.1345,0.21414 0.1345,0.37351 v 0.15685 c -0.0747,-0.0299 -0.1606,-0.0535 -0.25773,-0.0709 -0.0971,-0.0174 -0.19308,-0.0262 -0.28771,-0.0262 -0.11954,0 -0.23033,0.0148 -0.33243,0.0447 -0.0996,0.0299 -0.18684,0.0711 -0.26154,0.12341 -0.0722,0.0523 -0.12811,0.11577 -0.16795,0.19048 -0.0398,0.0722 -0.0598,0.15317 -0.0598,0.24282 0,0.0872 0.0161,0.16794 0.0485,0.24265 0.0348,0.0722 0.0809,0.13587 0.13814,0.19066 0.0598,0.0548 0.12951,0.0983 0.2092,0.13068 0.0797,0.0299 0.16559,0.0449 0.25772,0.0449 0.15191,0 0.29388,-0.03 0.42586,-0.0898 0.13447,-0.0623 0.24527,-0.15178 0.33243,-0.26882 l 0.007,0.13813 c 0.007,0.0548 0.0299,0.10211 0.0673,0.14195 0.0398,0.0374 0.0921,0.056 0.15685,0.056 0.0249,0 0.0486,-0.001 0.0711,-0.004 0.0224,-0.002 0.0511,-0.006 0.086,-0.0113 v -0.2839 c -0.0697,-0.002 -0.10468,-0.0422 -0.10468,-0.11942 v -0.79572 c 0,-0.24902 -0.0722,-0.4421 -0.21666,-0.57907 -0.14193,-0.13696 -0.34111,-0.20538 -0.59761,-0.20538 z m -66.39611,0.0336 v 1.94986 h 0.32862 v -1.94986 z m 21.13463,0 v 1.16922 c 0,0.27144 0.0523,0.47556 0.15686,0.61252 0.10459,0.13697 0.25908,0.20556 0.46329,0.20556 0.16933,0 0.32497,-0.0388 0.46692,-0.11595 0.14195,-0.0797 0.25637,-0.19296 0.34353,-0.33988 l 0.007,0.22791 c 0.002,0.0573 0.0249,0.10575 0.0673,0.14559 0.0448,0.0374 0.0997,0.0562 0.16448,0.0562 0.0199,0 0.0397,-10e-4 0.0596,-0.004 0.0224,0 0.0524,-0.002 0.0898,-0.007 v -0.2839 c -0.0697,-0.002 -0.10469,-0.0424 -0.10469,-0.11959 v -1.54638 h -0.32862 v 1.2214 c -0.0573,0.14941 -0.14564,0.2678 -0.26518,0.35496 -0.11704,0.0847 -0.24284,0.12704 -0.37732,0.12704 -0.27642,0 -0.41458,-0.19935 -0.41458,-0.59778 v -1.10562 z m 5.11367,0 0.82935,1.94986 h 0.27263 l 0.38842,-0.95257 0.39222,0.95257 h 0.27281 l 0.82917,-1.94986 h -0.31753 l -0.66867,1.62488 -0.32861,-0.81062 0.33242,-0.81045 h -0.27263 l -0.23918,0.62379 -0.23902,-0.62379 h -0.27263 l 0.33624,0.81045 -0.32879,0.81062 -0.67231,-1.62488 z m 7.27656,0 v 1.94986 h 0.32879 v -1.94986 z m 11.94946,0 v 1.16922 c 0,0.27144 0.0523,0.47556 0.15686,0.61252 0.10459,0.13697 0.25891,0.20556 0.46311,0.20556 0.16934,0 0.32498,-0.0388 0.46693,-0.11595 0.14194,-0.0797 0.25654,-0.19296 0.34369,-0.33988 l 0.007,0.22791 c 0.002,0.0573 0.0249,0.10575 0.0672,0.14559 0.0448,0.0374 0.0996,0.0562 0.16431,0.0562 0.02,0 0.0399,-10e-4 0.0598,-0.004 0.0224,0 0.0524,-0.002 0.0898,-0.007 v -0.2839 c -0.0697,-0.002 -0.10469,-0.0424 -0.10469,-0.11959 v -1.54638 h -0.32862 v 1.2214 c -0.0573,0.14941 -0.14582,0.2678 -0.26535,0.35496 -0.11703,0.0847 -0.24267,0.12704 -0.37714,0.12704 -0.27642,0 -0.41476,-0.19935 -0.41476,-0.59778 v -1.10562 z m 4.25834,0 v 1.16922 c 0,0.27144 0.0523,0.47556 0.15685,0.61252 0.10459,0.13697 0.25891,0.20556 0.46311,0.20556 0.16934,0 0.32499,-0.0388 0.46693,-0.11595 0.14194,-0.0797 0.25654,-0.19296 0.3437,-0.33988 l 0.007,0.22791 c 0.002,0.0573 0.0249,0.10575 0.0673,0.14559 0.0448,0.0374 0.0996,0.0562 0.1643,0.0562 0.02,0 0.0399,-10e-4 0.0598,-0.004 0.0224,0 0.0522,-0.002 0.0896,-0.007 v -0.2839 c -0.0697,-0.002 -0.10451,-0.0424 -0.10451,-0.11959 v -1.54638 h -0.32879 v 1.2214 c -0.0573,0.14941 -0.14565,0.2678 -0.26518,0.35496 -0.11705,0.0847 -0.24268,0.12704 -0.37716,0.12704 -0.27641,0 -0.41475,-0.19935 -0.41475,-0.59778 v -1.10562 z m 13.67141,0 v 1.16922 c 0,0.27144 0.0523,0.47556 0.15685,0.61252 0.10459,0.13697 0.25909,0.20556 0.46329,0.20556 0.16934,0 0.32481,-0.0388 0.46676,-0.11595 0.14194,-0.0797 0.25653,-0.19296 0.34369,-0.33988 l 0.007,0.22791 c 0.003,0.0573 0.0249,0.10575 0.0672,0.14559 0.0448,0.0374 0.0997,0.0562 0.16449,0.0562 0.0199,0 0.0397,-10e-4 0.0596,-0.004 0.0224,0 0.0524,-0.002 0.0898,-0.007 v -0.2839 c -0.0697,-0.002 -0.10469,-0.0424 -0.10469,-0.11959 v -1.54638 h -0.32862 v 1.2214 c -0.0573,0.14941 -0.14565,0.2678 -0.26518,0.35496 -0.11704,0.0847 -0.24284,0.12704 -0.37731,0.12704 -0.27642,0 -0.41459,-0.19935 -0.41459,-0.59778 v -1.10562 z m -33.06555,0.21284 c 0.0872,0 0.16944,0.0163 0.24663,0.0487 0.0772,0.0299 0.14447,0.0721 0.20175,0.12687 0.0598,0.0548 0.10823,0.12206 0.14559,0.20175 0.0398,0.0772 0.0636,0.16195 0.0711,0.25409 h -1.32244 c 0.007,-0.0921 0.0287,-0.17689 0.0636,-0.25409 0.0374,-0.0772 0.0847,-0.14315 0.14195,-0.19793 0.0598,-0.0573 0.12818,-0.1008 0.20538,-0.13069 0.0772,-0.0324 0.15931,-0.0487 0.24647,-0.0487 z m 31.67603,0.0374 c 0.0946,0 0.18168,0.0199 0.26137,0.0598 0.0822,0.0374 0.15325,0.0896 0.21301,0.15686 0.0598,0.0647 0.10709,0.1419 0.14195,0.23155 0.0349,0.0872 0.0523,0.17933 0.0523,0.27645 0,0.0921 -0.015,0.18184 -0.0449,0.26899 -0.0299,0.0872 -0.0734,0.16565 -0.13068,0.23537 -0.0548,0.0672 -0.12206,0.12198 -0.20175,0.16431 -0.0772,0.0398 -0.16442,0.0598 -0.26154,0.0598 -0.0672,0 -0.13204,-0.0112 -0.19429,-0.0336 -0.0623,-0.0249 -0.12062,-0.0574 -0.1754,-0.0972 -0.0548,-0.0424 -0.10343,-0.0908 -0.14577,-0.14558 -0.0423,-0.0573 -0.0771,-0.11829 -0.10451,-0.18303 v -0.55654 c 0.0124,-0.0598 0.0385,-0.11582 0.0783,-0.16812 0.0423,-0.0548 0.091,-0.10095 0.14576,-0.13831 0.0573,-0.0398 0.11697,-0.0708 0.17922,-0.0932 0.0648,-0.0249 0.12707,-0.0374 0.18684,-0.0374 z m -64.43515,0.72466 c 0.17182,0 0.33736,0.0312 0.49674,0.0934 v 0.28754 c 0,0.0498 -0.0236,0.0985 -0.0709,0.14576 -0.0523,0.0722 -0.12945,0.13075 -0.23155,0.17558 -0.0996,0.0424 -0.20794,0.0634 -0.32498,0.0634 -0.0598,0 -0.11582,-0.01 -0.16812,-0.0298 -0.0523,-0.0199 -0.0985,-0.0473 -0.13831,-0.0822 -0.0374,-0.0348 -0.0672,-0.0761 -0.0896,-0.1234 -0.0199,-0.0474 -0.0298,-0.0983 -0.0298,-0.15305 0,-0.11206 0.0509,-0.20308 0.15304,-0.2728 0.10459,-0.0697 0.23914,-0.10452 0.4035,-0.10452 z m 7.4483,0 c 0.17183,0 0.33737,0.0312 0.49674,0.0934 v 0.28754 c 0,0.0498 -0.0236,0.0985 -0.0709,0.14576 -0.0523,0.0722 -0.12946,0.13075 -0.23156,0.17558 -0.0996,0.0424 -0.20794,0.0634 -0.32498,0.0634 -0.0598,0 -0.11583,-0.01 -0.16812,-0.0298 -0.0523,-0.0199 -0.0985,-0.0473 -0.13831,-0.0822 -0.0374,-0.0348 -0.0672,-0.0761 -0.0896,-0.1234 -0.0199,-0.0474 -0.0298,-0.0983 -0.0298,-0.15305 0,-0.11206 0.0511,-0.20308 0.15321,-0.2728 0.10459,-0.0697 0.23896,-0.10452 0.40332,-0.10452 z m 5.56951,0 c 0.17183,0 0.33737,0.0312 0.49674,0.0934 v 0.28754 c 0,0.0498 -0.0236,0.0985 -0.0709,0.14576 -0.0523,0.0722 -0.12963,0.13075 -0.23173,0.17558 -0.0996,0.0424 -0.20793,0.0634 -0.32497,0.0634 -0.0598,0 -0.11583,-0.01 -0.16812,-0.0298 -0.0523,-0.0199 -0.0983,-0.0473 -0.13814,-0.0822 -0.0374,-0.0348 -0.0672,-0.0761 -0.0896,-0.1234 -0.0199,-0.0474 -0.03,-0.0983 -0.03,-0.15305 0,-0.11206 0.0511,-0.20308 0.15322,-0.2728 0.10458,-0.0697 0.23913,-0.10452 0.40348,-0.10452 z m 14.58656,0 c 0.17182,0 0.33735,0.0312 0.49674,0.0934 v 0.28754 c 0,0.0498 -0.0236,0.0985 -0.0709,0.14576 -0.0523,0.0722 -0.12945,0.13075 -0.23155,0.17558 -0.0996,0.0424 -0.20794,0.0634 -0.32498,0.0634 -0.0598,0 -0.11582,-0.01 -0.16812,-0.0298 -0.0523,-0.0199 -0.0983,-0.0473 -0.13814,-0.0822 -0.0374,-0.0348 -0.0674,-0.0761 -0.0898,-0.1234 -0.0199,-0.0474 -0.0298,-0.0983 -0.0298,-0.15305 0,-0.11206 0.0509,-0.20308 0.15304,-0.2728 0.10459,-0.0697 0.23913,-0.10452 0.40349,-0.10452 z m 17.88867,0 c 0.17182,0 0.33753,0.0312 0.49691,0.0934 v 0.28754 c 0,0.0498 -0.0238,0.0985 -0.0711,0.14576 -0.0523,0.0722 -0.12945,0.13075 -0.23155,0.17558 -0.0996,0.0424 -0.20794,0.0634 -0.32498,0.0634 -0.0598,0 -0.11582,-0.01 -0.16813,-0.0298 -0.0523,-0.0199 -0.0985,-0.0473 -0.1383,-0.0822 -0.0374,-0.0348 -0.0672,-0.0761 -0.0896,-0.1234 -0.0199,-0.0474 -0.0298,-0.0983 -0.0298,-0.15305 0,-0.11206 0.0511,-0.20308 0.15322,-0.2728 0.10458,-0.0697 0.23896,-0.10452 0.40332,-0.10452 z m 16.67091,0 c 0.17182,0 0.33753,0.0312 0.49691,0.0934 v 0.28754 c 0,0.0498 -0.0238,0.0985 -0.0711,0.14576 -0.0523,0.0722 -0.12946,0.13075 -0.23156,0.17558 -0.0996,0.0424 -0.20794,0.0634 -0.32498,0.0634 -0.0598,0 -0.11582,-0.01 -0.16812,-0.0298 -0.0523,-0.0199 -0.0983,-0.0473 -0.13814,-0.0822 -0.0374,-0.0348 -0.0674,-0.0761 -0.0898,-0.1234 -0.0199,-0.0474 -0.0298,-0.0983 -0.0298,-0.15305 0,-0.11206 0.0511,-0.20308 0.15322,-0.2728 0.10459,-0.0697 0.23896,-0.10452 0.40332,-0.10452 z m 6.6415,0 c 0.17182,0 0.33753,0.0312 0.49691,0.0934 v 0.28754 c 0,0.0498 -0.0238,0.0985 -0.0711,0.14576 -0.0523,0.0722 -0.12946,0.13075 -0.23156,0.17558 -0.0996,0.0424 -0.20793,0.0634 -0.32498,0.0634 -0.0598,0 -0.11582,-0.01 -0.16812,-0.0298 -0.0523,-0.0199 -0.0983,-0.0473 -0.13814,-0.0822 -0.0374,-0.0348 -0.0674,-0.0761 -0.0898,-0.1234 -0.0199,-0.0474 -0.0298,-0.0983 -0.0298,-0.15305 0,-0.11206 0.0511,-0.20308 0.15321,-0.2728 0.1046,-0.0697 0.23897,-0.10452 0.40332,-0.10452 z" />
  </g>
</svg>
