<?xml version="1.0" encoding="UTF-8" standalone="no"?>
<!-- Created with Inkscape (http://www.inkscape.org/) -->

<svg
   width="292.4476mm"
   height="59.907852mm"
   viewBox="0 0 292.4476 59.907852"
   version="1.1"
   id="svg5"
   inkscape:version="1.1.2 (b8e25be833, 2022-02-05)"
   sodipodi:docname="kasulampualogo.svg"
   xmlns:inkscape="http://www.inkscape.org/namespaces/inkscape"
   xmlns:sodipodi="http://sodipodi.sourceforge.net/DTD/sodipodi-0.dtd"
   xmlns="http://www.w3.org/2000/svg"
   xmlns:svg="http://www.w3.org/2000/svg">
  <sodipodi:namedview
     id="namedview7"
     pagecolor="#ffffff"
     bordercolor="#666666"
     borderopacity="1.0"
     inkscape:pageshadow="2"
     inkscape:pageopacity="0.0"
     inkscape:pagecheckerboard="0"
     inkscape:document-units="mm"
     showgrid="false"
     fit-margin-top="0"
     fit-margin-left="0"
     fit-margin-right="0"
     fit-margin-bottom="0"
     inkscape:zoom="0.45291836"
     inkscape:cx="712.04885"
     inkscape:cy="501.19408"
     inkscape:window-width="1920"
     inkscape:window-height="1009"
     inkscape:window-x="-8"
     inkscape:window-y="-8"
     inkscape:window-maximized="1"
     inkscape:current-layer="layer1" />
  <defs
     id="defs2" />
  <g
     inkscape:label="Layer 1"
     inkscape:groupmode="layer"
     id="layer1"
     transform="translate(217.49309,-85.71262)">
    <path
       id="path1019"
       style="fill:#227ad3;fill-opacity:1;stroke-width:1.18568;stroke-linecap:round"
       d="m -211.30344,85.72858 c -3.43032,0.001 -6.1908,2.7639 -6.18965,6.19419 l 0.003,7.20126 c 1.40965,0.64222 3.35742,2.11736 4.51437,0.12621 2.3187,-2.30899 8.03153,-0.79998 8.71578,-4.35447 -1.06375,-2.68691 0.998,-4.72719 3.31233,-6.54419 1.58025,-0.67457 3.34034,-1.25036 5.07387,-1.2275 -1.2095,1.83084 0.32434,2.10473 0.0204,3.77002 -1.62891,0.16668 1.93599,2.19194 1.94542,3.07092 -3.16758,0.0613 -0.246,0.64072 0.6598,1.6331 2.18594,0.7491 3.35358,3.48018 0.0327,2.21098 1.03666,0.93818 -0.5374,3.57101 -1.38881,4.48737 1.47784,0.50032 -0.53019,1.06269 -1.63827,2.76456 -1.78996,1.37763 0.20902,2.21963 -0.42684,3.54106 -0.10488,2.1266 -2.1594,4.92283 -4.65075,5.13799 0.25317,-2.65378 -0.93696,-2.33012 -2.8607,-1.58895 -1.62577,-2.30547 -2.98235,0.83566 -5.20259,0.36383 -0.16413,-2.05439 -2.06412,-0.17002 -3.36442,-0.60815 -3.75168,0.8859 -1.18122,-4.60873 -3.4497,-5.36575 -0.5667,1.94563 -0.92814,0.46694 -1.29007,-0.20198 l 6.8e-4,2.05894 c 10e-4,3.43029 2.76356,6.19081 6.19387,6.18963 l 16.47567,-0.005 c 3.4303,-0.001 6.1908,-2.76356 6.18963,-6.19384 l -0.005,-16.47534 c -0.001,-3.4303 -2.76356,-6.19115 -6.19384,-6.18998 z"
       inkscape:export-filename="D:\0-Ryan WJ\7400\2023\0-Panitia\.konreg-kasulampua\.output-logo-kasulampua\color-h-text-transp-w.png"
       inkscape:export-xdpi="300.069"
       inkscape:export-ydpi="300.069" />
    <path
       id="path1021"
       style="fill:#f98110;fill-opacity:1;stroke-width:1.18568;stroke-linecap:round"
       d="m -180.17158,85.71817 c -3.48465,0.001 -6.28903,2.80747 -6.28785,6.29212 l 0.005,16.27919 c 6.8e-4,2.97535 2.04769,5.45327 4.81494,6.11373 -0.40251,-2.89741 3.08619,-8.64934 -1.91303,-7.90843 -0.24054,-2.19606 -0.78619,-3.85093 2.46766,-3.70249 0.0207,-3.10776 -0.29925,-6.06158 2.27028,-8.37678 0.004,-2.88608 2.08016,-5.47501 4.36118,-6.25189 2.81192,-1.69007 6.81583,2.19561 10.60126,1.08401 1.07677,0.51214 3.0332,-0.69719 4.60302,-1.49779 -1.1488,-1.25384 -2.80138,-2.03785 -4.64381,-2.03722 z m 22.23041,4.23563 c -3.39938,2.9135 -8.28772,0.7652 -12.50882,0.98495 -3.83827,-1.28782 -8.56497,0.76331 -6.00088,4.93433 0.65511,1.83537 3.11233,3.3655 4.42357,0.55637 3.48656,0.74277 5.42662,-2.18942 7.68205,-0.038 -2.25691,0.41696 -5.39876,3.83766 -8.52644,3.79029 1.57342,2.37971 4.46792,4.56734 2.5223,6.83485 0.38801,1.13423 4.86565,4.20365 0.48873,3.93581 -1.33249,2.47062 -4.68892,0.65835 -2.70448,-1.55604 -3.72767,-0.98649 -1.21513,-3.94198 -2.28103,-5.85459 -3.43582,0.13704 -2.61335,4.89121 -2.39348,7.46416 -1.15213,0.83402 -0.63361,2.52172 -0.8236,3.57071 l 8.76689,-0.003 c -0.58035,-0.8144 0.54381,-2.67917 1.13322,-2.68211 0.29287,-0.001 0.45361,0.45667 0.20679,1.7322 0.0323,0.26823 0.11206,0.65321 0.0833,0.94943 l 0.40548,-1.6e-4 c 0.23316,-1.49478 0.98083,-3.579 1.27316,-3.59447 0.1248,-0.007 0.16618,0.36407 0.048,1.31984 -0.0163,0.6424 0.35646,1.53425 0.32397,2.27406 l 1.93986,-6.3e-4 c 0.0562,1.8e-4 0.11178,-0.003 0.16767,-0.004 -0.0493,-0.14964 0.003,-0.20131 0.0839,-0.19964 0.10707,0.003 0.25985,0.0992 0.2764,0.18042 3.2354,-0.26783 5.76097,-2.96207 5.75985,-6.26869 l -0.005,-16.27919 c -7e-5,-0.71759 -0.12133,-1.40532 -0.34091,-2.04667 z m -7.55932,3.62368 c 0.0999,0.001 0.20117,0.44595 -0.078,0.14271 0.0192,-0.10562 0.0487,-0.14338 0.078,-0.14271 z m -3.59331,0.078 c 0.16707,0.001 0.13094,0.37967 -0.14752,0.0719 0.0598,-0.0527 0.10889,-0.0724 0.14752,-0.0719 z m -0.014,0.79775 c 0.1008,-0.008 0.20747,0.449 -0.0746,0.1427 0.0185,-0.10195 0.0464,-0.1407 0.0746,-0.1427 z m 5.45557,2.38756 c 0.70224,-6.8e-4 0.95414,0.37141 -0.48309,1.43562 l -0.29254,0.2806 -0.25237,0.0411 c -2.90611,-0.56777 -0.22379,-1.7555 1.028,-1.75728 z m -5.62991,9.62939 c 0.13862,-6.8e-4 -0.38149,0.2455 -0.23637,0.0539 0.13016,-0.0391 0.20273,-0.0537 0.23637,-0.0539 z m 2.94645,2.57901 c 0.169,-0.008 0.21419,0.78941 -0.16448,0.24376 0.0602,-0.17597 0.11718,-0.24106 0.16448,-0.24376 z m 1.897,4.6074 c 0.22966,0.001 0.20711,0.56612 -0.27594,0.20041 0.1116,-0.14814 0.20563,-0.20046 0.27594,-0.20041 z"
       inkscape:export-filename="D:\0-Ryan WJ\7400\2023\0-Panitia\.konreg-kasulampua\.output-logo-kasulampua\color-h-text-transp-w.png"
       inkscape:export-xdpi="300.069"
       inkscape:export-ydpi="300.069" />
    <path
       id="path1023"
       style="fill:#7dbd36;fill-opacity:1;stroke-width:1.18568;stroke-linecap:round"
       d="m -210.91095,116.76129 c -3.6477,10e-4 -6.58338,2.93856 -6.58214,6.58628 l 0.005,15.69077 c 0.001,3.64768 2.93892,6.58336 6.58661,6.58213 l 14.05468,-0.005 c -0.18947,-1.24015 -0.0689,-1.67869 0.15006,-1.68199 0.35469,-0.006 0.95648,1.10057 0.88058,1.68164 l 0.60509,9e-5 c 3.1657,-10e-4 5.79383,-2.21428 6.43265,-5.18338 -0.11361,0.0462 -0.31183,0.0366 -0.63568,-0.0723 -0.17032,-0.6453 -0.088,-0.87503 0.074,-0.88664 0.003,-1.4e-4 0.007,-3e-5 0.01,-1.2e-4 l -1e-5,-6.8e-4 c 0.01,-1.8e-4 0.0198,-3.1e-4 0.0302,0.002 l 5.5e-4,6.8e-4 c 0.19997,0.0252 0.47999,0.31801 0.5914,0.57815 0.0516,-0.33365 0.0789,-0.67557 0.0788,-1.02412 l -0.005,-15.69107 c -0.001,-3.64771 -2.9389,-6.58302 -6.58661,-6.58178 z m 2.60752,0.22409 c 0.0593,-0.001 0.11921,0.005 0.17948,0.0165 0.0448,0.008 0.0898,0.0203 0.13436,0.0347 l -1e-5,-3.5e-4 c 0.0268,0.009 0.0536,0.019 0.0802,0.0294 1.06382,0.42933 1.9193,2.42633 -1.27012,2.30724 -0.19333,-1.7817 0.30288,-2.38165 0.87608,-2.38764 z m -2.60226,2.9829 c 0.0291,-5.5e-4 0.0576,0.001 0.0854,0.006 0.0335,0.004 0.066,0.0136 0.0976,0.0253 0.47121,0.17637 0.70682,1.12188 0.3576,3.21587 -4.07984,5.70889 5.59433,-5.68297 4.20753,1.20699 -5.48077,0.47666 4.69789,6.09259 -1.49117,3.62614 -7.20672,-1.97724 2.78667,8.69291 -1.05344,6.58576 -4.00076,-2.11171 -2.76499,-7.14201 -4.83716,-10.1403 0.25912,-2.36093 1.73206,-4.51525 2.63369,-4.52563 z m 7.31857,0.9966 c 0.008,-4.6e-4 0.0166,-2.4e-4 0.0254,6.8e-4 0.005,6.8e-4 0.0102,6.1e-4 0.0149,0.003 l 1e-5,6.8e-4 c 0.005,0.001 0.0102,0.002 0.0149,0.005 0.15143,0.0645 0.30239,0.38813 -0.15092,0.23089 -0.008,-0.17305 0.0376,-0.23684 0.0956,-0.24165 z m 1.54339,3.92782 c 0.49483,-0.005 0.97548,0.0456 1.32927,0.16202 0.0522,0.0171 0.10161,0.0358 0.1479,0.0559 0.5576,0.24158 0.66303,0.69566 -0.31264,1.41995 -1.07689,-1.11578 -0.95974,0.5509 -1.89577,0.0649 -2.98641,-0.96049 -1.03611,-1.68528 0.73124,-1.70267 z m -12.21502,1.34623 c 0.005,-6.5e-4 0.0103,-6.3e-4 0.0149,1.2e-4 0.002,10e-6 0.003,6.8e-4 0.005,10e-4 l 6.8e-4,-5.6e-4 c 0.001,0 0.002,0.003 0.005,0.002 0.10572,0.0538 -0.0178,0.613 -0.18985,0.17226 0.074,-0.11984 0.12742,-0.16961 0.16415,-0.17572 z m 0.78905,1.98543 c 0.007,-3e-5 0.0141,6.7e-4 0.0213,0.001 0.008,0.001 0.0155,0.002 0.0233,0.005 v 3.5e-4 c 0.008,0.002 0.0153,0.005 0.0229,0.009 0.22891,0.10654 0.40055,0.70436 -0.29526,0.49062 0.0209,-0.3782 0.12221,-0.50647 0.22791,-0.50691 z m 6.51816,1.31625 c 0.0186,-10e-4 0.0355,0.001 0.051,0.005 0.003,2e-5 0.006,0.002 0.009,0.002 0.009,0.002 0.0179,0.006 0.0256,0.0106 l -3.5e-4,6.2e-4 c 0.15967,0.0845 0.0892,0.41124 -0.29019,0.0682 0.0804,-0.0604 0.14904,-0.0849 0.20444,-0.0869 z m 1.5193,0.51118 c 0.27479,0.006 0.59606,0.0624 0.90298,0.14377 0.10518,0.0279 0.20863,0.0586 0.30796,0.0916 0.0993,0.0331 0.1944,0.0684 0.28295,0.10441 l 1e-5,3.5e-4 c 0.76751,0.31229 1.04008,0.69955 -0.77744,0.51021 -0.46532,-0.10618 -1.03605,0.0279 -1.42101,-0.3425 -0.0824,-0.38635 0.24651,-0.51726 0.70454,-0.50777 z m -8.69931,0.65977 c 0.0124,3.2e-4 0.025,0.002 0.0376,0.003 0.0154,0.003 0.0307,0.007 0.0461,0.0111 0.0156,0.004 0.0311,0.0102 0.0469,0.0167 v -3.5e-4 c 0.46723,0.19223 0.911,1.17386 -0.49067,0.59831 0.0141,-0.48193 0.17496,-0.63946 0.36015,-0.62985 z m 16.77295,0.37303 c 0.21577,-0.009 0.75816,0.769 -0.0277,0.41033 -0.0858,-0.30046 -0.0504,-0.40695 0.0277,-0.41033 z m -10.65468,0.0446 c 0.008,1.2e-4 0.0147,6.8e-4 0.0212,0.002 0.16788,0.0475 -0.0889,0.74252 -0.28738,0.19277 0.12677,-0.14092 0.21231,-0.19379 0.26619,-0.19519 z m 2.3468,0.17556 c 0.0106,-1e-5 0.0218,6.9e-4 0.0333,0.003 0.0142,0.003 0.0294,0.007 0.0448,0.0115 0.0154,0.005 0.0315,0.011 0.048,0.0187 l -3.5e-4,3.5e-4 c 0.49366,0.22754 1.38835,1.53401 -0.092,0.85298 -0.24496,-0.65866 -0.19385,-0.88555 -0.0336,-0.88626 z m 4.56679,0.20362 c 0.11275,-6.9e-4 0.22619,0.003 0.33815,0.0109 1.25395,0.0852 2.31941,0.64817 0.0365,1.24208 l -0.79281,0.21828 -0.51308,0.0727 c -1.16148,-1.06199 -0.30734,-1.48882 0.72956,-1.53915 0.0667,-0.003 0.13409,-0.005 0.20167,-0.005 z m -13.41013,0.61032 c 0.0102,-9e-5 0.0205,5.2e-4 0.0305,0.002 0.009,0.003 0.0181,0.005 0.027,0.008 l 3.6e-4,-6.1e-4 c 0.27914,0.10492 0.40356,0.96724 -0.48118,0.94926 0.0856,-0.71627 0.26784,-0.95711 0.42319,-0.95931 z m 20.81123,0.0675 v 3.5e-4 c 0.11261,-6.9e-4 0.22653,0.005 0.33849,0.0161 v -3.4e-4 c 1.04493,0.10671 1.89835,0.72429 -0.47719,1.41619 l -0.51208,-0.054 c -0.93648,-0.94848 -0.27283,-1.33693 0.53866,-1.37489 0.0371,-0.001 0.0746,-0.003 0.11213,-0.003 z m -19.17916,0.35715 c 0.0281,6.1e-4 0.0566,0.003 0.0858,0.008 0.0467,0.007 0.0944,0.0198 0.14306,0.0357 0.0292,0.01 0.0586,0.0209 0.0882,0.0336 1.1836,0.50756 2.6883,3.27754 -0.88122,1.6128 -0.15328,-1.27256 0.14258,-1.70198 0.56422,-1.69011 z m 6.34938,1.08476 c 0.40915,0.002 0.9611,0.0903 1.36817,0.20129 0.0678,0.0188 0.13175,0.0378 0.19026,0.0572 0.0585,0.0195 0.11154,0.0391 0.15798,0.0589 0.40237,0.17264 0.3027,0.34957 -1.16561,0.34026 l -0.80994,-0.10348 c -0.55691,-0.41678 -0.2669,-0.55663 0.25912,-0.55414 z m 0.35001,1.27704 c 0.0243,0.002 0.0492,0.006 0.0744,0.0118 0.0118,0.003 0.0239,0.007 0.0357,0.0104 0.012,0.003 0.0236,0.01 0.0357,0.0133 0.36004,0.14127 0.72861,0.68555 0.2404,1.48884 -0.96852,-1.10335 -0.74957,-1.5532 -0.38622,-1.52385 z m 10.25521,0.26555 1e-5,3.5e-4 c 0.52595,4.1e-4 1.0077,0.0143 1.41846,0.0342 0.0313,-1.7e-4 0.0632,6.8e-4 0.0958,0.003 2.05411,0.12502 6.43807,3.8061 1.17777,3.7179 -2.99762,-2.72586 -7.92788,-0.22651 -10.36765,-0.15338 0.75425,1.20366 1.69887,3.32801 -0.91632,1.51353 -0.81419,-3.78853 3.37523,-4.84236 6.90724,-5.06517 0.58864,-0.0371 1.15876,-0.0512 1.68469,-0.051 z m -3.17893,5.82833 c 0.0115,-0.001 0.0234,-3e-4 0.0358,0.002 l 3.5e-4,6.8e-4 c 0.21111,0.029 0.51862,0.34806 -0.0705,0.36839 -0.12819,-0.26784 -0.0712,-0.36398 0.0296,-0.37007 0.001,-7e-5 0.003,-1.3e-4 0.005,-0.001 z m -9.94019,0.22798 v 3.4e-4 c 0.0583,-3.2e-4 0.11631,0.002 0.17429,0.005 0.81199,0.0561 1.5832,0.52119 1.93904,1.65003 -1.11714,0.27622 -1.5719,1.57539 -2.67108,1.69082 -3.5024,-0.88072 -1.59591,-3.20562 0.38313,-3.34004 0.0582,-0.003 0.11638,-0.006 0.1746,-0.006 z m 11.25212,0.94597 -10e-6,6.8e-4 c 0.0182,-6e-4 0.0364,6.9e-4 0.0555,0.004 0.46035,0.0636 1.18649,0.81293 -0.13161,0.76898 -0.25934,-0.55437 -0.15689,-0.75535 0.0442,-0.77207 0.0104,-0.001 0.0212,-0.002 0.032,-0.003 z m 3.73428,0.0303 c 0.0152,1.7e-4 0.03,0.001 0.0451,0.003 v -6.7e-4 c 0.62126,0.0768 1.11809,2.04085 -0.76384,2.70386 -0.0398,-1.98205 0.34042,-2.67722 0.70345,-2.70523 0.005,-4.3e-4 0.0105,-4e-5 0.0152,-5e-4 z"
       inkscape:export-filename="D:\0-Ryan WJ\7400\2023\0-Panitia\.konreg-kasulampua\.output-logo-kasulampua\color-h-text-transp-w.png"
       inkscape:export-xdpi="300.069"
       inkscape:export-ydpi="300.069" />
    <path
       id="path1025"
       style="fill:#e85639;fill-opacity:1;stroke-width:1.18568;stroke-linecap:round"
       d="m -179.97618,116.75062 c -3.59336,0.001 -6.48515,2.89498 -6.48393,6.48833 l 0.005,15.88656 c 0.001,3.59335 2.89498,6.48549 6.48834,6.48428 l 15.88691,-0.005 c 1.72401,-6.2e-4 3.28525,-0.6684 4.44429,-1.75845 -0.29995,-0.97849 -1.50002,-1.61413 -0.52614,-2.65725 -1.99481,-0.79759 -3.11021,-3.64604 -1.61709,-4.32561 -1.6159,0.51776 -3.94675,-0.62674 -3.51723,-1.77308 -2.59357,0.72096 -6.20709,-0.69197 -8.66438,-1.6963 0.56769,-0.32232 -4.10387,-0.70034 -2.36756,-3.08118 -1.23877,0.37921 -2.22962,6.03034 -3.62029,2.41009 1.67697,-2.10922 -5.28197,-2.85908 -0.87178,-3.33996 1.27219,-1.777 4.8113,1.01968 4.46257,-2.0983 -2.2846,-0.66414 -5.94436,3.35712 -6.14167,-0.7856 -1.42257,-1.24367 -4.89289,0.42546 -2.88444,-1.96144 0.83144,-2.45146 4.54883,-2.87998 6.83401,-1.95505 4.57805,-1.79527 1.70204,5.22472 4.09795,5.73212 0.91935,4.66431 4.07376,0.64314 5.80081,-1.19547 2.11327,-3.52859 5.53125,-4.0156 8.88915,-1.82937 0.54381,0.52061 1.33624,0.64287 2.16123,0.67377 l -6.8e-4,-2.73413 c -0.001,-3.59335 -2.89498,-6.48514 -6.48834,-6.48393 z"
       inkscape:export-filename="D:\0-Ryan WJ\7400\2023\0-Panitia\.konreg-kasulampua\.output-logo-kasulampua\color-h-text-transp-w.png"
       inkscape:export-xdpi="300.069"
       inkscape:export-ydpi="300.069" />
    <path
       id="path13270"
       style="font-weight:normal;font-size:45.3659px;line-height:1.25;font-family:Jogjakartype;-inkscape-font-specification:Jogjakartype;text-align:start;text-anchor:start;stroke-width:4.01862"
       d="M 287.80273 29.269531 C 284.83074 29.269531 282.0726 29.841297 279.53125 30.984375 C 277.10419 32.127453 274.91924 33.672003 272.97656 35.615234 C 271.14815 37.558468 269.6669 39.843579 268.53125 42.472656 C 267.48969 44.987428 266.99314 47.673554 267.04102 50.53125 L 267.61328 152.72266 C 270.47098 152.72266 273.16958 152.15089 275.71094 151.00781 C 278.25229 149.86473 280.43724 148.32214 282.26562 146.37891 C 284.20833 144.43567 285.70065 142.20618 286.74219 139.69141 C 287.89799 137.17663 288.44303 134.43293 288.375 131.46094 L 288.30859 110.71484 L 303.05469 110.71484 C 305.68378 110.71484 307.9703 111.68565 309.91406 113.62891 C 311.8577 115.57214 312.83228 117.85922 312.83984 120.48828 L 312.83203 131.11914 C 312.78587 134.09113 313.33777 136.89044 314.48828 139.51953 C 315.61861 142.0343 317.15587 144.2638 319.09961 146.20703 C 321.02316 148.03594 323.23054 149.52294 325.71875 150.66602 C 328.32123 151.8091 331.10806 152.38086 334.08008 152.38086 L 345.22461 152.38086 C 347.16784 152.38086 348.76229 151.69396 350.00586 150.32227 C 351.36372 148.95057 352.04154 147.29284 352.04102 145.34961 L 343.29688 145.34961 C 340.64758 145.23529 338.36103 144.26446 336.4375 142.43555 C 334.62827 140.60661 333.77598 138.37711 333.88281 135.74805 L 333.68945 124.94531 C 333.70863 121.17317 332.75897 117.74451 330.8418 114.6582 C 329.0187 111.4576 326.62096 108.88659 323.64844 106.94336 C 326.39127 105.0001 328.58583 102.54231 330.23242 99.570312 C 331.97294 96.484001 332.8053 93.110977 332.73047 89.453125 L 332.58398 66.306641 C 329.72628 66.306641 327.0257 66.878404 324.48438 68.021484 C 321.94302 69.164565 319.70249 70.707159 317.75977 72.650391 C 315.93138 74.593622 314.44812 76.878748 313.3125 79.507812 C 312.27094 82.022584 311.77439 84.710659 311.82227 87.568359 L 311.77344 94.082031 C 311.7809 96.711121 310.87135 98.998175 309.04297 100.94141 C 307.19438 102.77032 304.95526 103.68555 302.32617 103.68555 L 288.26562 103.68555 L 287.80273 29.269531 z M 610.49219 29.269531 C 607.63449 29.269531 604.93588 29.841297 602.39453 30.984375 C 599.85317 32.127453 597.61067 33.672003 595.66797 35.615234 C 593.83958 37.558468 592.35634 39.843579 591.2207 42.472656 C 590.17917 44.987428 589.68262 47.673554 589.73047 50.53125 L 590.25781 131.11914 C 590.21157 134.09113 590.76354 136.89044 591.91406 139.51953 C 593.04438 142.0343 594.58163 144.2638 596.52539 146.20703 C 598.44895 148.03594 600.65439 149.52294 603.14258 150.66602 C 605.74508 151.8091 608.5319 152.38086 611.50391 152.38086 L 630.02148 152.38086 C 631.96472 152.38086 633.55917 151.69396 634.80273 150.32227 C 636.16061 148.95057 636.83842 147.29284 636.83789 145.34961 L 620.89258 145.34961 C 618.2635 145.34961 615.98606 144.43636 614.0625 142.60742 C 612.11875 140.66419 611.20173 138.37711 611.30859 135.74805 L 610.49219 29.269531 z M 525.99219 66.306641 C 523.13449 66.306641 520.43393 66.878404 517.89258 68.021484 C 515.35123 69.164565 513.11067 70.707159 511.16797 72.650391 C 509.33958 74.593622 507.85634 76.878748 506.7207 79.507812 C 505.67917 82.022584 505.18262 84.710659 505.23047 87.568359 L 505.55469 131.11914 C 505.5085 134.09113 506.0604 136.89044 507.21094 139.51953 C 508.34124 142.0343 509.87848 144.2638 511.82227 146.20703 C 513.86011 148.03594 516.12314 149.52294 518.61133 150.66602 C 521.21384 151.8091 524.00262 152.38086 526.97461 152.38086 L 549.77734 152.38086 C 552.74935 152.38086 555.0398 151.75154 556.64648 150.49414 C 558.36748 149.23677 559.42903 147.80733 559.83203 146.20703 C 560.92194 148.49317 562.52014 150.09334 564.625 151.00781 C 566.84417 151.92228 569.03909 152.38086 571.21094 152.38086 L 583.21289 152.38086 C 585.15612 152.38086 586.80619 151.69396 588.16406 150.32227 C 589.52194 148.95057 590.14414 147.29284 590.0293 145.34961 L 581.62695 145.34961 C 578.88357 145.34961 576.54142 144.37878 574.59766 142.43555 C 572.76832 140.49232 571.84936 138.20526 571.8418 135.57617 L 571.42969 66.306641 C 568.45769 66.306641 565.70151 66.878404 563.16016 68.021484 C 560.73311 69.164565 558.54817 70.707159 556.60547 72.650391 C 554.77707 74.593622 553.29384 76.878748 552.1582 79.507812 C 551.11667 82.022584 550.62012 84.710659 550.66797 87.568359 L 550.87305 133.34766 C 550.847 136.43397 550.14031 139.23523 548.75586 141.75 C 547.46551 144.15048 544.99183 145.34961 541.33398 145.34961 L 536.18945 145.34961 C 533.56038 145.34961 531.28489 144.43636 529.36133 142.60742 C 527.41758 140.66419 526.49861 138.37711 526.60547 135.74805 L 525.99219 66.306641 z M 955.33203 66.306641 C 952.47434 66.306641 949.77573 66.878404 947.23438 68.021484 C 944.69302 69.164565 942.45051 70.707159 940.50781 72.650391 C 938.67942 74.593622 937.19618 76.878748 936.06055 79.507812 C 935.01902 82.022584 934.52246 84.710659 934.57031 87.568359 L 934.89453 131.11914 C 934.84827 134.09113 935.40221 136.89044 936.55273 139.51953 C 937.68305 142.0343 939.21835 144.2638 941.16211 146.20703 C 943.19998 148.03594 945.46299 149.52294 947.95117 150.66602 C 950.55367 151.8091 953.34245 152.38086 956.31445 152.38086 L 979.11719 152.38086 C 982.08919 152.38086 984.37964 151.75154 985.98633 150.49414 C 987.70733 149.23677 988.76887 147.80733 989.17188 146.20703 C 990.26178 148.49317 991.85999 150.09334 993.96484 151.00781 C 996.18401 151.92228 998.37893 152.38086 1000.5508 152.38086 L 1012.5527 152.38086 C 1014.496 152.38086 1016.146 151.69396 1017.5039 150.32227 C 1018.8618 148.95057 1019.484 147.29284 1019.3691 145.34961 L 1010.9668 145.34961 C 1008.2234 145.34961 1005.8813 144.37878 1003.9375 142.43555 C 1002.1082 140.49232 1001.1892 138.20526 1001.1816 135.57617 L 1000.7695 66.306641 C 997.79753 66.306641 995.04136 66.878404 992.5 68.021484 C 990.07295 69.164565 987.88801 70.707159 985.94531 72.650391 C 984.11692 74.593622 982.63368 76.878748 981.49805 79.507812 C 980.45652 82.022584 979.95996 84.710659 980.00781 87.568359 L 980.21289 133.34766 C 980.18684 136.43397 979.48016 139.23523 978.0957 141.75 C 976.80535 144.15048 974.33168 145.34961 970.67383 145.34961 L 965.53125 145.34961 C 962.90217 145.34961 960.62473 144.43636 958.70117 142.60742 C 956.75742 140.66419 955.83845 138.37711 955.94531 135.74805 L 955.33203 66.306641 z M 373.10938 66.648438 C 370.13738 66.648438 367.38122 67.220201 364.83984 68.363281 C 362.29849 69.506362 360.05598 71.050909 358.11328 72.994141 C 356.1504 74.823054 354.60049 77.050598 353.46484 79.679688 C 352.44349 82.308752 351.95799 85.052455 352.00586 87.910156 L 352.26953 131.11914 C 352.22335 134.09113 352.77524 136.89044 353.92578 139.51953 C 355.05609 142.0343 356.59337 144.2638 358.53711 146.20703 C 360.46069 148.03594 362.72366 149.52294 365.32617 150.66602 C 367.92865 151.8091 370.71548 152.38086 373.6875 152.38086 L 396.49219 152.38086 C 399.46421 152.38086 401.7527 151.75154 403.35938 150.49414 C 405.08037 149.23677 406.14192 147.80733 406.54492 146.20703 C 407.63484 148.49317 409.23305 150.09334 411.33789 151.00781 C 413.55708 151.92228 415.75199 152.38086 417.92383 152.38086 L 429.92578 152.38086 C 431.86901 152.38086 433.52102 151.69396 434.87891 150.32227 C 436.23681 148.95057 436.85709 147.29284 436.74219 145.34961 L 428.3418 145.34961 C 425.59841 145.34961 423.25428 144.37878 421.31055 142.43555 C 419.48118 140.49232 418.56225 138.20526 418.55469 135.57617 L 418.20312 66.648438 L 373.10938 66.648438 z M 457.81055 66.648438 C 450.38052 66.648438 445.00915 68.592053 441.69531 72.478516 C 438.36121 76.250661 436.69565 81.051165 436.69727 86.880859 L 436.85938 91.681641 C 436.81321 94.653634 437.36511 97.454895 438.51562 100.08398 C 439.64593 102.59876 441.18319 104.82825 443.12695 106.77148 C 445.07072 108.71472 447.2872 110.25731 449.77539 111.40039 C 452.35767 112.42915 455.13345 112.94336 458.10547 112.94336 L 467.87891 112.94336 C 470.5282 113.05768 472.76822 114.08607 474.59766 116.0293 C 476.52136 117.85821 477.48683 120.08771 477.49414 122.7168 L 477.56836 135.74805 C 477.57578 138.37711 476.65523 140.60661 474.80664 142.43555 C 473.07235 144.26438 470.89989 145.23522 468.29102 145.34961 L 439.31445 145.34961 C 439.31501 147.29284 440.00903 148.95057 441.39453 150.32227 C 442.78006 151.69396 444.44349 152.38086 446.38672 152.38086 L 477.42188 152.38086 C 480.27958 152.38086 482.97818 151.8091 485.51953 150.66602 C 488.1752 149.52294 490.48436 148.03594 492.44727 146.20703 C 494.38995 144.2638 495.88229 142.0343 496.92383 139.51953 C 498.05945 136.89044 498.59342 134.09113 498.52539 131.11914 L 498.51367 127.17578 C 498.46589 124.31808 497.8673 121.57438 496.7168 118.94531 C 495.68058 116.31622 494.14334 114.08673 492.10547 112.25781 C 490.16171 110.31458 487.88962 108.77199 485.28711 107.62891 C 482.68462 106.48583 479.9534 105.91406 477.0957 105.91406 L 467.32227 105.91406 C 464.69318 105.91406 462.41769 104.99884 460.49414 103.16992 C 458.66478 101.22669 457.74584 98.94159 457.73828 96.3125 L 457.66406 83.28125 C 457.65664 80.652185 458.57719 78.422689 460.42578 76.59375 C 462.27439 74.764912 464.50248 73.794081 467.11133 73.679688 L 492.48828 73.679688 C 492.48776 71.736456 491.79568 70.078723 490.41016 68.707031 C 489.02464 67.33534 487.35925 66.648438 485.41602 66.648438 L 457.81055 66.648438 z M 657.90625 66.648438 C 654.93425 66.648438 652.17807 67.220201 649.63672 68.363281 C 647.09536 69.506362 644.85286 71.050909 642.91016 72.994141 C 640.94725 74.823054 639.39931 77.050598 638.26367 79.679688 C 637.24234 82.308752 636.75489 85.052455 636.80273 87.910156 L 637.06641 131.11914 C 637.02016 134.09113 637.57214 136.89044 638.72266 139.51953 C 639.85297 142.0343 641.39022 144.2638 643.33398 146.20703 C 645.25754 148.03594 647.52055 149.52294 650.12305 150.66602 C 652.72554 151.8091 655.51237 152.38086 658.48438 152.38086 L 681.28906 152.38086 C 684.26106 152.38086 686.55152 151.75154 688.1582 150.49414 C 689.87921 149.23677 690.94075 147.80733 691.34375 146.20703 C 692.43366 148.49317 694.02991 150.09334 696.13477 151.00781 C 698.35393 151.92228 700.55081 152.38086 702.72266 152.38086 L 714.72461 152.38086 C 716.66784 152.38086 718.31791 151.69396 719.67578 150.32227 C 721.03366 148.95057 721.65586 147.29284 721.54102 145.34961 L 713.13867 145.34961 C 710.39528 145.34961 708.05118 144.37878 706.10742 142.43555 C 704.27808 140.49232 703.36107 138.20526 703.35352 135.57617 L 703.00195 66.648438 L 657.90625 66.648438 z M 724.60547 66.648438 L 725.24414 152.72266 C 728.10183 152.72266 730.80044 152.15089 733.3418 151.00781 C 735.88315 149.86473 738.06809 148.32214 739.89648 146.37891 C 741.83919 144.43567 743.33151 142.20618 744.37305 139.69141 C 745.52889 137.17663 746.07392 134.43293 746.00586 131.46094 L 745.73633 73.679688 L 760.48242 73.679688 C 763.1115 73.679688 765.39803 74.650519 767.3418 76.59375 C 769.26535 78.422689 770.17327 80.652185 770.06641 83.28125 L 770.50977 152.72266 C 773.36746 152.72266 776.06802 152.15089 778.60938 151.00781 C 781.15073 149.86473 783.33372 148.32214 785.16211 146.37891 C 787.10481 144.43567 788.59714 142.20618 789.63867 139.69141 C 790.79451 137.17663 791.3971 134.43293 791.44336 131.46094 L 791.15625 83.28125 C 791.14881 80.652185 792.06937 78.422689 793.91797 76.59375 C 795.74636 74.650519 797.97639 73.679688 800.60547 73.679688 L 805.74805 73.679688 C 808.37712 73.679688 810.66366 74.650519 812.60742 76.59375 C 814.53099 78.422689 815.49647 80.652185 815.50391 83.28125 L 815.69922 130.94727 C 815.76726 133.91926 816.37682 136.72052 817.52734 139.34961 C 818.65766 141.86438 820.19491 144.09192 822.13867 146.03516 C 824.08243 147.97839 826.29697 149.52294 828.78516 150.66602 C 831.38765 151.8091 834.17644 152.38086 837.14844 152.38086 L 848.12109 152.38086 C 850.04412 152.26654 851.69419 151.57964 853.07227 150.32227 C 854.43014 148.95057 855.1099 147.29284 855.10938 145.34961 L 846.19336 145.34961 C 843.56428 145.34961 841.33531 144.37878 839.50586 142.43555 C 837.67639 140.49232 836.75743 138.20526 836.75 135.57617 L 836.55469 87.910156 C 836.50684 85.052455 835.90833 82.308752 834.75781 79.679688 C 833.60729 77.050598 832.07004 74.823054 830.14648 72.994141 C 828.20272 71.050909 825.93062 69.506362 823.32812 68.363281 C 820.72563 67.220201 817.99441 66.648438 815.13672 66.648438 L 791.30469 66.648438 C 787.30391 66.648438 783.70204 67.621222 780.50195 69.564453 C 777.30081 67.621222 773.69999 66.648438 769.69922 66.648438 L 724.60547 66.648438 z M 855.77344 66.648438 L 856.35156 152.38086 L 856.48828 174.49805 C 859.34597 174.49805 862.04654 173.92628 864.58789 172.7832 C 867.12924 171.64012 869.31419 170.09753 871.14258 168.1543 C 873.08528 166.21107 874.57566 163.98157 875.61719 161.4668 C 876.77304 158.95203 877.31806 156.20832 877.25 153.23633 L 877.26953 152.38086 L 901.61719 152.38086 C 904.47488 152.38086 907.17544 151.8091 909.7168 150.66602 C 912.37246 149.52294 914.62406 148.03594 916.47266 146.20703 C 918.41536 144.2638 919.90769 142.0343 920.94922 139.51953 C 922.08486 136.89044 922.61884 134.09113 922.55078 131.11914 L 922.28516 87.910156 C 922.14905 81.966144 920.08191 77.050525 916.08008 73.164062 C 912.05804 69.163307 907.15881 66.991367 901.38281 66.648438 L 855.77344 66.648438 z M 1040.4375 66.648438 C 1037.4655 66.648438 1034.7093 67.220201 1032.168 68.363281 C 1029.6266 69.506362 1027.3841 71.050909 1025.4414 72.994141 C 1023.4785 74.823054 1021.9286 77.050598 1020.793 79.679688 C 1019.7716 82.308752 1019.2861 85.052455 1019.334 87.910156 L 1019.5977 131.11914 C 1019.5514 134.09113 1020.1034 136.89044 1021.2539 139.51953 C 1022.3842 142.0343 1023.9215 144.2638 1025.8652 146.20703 C 1027.7888 148.03594 1030.0518 149.52294 1032.6543 150.66602 C 1035.2568 151.8091 1038.0436 152.38086 1041.0156 152.38086 L 1063.8203 152.38086 C 1066.7923 152.38086 1069.0808 151.75154 1070.6875 150.49414 C 1072.4085 149.23677 1073.472 147.80733 1073.875 146.20703 C 1074.9649 148.49317 1076.5612 150.09334 1078.666 151.00781 C 1080.8852 151.92228 1083.0801 152.38086 1085.252 152.38086 L 1097.2559 152.38086 C 1099.1991 152.38086 1100.8492 151.69396 1102.207 150.32227 C 1103.5649 148.95057 1104.1852 147.29284 1104.0703 145.34961 L 1095.6699 145.34961 C 1092.9265 145.34961 1090.5824 144.37878 1088.6387 142.43555 C 1086.8093 140.49232 1085.8904 138.20526 1085.8828 135.57617 L 1085.5312 66.648438 L 1040.4375 66.648438 z M 382.41016 73.679688 L 397.15625 73.679688 L 397.66797 135.74805 C 397.6754 138.37711 396.70637 140.66419 394.76367 142.60742 C 392.91508 144.43636 390.67596 145.34961 388.04688 145.34961 L 382.9043 145.34961 C 380.27521 145.34961 377.99777 144.43636 376.07422 142.60742 C 374.13051 140.66419 373.21348 138.37711 373.32031 135.74805 L 372.82031 83.453125 C 372.92717 80.824035 373.89623 78.536981 375.72461 76.59375 C 377.55299 74.650519 379.78107 73.679688 382.41016 73.679688 z M 667.20703 73.679688 L 681.95312 73.679688 L 682.46484 135.74805 C 682.47228 138.37711 681.5052 140.66419 679.5625 142.60742 C 677.7139 144.43636 675.47478 145.34961 672.8457 145.34961 L 667.70117 145.34961 C 665.07209 145.34961 662.79661 144.43636 660.87305 142.60742 C 658.92929 140.66419 658.01033 138.37711 658.11719 135.74805 L 657.61914 83.453125 C 657.72601 80.824035 658.69309 78.536981 660.52148 76.59375 C 662.34988 74.650519 664.57795 73.679688 667.20703 73.679688 z M 876.90625 73.679688 L 891.48047 73.679688 C 894.10955 73.679688 896.39413 74.650519 898.33789 76.59375 C 900.26133 78.422689 901.22682 80.652185 901.23438 83.28125 L 901.76367 135.74805 C 901.6568 138.37711 900.68972 140.66419 898.86133 142.60742 C 897.01273 144.43636 894.77361 145.34961 892.14453 145.34961 L 877.22656 145.34961 L 876.90625 73.679688 z M 1049.7383 73.679688 L 1064.4844 73.679688 L 1064.9961 135.74805 C 1065.0035 138.37711 1064.0345 140.66419 1062.0918 142.60742 C 1060.2432 144.43636 1058.006 145.34961 1055.377 145.34961 L 1050.2324 145.34961 C 1047.6033 145.34961 1045.3279 144.43636 1043.4043 142.60742 C 1041.4605 140.66419 1040.5416 138.37711 1040.6484 135.74805 L 1040.1504 83.453125 C 1040.2573 80.824035 1041.2243 78.536981 1043.0527 76.59375 C 1044.8811 74.650519 1047.1092 73.679688 1049.7383 73.679688 z "
       transform="matrix(0.26458333,0,0,0.26458333,-217.49309,85.71262)" />
    <path
       id="path13291"
       style="font-weight:500;font-size:11.3306px;line-height:1.25;font-family:Raleway;-inkscape-font-specification:'Raleway Medium';fill:#000000;fill-opacity:1;stroke-width:0.986559"
       d="M 317.16602 183.63477 L 317.16602 210.02734 C 317.16602 211.48657 317.57291 212.62369 318.38672 213.4375 C 319.22857 214.25131 320.36374 214.6582 321.79492 214.6582 C 322.44034 214.6582 323.18549 214.57261 324.02734 214.4043 C 324.86922 214.23593 325.5975 214.02599 326.21484 213.77344 L 325.62695 210.78516 C 325.26215 210.9256 324.86818 211.05194 324.44727 211.16406 C 324.02633 211.24822 323.6622 211.28906 323.35352 211.28906 C 322.56778 211.28906 321.95096 211.0662 321.50195 210.61719 C 321.08101 210.14014 320.86914 209.4935 320.86914 208.67969 L 320.86914 183.63477 L 317.16602 183.63477 z M 329.11914 183.63477 L 329.11914 188.26562 L 332.82422 188.26562 L 332.82422 183.63477 L 329.11914 183.63477 z M 592.875 183.63477 L 592.875 210.02734 C 592.875 211.48657 593.2819 212.62369 594.0957 213.4375 C 594.93757 214.25131 596.07469 214.6582 597.50586 214.6582 C 598.15128 214.6582 598.89446 214.57261 599.73633 214.4043 C 600.5782 214.23593 601.30842 214.02599 601.92578 213.77344 L 601.33594 210.78516 C 600.97112 210.9256 600.57914 211.05194 600.1582 211.16406 C 599.73729 211.24822 599.37314 211.28906 599.06445 211.28906 C 598.27871 211.28906 597.65993 211.0662 597.21094 210.61719 C 596.79 210.14014 596.58008 209.4935 596.58008 208.67969 L 596.58008 183.63477 L 592.875 183.63477 z M 706.90625 183.63477 L 706.90625 188.26562 L 710.60938 188.26562 L 710.60938 183.63477 L 706.90625 183.63477 z M 829.81836 183.63477 L 829.81836 210.02734 C 829.81836 211.48657 830.22526 212.62369 831.03906 213.4375 C 831.88091 214.25131 833.01805 214.6582 834.44922 214.6582 C 835.09466 214.6582 835.83782 214.57261 836.67969 214.4043 C 837.52153 214.23593 838.25176 214.02599 838.86914 213.77344 L 838.2793 210.78516 C 837.91448 210.9256 837.52054 211.05194 837.09961 211.16406 C 836.67868 211.24822 836.31453 211.28906 836.00586 211.28906 C 835.22011 211.28906 834.60329 211.0662 834.1543 210.61719 C 833.73336 210.14014 833.52148 209.4935 833.52148 208.67969 L 833.52148 183.63477 L 829.81836 183.63477 z M 867.07031 183.63477 L 867.07031 214.36328 L 870.77539 214.36328 L 870.77539 207.58594 L 874.98438 203.62891 L 882.56055 214.36328 L 886.56055 214.36328 L 877.38281 201.52344 L 886.13867 192.43164 L 882.05664 192.43164 L 870.77539 203.83984 L 870.77539 183.63477 L 867.07031 183.63477 z M 551.96094 184.26562 C 550.41753 184.26562 548.98689 184.4626 547.66797 184.85547 C 546.34904 185.22027 545.21192 185.78139 544.25781 186.53906 C 543.3037 187.29676 542.56052 188.22396 542.02734 189.31836 C 541.49417 190.41281 541.22852 191.67431 541.22852 193.10547 C 541.22852 194.28405 541.42356 195.29484 541.81641 196.13672 C 542.20928 196.9786 542.78528 197.6939 543.54297 198.2832 C 544.32871 198.87248 545.29673 199.37789 546.44727 199.79883 C 547.5978 200.21977 548.92994 200.61176 550.44531 200.97656 C 551.82036 201.31332 553.04107 201.65153 554.10742 201.98828 C 555.20183 202.29694 556.11412 202.66109 556.84375 203.08203 C 557.57335 203.50297 558.12152 204.00835 558.48633 204.59766 C 558.8792 205.15889 559.07422 205.85932 559.07422 206.70117 C 559.07422 208.21654 558.48524 209.35366 557.30664 210.11133 C 556.12802 210.86902 554.47258 211.24805 552.33984 211.24805 C 551.18931 211.24805 550.08198 211.13661 549.01562 210.91211 C 547.97731 210.65956 546.99441 210.35113 546.06836 209.98633 C 545.17039 209.59343 544.35658 209.15674 543.62695 208.67969 C 542.92541 208.20264 542.34939 207.72705 541.90039 207.25 L 540.0918 210.44922 C 541.77553 211.82424 543.64093 212.87584 545.68945 213.60547 C 547.76604 214.30702 549.95476 214.6582 552.25586 214.6582 C 553.79929 214.6582 555.22993 214.504 556.54883 214.19531 C 557.86775 213.85856 559.00487 213.35317 559.95898 212.67969 C 560.94116 211.97813 561.71218 211.1086 562.27344 210.07031 C 562.83467 209.00396 563.11523 207.75537 563.11523 206.32422 C 563.11523 204.97722 562.87745 203.8401 562.40039 202.91406 C 561.9514 201.988 561.27885 201.20208 560.38086 200.55664 C 559.51093 199.91122 558.44444 199.37797 557.18164 198.95703 C 555.94692 198.50805 554.5571 198.11603 553.01367 197.7793 C 551.66671 197.47061 550.50173 197.17517 549.51953 196.89453 C 548.53736 196.61391 547.71059 196.29058 547.03711 195.92578 C 546.39167 195.53291 545.91414 195.0703 545.60547 194.53711 C 545.29678 194.00394 545.14258 193.33139 545.14258 192.51758 C 545.14258 191.00224 545.67583 189.8094 546.74219 188.93945 C 547.83663 188.06953 549.5478 187.63477 551.87695 187.63477 C 552.77494 187.63477 553.63153 187.73145 554.44531 187.92773 C 555.28718 188.09612 556.0582 188.33587 556.75977 188.64453 C 557.46131 188.92515 558.09306 189.2465 558.6543 189.61133 C 559.21556 189.97613 559.66522 190.3552 560.00195 190.74805 L 561.76953 187.67578 C 560.50673 186.63747 559.06118 185.81071 557.43359 185.19336 C 555.80598 184.57599 553.9814 184.26562 551.96094 184.26562 z M 286.10156 184.47656 L 270.69531 201.01953 L 270.69531 184.51953 L 266.90625 184.51953 L 266.90625 214.36328 L 270.69531 214.36328 L 270.69531 205.22852 L 275.87305 199.83984 L 286.73242 214.36328 L 290.85742 214.36328 L 278.1875 197.65234 L 290.18359 184.47656 L 286.10156 184.47656 z M 770.42383 184.47656 L 770.42383 214.36328 L 774.21289 214.36328 L 774.21289 191.25391 L 784.18945 208.97461 L 786.33594 208.97461 L 796.26953 191.25391 L 796.26953 214.36328 L 800.05859 214.36328 L 800.05859 184.47656 L 796.10156 184.47656 L 785.24219 203.88086 L 774.42383 184.47656 L 770.42383 184.47656 z M 968.89453 184.47656 L 968.89453 214.36328 L 972.68164 214.36328 L 972.68164 203.62891 L 981.60547 203.62891 C 982.92439 203.62891 984.11724 203.36327 985.18359 202.83008 C 986.27801 202.29691 987.2052 201.57963 987.96289 200.68164 C 988.74864 199.78365 989.35055 198.75994 989.77148 197.60938 C 990.19242 196.45884 990.4043 195.266 990.4043 194.03125 C 990.4043 192.85267 990.17946 191.70257 989.73047 190.58008 C 989.28147 189.42954 988.64975 188.4058 987.83594 187.50781 C 987.05019 186.58175 986.09513 185.85152 984.97266 185.31836 C 983.87824 184.75712 982.67244 184.47656 981.35352 184.47656 L 968.89453 184.47656 z M 426.69141 185.06641 L 426.69141 192.39062 L 423.70312 192.39062 L 423.70312 195.29492 L 426.69141 195.29492 L 426.69141 210.06836 C 426.69141 211.63984 427.18384 212.80483 428.16602 213.5625 C 429.14819 214.29213 430.31123 214.6582 431.6582 214.6582 C 432.24751 214.6582 432.80863 214.60041 433.3418 214.48828 C 433.90303 214.40412 434.40841 214.29269 434.85742 214.15234 C 435.33447 213.984 435.75627 213.8298 436.12109 213.68945 C 436.48587 213.52099 436.7794 213.3797 437.00391 213.26758 L 436.12109 210.32227 C 435.89659 210.46259 435.4748 210.65761 434.85742 210.91016 C 434.26812 211.13491 433.60851 211.24805 432.87891 211.24805 C 432.23346 211.24805 431.67236 211.06597 431.19531 210.70117 C 430.71831 210.33635 430.45267 209.74545 430.39648 208.93164 L 430.39648 195.29492 L 435.32031 195.29492 L 435.32031 192.39062 L 430.39648 192.39062 L 430.39648 185.06641 L 426.69141 185.06641 z M 972.68164 187.84375 L 981.14258 187.84375 C 981.8722 187.84375 982.55966 187.99795 983.20508 188.30664 C 983.87858 188.61535 984.45459 189.05009 984.93164 189.61133 C 985.43676 190.17256 985.82877 190.83215 986.10938 191.58984 C 986.41807 192.34749 986.57227 193.16133 986.57227 194.03125 C 986.57227 194.87313 986.4459 195.67395 986.19336 196.43164 C 985.94079 197.18928 985.59157 197.86187 985.14258 198.45117 C 984.69358 199.01243 984.14542 199.4621 983.5 199.79883 C 982.88262 200.10751 982.18221 200.26172 981.39648 200.26172 L 972.68164 200.26172 L 972.68164 187.84375 z M 511.39062 191.31445 C 510.35683 191.31445 509.3234 191.7098 508.53125 192.50195 L 503.82812 197.20508 C 502.24382 198.78938 502.24384 201.34148 503.82812 202.92578 L 508.53125 207.62891 C 510.11556 209.21325 512.66569 209.21325 514.25 207.62891 L 518.95312 202.92578 C 520.53743 201.34144 520.53743 198.78938 518.95312 197.20508 L 514.25 192.50195 C 513.45786 191.7098 512.42442 191.31445 511.39062 191.31445 z M 740.62695 191.31445 C 739.59316 191.31445 738.55973 191.7098 737.76758 192.50195 L 733.06445 197.20508 C 731.48014 198.78938 731.48014 201.34148 733.06445 202.92578 L 737.76758 207.62891 C 739.35189 209.21321 741.90397 209.21321 743.48828 207.62891 L 748.19141 202.92578 C 749.77572 201.34148 749.77572 198.78938 748.19141 197.20508 L 743.48828 192.50195 C 742.69613 191.7098 741.66075 191.31445 740.62695 191.31445 z M 937.42969 191.31445 C 936.39589 191.31446 935.36245 191.7098 934.57031 192.50195 L 929.86719 197.20508 C 928.2829 198.78938 928.28288 201.34144 929.86719 202.92578 L 934.57031 207.62891 C 936.15462 209.21321 938.70478 209.21321 940.28906 207.62891 L 944.99219 202.92578 C 946.57647 201.34148 946.5765 198.78942 944.99219 197.20508 L 940.28906 192.50195 C 939.49691 191.70978 938.46349 191.31445 937.42969 191.31445 z M 301.9707 192.01172 C 299.10839 192.01172 296.26005 192.96481 293.42578 194.87305 L 294.64648 197.27344 C 297.08786 195.56164 299.41589 194.70508 301.63281 194.70508 C 303.48491 194.70508 304.91554 195.22539 305.92578 196.26367 C 306.93602 197.27394 307.44141 198.6767 307.44141 200.47266 L 307.44141 202.24023 C 306.59953 201.90335 305.63153 201.63574 304.53711 201.43945 C 303.44271 201.24292 302.36323 201.14648 301.29688 201.14648 C 299.9499 201.14648 298.70135 201.31363 297.55078 201.65039 C 296.42831 201.98715 295.44539 202.44976 294.60352 203.03906 C 293.78971 203.62834 293.15799 204.34367 292.70898 205.18555 C 292.26 205.99935 292.03516 206.91166 292.03516 207.92188 C 292.03516 208.90405 292.21918 209.81633 292.58398 210.6582 C 292.97688 211.47201 293.49521 212.18734 294.14062 212.80469 C 294.81411 213.42206 295.60006 213.9145 296.49805 214.2793 C 297.39604 214.61605 298.36406 214.7832 299.40234 214.7832 C 301.11412 214.7832 302.71388 214.44692 304.20117 213.77344 C 305.71654 213.07188 306.96512 212.06112 307.94727 210.74219 L 308.03125 212.30078 C 308.11543 212.91815 308.36815 213.45141 308.78906 213.90039 C 309.23807 214.3213 309.82702 214.53125 310.55664 214.53125 C 310.83726 214.53125 311.10487 214.51625 311.35742 214.48828 C 311.60997 214.46031 311.93135 214.41947 312.32422 214.36328 L 312.32422 211.16406 C 311.53851 211.13599 311.14648 210.68633 311.14648 209.81641 L 311.14648 200.85156 C 311.14648 198.04534 310.33269 195.86958 308.70508 194.32617 C 307.10556 192.78274 304.86113 192.01172 301.9707 192.01172 z M 350.50391 192.01172 C 348.70795 192.01172 347.09329 192.45943 345.66211 193.35742 C 344.23093 194.22734 343.06591 195.47785 342.16797 197.10547 L 342.16797 192.39062 L 338.80078 192.39062 L 338.80078 214.36328 L 342.50586 214.36328 L 342.50586 201.10352 C 343.01098 199.3637 343.86754 197.97386 345.07422 196.93555 C 346.28087 195.86919 347.62794 195.33594 349.11523 195.33594 C 350.57448 195.33594 351.66884 195.86919 352.39844 196.93555 C 353.12806 198.00193 353.49219 199.71505 353.49219 202.07227 L 353.49219 214.36328 L 357.19531 214.36328 L 357.19531 201.14648 C 357.70043 199.43471 358.54405 198.0449 359.72266 196.97852 C 360.92933 195.88412 362.28935 195.33594 363.80469 195.33594 C 365.26391 195.33594 366.35827 195.88412 367.08789 196.97852 C 367.84559 198.07297 368.22461 199.77116 368.22461 202.07227 L 368.22461 214.36328 L 371.92969 214.36328 L 371.92969 201.23047 C 371.92969 199.91159 371.8163 198.69088 371.5918 197.56836 C 371.36732 196.44589 371.00317 195.47787 370.49805 194.66406 C 369.99293 193.82221 369.30547 193.17557 368.43555 192.72656 C 367.59367 192.24951 366.54013 192.01172 365.27734 192.01172 C 361.65734 192.01172 358.86669 193.79353 356.90234 197.35742 C 356.6498 195.78597 355.97528 194.50954 354.88086 193.52734 C 353.81448 192.5171 352.356 192.01172 350.50391 192.01172 z M 385.9043 192.01172 C 383.04193 192.01172 380.19364 192.96481 377.35938 194.87305 L 378.58008 197.27344 C 381.02148 195.56164 383.34951 194.70508 385.56641 194.70508 C 387.41853 194.70508 388.85111 195.22539 389.86133 196.26367 C 390.87157 197.27394 391.375 198.6767 391.375 200.47266 L 391.375 202.24023 C 390.53312 201.90335 389.5651 201.63574 388.4707 201.43945 C 387.37628 201.24292 386.29682 201.14648 385.23047 201.14648 C 383.8835 201.14648 382.63494 201.31363 381.48438 201.65039 C 380.36191 201.98715 379.37899 202.44976 378.53711 203.03906 C 377.7233 203.62834 377.09156 204.34367 376.64258 205.18555 C 376.19357 205.99935 375.96875 206.91166 375.96875 207.92188 C 375.96875 208.90405 376.15275 209.81633 376.51758 210.6582 C 376.91045 211.47201 377.4288 212.18734 378.07422 212.80469 C 378.74773 213.42206 379.53365 213.9145 380.43164 214.2793 C 381.32961 214.61605 382.29763 214.7832 383.33594 214.7832 C 385.04774 214.7832 386.6475 214.44692 388.13477 213.77344 C 389.65013 213.07188 390.89869 212.06112 391.88086 210.74219 L 391.96484 212.30078 C 392.04903 212.91815 392.30172 213.45141 392.72266 213.90039 C 393.17164 214.3213 393.76061 214.53125 394.49023 214.53125 C 394.77085 214.53125 395.03844 214.51625 395.29102 214.48828 C 395.54356 214.46031 395.86494 214.41947 396.25781 214.36328 L 396.25781 211.16406 C 395.47207 211.13599 395.08008 210.68633 395.08008 209.81641 L 395.08008 200.85156 C 395.08008 198.04534 394.26629 195.86958 392.63867 194.32617 C 391.03915 192.78274 388.79468 192.01172 385.9043 192.01172 z M 413.51758 192.01172 C 411.5813 192.01172 409.78459 192.47433 408.12891 193.40039 C 406.50132 194.32643 405.25273 195.56204 404.38281 197.10547 L 404.38281 192.39062 L 401.01562 192.39062 L 401.01562 214.36328 L 404.71875 214.36328 L 404.71875 201.10352 C 404.97132 200.26166 405.35035 199.49062 405.85547 198.78906 C 406.36059 198.08751 406.94959 197.48364 407.62305 196.97852 C 408.29656 196.47342 409.01382 196.07945 409.77148 195.79883 C 410.52915 195.49014 411.28527 195.33594 412.04297 195.33594 C 413.50219 195.33594 414.5836 195.86919 415.28516 196.93555 C 416.01478 198.00193 416.37891 199.71505 416.37891 202.07227 L 416.37891 214.36328 L 420.08398 214.36328 L 420.08398 201.23047 C 420.08398 199.91159 419.9706 198.69088 419.74609 197.56836 C 419.54963 196.44589 419.19846 195.47787 418.69336 194.66406 C 418.18824 193.82221 417.51571 193.17557 416.67383 192.72656 C 415.83195 192.24951 414.78034 192.01172 413.51758 192.01172 z M 448.66406 192.01172 C 445.80173 192.01172 442.9534 192.96481 440.11914 194.87305 L 441.33984 197.27344 C 443.78123 195.56164 446.11121 194.70508 448.32812 194.70508 C 450.18022 194.70508 451.61086 195.22539 452.62109 196.26367 C 453.63133 197.27394 454.13672 198.6767 454.13672 200.47266 L 454.13672 202.24023 C 453.29485 201.90335 452.32683 201.63574 451.23242 201.43945 C 450.13798 201.24292 449.05659 201.14648 447.99023 201.14648 C 446.64325 201.14648 445.39468 201.31363 444.24414 201.65039 C 443.12165 201.98715 442.14068 202.44976 441.29883 203.03906 C 440.48502 203.62834 439.85328 204.34367 439.4043 205.18555 C 438.95529 205.99935 438.73047 206.91166 438.73047 207.92188 C 438.73047 208.90405 438.91252 209.81633 439.27734 210.6582 C 439.67021 211.47201 440.19052 212.18734 440.83594 212.80469 C 441.50942 213.42206 442.29539 213.9145 443.19336 214.2793 C 444.09136 214.61605 445.05936 214.7832 446.09766 214.7832 C 447.80945 214.7832 449.40724 214.44692 450.89453 213.77344 C 452.40991 213.07188 453.66041 212.06112 454.64258 210.74219 L 454.72656 212.30078 C 454.81075 212.91815 455.06344 213.45141 455.48438 213.90039 C 455.93337 214.3213 456.52235 214.53125 457.25195 214.53125 C 457.53259 214.53125 457.79824 214.51625 458.05078 214.48828 C 458.30335 214.46031 458.62666 214.41947 459.01953 214.36328 L 459.01953 211.16406 C 458.23379 211.13599 457.8418 210.68633 457.8418 209.81641 L 457.8418 200.85156 C 457.8418 198.04534 457.02798 195.86958 455.40039 194.32617 C 453.80084 192.78274 451.55445 192.01172 448.66406 192.01172 z M 476.27734 192.01172 C 474.34106 192.01172 472.5463 192.47433 470.89062 193.40039 C 469.26303 194.32643 468.01446 195.56204 467.14453 197.10547 L 467.14453 192.39062 L 463.77539 192.39062 L 463.77539 214.36328 L 467.48047 214.36328 L 467.48047 201.10352 C 467.73304 200.26166 468.11207 199.49062 468.61719 198.78906 C 469.1223 198.08751 469.71129 197.48364 470.38477 196.97852 C 471.05827 196.47342 471.77359 196.07945 472.53125 195.79883 C 473.28894 195.49014 474.047 195.33594 474.80469 195.33594 C 476.26392 195.33594 477.34338 195.86919 478.04492 196.93555 C 478.77455 198.00193 479.14062 199.71505 479.14062 202.07227 L 479.14062 214.36328 L 482.84375 214.36328 L 482.84375 201.23047 C 482.84375 199.91159 482.73219 198.69088 482.50781 197.56836 C 482.31136 196.44589 481.96019 195.47787 481.45508 194.66406 C 480.94996 193.82221 480.27742 193.17557 479.43555 192.72656 C 478.59368 192.24951 477.54012 192.01172 476.27734 192.01172 z M 613.03906 192.01172 C 610.17673 192.01172 607.32841 192.96481 604.49414 194.87305 L 605.71484 197.27344 C 608.15624 195.56164 610.48426 194.70508 612.70117 194.70508 C 614.55327 194.70508 615.98586 195.22539 616.99609 196.26367 C 618.00632 197.27394 618.50977 198.6767 618.50977 200.47266 L 618.50977 202.24023 C 617.6679 201.90335 616.69988 201.63574 615.60547 201.43945 C 614.51105 201.24292 613.43161 201.14648 612.36523 201.14648 C 611.01825 201.14648 609.76967 201.31363 608.61914 201.65039 C 607.49667 201.98715 606.51374 202.44976 605.67188 203.03906 C 604.85807 203.62834 604.22634 204.34367 603.77734 205.18555 C 603.32835 205.99935 603.10352 206.91166 603.10352 207.92188 C 603.10352 208.90405 603.28753 209.81633 603.65234 210.6582 C 604.04522 211.47201 604.56356 212.18734 605.20898 212.80469 C 605.88249 213.42206 606.66842 213.9145 607.56641 214.2793 C 608.46437 214.61605 609.43239 214.7832 610.4707 214.7832 C 612.18247 214.7832 613.78222 214.44692 615.26953 213.77344 C 616.78488 213.07188 618.03345 212.06112 619.01562 210.74219 L 619.09961 212.30078 C 619.18379 212.91815 619.43649 213.45141 619.85742 213.90039 C 620.30641 214.3213 620.89537 214.53125 621.625 214.53125 C 621.9056 214.53125 622.17321 214.51625 622.42578 214.48828 C 622.67833 214.46031 622.9997 214.41947 623.39258 214.36328 L 623.39258 211.16406 C 622.60683 211.13599 622.21484 210.68633 622.21484 209.81641 L 622.21484 200.85156 C 622.21484 198.04534 621.40103 195.86958 619.77344 194.32617 C 618.17391 192.78274 615.92948 192.01172 613.03906 192.01172 z M 671 192.01172 C 669.34435 192.01172 667.83012 192.32013 666.45508 192.9375 C 665.08003 193.5268 663.88719 194.34062 662.87695 195.37891 C 661.89478 196.41722 661.12376 197.623 660.5625 198.99805 C 660.02932 200.37309 659.76172 201.83355 659.76172 203.37695 C 659.76172 204.92039 660.02932 206.39376 660.5625 207.79688 C 661.12376 209.17192 661.89478 210.37773 662.87695 211.41602 C 663.85912 212.4543 665.03706 213.28304 666.41211 213.90039 C 667.78715 214.48972 669.30333 214.7832 670.95898 214.7832 C 672.0534 214.7832 673.10498 214.6439 674.11523 214.36328 C 675.12547 214.08266 676.03776 213.70361 676.85156 213.22656 C 677.69341 212.72142 678.42363 212.13247 679.04102 211.45898 C 679.68643 210.78552 680.19183 210.04232 680.55664 209.22852 L 677.35742 208.34375 C 677.13294 208.90498 676.79665 209.41037 676.34766 209.85938 C 675.92672 210.30836 675.43428 210.68743 674.87305 210.99609 C 674.31181 211.30468 673.70795 211.55737 673.0625 211.75391 C 672.41708 211.92222 671.75944 212.00586 671.08594 212.00586 C 670.13183 212.00586 669.21954 211.82381 668.34961 211.45898 C 667.50777 211.09418 666.74968 210.58878 666.07617 209.94336 C 665.40269 209.29792 664.85453 208.52687 664.43359 207.62891 C 664.01269 206.73092 663.75999 205.73312 663.67578 204.63867 L 681.90234 204.63867 C 681.93034 204.49838 681.94531 204.30335 681.94531 204.05078 C 681.97331 203.79823 681.98633 203.51767 681.98633 203.20898 C 681.98633 201.74976 681.72068 200.34502 681.1875 198.99805 C 680.68238 197.623 679.95216 196.43016 678.99805 195.41992 C 678.04394 194.38164 676.87895 193.55487 675.50391 192.9375 C 674.15692 192.32013 672.65567 192.01172 671 192.01172 z M 693.64648 192.01172 C 692.46789 192.01172 691.36058 192.16592 690.32227 192.47461 C 689.31204 192.75525 688.42758 193.18999 687.66992 193.7793 C 686.91223 194.34053 686.30837 195.05586 685.85938 195.92578 C 685.43844 196.76766 685.22852 197.73568 685.22852 198.83008 C 685.22852 199.7 685.36781 200.43023 685.64844 201.01953 C 685.92904 201.60884 686.37871 202.11422 686.99609 202.53516 C 687.61345 202.95609 688.3994 203.32022 689.35352 203.62891 C 690.30762 203.93759 691.44475 204.26093 692.76367 204.59766 C 693.80196 204.8502 694.7123 205.088 695.49805 205.3125 C 696.28377 205.537 696.93043 205.7897 697.43555 206.07031 C 697.94069 206.35093 698.31972 206.68721 698.57227 207.08008 C 698.82484 207.4449 698.95117 207.89457 698.95117 208.42773 C 698.95117 209.57827 698.47364 210.47565 697.51953 211.12109 C 696.59348 211.73847 695.33002 212.04688 693.73047 212.04688 C 692.29931 212.04688 690.9393 211.80908 689.64844 211.33203 C 688.3576 210.82691 687.06625 210.08374 685.77539 209.10156 L 684.17578 211.58398 C 685.4105 212.6223 686.88391 213.42312 688.5957 213.98438 C 690.3075 214.51754 692.04656 214.7832 693.81445 214.7832 C 696.48036 214.7832 698.60041 214.18129 700.17188 212.97461 C 701.74337 211.76796 702.5293 210.14035 702.5293 208.0918 C 702.5293 207.16576 702.34528 206.37982 701.98047 205.73438 C 701.64372 205.08893 701.11046 204.52783 700.38086 204.05078 C 699.6793 203.57373 698.78192 203.16681 697.6875 202.83008 C 696.62115 202.46528 695.35769 202.1141 693.89844 201.77734 C 692.97239 201.55294 692.17348 201.34302 691.5 201.14648 C 690.85458 200.95007 690.32132 200.72523 689.90039 200.47266 C 689.47942 200.22011 689.17102 199.92465 688.97461 199.58789 C 688.80619 199.25113 688.72266 198.83129 688.72266 198.32617 C 688.72266 197.06341 689.18528 196.1511 690.11133 195.58984 C 691.06544 195.00054 692.21552 194.70508 693.5625 194.70508 C 694.76918 194.70508 695.94712 194.915 697.09766 195.33594 C 698.24819 195.72881 699.28684 196.33268 700.21289 197.14648 L 701.89648 194.91602 C 700.91431 194.04612 699.70851 193.34374 698.27734 192.81055 C 696.84618 192.27736 695.30216 192.01172 693.64648 192.01172 z M 814.62305 192.01172 C 811.76072 192.01172 808.9124 192.96481 806.07812 194.87305 L 807.29883 197.27344 C 809.74023 195.56164 812.06824 194.70508 814.28516 194.70508 C 816.13726 194.70508 817.56985 195.22539 818.58008 196.26367 C 819.59031 197.27394 820.09375 198.6767 820.09375 200.47266 L 820.09375 202.24023 C 819.25188 201.90335 818.28387 201.63574 817.18945 201.43945 C 816.09504 201.24292 815.0156 201.14648 813.94922 201.14648 C 812.60226 201.14648 811.35368 201.31363 810.20312 201.65039 C 809.08065 201.98715 808.09773 202.44976 807.25586 203.03906 C 806.44205 203.62834 805.81032 204.34367 805.36133 205.18555 C 804.91233 205.99935 804.68945 206.91166 804.68945 207.92188 C 804.68945 208.90405 804.87152 209.81633 805.23633 210.6582 C 805.6292 211.47201 806.14755 212.18734 806.79297 212.80469 C 807.46647 213.42206 808.2524 213.9145 809.15039 214.2793 C 810.04838 214.61605 811.0164 214.7832 812.05469 214.7832 C 813.76646 214.7832 815.3662 214.44692 816.85352 213.77344 C 818.36886 213.07188 819.61744 212.06112 820.59961 210.74219 L 820.68359 212.30078 C 820.76778 212.91815 821.02047 213.45141 821.44141 213.90039 C 821.8904 214.3213 822.47936 214.53125 823.20898 214.53125 C 823.48959 214.53125 823.7572 214.51625 824.00977 214.48828 C 824.26231 214.46031 824.58369 214.41947 824.97656 214.36328 L 824.97656 211.16406 C 824.19082 211.13599 823.79883 210.68633 823.79883 209.81641 L 823.79883 200.85156 C 823.79883 198.04534 822.98501 195.86958 821.35742 194.32617 C 819.75789 192.78274 817.51346 192.01172 814.62305 192.01172 z M 1002.4844 192.01172 C 999.62204 192.01172 996.77372 192.96481 993.93945 194.87305 L 995.16016 197.27344 C 997.60155 195.56164 999.92957 194.70508 1002.1465 194.70508 C 1003.9986 194.70508 1005.4312 195.22539 1006.4414 196.26367 C 1007.4516 197.27394 1007.957 198.6767 1007.957 200.47266 L 1007.957 202.24023 C 1007.1152 201.90335 1006.1471 201.63574 1005.0527 201.43945 C 1003.9583 201.24292 1002.8769 201.14648 1001.8105 201.14648 C 1000.4636 201.14648 999.21501 201.31363 998.06445 201.65039 C 996.94198 201.98715 995.95905 202.44976 995.11719 203.03906 C 994.30338 203.62834 993.6736 204.34367 993.22461 205.18555 C 992.77561 205.99935 992.55078 206.91166 992.55078 207.92188 C 992.55078 208.90405 992.73284 209.81633 993.09766 210.6582 C 993.49053 211.47201 994.00888 212.18734 994.6543 212.80469 C 995.3278 213.42206 996.11373 213.9145 997.01172 214.2793 C 997.90971 214.61605 998.87772 214.7832 999.91602 214.7832 C 1001.6278 214.7832 1003.2275 214.44692 1004.7148 213.77344 C 1006.2302 213.07188 1007.4788 212.06112 1008.4609 210.74219 L 1008.5449 212.30078 C 1008.6291 212.91815 1008.8818 213.45141 1009.3027 213.90039 C 1009.7517 214.3213 1010.3407 214.53125 1011.0703 214.53125 C 1011.3509 214.53125 1011.6185 214.51625 1011.8711 214.48828 C 1012.1236 214.46031 1012.447 214.41947 1012.8398 214.36328 L 1012.8398 211.16406 C 1012.0541 211.13599 1011.6602 210.68633 1011.6602 209.81641 L 1011.6602 200.85156 C 1011.6602 198.04534 1010.8464 195.86958 1009.2188 194.32617 C 1007.6192 192.78274 1005.3748 192.01172 1002.4844 192.01172 z M 1028.877 192.01172 C 1027.1932 192.01172 1025.6492 192.43156 1024.2461 193.27344 C 1022.871 194.08725 1021.7488 195.16865 1020.8789 196.51562 L 1020.8789 192.39062 L 1017.5957 192.39062 L 1017.5957 223.32812 L 1021.3008 223.32812 L 1021.3008 210.02734 C 1022.1146 211.40239 1023.2089 212.53951 1024.584 213.4375 C 1025.9871 214.33549 1027.5998 214.7832 1029.4238 214.7832 C 1030.8831 214.7832 1032.2152 214.48972 1033.4219 213.90039 C 1034.6286 213.28304 1035.6672 212.46923 1036.5371 211.45898 C 1037.407 210.4207 1038.0815 209.21293 1038.5586 207.83789 C 1039.0356 206.43478 1039.2734 204.94843 1039.2734 203.37695 C 1039.2734 201.88966 1039.0078 200.45707 1038.4746 199.08203 C 1037.9695 197.70699 1037.2522 196.50118 1036.3262 195.46289 C 1035.4001 194.39653 1034.3058 193.55487 1033.043 192.9375 C 1031.7802 192.32013 1030.3923 192.01172 1028.877 192.01172 z M 1077.3262 192.01172 C 1074.4638 192.01172 1071.6155 192.96481 1068.7812 194.87305 L 1070.002 197.27344 C 1072.4434 195.56164 1074.7714 194.70508 1076.9883 194.70508 C 1078.8404 194.70508 1080.273 195.22539 1081.2832 196.26367 C 1082.2935 197.27394 1082.7988 198.6767 1082.7988 200.47266 L 1082.7988 202.24023 C 1081.957 201.90335 1080.987 201.63574 1079.8926 201.43945 C 1078.7982 201.24292 1077.7187 201.14648 1076.6523 201.14648 C 1075.3054 201.14648 1074.0568 201.31363 1072.9062 201.65039 C 1071.7838 201.98715 1070.8009 202.44976 1069.959 203.03906 C 1069.1452 203.62834 1068.5134 204.34367 1068.0645 205.18555 C 1067.6155 205.99935 1067.3926 206.91166 1067.3926 207.92188 C 1067.3926 208.90405 1067.5747 209.81633 1067.9395 210.6582 C 1068.3323 211.47201 1068.8507 212.18734 1069.4961 212.80469 C 1070.1696 213.42206 1070.9555 213.9145 1071.8535 214.2793 C 1072.7515 214.61605 1073.7195 214.7832 1074.7578 214.7832 C 1076.4696 214.7832 1078.0694 214.44692 1079.5566 213.77344 C 1081.072 213.07188 1082.3206 212.06112 1083.3027 210.74219 L 1083.3867 212.30078 C 1083.4709 212.91815 1083.7236 213.45141 1084.1445 213.90039 C 1084.5935 214.3213 1085.1825 214.53125 1085.9121 214.53125 C 1086.1927 214.53125 1086.4603 214.51625 1086.7129 214.48828 C 1086.9655 214.46031 1087.2888 214.41947 1087.6816 214.36328 L 1087.6816 211.16406 C 1086.8959 211.13599 1086.502 210.68633 1086.502 209.81641 L 1086.502 200.85156 C 1086.502 198.04534 1085.6882 195.86958 1084.0605 194.32617 C 1082.461 192.78274 1080.2166 192.01172 1077.3262 192.01172 z M 329.11914 192.39062 L 329.11914 214.36328 L 332.82422 214.36328 L 332.82422 192.39062 L 329.11914 192.39062 z M 567.2832 192.39062 L 567.2832 205.56445 C 567.2832 208.6232 567.87216 210.92534 569.05078 212.46875 C 570.22904 214.01174 571.97136 214.78276 574.27148 214.7832 C 576.17895 214.78291 577.93224 214.34814 579.53125 213.47852 C 581.13078 212.58053 582.42213 211.30412 583.4043 209.64844 L 583.48828 212.2168 C 583.51634 212.86221 583.76904 213.40841 584.24609 213.85742 C 584.75121 214.27836 585.36998 214.48828 586.09961 214.48828 C 586.32423 214.48828 586.54711 214.47523 586.77148 214.44727 C 587.02403 214.44727 587.36227 214.41947 587.7832 214.36328 L 587.7832 211.16406 C 586.99748 211.13599 586.60352 210.68633 586.60352 209.81641 L 586.60352 192.39062 L 582.90039 192.39062 L 582.90039 206.1543 C 582.25497 207.83803 581.25714 209.17212 579.91016 210.1543 C 578.59123 211.1084 577.1755 211.58398 575.66016 211.58398 C 572.54525 211.58398 570.98828 209.33951 570.98828 204.84961 L 570.98828 192.39062 L 567.2832 192.39062 z M 624.9082 192.39062 L 634.25391 214.36328 L 637.32617 214.36328 L 641.70312 203.62891 L 646.12305 214.36328 L 649.19727 214.36328 L 658.54102 192.39062 L 654.96289 192.39062 L 647.42773 210.70117 L 643.72461 201.56641 L 647.4707 192.43164 L 644.39844 192.43164 L 641.70312 199.46094 L 639.00977 192.43164 L 635.9375 192.43164 L 639.72461 201.56641 L 636.02148 210.70117 L 628.44531 192.39062 L 624.9082 192.39062 z M 706.90625 192.39062 L 706.90625 214.36328 L 710.60938 214.36328 L 710.60938 192.39062 L 706.90625 192.39062 z M 841.5625 192.39062 L 841.5625 205.56445 C 841.5625 208.6232 842.15146 210.92534 843.33008 212.46875 C 844.50867 214.01218 846.24773 214.7832 848.54883 214.7832 C 850.45705 214.7832 852.21099 214.34844 853.81055 213.47852 C 855.41008 212.58053 856.70142 211.30412 857.68359 209.64844 L 857.76758 212.2168 C 857.79566 212.86221 858.04834 213.40841 858.52539 213.85742 C 859.03051 214.27836 859.64735 214.48828 860.37695 214.48828 C 860.60157 214.48828 860.8264 214.47523 861.05078 214.44727 C 861.30335 214.44727 861.63961 214.41947 862.06055 214.36328 L 862.06055 211.16406 C 861.2748 211.13599 860.88281 210.68633 860.88281 209.81641 L 860.88281 192.39062 L 857.17969 192.39062 L 857.17969 206.1543 C 856.53424 207.83803 855.53644 209.17212 854.18945 210.1543 C 852.87055 211.1084 851.45483 211.58398 849.93945 211.58398 C 846.82458 211.58398 845.26562 209.33951 845.26562 204.84961 L 845.26562 192.39062 L 841.5625 192.39062 z M 889.54883 192.39062 L 889.54883 205.56445 C 889.54883 208.6232 890.13781 210.92534 891.31641 212.46875 C 892.49503 214.01218 894.23406 214.7832 896.53516 214.7832 C 898.44338 214.7832 900.19735 214.34844 901.79688 213.47852 C 903.39643 212.58053 904.68775 211.30412 905.66992 209.64844 L 905.75391 212.2168 C 905.78197 212.86221 906.03466 213.40841 906.51172 213.85742 C 907.01683 214.27836 907.63366 214.48828 908.36328 214.48828 C 908.58765 214.48828 908.81248 214.47523 909.03711 214.44727 C 909.28965 214.44727 909.62594 214.41947 910.04688 214.36328 L 910.04688 211.16406 C 909.26113 211.13599 908.86914 210.68633 908.86914 209.81641 L 908.86914 192.39062 L 905.16406 192.39062 L 905.16406 206.1543 C 904.51864 207.83803 903.52276 209.17212 902.17578 210.1543 C 900.85686 211.1084 899.44113 211.58398 897.92578 211.58398 C 894.81088 211.58398 893.25195 209.33951 893.25195 204.84961 L 893.25195 192.39062 L 889.54883 192.39062 z M 1043.6094 192.39062 L 1043.6094 205.56445 C 1043.6094 208.6232 1044.1984 210.92534 1045.377 212.46875 C 1046.5556 214.01218 1048.2946 214.7832 1050.5957 214.7832 C 1052.5039 214.7832 1054.2579 214.34844 1055.8574 213.47852 C 1057.457 212.58053 1058.7483 211.30412 1059.7305 209.64844 L 1059.8145 212.2168 C 1059.8425 212.86221 1060.0952 213.40841 1060.5723 213.85742 C 1061.0774 214.27836 1061.6962 214.48828 1062.4258 214.48828 C 1062.6504 214.48828 1062.8733 214.47523 1063.0977 214.44727 C 1063.3502 214.44727 1063.6884 214.41947 1064.1094 214.36328 L 1064.1094 211.16406 C 1063.3236 211.13599 1062.9297 210.68633 1062.9297 209.81641 L 1062.9297 192.39062 L 1059.2266 192.39062 L 1059.2266 206.1543 C 1058.5811 207.83803 1057.5833 209.17212 1056.2363 210.1543 C 1054.9174 211.1084 1053.5017 211.58398 1051.9863 211.58398 C 1048.8715 211.58398 1047.3125 209.33951 1047.3125 204.84961 L 1047.3125 192.39062 L 1043.6094 192.39062 z M 671 194.78906 C 671.98217 194.78906 672.90937 194.97111 673.7793 195.33594 C 674.64923 195.67269 675.40732 196.15023 676.05273 196.76758 C 676.72624 197.38493 677.27243 198.14303 677.69336 199.04102 C 678.14233 199.91096 678.40993 200.86406 678.49414 201.90234 L 663.5918 201.90234 C 663.67598 200.86406 663.91572 199.91096 664.30859 199.04102 C 664.72953 198.17109 665.26278 197.42789 665.9082 196.81055 C 666.58168 196.16513 667.35273 195.67269 668.22266 195.33594 C 669.09259 194.97111 670.01783 194.78906 671 194.78906 z M 1027.9512 195.21094 C 1029.0175 195.21094 1029.9985 195.43578 1030.8965 195.88477 C 1031.8225 196.3057 1032.6234 196.89467 1033.2969 197.65234 C 1033.9704 198.38197 1034.5036 199.2515 1034.8965 200.26172 C 1035.2894 201.24389 1035.4844 202.28253 1035.4844 203.37695 C 1035.4844 204.41526 1035.3172 205.42408 1034.9805 206.40625 C 1034.6437 207.38842 1034.1532 208.27286 1033.5078 209.05859 C 1032.8904 209.81626 1032.1324 210.43506 1031.2344 210.91211 C 1030.3644 211.36109 1029.3815 211.58398 1028.2871 211.58398 C 1027.5294 211.58398 1026.7992 211.4576 1026.0977 211.20508 C 1025.3961 210.92444 1024.7365 210.56031 1024.1191 210.11133 C 1023.5018 209.63425 1022.9556 209.08805 1022.4785 208.4707 C 1022.0015 207.82526 1021.6095 207.13585 1021.3008 206.40625 L 1021.3008 200.13477 C 1021.4411 199.46128 1021.7346 198.82954 1022.1836 198.24023 C 1022.6606 197.62289 1023.2088 197.10453 1023.8262 196.68359 C 1024.4716 196.23459 1025.1441 195.88343 1025.8457 195.63086 C 1026.5753 195.35027 1027.2777 195.21094 1027.9512 195.21094 z M 301.84375 203.37695 C 303.78005 203.37695 305.64543 203.72813 307.44141 204.42969 L 307.44141 207.66992 C 307.44141 208.23116 307.17577 208.77933 306.64258 209.3125 C 306.05327 210.12631 305.18374 210.78394 304.0332 211.28906 C 302.91071 211.76611 301.69 212.00586 300.37109 212.00586 L 300.36914 212.00586 C 299.69565 212.00586 299.06587 211.89272 298.47656 211.66797 C 297.88723 211.44349 297.36695 211.13508 296.91797 210.74219 C 296.49703 210.34932 296.16075 209.88668 295.9082 209.35352 C 295.68395 208.82033 295.57227 208.24625 295.57227 207.62891 C 295.57227 206.36609 296.14631 205.34043 297.29688 204.55469 C 298.47546 203.76895 299.99166 203.37695 301.84375 203.37695 z M 385.77734 203.37695 C 387.71362 203.37695 389.57902 203.72813 391.375 204.42969 L 391.375 207.66992 C 391.375 208.23116 391.10936 208.77933 390.57617 209.3125 C 389.98689 210.12631 389.11736 210.78394 387.9668 211.28906 C 386.84433 211.76611 385.62362 212.00586 384.30469 212.00586 C 383.6312 212.00586 382.99946 211.89272 382.41016 211.66797 C 381.82085 211.44349 381.30057 211.13508 380.85156 210.74219 C 380.43062 210.34932 380.09434 209.88668 379.8418 209.35352 C 379.61729 208.82033 379.50586 208.24625 379.50586 207.62891 C 379.50586 206.36609 380.0799 205.34043 381.23047 204.55469 C 382.40905 203.76895 383.92522 203.37695 385.77734 203.37695 z M 448.53906 203.37695 C 450.47534 203.37695 452.34074 203.72813 454.13672 204.42969 L 454.13672 207.66992 C 454.13672 208.23116 453.87107 208.77933 453.33789 209.3125 C 452.74859 210.12631 451.87712 210.78394 450.72656 211.28906 C 449.60409 211.76611 448.38338 212.00586 447.06445 212.00586 C 446.39095 212.00586 445.76117 211.89272 445.17188 211.66797 C 444.58258 211.44349 444.06228 211.13508 443.61328 210.74219 C 443.19234 210.34932 442.85609 209.88668 442.60352 209.35352 C 442.37901 208.82033 442.26562 208.24625 442.26562 207.62891 C 442.26563 206.36609 442.84165 205.34043 443.99219 204.55469 C 445.17081 203.76895 446.68696 203.37695 448.53906 203.37695 z M 612.91211 203.37695 C 614.84839 203.37695 616.71379 203.72813 618.50977 204.42969 L 618.50977 207.66992 C 618.50977 208.23116 618.24411 208.77933 617.71094 209.3125 C 617.12164 210.12631 616.25212 210.78394 615.10156 211.28906 C 613.97909 211.76611 612.75837 212.00586 611.43945 212.00586 C 610.76597 212.00586 610.13425 211.89272 609.54492 211.66797 C 608.95563 211.44349 608.43728 211.13508 607.98828 210.74219 C 607.56735 210.34932 607.22911 209.88668 606.97656 209.35352 C 606.75193 208.82033 606.64062 208.24625 606.64062 207.62891 C 606.64062 206.36609 607.21467 205.34043 608.36523 204.55469 C 609.54383 203.76895 611.06001 203.37695 612.91211 203.37695 z M 814.49609 203.37695 C 816.43238 203.37695 818.29777 203.72813 820.09375 204.42969 L 820.09375 207.66992 C 820.09375 208.23116 819.8281 208.77933 819.29492 209.3125 C 818.70562 210.12631 817.83611 210.78394 816.68555 211.28906 C 815.56307 211.76611 814.34236 212.00586 813.02344 212.00586 C 812.34996 212.00586 811.71823 211.89272 811.12891 211.66797 C 810.53961 211.44349 810.01931 211.13508 809.57031 210.74219 C 809.14938 210.34932 808.81309 209.88668 808.56055 209.35352 C 808.33616 208.82033 808.22461 208.24625 808.22461 207.62891 C 808.22461 206.36609 808.80061 205.34043 809.95117 204.55469 C 811.12977 203.76895 812.64399 203.37695 814.49609 203.37695 z M 1002.3574 203.37695 C 1004.2937 203.37695 1006.1611 203.72813 1007.957 204.42969 L 1007.957 207.66992 C 1007.957 208.23116 1007.6894 208.77933 1007.1562 209.3125 C 1006.567 210.12631 1005.6974 210.78394 1004.5469 211.28906 C 1003.4244 211.76611 1002.2037 212.00586 1000.8848 212.00586 C 1000.2113 212.00586 999.57956 211.89272 998.99023 211.66797 C 998.40094 211.44349 997.88259 211.13508 997.43359 210.74219 C 997.01266 210.34932 996.67442 209.88668 996.42188 209.35352 C 996.1975 208.82033 996.08594 208.24625 996.08594 207.62891 C 996.08594 206.36609 996.66194 205.34043 997.8125 204.55469 C 998.9911 203.76895 1000.5053 203.37695 1002.3574 203.37695 z M 1077.1992 203.37695 C 1079.1355 203.37695 1081.0028 203.72813 1082.7988 204.42969 L 1082.7988 207.66992 C 1082.7988 208.23116 1082.5313 208.77933 1081.998 209.3125 C 1081.4088 210.12631 1080.5392 210.78394 1079.3887 211.28906 C 1078.2662 211.76611 1077.0455 212.00586 1075.7266 212.00586 C 1075.0531 212.00586 1074.4213 211.89272 1073.832 211.66797 C 1073.2427 211.44349 1072.7244 211.13508 1072.2754 210.74219 C 1071.8545 210.34932 1071.5162 209.88668 1071.2637 209.35352 C 1071.0393 208.82033 1070.9277 208.24625 1070.9277 207.62891 C 1070.9277 206.36609 1071.5038 205.34043 1072.6543 204.55469 C 1073.8329 203.76895 1075.3471 203.37695 1077.1992 203.37695 z "
       transform="matrix(0.26458333,0,0,0.26458333,-217.49309,85.71262)" />
  </g>
</svg>
