<?xml version="1.0" encoding="UTF-8" standalone="no"?>
<!-- Created with Inkscape (http://www.inkscape.org/) -->

<svg
   width="79.041656mm"
   height="14.161047mm"
   viewBox="0 0 79.041658 14.161047"
   version="1.1"
   id="svg5"
   inkscape:version="1.1.2 (b8e25be833, 2022-02-05)"
   sodipodi:docname="kasulampua-type.svg"
   xmlns:inkscape="http://www.inkscape.org/namespaces/inkscape"
   xmlns:sodipodi="http://sodipodi.sourceforge.net/DTD/sodipodi-0.dtd"
   xmlns="http://www.w3.org/2000/svg"
   xmlns:svg="http://www.w3.org/2000/svg">
  <sodipodi:namedview
     id="namedview7"
     pagecolor="#ffffff"
     bordercolor="#666666"
     borderopacity="1.0"
     inkscape:pageshadow="2"
     inkscape:pageopacity="0.0"
     inkscape:pagecheckerboard="0"
     inkscape:document-units="mm"
     showgrid="false"
     fit-margin-top="0"
     fit-margin-left="0"
     fit-margin-right="0"
     fit-margin-bottom="0"
     inkscape:zoom="1.2810466"
     inkscape:cx="114.35962"
     inkscape:cy="105.38259"
     inkscape:window-width="1920"
     inkscape:window-height="1009"
     inkscape:window-x="-8"
     inkscape:window-y="-8"
     inkscape:window-maximized="1"
     inkscape:current-layer="g284372" />
  <defs
     id="defs2" />
  <g
     inkscape:label="Layer 1"
     inkscape:groupmode="layer"
     id="layer1"
     transform="translate(220.97964,-338.01189)">
    <g
       id="g284374"
       transform="matrix(1.3497525,0,0,1.3497525,-921.46361,170.42139)">
      <g
         id="g284372">
        <g
           aria-label="kasulampua"
           transform="matrix(0.55247582,0,0.09764659,0.55247582,245.35612,57.913954)"
           id="text284356"
           style="font-weight:bold;font-size:15.3996px;line-height:1.25;font-family:Arial;-inkscape-font-specification:'Arial Bold';text-align:end;text-anchor:end;stroke-width:0.360927">
          <path
             d="m 478.13911,130.97151 q -0.40038,0 -0.72378,-0.15399 -0.30799,-0.154 -0.52358,-0.40039 -0.2156,-0.2618 -0.30799,-0.60059 -0.0924,-0.35419 -0.0154,-0.75458 l 0.16939,-0.95477 q 0.0616,-0.35419 -0.15399,-0.61599 -0.2156,-0.26179 -0.56979,-0.26179 h -1.32437 l -0.32339,1.86335 q -0.0616,0.40039 -0.27719,0.73918 -0.20019,0.33879 -0.50819,0.60059 -0.29259,0.26179 -0.66218,0.41579 -0.36959,0.15399 -0.75458,0.15399 l 1.57076,-9.17816 q 0.0616,-0.38499 0.26179,-0.72378 0.2156,-0.35419 0.50819,-0.61599 0.30799,-0.26179 0.66218,-0.41578 0.36959,-0.154 0.76998,-0.154 l -1.13957,6.68343 h 1.26277 q 0.35419,0 0.64678,-0.2464 0.29259,-0.26179 0.35419,-0.61598 l 0.1078,-0.58519 q 0.0616,-0.38499 0.26179,-0.72378 0.2156,-0.35419 0.50819,-0.61598 0.30799,-0.2618 0.67758,-0.41579 0.36959,-0.154 0.75458,-0.154 l -0.35419,2.07895 q -0.077,0.49279 -0.38499,0.90858 -0.29259,0.40038 -0.70838,0.66218 0.35419,0.26179 0.52359,0.69298 0.18479,0.41579 0.0924,0.92398 l -0.15399,0.97017 q -0.077,0.35419 0.1232,0.60059 0.21559,0.24639 0.56978,0.26179 h 0.78538 q -0.0462,0.26179 -0.26179,0.44659 -0.2002,0.18479 -0.46199,0.18479 z"
             style="font-weight:normal;font-family:Jogjakartype;-inkscape-font-specification:Jogjakartype;text-align:start;text-anchor:start"
             id="path2458" />
          <path
             d="m 487.47127,130.34013 q -0.0308,0.26179 -0.24639,0.44659 -0.2156,0.18479 -0.47739,0.18479 h -1.07797 q -0.29259,0 -0.56979,-0.12319 -0.26179,-0.1232 -0.35419,-0.43119 -0.0924,0.21559 -0.35419,0.38499 -0.24639,0.16939 -0.64678,0.16939 h -2.04815 q -0.40039,0 -0.72378,-0.15399 -0.32339,-0.154 -0.53899,-0.40039 -0.21559,-0.2618 -0.30799,-0.60059 -0.0924,-0.35419 -0.0154,-0.75458 l 0.66219,-3.8807 q 0.0616,-0.38499 0.26179,-0.73918 0.21559,-0.35419 0.52358,-0.60058 0.308,-0.2618 0.67759,-0.41579 0.36959,-0.154 0.76998,-0.154 h 4.05009 l -1.06257,6.19064 q -0.0616,0.35419 0.1386,0.61599 0.21559,0.26179 0.58518,0.26179 z m -2.41774,-6.43703 h -1.32436 q -0.35419,0 -0.64678,0.26179 -0.2926,0.26179 -0.3696,0.61598 l -0.78537,4.69688 q -0.077,0.35419 0.13859,0.61598 0.2156,0.2464 0.56979,0.2464 h 0.46198 q 0.3542,0 0.64679,-0.2464 0.30799,-0.26179 0.36959,-0.61598 z"
             style="font-weight:normal;font-family:Jogjakartype;-inkscape-font-specification:Jogjakartype;text-align:start;text-anchor:start"
             id="path2460" />
          <path
             d="m 490.13539,125.93584 q -0.0616,0.35419 0.1386,0.61599 0.21559,0.24639 0.56979,0.24639 h 0.87777 q 0.38499,0 0.70838,0.154 0.3234,0.15399 0.53899,0.41579 0.23099,0.24639 0.30799,0.60058 0.0924,0.35419 0.0308,0.73918 l -0.0616,0.35419 q -0.0616,0.40039 -0.27719,0.75458 -0.20019,0.33879 -0.50819,0.60059 -0.30799,0.24639 -0.69298,0.40039 -0.36959,0.15399 -0.75458,0.15399 h -2.78733 q -0.26179,0 -0.41579,-0.18479 -0.15399,-0.1848 -0.10779,-0.44659 h 2.60253 q 0.35419,-0.0154 0.63138,-0.26179 0.2926,-0.2464 0.35419,-0.60059 l 0.2002,-1.17037 q 0.0616,-0.35419 -0.154,-0.60058 -0.20019,-0.2618 -0.55438,-0.2772 h -0.87778 q -0.40039,0 -0.72378,-0.13859 -0.30799,-0.154 -0.52359,-0.41579 -0.21559,-0.26179 -0.30799,-0.60059 -0.0924,-0.35419 -0.0154,-0.75458 l 0.0616,-0.43119 q 0.1386,-0.78537 0.67758,-1.29356 0.53899,-0.52359 1.53996,-0.52359 h 2.47934 q 0.26179,0 0.41579,0.1848 0.15399,0.18479 0.10779,0.44659 h -2.27914 q -0.35419,0.0154 -0.64678,0.26179 -0.29259,0.24639 -0.35419,0.60058 z"
             style="font-weight:normal;font-family:Jogjakartype;-inkscape-font-specification:Jogjakartype;text-align:start;text-anchor:start"
             id="path2462" />
          <path
             d="m 499.76014,129.46235 q -0.0616,0.35419 0.13859,0.61599 0.2156,0.26179 0.58519,0.26179 h 0.75458 q -0.0308,0.26179 -0.24639,0.44659 -0.2156,0.18479 -0.47739,0.18479 h -1.07797 q -0.2926,0 -0.56979,-0.12319 -0.26179,-0.1232 -0.35419,-0.43119 -0.0924,0.21559 -0.35419,0.38499 -0.24639,0.16939 -0.64678,0.16939 h -2.04815 q -0.40039,0 -0.72378,-0.15399 -0.30799,-0.154 -0.53899,-0.40039 -0.21559,-0.2618 -0.30799,-0.60059 -0.0924,-0.35419 -0.0154,-0.75458 l 0.66218,-3.9115 q 0.0616,-0.38499 0.2618,-0.72378 0.21559,-0.35419 0.50818,-0.61598 0.30799,-0.2618 0.67759,-0.41579 0.36959,-0.154 0.75458,-0.154 l -1.04718,6.23684 q -0.077,0.35419 0.1386,0.61598 0.21559,0.2464 0.56978,0.2464 h 0.46199 q 0.49279,0 0.72378,-0.32339 0.2464,-0.33879 0.3234,-0.75458 l 0.70838,-4.1117 q 0.0616,-0.38499 0.26179,-0.72378 0.21559,-0.35419 0.50819,-0.61598 0.30799,-0.2618 0.66218,-0.41579 0.36959,-0.154 0.76998,-0.154 z"
             style="font-weight:normal;font-family:Jogjakartype;-inkscape-font-specification:Jogjakartype;text-align:start;text-anchor:start"
             id="path2464" />
          <path
             d="m 505.44258,130.34013 q -0.0462,0.26179 -0.26179,0.44659 -0.2002,0.18479 -0.46199,0.18479 h -1.66316 q -0.40039,0 -0.72378,-0.15399 -0.30799,-0.154 -0.52358,-0.40039 -0.2156,-0.2618 -0.308,-0.60059 -0.0924,-0.35419 -0.0154,-0.75458 l 1.23196,-7.23781 q 0.0616,-0.38499 0.2618,-0.72378 0.21559,-0.35419 0.50818,-0.61599 0.308,-0.26179 0.67759,-0.41578 0.36959,-0.154 0.75458,-0.154 l -1.61696,9.56315 q -0.077,0.35419 0.13859,0.61598 0.2156,0.2464 0.56979,0.2464 z"
             style="font-weight:normal;font-family:Jogjakartype;-inkscape-font-specification:Jogjakartype;text-align:start;text-anchor:start"
             id="path2466" />
          <path
             d="m 513.05,130.34013 q -0.0308,0.26179 -0.2464,0.44659 -0.21559,0.18479 -0.47739,0.18479 h -1.07797 q -0.29259,0 -0.56978,-0.12319 -0.2618,-0.1232 -0.35419,-0.43119 -0.0924,0.21559 -0.35419,0.38499 -0.2464,0.16939 -0.64679,0.16939 h -2.04814 q -0.40039,0 -0.72379,-0.15399 -0.32339,-0.154 -0.53898,-0.40039 -0.2156,-0.2618 -0.30799,-0.60059 -0.0924,-0.35419 -0.0154,-0.75458 l 0.66218,-3.8807 q 0.0616,-0.38499 0.26179,-0.73918 0.2156,-0.35419 0.52359,-0.60058 0.30799,-0.2618 0.67758,-0.41579 0.36959,-0.154 0.76998,-0.154 h 4.0501 l -1.06258,6.19064 q -0.0616,0.35419 0.1386,0.61599 0.21559,0.26179 0.58519,0.26179 z m -2.41774,-6.43703 h -1.32437 q -0.35419,0 -0.64678,0.26179 -0.29259,0.26179 -0.36959,0.61598 l -0.78538,4.69688 q -0.077,0.35419 0.1386,0.61598 0.21559,0.2464 0.56978,0.2464 h 0.46199 q 0.35419,0 0.64678,-0.2464 0.30799,-0.26179 0.36959,-0.61598 z"
             style="font-weight:normal;font-family:Jogjakartype;-inkscape-font-specification:Jogjakartype;text-align:start;text-anchor:start"
             id="path2468" />
          <path
             d="m 514.57455,123.27171 h 4.05009 q 0.53899,0 0.92398,0.2618 0.47739,-0.2618 1.01637,-0.2618 h 2.14055 q 0.38499,0 0.70838,0.154 0.32339,0.15399 0.53899,0.41579 0.21559,0.24639 0.30799,0.60058 0.0924,0.35419 0.0308,0.73918 l -0.73918,4.28109 q -0.0616,0.35419 0.13859,0.61599 0.2002,0.26179 0.55439,0.26179 h 0.80078 q -0.0462,0.26179 -0.2618,0.44659 -0.21559,0.16939 -0.47738,0.18479 h -0.98558 q -0.40039,0 -0.72378,-0.15399 -0.30799,-0.154 -0.52359,-0.41579 -0.21559,-0.2618 -0.30799,-0.60059 -0.0924,-0.35419 -0.0308,-0.75458 l 0.73918,-4.28109 q 0.0616,-0.35419 -0.15399,-0.60058 -0.2156,-0.26179 -0.56979,-0.26179 h -0.46199 q -0.35419,0 -0.64678,0.26179 -0.29259,0.24639 -0.35419,0.60058 l -0.73918,4.32729 q -0.077,0.40039 -0.29259,0.73918 -0.2002,0.33879 -0.50819,0.60059 -0.29259,0.26179 -0.66218,0.41579 -0.36959,0.15399 -0.75458,0.15399 l 1.06257,-6.23684 q 0.077,-0.35419 -0.1386,-0.60058 -0.21559,-0.26179 -0.56978,-0.26179 h -1.32437 l -0.89317,5.18966 q -0.0616,0.40039 -0.2772,0.73918 -0.20019,0.33879 -0.50818,0.60059 -0.2926,0.26179 -0.66219,0.41579 -0.36959,0.15399 -0.75458,0.15399 z"
             style="font-weight:normal;font-family:Jogjakartype;-inkscape-font-specification:Jogjakartype;text-align:start;text-anchor:start"
             id="path2470" />
          <path
             d="m 530.45152,123.27171 q 0.76998,0.0462 1.21657,0.58519 0.44659,0.52358 0.32339,1.32436 l -0.66218,3.8807 q -0.0616,0.40039 -0.27719,0.75458 -0.2002,0.33879 -0.50819,0.60059 -0.29259,0.24639 -0.67758,0.40039 -0.36959,0.15399 -0.75458,0.15399 h -2.18674 l -0.0154,0.077 q -0.0616,0.40039 -0.2772,0.73918 -0.20019,0.33879 -0.50818,0.60059 -0.2926,0.26179 -0.66219,0.41578 -0.36959,0.154 -0.75458,0.154 l 0.3388,-1.98655 1.30896,-7.6998 z m -0.27719,1.49376 q 0.0616,-0.35419 -0.15399,-0.60058 -0.2156,-0.26179 -0.56979,-0.26179 h -1.30897 l -1.10877,6.43703 h 1.33977 q 0.35419,0 0.64678,-0.2464 0.29259,-0.26179 0.36959,-0.61598 z"
             style="font-weight:normal;font-family:Jogjakartype;-inkscape-font-specification:Jogjakartype;text-align:start;text-anchor:start"
             id="path2472" />
          <path
             d="m 538.32073,129.46235 q -0.0616,0.35419 0.1386,0.61599 0.21559,0.26179 0.58518,0.26179 h 0.75458 q -0.0308,0.26179 -0.24639,0.44659 -0.2156,0.18479 -0.47739,0.18479 h -1.07797 q -0.29259,0 -0.56979,-0.12319 -0.26179,-0.1232 -0.35419,-0.43119 -0.0924,0.21559 -0.35419,0.38499 -0.24639,0.16939 -0.64678,0.16939 h -2.04815 q -0.40039,0 -0.72378,-0.15399 -0.30799,-0.154 -0.53899,-0.40039 -0.21559,-0.2618 -0.30799,-0.60059 -0.0924,-0.35419 -0.0154,-0.75458 l 0.66219,-3.9115 q 0.0616,-0.38499 0.26179,-0.72378 0.21559,-0.35419 0.50819,-0.61598 0.30799,-0.2618 0.67758,-0.41579 0.36959,-0.154 0.75458,-0.154 l -1.04717,6.23684 q -0.077,0.35419 0.13859,0.61598 0.2156,0.2464 0.56979,0.2464 h 0.46199 q 0.49278,0 0.72378,-0.32339 0.24639,-0.33879 0.32339,-0.75458 l 0.70838,-4.1117 q 0.0616,-0.38499 0.26179,-0.72378 0.2156,-0.35419 0.50819,-0.61598 0.30799,-0.2618 0.66218,-0.41579 0.36959,-0.154 0.76998,-0.154 z"
             style="font-weight:normal;font-family:Jogjakartype;-inkscape-font-specification:Jogjakartype;text-align:start;text-anchor:start"
             id="path2474" />
          <path
             d="m 547.40649,130.34013 q -0.0308,0.26179 -0.2464,0.44659 -0.21559,0.18479 -0.47738,0.18479 h -1.07798 q -0.29259,0 -0.56978,-0.12319 -0.26179,-0.1232 -0.35419,-0.43119 -0.0924,0.21559 -0.35419,0.38499 -0.2464,0.16939 -0.64679,0.16939 h -2.04814 q -0.40039,0 -0.72378,-0.15399 -0.3234,-0.154 -0.53899,-0.40039 -0.21559,-0.2618 -0.30799,-0.60059 -0.0924,-0.35419 -0.0154,-0.75458 l 0.66218,-3.8807 q 0.0616,-0.38499 0.26179,-0.73918 0.2156,-0.35419 0.52359,-0.60058 0.30799,-0.2618 0.67758,-0.41579 0.36959,-0.154 0.76998,-0.154 h 4.0501 l -1.06257,6.19064 q -0.0616,0.35419 0.13859,0.61599 0.2156,0.26179 0.58519,0.26179 z m -2.41774,-6.43703 h -1.32437 q -0.35419,0 -0.64678,0.26179 -0.29259,0.26179 -0.36959,0.61598 l -0.78538,4.69688 q -0.077,0.35419 0.1386,0.61598 0.21559,0.2464 0.56978,0.2464 h 0.46199 q 0.35419,0 0.64678,-0.2464 0.308,-0.26179 0.36959,-0.61598 z"
             style="font-weight:normal;font-family:Jogjakartype;-inkscape-font-specification:Jogjakartype;text-align:start;text-anchor:start"
             id="path2476" />
        </g>
        <g
           aria-label="Kalimantan     Sulawesi     Maluku     Papua"
           id="text284360"
           style="font-weight:bold;font-size:5.43596px;line-height:1.25;font-family:Arial;-inkscape-font-specification:'Arial Bold';stroke-width:0.127406"
           transform="matrix(0.55247582,0,0,0.55247582,245.35612,57.913954)">
          <path
             d="m 495.25432,137.74687 v -3.85409 h 0.48924 v 2.13089 l 1.98956,-2.13633 h 0.52729 l -1.54925,1.70146 1.63622,2.15807 h -0.53272 l -1.40248,-1.8754 -0.66862,0.6958 v 1.1796 z"
             style="font-weight:500;font-family:Raleway;-inkscape-font-specification:'Raleway Medium'"
             id="path2479" />
          <path
             d="m 499.45089,137.80123 q -0.20113,0 -0.37508,-0.0652 -0.17396,-0.0707 -0.30442,-0.19026 -0.12503,-0.11959 -0.20113,-0.27723 -0.0707,-0.16308 -0.0707,-0.35334 0,-0.19569 0.087,-0.35334 0.087,-0.16308 0.24462,-0.27723 0.16308,-0.11416 0.38051,-0.17939 0.22288,-0.0652 0.4838,-0.0652 0.20657,0 0.41857,0.038 0.21201,0.038 0.37509,0.10329 v -0.22831 q 0,-0.34791 -0.1957,-0.5436 -0.19569,-0.20113 -0.55447,-0.20113 -0.42944,0 -0.90237,0.33159 l -0.15764,-0.30985 q 0.54903,-0.36964 1.1035,-0.36964 0.5599,0 0.86975,0.29898 0.31529,0.29897 0.31529,0.84257 v 1.15786 q 0,0.16851 0.15221,0.17395 v 0.41313 q -0.0761,0.0109 -0.12503,0.0163 -0.0489,0.005 -0.10328,0.005 -0.14134,0 -0.22831,-0.0815 -0.0815,-0.087 -0.0978,-0.20657 l -0.0109,-0.20113 q -0.19026,0.25549 -0.4838,0.39139 -0.28811,0.13046 -0.6197,0.13046 z m 0.12502,-0.35877 q 0.25549,0 0.47293,-0.0924 0.22288,-0.0979 0.33703,-0.25549 0.10329,-0.10329 0.10329,-0.21201 V 136.464 q -0.34791,-0.1359 -0.72299,-0.1359 -0.35877,0 -0.58708,0.1522 -0.22288,0.15221 -0.22288,0.39683 0,0.11959 0.0435,0.22287 0.0489,0.10329 0.13047,0.17939 0.087,0.0761 0.20113,0.11959 0.11415,0.0435 0.24461,0.0435 z"
             style="font-weight:500;font-family:Raleway;-inkscape-font-specification:'Raleway Medium'"
             id="path2481" />
          <path
             d="m 501.74487,133.77862 h 0.47836 v 3.2344 q 0,0.15764 0.0815,0.25005 0.087,0.087 0.23918,0.087 0.0598,0 0.14134,-0.0163 0.0815,-0.0217 0.1522,-0.0489 l 0.0761,0.38595 q -0.11959,0.0489 -0.28267,0.0815 -0.16308,0.0326 -0.28811,0.0326 -0.27723,0 -0.44031,-0.15764 -0.15764,-0.15764 -0.15764,-0.44031 z"
             style="font-weight:500;font-family:Raleway;-inkscape-font-specification:'Raleway Medium'"
             id="path2483" />
          <path
             d="m 503.28868,137.74687 v -2.83757 h 0.47836 v 2.83757 z m 0,-3.37029 v -0.59796 h 0.47836 v 0.59796 z"
             style="font-weight:500;font-family:Raleway;-inkscape-font-specification:'Raleway Medium'"
             id="path2485" />
          <path
             d="m 508.81704,137.74687 h -0.47836 v -1.5873 q 0,-0.44575 -0.14677,-0.65775 -0.14134,-0.212 -0.42401,-0.212 -0.29354,0 -0.52728,0.212 -0.22831,0.20657 -0.32616,0.53816 v 1.70689 h -0.47837 v -1.5873 q 0,-0.45662 -0.14133,-0.66319 -0.14134,-0.20656 -0.42401,-0.20656 -0.2881,0 -0.52185,0.20656 -0.23374,0.20114 -0.33159,0.53816 v 1.71233 h -0.47837 v -2.83757 h 0.43488 v 0.60883 q 0.17395,-0.31529 0.45118,-0.4838 0.27724,-0.17395 0.62514,-0.17395 0.35877,0 0.56534,0.19569 0.212,0.19026 0.26093,0.49467 0.38051,-0.69036 1.08175,-0.69036 0.24462,0 0.4077,0.0924 0.16851,0.087 0.26636,0.25005 0.0978,0.15765 0.14134,0.37508 0.0435,0.21744 0.0435,0.47293 z"
             style="font-weight:500;font-family:Raleway;-inkscape-font-specification:'Raleway Medium'"
             id="path2487" />
          <path
             d="m 510.29019,137.80123 q -0.20113,0 -0.37508,-0.0652 -0.17395,-0.0707 -0.30442,-0.19026 -0.12502,-0.11959 -0.20113,-0.27723 -0.0707,-0.16308 -0.0707,-0.35334 0,-0.19569 0.087,-0.35334 0.087,-0.16308 0.24462,-0.27723 0.16308,-0.11416 0.38052,-0.17939 0.22287,-0.0652 0.4838,-0.0652 0.20656,0 0.41856,0.038 0.21201,0.038 0.37509,0.10329 v -0.22831 q 0,-0.34791 -0.1957,-0.5436 -0.19569,-0.20113 -0.55447,-0.20113 -0.42944,0 -0.90237,0.33159 l -0.15764,-0.30985 q 0.54903,-0.36964 1.1035,-0.36964 0.5599,0 0.86975,0.29898 0.31529,0.29897 0.31529,0.84257 v 1.15786 q 0,0.16851 0.15221,0.17395 v 0.41313 q -0.0761,0.0109 -0.12503,0.0163 -0.0489,0.005 -0.10328,0.005 -0.14134,0 -0.22831,-0.0815 -0.0815,-0.087 -0.0978,-0.20657 l -0.0109,-0.20113 q -0.19026,0.25549 -0.4838,0.39139 -0.28811,0.13046 -0.6197,0.13046 z m 0.12502,-0.35877 q 0.25549,0 0.47293,-0.0924 0.22288,-0.0979 0.33703,-0.25549 0.10329,-0.10329 0.10329,-0.21201 V 136.464 q -0.34791,-0.1359 -0.72299,-0.1359 -0.35877,0 -0.58708,0.1522 -0.22287,0.15221 -0.22287,0.39683 0,0.11959 0.0435,0.22287 0.0489,0.10329 0.13047,0.17939 0.087,0.0761 0.20113,0.11959 0.11415,0.0435 0.24461,0.0435 z"
             style="font-weight:500;font-family:Raleway;-inkscape-font-specification:'Raleway Medium'"
             id="path2489" />
          <path
             d="m 515.03578,137.74687 h -0.47836 v -1.5873 q 0,-0.45662 -0.14133,-0.66319 -0.1359,-0.20656 -0.41857,-0.20656 -0.14677,0 -0.29355,0.0598 -0.14677,0.0544 -0.27723,0.15221 -0.13046,0.0978 -0.22831,0.23375 -0.0978,0.1359 -0.14677,0.29897 v 1.71233 h -0.47837 v -2.83757 h 0.43488 v 0.60883 q 0.16852,-0.29898 0.4838,-0.47837 0.32072,-0.17938 0.6958,-0.17938 0.24462,0 0.4077,0.0924 0.16308,0.087 0.26093,0.25005 0.0978,0.15765 0.1359,0.37508 0.0435,0.21744 0.0435,0.47293 z"
             style="font-weight:500;font-family:Raleway;-inkscape-font-specification:'Raleway Medium'"
             id="path2491" />
          <path
             d="m 517.22105,137.60554 q -0.0435,0.0217 -0.11416,0.0544 -0.0707,0.0272 -0.16308,0.0598 -0.087,0.0272 -0.19569,0.0435 -0.10329,0.0217 -0.21744,0.0217 -0.26093,0 -0.45119,-0.14133 -0.19025,-0.14677 -0.19025,-0.45119 v -1.90802 h -0.38596 v -0.37508 h 0.38596 v -0.94586 h 0.47836 v 0.94586 h 0.63601 v 0.37508 h -0.63601 v 1.76125 q 0.0109,0.15765 0.10328,0.22831 0.0924,0.0707 0.21744,0.0707 0.14134,0 0.25549,-0.0435 0.11959,-0.0489 0.16308,-0.0761 z"
             style="font-weight:500;font-family:Raleway;-inkscape-font-specification:'Raleway Medium'"
             id="path2493" />
          <path
             d="m 518.39521,137.80123 q -0.20113,0 -0.37508,-0.0652 -0.17395,-0.0707 -0.30442,-0.19026 -0.12502,-0.11959 -0.20113,-0.27723 -0.0707,-0.16308 -0.0707,-0.35334 0,-0.19569 0.087,-0.35334 0.087,-0.16308 0.24462,-0.27723 0.16308,-0.11416 0.38052,-0.17939 0.22287,-0.0652 0.4838,-0.0652 0.20656,0 0.41857,0.038 0.212,0.038 0.37508,0.10329 v -0.22831 q 0,-0.34791 -0.1957,-0.5436 -0.19569,-0.20113 -0.55446,-0.20113 -0.42945,0 -0.90237,0.33159 l -0.15765,-0.30985 q 0.54904,-0.36964 1.1035,-0.36964 0.55991,0 0.86976,0.29898 0.31528,0.29897 0.31528,0.84257 v 1.15786 q 0,0.16851 0.15221,0.17395 v 0.41313 q -0.0761,0.0109 -0.12503,0.0163 -0.0489,0.005 -0.10328,0.005 -0.14134,0 -0.22831,-0.0815 -0.0815,-0.087 -0.0978,-0.20657 l -0.0109,-0.20113 q -0.19026,0.25549 -0.4838,0.39139 -0.28811,0.13046 -0.6197,0.13046 z m 0.12503,-0.35877 q 0.25549,0 0.47293,-0.0924 0.22287,-0.0979 0.33702,-0.25549 0.10329,-0.10329 0.10329,-0.21201 V 136.464 q -0.3479,-0.1359 -0.72298,-0.1359 -0.35878,0 -0.58709,0.1522 -0.22287,0.15221 -0.22287,0.39683 0,0.11959 0.0435,0.22287 0.0489,0.10329 0.13046,0.17939 0.087,0.0761 0.20113,0.11959 0.11415,0.0435 0.24462,0.0435 z"
             style="font-weight:500;font-family:Raleway;-inkscape-font-specification:'Raleway Medium'"
             id="path2495" />
          <path
             d="m 523.14081,137.74687 h -0.47837 v -1.5873 q 0,-0.45662 -0.14133,-0.66319 -0.1359,-0.20656 -0.41857,-0.20656 -0.14677,0 -0.29354,0.0598 -0.14677,0.0544 -0.27724,0.15221 -0.13046,0.0978 -0.22831,0.23375 -0.0978,0.1359 -0.14677,0.29897 v 1.71233 h -0.47836 v -2.83757 h 0.43487 v 0.60883 q 0.16852,-0.29898 0.4838,-0.47837 0.32073,-0.17938 0.69581,-0.17938 0.24462,0 0.40769,0.0924 0.16308,0.087 0.26093,0.25005 0.0978,0.15765 0.1359,0.37508 0.0435,0.21744 0.0435,0.47293 z"
             style="font-weight:500;font-family:Raleway;-inkscape-font-specification:'Raleway Medium'"
             id="path2497" />
          <path
             d="m 533.10493,134.6973 q -0.0652,-0.0761 -0.17395,-0.14677 -0.10872,-0.0707 -0.24462,-0.12503 -0.1359,-0.0598 -0.29898,-0.0924 -0.15764,-0.038 -0.33159,-0.038 -0.45119,0 -0.66319,0.16851 -0.20657,0.16852 -0.20657,0.46206 0,0.15764 0.0598,0.26092 0.0598,0.10329 0.18482,0.17939 0.13046,0.0707 0.32072,0.12503 0.19026,0.0544 0.45119,0.11415 0.29898,0.0652 0.53816,0.15221 0.24462,0.0815 0.41313,0.20657 0.17395,0.12502 0.26093,0.30441 0.0924,0.17939 0.0924,0.44031 0,0.27724 -0.10872,0.4838 -0.10872,0.20113 -0.29898,0.33703 -0.18482,0.13047 -0.44031,0.1957 -0.25549,0.0598 -0.55447,0.0598 -0.44575,0 -0.84801,-0.1359 -0.39682,-0.14133 -0.72298,-0.40769 l 0.23374,-0.41314 q 0.087,0.0924 0.22288,0.18483 0.14133,0.0924 0.31528,0.16851 0.17939,0.0707 0.38052,0.11959 0.20657,0.0435 0.42944,0.0435 0.41314,0 0.64145,-0.14677 0.22831,-0.14677 0.22831,-0.44031 0,-0.16308 -0.0761,-0.2718 -0.0707,-0.11416 -0.212,-0.1957 -0.14133,-0.0815 -0.35334,-0.14133 -0.20656,-0.0652 -0.47293,-0.13046 -0.29354,-0.0707 -0.51641,-0.15221 -0.22288,-0.0815 -0.37508,-0.19569 -0.14677,-0.11416 -0.22288,-0.27724 -0.0761,-0.16308 -0.0761,-0.39139 0,-0.27723 0.10328,-0.48923 0.10329,-0.21201 0.28811,-0.35878 0.18482,-0.14677 0.44031,-0.21744 0.25549,-0.0761 0.55447,-0.0761 0.39139,0 0.70667,0.11959 0.31529,0.11959 0.55991,0.32072 z"
             style="font-weight:500;font-family:Raleway;-inkscape-font-specification:'Raleway Medium'"
             id="path2499" />
          <path
             d="m 534.94772,137.80123 q -0.44575,0 -0.67406,-0.29898 -0.22831,-0.29897 -0.22831,-0.89149 v -1.70146 h 0.47836 v 1.60905 q 0,0.86975 0.60339,0.86975 0.29354,0 0.54903,-0.18482 0.26093,-0.19026 0.38596,-0.51642 v -1.77756 h 0.47836 v 2.25049 q 0,0.16851 0.15221,0.17395 v 0.41313 q -0.0815,0.0109 -0.13046,0.0109 -0.0435,0.005 -0.087,0.005 -0.14133,0 -0.23918,-0.0815 -0.0924,-0.087 -0.0978,-0.212 l -0.0109,-0.3316 q -0.19026,0.32073 -0.50011,0.49468 -0.30985,0.16851 -0.67949,0.16851 z"
             style="font-weight:500;font-family:Raleway;-inkscape-font-specification:'Raleway Medium'"
             id="path2501" />
          <path
             d="m 537.35041,133.77862 h 0.47836 v 3.2344 q 0,0.15764 0.0815,0.25005 0.087,0.087 0.23918,0.087 0.0598,0 0.14134,-0.0163 0.0815,-0.0217 0.15221,-0.0489 l 0.0761,0.38595 q -0.11959,0.0489 -0.28267,0.0815 -0.16308,0.0326 -0.28811,0.0326 -0.27723,0 -0.44031,-0.15764 -0.15764,-0.15764 -0.15764,-0.44031 z"
             style="font-weight:500;font-family:Raleway;-inkscape-font-specification:'Raleway Medium'"
             id="path2503" />
          <path
             d="m 539.62264,137.80123 q -0.20113,0 -0.37508,-0.0652 -0.17395,-0.0707 -0.30442,-0.19026 -0.12502,-0.11959 -0.20113,-0.27723 -0.0707,-0.16308 -0.0707,-0.35334 0,-0.19569 0.087,-0.35334 0.087,-0.16308 0.24462,-0.27723 0.16308,-0.11416 0.38052,-0.17939 0.22287,-0.0652 0.4838,-0.0652 0.20656,0 0.41857,0.038 0.212,0.038 0.37508,0.10329 v -0.22831 q 0,-0.34791 -0.1957,-0.5436 -0.19569,-0.20113 -0.55447,-0.20113 -0.42944,0 -0.90237,0.33159 l -0.15764,-0.30985 q 0.54903,-0.36964 1.1035,-0.36964 0.55991,0 0.86976,0.29898 0.31528,0.29897 0.31528,0.84257 v 1.15786 q 0,0.16851 0.15221,0.17395 v 0.41313 q -0.0761,0.0109 -0.12503,0.0163 -0.0489,0.005 -0.10328,0.005 -0.14134,0 -0.22831,-0.0815 -0.0815,-0.087 -0.0978,-0.20657 l -0.0109,-0.20113 q -0.19026,0.25549 -0.4838,0.39139 -0.28811,0.13046 -0.6197,0.13046 z m 0.12503,-0.35877 q 0.25549,0 0.47292,-0.0924 0.22288,-0.0979 0.33703,-0.25549 0.10329,-0.10329 0.10329,-0.21201 V 136.464 q -0.3479,-0.1359 -0.72299,-0.1359 -0.35877,0 -0.58708,0.1522 -0.22287,0.15221 -0.22287,0.39683 0,0.11959 0.0435,0.22287 0.0489,0.10329 0.13047,0.17939 0.087,0.0761 0.20113,0.11959 0.11415,0.0435 0.24462,0.0435 z"
             style="font-weight:500;font-family:Raleway;-inkscape-font-specification:'Raleway Medium'"
             id="path2505" />
          <path
             d="m 545.36845,134.9093 h 0.46206 l -1.20679,2.83757 h -0.39682 l -0.57078,-1.38617 -0.56534,1.38617 h -0.39682 l -1.20678,-2.83757 h 0.45662 l 0.97847,2.36464 0.47836,-1.1796 -0.48923,-1.1796 h 0.39682 l 0.3479,0.9078 0.3479,-0.9078 h 0.39683 l -0.4838,1.1796 0.47836,1.1796 z"
             style="font-weight:500;font-family:Raleway;-inkscape-font-specification:'Raleway Medium'"
             id="path2507" />
          <path
             d="m 547.43411,137.80123 q -0.32072,0 -0.58708,-0.11415 -0.26637,-0.11959 -0.45662,-0.32073 -0.19026,-0.20113 -0.29898,-0.46749 -0.10329,-0.2718 -0.10329,-0.57077 0,-0.29898 0.10329,-0.56534 0.10872,-0.26637 0.29898,-0.4675 0.19569,-0.20113 0.46205,-0.31528 0.26636,-0.11959 0.58709,-0.11959 0.32072,0 0.58164,0.11959 0.26637,0.11959 0.45119,0.32072 0.18482,0.19569 0.28267,0.46206 0.10328,0.26092 0.10328,0.54359 0,0.0598 -0.005,0.10872 0,0.0489 -0.005,0.0761 h -2.35377 q 0.0163,0.212 0.0978,0.38595 0.0815,0.17395 0.212,0.29898 0.13046,0.12502 0.29354,0.19569 0.16852,0.0707 0.35334,0.0707 0.13046,0 0.25549,-0.0326 0.12502,-0.038 0.23374,-0.0978 0.10872,-0.0598 0.19026,-0.14678 0.087,-0.087 0.13047,-0.19569 l 0.41313,0.11415 q -0.0707,0.15765 -0.1957,0.28811 -0.11959,0.13046 -0.28267,0.22831 -0.15764,0.0924 -0.35333,0.14677 -0.1957,0.0544 -0.4077,0.0544 z m 0.97304,-1.6634 q -0.0163,-0.20113 -0.10329,-0.36965 -0.0815,-0.17395 -0.212,-0.29354 -0.12503,-0.11959 -0.29354,-0.18482 -0.16852,-0.0707 -0.35877,-0.0707 -0.19026,0 -0.35878,0.0707 -0.16851,0.0652 -0.29898,0.19026 -0.12502,0.11959 -0.20656,0.2881 -0.0761,0.16852 -0.0924,0.36965 z"
             style="font-weight:500;font-family:Raleway;-inkscape-font-specification:'Raleway Medium'"
             id="path2509" />
          <path
             d="m 550.38583,137.80123 q -0.34246,0 -0.67405,-0.10328 -0.3316,-0.10872 -0.57078,-0.30985 l 0.20657,-0.32072 q 0.25005,0.19026 0.5001,0.2881 0.25006,0.0924 0.52729,0.0924 0.30985,0 0.48924,-0.11959 0.18482,-0.12502 0.18482,-0.3479 0,-0.10328 -0.0489,-0.17395 -0.0489,-0.0761 -0.14677,-0.13046 -0.0978,-0.0544 -0.25006,-0.0979 -0.1522,-0.0435 -0.35333,-0.0924 -0.2555,-0.0652 -0.44032,-0.12503 -0.18482,-0.0598 -0.30441,-0.14133 -0.11959,-0.0815 -0.17395,-0.1957 -0.0544,-0.11415 -0.0544,-0.28267 0,-0.212 0.0815,-0.37508 0.087,-0.16851 0.23374,-0.27723 0.14677,-0.11416 0.34247,-0.16852 0.20113,-0.0598 0.42944,-0.0598 0.32072,0 0.59796,0.10328 0.27723,0.10328 0.46749,0.2718 l -0.21744,0.2881 q -0.17939,-0.15764 -0.40226,-0.23374 -0.22288,-0.0815 -0.45662,-0.0815 -0.26093,0 -0.44575,0.11415 -0.17939,0.10872 -0.17939,0.35334 0,0.0978 0.0326,0.16308 0.038,0.0652 0.11959,0.11416 0.0815,0.0489 0.20657,0.087 0.13046,0.038 0.30985,0.0815 0.28267,0.0652 0.48923,0.1359 0.212,0.0652 0.3479,0.15764 0.14134,0.0924 0.20657,0.21744 0.0707,0.12503 0.0707,0.30441 0,0.39683 -0.30442,0.63058 -0.30441,0.23374 -0.82083,0.23374 z"
             style="font-weight:500;font-family:Raleway;-inkscape-font-specification:'Raleway Medium'"
             id="path2511" />
          <path
             d="m 552.07642,137.74687 v -2.83757 h 0.47836 v 2.83757 z m 0,-3.37029 v -0.59796 h 0.47836 v 0.59796 z"
             style="font-weight:500;font-family:Raleway;-inkscape-font-specification:'Raleway Medium'"
             id="path2513" />
          <path
             d="m 563.61697,137.74687 v -2.98434 l -1.28289,2.28854 h -0.27723 l -1.28833,-2.28854 v 2.98434 h -0.48923 v -3.85953 h 0.51641 l 1.39704,2.50598 1.40248,-2.50598 h 0.51098 v 3.85953 z"
             style="font-weight:500;font-family:Raleway;-inkscape-font-specification:'Raleway Medium'"
             id="path2515" />
          <path
             d="m 565.65546,137.80123 q -0.20113,0 -0.37509,-0.0652 -0.17395,-0.0707 -0.30441,-0.19026 -0.12503,-0.11959 -0.20113,-0.27723 -0.0707,-0.16308 -0.0707,-0.35334 0,-0.19569 0.087,-0.35334 0.087,-0.16308 0.24462,-0.27723 0.16308,-0.11416 0.38051,-0.17939 0.22288,-0.0652 0.4838,-0.0652 0.20657,0 0.41857,0.038 0.21201,0.038 0.37508,0.10329 v -0.22831 q 0,-0.34791 -0.19569,-0.5436 -0.19569,-0.20113 -0.55447,-0.20113 -0.42944,0 -0.90237,0.33159 l -0.15764,-0.30985 q 0.54903,-0.36964 1.1035,-0.36964 0.5599,0 0.86975,0.29898 0.31529,0.29897 0.31529,0.84257 v 1.15786 q 0,0.16851 0.15221,0.17395 v 0.41313 q -0.0761,0.0109 -0.12503,0.0163 -0.0489,0.005 -0.10328,0.005 -0.14134,0 -0.22831,-0.0815 -0.0815,-0.087 -0.0978,-0.20657 l -0.0109,-0.20113 q -0.19026,0.25549 -0.4838,0.39139 -0.28811,0.13046 -0.6197,0.13046 z m 0.12502,-0.35877 q 0.25549,0 0.47293,-0.0924 0.22288,-0.0979 0.33703,-0.25549 0.10328,-0.10329 0.10328,-0.21201 V 136.464 q -0.3479,-0.1359 -0.72298,-0.1359 -0.35877,0 -0.58708,0.1522 -0.22288,0.15221 -0.22288,0.39683 0,0.11959 0.0435,0.22287 0.0489,0.10329 0.13046,0.17939 0.087,0.0761 0.20113,0.11959 0.11416,0.0435 0.24462,0.0435 z"
             style="font-weight:500;font-family:Raleway;-inkscape-font-specification:'Raleway Medium'"
             id="path2517" />
          <path
             d="m 567.94944,133.77862 h 0.47836 v 3.2344 q 0,0.15764 0.0815,0.25005 0.087,0.087 0.23918,0.087 0.0598,0 0.14134,-0.0163 0.0815,-0.0217 0.15221,-0.0489 l 0.0761,0.38595 q -0.11959,0.0489 -0.28267,0.0815 -0.16308,0.0326 -0.28811,0.0326 -0.27723,0 -0.44031,-0.15764 -0.15764,-0.15764 -0.15764,-0.44031 z"
             style="font-weight:500;font-family:Raleway;-inkscape-font-specification:'Raleway Medium'"
             id="path2519" />
          <path
             d="m 570.36843,137.80123 q -0.44574,0 -0.67405,-0.29898 -0.22831,-0.29897 -0.22831,-0.89149 v -1.70146 h 0.47836 v 1.60905 q 0,0.86975 0.60339,0.86975 0.29354,0 0.54903,-0.18482 0.26093,-0.19026 0.38596,-0.51642 v -1.77756 h 0.47836 v 2.25049 q 0,0.16851 0.15221,0.17395 v 0.41313 q -0.0815,0.0109 -0.13047,0.0109 -0.0435,0.005 -0.087,0.005 -0.14134,0 -0.23918,-0.0815 -0.0924,-0.087 -0.0978,-0.212 l -0.0109,-0.3316 q -0.19026,0.32073 -0.50011,0.49468 -0.30985,0.16851 -0.6795,0.16851 z"
             style="font-weight:500;font-family:Raleway;-inkscape-font-specification:'Raleway Medium'"
             id="path2521" />
          <path
             d="m 574.76068,137.74687 -0.97847,-1.38617 -0.54359,0.51098 v 0.87519 h -0.47837 v -3.96825 h 0.47837 v 2.60926 l 1.45683,-1.47314 h 0.52729 l -1.13068,1.17416 1.18504,1.65797 z"
             style="font-weight:500;font-family:Raleway;-inkscape-font-specification:'Raleway Medium'"
             id="path2523" />
          <path
             d="m 576.56543,137.80123 q -0.44575,0 -0.67406,-0.29898 -0.22831,-0.29897 -0.22831,-0.89149 v -1.70146 h 0.47836 v 1.60905 q 0,0.86975 0.60339,0.86975 0.29354,0 0.54903,-0.18482 0.26093,-0.19026 0.38596,-0.51642 v -1.77756 h 0.47836 v 2.25049 q 0,0.16851 0.15221,0.17395 v 0.41313 q -0.0815,0.0109 -0.13046,0.0109 -0.0435,0.005 -0.087,0.005 -0.14133,0 -0.23918,-0.0815 -0.0924,-0.087 -0.0978,-0.212 l -0.0109,-0.3316 q -0.19026,0.32073 -0.50011,0.49468 -0.30985,0.16851 -0.67949,0.16851 z"
             style="font-weight:500;font-family:Raleway;-inkscape-font-specification:'Raleway Medium'"
             id="path2525" />
          <path
             d="m 585.90985,137.74687 v -3.85953 h 1.60904 q 0.25549,0 0.4675,0.10872 0.21743,0.10328 0.36964,0.28267 0.15764,0.17395 0.24462,0.39682 0.087,0.21744 0.087,0.44575 0,0.23919 -0.0815,0.46206 -0.0815,0.22287 -0.23374,0.39683 -0.14677,0.17395 -0.35877,0.27723 -0.20657,0.10328 -0.46206,0.10328 h -1.15242 v 1.38617 z m 0.48924,-1.82104 h 1.12524 q 0.15221,0 0.2718,-0.0598 0.12502,-0.0652 0.212,-0.17395 0.087,-0.11416 0.1359,-0.26093 0.0489,-0.14677 0.0489,-0.30985 0,-0.16851 -0.0598,-0.31528 -0.0544,-0.14677 -0.15221,-0.25549 -0.0924,-0.10872 -0.22288,-0.16852 -0.12502,-0.0598 -0.26636,-0.0598 h -1.09262 z"
             style="font-weight:500;font-family:Raleway;-inkscape-font-specification:'Raleway Medium'"
             id="path2527" />
          <path
             d="m 589.91614,137.80123 q -0.20113,0 -0.37508,-0.0652 -0.17395,-0.0707 -0.30442,-0.19026 -0.12502,-0.11959 -0.20113,-0.27723 -0.0707,-0.16308 -0.0707,-0.35334 0,-0.19569 0.087,-0.35334 0.087,-0.16308 0.24462,-0.27723 0.16308,-0.11416 0.38051,-0.17939 0.22288,-0.0652 0.48381,-0.0652 0.20656,0 0.41856,0.038 0.21201,0.038 0.37509,0.10329 v -0.22831 q 0,-0.34791 -0.1957,-0.5436 -0.19569,-0.20113 -0.55447,-0.20113 -0.42944,0 -0.90237,0.33159 l -0.15764,-0.30985 q 0.54903,-0.36964 1.1035,-0.36964 0.5599,0 0.86975,0.29898 0.31529,0.29897 0.31529,0.84257 v 1.15786 q 0,0.16851 0.15221,0.17395 v 0.41313 q -0.0761,0.0109 -0.12503,0.0163 -0.0489,0.005 -0.10328,0.005 -0.14134,0 -0.22831,-0.0815 -0.0815,-0.087 -0.0978,-0.20657 l -0.0109,-0.20113 q -0.19026,0.25549 -0.4838,0.39139 -0.28811,0.13046 -0.6197,0.13046 z m 0.12502,-0.35877 q 0.25549,0 0.47293,-0.0924 0.22288,-0.0979 0.33703,-0.25549 0.10329,-0.10329 0.10329,-0.21201 V 136.464 q -0.34791,-0.1359 -0.72299,-0.1359 -0.35877,0 -0.58708,0.1522 -0.22288,0.15221 -0.22288,0.39683 0,0.11959 0.0435,0.22287 0.0489,0.10329 0.13047,0.17939 0.087,0.0761 0.20113,0.11959 0.11415,0.0435 0.24461,0.0435 z"
             style="font-weight:500;font-family:Raleway;-inkscape-font-specification:'Raleway Medium'"
             id="path2529" />
          <path
             d="m 593.72675,137.80123 q -0.35334,0 -0.62513,-0.17395 -0.26637,-0.17395 -0.42401,-0.44031 v 1.71776 h -0.47836 v -3.99543 h 0.424 v 0.53272 q 0.16852,-0.26092 0.43488,-0.41856 0.2718,-0.16308 0.59795,-0.16308 0.29355,0 0.53816,0.11959 0.24462,0.11959 0.42401,0.32616 0.17939,0.20113 0.27723,0.46749 0.10329,0.26636 0.10329,0.55447 0,0.30441 -0.0924,0.57621 -0.0924,0.26636 -0.26092,0.46749 -0.16852,0.1957 -0.40226,0.31529 -0.23375,0.11415 -0.51642,0.11415 z m -0.14677,-0.41313 q 0.212,0 0.38052,-0.087 0.17395,-0.0924 0.29354,-0.23918 0.12503,-0.15221 0.19026,-0.34246 0.0652,-0.19026 0.0652,-0.39139 0,-0.21201 -0.0761,-0.40226 -0.0761,-0.1957 -0.20657,-0.33703 -0.13046,-0.14678 -0.30985,-0.22831 -0.17395,-0.087 -0.38052,-0.087 -0.13046,0 -0.2718,0.0544 -0.13589,0.0489 -0.26092,0.1359 -0.11959,0.0815 -0.212,0.20113 -0.087,0.11415 -0.11416,0.24462 v 0.80996 q 0.0598,0.14133 0.15221,0.26636 0.0924,0.11959 0.212,0.212 0.11959,0.087 0.25549,0.14133 0.1359,0.0489 0.28267,0.0489 z"
             style="font-weight:500;font-family:Raleway;-inkscape-font-specification:'Raleway Medium'"
             id="path2531" />
          <path
             d="m 596.46103,137.80123 q -0.44575,0 -0.67406,-0.29898 -0.22831,-0.29897 -0.22831,-0.89149 v -1.70146 h 0.47837 v 1.60905 q 0,0.86975 0.60339,0.86975 0.29354,0 0.54903,-0.18482 0.26093,-0.19026 0.38595,-0.51642 v -1.77756 h 0.47837 v 2.25049 q 0,0.16851 0.15221,0.17395 v 0.41313 q -0.0815,0.0109 -0.13047,0.0109 -0.0435,0.005 -0.087,0.005 -0.14134,0 -0.23918,-0.0815 -0.0924,-0.087 -0.0978,-0.212 l -0.0109,-0.3316 q -0.19026,0.32073 -0.50011,0.49468 -0.30985,0.16851 -0.6795,0.16851 z"
             style="font-weight:500;font-family:Raleway;-inkscape-font-specification:'Raleway Medium'"
             id="path2533" />
          <path
             d="m 599.58128,137.80123 q -0.20114,0 -0.37509,-0.0652 -0.17395,-0.0707 -0.30441,-0.19026 -0.12503,-0.11959 -0.20113,-0.27723 -0.0707,-0.16308 -0.0707,-0.35334 0,-0.19569 0.087,-0.35334 0.087,-0.16308 0.24462,-0.27723 0.16307,-0.11416 0.38051,-0.17939 0.22288,-0.0652 0.4838,-0.0652 0.20657,0 0.41857,0.038 0.212,0.038 0.37508,0.10329 v -0.22831 q 0,-0.34791 -0.19569,-0.5436 -0.1957,-0.20113 -0.55447,-0.20113 -0.42944,0 -0.90237,0.33159 l -0.15764,-0.30985 q 0.54903,-0.36964 1.1035,-0.36964 0.5599,0 0.86975,0.29898 0.31529,0.29897 0.31529,0.84257 v 1.15786 q 0,0.16851 0.15221,0.17395 v 0.41313 q -0.0761,0.0109 -0.12503,0.0163 -0.0489,0.005 -0.10329,0.005 -0.14133,0 -0.22831,-0.0815 -0.0815,-0.087 -0.0978,-0.20657 l -0.0109,-0.20113 q -0.19026,0.25549 -0.48381,0.39139 -0.2881,0.13046 -0.61969,0.13046 z m 0.12502,-0.35877 q 0.25549,0 0.47293,-0.0924 0.22288,-0.0979 0.33703,-0.25549 0.10328,-0.10329 0.10328,-0.21201 V 136.464 q -0.3479,-0.1359 -0.72298,-0.1359 -0.35877,0 -0.58708,0.1522 -0.22288,0.15221 -0.22288,0.39683 0,0.11959 0.0435,0.22287 0.0489,0.10329 0.13046,0.17939 0.087,0.0761 0.20113,0.11959 0.11416,0.0435 0.24462,0.0435 z"
             style="font-weight:500;font-family:Raleway;-inkscape-font-specification:'Raleway Medium'"
             id="path2535" />
        </g>
        <path
           id="rect284362"
           style="fill:#d5bf75;stroke-width:0.529562;stroke-linecap:round"
           d="m 536.61946,132.4561 0.33555,0.33556 c 0.11304,0.11304 0.11304,0.29504 10e-6,0.40807 l -0.33556,0.33556 c -0.11303,0.11304 -0.29503,0.11304 -0.40807,-1e-5 l -0.33556,-0.33555 c -0.11303,-0.11303 -0.11303,-0.29503 0,-0.40807 l 0.33556,-0.33556 c 0.11304,-0.11303 0.29504,-0.11303 0.40807,0 z" />
        <path
           id="rect284364"
           style="fill:#d5bf75;stroke-width:0.529562;stroke-linecap:round"
           d="m 552.97497,132.45609 0.33556,0.33556 c 0.11304,0.11304 0.11304,0.29504 0,0.40807 l -0.33556,0.33555 c -0.11304,0.11304 -0.29503,0.11304 -0.40806,1e-5 l -0.33556,-0.33556 c -0.11304,-0.11303 -0.11304,-0.29503 0,-0.40807 l 0.33556,-0.33556 c 0.11303,-0.11303 0.29503,-0.11303 0.40806,0 z" />
        <path
           id="rect284366"
           style="fill:#d5bf75;stroke-width:0.529562;stroke-linecap:round"
           d="m 567.01627,132.45609 0.33556,0.33556 c 0.11303,0.11304 0.11303,0.29504 0,0.40807 l -0.33555,0.33556 c -0.11304,0.11303 -0.29504,0.11303 -0.40808,-1e-5 l -0.33555,-0.33555 c -0.11303,-0.11303 -0.11303,-0.29503 0,-0.40807 l 0.33555,-0.33556 c 0.11303,-0.11303 0.29503,-0.11303 0.40807,0 z" />
        <g
           aria-label="2023"
           transform="matrix(0.55247582,0,0.09764659,0.55247582,245.35612,57.913954)"
           id="text284370"
           style="font-weight:bold;font-size:16.408px;line-height:1.25;font-family:Arial;-inkscape-font-specification:'Arial Bold';text-align:end;text-anchor:end;fill:#d5bf75;stroke-width:0.384563">
          <path
             d="m 552.85301,127.07786 q -0.21331,0.13126 -0.36098,0.32816 -0.14767,0.19689 -0.18049,0.4266 l -0.44301,2.67451 h 4.34812 q -0.0492,0.27893 -0.27894,0.47583 -0.2133,0.1969 -0.49224,0.1969 h -5.69357 l 0.44301,-2.62528 q 0.082,-0.44302 0.32816,-0.8204 0.22971,-0.3938 0.57428,-0.67273 0.31175,-0.24612 0.77118,-0.47583 0.47583,-0.24612 0.96807,-0.45943 0.49224,-0.2133 0.96807,-0.42661 0.47583,-0.2133 0.83681,-0.4102 0.2133,-0.13126 0.36098,-0.32816 0.16408,-0.2133 0.19689,-0.45942 l 0.42661,-2.49402 q 0.0656,-0.37738 -0.16408,-0.63991 -0.22971,-0.27894 -0.6071,-0.27894 h -3.42927 q 0.0492,-0.27893 0.26253,-0.47583 0.22971,-0.19689 0.50865,-0.19689 h 3.65898 q 0.4102,0 0.75477,0.16408 0.34457,0.16408 0.57428,0.44301 0.24612,0.26253 0.32816,0.63991 0.0984,0.37739 0.0328,0.78759 l -0.21331,1.31264 q -0.082,0.47583 -0.36097,0.88603 -0.26253,0.4102 -0.63992,0.68914 -0.32816,0.24612 -0.78758,0.47583 -0.45942,0.2133 -0.93526,0.44302 -0.47583,0.2133 -0.95166,0.4266 -0.45942,0.1969 -0.80399,0.3938 z"
             style="font-weight:normal;font-family:Jogjakartype;-inkscape-font-specification:Jogjakartype;text-align:start;text-anchor:start"
             id="path2541" />
          <path
             d="m 563.00957,120.41621 q 0.4102,0 0.75477,0.16408 0.34457,0.16408 0.57428,0.44301 0.22971,0.26253 0.32816,0.63991 0.0984,0.37739 0.0328,0.78759 l -1.11574,6.69446 q -0.0656,0.42661 -0.29534,0.804 -0.21331,0.36097 -0.54147,0.63991 -0.31175,0.26253 -0.72195,0.42661 -0.39379,0.16408 -0.80399,0.16408 h -2.28071 q -0.42661,0 -0.77118,-0.16408 -0.32816,-0.16408 -0.57428,-0.42661 -0.22971,-0.27894 -0.32816,-0.63991 -0.0984,-0.37739 -0.0164,-0.804 l 1.09934,-6.69446 q 0.0656,-0.4102 0.29534,-0.78759 0.22971,-0.37738 0.54147,-0.63991 0.32816,-0.27893 0.72195,-0.44301 0.39379,-0.16408 0.8204,-0.16408 z m -0.24612,1.59157 q 0.0656,-0.37738 -0.16408,-0.63991 -0.22971,-0.27894 -0.6071,-0.27894 h -0.47583 q -0.37738,0 -0.70554,0.27894 -0.31175,0.26253 -0.37739,0.63991 l -1.26341,7.56409 q -0.0656,0.37739 0.16408,0.65632 0.22971,0.27894 0.60709,0.27894 h 0.49224 q 0.37739,0 0.68914,-0.27894 0.32816,-0.27893 0.39379,-0.65632 z"
             style="font-weight:normal;font-family:Jogjakartype;-inkscape-font-specification:Jogjakartype;text-align:start;text-anchor:start"
             id="path2543" />
          <path
             d="m 567.21001,127.07786 q -0.21331,0.13126 -0.36098,0.32816 -0.14767,0.19689 -0.18049,0.4266 l -0.44301,2.67451 h 4.34812 q -0.0492,0.27893 -0.27894,0.47583 -0.2133,0.1969 -0.49224,0.1969 h -5.69357 l 0.44301,-2.62528 q 0.082,-0.44302 0.32816,-0.8204 0.22971,-0.3938 0.57428,-0.67273 0.31175,-0.24612 0.77118,-0.47583 0.47583,-0.24612 0.96807,-0.45943 0.49224,-0.2133 0.96807,-0.42661 0.47583,-0.2133 0.83681,-0.4102 0.2133,-0.13126 0.36098,-0.32816 0.16408,-0.2133 0.19689,-0.45942 l 0.42661,-2.49402 q 0.0656,-0.37738 -0.16408,-0.63991 -0.22971,-0.27894 -0.6071,-0.27894 h -3.42927 q 0.0492,-0.27893 0.26253,-0.47583 0.22971,-0.19689 0.50865,-0.19689 h 3.65898 q 0.4102,0 0.75477,0.16408 0.34457,0.16408 0.57428,0.44301 0.24612,0.26253 0.32816,0.63991 0.0985,0.37739 0.0328,0.78759 l -0.21331,1.31264 q -0.082,0.47583 -0.36097,0.88603 -0.26253,0.4102 -0.63992,0.68914 -0.32816,0.24612 -0.78758,0.47583 -0.45942,0.2133 -0.93526,0.44302 -0.47583,0.2133 -0.95166,0.4266 -0.45942,0.1969 -0.80399,0.3938 z"
             style="font-weight:normal;font-family:Jogjakartype;-inkscape-font-specification:Jogjakartype;text-align:start;text-anchor:start"
             id="path2545" />
          <path
             d="m 573.88808,126.02774 q 0.63991,-0.32816 1.34545,-0.60709 0.70555,-0.29535 1.19779,-0.57428 0.2133,-0.13127 0.36097,-0.32816 0.16408,-0.21331 0.1969,-0.44302 l 0.34457,-2.06741 q 0.0656,-0.37738 -0.16408,-0.63991 -0.22972,-0.27894 -0.6071,-0.27894 h -3.41286 q 0.0492,-0.27893 0.26252,-0.47583 0.22972,-0.19689 0.50865,-0.19689 h 3.65899 q 0.4102,0 0.75476,0.16408 0.34457,0.16408 0.57428,0.44301 0.22972,0.26253 0.32816,0.63991 0.0984,0.37739 0.0328,0.78759 l -0.14767,0.86962 q -0.082,0.47583 -0.36098,0.88603 -0.26253,0.4102 -0.63991,0.68914 -0.16408,0.13126 -0.36098,0.24612 -0.19689,0.0984 -0.4102,0.21331 0.18049,0.13126 0.32816,0.24612 0.16408,0.0984 0.29535,0.22971 0.27893,0.27893 0.4102,0.68913 0.14767,0.3938 0.0656,0.86963 l -0.27894,1.75565 q -0.082,0.42661 -0.31175,0.804 -0.2133,0.36097 -0.54146,0.63991 -0.31175,0.26253 -0.72195,0.42661 -0.3938,0.16408 -0.804,0.16408 h -3.65898 q -0.27894,0 -0.42661,-0.1969 -0.16408,-0.1969 -0.11485,-0.47583 h 3.41286 q 0.37738,0 0.68914,-0.26253 0.32816,-0.27894 0.39379,-0.65632 l 0.47583,-2.93703 q 0.0492,-0.24612 -0.0328,-0.44302 -0.082,-0.2133 -0.26252,-0.34457 -0.082,0.0492 -0.18049,0.0984 -0.082,0.0328 -0.16408,0.0656 z"
             style="font-weight:normal;font-family:Jogjakartype;-inkscape-font-specification:Jogjakartype;text-align:start;text-anchor:start"
             id="path2547" />
        </g>
      </g>
    </g>
  </g>
</svg>
