<?xml version="1.0" encoding="UTF-8" standalone="no"?>
<!-- Created with Inkscape (http://www.inkscape.org/) -->

<svg
   width="221.50372mm"
   height="51.344681mm"
   viewBox="0 0 221.50372 51.344681"
   version="1.1"
   id="svg5"
   inkscape:version="1.1.2 (b8e25be833, 2022-02-05)"
   sodipodi:docname="kasulampua-type.svg"
   xmlns:inkscape="http://www.inkscape.org/namespaces/inkscape"
   xmlns:sodipodi="http://sodipodi.sourceforge.net/DTD/sodipodi-0.dtd"
   xmlns="http://www.w3.org/2000/svg"
   xmlns:svg="http://www.w3.org/2000/svg">
  <sodipodi:namedview
     id="namedview7"
     pagecolor="#ffffff"
     bordercolor="#666666"
     borderopacity="1.0"
     inkscape:pageshadow="2"
     inkscape:pageopacity="0.0"
     inkscape:pagecheckerboard="0"
     inkscape:document-units="mm"
     showgrid="false"
     fit-margin-top="0"
     fit-margin-left="0"
     fit-margin-right="0"
     fit-margin-bottom="0"
     inkscape:zoom="0.22645918"
     inkscape:cx="704.32119"
     inkscape:cy="110.39517"
     inkscape:window-width="1920"
     inkscape:window-height="1009"
     inkscape:window-x="-8"
     inkscape:window-y="-8"
     inkscape:window-maximized="1"
     inkscape:current-layer="layer1" />
  <defs
     id="defs2" />
  <g
     inkscape:label="Layer 1"
     inkscape:groupmode="layer"
     id="layer1"
     transform="translate(293.48483,-316.49305)">
    <path
       id="path13763"
       style="font-weight:normal;font-size:45.3659px;line-height:1.25;font-family:Jogjakartype;-inkscape-font-specification:Jogjakartype;text-align:start;text-anchor:start;stroke-width:1.06326"
       d="m -287.95597,316.49305 c -0.78634,0 -1.51609,0.15128 -2.18849,0.45372 -0.64216,0.30244 -1.22027,0.71058 -1.73427,1.22473 -0.48376,0.51415 -0.87568,1.11875 -1.17615,1.81436 -0.27558,0.66537 -0.40696,1.37607 -0.39429,2.13217 l 0.15141,27.03815 c 0.7561,0 1.47062,-0.15129 2.14302,-0.45373 0.6724,-0.30243 1.24999,-0.71058 1.73375,-1.22473 0.514,-0.51414 0.90885,-1.10403 1.18442,-1.7694 0.30581,-0.66536 0.45001,-1.39078 0.43201,-2.17713 l -0.0176,-5.48958 h 3.90157 c 0.69561,0 1.30058,0.25738 1.81487,0.77153 0.51426,0.51414 0.77212,1.11875 0.77411,1.81436 l -0.002,2.81274 c -0.0122,0.78635 0.13381,1.52751 0.43821,2.22313 0.29906,0.66536 0.7058,1.25473 1.22008,1.76888 0.50894,0.4839 1.09298,0.87733 1.75132,1.17977 0.68858,0.30244 1.42593,0.45372 2.21227,0.45372 h 2.94865 c 0.51415,0 0.93602,-0.18174 1.26504,-0.54467 0.35927,-0.36292 0.53861,-0.80153 0.53847,-1.31568 h -2.31355 c -0.70096,-0.0302 -1.30594,-0.28711 -1.81488,-0.77101 -0.47869,-0.4839 -0.70419,-1.07379 -0.67593,-1.7694 l -0.0512,-2.85771 c 0.005,-0.99805 -0.24618,-1.90573 -0.75344,-2.72232 -0.48236,-0.84682 -1.11676,-1.52707 -1.90324,-2.04121 0.72571,-0.51415 1.30636,-1.16445 1.74201,-1.95079 0.46058,-0.81659 0.68081,-1.70903 0.66094,-2.67684 l -0.0387,-6.12417 c -0.75611,0 -1.47011,0.15128 -2.14251,0.45372 -0.67239,0.30244 -1.26572,0.71058 -1.77974,1.22473 -0.48376,0.51414 -0.8762,1.11926 -1.17667,1.81487 -0.27558,0.66537 -0.40696,1.37608 -0.39429,2.13217 l -0.0129,1.72393 c 0.002,0.69561 -0.23868,1.30021 -0.72244,1.81436 -0.4891,0.48391 -1.08154,0.72605 -1.77715,0.72605 h -3.72018 z m 85.37825,0 c -0.7561,0 -1.4701,0.15128 -2.1425,0.45372 -0.6724,0.30244 -1.26573,0.71058 -1.77974,1.22473 -0.48376,0.51415 -0.8762,1.11875 -1.17667,1.81436 -0.27558,0.66537 -0.40696,1.37607 -0.39429,2.13217 l 0.13952,21.32221 c -0.0122,0.78635 0.13381,1.52751 0.43822,2.22313 0.29906,0.66536 0.70579,1.25473 1.22008,1.76888 0.50894,0.4839 1.09246,0.87733 1.7508,1.17977 0.68858,0.30244 1.42592,0.45372 2.21227,0.45372 h 4.89944 c 0.51415,0 0.93601,-0.18174 1.26504,-0.54467 0.35926,-0.36292 0.53861,-0.80153 0.53847,-1.31568 h -4.21887 c -0.6956,0 -1.29818,-0.24164 -1.80712,-0.72554 -0.51428,-0.51415 -0.75691,-1.11926 -0.72864,-1.81487 z m -22.35729,9.79889 c -0.7561,0 -1.47062,0.15128 -2.14302,0.45372 -0.67239,0.30244 -1.26521,0.71058 -1.77922,1.22473 -0.48376,0.51414 -0.8762,1.11926 -1.17667,1.81487 -0.27558,0.66537 -0.40696,1.37608 -0.39429,2.13217 l 0.0858,11.52281 c -0.0122,0.78635 0.13432,1.52751 0.43873,2.22313 0.29905,0.66536 0.70527,1.25473 1.21957,1.76888 0.53918,0.4839 1.13794,0.87733 1.79627,1.17977 0.68858,0.30244 1.42644,0.45372 2.21278,0.45372 h 6.03323 c 0.78634,0 1.39236,-0.16651 1.81746,-0.49919 0.45534,-0.33269 0.73621,-0.71089 0.84284,-1.1343 0.28837,0.60488 0.71123,1.02826 1.26814,1.2702 0.58716,0.24196 1.1679,0.36329 1.74253,0.36329 h 3.17552 c 0.51415,0 0.95073,-0.18174 1.30999,-0.54467 0.35928,-0.36292 0.52391,-0.80153 0.49351,-1.31568 h -2.22312 c -0.72585,0 -1.34554,-0.25687 -1.85983,-0.77101 -0.48401,-0.51415 -0.72716,-1.11875 -0.72916,-1.81436 l -0.10903,-18.32808 c -0.78634,0 -1.51558,0.15128 -2.18798,0.45372 -0.64216,0.30244 -1.22025,0.71058 -1.73427,1.22473 -0.48375,0.51414 -0.8762,1.11926 -1.17667,1.81487 -0.27558,0.66537 -0.40695,1.37608 -0.39429,2.13217 l 0.0543,12.11244 c -0.007,0.81659 -0.19386,1.55776 -0.56017,2.22312 -0.3414,0.63512 -0.9959,0.9524 -1.9637,0.9524 h -1.36116 c -0.69562,0 -1.29767,-0.24164 -1.80661,-0.72554 -0.51427,-0.51415 -0.75742,-1.11926 -0.72915,-1.81487 z m 113.59617,0 c -0.7561,0 -1.47062,0.15128 -2.14303,0.45372 -0.67239,0.30244 -1.2652,0.71058 -1.77922,1.22473 -0.48375,0.51414 -0.8762,1.11926 -1.17667,1.81487 -0.27558,0.66537 -0.40695,1.37608 -0.39429,2.13217 l 0.0858,11.52281 c -0.0122,0.78635 0.13433,1.52751 0.43874,2.22313 0.29906,0.66536 0.70527,1.25473 1.21956,1.76888 0.53919,0.4839 1.13794,0.87733 1.79627,1.17977 0.68858,0.30244 1.42645,0.45372 2.21279,0.45372 h 6.03374 c 0.78634,0 1.39184,-0.16651 1.81694,-0.49919 0.45535,-0.33269 0.73622,-0.71089 0.84285,-1.1343 0.28838,0.60488 0.71123,1.02826 1.26813,1.2702 0.58716,0.24196 1.167901,0.36329 1.742533,0.36329 h 3.175519 c 0.514146,0 0.951246,-0.18174 1.310513,-0.54467 0.35928,-0.36292 0.523393,-0.80153 0.492993,-1.31568 h -2.222603 c -0.725861,0 -1.346065,-0.25687 -1.860352,-0.77101 -0.484007,-0.51415 -0.727154,-1.11875 -0.729155,-1.81436 l -0.109037,-18.32808 c -0.786351,0 -1.515581,0.15128 -2.187981,0.45372 -0.64215,0.30244 -1.22025,0.71058 -1.73426,1.22473 -0.48376,0.51414 -0.8762,1.11926 -1.17667,1.81487 -0.27558,0.66537 -0.40696,1.37608 -0.39429,2.13217 l 0.0543,12.11244 c -0.007,0.81659 -0.19387,1.55776 -0.56018,2.22312 -0.3414,0.63512 -0.99589,0.9524 -1.9637,0.9524 h -1.36116 c -0.6956,0 -1.29766,-0.24164 -1.80661,-0.72554 -0.51427,-0.51415 -0.75742,-1.11926 -0.72915,-1.81487 z m -154.04641,0.0909 c -0.78634,0 -1.51558,0.15076 -2.18798,0.4532 -0.67241,0.30244 -1.26574,0.7111 -1.77974,1.22525 -0.51935,0.4839 -0.92943,1.07379 -1.2299,1.7694 -0.27024,0.69561 -0.39869,1.42103 -0.38602,2.17713 l 0.0698,11.43237 c -0.0122,0.78635 0.1338,1.52751 0.43822,2.22313 0.29905,0.66536 0.70579,1.25473 1.22008,1.76888 0.50895,0.4839 1.1077,0.87733 1.79627,1.17977 0.68859,0.30244 1.42593,0.45372 2.21227,0.45372 h 6.03374 c 0.78635,0 1.39184,-0.16651 1.81694,-0.49919 0.45535,-0.33269 0.73622,-0.71089 0.84284,-1.1343 0.28838,0.60488 0.71124,1.02826 1.26814,1.2702 0.58717,0.24196 1.1679,0.36329 1.74253,0.36329 h 3.17552 c 0.51415,0 0.95124,-0.18174 1.31052,-0.54467 0.35928,-0.36292 0.52339,-0.80153 0.49299,-1.31568 h -2.2226 c -0.72586,0 -1.34607,-0.25687 -1.86036,-0.77101 -0.48401,-0.51415 -0.72715,-1.11875 -0.72915,-1.81436 l -0.093,-18.23713 z m 22.41052,0 c -1.96586,0 -3.38703,0.51373 -4.26383,1.54202 -0.88214,0.99806 -1.32282,2.2687 -1.3224,3.81114 l 0.0429,1.27021 c -0.0122,0.78634 0.13381,1.52699 0.43821,2.2226 0.29907,0.66537 0.70579,1.25525 1.22008,1.7694 0.51429,0.51415 1.10073,0.92229 1.75907,1.22473 0.68323,0.2722 1.41765,0.40825 2.204,0.40825 h 2.58589 c 0.70095,0.0302 1.29362,0.30285 1.77767,0.817 0.5089,0.48391 0.76436,1.07328 0.76636,1.76888 l 0.0196,3.44786 c 0.002,0.69561 -0.2416,1.2855 -0.7307,1.7694 -0.45886,0.48388 -1.03366,0.74074 -1.72393,0.77101 h -7.66671 c 1.4e-4,0.51415 0.18377,0.95276 0.55035,1.31568 0.36659,0.36293 0.8067,0.54467 1.32085,0.54467 h 8.21139 c 0.7561,0 1.47011,-0.15128 2.1425,-0.45372 0.70265,-0.30244 1.31361,-0.69587 1.83296,-1.17977 0.514,-0.51415 0.90885,-1.10352 1.18443,-1.76888 0.30046,-0.69562 0.44174,-1.43678 0.42374,-2.22313 l -0.003,-1.04334 c -0.0126,-0.7561 -0.17101,-1.48204 -0.47542,-2.17765 -0.27417,-0.6956 -0.68089,-1.28549 -1.22008,-1.7694 -0.51429,-0.51415 -1.11544,-0.92229 -1.80402,-1.22473 -0.68858,-0.30244 -1.41121,-0.45372 -2.16731,-0.45372 h -2.58589 c -0.69561,0 -1.29767,-0.24164 -1.80661,-0.72554 -0.48401,-0.51414 -0.72716,-1.11926 -0.72916,-1.81487 l -0.0196,-3.44785 c -0.002,-0.69562 0.2416,-1.28551 0.7307,-1.76941 0.48912,-0.48388 1.07915,-0.74074 1.7694,-0.77101 h 6.71381 c -1.4e-4,-0.51414 -0.18326,-0.95275 -0.54984,-1.31568 -0.36659,-0.36293 -0.80722,-0.54415 -1.32137,-0.54415 z m 52.94198,0 c -0.78634,0 -1.51558,0.15076 -2.18798,0.4532 -0.6724,0.30244 -1.26573,0.7111 -1.77973,1.22525 -0.51936,0.4839 -0.92892,1.07379 -1.22939,1.7694 -0.27023,0.69561 -0.3992,1.42103 -0.38654,2.17713 l 0.0698,11.43237 c -0.0122,0.78635 0.1338,1.52751 0.43821,2.22313 0.29906,0.66536 0.70579,1.25473 1.22008,1.76888 0.50894,0.4839 1.1077,0.87733 1.79628,1.17977 0.68858,0.30244 1.42593,0.45372 2.21227,0.45372 h 6.03374 c 0.78634,0 1.39236,-0.16651 1.81746,-0.49919 0.45534,-0.33269 0.73621,-0.71089 0.84284,-1.1343 0.28837,0.60488 0.71071,1.02826 1.26762,1.2702 0.58716,0.24196 1.16841,0.36329 1.74305,0.36329 h 3.17551 c 0.51415,0 0.95073,-0.18174 1.31,-0.54467 0.35928,-0.36292 0.52391,-0.80153 0.49351,-1.31568 h -2.22312 c -0.72585,0 -1.34555,-0.25687 -1.85983,-0.77101 -0.48401,-0.51415 -0.72716,-1.11875 -0.72916,-1.81436 l -0.093,-18.23713 z m 17.6475,0 0.16899,22.77329 c 0.7561,0 1.4701,-0.15129 2.1425,-0.45373 0.6724,-0.30243 1.2505,-0.71058 1.73426,-1.22473 0.51401,-0.51414 0.90886,-1.10403 1.18443,-1.7694 0.30581,-0.66536 0.45001,-1.39078 0.43201,-2.17713 l -0.0708,-15.28847 h 3.90106 c 0.69561,0 1.30059,0.25686 1.81487,0.77101 0.50894,0.4839 0.74916,1.07379 0.72089,1.76941 l 0.11731,18.37304 c 0.7561,0 1.47062,-0.15129 2.14302,-0.45373 0.67241,-0.30243 1.2505,-0.71058 1.73426,-1.22473 0.51401,-0.51414 0.90834,-1.10403 1.18391,-1.7694 0.30585,-0.66536 0.46529,-1.39078 0.47749,-2.17713 l -0.076,-12.74805 c -0.002,-0.69562 0.2416,-1.28551 0.73071,-1.76941 0.48376,-0.51415 1.07378,-0.77101 1.7694,-0.77101 h 1.36064 c 0.6956,0 1.30058,0.25686 1.81487,0.77101 0.50891,0.4839 0.76437,1.07379 0.76637,1.76941 l 0.0517,12.61163 c 0.018,0.78635 0.17929,1.52751 0.48369,2.22312 0.29907,0.66537 0.7058,1.25525 1.22008,1.7694 0.51429,0.51415 1.10074,0.92229 1.75907,1.22473 0.68859,0.30244 1.42593,0.45372 2.21227,0.45372 h 2.90318 c 0.5088,-0.0302 0.94538,-0.21198 1.31,-0.54467 0.35927,-0.36292 0.53912,-0.80153 0.53898,-1.31568 h -2.35903 c -0.6956,0 -1.28535,-0.25687 -1.7694,-0.77101 -0.48401,-0.51415 -0.72715,-1.11875 -0.72915,-1.81436 l -0.0517,-12.61215 c -0.0126,-0.7561 -0.17102,-1.48152 -0.47542,-2.17713 -0.30441,-0.69561 -0.71114,-1.2855 -1.22008,-1.7694 -0.51429,-0.51415 -1.11545,-0.92281 -1.80403,-1.22525 -0.68857,-0.30244 -1.41121,-0.4532 -2.16731,-0.4532 h -6.30555 c -1.05854,0 -2.01153,0.25686 -2.85823,0.77101 -0.84696,-0.51415 -1.79968,-0.77101 -2.85822,-0.77101 z m 34.70486,0 0.15296,22.68285 0.0367,5.85184 c 0.7561,0 1.4701,-0.15076 2.1425,-0.4532 0.6724,-0.30244 1.2505,-0.7111 1.73426,-1.22525 0.51401,-0.51415 0.90885,-1.10352 1.18442,-1.76889 0.30582,-0.66536 0.4495,-1.3913 0.4315,-2.17764 l 0.005,-0.22686 h 6.44198 c 0.7561,0 1.47063,-0.15128 2.14303,-0.45372 0.70264,-0.30244 1.29837,-0.69587 1.78748,-1.17977 0.514,-0.51415 0.90885,-1.10352 1.18443,-1.76888 0.30046,-0.69562 0.44174,-1.43678 0.42374,-2.22313 l -0.0698,-11.43237 c -0.036,-1.57268 -0.58346,-2.87276 -1.64228,-3.90106 -1.06416,-1.05854 -2.36041,-1.63319 -3.88865,-1.72392 z m 48.859035,0 c -0.786347,0 -1.515581,0.15076 -2.18798,0.4532 -0.672399,0.30244 -1.26573,0.7111 -1.779736,1.22525 -0.519353,0.4839 -0.929433,1.07379 -1.2299,1.7694 -0.270232,0.69561 -0.39869,1.42103 -0.386021,2.17713 l 0.06976,11.43237 c -0.01221,0.78635 0.133808,1.52751 0.438217,2.22313 0.299058,0.66536 0.705791,1.25473 1.220081,1.76888 0.508939,0.4839 1.107691,0.87733 1.796272,1.17977 0.68858,0.30244 1.425927,0.45372 2.212268,0.45372 h 6.033738 c 0.786342,0 1.391838,-0.16651 1.816944,-0.49919 0.455348,-0.33269 0.736741,-0.71089 0.84336,-1.1343 0.28838,0.60488 0.710716,1.02826 1.267624,1.2702 0.587153,0.24196 1.167889,0.36329 1.742527,0.36329 h 3.176035 c 0.514146,0 0.950729,-0.18174 1.309997,-0.54467 0.359288,-0.36292 0.523909,-0.80153 0.493511,-1.31568 h -2.223122 c -0.725852,0 -1.346057,-0.25687 -1.860351,-0.77101 -0.484005,-0.51415 -0.727155,-1.11875 -0.729155,-1.81436 l -0.09302,-18.23713 z m -174.103065,1.85983 h 3.90157 l 0.13539,16.42226 c 0.002,0.69561 -0.25442,1.30072 -0.76843,1.81487 -0.4891,0.4839 -1.08154,0.72554 -1.77715,0.72554 h -1.36064 c -0.69561,0 -1.29819,-0.24164 -1.80712,-0.72554 -0.51428,-0.51415 -0.75691,-1.11926 -0.72864,-1.81487 l -0.13229,-13.83637 c 0.0283,-0.69561 0.28467,-1.30073 0.76842,-1.81488 0.48376,-0.51415 1.07328,-0.77101 1.76889,-0.77101 z m 75.35302,0 h 3.90106 l 0.13539,16.42226 c 0.002,0.69561 -0.25391,1.30072 -0.76791,1.81487 -0.48912,0.4839 -1.08155,0.72554 -1.77716,0.72554 h -1.36115 c -0.69562,0 -1.29767,-0.24164 -1.80661,-0.72554 -0.51428,-0.51415 -0.75742,-1.11926 -0.72916,-1.81487 l -0.13177,-13.83637 c 0.0283,-0.69561 0.28415,-1.30073 0.76791,-1.81488 0.48376,-0.51415 1.07379,-0.77101 1.7694,-0.77101 z m 55.4824,0 h 3.8561 c 0.6956,0 1.30058,0.25686 1.81487,0.77101 0.50892,0.4839 0.76437,1.07379 0.76637,1.76941 l 0.13952,13.88184 c -0.0283,0.69561 -0.28414,1.30072 -0.76791,1.81487 -0.48911,0.4839 -1.08155,0.72554 -1.77715,0.72554 h -3.94705 z m 45.728476,0 h 3.901572 l 0.135393,16.42226 c 0.002,0.69561 -0.253908,1.30072 -0.767914,1.81487 -0.489106,0.4839 -1.08154,0.72554 -1.777153,0.72554 h -1.361157 c -0.695605,0 -1.297667,-0.24164 -1.806607,-0.72554 -0.514281,-0.51415 -0.757422,-1.11926 -0.729154,-1.81487 l -0.131776,-13.83637 c 0.02827,-0.69561 0.284152,-1.30073 0.767914,-1.81488 0.483766,-0.51415 1.073277,-0.77101 1.768882,-0.77101 z M -280.18693,357.335 v 6.98304 c 0,0.38609 0.10765,0.68695 0.32297,0.90227 0.22274,0.21532 0.52361,0.32298 0.90228,0.32298 0.17076,0 0.3674,-0.0221 0.59014,-0.0667 0.22275,-0.0445 0.41544,-0.10061 0.57877,-0.16743 l -0.15554,-0.79065 c -0.0965,0.0372 -0.20076,0.0706 -0.31212,0.10026 -0.11138,0.0223 -0.20772,0.0336 -0.28939,0.0336 -0.2079,0 -0.3711,-0.0595 -0.4899,-0.17829 -0.11137,-0.12622 -0.16743,-0.29679 -0.16743,-0.51211 v -6.62699 z m 3.16311,0 v 1.22525 h 0.97979 V 357.335 Z m 69.78489,0 v 6.98304 c 0,0.38609 0.10766,0.68695 0.32298,0.90227 0.22274,0.21532 0.52361,0.32298 0.90227,0.32298 0.17076,0 0.36739,-0.0221 0.59014,-0.0667 0.22274,-0.0445 0.41595,-0.10061 0.57929,-0.16743 l -0.15606,-0.79065 c -0.0965,0.0372 -0.20023,0.0706 -0.31161,0.10026 -0.11136,0.0223 -0.20771,0.0336 -0.28939,0.0336 -0.20789,0 -0.37161,-0.0595 -0.4904,-0.17829 -0.11138,-0.12622 -0.16692,-0.29679 -0.16692,-0.51211 v -6.62699 z m 30.17077,0 v 1.22525 h 0.9803 V 357.335 Z m 32.52049,0 v 6.98304 c 0,0.38609 0.10766,0.68695 0.32298,0.90227 0.22273,0.21532 0.5236,0.32298 0.90227,0.32298 0.17077,0 0.36741,-0.0221 0.59014,-0.0667 0.22274,-0.0445 0.41595,-0.10061 0.5793,-0.16743 l -0.15607,-0.79065 c -0.0965,0.0372 -0.20075,0.0706 -0.31212,0.10026 -0.11138,0.0223 -0.20772,0.0336 -0.28939,0.0336 -0.2079,0 -0.3711,-0.0595 -0.48989,-0.17829 -0.11138,-0.12622 -0.16692,-0.29679 -0.16692,-0.51211 v -6.62699 z m 9.85625,0 v 8.13026 h 0.9803 v -1.79318 l 1.11363,-1.04696 2.00453,2.84014 h 1.05833 l -2.42828,-3.3967 2.31666,-2.40553 h -1.08004 l -2.98483,3.0179 V 357.335 Z m -83.37269,0.16744 c -0.40836,0 -0.78688,0.0516 -1.13585,0.15554 -0.34897,0.0965 -0.64983,0.24498 -0.90227,0.44545 -0.25244,0.20048 -0.44907,0.4458 -0.59015,0.73536 -0.14106,0.28957 -0.21135,0.62386 -0.21135,1.00252 0,0.31183 0.0516,0.57875 0.15555,0.8015 0.10394,0.22275 0.25634,0.41201 0.45682,0.56792 0.20789,0.15592 0.46401,0.28964 0.76842,0.40101 0.30442,0.11138 0.65688,0.21561 1.05782,0.31213 0.36381,0.0891 0.68679,0.17807 0.96893,0.26717 0.28957,0.0817 0.53094,0.17801 0.72399,0.28938 0.19304,0.11138 0.33808,0.24509 0.4346,0.40102 0.10395,0.14849 0.15555,0.33433 0.15555,0.55707 0,0.40094 -0.15584,0.70128 -0.46768,0.90175 -0.31184,0.20047 -0.74985,0.30076 -1.31413,0.30076 -0.30441,0 -0.59739,-0.0294 -0.87953,-0.0889 -0.27472,-0.0668 -0.53478,-0.14842 -0.7798,-0.24494 -0.23758,-0.10396 -0.45291,-0.2195 -0.64596,-0.34572 -0.18561,-0.12622 -0.33801,-0.25205 -0.45681,-0.37827 l -0.47853,0.84646 c 0.4455,0.36381 0.93905,0.64204 1.48105,0.83509 0.54943,0.18562 1.12853,0.27854 1.73736,0.27854 0.40837,0 0.78689,-0.0408 1.13585,-0.12248 0.34897,-0.0891 0.64983,-0.22281 0.90227,-0.401 0.25987,-0.18563 0.46387,-0.41569 0.61237,-0.6904 0.14849,-0.28214 0.22272,-0.61249 0.22272,-0.99116 0,-0.35639 -0.0629,-0.65725 -0.18914,-0.90227 -0.11879,-0.24502 -0.29674,-0.45296 -0.53433,-0.62373 -0.23017,-0.17077 -0.51235,-0.31186 -0.84646,-0.42323 -0.32669,-0.11879 -0.69441,-0.22252 -1.10278,-0.31161 -0.35637,-0.0817 -0.66461,-0.15984 -0.92449,-0.23409 -0.25986,-0.0743 -0.47861,-0.1598 -0.6568,-0.25632 -0.17078,-0.10395 -0.29713,-0.22635 -0.37879,-0.36742 -0.0817,-0.14106 -0.12247,-0.31901 -0.12247,-0.53433 0,-0.40094 0.14108,-0.71654 0.42323,-0.94672 0.28956,-0.23016 0.74231,-0.34519 1.35857,-0.34519 0.23759,0 0.46423,0.026 0.67954,0.078 0.22275,0.0445 0.42675,0.10747 0.61237,0.18913 0.18562,0.0743 0.35277,0.15979 0.50126,0.25632 0.1485,0.0965 0.26747,0.19682 0.35657,0.30076 l 0.46767,-0.81339 c -0.33411,-0.27472 -0.71658,-0.49347 -1.14722,-0.65681 -0.43064,-0.16334 -0.91339,-0.24494 -1.44797,-0.24494 z m -70.34196,0.0553 -4.07624,4.37699 v -4.36563 h -1.00252 v 7.89616 h 1.00252 v -2.41691 l 1.36995,-1.42524 2.8732,3.84215 h 1.09141 l -3.35225,-4.42144 3.17397,-3.48609 z m 128.1436,0 v 7.90753 h 1.00252 v -6.11436 l 2.63963,4.6886 h 0.56793 l 2.62826,-4.6886 v 6.11436 h 1.00252 v -7.90753 h -1.04696 l -2.87321,5.13457 -2.86236,-5.13457 z m 52.51204,0 v 7.90753 h 1.002 v -2.84014 h 2.3611 c 0.34897,0 0.66457,-0.0703 0.94671,-0.21136 0.28956,-0.14106 0.53489,-0.33033 0.73536,-0.56792 0.20789,-0.2376 0.36715,-0.50897 0.47852,-0.81339 0.11137,-0.30441 0.16743,-0.6195 0.16743,-0.94619 0,-0.31184 -0.0595,-0.61665 -0.17828,-0.91364 -0.11879,-0.30442 -0.28594,-0.57528 -0.50126,-0.81287 -0.20789,-0.24502 -0.46059,-0.43823 -0.75758,-0.5793 -0.28956,-0.14849 -0.60859,-0.22272 -0.95756,-0.22272 z m -143.45791,0.15606 v 1.93787 h -0.79065 v 0.76843 h 0.79065 v 3.90932 c 0,0.41578 0.13029,0.72351 0.39016,0.92397 0.25986,0.19305 0.56758,0.28991 0.92397,0.28991 0.15592,0 0.3049,-0.0148 0.44597,-0.0444 0.14849,-0.0223 0.28169,-0.0523 0.40049,-0.0894 0.12622,-0.0445 0.23782,-0.0853 0.33435,-0.12247 0.0966,-0.0446 0.17476,-0.0814 0.23409,-0.1111 l -0.23409,-0.7798 c -0.0594,0.0371 -0.171,0.0892 -0.33435,0.15606 -0.15592,0.0594 -0.33044,0.0889 -0.52348,0.0889 -0.17078,0 -0.31923,-0.0482 -0.44545,-0.1447 -0.12621,-0.0965 -0.19649,-0.25235 -0.21136,-0.46767 v -3.60856 h 1.30276 v -0.76843 h -1.30276 v -1.93787 z m 144.45991,0.73484 h 2.23863 c 0.19304,0 0.37493,0.0413 0.5457,0.12299 0.1782,0.0817 0.3306,0.19671 0.45682,0.3452 0.13364,0.14849 0.23736,0.32301 0.31161,0.52348 0.0817,0.20046 0.12247,0.41579 0.12247,0.64596 0,0.22274 -0.0329,0.43411 -0.0997,0.63458 -0.0668,0.20046 -0.15975,0.37842 -0.27854,0.53434 -0.1188,0.1485 -0.26383,0.26747 -0.4346,0.35656 -0.16334,0.0817 -0.34867,0.12248 -0.55655,0.12248 h -2.30581 z m -122.04991,0.91829 c -0.27352,0 -0.54695,0.10512 -0.75654,0.31471 l -1.24437,1.24437 c -0.41918,0.41918 -0.41918,1.0939 0,1.51308 l 1.24437,1.24437 c 0.41918,0.41919 1.09389,0.41919 1.51308,0 l 1.24437,-1.24437 c 0.41919,-0.41919 0.41919,-1.0939 0,-1.51308 l -1.24437,-1.24437 c -0.20959,-0.20959 -0.48301,-0.31471 -0.75654,-0.31471 z m 60.65263,0 c -0.27353,0 -0.54747,0.10512 -0.75706,0.31471 l -1.24437,1.24437 c -0.41918,0.41918 -0.41918,1.0939 0,1.51308 l 1.24437,1.24437 c 0.41918,0.41918 1.09441,0.41918 1.5136,0 l 1.24437,-1.24437 c 0.41919,-0.41918 0.41919,-1.0939 0,-1.51308 l -1.24437,-1.24437 c -0.20959,-0.20959 -0.48301,-0.31471 -0.75654,-0.31471 z m 52.07021,0 c -0.27353,0 -0.54696,0.10512 -0.75655,0.31471 l -1.24437,1.24437 c -0.41918,0.41918 -0.41919,1.09389 0,1.51308 l 1.24437,1.24437 c 0.41919,0.41918 1.09391,0.41918 1.51309,0 l 1.24437,-1.24437 c 0.41918,-0.41918 0.41918,-1.09389 0,-1.51308 l -1.24437,-1.24437 c -0.20959,-0.20959 -0.48302,-0.31471 -0.75654,-0.31471 z m -168.13186,0.18449 c -0.75732,0 -1.51094,0.25269 -2.26084,0.75757 l 0.32298,0.63459 c 0.64594,-0.45291 1.2619,-0.67955 1.84846,-0.67955 0.49003,0 0.86907,0.13767 1.13637,0.41238 0.26729,0.2673 0.40049,0.63845 0.40049,1.11363 v 0.46767 c -0.22275,-0.0891 -0.47886,-0.15942 -0.76843,-0.21136 -0.28956,-0.052 -0.57517,-0.078 -0.85731,-0.078 -0.35639,0 -0.68674,0.0442 -0.99116,0.13333 -0.29698,0.0891 -0.55705,0.21201 -0.77979,0.36793 -0.21532,0.15592 -0.38247,0.34518 -0.50126,0.56793 -0.1188,0.21532 -0.17829,0.4567 -0.17829,0.72398 0,0.25987 0.0487,0.50073 0.14521,0.72347 0.10395,0.21532 0.2411,0.4051 0.41186,0.56844 0.1782,0.16335 0.38614,0.29313 0.62374,0.38965 0.23759,0.0891 0.49371,0.13384 0.76842,0.13384 0.45291,0 0.87618,-0.0895 1.26969,-0.26769 0.40095,-0.18562 0.7313,-0.45253 0.99116,-0.8015 l 0.0222,0.41186 c 0.0223,0.16335 0.0891,0.30444 0.2005,0.42323 0.1188,0.11137 0.27463,0.16692 0.46768,0.16692 0.0742,0 0.14505,-0.003 0.21187,-0.0109 0.0668,-0.007 0.15185,-0.0187 0.2558,-0.0336 v -0.84646 c -0.20789,-0.007 -0.31161,-0.12589 -0.31161,-0.35605 v -2.37247 c 0,-0.74248 -0.21531,-1.31815 -0.64596,-1.72651 -0.4232,-0.40837 -1.01704,-0.61236 -1.7818,-0.61236 z m 12.84108,0 c -0.47518,0 -0.9024,0.11897 -1.28106,0.35656 -0.37867,0.23017 -0.6864,0.56052 -0.92398,0.99116 v -1.24747 h -0.89142 v 5.8136 h 0.98031 v -3.50832 c 0.13364,-0.46032 0.36028,-0.82754 0.67954,-1.10226 0.31926,-0.28213 0.67567,-0.42323 1.06919,-0.42323 0.38609,0 0.67564,0.1411 0.86868,0.42323 0.19304,0.28215 0.28939,0.7349 0.28939,1.35858 v 3.252 h 0.97978 v -3.49695 c 0.13365,-0.45291 0.35685,-0.82063 0.6687,-1.10277 0.31926,-0.28956 0.6791,-0.43409 1.08003,-0.43409 0.38609,0 0.67564,0.14453 0.86868,0.43409 0.20048,0.28957 0.30076,0.73888 0.30076,1.34772 v 3.252 h 0.9803 l -5.1e-4,-3.47473 c 0,-0.34895 -0.0296,-0.67193 -0.0889,-0.96893 -0.0594,-0.29699 -0.15574,-0.55311 -0.28939,-0.76843 -0.13364,-0.22274 -0.31553,-0.39383 -0.5457,-0.51263 -0.22275,-0.12622 -0.50149,-0.18913 -0.83561,-0.18913 -0.95779,0 -1.69615,0.47143 -2.21588,1.41438 -0.0668,-0.41578 -0.24529,-0.7535 -0.53485,-1.01338 -0.28215,-0.26729 -0.66804,-0.401 -1.15807,-0.401 z m 9.36635,0 c -0.75733,0 -1.51094,0.25269 -2.26084,0.75757 l 0.32297,0.63459 c 0.64596,-0.45291 1.26192,-0.67955 1.84847,-0.67955 0.49004,0 0.86908,0.13767 1.13637,0.41238 0.26729,0.2673 0.40049,0.63845 0.40049,1.11363 v 0.46767 c -0.22275,-0.0891 -0.47887,-0.15942 -0.76843,-0.21136 -0.28957,-0.052 -0.57517,-0.078 -0.85731,-0.078 -0.35639,0 -0.68674,0.0442 -0.99116,0.13333 -0.29698,0.0891 -0.55705,0.21201 -0.77979,0.36793 -0.21533,0.15592 -0.38247,0.34518 -0.50127,0.56793 -0.1188,0.21532 -0.17776,0.4567 -0.17776,0.72398 0,0.25987 0.0482,0.50073 0.14469,0.72347 0.10395,0.21532 0.24109,0.4051 0.41186,0.56844 0.1782,0.16335 0.38614,0.29313 0.62374,0.38965 0.23758,0.0891 0.49371,0.13384 0.76843,0.13384 0.45291,0 0.87618,-0.0895 1.26969,-0.26769 0.40094,-0.18562 0.73128,-0.45253 0.99115,-0.8015 l 0.0222,0.41186 c 0.0223,0.16335 0.0891,0.30444 0.20051,0.42323 0.11879,0.11137 0.27462,0.16692 0.46767,0.16692 0.0742,0 0.14504,-0.003 0.21187,-0.0109 0.0668,-0.007 0.15185,-0.0187 0.2558,-0.0336 v -0.84646 c -0.20789,-0.007 -0.31161,-0.12589 -0.31161,-0.35605 v -2.37247 c 0,-0.74248 -0.21532,-1.31815 -0.64596,-1.72651 -0.4232,-0.40837 -1.01705,-0.61236 -1.7818,-0.61236 z m 7.30601,0 c -0.5123,0 -0.98768,0.12239 -1.42575,0.36741 -0.43063,0.24502 -0.76098,0.57194 -0.99115,0.98031 v -1.24747 h -0.8909 v 5.8136 h 0.97978 v -3.50832 c 0.0668,-0.22274 0.16711,-0.42674 0.30076,-0.61236 0.13364,-0.18562 0.28948,-0.3454 0.46767,-0.47904 0.1782,-0.13364 0.36797,-0.23737 0.56844,-0.31161 0.20047,-0.0817 0.40053,-0.12248 0.601,-0.12248 0.38609,0 0.67221,0.1411 0.85783,0.42323 0.19304,0.28215 0.28938,0.7349 0.28938,1.35858 v 3.252 h 0.98031 v -3.47473 c 0,-0.34895 -0.0301,-0.67193 -0.0894,-0.96893 -0.052,-0.29699 -0.14438,-0.55311 -0.27802,-0.76843 -0.13365,-0.22274 -0.31211,-0.39383 -0.53485,-0.51263 -0.22275,-0.12622 -0.50099,-0.18913 -0.8351,-0.18913 z m 9.29918,0 c -0.75733,0 -1.51095,0.25269 -2.26085,0.75757 l 0.32298,0.63459 c 0.64595,-0.45291 1.26243,-0.67955 1.84899,-0.67955 0.49004,0 0.86856,0.13767 1.13584,0.41238 0.2673,0.2673 0.40101,0.63845 0.40101,1.11363 v 0.46767 c -0.22275,-0.0891 -0.47887,-0.15942 -0.76843,-0.21136 -0.28957,-0.052 -0.57517,-0.078 -0.85731,-0.078 -0.35638,0 -0.68726,0.0442 -0.99167,0.13333 -0.29699,0.0891 -0.55654,0.21201 -0.77928,0.36793 -0.21532,0.15592 -0.38247,0.34518 -0.50126,0.56793 -0.1188,0.21532 -0.17829,0.4567 -0.17829,0.72398 0,0.25987 0.0482,0.50073 0.1447,0.72347 0.10394,0.21532 0.24161,0.4051 0.41238,0.56844 0.17819,0.16335 0.38615,0.29313 0.62373,0.38965 0.23759,0.0891 0.49371,0.13384 0.76843,0.13384 0.45291,0 0.87618,-0.0895 1.26969,-0.26769 0.40095,-0.18562 0.73129,-0.45253 0.99115,-0.8015 l 0.0222,0.41186 c 0.0223,0.16335 0.0891,0.30444 0.20051,0.42323 0.11879,0.11137 0.27463,0.16692 0.46767,0.16692 0.0743,0 0.14454,-0.003 0.21136,-0.0109 0.0668,-0.007 0.15236,-0.0187 0.25631,-0.0336 v -0.84646 c -0.2079,-0.007 -0.31161,-0.12589 -0.31161,-0.35605 v -2.37247 c 0,-0.74248 -0.21532,-1.31815 -0.64595,-1.72651 -0.42321,-0.40837 -1.01758,-0.61236 -1.78232,-0.61236 z m 7.30601,0 c -0.5123,0 -0.98717,0.12239 -1.42523,0.36741 -0.43064,0.24502 -0.76099,0.57194 -0.99116,0.98031 v -1.24747 h -0.89142 v 5.8136 h 0.98031 v -3.50832 c 0.0668,-0.22274 0.16711,-0.42674 0.30075,-0.61236 0.13365,-0.18562 0.28949,-0.3454 0.46768,-0.47904 0.17819,-0.13364 0.36745,-0.23737 0.56792,-0.31161 0.20046,-0.0817 0.40104,-0.12248 0.60151,-0.12248 0.38609,0 0.6717,0.1411 0.85731,0.42323 0.19305,0.28215 0.28991,0.7349 0.28991,1.35858 v 3.252 h 0.97978 v -3.47473 c 0,-0.34895 -0.0296,-0.67193 -0.0889,-0.96893 -0.052,-0.29699 -0.14489,-0.55311 -0.27854,-0.76843 -0.13364,-0.22274 -0.31158,-0.39383 -0.53433,-0.51263 -0.22275,-0.12622 -0.5015,-0.18913 -0.83561,-0.18913 z m 36.18487,0 c -0.75732,0 -1.51094,0.25269 -2.26084,0.75757 l 0.32298,0.63459 c 0.64595,-0.45291 1.26191,-0.67955 1.84846,-0.67955 0.49004,0 0.86908,0.13767 1.13637,0.41238 0.26729,0.2673 0.40049,0.63845 0.40049,1.11363 v 0.46767 c -0.22275,-0.0891 -0.47887,-0.15942 -0.76843,-0.21136 -0.28957,-0.052 -0.57516,-0.078 -0.85731,-0.078 -0.35639,0 -0.68674,0.0442 -0.99115,0.13333 -0.29699,0.0891 -0.55706,0.21201 -0.7798,0.36793 -0.21532,0.15592 -0.38247,0.34518 -0.50126,0.56793 -0.1188,0.21532 -0.17777,0.4567 -0.17777,0.72398 0,0.25987 0.0482,0.50073 0.14469,0.72347 0.10395,0.21532 0.2411,0.4051 0.41187,0.56844 0.17819,0.16335 0.38614,0.29313 0.62373,0.38965 0.23758,0.0891 0.4937,0.13384 0.76843,0.13384 0.4529,0 0.87617,-0.0895 1.26969,-0.26769 0.40094,-0.18562 0.73129,-0.45253 0.99115,-0.8015 l 0.0222,0.41186 c 0.0223,0.16335 0.0891,0.30444 0.20051,0.42323 0.11879,0.11137 0.27462,0.16692 0.46767,0.16692 0.0743,0 0.14505,-0.003 0.21187,-0.0109 0.0668,-0.007 0.15185,-0.0187 0.2558,-0.0336 v -0.84646 c -0.2079,-0.007 -0.31161,-0.12589 -0.31161,-0.35605 v -2.37247 c 0,-0.74248 -0.21532,-1.31815 -0.64595,-1.72651 -0.42321,-0.40837 -1.01705,-0.61236 -1.78181,-0.61236 z m 15.3355,0 c -0.43806,0 -0.8387,0.0816 -1.20251,0.24494 -0.36381,0.15592 -0.67943,0.37124 -0.94671,0.64596 -0.25987,0.27472 -0.46387,0.59427 -0.61237,0.95808 -0.14107,0.36381 -0.21187,0.74971 -0.21187,1.15807 0,0.40836 0.0708,0.79819 0.21187,1.16944 0.1485,0.36381 0.3525,0.68285 0.61237,0.95756 0.25986,0.27471 0.57153,0.49398 0.93534,0.65732 0.36381,0.15593 0.76498,0.2341 1.20303,0.2341 0.28957,0 0.5678,-0.0374 0.83509,-0.11162 0.26729,-0.0743 0.50867,-0.17454 0.72399,-0.30076 0.22273,-0.13365 0.41594,-0.28948 0.57929,-0.46767 0.17077,-0.17819 0.30449,-0.37483 0.40101,-0.59015 l -0.84646,-0.23409 c -0.0594,0.14849 -0.14837,0.28221 -0.26717,0.40101 -0.11137,0.11879 -0.24166,0.21909 -0.39016,0.30076 -0.14849,0.0816 -0.30775,0.1485 -0.47852,0.2005 -0.17077,0.0445 -0.34528,0.0667 -0.52348,0.0667 -0.25244,0 -0.49382,-0.0482 -0.72399,-0.14469 -0.22274,-0.0965 -0.42331,-0.23024 -0.60151,-0.40101 -0.17819,-0.17077 -0.32271,-0.37478 -0.43408,-0.61237 -0.11138,-0.23759 -0.17824,-0.50107 -0.20051,-0.79065 h 4.82193 c 0.007,-0.0371 0.0114,-0.0892 0.0114,-0.15606 0.007,-0.0668 0.0109,-0.14105 0.0109,-0.22272 0,-0.38609 -0.0703,-0.75725 -0.21136,-1.11363 -0.13364,-0.36381 -0.32684,-0.67942 -0.57929,-0.94671 -0.25244,-0.27472 -0.56068,-0.49398 -0.92449,-0.65733 -0.35639,-0.16334 -0.75359,-0.24494 -1.19166,-0.24494 z m 5.99188,0 c -0.31183,0 -0.6048,0.0408 -0.87953,0.12247 -0.26729,0.0743 -0.5013,0.18928 -0.70177,0.3452 -0.20046,0.14849 -0.36024,0.33775 -0.47904,0.56792 -0.11137,0.22275 -0.16691,0.47887 -0.16691,0.76843 0,0.23017 0.0369,0.42337 0.1111,0.57929 0.0742,0.15592 0.19322,0.28964 0.35657,0.40101 0.16334,0.11138 0.3713,0.20772 0.62374,0.28939 0.25244,0.0817 0.55331,0.16722 0.90227,0.25632 0.27472,0.0668 0.51557,0.12973 0.72347,0.18913 0.20788,0.0594 0.37898,0.12626 0.51263,0.2005 0.13365,0.0743 0.23393,0.16374 0.30075,0.26769 0.0668,0.0965 0.10026,0.21498 0.10026,0.35605 0,0.30441 -0.12635,0.54236 -0.37879,0.71313 -0.24502,0.16335 -0.57931,0.24495 -1.00253,0.24495 -0.37866,0 -0.73849,-0.0634 -1.08003,-0.18965 -0.34154,-0.13365 -0.68321,-0.33028 -1.02475,-0.59015 l -0.42323,0.65733 c 0.32669,0.27472 0.71653,0.48608 1.16944,0.63458 0.45291,0.14107 0.91304,0.21188 1.38079,0.21188 0.70536,0 1.26629,-0.15978 1.68207,-0.47904 0.41579,-0.31926 0.62374,-0.7499 0.62374,-1.29191 0,-0.24502 -0.0487,-0.45296 -0.14521,-0.62374 -0.0891,-0.17077 -0.23019,-0.31923 -0.42323,-0.44545 -0.18563,-0.12622 -0.42306,-0.23388 -0.71262,-0.32298 -0.28214,-0.0965 -0.61643,-0.18943 -1.00252,-0.27853 -0.24502,-0.0594 -0.4564,-0.11492 -0.63459,-0.16692 -0.17077,-0.052 -0.31186,-0.11146 -0.42323,-0.17828 -0.11135,-0.0668 -0.19295,-0.145 -0.24495,-0.2341 -0.0445,-0.0891 -0.0667,-0.20018 -0.0667,-0.33383 0,-0.3341 0.12241,-0.57548 0.36742,-0.72398 0.25244,-0.15592 0.55673,-0.2341 0.91312,-0.2341 0.31927,0 0.63093,0.0561 0.93535,0.16743 0.30441,0.10395 0.57922,0.26321 0.82423,0.47853 l 0.44546,-0.59015 c -0.25986,-0.23016 -0.5789,-0.41548 -0.95757,-0.55655 -0.37866,-0.14107 -0.78718,-0.21187 -1.22525,-0.21187 z m 32.00839,0 c -0.75732,0 -1.51094,0.25269 -2.26085,0.75757 l 0.32298,0.63459 c 0.64595,-0.45291 1.26191,-0.67955 1.84847,-0.67955 0.49003,0 0.86907,0.13767 1.13636,0.41238 0.26729,0.2673 0.40101,0.63845 0.40101,1.11363 v 0.46767 c -0.22274,-0.0891 -0.47938,-0.15942 -0.76895,-0.21136 -0.28956,-0.052 -0.57516,-0.078 -0.85731,-0.078 -0.35638,0 -0.68674,0.0442 -0.99115,0.13333 -0.297,0.0891 -0.55706,0.21201 -0.7798,0.36793 -0.21532,0.15592 -0.38246,0.34518 -0.50126,0.56793 -0.11879,0.21532 -0.17777,0.4567 -0.17777,0.72398 0,0.25987 0.0482,0.50073 0.1447,0.72347 0.10395,0.21532 0.24109,0.4051 0.41186,0.56844 0.17819,0.16335 0.38614,0.29313 0.62373,0.38965 0.23759,0.0891 0.49372,0.13384 0.76843,0.13384 0.45291,0 0.87617,-0.0895 1.26969,-0.26769 0.40093,-0.18562 0.73129,-0.45253 0.99115,-0.8015 l 0.0222,0.41186 c 0.0223,0.16335 0.0891,0.30444 0.2005,0.42323 0.1188,0.11137 0.27462,0.16692 0.46767,0.16692 0.0742,0 0.14505,-0.003 0.21188,-0.0109 0.0668,-0.007 0.15236,-0.0187 0.25631,-0.0336 v -0.84646 c -0.20789,-0.007 -0.31213,-0.12589 -0.31213,-0.35605 v -2.37247 c 0,-0.74248 -0.21532,-1.31815 -0.64595,-1.72651 -0.42321,-0.40837 -1.01704,-0.61236 -1.7818,-0.61236 z m 49.704972,0 c -0.757328,0 -1.510942,0.25269 -2.260842,0.75757 l 0.32298,0.63459 c 0.64595,-0.45291 1.262423,-0.67955 1.848978,-0.67955 0.49004,0 0.868561,0.13767 1.135848,0.41238 0.267293,0.2673 0.401008,0.63845 0.401008,1.11363 v 0.46767 c -0.222745,-0.0891 -0.478867,-0.15942 -0.768427,-0.21136 -0.289568,-0.052 -0.575691,-0.078 -0.857829,-0.078 -0.356389,0 -0.686734,0.0442 -0.991158,0.13333 -0.29698,0.0891 -0.55705,0.21201 -0.77979,0.36793 -0.21532,0.15592 -0.38196,0.34518 -0.50075,0.56793 -0.1188,0.21532 -0.17828,0.4567 -0.17828,0.72398 0,0.25987 0.0482,0.50073 0.14469,0.72347 0.10395,0.21532 0.2411,0.4051 0.41186,0.56844 0.1782,0.16335 0.38614,0.29313 0.62374,0.38965 0.23759,0.0891 0.493712,0.13384 0.768427,0.13384 0.452905,0 0.876175,-0.0895 1.269687,-0.26769 0.400942,-0.18562 0.73129,-0.45253 0.991156,-0.8015 l 0.02222,0.41186 c 0.02228,0.16335 0.08913,0.30444 0.200506,0.42323 0.118793,0.11137 0.27514,0.16692 0.468188,0.16692 0.07425,0 0.144529,-0.003 0.211357,-0.0109 0.06682,-0.007 0.152369,-0.0187 0.256313,-0.0336 v -0.84646 c -0.207891,-0.007 -0.312124,-0.12589 -0.312124,-0.35605 v -2.37247 c 0,-0.74248 -0.215315,-1.31815 -0.645956,-1.72651 -0.423207,-0.40837 -1.017051,-0.61236 -1.781802,-0.61236 z m 6.983034,0 c -0.445484,0 -0.854006,0.11159 -1.225246,0.33434 -0.363815,0.21532 -0.660744,0.50093 -0.890902,0.85731 v -1.0914 h -0.868683 v 8.18606 h 0.980303 v -3.51968 c 0.21532,0.36381 0.504867,0.66468 0.868682,0.90227 0.37124,0.23759 0.797928,0.35657 1.280541,0.35657 0.386085,0 0.738555,-0.0782 1.057818,-0.2341 0.319264,-0.16334 0.594071,-0.37866 0.824237,-0.64595 0.230167,-0.27472 0.408626,-0.59375 0.534853,-0.95757 0.12622,-0.37124 0.189135,-0.76502 0.189135,-1.1808 0,-0.39352 -0.07028,-0.77204 -0.211357,-1.13585 -0.133641,-0.36382 -0.322903,-0.68337 -0.567923,-0.95808 -0.24502,-0.28214 -0.53457,-0.50483 -0.868683,-0.66818 -0.334118,-0.16334 -0.701841,-0.24494 -1.102775,-0.24494 z m 12.818856,0 c -0.75732,0 -1.510943,0.25269 -2.260844,0.75757 l 0.322977,0.63459 c 0.645962,-0.45291 1.26192,-0.67955 1.848467,-0.67955 0.490035,0 0.869071,0.13767 1.136364,0.41238 0.267301,0.2673 0.40101,0.63845 0.40101,1.11363 v 0.46767 c -0.222747,-0.0891 -0.478856,-0.15942 -0.768429,-0.21136 -0.28956,-0.052 -0.575688,-0.078 -0.857829,-0.078 -0.356386,0 -0.686732,0.0442 -0.991153,0.13333 -0.296987,0.0891 -0.557051,0.21201 -0.779796,0.36793 -0.215315,0.15592 -0.381945,0.34518 -0.500745,0.56793 -0.118796,0.21532 -0.178285,0.4567 -0.178285,0.72398 0,0.25987 0.04817,0.50073 0.144693,0.72347 0.103947,0.21532 0.241088,0.4051 0.411864,0.56844 0.178186,0.16335 0.386141,0.29313 0.623734,0.38965 0.237593,0.0891 0.493707,0.13384 0.768427,0.13384 0.452913,0 0.876183,-0.0895 1.26969,-0.26769 0.400942,-0.18562 0.731295,-0.45253 0.991156,-0.8015 l 0.02222,0.41186 c 0.02228,0.16335 0.08914,0.30444 0.200504,0.42323 0.118795,0.11137 0.274627,0.16692 0.467672,0.16692 0.07425,0 0.145061,-0.003 0.211873,-0.0109 0.06683,-0.007 0.152369,-0.0187 0.256316,-0.0336 v -0.84646 c -0.207894,-0.007 -0.312127,-0.12589 -0.312127,-0.35605 v -2.37247 c 0,-0.74248 -0.215315,-1.31815 -0.645954,-1.72651 -0.423206,-0.40837 -1.01705,-0.61236 -1.781804,-0.61236 z m -197.962592,0.10025 v 5.8136 h 0.97979 v -5.8136 z m 63.01372,0 v 3.48609 c 0,0.80929 0.15583,1.41788 0.46768,1.82624 0.31183,0.40837 0.77247,0.61289 1.38131,0.61289 0.50488,0 0.96894,-0.11555 1.39216,-0.34572 0.42321,-0.23759 0.76436,-0.57531 1.02423,-1.01337 l 0.0222,0.67954 c 0.007,0.17077 0.0743,0.31529 0.2005,0.43408 0.13365,0.11138 0.29737,0.16744 0.49041,0.16744 0.0595,0 0.11844,-0.004 0.17777,-0.0114 0.0668,0 0.15631,-0.007 0.26768,-0.0222 v -0.84646 c -0.20788,-0.007 -0.31212,-0.1264 -0.31212,-0.35657 v -4.61057 h -0.97979 v 3.64164 c -0.17076,0.44548 -0.43425,0.79846 -0.79065,1.05833 -0.34896,0.25244 -0.72405,0.37879 -1.12499,0.37879 -0.82415,0 -1.2361,-0.59437 -1.2361,-1.78232 v -3.29644 z m 15.24662,0 2.47272,5.8136 h 0.81287 l 1.15807,-2.84014 1.16943,2.84014 h 0.81339 l 2.4722,-5.8136 h -0.94671 l -1.99368,4.84466 -0.97978,-2.4169 0.99115,-2.41639 h -0.81287 l -0.71313,1.85983 -0.71262,-1.85983 h -0.81287 l 1.00252,2.41639 -0.9803,2.4169 -2.00453,-4.84466 z m 21.69532,0 v 5.8136 h 0.9803 v -5.8136 z m 35.62779,0 v 3.48609 c 0,0.80929 0.15583,1.41788 0.46768,1.82624 0.31183,0.40837 0.77196,0.61289 1.38079,0.61289 0.50488,0 0.96895,-0.11555 1.39216,-0.34572 0.42321,-0.23759 0.76488,-0.57531 1.02475,-1.01337 l 0.0222,0.67954 c 0.007,0.17077 0.0743,0.31529 0.2005,0.43408 0.13365,0.11138 0.29685,0.16744 0.48989,0.16744 0.0595,0 0.11896,-0.004 0.17829,-0.0114 0.0668,0 0.15631,-0.007 0.26768,-0.0222 v -0.84646 c -0.20789,-0.007 -0.31212,-0.1264 -0.31212,-0.35657 v -4.61057 h -0.97979 v 3.64164 c -0.17077,0.44548 -0.43478,0.79846 -0.79116,1.05833 -0.34896,0.25244 -0.72354,0.37879 -1.12448,0.37879 -0.82415,0 -1.23662,-0.59437 -1.23662,-1.78232 v -3.29644 z m 12.69639,0 v 3.48609 c 0,0.80929 0.15583,1.41788 0.46767,1.82624 0.31184,0.40837 0.77196,0.61289 1.38079,0.61289 0.50489,0 0.96896,-0.11555 1.39217,-0.34572 0.42321,-0.23759 0.76487,-0.57531 1.02474,-1.01337 l 0.0222,0.67954 c 0.007,0.17077 0.0743,0.31529 0.20051,0.43408 0.13364,0.11138 0.29684,0.16744 0.48989,0.16744 0.0594,0 0.11888,-0.004 0.17828,-0.0114 0.0668,0 0.1558,-0.007 0.26717,-0.0222 v -0.84646 c -0.20789,-0.007 -0.31161,-0.1264 -0.31161,-0.35657 v -4.61057 h -0.9803 v 3.64164 c -0.17077,0.44548 -0.43426,0.79846 -0.79065,1.05833 -0.34897,0.25244 -0.72355,0.37879 -1.12448,0.37879 -0.82415,0 -1.23662,-0.59437 -1.23662,-1.78232 v -3.29644 z m 40.761851,0 v 3.48609 c 0,0.80929 0.155832,1.41788 0.46767,1.82624 0.31184,0.40837 0.772485,0.61289 1.381313,0.61289 0.504885,0 0.968433,-0.11555 1.391644,-0.34572 0.423207,-0.23759 0.764871,-0.57531 1.024745,-1.01337 l 0.02222,0.67954 c 0.0074,0.17077 0.07428,0.31529 0.200506,0.43408 0.133646,0.11138 0.297368,0.16744 0.490408,0.16744 0.05939,0 0.118367,-0.004 0.177768,-0.0114 0.06683,0 0.156311,-0.007 0.267684,-0.0222 v -0.84646 c -0.207893,-0.007 -0.312126,-0.1264 -0.312126,-0.35657 v -4.61057 h -0.979786 v 3.64164 c -0.170773,0.44548 -0.434269,0.79846 -0.790649,1.05833 -0.348967,0.25244 -0.724049,0.37879 -1.124995,0.37879 -0.82414,0 -1.236102,-0.59437 -1.236102,-1.78232 v -3.29644 z m -98.586231,0.63458 c 0.25987,0 0.50519,0.0487 0.73536,0.14521 0.23016,0.0891 0.43074,0.21494 0.60151,0.37828 0.17819,0.16334 0.32271,0.36392 0.43408,0.60151 0.1188,0.23017 0.18961,0.48286 0.21188,0.75758 h -3.94292 c 0.0223,-0.27472 0.0857,-0.52741 0.18966,-0.75758 0.11137,-0.23017 0.25246,-0.4268 0.42323,-0.59014 0.17818,-0.17077 0.38219,-0.30054 0.61236,-0.38965 0.23017,-0.0965 0.47497,-0.14521 0.73484,-0.14521 z m 94.44333,0.11163 c 0.282141,0 0.541695,0.0595 0.779282,0.17828 0.24502,0.11137 0.456909,0.26721 0.635104,0.46767 0.178191,0.19305 0.319283,0.42311 0.42323,0.6904 0.103944,0.25986 0.156062,0.53467 0.156062,0.82424 0,0.27472 -0.04475,0.54215 -0.133843,0.80201 -0.0891,0.25987 -0.218873,0.49388 -0.389641,0.70177 -0.163346,0.20047 -0.363918,0.36367 -0.601511,0.48989 -0.230175,0.1188 -0.490239,0.17829 -0.779799,0.17829 -0.200472,0 -0.393679,-0.0334 -0.579292,-0.10026 -0.185621,-0.0743 -0.359619,-0.17111 -0.522965,-0.2899 -0.16334,-0.12623 -0.30838,-0.27074 -0.434599,-0.43408 -0.126227,-0.17078 -0.229936,-0.35267 -0.31161,-0.54571 v -1.65933 c 0.03713,-0.17819 0.114784,-0.34534 0.233579,-0.50126 0.126219,-0.16334 0.271243,-0.301 0.434597,-0.41237 0.170767,-0.1188 0.348715,-0.2112 0.534334,-0.27802 0.19304,-0.0742 0.378872,-0.11162 0.557072,-0.11162 z m -192.11592,2.16059 c 0.51231,0 1.00586,0.0929 1.48105,0.27853 v 0.85731 c 0,0.1485 -0.0703,0.29354 -0.21136,0.4346 -0.15592,0.21532 -0.38598,0.38984 -0.6904,0.52349 -0.29699,0.12622 -0.61997,0.18913 -0.96893,0.18913 -0.17819,0 -0.34534,-0.0294 -0.50126,-0.0889 -0.15593,-0.0594 -0.29359,-0.14099 -0.41238,-0.24495 -0.11137,-0.10395 -0.20035,-0.22687 -0.26717,-0.36793 -0.0594,-0.14108 -0.0889,-0.29297 -0.0889,-0.45631 0,-0.33412 0.15188,-0.60549 0.4563,-0.81338 0.31184,-0.2079 0.713,-0.31161 1.20303,-0.31161 z m 22.20743,0 c 0.51231,0 1.00586,0.0929 1.48105,0.27853 v 0.85731 c 0,0.1485 -0.0703,0.29354 -0.21136,0.4346 -0.15591,0.21532 -0.38598,0.38984 -0.6904,0.52349 -0.29698,0.12622 -0.61996,0.18913 -0.96893,0.18913 -0.17819,0 -0.34534,-0.0294 -0.50126,-0.0889 -0.15592,-0.0594 -0.29358,-0.14099 -0.41238,-0.24495 -0.11137,-0.10395 -0.20034,-0.22687 -0.26717,-0.36793 -0.0593,-0.14108 -0.0889,-0.29297 -0.0889,-0.45631 0,-0.33412 0.1524,-0.60549 0.45682,-0.81338 0.31183,-0.2079 0.71247,-0.31161 1.20251,-0.31161 z m 16.6057,0 c 0.51231,0 1.00587,0.0929 1.48105,0.27853 v 0.85731 c 0,0.1485 -0.0703,0.29354 -0.21136,0.4346 -0.15591,0.21532 -0.3865,0.38984 -0.69091,0.52349 -0.29699,0.12622 -0.61997,0.18913 -0.96893,0.18913 -0.1782,0 -0.34534,-0.0294 -0.50126,-0.0889 -0.15592,-0.0594 -0.29306,-0.14099 -0.41186,-0.24495 -0.11138,-0.10395 -0.20034,-0.22687 -0.26717,-0.36793 -0.0593,-0.14108 -0.0894,-0.29297 -0.0894,-0.45631 0,-0.33412 0.1524,-0.60549 0.45682,-0.81338 0.31184,-0.2079 0.71298,-0.31161 1.20302,-0.31161 z m 43.49037,0 c 0.51231,0 1.00586,0.0929 1.48105,0.27853 v 0.85731 c 0,0.1485 -0.0703,0.29354 -0.21136,0.4346 -0.15591,0.21532 -0.38597,0.38984 -0.69039,0.52349 -0.29699,0.12622 -0.61997,0.18913 -0.96894,0.18913 -0.17819,0 -0.34533,-0.0294 -0.50126,-0.0889 -0.15592,-0.0594 -0.29307,-0.14099 -0.41186,-0.24495 -0.11137,-0.10395 -0.20086,-0.22687 -0.26768,-0.36793 -0.0594,-0.14108 -0.0889,-0.29297 -0.0889,-0.45631 0,-0.33412 0.15189,-0.60549 0.45631,-0.81338 0.31183,-0.2079 0.71298,-0.31161 1.20302,-0.31161 z m 53.33577,0 c 0.51231,0 1.00638,0.0929 1.48156,0.27853 v 0.85731 c 0,0.1485 -0.0708,0.29354 -0.21188,0.4346 -0.15591,0.21532 -0.38597,0.38984 -0.69039,0.52349 -0.29699,0.12622 -0.61997,0.18913 -0.96893,0.18913 -0.1782,0 -0.34534,-0.0294 -0.50127,-0.0889 -0.15592,-0.0594 -0.29358,-0.14099 -0.41238,-0.24495 -0.11137,-0.10395 -0.20034,-0.22687 -0.26716,-0.36793 -0.0593,-0.14108 -0.0889,-0.29297 -0.0889,-0.45631 0,-0.33412 0.1524,-0.60549 0.45682,-0.81338 0.31184,-0.2079 0.71248,-0.31161 1.20252,-0.31161 z m 49.70497,0 c 0.512308,0 1.006377,0.0929 1.481564,0.27853 v 0.85731 c 0,0.1485 -0.0708,0.29354 -0.211873,0.4346 -0.155914,0.21532 -0.385977,0.38984 -0.690396,0.52349 -0.296987,0.12622 -0.619966,0.18913 -0.968933,0.18913 -0.178195,0 -0.345337,-0.0294 -0.501261,-0.0889 -0.155914,-0.0594 -0.293061,-0.14099 -0.411861,-0.24495 -0.11137,-0.10395 -0.20087,-0.22687 -0.26768,-0.36793 -0.0593,-0.14108 -0.0889,-0.29297 -0.0889,-0.45631 0,-0.33412 0.1524,-0.60549 0.45682,-0.81338 0.311841,-0.2079 0.712478,-0.31161 1.20251,-0.31161 z m 19.801893,0 c 0.512313,0 1.006377,0.0929 1.481563,0.27853 v 0.85731 c 0,0.1485 -0.07079,0.29354 -0.211873,0.4346 -0.155921,0.21532 -0.38599,0.38984 -0.690398,0.52349 -0.297,0.12622 -0.619972,0.18913 -0.968933,0.18913 -0.178192,0 -0.34534,-0.0294 -0.501261,-0.0889 -0.155919,-0.0594 -0.293069,-0.14099 -0.411861,-0.24495 -0.111374,-0.10395 -0.200856,-0.22687 -0.267685,-0.36793 -0.0594,-0.14108 -0.08888,-0.29297 -0.08888,-0.45631 0,-0.33412 0.152405,-0.60549 0.456819,-0.81338 0.31184,-0.2079 0.712478,-0.31161 1.20251,-0.31161 z" />
  </g>
</svg>
