<?xml version="1.0" encoding="UTF-8" standalone="no"?>
<!-- Created with Inkscape (http://www.inkscape.org/) -->

<svg
   width="75.848778mm"
   height="11.729457mm"
   viewBox="0 0 75.848779 11.729457"
   version="1.1"
   id="svg5"
   inkscape:version="1.1.2 (b8e25be833, 2022-02-05)"
   sodipodi:docname="logo-bps.svg"
   xmlns:inkscape="http://www.inkscape.org/namespaces/inkscape"
   xmlns:sodipodi="http://sodipodi.sourceforge.net/DTD/sodipodi-0.dtd"
   xmlns="http://www.w3.org/2000/svg"
   xmlns:svg="http://www.w3.org/2000/svg">
  <sodipodi:namedview
     id="namedview7"
     pagecolor="#ffffff"
     bordercolor="#666666"
     borderopacity="1.0"
     inkscape:pageshadow="2"
     inkscape:pageopacity="0.0"
     inkscape:pagecheckerboard="0"
     inkscape:document-units="mm"
     showgrid="false"
     fit-margin-top="0"
     fit-margin-left="0"
     fit-margin-right="0"
     fit-margin-bottom="0"
     inkscape:zoom="1.8116734"
     inkscape:cx="171.94048"
     inkscape:cy="43.606093"
     inkscape:window-width="1920"
     inkscape:window-height="1009"
     inkscape:window-x="-8"
     inkscape:window-y="-8"
     inkscape:window-maximized="1"
     inkscape:current-layer="g284372" />
  <defs
     id="defs2" />
  <g
     inkscape:label="Layer 1"
     inkscape:groupmode="layer"
     id="layer1"
     transform="translate(218.71088,-339.08173)">
    <g
       id="g284374"
       transform="matrix(1.3497525,0,0,1.3497525,-921.46361,170.42139)">
      <g
         id="g284372">
        <g
           id="g284346"
           transform="matrix(0.76886483,0,0,0.76886483,-44.87309,-193.16076)"
           inkscape:export-filename="D:\0-Ryan WJ\7400\2022\3 - Humas\2022xxxx Thumbnail Rilis\20221107.png"
           inkscape:export-xdpi="180"
           inkscape:export-ydpi="180"
           style="fill:#000000">
          <g
             id="g284344"
             transform="matrix(0.80724217,0,0,0.80724217,976.65391,452.15298)"
             inkscape:export-filename="D:\0-Ryan WJ\7400\2022\9 - Regsosek\Testimoni HSN Regsosek\header.png"
             inkscape:export-xdpi="300"
             inkscape:export-ydpi="300"
             style="fill:#000000">
            <g
               style="fill:#000000;stroke-width:1.13337"
               transform="matrix(0.85913878,0,0,0.85913878,-292.31616,-287.33257)"
               id="g284342"
               inkscape:export-filename="D:\0-Ryan WJ\7400\2022\3 - Humas\Iklan Media\HUTRI4.png"
               inkscape:export-xdpi="300"
               inkscape:export-ydpi="300">
              <path
                 inkscape:export-ydpi="300"
                 inkscape:export-xdpi="300"
                 inkscape:connector-curvature="0"
                 style="fill:#0093dd;fill-opacity:1;fill-rule:evenodd;stroke:none;stroke-width:0.373621"
                 d="m -3.0383945,279.06871 c -0.2308,-3e-5 -0.3626,0.099 -0.42851,0.29678 l -1.18727,4.8164 c 0,0.19809 0.0662,0.29675 0.26401,0.29696 l 0.5769,-2e-5 c -2.70392,1.93736 -4.11886,4.23616 -3.44685,6.10322 1.05549,2.93608 6.89379003,3.72769 13.02865,1.74831 2.308791,-0.72575 4.3207605,-1.74826 5.9039605,-2.90287 -1.418291,0.89072 -3.0676805,1.6824 -4.9477115,2.27621 -6.03585897,1.94638 -11.807999,1.15477 -12.863449,-1.74829 -0.61345,-1.66886 0.4912,-3.68445 2.69833,-5.47656 h 2.54614003 c 0.19777,0 0.32994,0.0989 0.29672,0.32978 l -0.79166003,3.23326 c -0.16499,0.65977 -0.92358,1.02248 -1.64921,1.22042 -0.0661,0 -0.0989,0.16515 1e-5,0.16507 h 4.45276 c 0.23079,0 0.39589,-0.13168 0.49485,-0.36274 l 1.15435,-4.81693 c 0.033,-0.13176 -0.0662,-0.23042 -0.23094,-0.23063 h -3.66107997 c -0.13207,0 -0.23049003,-0.0332 -0.19757003,-0.19799 l 1.08797003,-4.48659 c 0.033,-0.1651 -0.0985,-0.26408 -0.23031,-0.26398 z"
                 id="path284336" />
              <path
                 inkscape:export-ydpi="300"
                 inkscape:export-xdpi="300"
                 inkscape:connector-curvature="0"
                 style="fill:#eb891b;fill-opacity:1;fill-rule:evenodd;stroke:none;stroke-width:0.373621"
                 d="m 5.3393855,279.06871 c -0.23079,-3e-5 -0.42843,0.13168 -0.49433,0.39568 l -0.17149,0.7103 c -1.06011,0.18246 -2.15458,0.44908 -3.25903,0.80748 -1.38529997,0.42889 -2.67138,0.98984 -3.7928,1.61666 0.85761,-0.42886 1.78117003,-0.79182 2.77065003,-1.08873 1.43189997,-0.46493 2.84561997,-0.78 4.18997997,-0.9565 l -0.89208,3.69419 c -0.033,0.16513 0.0662,0.23109 0.23095,0.23098 h 3.49648 c 0.26381,0 0.36272,0.19818 0.329739,0.39622 l -1.055589,4.32141 c -1.9e-5,0.16507 0.0989,0.23106 0.230931,0.23096 l 2.869408,-3e-5 c 0.2308025,0.0328 0.3631525,-0.0659 0.4290225,-0.29678 l 1.1873,-4.78343 c 0.0333,-0.19778 -0.0989,-0.32983 -0.29672,-0.32983 H 7.6488045 c -0.198128,0 -0.32984,-0.13251 -0.26403,-0.33031 l 0.758232,-3.23273 c 0.003,-0.0132 0.01029,-0.023 0.0131,-0.0333 2.8568705,0.19886 4.9851395,1.1952 5.5925595,2.87052 0.692671,1.88042 -0.725588,4.18975 -3.3972,6.13611 3.23232,-2.04531 5.01331,-4.61865 4.254741,-6.66404 -0.64593,-1.76188 -2.98767,-2.76905 -6.0809615,-2.87589 0.32671,-0.29704 0.794692,-0.50381 1.26551,-0.65365 0.0661,0 0.0662,-0.16512 -0.0332,-0.16505 z"
                 id="path284338" />
              <path
                 inkscape:export-ydpi="300"
                 inkscape:export-xdpi="300"
                 inkscape:connector-curvature="0"
                 style="fill:#68b92e;fill-opacity:1;fill-rule:evenodd;stroke:none;stroke-width:0.373621"
                 d="m -2.8072345,295.36548 h 2.86947003 c 0.16478,0 0.32984,-0.0662 0.36283,-0.26403 l 1.08842997,-4.48657 c 0.0659,-0.1651 0.16495,-0.19788 0.264,-0.19793 h 3.66112 c 0.19777,0 0.29678,-0.0659 0.3628,-0.23106 l 1.121441,-4.6845 c 0.0658,-0.29686 -0.0661,-0.39584 -0.29678,-0.39587 h -2.737561 c -0.26382,-0.0332 -0.42877,0.0659 -0.46174,0.32991 l -1.02247,4.18962 c -0.0988,0.23085 -0.26393,0.32991 -0.42882,0.32994 h -3.49617 c -0.19778,0 -0.36284,0.0989 -0.39583,0.29673 l -1.15439,4.8165 c -0.0659,0.1978 0.0328,0.29678 0.26402,0.29697 z"
                 id="path284340" />
            </g>
          </g>
        </g>
        <path
           id="path14134"
           style="font-style:italic;font-weight:bold;font-size:2.64509px;line-height:1.25;font-family:Arial;-inkscape-font-specification:'Arial Bold Italic';text-align:start;text-anchor:start;stroke-width:0.31626"
           d="M 144.34961 7.5410156 C 143.23393 7.5410156 142.38157 7.8098152 141.79297 8.3457031 C 141.20437 8.881557 140.91016 9.5565173 140.91016 10.369141 C 140.91016 10.834731 141.00944 11.240858 141.20703 11.587891 C 141.40469 11.934822 141.67497 12.217799 142.01758 12.4375 C 142.36461 12.652644 142.91149 12.922916 143.6582 13.248047 C 144.40924 13.573144 144.86817 13.808244 145.03516 13.953125 C 145.2722 14.150618 145.39062 14.392054 145.39062 14.677734 C 145.39062 15.007355 145.24484 15.288859 144.95508 15.521484 C 144.66518 15.754109 144.19501 15.869141 143.54492 15.869141 C 142.76291 15.869141 142.22726 15.698081 141.9375 15.355469 C 141.75827 15.144644 141.65611 14.738483 141.62891 14.136719 L 139.73828 14.236328 C 139.7206 14.882033 139.83563 15.452884 140.08594 15.949219 C 140.33632 16.445452 140.76494 16.833976 141.37109 17.115234 C 141.98167 17.392072 142.70303 17.529297 143.5332 17.529297 C 144.73673 17.529297 145.67364 17.228717 146.3457 16.626953 C 147.02215 16.020802 147.36133 15.291595 147.36133 14.439453 C 147.36133 13.749808 147.13407 13.185327 146.68164 12.746094 C 146.37855 12.447388 145.67184 12.05883 144.56055 11.580078 C 143.82264 11.259266 143.34614 11.006597 143.13086 10.822266 C 142.91558 10.642287 142.80664 10.413556 142.80664 10.136719 C 142.80664 9.8422984 142.92362 9.599424 143.15625 9.40625 C 143.39343 9.213076 143.78685 9.1171875 144.33594 9.1171875 C 144.89363 9.1171875 145.31588 9.2384862 145.60156 9.484375 C 145.88724 9.7303658 146.05327 10.085672 146.10156 10.546875 L 148.00586 10.460938 C 147.94437 9.5780506 147.60225 8.8693913 146.97852 8.3378906 C 146.35917 7.806424 145.48287 7.5410156 144.34961 7.5410156 z M 174.08398 7.5410156 C 172.96827 7.5410156 172.11591 7.8098152 171.52734 8.3457031 C 170.93874 8.881557 170.64453 9.5565173 170.64453 10.369141 C 170.64453 10.834731 170.74381 11.240858 170.94141 11.587891 C 171.13907 11.934822 171.40934 12.217799 171.75195 12.4375 C 172.09895 12.652644 172.64587 12.922916 173.39258 13.248047 C 174.14364 13.573144 174.60254 13.808244 174.76953 13.953125 C 175.00658 14.150618 175.125 14.392054 175.125 14.677734 C 175.125 15.007355 174.97921 15.288859 174.68945 15.521484 C 174.39956 15.754109 173.93134 15.869141 173.28125 15.869141 C 172.49924 15.869141 171.96164 15.698081 171.67188 15.355469 C 171.49264 15.144644 171.39049 14.738483 171.36328 14.136719 L 169.47266 14.236328 L 169.4707 14.236328 C 169.45336 14.882033 169.57 15.452884 169.82031 15.949219 C 170.07066 16.445452 170.49928 16.833976 171.10547 17.115234 C 171.71601 17.392072 172.43741 17.529297 173.26758 17.529297 C 174.47114 17.529297 175.40802 17.228717 176.08008 16.626953 C 176.75649 16.020802 177.0957 15.291595 177.0957 14.439453 C 177.0957 13.749808 176.86844 13.185327 176.41602 12.746094 C 176.11296 12.447388 175.40622 12.05883 174.29492 11.580078 C 173.55702 11.259266 173.08051 11.006597 172.86523 10.822266 C 172.64995 10.642287 172.54297 10.413556 172.54297 10.136719 C 172.54297 9.8422984 172.65766 9.599424 172.89062 9.40625 C 173.12781 9.213076 173.52126 9.1171875 174.07031 9.1171875 C 174.628 9.1171875 175.05026 9.2384862 175.33594 9.484375 C 175.62162 9.7303658 175.7896 10.085672 175.83789 10.546875 L 177.74023 10.460938 C 177.67871 9.5780506 177.33663 8.8693913 176.71289 8.3378906 C 176.09358 7.806424 175.21725 7.5410156 174.08398 7.5410156 z M 211.06055 7.5410156 C 209.94486 7.5410156 209.09251 7.8098152 208.50391 8.3457031 C 207.91534 8.881557 207.62109 9.5565173 207.62109 10.369141 C 207.62109 10.834731 207.72037 11.240858 207.91797 11.587891 C 208.1156 11.934822 208.38587 12.217799 208.72852 12.4375 C 209.07551 12.652644 209.62243 12.922916 210.36914 13.248047 C 211.12017 13.573144 211.57911 13.808244 211.74609 13.953125 C 211.98314 14.150618 212.10156 14.392054 212.10156 14.677734 C 212.10156 15.007355 211.95578 15.288859 211.66602 15.521484 C 211.37608 15.754109 210.90595 15.869141 210.25586 15.869141 C 209.47388 15.869141 208.9382 15.698081 208.64844 15.355469 C 208.46921 15.144644 208.36705 14.738483 208.33984 14.136719 L 206.44727 14.236328 C 206.42992 14.882033 206.54656 15.452884 206.79688 15.949219 C 207.04725 16.445452 207.47588 16.833976 208.08203 17.115234 C 208.6926 17.392072 209.41202 17.529297 210.24219 17.529297 C 211.44575 17.529297 212.38461 17.228717 213.05664 16.626953 C 213.73309 16.020802 214.07031 15.291595 214.07031 14.439453 C 214.07031 13.749808 213.84501 13.185327 213.39258 12.746094 C 213.08949 12.447388 212.38278 12.05883 211.27148 11.580078 C 210.53361 11.259266 210.05708 11.006597 209.8418 10.822266 C 209.62652 10.642287 209.51758 10.413556 209.51758 10.136719 C 209.51758 9.8422984 209.63422 9.599424 209.86719 9.40625 C 210.1044 9.213076 210.49783 9.1171875 211.04688 9.1171875 C 211.6049 9.1171875 212.02716 9.2384862 212.3125 9.484375 C 212.59818 9.7303658 212.76421 10.085672 212.8125 10.546875 L 214.7168 10.460938 C 214.65531 9.5780506 214.31319 8.8693913 213.68945 8.3378906 C 213.07011 7.806424 212.19381 7.5410156 211.06055 7.5410156 z M 70.226562 7.7070312 L 68.203125 17.365234 L 72.755859 17.365234 C 73.761759 17.365234 74.554971 17.251981 75.134766 17.023438 C 75.714458 16.79503 76.168495 16.420649 76.498047 15.902344 C 76.827599 15.379652 76.992188 14.827875 76.992188 14.248047 C 76.992188 13.808814 76.851571 13.417346 76.570312 13.070312 C 76.293577 12.71879 75.908444 12.473929 75.412109 12.337891 C 76.035912 12.13584 76.496318 11.840158 76.794922 11.449219 C 77.093525 11.053892 77.242188 10.588588 77.242188 10.052734 C 77.242188 9.6531226 77.157736 9.2885365 76.986328 8.9589844 C 76.815124 8.6294662 76.563927 8.365564 76.234375 8.1679688 C 75.904925 7.9703735 75.503662 7.8374628 75.029297 7.7714844 C 74.743753 7.7276121 74.243312 7.7070312 73.527344 7.7070312 L 70.226562 7.7070312 z M 82.71875 7.7070312 L 77.255859 17.365234 L 79.298828 17.365234 L 80.458984 15.230469 L 84.287109 15.230469 L 84.609375 17.365234 L 86.494141 17.365234 L 84.925781 7.7070312 L 82.71875 7.7070312 z M 89.761719 7.7070312 L 87.738281 17.365234 L 91.144531 17.363281 C 92.001061 17.363281 92.635919 17.315337 93.048828 17.21875 C 93.777992 17.043057 94.372781 16.76936 94.833984 16.400391 C 95.435749 15.925992 95.934752 15.28819 96.330078 14.484375 C 96.729792 13.676139 96.929688 12.749982 96.929688 11.708984 C 96.929688 11.225811 96.880305 10.783041 96.779297 10.378906 C 96.678289 9.970418 96.532503 9.6106953 96.34375 9.2988281 C 96.159282 8.9870289 95.936887 8.7216546 95.677734 8.5019531 C 95.423003 8.2780685 95.138554 8.1035832 94.822266 7.9804688 C 94.510398 7.8573543 94.153654 7.7757792 93.753906 7.7363281 C 93.551856 7.7159224 93.088024 7.7070312 92.363281 7.7070312 L 89.761719 7.7070312 z M 102.20703 7.7070312 L 96.746094 17.365234 L 98.789062 17.365234 L 99.947266 15.230469 L 103.77539 15.230469 L 104.09961 17.365234 L 105.98242 17.365234 L 104.41406 7.7070312 L 102.20703 7.7070312 z M 109.26367 7.7070312 L 107.24805 17.365234 L 109.09961 17.365234 L 110.45703 10.875 L 113.06641 17.365234 L 114.91797 17.365234 L 116.93359 7.7070312 L 115.08789 7.7070312 L 113.73828 14.169922 L 111.12305 7.7070312 L 109.26367 7.7070312 z M 122.70508 7.7070312 L 120.68164 17.365234 L 122.67188 17.365234 L 123.44336 13.681641 L 124.71484 13.681641 C 125.57137 13.681641 126.15493 13.66106 126.4668 13.617188 C 127.00265 13.542367 127.42981 13.433428 127.74609 13.292969 C 128.06228 13.148122 128.35649 12.936994 128.62891 12.660156 C 128.90574 12.383421 129.13742 12.01589 129.32617 11.554688 C 129.51492 11.093485 129.60938 10.618454 129.60938 10.130859 C 129.60938 9.60378 129.49095 9.1511811 129.25391 8.7734375 C 129.01672 8.3913066 128.69364 8.1195967 128.28516 7.9570312 C 127.88106 7.7900445 127.33123 7.7070312 126.63281 7.7070312 L 122.70508 7.7070312 z M 131.71289 7.7070312 L 130.64453 12.792969 C 130.50781 13.451937 130.43107 13.851728 130.41406 13.992188 C 130.38345 14.203217 130.36914 14.398215 130.36914 14.578125 C 130.36914 15.443429 130.66825 16.15356 131.26562 16.707031 C 131.863 17.256081 132.7232 17.529297 133.84766 17.529297 C 134.78768 17.529297 135.56476 17.345532 136.17969 16.976562 C 136.79472 16.607593 137.25362 16.129584 137.55664 15.541016 C 137.85987 14.952413 138.1287 14.101529 138.36133 12.990234 L 139.46094 7.7070312 L 137.47852 7.7070312 L 136.37109 12.984375 C 136.19547 13.836551 136.02102 14.439148 135.84961 14.794922 C 135.6783 15.150559 135.43687 15.419359 135.125 15.599609 C 134.81313 15.77952 134.41821 15.869141 133.93945 15.869141 C 133.40809 15.869141 133.00196 15.745889 132.7207 15.5 C 132.44387 15.249622 132.30469 14.934899 132.30469 14.552734 C 132.30469 14.456147 132.31503 14.352038 132.33203 14.242188 L 132.60156 12.951172 L 133.69531 7.7070312 L 131.71289 7.7070312 z M 153.19141 7.7070312 L 147.72852 17.365234 L 149.77148 17.365234 L 150.93164 15.230469 L 154.75977 15.230469 L 155.08203 17.365234 L 156.9668 17.365234 L 155.39844 7.7070312 L 153.19141 7.7070312 z M 158.58203 7.7070312 L 158.24414 9.3203125 L 161.07812 9.3203125 L 159.39062 17.365234 L 161.38086 17.365234 L 163.06055 9.3203125 L 165.85547 9.3203125 L 166.19141 7.7070312 L 158.58203 7.7070312 z M 179.57227 7.7070312 L 179.23633 9.3203125 L 182.07031 9.3203125 L 180.38281 17.365234 L 182.37305 17.365234 L 184.05273 9.3203125 L 186.8457 9.3203125 L 187.18359 7.7070312 L 179.57227 7.7070312 z M 190.16797 7.7070312 L 184.70508 17.365234 L 186.74805 17.365234 L 187.9082 15.230469 L 191.73633 15.230469 L 192.05859 17.365234 L 193.94336 17.365234 L 192.375 7.7070312 L 190.16797 7.7070312 z M 195.55664 7.7070312 L 195.2207 9.3203125 L 198.05469 9.3203125 L 196.36719 17.365234 L 198.35742 17.365234 L 200.03711 9.3203125 L 202.83008 9.3203125 L 203.16797 7.7070312 L 195.55664 7.7070312 z M 204.33398 7.7070312 L 202.31055 17.365234 L 204.30078 17.365234 L 206.31641 7.7070312 L 204.33398 7.7070312 z M 216.54883 7.7070312 L 216.21289 9.3203125 L 219.04492 9.3203125 L 217.35938 17.365234 L 219.34961 17.365234 L 221.0293 9.3203125 L 223.82227 9.3203125 L 224.1582 7.7070312 L 216.54883 7.7070312 z M 225.32422 7.7070312 L 223.30273 17.365234 L 225.29102 17.365234 L 227.30859 7.7070312 L 225.32422 7.7070312 z M 229.13281 7.7070312 L 227.11719 17.365234 L 229.11328 17.365234 L 229.73242 14.40625 L 231.61133 12.765625 L 233.99609 17.365234 L 236.24219 17.365234 L 233.06055 11.494141 L 237.39453 7.7070312 L 234.73438 7.7070312 L 230.26562 11.810547 L 231.12305 7.7070312 L 229.13281 7.7070312 z M 124.35938 9.2949219 L 125.7832 9.2949219 C 126.42904 9.2949219 126.84301 9.3299909 127.02734 9.4003906 C 127.2161 9.4663691 127.36188 9.5733545 127.46289 9.7226562 C 127.56832 9.8721621 127.62109 10.062297 127.62109 10.294922 C 127.62109 10.642091 127.51842 10.962192 127.31641 11.251953 C 127.11436 11.54202 126.83775 11.751196 126.48633 11.882812 C 126.13494 12.014429 125.43457 12.082031 124.38477 12.082031 L 123.77344 12.082031 L 124.35938 9.2949219 z M 91.408203 9.3007812 L 92.5625 9.3007812 C 93.146579 9.3007812 93.552706 9.3410198 93.78125 9.4199219 C 94.106211 9.5341258 94.377955 9.7643291 94.597656 10.111328 C 94.821779 10.45394 94.933594 10.96712 94.933594 11.652344 C 94.933594 12.456193 94.799245 13.155091 94.53125 13.748047 C 94.263289 14.341037 93.933874 14.816067 93.542969 15.171875 C 93.270723 15.417764 92.970177 15.587522 92.640625 15.679688 C 92.315596 15.767432 91.787758 15.810547 91.058594 15.810547 L 90.050781 15.810547 L 91.408203 9.3007812 z M 71.873047 9.3183594 L 73.414062 9.3183594 C 73.967567 9.3183594 74.31801 9.3321674 74.462891 9.359375 C 74.722145 9.4120897 74.922041 9.517637 75.0625 9.6757812 C 75.202959 9.8339935 75.273438 10.037314 75.273438 10.283203 C 75.273438 10.533513 75.19813 10.76858 75.048828 10.988281 C 74.89939 11.207983 74.675557 11.36435 74.376953 11.460938 C 74.078282 11.557525 73.58904 11.607422 72.908203 11.607422 L 71.392578 11.607422 L 71.873047 9.3183594 z M 83.482422 9.7363281 L 84.042969 13.623047 L 81.150391 13.623047 L 83.482422 9.7363281 z M 102.97266 9.7363281 L 103.53125 13.623047 L 100.63867 13.623047 L 102.97266 9.7363281 z M 153.95508 9.7363281 L 154.51562 13.623047 L 151.62305 13.623047 L 153.95508 9.7363281 z M 190.93164 9.7363281 L 191.49219 13.623047 L 188.59961 13.623047 L 190.93164 9.7363281 z M 71.042969 13.287109 L 73.416016 13.287109 C 73.969588 13.287109 74.364516 13.392657 74.601562 13.603516 C 74.838609 13.809919 74.957031 14.073822 74.957031 14.394531 C 74.957031 14.658207 74.874018 14.907485 74.707031 15.144531 C 74.544602 15.381714 74.323712 15.552774 74.046875 15.658203 C 73.774561 15.759211 73.237409 15.810547 72.433594 15.810547 L 70.515625 15.810547 L 71.042969 13.287109 z M 92.990234 24.408203 C 92.098539 24.408203 91.303888 24.590496 90.605469 24.955078 C 89.907083 25.315239 89.326437 25.807906 88.865234 26.431641 C 88.408521 27.055375 88.067873 27.790917 87.84375 28.638672 C 87.672342 29.271215 87.587891 29.87234 87.587891 30.443359 C 87.587891 31.058285 87.714019 31.669205 87.96875 32.275391 C 88.223515 32.877155 88.657039 33.382527 89.267578 33.791016 C 89.878151 34.199538 90.632767 34.404297 91.533203 34.404297 C 92.569847 34.404297 93.498915 34.14673 94.320312 33.632812 C 95.14171 33.118861 95.792698 32.384791 96.271484 31.431641 C 96.750236 30.478456 96.990234 29.49367 96.990234 28.474609 C 96.990234 27.249111 96.620751 26.26381 95.882812 25.521484 C 95.149295 24.779159 94.184989 24.408203 92.990234 24.408203 z M 124.76172 24.408203 C 123.69686 24.424426 122.88076 24.693749 122.31055 25.212891 C 121.72198 25.748779 121.42773 26.421786 121.42773 27.234375 C 121.42773 27.699999 121.52506 28.106126 121.72266 28.453125 C 121.92032 28.800056 122.19059 29.084986 122.5332 29.304688 C 122.8802 29.519832 123.42712 29.78815 124.17383 30.113281 C 124.92489 30.438378 125.38379 30.673479 125.55078 30.818359 C 125.78783 31.015887 125.90625 31.257289 125.90625 31.542969 C 125.90625 31.872555 125.76242 32.154094 125.47266 32.386719 C 125.18273 32.619684 124.71256 32.736328 124.0625 32.736328 C 123.28049 32.736328 122.74484 32.565302 122.45508 32.222656 C 122.27585 32.011831 122.17174 31.605671 122.14453 31.003906 L 120.25391 31.103516 C 120.23651 31.748419 120.35346 32.318619 120.60352 32.814453 C 120.85389 33.310686 121.28252 33.701163 121.88867 33.982422 C 122.49924 34.259259 123.21866 34.396484 124.04883 34.396484 C 125.25239 34.396484 126.19125 34.095939 126.86328 33.494141 C 127.53973 32.887989 127.87695 32.158783 127.87695 31.306641 C 127.87695 30.61703 127.65165 30.052548 127.19922 29.613281 C 126.89616 29.31461 126.1875 28.926052 125.07617 28.447266 C 124.3383 28.126454 123.86176 27.873785 123.64648 27.689453 C 123.4312 27.509475 123.32422 27.280744 123.32422 27.003906 C 123.32422 26.70952 123.44086 26.466612 123.67383 26.273438 C 123.91104 26.080263 124.30447 25.982422 124.85352 25.982422 C 125.41154 25.982422 125.83185 26.105674 126.11719 26.351562 C 126.40287 26.597519 126.57085 26.950906 126.61914 27.412109 L 128.52344 27.326172 C 128.46195 26.443285 128.11983 25.736545 127.49609 25.205078 C 126.87675 24.673577 126.00045 24.408203 124.86719 24.408203 C 124.83232 24.408203 124.79607 24.40768 124.76172 24.408203 z M 141.26172 24.408203 C 140.19686 24.424426 139.3788 24.693749 138.80859 25.212891 C 138.21999 25.748779 137.92578 26.421786 137.92578 27.234375 C 137.92578 27.699999 138.02506 28.106126 138.22266 28.453125 C 138.42032 28.800056 138.68864 29.084986 139.03125 29.304688 C 139.37825 29.519832 139.92513 29.78815 140.67188 30.113281 C 141.42291 30.438378 141.88184 30.673479 142.04883 30.818359 C 142.28587 31.015887 142.40625 31.257289 142.40625 31.542969 C 142.40625 31.872555 142.26046 32.154094 141.9707 32.386719 C 141.68081 32.619684 141.21064 32.736328 140.56055 32.736328 C 139.77853 32.736328 139.24289 32.565302 138.95312 32.222656 C 138.77389 32.011831 138.66979 31.605671 138.64258 31.003906 L 136.75391 31.103516 C 136.73651 31.748419 136.8515 32.318619 137.10156 32.814453 C 137.35194 33.310686 137.78057 33.701163 138.38672 33.982422 C 138.99729 34.259259 139.7167 34.396484 140.54688 34.396484 C 141.7504 34.396484 142.68927 34.095939 143.36133 33.494141 C 144.03778 32.887989 144.375 32.158783 144.375 31.306641 C 144.375 30.61703 144.14969 30.052548 143.69727 29.613281 C 143.39417 29.31461 142.68747 28.926052 141.57617 28.447266 C 140.83827 28.126454 140.36176 27.873785 140.14648 27.689453 C 139.9312 27.509475 139.82227 27.280744 139.82227 27.003906 C 139.82227 26.70952 139.93925 26.466612 140.17188 26.273438 C 140.40906 26.080263 140.80248 25.982422 141.35156 25.982422 C 141.90956 25.982422 142.33185 26.105674 142.61719 26.351562 C 142.90287 26.597519 143.06889 26.950906 143.11719 27.412109 L 145.02148 27.326172 C 144.96 26.443285 144.61788 25.736545 143.99414 25.205078 C 143.37479 24.673577 142.4985 24.408203 141.36523 24.408203 C 141.33037 24.408203 141.29607 24.40768 141.26172 24.408203 z M 198.98438 24.408203 C 197.91951 24.424426 197.10146 24.693749 196.53125 25.212891 C 195.94265 25.748779 195.64844 26.421786 195.64844 27.234375 C 195.64844 27.699999 195.74772 28.106126 195.94531 28.453125 C 196.14298 28.800056 196.41325 29.084986 196.75586 29.304688 C 197.10289 29.519832 197.64977 29.78815 198.39648 30.113281 C 199.14752 30.438378 199.60645 30.673479 199.77344 30.818359 C 200.01048 31.015887 200.12891 31.257289 200.12891 31.542969 C 200.12891 31.872555 199.98507 32.154094 199.69531 32.386719 C 199.40542 32.619684 198.93525 32.736328 198.28516 32.736328 C 197.50314 32.736328 196.9675 32.565302 196.67773 32.222656 C 196.4985 32.011831 196.3944 31.605671 196.36719 31.003906 L 194.47656 31.103516 C 194.45917 31.748419 194.57611 32.318619 194.82617 32.814453 C 195.07655 33.310686 195.50518 33.701163 196.11133 33.982422 C 196.7219 34.259259 197.44131 34.396484 198.27148 34.396484 C 199.47501 34.396484 200.41388 34.095939 201.08594 33.494141 C 201.76239 32.887989 202.09961 32.158783 202.09961 31.306641 C 202.09961 30.61703 201.8743 30.052548 201.42188 29.613281 C 201.11878 29.31461 200.41208 28.926052 199.30078 28.447266 C 198.56288 28.126454 198.08637 27.873785 197.87109 27.689453 C 197.65581 27.509475 197.54688 27.280744 197.54688 27.003906 C 197.54687 26.70952 197.66386 26.466612 197.89648 26.273438 C 198.13367 26.080263 198.52709 25.982422 199.07617 25.982422 C 199.63386 25.982422 200.05416 26.105674 200.33984 26.351562 C 200.62518 26.597519 200.7935 26.950906 200.8418 27.412109 L 202.74609 27.326172 C 202.6846 26.443285 202.34053 25.736545 201.7168 25.205078 C 201.09745 24.673577 200.22116 24.408203 199.08789 24.408203 C 199.05303 24.408203 199.01873 24.40768 198.98438 24.408203 z M 243.68164 24.408203 C 242.56592 24.408203 241.59532 24.694605 240.76953 25.265625 C 239.94375 25.836645 239.30546 26.64109 238.85742 27.677734 C 238.48407 28.538651 238.29883 29.438917 238.29883 30.378906 C 238.29883 31.780132 238.73379 32.849952 239.60352 33.587891 C 240.24041 34.128166 241.15486 34.396484 242.34961 34.396484 C 243.11829 34.396484 243.87144 34.283231 244.60938 34.054688 C 245.35173 33.826416 245.97875 33.548302 246.48828 33.21875 L 247.35742 29.074219 L 243.03516 29.074219 L 242.69922 30.6875 L 245.16406 30.6875 L 244.86719 32.125 C 244.54212 32.291647 244.15507 32.435479 243.70703 32.558594 C 243.25899 32.677287 242.82256 32.736328 242.39648 32.736328 C 241.6849 32.736328 241.14436 32.542802 240.77539 32.15625 C 240.40642 31.765311 240.22266 31.164152 240.22266 30.351562 C 240.22266 29.525744 240.37276 28.764792 240.67578 28.066406 C 240.97887 27.368123 241.39966 26.851552 241.93555 26.517578 C 242.47143 26.183605 243.05989 26.015625 243.70117 26.015625 C 244.25022 26.015625 244.70426 26.154803 245.06445 26.431641 C 245.429 26.708376 245.6929 27.1194 245.85547 27.664062 L 247.70703 27.453125 C 247.48743 26.460421 247.03973 25.703852 246.36328 25.185547 C 245.69122 24.667242 244.79732 24.408203 243.68164 24.408203 z M 254.17773 24.408203 C 253.06205 24.408203 252.09141 24.694605 251.26562 25.265625 C 250.43984 25.836645 249.80156 26.64109 249.35352 27.677734 C 248.98016 28.538651 248.79297 29.438917 248.79297 30.378906 C 248.79297 31.780132 249.22793 32.849952 250.09766 33.587891 C 250.73455 34.128166 251.65095 34.396484 252.8457 34.396484 C 253.61439 34.396484 254.36753 34.283231 255.10547 34.054688 C 255.84779 33.826416 256.47484 33.548302 256.98438 33.21875 L 257.85352 29.074219 L 253.53125 29.074219 L 253.19531 30.6875 L 255.66016 30.6875 L 255.36328 32.125 C 255.03825 32.291647 254.65117 32.435479 254.20312 32.558594 C 253.75508 32.677287 253.31865 32.736328 252.89258 32.736328 C 252.181 32.736328 251.64045 32.542802 251.27148 32.15625 C 250.90252 31.765311 250.71875 31.164152 250.71875 30.351562 C 250.71875 29.525744 250.86885 28.764792 251.17188 28.066406 C 251.47497 27.368123 251.89579 26.851552 252.43164 26.517578 C 252.96753 26.183605 253.55595 26.015625 254.19727 26.015625 C 254.74632 26.015625 255.20035 26.154803 255.56055 26.431641 C 255.92509 26.708376 256.189 27.1194 256.35156 27.664062 L 258.20312 27.453125 C 257.98349 26.460421 257.53582 25.703852 256.85938 25.185547 C 256.18735 24.667242 255.29345 24.408203 254.17773 24.408203 z M 153.23828 24.572266 L 152.13086 29.849609 C 151.95527 30.701752 151.78274 31.306336 151.61133 31.662109 C 151.44002 32.017747 151.19859 32.286546 150.88672 32.466797 C 150.57485 32.647047 150.178 32.736328 149.69922 32.736328 C 149.16785 32.736328 148.76173 32.613076 148.48047 32.367188 C 148.20363 32.116809 148.06641 31.802053 148.06641 31.419922 C 148.06641 31.323335 148.07479 31.219226 148.0918 31.109375 L 148.36133 29.818359 L 149.45508 24.574219 L 147.47266 24.574219 L 146.40625 29.660156 C 146.26953 30.319125 146.19279 30.718916 146.17578 30.859375 C 146.14517 31.070064 146.12891 31.265062 146.12891 31.445312 C 146.12891 32.310651 146.42801 33.018829 147.02539 33.572266 C 147.62277 34.121349 148.48293 34.396484 149.60742 34.396484 C 150.54741 34.396484 151.32453 34.212719 151.93945 33.84375 C 152.55448 33.474781 153.01338 32.994853 153.31641 32.40625 C 153.61933 31.817647 153.88813 30.968717 154.12109 29.857422 L 155.2207 24.572266 L 153.23828 24.572266 z M 70.232422 24.574219 L 68.208984 34.232422 L 70.199219 34.232422 L 70.970703 30.548828 L 72.242188 30.548828 C 73.098717 30.548828 73.682273 30.528247 73.994141 30.484375 C 74.529994 30.409554 74.957149 30.300616 75.273438 30.160156 C 75.589624 30.01531 75.883834 29.804181 76.15625 29.527344 C 76.433087 29.250608 76.664763 28.883078 76.853516 28.421875 C 77.042268 27.960672 77.136719 27.485607 77.136719 26.998047 C 77.136719 26.470933 77.018296 26.018369 76.78125 25.640625 C 76.544034 25.258528 76.220988 24.986784 75.8125 24.824219 C 75.408399 24.657232 74.858576 24.574219 74.160156 24.574219 L 70.232422 24.574219 z M 79.279297 24.574219 L 77.255859 34.232422 L 79.246094 34.232422 L 80.082031 30.232422 L 80.892578 30.232422 C 81.362726 30.232422 81.692107 30.296292 81.880859 30.423828 C 82.188237 30.639074 82.479537 31.059859 82.751953 31.683594 C 83.252607 32.838795 83.588358 33.687726 83.759766 34.232422 L 85.894531 34.232422 C 85.349869 32.853166 84.855763 31.786771 84.412109 31.03125 C 84.188055 30.65803 83.948091 30.355497 83.693359 30.126953 C 84.69045 29.999588 85.435753 29.670173 85.927734 29.138672 C 86.419682 28.602784 86.664062 27.924913 86.664062 27.103516 C 86.664062 26.528109 86.537934 26.038867 86.283203 25.634766 C 86.032825 25.230597 85.699985 24.953989 85.287109 24.804688 C 84.878587 24.650965 84.306298 24.574219 83.568359 24.574219 L 79.279297 24.574219 z M 98.431641 24.574219 L 100.16602 34.232422 L 102.28711 34.232422 L 107.61133 24.574219 L 105.64062 24.574219 L 101.64062 31.880859 L 100.41602 24.574219 L 98.431641 24.574219 z M 108.39453 24.574219 L 106.37109 34.232422 L 108.36133 34.232422 L 110.37695 24.574219 L 108.39453 24.574219 z M 112.27539 24.574219 L 110.25977 34.232422 L 112.11133 34.232422 L 113.46875 27.742188 L 116.07617 34.232422 L 117.92773 34.232422 L 119.94531 24.574219 L 118.09961 24.574219 L 116.75 31.037109 L 114.13281 24.574219 L 112.27539 24.574219 z M 130.88867 24.574219 L 128.86523 34.232422 L 130.85547 34.232422 L 132.87109 24.574219 L 130.88867 24.574219 z M 157.26953 24.574219 L 155.24609 34.232422 L 162.15234 34.232422 L 162.48828 32.619141 L 157.57227 32.619141 L 159.25391 24.574219 L 157.26953 24.574219 z M 168.19336 24.574219 L 162.73242 34.232422 L 164.77344 34.232422 L 165.93359 32.097656 L 169.76172 32.097656 L 170.08398 34.232422 L 171.96875 34.232422 L 170.40039 24.574219 L 168.19336 24.574219 z M 173.46484 24.574219 L 173.82812 34.232422 L 175.87695 34.232422 L 179.39453 27.169922 L 179.61133 34.232422 L 181.62109 34.232422 L 186.29297 24.574219 L 184.36914 24.574219 L 181.1875 31.261719 L 180.96289 24.574219 L 178.80859 24.574219 L 175.49414 31.333984 L 175.4082 24.574219 L 173.46484 24.574219 z M 187.18945 24.574219 L 185.17383 34.232422 L 192.7168 34.232422 L 193.05859 32.619141 L 187.43945 32.619141 L 188.04492 29.996094 L 193.04688 29.996094 L 193.38281 28.380859 L 188.38086 28.380859 L 188.84375 26.1875 L 194.01562 26.1875 L 194.35156 24.574219 L 187.18945 24.574219 z M 205.11133 24.574219 L 203.08789 34.232422 L 205.07812 34.232422 L 207.09375 24.574219 L 205.11133 24.574219 z M 212.07422 24.574219 L 211.73828 26.1875 L 214.57227 26.1875 L 212.88477 34.232422 L 214.875 34.232422 L 216.55469 26.1875 L 219.34961 26.1875 L 219.68555 24.574219 L 212.07422 24.574219 z M 220.92969 24.574219 L 218.91406 34.232422 L 226.45703 34.232422 L 226.80078 32.619141 L 221.17969 32.619141 L 221.78711 29.996094 L 226.78711 29.996094 L 227.12305 28.380859 L 222.12305 28.380859 L 222.58398 26.1875 L 227.75586 26.1875 L 228.0918 24.574219 L 220.92969 24.574219 z M 229.98242 24.574219 L 227.9668 34.232422 L 229.81836 34.232422 L 231.17578 27.742188 L 233.78516 34.232422 L 235.63672 34.232422 L 237.65234 24.574219 L 235.80664 24.574219 L 234.45703 31.037109 L 231.8418 24.574219 L 229.98242 24.574219 z M 263.4082 24.574219 L 257.94531 34.232422 L 259.98828 34.232422 L 261.14844 32.097656 L 264.97656 32.097656 L 265.29883 34.232422 L 267.18359 34.232422 L 265.61523 24.574219 L 263.4082 24.574219 z M 270.45703 24.574219 L 268.43555 34.232422 L 270.42383 34.232422 L 271.26172 30.232422 L 272.07227 30.232422 C 272.54238 30.232422 272.87179 30.296292 273.06055 30.423828 C 273.36792 30.639074 273.65727 31.059859 273.92969 31.683594 C 274.43034 32.838795 274.76609 33.687726 274.9375 34.232422 L 277.07227 34.232422 C 276.5276 32.853166 276.0335 31.786771 275.58984 31.03125 C 275.36579 30.65803 275.12582 30.355497 274.87109 30.126953 C 275.86822 29.999588 276.61352 29.670173 277.10547 29.138672 C 277.59742 28.602784 277.84375 27.924913 277.84375 27.103516 C 277.84375 26.528109 277.71567 26.038867 277.46094 25.634766 C 277.21056 25.230597 276.87967 24.953989 276.4668 24.804688 C 276.05827 24.650965 275.48403 24.574219 274.74609 24.574219 L 270.45703 24.574219 z M 282.89648 24.574219 L 277.43555 34.232422 L 279.47852 34.232422 L 280.63672 32.097656 L 284.46484 32.097656 L 284.78906 34.232422 L 286.67188 34.232422 L 285.10352 24.574219 L 282.89648 24.574219 z M 92.742188 26.068359 C 92.772171 26.067476 92.801696 26.068359 92.832031 26.068359 C 93.46454 26.068359 93.98409 26.285858 94.392578 26.720703 C 94.8011 27.151162 95.005859 27.745951 95.005859 28.505859 C 95.005859 29.186696 94.844662 29.887032 94.519531 30.607422 C 94.19889 31.32339 93.789304 31.85907 93.292969 32.214844 C 92.800987 32.566264 92.287841 32.742188 91.751953 32.742188 C 91.093087 32.742188 90.560351 32.518354 90.15625 32.070312 C 89.752149 31.622271 89.550781 31.065597 89.550781 30.402344 C 89.550781 29.321794 89.854786 28.330638 90.460938 27.425781 C 91.05243 26.549201 91.812693 26.095753 92.742188 26.068359 z M 71.886719 26.162109 L 73.310547 26.162109 C 73.956388 26.162109 74.370356 26.197178 74.554688 26.267578 C 74.74344 26.333557 74.889226 26.440542 74.990234 26.589844 C 75.095664 26.739043 75.148438 26.929144 75.148438 27.162109 C 75.148438 27.509244 75.045767 27.82938 74.84375 28.119141 C 74.641699 28.409208 74.365058 28.618383 74.013672 28.75 C 73.662252 28.881617 72.961915 28.949219 71.912109 28.949219 L 71.300781 28.949219 L 71.886719 26.162109 z M 80.925781 26.1875 L 83.113281 26.1875 C 83.697361 26.1875 84.078077 26.240274 84.253906 26.345703 C 84.539246 26.52143 84.681641 26.785332 84.681641 27.136719 C 84.681641 27.435322 84.582361 27.719771 84.384766 27.992188 C 84.187102 28.264706 83.913886 28.464601 83.5625 28.591797 C 83.215501 28.719333 82.506842 28.783203 81.439453 28.783203 L 80.386719 28.783203 L 80.925781 26.1875 z M 272.10352 26.1875 L 274.29102 26.1875 C 274.87509 26.1875 275.25581 26.240274 275.43164 26.345703 C 275.71732 26.52143 275.86133 26.785332 275.86133 27.136719 C 275.86133 27.435322 275.76205 27.719771 275.56445 27.992188 C 275.36679 28.264706 275.09165 28.464601 274.74023 28.591797 C 274.39324 28.719333 273.68653 28.783203 272.61914 28.783203 L 271.56445 28.783203 L 272.10352 26.1875 z M 168.95898 26.603516 L 169.51758 30.490234 L 166.625 30.490234 L 168.95898 26.603516 z M 264.17188 26.603516 L 264.73242 30.490234 L 261.83984 30.490234 L 264.17188 26.603516 z M 283.66211 26.603516 L 284.2207 30.490234 L 281.32812 30.490234 L 283.66211 26.603516 z "
           transform="matrix(0.19602359,0,0,0.19602359,520.65303,124.95649)" />
      </g>
    </g>
  </g>
</svg>
