<?xml version="1.0" encoding="UTF-8" standalone="no"?>
<!-- Created with Inkscape (http://www.inkscape.org/) -->

<svg
   width="59.898331mm"
   height="59.907852mm"
   viewBox="0 0 59.89833 59.907852"
   version="1.1"
   id="svg5"
   inkscape:version="1.1.2 (b8e25be833, 2022-02-05)"
   sodipodi:docname="vercel.svg"
   xmlns:inkscape="http://www.inkscape.org/namespaces/inkscape"
   xmlns:sodipodi="http://sodipodi.sourceforge.net/DTD/sodipodi-0.dtd"
   xmlns="http://www.w3.org/2000/svg"
   xmlns:svg="http://www.w3.org/2000/svg">
  <sodipodi:namedview
     id="namedview7"
     pagecolor="#ffffff"
     bordercolor="#666666"
     borderopacity="1.0"
     inkscape:pageshadow="2"
     inkscape:pageopacity="0.0"
     inkscape:pagecheckerboard="0"
     inkscape:document-units="mm"
     showgrid="false"
     fit-margin-top="0"
     fit-margin-left="0"
     fit-margin-right="0"
     fit-margin-bottom="0"
     inkscape:zoom="0.45291836"
     inkscape:cx="712.04886"
     inkscape:cy="501.19408"
     inkscape:window-width="1920"
     inkscape:window-height="1009"
     inkscape:window-x="-8"
     inkscape:window-y="-8"
     inkscape:window-maximized="1"
     inkscape:current-layer="layer1" />
  <defs
     id="defs2" />
  <g
     inkscape:label="Layer 1"
     inkscape:groupmode="layer"
     id="layer1"
     transform="translate(217.49309,-85.71262)">
    <path
       id="path1019"
       style="fill:#227ad3;fill-opacity:1;stroke-width:1.18568;stroke-linecap:round"
       d="m -211.30344,85.72858 c -3.43032,0.001 -6.1908,2.7639 -6.18965,6.19419 l 0.003,7.20126 c 1.40965,0.64222 3.35742,2.11736 4.51437,0.12621 2.3187,-2.30899 8.03153,-0.79998 8.71578,-4.35447 -1.06375,-2.68691 0.998,-4.72719 3.31233,-6.54419 1.58025,-0.67457 3.34034,-1.25036 5.07387,-1.2275 -1.2095,1.83084 0.32434,2.10473 0.0204,3.77002 -1.62891,0.16668 1.93599,2.19194 1.94542,3.07092 -3.16758,0.0613 -0.246,0.64072 0.6598,1.6331 2.18594,0.7491 3.35358,3.48018 0.0327,2.21098 1.03666,0.93818 -0.5374,3.57101 -1.38881,4.48737 1.47784,0.50032 -0.53019,1.06269 -1.63827,2.76456 -1.78996,1.37763 0.20902,2.21963 -0.42684,3.54106 -0.10488,2.1266 -2.1594,4.92283 -4.65075,5.13799 0.25317,-2.65378 -0.93696,-2.33012 -2.8607,-1.58895 -1.62577,-2.30547 -2.98235,0.83566 -5.20259,0.36383 -0.16413,-2.05439 -2.06412,-0.17002 -3.36442,-0.60815 -3.75168,0.8859 -1.18122,-4.60873 -3.4497,-5.36575 -0.5667,1.94563 -0.92814,0.46694 -1.29007,-0.20198 l 6.8e-4,2.05894 c 10e-4,3.43029 2.76356,6.19081 6.19387,6.18963 l 16.47567,-0.005 c 3.4303,-0.001 6.1908,-2.76356 6.18963,-6.19384 l -0.005,-16.47534 c -0.001,-3.4303 -2.76356,-6.19115 -6.19384,-6.18998 z"
       inkscape:export-filename="D:\0-Ryan WJ\7400\2023\0-Panitia\.konreg-kasulampua\.output-logo-kasulampua\color-h-text-transp-w.png"
       inkscape:export-xdpi="300.069"
       inkscape:export-ydpi="300.069" />
    <path
       id="path1021"
       style="fill:#f98110;fill-opacity:1;stroke-width:1.18568;stroke-linecap:round"
       d="m -180.17158,85.71817 c -3.48465,0.001 -6.28903,2.80747 -6.28785,6.29212 l 0.005,16.27919 c 6.8e-4,2.97535 2.04769,5.45327 4.81494,6.11373 -0.40251,-2.89741 3.08619,-8.64934 -1.91303,-7.90843 -0.24054,-2.19606 -0.78619,-3.85093 2.46766,-3.70249 0.0207,-3.10776 -0.29925,-6.06158 2.27028,-8.37678 0.004,-2.88608 2.08016,-5.47501 4.36118,-6.25189 2.81192,-1.69007 6.81583,2.19561 10.60126,1.08401 1.07677,0.51214 3.0332,-0.69719 4.60302,-1.49779 -1.1488,-1.25384 -2.80138,-2.03785 -4.64381,-2.03722 z m 22.23041,4.23563 c -3.39938,2.9135 -8.28772,0.7652 -12.50882,0.98495 -3.83827,-1.28782 -8.56497,0.76331 -6.00088,4.93433 0.65511,1.83537 3.11233,3.3655 4.42357,0.55637 3.48656,0.74277 5.42662,-2.18942 7.68205,-0.038 -2.25691,0.41696 -5.39876,3.83766 -8.52644,3.79029 1.57342,2.37971 4.46792,4.56734 2.5223,6.83485 0.38801,1.13423 4.86565,4.20365 0.48873,3.93581 -1.33249,2.47062 -4.68892,0.65835 -2.70448,-1.55604 -3.72767,-0.98649 -1.21513,-3.94198 -2.28103,-5.85459 -3.43582,0.13704 -2.61335,4.89121 -2.39348,7.46416 -1.15213,0.83402 -0.63361,2.52172 -0.8236,3.57071 l 8.76689,-0.003 c -0.58035,-0.8144 0.54381,-2.67917 1.13322,-2.68211 0.29287,-0.001 0.45361,0.45667 0.20679,1.7322 0.0323,0.26823 0.11206,0.65321 0.0833,0.94943 l 0.40548,-1.6e-4 c 0.23316,-1.49478 0.98083,-3.579 1.27316,-3.59447 0.1248,-0.007 0.16618,0.36407 0.048,1.31984 -0.0163,0.6424 0.35646,1.53425 0.32397,2.27406 l 1.93986,-6.3e-4 c 0.0562,1.8e-4 0.11178,-0.003 0.16767,-0.004 -0.0493,-0.14964 0.003,-0.20131 0.0839,-0.19964 0.10707,0.003 0.25985,0.0992 0.2764,0.18042 3.2354,-0.26783 5.76097,-2.96207 5.75985,-6.26869 l -0.005,-16.27919 c -7e-5,-0.71759 -0.12133,-1.40532 -0.34091,-2.04667 z m -7.55932,3.62368 c 0.0999,0.001 0.20117,0.44595 -0.078,0.14271 0.0192,-0.10562 0.0487,-0.14338 0.078,-0.14271 z m -3.59331,0.078 c 0.16707,0.001 0.13094,0.37967 -0.14752,0.0719 0.0598,-0.0527 0.10889,-0.0724 0.14752,-0.0719 z m -0.014,0.79775 c 0.1008,-0.008 0.20747,0.449 -0.0746,0.1427 0.0185,-0.10195 0.0464,-0.1407 0.0746,-0.1427 z m 5.45557,2.38756 c 0.70224,-6.8e-4 0.95414,0.37141 -0.48309,1.43562 l -0.29254,0.2806 -0.25237,0.0411 c -2.90611,-0.56777 -0.22379,-1.7555 1.028,-1.75728 z m -5.62991,9.62939 c 0.13862,-6.8e-4 -0.38149,0.2455 -0.23637,0.0539 0.13016,-0.0391 0.20273,-0.0537 0.23637,-0.0539 z m 2.94645,2.57901 c 0.169,-0.008 0.21419,0.78941 -0.16448,0.24376 0.0602,-0.17597 0.11718,-0.24106 0.16448,-0.24376 z m 1.897,4.6074 c 0.22966,0.001 0.20711,0.56612 -0.27594,0.20041 0.1116,-0.14814 0.20563,-0.20046 0.27594,-0.20041 z"
       inkscape:export-filename="D:\0-Ryan WJ\7400\2023\0-Panitia\.konreg-kasulampua\.output-logo-kasulampua\color-h-text-transp-w.png"
       inkscape:export-xdpi="300.069"
       inkscape:export-ydpi="300.069" />
    <path
       id="path1023"
       style="fill:#7dbd36;fill-opacity:1;stroke-width:1.18568;stroke-linecap:round"
       d="m -210.91095,116.76129 c -3.6477,10e-4 -6.58338,2.93856 -6.58214,6.58628 l 0.005,15.69077 c 0.001,3.64768 2.93892,6.58336 6.58661,6.58213 l 14.05468,-0.005 c -0.18947,-1.24015 -0.0689,-1.67869 0.15006,-1.68199 0.35469,-0.006 0.95648,1.10057 0.88058,1.68164 l 0.60509,9e-5 c 3.1657,-10e-4 5.79383,-2.21428 6.43265,-5.18338 -0.11361,0.0462 -0.31183,0.0366 -0.63568,-0.0723 -0.17032,-0.6453 -0.088,-0.87503 0.074,-0.88664 0.003,-1.4e-4 0.007,-3e-5 0.01,-1.2e-4 l -1e-5,-6.8e-4 c 0.01,-1.8e-4 0.0198,-3.1e-4 0.0302,0.002 l 5.5e-4,6.8e-4 c 0.19997,0.0252 0.47999,0.31801 0.5914,0.57815 0.0516,-0.33365 0.0789,-0.67557 0.0788,-1.02412 l -0.005,-15.69107 c -0.001,-3.64771 -2.9389,-6.58302 -6.58661,-6.58178 z m 2.60752,0.22409 c 0.0593,-0.001 0.11921,0.005 0.17948,0.0165 0.0448,0.008 0.0898,0.0203 0.13436,0.0347 l -1e-5,-3.5e-4 c 0.0268,0.009 0.0536,0.019 0.0802,0.0294 1.06382,0.42933 1.9193,2.42633 -1.27012,2.30724 -0.19333,-1.7817 0.30288,-2.38165 0.87608,-2.38764 z m -2.60226,2.9829 c 0.0291,-5.5e-4 0.0576,0.001 0.0854,0.006 0.0335,0.004 0.066,0.0136 0.0976,0.0253 0.47121,0.17637 0.70682,1.12188 0.3576,3.21587 -4.07984,5.70889 5.59433,-5.68297 4.20753,1.20699 -5.48077,0.47666 4.69789,6.09259 -1.49117,3.62614 -7.20672,-1.97724 2.78667,8.69291 -1.05344,6.58576 -4.00076,-2.11171 -2.76499,-7.14201 -4.83716,-10.1403 0.25912,-2.36093 1.73206,-4.51525 2.63369,-4.52563 z m 7.31857,0.9966 c 0.008,-4.6e-4 0.0166,-2.4e-4 0.0254,6.8e-4 0.005,6.8e-4 0.0102,6.1e-4 0.0149,0.003 l 1e-5,6.8e-4 c 0.005,0.001 0.0102,0.002 0.0149,0.005 0.15143,0.0645 0.30239,0.38813 -0.15092,0.23089 -0.008,-0.17305 0.0376,-0.23684 0.0956,-0.24165 z m 1.54339,3.92782 c 0.49483,-0.005 0.97548,0.0456 1.32927,0.16202 0.0522,0.0171 0.10161,0.0358 0.1479,0.0559 0.5576,0.24158 0.66303,0.69566 -0.31264,1.41995 -1.07689,-1.11578 -0.95974,0.5509 -1.89577,0.0649 -2.98641,-0.96049 -1.03611,-1.68528 0.73124,-1.70267 z m -12.21502,1.34623 c 0.005,-6.5e-4 0.0103,-6.3e-4 0.0149,1.2e-4 0.002,10e-6 0.003,6.8e-4 0.005,10e-4 l 6.8e-4,-5.6e-4 c 0.001,0 0.002,0.003 0.005,0.002 0.10572,0.0538 -0.0178,0.613 -0.18985,0.17226 0.074,-0.11984 0.12742,-0.16961 0.16415,-0.17572 z m 0.78905,1.98543 c 0.007,-3e-5 0.0141,6.7e-4 0.0213,0.001 0.008,0.001 0.0155,0.002 0.0233,0.005 v 3.5e-4 c 0.008,0.002 0.0153,0.005 0.0229,0.009 0.22891,0.10654 0.40055,0.70436 -0.29526,0.49062 0.0209,-0.3782 0.12221,-0.50647 0.22791,-0.50691 z m 6.51816,1.31625 c 0.0186,-10e-4 0.0355,0.001 0.051,0.005 0.003,2e-5 0.006,0.002 0.009,0.002 0.009,0.002 0.0179,0.006 0.0256,0.0106 l -3.5e-4,6.2e-4 c 0.15967,0.0845 0.0892,0.41124 -0.29019,0.0682 0.0804,-0.0604 0.14904,-0.0849 0.20444,-0.0869 z m 1.5193,0.51118 c 0.27479,0.006 0.59606,0.0624 0.90298,0.14377 0.10518,0.0279 0.20863,0.0586 0.30796,0.0916 0.0993,0.0331 0.1944,0.0684 0.28295,0.10441 l 1e-5,3.5e-4 c 0.76751,0.31229 1.04008,0.69955 -0.77744,0.51021 -0.46532,-0.10618 -1.03605,0.0279 -1.42101,-0.3425 -0.0824,-0.38635 0.24651,-0.51726 0.70454,-0.50777 z m -8.69931,0.65977 c 0.0124,3.2e-4 0.025,0.002 0.0376,0.003 0.0154,0.003 0.0307,0.007 0.0461,0.0111 0.0156,0.004 0.0311,0.0102 0.0469,0.0167 v -3.5e-4 c 0.46723,0.19223 0.911,1.17386 -0.49067,0.59831 0.0141,-0.48193 0.17496,-0.63946 0.36015,-0.62985 z m 16.77295,0.37303 c 0.21577,-0.009 0.75816,0.769 -0.0277,0.41033 -0.0858,-0.30046 -0.0504,-0.40695 0.0277,-0.41033 z m -10.65468,0.0446 c 0.008,1.2e-4 0.0147,6.8e-4 0.0212,0.002 0.16788,0.0475 -0.0889,0.74252 -0.28738,0.19277 0.12677,-0.14092 0.21231,-0.19379 0.26619,-0.19519 z m 2.3468,0.17556 c 0.0106,-1e-5 0.0218,6.9e-4 0.0333,0.003 0.0142,0.003 0.0294,0.007 0.0448,0.0115 0.0154,0.005 0.0315,0.011 0.048,0.0187 l -3.5e-4,3.5e-4 c 0.49366,0.22754 1.38835,1.53401 -0.092,0.85298 -0.24496,-0.65866 -0.19385,-0.88555 -0.0336,-0.88626 z m 4.56679,0.20362 c 0.11275,-6.9e-4 0.22619,0.003 0.33815,0.0109 1.25395,0.0852 2.31941,0.64817 0.0365,1.24208 l -0.79281,0.21828 -0.51308,0.0727 c -1.16148,-1.06199 -0.30734,-1.48882 0.72956,-1.53915 0.0667,-0.003 0.13409,-0.005 0.20167,-0.005 z m -13.41013,0.61032 c 0.0102,-9e-5 0.0205,5.2e-4 0.0305,0.002 0.009,0.003 0.0181,0.005 0.027,0.008 l 3.6e-4,-6.1e-4 c 0.27914,0.10492 0.40356,0.96724 -0.48118,0.94926 0.0856,-0.71627 0.26784,-0.95711 0.42319,-0.95931 z m 20.81123,0.0675 v 3.5e-4 c 0.11261,-6.9e-4 0.22653,0.005 0.33849,0.0161 v -3.4e-4 c 1.04493,0.10671 1.89835,0.72429 -0.47719,1.41619 l -0.51208,-0.054 c -0.93648,-0.94848 -0.27283,-1.33693 0.53866,-1.37489 0.0371,-0.001 0.0746,-0.003 0.11213,-0.003 z m -19.17916,0.35715 c 0.0281,6.1e-4 0.0566,0.003 0.0858,0.008 0.0467,0.007 0.0944,0.0198 0.14306,0.0357 0.0292,0.01 0.0586,0.0209 0.0882,0.0336 1.1836,0.50756 2.6883,3.27754 -0.88122,1.6128 -0.15328,-1.27256 0.14258,-1.70198 0.56422,-1.69011 z m 6.34938,1.08476 c 0.40915,0.002 0.9611,0.0903 1.36817,0.20129 0.0678,0.0188 0.13175,0.0378 0.19026,0.0572 0.0585,0.0195 0.11154,0.0391 0.15798,0.0589 0.40237,0.17264 0.3027,0.34957 -1.16561,0.34026 l -0.80994,-0.10348 c -0.55691,-0.41678 -0.2669,-0.55663 0.25912,-0.55414 z m 0.35001,1.27704 c 0.0243,0.002 0.0492,0.006 0.0744,0.0118 0.0118,0.003 0.0239,0.007 0.0357,0.0104 0.012,0.003 0.0236,0.01 0.0357,0.0133 0.36004,0.14127 0.72861,0.68555 0.2404,1.48884 -0.96852,-1.10335 -0.74957,-1.5532 -0.38622,-1.52385 z m 10.25521,0.26555 1e-5,3.5e-4 c 0.52595,4.1e-4 1.0077,0.0143 1.41846,0.0342 0.0313,-1.7e-4 0.0632,6.8e-4 0.0958,0.003 2.05411,0.12502 6.43807,3.8061 1.17777,3.7179 -2.99762,-2.72586 -7.92788,-0.22651 -10.36765,-0.15338 0.75425,1.20366 1.69887,3.32801 -0.91632,1.51353 -0.81419,-3.78853 3.37523,-4.84236 6.90724,-5.06517 0.58864,-0.0371 1.15876,-0.0512 1.68469,-0.051 z m -3.17893,5.82833 c 0.0115,-0.001 0.0234,-3e-4 0.0358,0.002 l 3.5e-4,6.8e-4 c 0.21111,0.029 0.51862,0.34806 -0.0705,0.36839 -0.12819,-0.26784 -0.0712,-0.36398 0.0296,-0.37007 0.001,-7e-5 0.003,-1.3e-4 0.005,-0.001 z m -9.94019,0.22798 v 3.4e-4 c 0.0583,-3.2e-4 0.11631,0.002 0.17429,0.005 0.81199,0.0561 1.5832,0.52119 1.93904,1.65003 -1.11714,0.27622 -1.5719,1.57539 -2.67108,1.69082 -3.5024,-0.88072 -1.59591,-3.20562 0.38313,-3.34004 0.0582,-0.003 0.11638,-0.006 0.1746,-0.006 z m 11.25212,0.94597 -10e-6,6.8e-4 c 0.0182,-6e-4 0.0364,6.9e-4 0.0555,0.004 0.46035,0.0636 1.18649,0.81293 -0.13161,0.76898 -0.25934,-0.55437 -0.15689,-0.75535 0.0442,-0.77207 0.0104,-0.001 0.0212,-0.002 0.032,-0.003 z m 3.73428,0.0303 c 0.0152,1.7e-4 0.03,0.001 0.0451,0.003 v -6.7e-4 c 0.62126,0.0768 1.11809,2.04085 -0.76384,2.70386 -0.0398,-1.98205 0.34042,-2.67722 0.70345,-2.70523 0.005,-4.3e-4 0.0105,-4e-5 0.0152,-5e-4 z"
       inkscape:export-filename="D:\0-Ryan WJ\7400\2023\0-Panitia\.konreg-kasulampua\.output-logo-kasulampua\color-h-text-transp-w.png"
       inkscape:export-xdpi="300.069"
       inkscape:export-ydpi="300.069" />
    <path
       id="path1025"
       style="fill:#e85639;fill-opacity:1;stroke-width:1.18568;stroke-linecap:round"
       d="m -179.97618,116.75062 c -3.59336,0.001 -6.48515,2.89498 -6.48393,6.48833 l 0.005,15.88656 c 0.001,3.59335 2.89498,6.48549 6.48834,6.48428 l 15.88691,-0.005 c 1.72401,-6.2e-4 3.28525,-0.6684 4.44429,-1.75845 -0.29995,-0.97849 -1.50002,-1.61413 -0.52614,-2.65725 -1.99481,-0.79759 -3.11021,-3.64604 -1.61709,-4.32561 -1.6159,0.51776 -3.94675,-0.62674 -3.51723,-1.77308 -2.59357,0.72096 -6.20709,-0.69197 -8.66438,-1.6963 0.56769,-0.32232 -4.10387,-0.70034 -2.36756,-3.08118 -1.23877,0.37921 -2.22962,6.03034 -3.62029,2.41009 1.67697,-2.10922 -5.28197,-2.85908 -0.87178,-3.33996 1.27219,-1.777 4.8113,1.01968 4.46257,-2.0983 -2.2846,-0.66414 -5.94436,3.35712 -6.14167,-0.7856 -1.42257,-1.24367 -4.89289,0.42546 -2.88444,-1.96144 0.83144,-2.45146 4.54883,-2.87998 6.83401,-1.95505 4.57805,-1.79527 1.70204,5.22472 4.09795,5.73212 0.91935,4.66431 4.07376,0.64314 5.80081,-1.19547 2.11327,-3.52859 5.53125,-4.0156 8.88915,-1.82937 0.54381,0.52061 1.33624,0.64287 2.16123,0.67377 l -6.8e-4,-2.73413 c -0.001,-3.59335 -2.89498,-6.48514 -6.48834,-6.48393 z"
       inkscape:export-filename="D:\0-Ryan WJ\7400\2023\0-Panitia\.konreg-kasulampua\.output-logo-kasulampua\color-h-text-transp-w.png"
       inkscape:export-xdpi="300.069"
       inkscape:export-ydpi="300.069" />
  </g>
</svg>
