<svg width="128" height="128" viewBox="0 0 128 128" fill="none" xmlns="http://www.w3.org/2000/svg">
<g clip-path="url(#clip0_115_2294)">
<rect width="128" height="128" rx="64" fill="#F0F0F0"/>
<path d="M110.641 80.9391C110.641 80.9706 89.8999 80.9937 64.3224 80.9937C38.745 80.9937 18 80.9706 18 80.9391C18 80.9076 38.7345 80.8845 64.3224 80.8845C89.9104 80.8845 110.641 80.9097 110.641 80.9391Z" fill="#263238"/>
<path d="M55.2903 34.3829C54.8197 34.6359 54.2848 34.7438 53.753 34.6931C53.2212 34.6424 52.7163 34.4353 52.302 34.0981C51.8878 33.7608 51.5826 33.3084 51.4251 32.7979C51.2676 32.2875 51.2648 31.7418 51.417 31.2297C51.5693 30.7177 51.8697 30.2622 52.2805 29.9206C52.6912 29.5791 53.1939 29.3669 53.7252 29.3107C54.2564 29.2545 54.7924 29.3569 55.2656 29.6049C55.7387 29.8529 56.1278 30.2355 56.3838 30.7044C56.5547 31.0175 56.662 31.3613 56.6995 31.716C56.737 32.0707 56.704 32.4293 56.6024 32.7712C56.5007 33.1131 56.3325 33.4315 56.1073 33.7081C55.8821 33.9847 55.6044 34.2141 55.2903 34.3829Z" fill="#FF9A6C"/>
<g opacity="0.3">
<path d="M55.2903 34.3829C54.8197 34.6359 54.2848 34.7438 53.753 34.6931C53.2212 34.6424 52.7163 34.4353 52.302 34.0981C51.8878 33.7608 51.5826 33.3084 51.4251 32.7979C51.2676 32.2875 51.2648 31.7418 51.417 31.2297C51.5693 30.7177 51.8697 30.2622 52.2805 29.9206C52.6912 29.5791 53.1939 29.3669 53.7252 29.3107C54.2564 29.2545 54.7924 29.3569 55.2656 29.6049C55.7387 29.8529 56.1278 30.2355 56.3838 30.7044C56.5547 31.0175 56.662 31.3613 56.6995 31.716C56.737 32.0707 56.704 32.4293 56.6024 32.7712C56.5007 33.1131 56.3325 33.4315 56.1073 33.7081C55.8821 33.9847 55.6044 34.2141 55.2903 34.3829Z" fill="#EE553F"/>
</g>
<path d="M55.0391 33.9193C54.5686 34.1722 54.0337 34.2801 53.5019 34.2294C52.9701 34.1787 52.4652 33.9716 52.0509 33.6344C51.6366 33.2971 51.3315 32.8447 51.174 32.3343C51.0165 31.8238 51.0137 31.2781 51.1659 30.7661C51.3181 30.254 51.6186 29.7985 52.0294 29.4569C52.4401 29.1154 52.9428 28.9032 53.4741 28.847C54.0053 28.7908 54.5413 28.8932 55.0144 29.1412C55.4876 29.3892 55.8767 29.7718 56.1327 30.2407C56.3036 30.5538 56.4109 30.8976 56.4484 31.2523C56.4859 31.607 56.4529 31.9656 56.3513 32.3075C56.2496 32.6494 56.0814 32.9678 55.8562 33.2444C55.631 33.521 55.3533 33.7504 55.0391 33.9193Z" fill="#FF9A6C"/>
<g opacity="0.3">
<path d="M54.5097 32.9532C54.2357 33.102 53.9236 33.1662 53.6131 33.1377C53.3026 33.1091 53.0075 32.9891 52.7651 32.7928C52.5228 32.5965 52.3441 32.3327 52.2517 32.0349C52.1593 31.7371 52.1573 31.4185 52.246 31.1195C52.3347 30.8205 52.51 30.5546 52.7499 30.3553C52.9897 30.1559 53.2833 30.0322 53.5934 29.9998C53.9036 29.9674 54.2164 30.0276 54.4923 30.173C54.7682 30.3183 54.9948 30.5423 55.1434 30.8164C55.3426 31.1838 55.3877 31.6153 55.2689 32.016C55.1501 32.4167 54.877 32.7538 54.5097 32.9532Z" fill="white"/>
</g>
<path d="M54.2392 32.4393C54.0644 32.534 53.8655 32.5747 53.6676 32.5563C53.4696 32.5379 53.2816 32.4612 53.1273 32.3359C52.973 32.2105 52.8593 32.0423 52.8007 31.8523C52.7421 31.6624 52.7411 31.4593 52.7979 31.2688C52.8548 31.0783 52.9668 30.909 53.1199 30.7822C53.273 30.6554 53.4603 30.5769 53.6581 30.5566C53.8558 30.5363 54.0551 30.5751 54.2308 30.6682C54.4065 30.7612 54.5506 30.9042 54.6449 31.0792C54.708 31.1951 54.7475 31.3223 54.7612 31.4534C54.775 31.5846 54.7626 31.7172 54.7249 31.8436C54.6872 31.97 54.6249 32.0877 54.5415 32.19C54.4582 32.2922 54.3554 32.377 54.2392 32.4393Z" fill="#FF9A6C"/>
<path d="M80.5436 46.7744C81.8871 46.1116 82.4389 44.4852 81.7761 43.1417C81.1133 41.7982 79.4868 41.2464 78.1433 41.9092C76.7999 42.5721 76.2481 44.1985 76.9109 45.542C77.5737 46.8855 79.2002 47.4372 80.5436 46.7744Z" fill="#FF9A6C"/>
<g opacity="0.3">
<path d="M80.5436 46.7744C81.8871 46.1116 82.4389 44.4852 81.7761 43.1417C81.1132 41.7982 79.4868 41.2464 78.1433 41.9092C76.7998 42.5721 76.248 44.1985 76.9109 45.542C77.5737 46.8855 79.2001 47.4373 80.5436 46.7744Z" fill="#EE553F"/>
</g>
<path d="M80.3832 46.2763C79.9126 46.5293 79.3777 46.6372 78.8459 46.5865C78.3141 46.5358 77.8093 46.3287 77.395 45.9915C76.9807 45.6542 76.6756 45.2018 76.5181 44.6913C76.3606 44.1809 76.3577 43.6352 76.51 43.1231C76.6622 42.6111 76.9626 42.1556 77.3734 41.814C77.7842 41.4725 78.2869 41.2603 78.8181 41.2041C79.3494 41.1479 79.8854 41.2503 80.3585 41.4983C80.8316 41.7463 81.2207 42.1289 81.4767 42.5978C81.6476 42.9109 81.7549 43.2547 81.7924 43.6094C81.83 43.9641 81.7969 44.3227 81.6953 44.6646C81.5937 45.0065 81.4254 45.3249 81.2002 45.6015C80.975 45.8781 80.6974 46.1075 80.3832 46.2763Z" fill="#FF9A6C"/>
<g opacity="0.3">
<path d="M80.6137 44.3664C80.863 43.5344 80.3906 42.6578 79.5586 42.4085C78.7266 42.1592 77.85 42.6316 77.6007 43.4636C77.3514 44.2956 77.8238 45.1722 78.6558 45.4215C79.4878 45.6708 80.3644 45.1984 80.6137 44.3664Z" fill="white"/>
</g>
<path d="M79.5833 44.7964C79.4085 44.8907 79.2098 44.931 79.0121 44.9124C78.8144 44.8938 78.6267 44.817 78.4726 44.6917C78.3185 44.5665 78.205 44.3984 78.1464 44.2087C78.0879 44.0189 78.0868 43.8161 78.1434 43.6258C78.2 43.4355 78.3118 43.2662 78.4645 43.1393C78.6173 43.0125 78.8042 42.9337 79.0017 42.913C79.1992 42.8923 79.3983 42.9306 79.5741 43.0231C79.7498 43.1155 79.8942 43.258 79.989 43.4324C80.0522 43.5486 80.0918 43.676 80.1055 43.8075C80.1193 43.939 80.107 44.0719 80.0693 44.1986C80.0316 44.3254 79.9693 44.4434 79.8859 44.546C79.8025 44.6485 79.6997 44.7337 79.5833 44.7964Z" fill="#FF9A6C"/>
<path d="M64.815 89.4761C71.1531 89.4761 76.2912 87.8862 76.2912 85.9251C76.2912 83.9639 71.1531 82.374 64.815 82.374C58.477 82.374 53.3389 83.9639 53.3389 85.9251C53.3389 87.8862 58.477 89.4761 64.815 89.4761Z" fill="#EBEBEB"/>
<path d="M76.2912 85.925C76.2728 85.7569 76.2285 85.5927 76.1598 85.4382C75.9191 85.0099 75.5629 84.6578 75.1319 84.4219C74.0539 83.7457 72.261 83.1777 70.0121 82.8338C67.3655 82.4467 64.6836 82.3599 62.0175 82.5749C60.4448 82.6867 58.8852 82.9388 57.3575 83.3284C56.5577 83.5319 55.7808 83.8167 55.0391 84.1785C54.6627 84.3639 54.3131 84.5991 53.9996 84.8779C53.8406 85.0054 53.7092 85.1641 53.6135 85.3441C53.5178 85.5242 53.4599 85.7218 53.4432 85.925C53.4603 86.1277 53.518 86.3249 53.6129 86.5048C53.7079 86.6847 53.8381 86.8437 53.9958 86.9722C54.3097 87.2493 54.6593 87.4832 55.0352 87.6677C55.7771 88.0301 56.5539 88.3162 57.3536 88.5217C58.8827 88.911 60.4435 89.1631 62.0175 89.2751C64.6836 89.4902 67.3655 89.4034 70.0121 89.0162C72.2648 88.6723 74.0539 88.1043 75.1319 87.4281C75.5601 87.1912 75.9134 86.8392 76.1521 86.4119C76.2208 86.2574 76.2651 86.0931 76.2834 85.925C76.2886 85.9687 76.2886 86.0128 76.2834 86.0564C76.2754 86.1901 76.2427 86.3211 76.1868 86.4428C75.9586 86.887 75.6071 87.2559 75.1744 87.5054C74.0925 88.2125 72.2958 88.8037 70.0314 89.1669C67.3757 89.5776 64.6813 89.68 62.002 89.4722C60.4164 89.3645 58.8438 89.1136 57.3034 88.7226C56.4843 88.5183 55.6891 88.2282 54.9309 87.857C54.5373 87.6659 54.1719 87.4215 53.8451 87.1306C53.6537 86.9958 53.4976 86.8169 53.3898 86.6091C53.282 86.4014 53.2258 86.1707 53.2258 85.9366C53.2258 85.7025 53.282 85.4719 53.3898 85.2641C53.4976 85.0563 53.6537 84.8775 53.8451 84.7426C54.1728 84.4519 54.538 84.2063 54.9309 84.0124C55.6894 83.6431 56.4846 83.3543 57.3034 83.1507C58.8409 82.7562 60.4109 82.5014 61.9943 82.3895C64.6736 82.1816 67.3679 82.2841 70.0237 82.6947C72.288 83.0579 74.0848 83.6491 75.1667 84.3562C75.5993 84.6057 75.9508 84.9747 76.1791 85.4188C76.2349 85.5406 76.2677 85.6716 76.2757 85.8052C76.2852 85.8445 76.2904 85.8847 76.2912 85.925Z" fill="#263238"/>
<path d="M63.9959 69.2788C81.5377 69.2788 95.7581 64.4557 95.7581 58.506C95.7581 52.5563 81.5377 47.7331 63.9959 47.7331C46.4541 47.7331 32.2337 52.5563 32.2337 58.506C32.2337 64.4557 46.4541 69.2788 63.9959 69.2788Z" fill="#EBEBEB"/>
<path d="M32.2414 58.8421C32.2414 74.02 46.6812 87.1345 64.2857 87.1345C81.8901 87.1345 95.7658 73.707 95.7658 58.5408L32.2414 58.8421Z" fill="#EBEBEB"/>
<path d="M93.347 58.8421C93.347 62.455 80.5532 67.3159 63.3004 67.3159C47.2068 67.3159 35.777 62.9341 34.8883 59.642C33.5243 54.5685 48.5012 49.5955 64.5948 49.5376C80.816 49.4835 93.347 55.4109 93.347 58.8421Z" fill="#E0E0E0"/>
<path d="M36.0166 61.2301C40.6534 64.8661 51.5074 67.2541 63.9341 67.2541C77.52 67.2541 89.0039 64.2131 92.7945 60.0245C90.0626 55.3877 78.5362 51.9101 64.734 51.9101C49.9039 51.8869 37.512 56.0794 36.0166 61.2301Z" fill="#EE553F"/>
<path d="M70.2285 78.0463C70.0001 78.045 69.7723 78.0217 69.5484 77.9768C68.536 77.7836 67.5391 77.0996 66.577 76.4312C65.383 75.612 64.1542 74.7658 62.9603 74.9126C62.1875 75.0092 61.5035 75.4961 60.8351 75.9636C60.0429 76.52 59.216 77.088 58.2307 77.0726C57.1372 77.0455 56.2987 76.2998 55.495 75.6004C54.757 74.9512 54.0614 74.3369 53.1766 74.2093C52.1449 74.0587 51.1943 74.6267 50.1897 75.2295C49.1232 75.8632 48.022 76.52 46.8087 76.238C45.5954 75.9559 44.8767 74.8469 44.2043 73.7766C43.5706 72.7719 42.9717 71.8253 41.9709 71.4852C41.1981 71.2225 40.3326 71.3693 39.5057 71.5123C38.416 71.6977 37.2916 71.8987 36.3759 71.1259C36.1495 70.9102 35.952 70.666 35.7885 70.3994C35.4021 69.8082 35.0969 69.4334 34.7375 69.6034L34.5714 69.2557C35.2553 68.9311 35.7306 69.6421 36.117 70.1831C36.2603 70.419 36.433 70.6358 36.6309 70.8283C37.4037 71.4736 38.3967 71.3075 39.4477 71.1259C40.3249 70.9752 41.229 70.8206 42.1023 71.1259C43.2345 71.5123 43.8952 72.5594 44.5366 73.5757C45.1781 74.5919 45.8234 75.6159 46.9053 75.867C47.9872 76.1182 48.9532 75.5231 49.9965 74.901C51.0398 74.2789 52.0676 73.6607 53.2345 73.8307C54.2276 73.9737 55.0004 74.6537 55.75 75.3145C56.4996 75.9752 57.2956 76.6669 58.2346 76.69C59.1001 76.7132 59.8343 76.1955 60.6071 75.6506C61.3142 75.156 62.0445 74.6421 62.9255 74.5339C64.2586 74.3678 65.553 75.2565 66.7895 76.1143C67.7207 76.7557 68.6867 77.4204 69.618 77.5981C71.2177 77.9072 72.2494 76.976 73.3467 75.9945C74.4441 75.0131 75.5299 74.0277 77.2378 74.1359C78.057 74.1862 78.9341 74.6692 79.7803 75.1367C80.6265 75.6043 81.4457 76.0525 82.0987 76.0216C83.3004 75.9597 84.081 74.9203 84.9079 73.8191C85.6304 72.8647 86.3762 71.8871 87.4504 71.5007C88.6792 71.0525 90.5416 71.7287 91.7626 72.1769L91.6313 72.5401C90.5262 72.1537 88.6791 71.4659 87.5856 71.8639C86.6158 72.2155 85.9048 73.1583 85.217 74.0702C84.3708 75.1908 83.4975 76.35 82.1258 76.4234C81.353 76.4698 80.4913 75.9907 79.5833 75.4883C78.7757 75.044 77.9411 74.5842 77.2069 74.5378C75.6613 74.4451 74.6566 75.3415 73.594 76.2959C72.6396 77.1499 71.6543 78.0463 70.2285 78.0463Z" fill="white"/>
<path d="M81.7665 73.4945C81.8946 73.4945 82.0175 73.4436 82.1081 73.353C82.1987 73.2624 82.2495 73.1396 82.2495 73.0115C82.2495 72.8834 82.1987 72.7605 82.1081 72.6699C82.0175 72.5794 81.8946 72.5285 81.7665 72.5285C81.6384 72.5285 81.5156 72.5794 81.425 72.6699C81.3344 72.7605 81.2835 72.8834 81.2835 73.0115C81.2835 73.1396 81.3344 73.2624 81.425 73.353C81.5156 73.4436 81.6384 73.4945 81.7665 73.4945Z" fill="white"/>
<path d="M70.1088 75.071H70.186C70.2506 75.0746 70.3149 75.0598 70.3715 75.0285C70.4295 75.0062 70.4821 74.9719 70.526 74.928C70.57 74.8841 70.6042 74.8314 70.6265 74.7735C70.6579 74.7169 70.6726 74.6526 70.669 74.588V74.4605C70.6466 74.3794 70.6025 74.3059 70.5415 74.248L70.4449 74.1707C70.3711 74.1274 70.287 74.1048 70.2015 74.105H70.1088C70.0429 74.1011 69.9773 74.1158 69.9194 74.1475C69.8595 74.1659 69.806 74.2007 69.7648 74.248C69.7181 74.2895 69.6834 74.3429 69.6644 74.4025C69.6344 74.4595 69.621 74.5238 69.6257 74.588V74.7155C69.6483 74.7957 69.6908 74.8688 69.7494 74.928L69.846 75.0053C69.9214 75.0482 70.0066 75.0708 70.0933 75.071H70.1088Z" fill="white"/>
<path d="M76.9944 77.6792C77.1225 77.6792 77.2454 77.6283 77.3359 77.5378C77.4265 77.4472 77.4774 77.3243 77.4774 77.1962C77.4774 77.0681 77.4265 76.9453 77.3359 76.8547C77.2454 76.7641 77.1225 76.7132 76.9944 76.7132C76.8663 76.7132 76.7435 76.7641 76.6529 76.8547C76.5623 76.9453 76.5114 77.0681 76.5114 77.1962C76.5114 77.3243 76.5623 77.4472 76.6529 77.5378C76.7435 77.6283 76.8663 77.6792 76.9944 77.6792Z" fill="white"/>
<path d="M91.8824 70.2062C92.0105 70.2062 92.1334 70.1553 92.224 70.0647C92.3145 69.9742 92.3654 69.8513 92.3654 69.7232C92.3654 69.5951 92.3145 69.4723 92.224 69.3817C92.1334 69.2911 92.0105 69.2402 91.8824 69.2402C91.7543 69.2402 91.6315 69.2911 91.5409 69.3817C91.4503 69.4723 91.3994 69.5951 91.3994 69.7232C91.3994 69.8513 91.4503 69.9742 91.5409 70.0647C91.6315 70.1553 91.7543 70.2062 91.8824 70.2062Z" fill="white"/>
<path d="M88.003 75.071C88.1311 75.071 88.254 75.0201 88.3445 74.9295C88.4351 74.8389 88.486 74.7161 88.486 74.588C88.486 74.4599 88.4351 74.337 88.3445 74.2464C88.254 74.1559 88.1311 74.105 88.003 74.105C87.8749 74.105 87.752 74.1559 87.6614 74.2464C87.5709 74.337 87.52 74.4599 87.52 74.588C87.52 74.7161 87.5709 74.8389 87.6614 74.9295C87.752 75.0201 87.8749 75.071 88.003 75.071Z" fill="white"/>
<path d="M63.3003 77.8763C63.4284 77.8763 63.5513 77.8254 63.6419 77.7348C63.7324 77.6442 63.7833 77.5214 63.7833 77.3933C63.7833 77.2652 63.7324 77.1423 63.6419 77.0517C63.5513 76.9612 63.4284 76.9103 63.3003 76.9103C63.1722 76.9103 63.0494 76.9612 62.9588 77.0517C62.8682 77.1423 62.8173 77.2652 62.8173 77.3933C62.8173 77.5214 62.8682 77.6442 62.9588 77.7348C63.0494 77.8254 63.1722 77.8763 63.3003 77.8763Z" fill="white"/>
<path d="M57.6975 74.1282C57.8256 74.1282 57.9485 74.0773 58.0391 73.9867C58.1297 73.8961 58.1805 73.7733 58.1805 73.6452C58.1805 73.5171 58.1297 73.3942 58.0391 73.3036C57.9485 73.2131 57.8256 73.1622 57.6975 73.1622C57.5694 73.1622 57.4466 73.2131 57.356 73.3036C57.2654 73.3942 57.2145 73.5171 57.2145 73.6452C57.2145 73.7733 57.2654 73.8961 57.356 73.9867C57.4466 74.0773 57.5694 74.1282 57.6975 74.1282Z" fill="white"/>
<path d="M52.4115 77.3237C52.5396 77.3237 52.6625 77.2728 52.7531 77.1823C52.8436 77.0917 52.8945 76.9688 52.8945 76.8407C52.8945 76.7126 52.8436 76.5898 52.7531 76.4992C52.6625 76.4086 52.5396 76.3577 52.4115 76.3577C52.2834 76.3577 52.1606 76.4086 52.07 76.4992C51.9794 76.5898 51.9285 76.7126 51.9285 76.8407C51.9285 76.9688 51.9794 77.0917 52.07 77.1823C52.1606 77.2728 52.2834 77.3237 52.4115 77.3237Z" fill="white"/>
<path d="M47.5158 72.826C47.6439 72.826 47.7668 72.7751 47.8574 72.6846C47.948 72.594 47.9988 72.4711 47.9988 72.343C47.9988 72.2149 47.948 72.0921 47.8574 72.0015C47.7668 71.9109 47.6439 71.86 47.5158 71.86C47.3877 71.86 47.2649 71.9109 47.1743 72.0015C47.0837 72.0921 47.0328 72.2149 47.0328 72.343C47.0328 72.4711 47.0837 72.594 47.1743 72.6846C47.2649 72.7751 47.3877 72.826 47.5158 72.826Z" fill="white"/>
<path d="M40.808 74.4025C40.9361 74.4025 41.0589 74.3517 41.1495 74.2611C41.2401 74.1705 41.291 74.0476 41.291 73.9195C41.291 73.7914 41.2401 73.6686 41.1495 73.578C41.0589 73.4874 40.9361 73.4365 40.808 73.4365C40.6799 73.4365 40.557 73.4874 40.4664 73.578C40.3759 73.6686 40.325 73.7914 40.325 73.9195C40.325 74.0476 40.3759 74.1705 40.4664 74.2611C40.557 74.3517 40.6799 74.4025 40.808 74.4025Z" fill="white"/>
<path d="M38.1263 69.8662C38.2544 69.8662 38.3773 69.8153 38.4678 69.7247C38.5584 69.6341 38.6093 69.5113 38.6093 69.3832C38.6093 69.2551 38.5584 69.1322 38.4678 69.0416C38.3773 68.9511 38.2544 68.9002 38.1263 68.9002C37.9982 68.9002 37.8754 68.9511 37.7848 69.0416C37.6942 69.1322 37.6433 69.2551 37.6433 69.3832C37.6433 69.5113 37.6942 69.6341 37.7848 69.7247C37.8754 69.8153 37.9982 69.8662 38.1263 69.8662Z" fill="white"/>
<path d="M95.7581 58.506C95.7319 58.0272 95.6315 57.5553 95.4606 57.1072C95.2482 56.5665 94.945 56.0659 94.5641 55.6273C94.0546 55.0198 93.4674 54.4819 92.8176 54.0276C91.0222 52.7903 89.0586 51.8169 86.9868 51.1373C84.2586 50.1971 81.4564 49.4875 78.6096 49.016C75.1597 48.4218 71.6747 48.0539 68.1768 47.9147C64.1662 47.7356 60.1482 47.8169 56.1481 48.1582C54.0345 48.3398 51.8784 48.6102 49.6913 48.9851C47.459 49.3579 45.2512 49.865 43.08 50.5036C40.8258 51.1382 38.6526 52.0315 36.6039 53.1659C35.567 53.7483 34.6185 54.4756 33.787 55.3259C33.3761 55.7586 33.0311 56.2495 32.7631 56.7826C32.4877 57.314 32.3439 57.9037 32.3439 58.5021C32.3439 59.1006 32.4877 59.6903 32.7631 60.2216C33.032 60.7554 33.3769 61.2474 33.787 61.6822C34.6232 62.5337 35.577 63.2611 36.6193 63.8422C38.669 64.9785 40.8435 65.8732 43.0993 66.5084C45.2708 67.146 47.4785 67.6531 49.7106 68.0269C51.8977 68.4133 54.0538 68.6722 56.1674 68.8538C60.1675 69.1951 64.1855 69.2764 68.1961 69.0973C71.6938 68.9561 75.1788 68.5883 78.6289 67.996C81.4755 67.5236 84.2777 66.814 87.0061 65.8747C89.0776 65.1943 91.0411 64.221 92.8369 62.9844C93.4867 62.5301 94.074 61.9922 94.5835 61.3847C94.964 60.945 95.2683 60.4448 95.4838 59.9048C95.6529 59.4563 95.7519 58.9846 95.7774 58.506C95.7774 58.506 95.7774 58.6296 95.7774 58.8731C95.7774 58.931 95.7774 59.0006 95.7774 59.074C95.7774 59.1474 95.7465 59.2324 95.7272 59.3174C95.7079 59.4024 95.6847 59.5029 95.6654 59.6034L95.5495 59.9202C95.3418 60.4686 95.0412 60.9771 94.6607 61.4233C94.1523 62.0386 93.5651 62.5843 92.9142 63.0462C91.1192 64.2994 89.1527 65.2872 87.0757 65.979C84.3453 66.9335 81.5391 67.6547 78.6869 68.1351C75.2123 68.7453 71.7014 69.1261 68.1768 69.275C64.1589 69.4628 60.133 69.388 56.1249 69.0509C54.0074 68.8693 51.8436 68.6027 49.6527 68.2279C47.4114 67.8555 45.1946 67.3484 43.0143 66.7093C40.7436 66.0659 38.5549 65.1622 36.4918 64.0161C35.4334 63.4242 34.4641 62.6853 33.6131 61.8213C33.1887 61.3718 32.8321 60.8628 32.5544 60.3105C32.2663 59.7512 32.116 59.1312 32.116 58.5021C32.116 57.873 32.2663 57.253 32.5544 56.6938C32.8322 56.1426 33.1888 55.635 33.6131 55.1868C34.4641 54.3228 35.4334 53.5839 36.4918 52.992C38.5553 51.8505 40.744 50.9519 43.0143 50.3143C45.1996 49.6745 47.4216 49.1673 49.6681 48.7957C51.859 48.4093 54.0229 48.1543 56.1404 47.9727C60.1485 47.6363 64.1742 47.5601 68.1922 47.7447C71.6906 47.8947 75.1755 48.2716 78.6251 48.873C81.4783 49.3559 84.2858 50.0785 87.0177 51.033C89.0942 51.7245 91.0605 52.7109 92.8562 53.9619C93.5073 54.4252 94.0945 54.9721 94.6028 55.5887C94.984 56.0343 95.2848 56.5429 95.4915 57.0918C95.534 57.2038 95.5726 57.3081 95.6074 57.4086C95.6422 57.5091 95.6499 57.6057 95.6692 57.6907C95.6886 57.7757 95.704 57.8607 95.7195 57.9341C95.7349 58.0075 95.7195 58.0771 95.7195 58.1389C95.7581 58.3823 95.7581 58.506 95.7581 58.506Z" fill="#263238"/>
<path d="M64.5948 49.526H64.9232H65.8893C66.7393 49.526 67.9952 49.5646 69.6064 49.6767C71.2177 49.7887 73.1845 49.9858 75.4488 50.3529C78.0153 50.7672 80.5498 51.3598 83.0339 52.1265C84.4805 52.5708 85.8998 53.0998 87.2843 53.7107C88.7932 54.3512 90.2201 55.1697 91.5347 56.1489C92.2513 56.6595 92.8387 57.3303 93.2504 58.108C93.2929 58.2123 93.3238 58.3243 93.3585 58.4325C93.3866 58.5452 93.4034 58.6604 93.4088 58.7764C93.4144 59.0094 93.3764 59.2414 93.2967 59.4604C93.12 59.8949 92.8571 60.2893 92.5239 60.6196C91.8627 61.2687 91.1135 61.8215 90.2982 62.2618C89.4716 62.7213 88.6173 63.1291 87.7403 63.4828C85.9221 64.2095 84.055 64.8073 82.1529 65.2719C80.2209 65.7626 78.2077 66.1606 76.1559 66.4736C71.9124 67.1136 67.6267 67.4326 63.3351 67.428C59.0435 67.4401 54.7576 67.1106 50.5182 66.4427C48.502 66.12 46.5042 65.6918 44.5328 65.1598C42.6388 64.6597 40.7904 64.0005 39.0073 63.1891C38.1456 62.7935 37.3217 62.3202 36.5459 61.7749C36.1612 61.5085 35.8074 61.2001 35.4911 60.8553C35.157 60.5217 34.9091 60.112 34.7685 59.6613C34.6601 59.2081 34.6681 58.7349 34.7917 58.2857C34.8193 58.1751 34.8582 58.0677 34.9076 57.965C34.9436 57.8576 34.9902 57.7541 35.0467 57.6559C35.1504 57.4572 35.272 57.2684 35.4099 57.0917C35.9554 56.4079 36.6078 55.8169 37.3419 55.3413C38.7217 54.4465 40.1981 53.7102 41.743 53.1466C43.1583 52.6147 44.6002 52.1569 46.063 51.7748C48.578 51.1193 51.1304 50.616 53.706 50.2679C55.9781 49.9549 57.9564 49.7849 59.56 49.6844C62.7826 49.4873 64.5832 49.5492 64.5832 49.5492C64.5832 49.5492 64.4712 49.5492 64.2548 49.5492L63.2888 49.5724C62.4387 49.5955 61.1868 49.6342 59.5793 49.7462C57.9719 49.8583 56.0051 50.0399 53.7369 50.3645C51.1683 50.7264 48.6237 51.2425 46.1171 51.9101C44.6588 52.2932 43.2219 52.7536 41.8126 53.2895C40.2817 53.8527 38.8185 54.585 37.4501 55.4727C36.7355 55.9407 36.1002 56.5199 35.5683 57.1883C35.4365 57.3601 35.3189 57.5423 35.2167 57.7332C35.1651 57.8274 35.1212 57.9256 35.0853 58.0268C35.0395 58.1249 35.0033 58.2271 34.9771 58.3321C34.8688 58.7528 34.8688 59.1942 34.9771 59.6149C35.1102 60.0367 35.3436 60.4198 35.6572 60.7316C35.9668 61.0652 36.3114 61.3645 36.685 61.6242C37.4523 62.1612 38.2672 62.6268 39.1194 63.0153C40.8908 63.8132 42.7263 64.4608 44.6063 64.9511C46.5708 65.4811 48.5624 65.9054 50.5723 66.2224C54.8014 66.8892 59.077 67.2174 63.3583 67.2039C67.6393 67.2091 71.9147 66.8927 76.1482 66.2572C78.1961 65.9442 80.1977 65.5501 82.1297 65.0632C84.0231 64.6008 85.8822 64.0082 87.6939 63.2896C88.5639 62.9413 89.4106 62.5373 90.2287 62.0802C91.0295 61.6494 91.7668 61.1097 92.4196 60.4766C92.7282 60.1669 92.9725 59.7992 93.1383 59.3947C93.2144 59.1984 93.2502 58.9887 93.2435 58.7783C93.2369 58.5679 93.188 58.3609 93.0997 58.1698C92.703 57.4153 92.1337 56.7652 91.4381 56.2726C90.1309 55.2969 88.7117 54.481 87.2109 53.8421C85.835 53.2404 84.4262 52.7166 82.9914 52.2733C80.5155 51.4997 77.9888 50.8993 75.4295 50.4765C73.1691 50.0901 71.2061 49.8892 69.5987 49.7656C67.9913 49.6419 66.7393 49.5994 65.8893 49.5801H64.9232L64.5948 49.526Z" fill="#263238"/>
<path d="M45.522 62.54C46.3522 62.54 47.0252 61.867 47.0252 61.0369C47.0252 60.2068 46.3522 59.5338 45.522 59.5338C44.6919 59.5338 44.019 60.2068 44.019 61.0369C44.019 61.867 44.6919 62.54 45.522 62.54Z" fill="#455A64"/>
<path d="M44.7994 61.6319C44.7994 61.6319 44.6951 61.5663 44.5985 61.404C44.4744 61.1849 44.4293 60.9298 44.471 60.6814C44.5204 60.431 44.6574 60.2063 44.8574 60.0477C44.9314 59.9756 45.0235 59.9248 45.124 59.9009C45.124 59.9009 45.0274 59.9627 44.896 60.0902C44.727 60.2525 44.6123 60.463 44.5676 60.693C44.5307 60.9259 44.5658 61.1645 44.6681 61.3769C44.726 61.5469 44.8072 61.6242 44.7994 61.6319Z" fill="white"/>
<path d="M43.0877 60.6157C43.6682 61.0241 44.345 61.2745 45.0516 61.3422C45.7582 61.41 46.4703 61.2928 47.1178 61.0021C47.342 60.8978 47.6318 60.7741 47.8172 60.9403C47.8711 60.9911 47.9092 61.0564 47.9271 61.1284C47.9449 61.2003 47.9416 61.2759 47.9177 61.346C47.8677 61.4845 47.7871 61.6099 47.682 61.7131C47.2161 62.1942 46.6119 62.5183 45.9533 62.6401C45.2947 62.762 44.6145 62.6757 44.0073 62.3931C43.7114 62.2589 43.4557 62.0498 43.2654 61.7865C43.1716 61.6541 43.1104 61.5015 43.0869 61.341C43.0634 61.1805 43.0782 61.0167 43.1302 60.863" fill="#EE553F"/>
<path d="M77.4813 62.795C77.4813 63.0923 77.3932 63.3829 77.228 63.6301C77.0628 63.8773 76.8281 64.0699 76.5534 64.1837C76.2788 64.2975 75.9766 64.3272 75.685 64.2692C75.3934 64.2112 75.1256 64.0681 74.9154 63.8579C74.7052 63.6477 74.562 63.3798 74.504 63.0883C74.446 62.7967 74.4758 62.4945 74.5895 62.2198C74.7033 61.9452 74.896 61.7104 75.1432 61.5452C75.3903 61.3801 75.6809 61.2919 75.9782 61.2919C76.3769 61.2919 76.7592 61.4503 77.0411 61.7322C77.323 62.014 77.4813 62.3964 77.4813 62.795Z" fill="#455A64"/>
<path d="M75.2556 63.3901C75.2556 63.3901 75.1513 63.3283 75.0547 63.1622C74.9275 62.944 74.8822 62.6877 74.9268 62.4392C74.9714 62.1907 75.103 61.9662 75.2981 61.8059C75.371 61.7323 75.4636 61.6813 75.5648 61.6591C75.5648 61.6591 75.4643 61.7209 75.3368 61.8484C75.1658 62.0107 75.0508 62.2231 75.0083 62.455C74.9693 62.6863 75.0031 62.9239 75.1049 63.1351C75.1861 63.2974 75.2672 63.3824 75.2556 63.3901Z" fill="white"/>
<path d="M73.5438 62.3738C74.1241 62.783 74.8009 63.0338 75.5077 63.1016C76.2144 63.1693 76.9266 63.0517 77.574 62.7602C77.802 62.6559 78.0879 62.5361 78.2773 62.6984C78.3286 62.751 78.3647 62.8165 78.3817 62.8879C78.3987 62.9594 78.396 63.0341 78.3739 63.1041C78.3248 63.2431 78.2441 63.3688 78.1382 63.4712C77.6732 63.9539 77.0689 64.2789 76.4099 64.4009C75.751 64.5229 75.0703 64.4356 74.4635 64.1513C74.1668 64.0183 73.9108 63.809 73.7216 63.5446C73.6284 63.412 73.5679 63.2591 73.5451 63.0986C73.5223 62.9381 73.5377 62.7745 73.5902 62.6211" fill="#EE553F"/>
<path d="M53.9765 63.1389C53.9765 63.3682 53.9085 63.5923 53.7811 63.7829C53.6538 63.9736 53.4727 64.1221 53.2609 64.2099C53.0491 64.2976 52.816 64.3206 52.5911 64.2758C52.3663 64.2311 52.1597 64.1207 51.9976 63.9586C51.8355 63.7965 51.7251 63.5899 51.6804 63.3651C51.6356 63.1402 51.6586 62.9071 51.7463 62.6953C51.8341 62.4835 51.9826 62.3024 52.1733 62.1751C52.3639 62.0477 52.588 61.9797 52.8173 61.9797C53.1247 61.9797 53.4196 62.1018 53.637 62.3192C53.8544 62.5366 53.9765 62.8315 53.9765 63.1389Z" fill="#455A64"/>
<path d="M52.2802 63.5949C52.2802 63.5949 52.1991 63.5485 52.1218 63.421C52.0228 63.2543 51.9871 63.0576 52.0211 62.8668C52.0552 62.676 52.1567 62.5037 52.3073 62.3816C52.4232 62.2889 52.5121 62.2657 52.5159 62.2734C52.4081 62.34 52.3155 62.4285 52.2443 62.5333C52.1731 62.6381 52.1247 62.7567 52.1025 62.8814C52.0802 63.0062 52.0846 63.1342 52.1152 63.2571C52.1458 63.3801 52.202 63.4952 52.2802 63.5949Z" fill="white"/>
<path d="M50.978 62.8182C51.4211 63.1286 51.9375 63.3181 52.4761 63.3683C53.0148 63.4184 53.5572 63.3274 54.0499 63.1041C54.22 63.023 54.4363 62.9303 54.5832 63.0539C54.623 63.0935 54.6509 63.1434 54.6639 63.198C54.6769 63.2526 54.6744 63.3098 54.6566 63.363C54.6186 63.4689 54.5579 63.5651 54.4788 63.6451C54.1235 64.0117 53.6629 64.2585 53.1608 64.3513C52.6588 64.4441 52.1403 64.3783 51.6774 64.1629C51.4526 64.0595 51.2583 63.8997 51.1133 63.6992C51.0415 63.5986 50.9949 63.4822 50.9775 63.3598C50.96 63.2374 50.9721 63.1127 51.0128 62.9959" fill="#EE553F"/>
<path d="M80.7233 59.4295C81.3549 59.4295 81.867 58.9174 81.867 58.2857C81.867 57.6541 81.3549 57.142 80.7233 57.142C80.0916 57.142 79.5795 57.6541 79.5795 58.2857C79.5795 58.9174 80.0916 59.4295 80.7233 59.4295Z" fill="#455A64"/>
<path d="M80.1745 58.7417C80.1745 58.7417 80.0895 58.6953 80.0161 58.5678C79.9147 58.4018 79.8775 58.2044 79.9117 58.0129C79.9459 57.8214 80.049 57.649 80.2016 57.5284C80.3136 57.4356 80.4025 57.4124 80.4064 57.4202C80.2984 57.4866 80.2057 57.5752 80.1345 57.6801C80.0633 57.7851 80.0151 57.9039 79.9932 58.0288C79.9713 58.1537 79.9761 58.2818 80.0074 58.4047C80.0386 58.5276 80.0956 58.6424 80.1745 58.7417Z" fill="white"/>
<path d="M78.8684 57.965C79.3115 58.2754 79.8278 58.4649 80.3665 58.5151C80.9051 58.5652 81.4475 58.4742 81.9403 58.2509C82.1103 58.1698 82.3267 58.077 82.4735 58.2007C82.5133 58.2403 82.5413 58.2902 82.5543 58.3448C82.5673 58.3994 82.5647 58.4566 82.547 58.5098C82.5104 58.6164 82.4495 58.7129 82.3692 58.7919C82.0148 59.1587 81.5548 59.4057 81.0533 59.4985C80.5518 59.5913 80.0338 59.5253 79.5717 59.3097C79.341 59.2088 79.142 59.0472 78.9959 58.8421C78.9242 58.7415 78.8776 58.6251 78.8601 58.5027C78.8426 58.3804 78.8547 58.2556 78.8955 58.1389" fill="#EE553F"/>
<path d="M61.577 63.3746C61.577 63.837 61.4399 64.2889 61.1831 64.6734C60.9262 65.0578 60.5611 65.3574 60.1339 65.5344C59.7068 65.7113 59.2367 65.7576 58.7832 65.6674C58.3298 65.5772 57.9132 65.3546 57.5863 65.0276C57.2594 64.7007 57.0367 64.2841 56.9465 63.8307C56.8563 63.3772 56.9026 62.9072 57.0795 62.48C57.2565 62.0528 57.5561 61.6877 57.9405 61.4308C58.325 61.174 58.777 61.0369 59.2393 61.0369C59.8593 61.0369 60.4539 61.2832 60.8923 61.7216C61.3308 62.16 61.577 62.7546 61.577 63.3746Z" fill="#FF9A6C"/>
<g opacity="0.3">
<path d="M61.577 63.3746C61.577 63.837 61.4399 64.2889 61.1831 64.6734C60.9262 65.0578 60.5611 65.3574 60.1339 65.5344C59.7068 65.7113 59.2367 65.7576 58.7832 65.6674C58.3298 65.5772 57.9132 65.3546 57.5863 65.0276C57.2594 64.7007 57.0367 64.2841 56.9465 63.8307C56.8563 63.3772 56.9026 62.9072 57.0795 62.48C57.2565 62.0528 57.5561 61.6877 57.9405 61.4308C58.325 61.174 58.777 61.0369 59.2393 61.0369C59.8593 61.0369 60.4539 61.2832 60.8923 61.7216C61.3308 62.16 61.577 62.7546 61.577 63.3746Z" fill="#EE553F"/>
</g>
<path d="M61.1211 63.3746C61.1211 63.837 60.984 64.2889 60.7271 64.6734C60.4702 65.0578 60.1051 65.3574 59.678 65.5344C59.2508 65.7113 58.7808 65.7576 58.3273 65.6674C57.8738 65.5772 57.4573 65.3546 57.1303 65.0276C56.8034 64.7007 56.5807 64.2841 56.4905 63.8307C56.4003 63.3772 56.4466 62.9072 56.6236 62.48C56.8005 62.0528 57.1001 61.6877 57.4846 61.4308C57.869 61.174 58.321 61.0369 58.7833 61.0369C59.4034 61.0369 59.998 61.2832 60.4364 61.7216C60.8748 62.16 61.1211 62.7546 61.1211 63.3746Z" fill="#FF9A6C"/>
<g opacity="0.3">
<path d="M60.1628 63.3746C60.1628 63.6429 60.0832 63.9051 59.9342 64.1281C59.7852 64.3512 59.5734 64.525 59.3255 64.6277C59.0777 64.7303 58.805 64.7572 58.5419 64.7048C58.2788 64.6525 58.0372 64.5233 57.8475 64.3337C57.6578 64.144 57.5286 63.9023 57.4763 63.6392C57.424 63.3761 57.4508 63.1034 57.5535 62.8556C57.6561 62.6078 57.83 62.396 58.053 62.2469C58.276 62.0979 58.5383 62.0184 58.8065 62.0184C59.1662 62.0184 59.5112 62.1612 59.7655 62.4156C60.0199 62.6699 60.1628 63.0149 60.1628 63.3746Z" fill="white"/>
</g>
<path d="M59.6759 63.3746C59.6751 63.5456 59.6237 63.7126 59.5281 63.8544C59.4326 63.9963 59.2971 64.1066 59.1389 64.1715C58.9807 64.2364 58.8068 64.253 58.6391 64.2192C58.4715 64.1854 58.3176 64.1026 58.197 63.9814C58.0763 63.8602 57.9943 63.706 57.9612 63.5382C57.9281 63.3704 57.9455 63.1966 58.0111 63.0386C58.0767 62.8807 58.1876 62.7458 58.3299 62.6508C58.4721 62.5559 58.6393 62.5052 58.8104 62.5052C58.9243 62.5052 59.0372 62.5277 59.1425 62.5715C59.2477 62.6152 59.3433 62.6793 59.4238 62.7601C59.5042 62.8409 59.5678 62.9367 59.6111 63.0422C59.6544 63.1477 59.6764 63.2606 59.6759 63.3746Z" fill="#FF9A6C"/>
<path d="M63.2578 63.9542C63.174 63.7937 63.0423 63.6632 62.881 63.5808C62.7197 63.4984 62.5368 63.4682 62.3575 63.4944C61.2949 63.5447 60.4023 64.445 59.3397 64.445C58.7176 64.445 58.1458 64.1358 57.543 63.989C57.0111 63.8638 56.4574 63.8632 55.9252 63.9872C55.3931 64.1112 54.8967 64.3564 54.4749 64.7039L54.5909 64.8546C55.7249 65.8228 57.1619 66.364 58.653 66.3845C60.144 66.4049 61.5953 65.9034 62.7555 64.9666C63.0685 64.7155 63.3854 64.3368 63.2578 63.9542Z" fill="#EE553F"/>
<path d="M77.771 57.3104C78.142 55.7446 77.1735 54.1746 75.6078 53.8036C74.0421 53.4327 72.4721 54.4012 72.1011 55.9669C71.7301 57.5326 72.6986 59.1026 74.2643 59.4736C75.83 59.8446 77.4 58.8761 77.771 57.3104Z" fill="#FF9A6C"/>
<g opacity="0.3">
<path d="M77.771 57.3104C78.142 55.7447 77.1735 54.1747 75.6078 53.8037C74.0421 53.4327 72.4721 54.4012 72.1011 55.9669C71.7301 57.5327 72.6986 59.1027 74.2643 59.4736C75.83 59.8446 77.4 58.8761 77.771 57.3104Z" fill="#EE553F"/>
</g>
<path d="M77.2043 57.3068C77.5753 55.7411 76.6068 54.1711 75.0411 53.8001C73.4753 53.4291 71.9054 54.3976 71.5344 55.9633C71.1634 57.529 72.1319 59.099 73.6976 59.47C75.2633 59.841 76.8333 58.8725 77.2043 57.3068Z" fill="#FF9A6C"/>
<g opacity="0.3">
<path d="M74.3862 58.3167C75.3188 58.3167 76.0748 57.5607 76.0748 56.6281C76.0748 55.6955 75.3188 54.9395 74.3862 54.9395C73.4536 54.9395 72.6976 55.6955 72.6976 56.6281C72.6976 57.5607 73.4536 58.3167 74.3862 58.3167Z" fill="white"/>
</g>
<path d="M75.4681 56.628C75.4689 56.8422 75.4061 57.0517 75.2877 57.2302C75.1693 57.4086 75.0006 57.5479 74.8029 57.6304C74.6053 57.7128 74.3876 57.7348 74.1775 57.6935C73.9674 57.6522 73.7742 57.5495 73.6225 57.3983C73.4708 57.2472 73.3674 57.0544 73.3254 56.8444C73.2833 56.6344 73.3045 56.4167 73.3863 56.2188C73.4681 56.0209 73.6067 55.8516 73.7847 55.7326C73.9627 55.6135 74.1721 55.55 74.3862 55.55C74.6725 55.55 74.9471 55.6634 75.1499 55.8655C75.3527 56.0676 75.4671 56.3418 75.4681 56.628Z" fill="#FF9A6C"/>
<path d="M79.9272 57.3545C79.7842 56.9256 79.2626 56.7594 78.8105 56.7787C77.489 56.8406 76.3762 57.9611 75.0508 57.9611C74.278 57.9611 73.5632 57.5747 72.8135 57.397C72.1505 57.2406 71.4604 57.2395 70.7968 57.3936C70.1333 57.5478 69.5143 57.8531 68.9882 58.2857L69.135 58.4712C70.5478 59.6765 72.3373 60.3505 74.1942 60.3766C76.0512 60.4027 77.8589 59.7793 79.3051 58.6141C79.6953 58.3012 80.0895 57.8259 79.9272 57.3545Z" fill="#EE553F"/>
<path d="M71.4419 61.6397C71.4419 62.4125 70.4102 63.0075 69.1234 63.0075C67.8367 63.0075 66.7703 62.3777 66.7703 61.6049C66.7703 61.3305 66.7471 60.9094 66.7471 60.9094C67.4242 60.3585 68.2532 60.0269 69.1234 59.9588C70.1358 59.9588 71.2834 60.1057 71.4419 60.9055V61.6397Z" fill="#FF9A6C"/>
<g opacity="0.3">
<path d="M71.4419 61.6397C71.4419 62.4125 70.4102 63.0075 69.1234 63.0075C67.8367 63.0075 66.7703 62.3777 66.7703 61.6049C66.7703 61.3305 66.7471 60.9094 66.7471 60.9094C67.4242 60.3585 68.2532 60.0269 69.1234 59.9588C70.1358 59.9588 71.2834 60.1057 71.4419 60.9055V61.6397Z" fill="#EE553F"/>
</g>
<path d="M71.4419 60.9789C71.4419 61.7517 70.387 62.3816 69.0887 62.3816C67.7904 62.3816 66.7355 61.7517 66.7355 60.9789C66.7355 60.2061 67.7904 59.5801 69.0887 59.5801C70.387 59.5801 71.4419 60.2061 71.4419 60.9789Z" fill="#FF9A6C"/>
<g opacity="0.3">
<path d="M70.4952 60.9789C70.4952 61.4271 69.8847 61.7904 69.1312 61.7904C68.3778 61.7904 67.7672 61.4271 67.7672 60.9789C67.7672 60.5307 68.3778 60.1675 69.1312 60.1675C69.8847 60.1675 70.4952 60.5307 70.4952 60.9789Z" fill="white"/>
</g>
<path d="M69.9851 60.979C69.9851 61.2649 69.5987 61.5006 69.1118 61.5006C68.625 61.5006 68.2386 61.2649 68.2386 60.979C68.2386 60.693 68.625 60.4612 69.1118 60.4612C69.5987 60.4612 69.9851 60.693 69.9851 60.979Z" fill="#FF9A6C"/>
<path d="M85.2789 61.8638C85.2789 62.6366 84.2511 63.2355 82.9605 63.2355C81.6699 63.2355 80.6073 62.6057 80.6073 61.8329C80.6073 61.5585 80.5841 61.1373 80.5841 61.1373C81.2606 60.5846 82.0897 60.2517 82.9605 60.1829C83.969 60.1829 85.1205 60.3298 85.2789 61.1296C85.2828 61.1296 85.2789 61.6938 85.2789 61.8638Z" fill="#FF9A6C"/>
<g opacity="0.3">
<path d="M85.2789 61.8638C85.2789 62.6366 84.2511 63.2355 82.9605 63.2355C81.6699 63.2355 80.6073 62.6057 80.6073 61.8329C80.6073 61.5585 80.5841 61.1373 80.5841 61.1373C81.2606 60.5846 82.0897 60.2517 82.9605 60.1829C83.969 60.1829 85.1205 60.3298 85.2789 61.1296C85.2828 61.1296 85.2789 61.6938 85.2789 61.8638Z" fill="#EE553F"/>
</g>
<path d="M85.2789 61.2069C85.2789 61.9797 84.2279 62.6057 82.9257 62.6057C81.6235 62.6057 80.5764 61.9797 80.5764 61.2069C80.5764 60.4341 81.6274 59.8082 82.9257 59.8082C84.224 59.8082 85.2789 60.4341 85.2789 61.2069Z" fill="#FF9A6C"/>
<g opacity="0.3">
<path d="M84.3167 61.2069C84.3167 61.6551 83.7062 62.0184 82.9527 62.0184C82.1992 62.0184 81.5848 61.6551 81.5848 61.2069C81.5848 60.7587 82.1992 60.3955 82.9527 60.3955C83.7062 60.3955 84.3167 60.7742 84.3167 61.2069Z" fill="white"/>
</g>
<path d="M83.8221 61.2069C83.8221 61.4928 83.4357 61.7247 82.9527 61.7247C82.4697 61.7247 82.0794 61.4928 82.0794 61.2069C82.0794 60.921 82.4658 60.6891 82.9527 60.6891C83.4396 60.6891 83.8221 60.921 83.8221 61.2069Z" fill="#FF9A6C"/>
<path d="M56.5847 59.0971C56.5847 60.3375 54.9347 61.2919 52.8482 61.2919C50.7616 61.2919 49.073 60.2873 49.073 59.0469C49.073 58.6026 49.0383 57.9302 49.0383 57.9302C49.7067 57.3004 51.5074 56.3846 52.8482 56.3846C54.4711 56.3846 56.3258 56.6203 56.5886 57.9032C56.5847 57.9186 56.5847 58.8421 56.5847 59.0971Z" fill="#FF9A6C"/>
<g opacity="0.3">
<path d="M56.5847 59.0971C56.5847 60.3375 54.9347 61.2919 52.8482 61.2919C50.7616 61.2919 49.073 60.2873 49.073 59.0469C49.073 58.6026 49.0383 57.9302 49.0383 57.9302C49.7067 57.3004 51.5074 56.3846 52.8482 56.3846C54.4711 56.3846 56.3258 56.6203 56.5886 57.9032C56.5847 57.9186 56.5847 58.8421 56.5847 59.0971Z" fill="#EE553F"/>
</g>
<path d="M56.5847 58.0423C56.5847 59.2826 54.8961 60.2873 52.8096 60.2873C50.723 60.2873 49.0383 59.2826 49.0383 58.0423C49.0383 56.8019 50.7268 55.7934 52.8096 55.7934C54.8923 55.7934 56.5847 56.8019 56.5847 58.0423Z" fill="#FF9A6C"/>
<g opacity="0.3">
<path d="M52.8559 59.3444C54.0659 59.3444 55.0468 58.7614 55.0468 58.0423C55.0468 57.3231 54.0659 56.7401 52.8559 56.7401C51.6459 56.7401 50.665 57.3231 50.665 58.0423C50.665 58.7614 51.6459 59.3444 52.8559 59.3444Z" fill="white"/>
</g>
<path d="M52.856 58.8731C53.6285 58.8731 54.2547 58.5011 54.2547 58.0423C54.2547 57.5835 53.6285 57.2115 52.856 57.2115C52.0834 57.2115 51.4572 57.5835 51.4572 58.0423C51.4572 58.5011 52.0834 58.8731 52.856 58.8731Z" fill="#FF9A6C"/>
<g opacity="0.2">
<path d="M68.4434 56.7362C67.4503 56.8522 66.6157 57.509 65.7927 58.0539C64.9696 58.5987 64.0075 59.1397 63.0222 58.9774C62.5894 58.904 62.0948 58.7108 61.7509 58.9774L59.5909 59.1087C59.3886 59.1366 59.1966 59.2153 59.0331 59.3377C58.8695 59.46 58.7397 59.6219 58.6558 59.8081C59.2857 60.2486 60.1512 60.0941 60.866 60.3761C61.2623 60.5667 61.6303 60.8111 61.9596 61.1026C62.2858 61.3936 62.6876 61.5865 63.1188 61.659C63.3373 61.6875 63.559 61.6401 63.7468 61.5248C63.9346 61.4094 64.0771 61.2331 64.1505 61.0253C64.1654 60.8324 64.1964 60.6411 64.2432 60.4534C64.3027 60.3424 64.3897 60.2485 64.496 60.1808C64.6022 60.1132 64.7241 60.074 64.8498 60.067C65.1014 60.0542 65.3536 60.0646 65.6033 60.0979C65.7974 60.1303 65.9963 60.1167 66.1842 60.0583C66.3721 60 66.5437 59.8984 66.6853 59.7618C66.9364 59.4604 66.8244 58.8846 66.438 58.8267C67.2602 58.6134 68.056 58.3088 68.8105 57.9186C69.0809 57.7795 69.3823 57.567 69.3746 57.2617C69.3862 56.8522 68.8491 56.6899 68.4434 56.7362Z" fill="black"/>
</g>
<path d="M57.1411 54.2826C57.067 55.0851 57.1799 55.8938 57.4709 56.6453C57.7618 57.3969 58.223 58.0708 58.8181 58.6142C59.3838 59.1489 60.0699 59.5397 60.8184 59.7535C61.5669 59.9674 62.3559 59.998 63.1187 59.8429C63.1538 59.0671 63.0197 58.2929 62.7257 57.574C62.4317 56.8552 61.9849 56.2089 61.4162 55.6799C60.8476 55.1509 60.1707 54.752 59.4325 54.5107C58.6942 54.2694 57.9124 54.1916 57.1411 54.2826Z" fill="#455A64"/>
<path d="M58.4781 55.4109C58.7212 55.6349 58.9448 55.8793 59.1466 56.1412C59.533 56.5971 60.1164 57.2192 60.7849 57.8607C61.4534 58.5021 62.0948 59.0469 62.5701 59.4295C62.8369 59.6241 63.0888 59.8386 63.3236 60.0709C63.0229 59.9298 62.7401 59.7534 62.4812 59.5454C61.8349 59.0727 61.2216 58.5563 60.6458 57.9998C60.0696 57.4451 59.5325 56.8512 59.0384 56.2223C58.819 55.9759 58.6309 55.7033 58.4781 55.4109Z" fill="#263238"/>
<path d="M63.9998 64.4875C63.9546 64.5035 63.9142 64.5309 63.8825 64.5669C63.8508 64.603 63.8289 64.6465 63.8187 64.6934C63.8085 64.7403 63.8105 64.789 63.8244 64.835C63.8383 64.8809 63.8636 64.9225 63.8981 64.9559C63.9326 64.9893 63.975 65.0133 64.0214 65.0257C64.0678 65.0381 64.1165 65.0385 64.1631 65.0268C64.2096 65.0151 64.2524 64.9917 64.2874 64.9589C64.3224 64.926 64.3484 64.8848 64.363 64.8391C64.3733 64.7934 64.3728 64.746 64.3616 64.7005C64.3504 64.6551 64.3287 64.6129 64.2983 64.5773C64.268 64.5416 64.2297 64.5136 64.1866 64.4953C64.1435 64.4771 64.0968 64.4691 64.05 64.472" fill="#455A64"/>
<path d="M85.4605 58.479C85.3871 58.4854 85.3191 58.52 85.2705 58.5754C85.222 58.6308 85.1967 58.7028 85.2 58.7764C85.2032 58.85 85.2347 58.9195 85.2879 58.9704C85.3411 59.0213 85.4119 59.0497 85.4856 59.0497C85.5593 59.0497 85.6301 59.0213 85.6833 58.9704C85.7365 58.9195 85.768 58.85 85.7713 58.7764C85.7745 58.7028 85.7492 58.6308 85.7007 58.5754C85.6522 58.52 85.5841 58.4854 85.5107 58.479" fill="#455A64"/>
<path d="M54.2393 54.0005C54.196 54.0187 54.1577 54.0469 54.1277 54.0829C54.0976 54.1189 54.0765 54.1616 54.0663 54.2074C54.0561 54.2531 54.057 54.3007 54.0689 54.3461C54.0809 54.3914 54.1035 54.4333 54.1349 54.4681C54.1706 54.4985 54.213 54.52 54.2585 54.5309C54.3041 54.5418 54.3516 54.5418 54.3972 54.5309C54.4428 54.52 54.4851 54.4984 54.5208 54.4681C54.5565 54.4377 54.5845 54.3993 54.6025 54.356C54.6165 54.3091 54.6188 54.2595 54.6093 54.2114C54.5997 54.1634 54.5786 54.1184 54.5478 54.0803C54.517 54.0423 54.4774 54.0123 54.4324 53.993C54.3874 53.9737 54.3383 53.9657 54.2895 53.9696" fill="#455A64"/>
<path d="M64.1003 56.2687C64.0554 56.2849 64.0153 56.3123 63.9839 56.3482C63.9525 56.3841 63.9307 56.4274 63.9206 56.4741C63.9104 56.5207 63.9123 56.5692 63.926 56.6149C63.9397 56.6606 63.9648 56.7021 63.9989 56.7355C64.033 56.7689 64.0751 56.7931 64.1211 56.8058C64.1671 56.8185 64.2156 56.8193 64.262 56.8082C64.3084 56.7971 64.3512 56.7744 64.3865 56.7422C64.4217 56.71 64.4482 56.6694 64.4635 56.6242C64.4774 56.5772 64.4798 56.5276 64.4702 56.4796C64.4607 56.4315 64.4396 56.3865 64.4088 56.3485C64.378 56.3104 64.3384 56.2805 64.2933 56.2612C64.2483 56.2419 64.1993 56.2338 64.1505 56.2378" fill="#455A64"/>
<path d="M78.6598 60.2564C78.6146 60.2725 78.5742 60.2998 78.5425 60.3358C78.5108 60.3719 78.4889 60.4154 78.4787 60.4623C78.4685 60.5092 78.4705 60.5579 78.4844 60.6039C78.4983 60.6498 78.5237 60.6914 78.5581 60.7248C78.5926 60.7582 78.635 60.7822 78.6814 60.7946C78.7278 60.807 78.7765 60.8074 78.8231 60.7957C78.8696 60.784 78.9124 60.7606 78.9474 60.7278C78.9824 60.6949 79.0084 60.6537 79.023 60.608C79.0333 60.5623 79.0328 60.5149 79.0216 60.4695C79.0104 60.424 78.9887 60.3818 78.9584 60.3462C78.928 60.3106 78.8897 60.2825 78.8466 60.2642C78.8035 60.246 78.7568 60.238 78.71 60.2409" fill="#455A64"/>
<path d="M47.2609 63.0925C47.1875 63.099 47.1194 63.1336 47.0709 63.189C47.0224 63.2444 46.9971 63.3164 47.0003 63.39C47.0035 63.4635 47.0351 63.533 47.0883 63.584C47.1415 63.6349 47.2123 63.6633 47.286 63.6633C47.3596 63.6633 47.4304 63.6349 47.4837 63.584C47.5369 63.533 47.5684 63.4635 47.5716 63.39C47.5749 63.3164 47.5496 63.2444 47.501 63.189C47.4525 63.1336 47.3845 63.099 47.3111 63.0925" fill="#455A64"/>
<g opacity="0.2">
<path d="M46.9517 55.5847C46.4751 55.4765 45.9795 55.4845 45.5066 55.6079C43.9996 55.8823 41.3605 57.1535 40.1395 58.0616C39.4787 58.5639 38.8412 59.2208 38.7407 60.0438C38.7149 60.375 38.7605 60.7078 38.8745 61.0198C38.9885 61.3318 39.1682 61.6157 39.4014 61.8522C39.871 62.3235 40.4382 62.6862 41.063 62.9148C41.3738 63.0626 41.7159 63.1329 42.0599 63.1196C42.2298 63.1097 42.3932 63.0507 42.5304 62.9499C42.6675 62.8491 42.7725 62.7108 42.8327 62.5516C43.0723 61.744 41.7624 61.1296 41.9131 60.2988C42.0637 59.4681 43.4084 59.526 43.8451 58.7957C44.0035 58.5446 44.0267 58.2277 44.1851 57.9766C44.5483 57.4086 45.3675 57.4395 46.0437 57.4742C46.7199 57.509 47.5893 57.3351 47.7052 56.6705C47.7243 56.4304 47.6597 56.191 47.5223 55.9931C47.385 55.7952 47.1834 55.6509 46.9517 55.5847Z" fill="white"/>
</g>
<g opacity="0.2">
<path d="M50.0158 62.683C50.0158 62.8222 49.9745 62.9583 49.8971 63.0741C49.8196 63.1898 49.7095 63.2799 49.5808 63.3331C49.4521 63.3862 49.3105 63.3999 49.174 63.3724C49.0374 63.345 48.9121 63.2776 48.814 63.1789C48.7158 63.0801 48.6491 62.9545 48.6224 62.8178C48.5957 62.6811 48.6102 62.5396 48.664 62.4112C48.7178 62.2827 48.8085 62.1732 48.9247 62.0964C49.0409 62.0195 49.1772 61.979 49.3165 61.9797C49.4086 61.9797 49.4999 61.9979 49.585 62.0333C49.6701 62.0687 49.7474 62.1206 49.8124 62.1859C49.8774 62.2513 49.9288 62.3288 49.9637 62.4141C49.9986 62.4994 50.0164 62.5908 50.0158 62.683Z" fill="white"/>
</g>
<g opacity="0.2">
<path d="M60.9047 65.7239C60.6826 65.6409 60.4367 65.6493 60.2208 65.7471C60.0044 65.8283 59.7957 65.9481 59.5716 66.0099C59.0809 66.0989 58.5745 66.0242 58.1303 65.7974C57.6873 65.5775 57.2149 65.4226 56.7277 65.3375C56.4834 65.2998 56.2334 65.3363 56.0102 65.4424C55.7869 65.5485 55.6007 65.7193 55.4758 65.9326C55.3946 66.2997 56.6813 66.2842 57.431 66.319L60.4758 66.489C60.7154 66.489 61.0052 66.489 61.1288 66.2842C61.1718 66.18 61.1724 66.0632 61.1305 65.9586C61.0887 65.854 61.0077 65.7698 60.9047 65.7239Z" fill="black"/>
</g>
<g opacity="0.2">
<path d="M71.8128 62.7061C71.6305 62.8356 71.4756 62.9997 71.3568 63.1891C70.917 63.766 70.3436 64.2274 69.686 64.5337C69.0284 64.84 68.3063 64.9819 67.5817 64.9473H67.4464C67.3498 64.7888 67.06 64.9473 67.0871 65.1366C67.1141 65.3259 67.2919 65.4419 67.4735 65.523C67.9704 65.717 68.5221 65.717 69.0191 65.523C69.2664 65.4264 69.4905 65.2834 69.7378 65.1946C70.0785 65.0987 70.431 65.0506 70.7849 65.0516C71.3114 65.0486 71.829 64.9159 72.2919 64.6652C72.5221 64.5391 72.7101 64.3479 72.8324 64.1157C72.9547 63.8834 73.0059 63.6203 72.9797 63.3592C72.9577 63.233 72.9079 63.1133 72.8338 63.0088C72.7598 62.9043 72.6634 62.8176 72.5516 62.755C72.4398 62.6925 72.3155 62.6556 72.1877 62.6472C72.0599 62.6387 71.9318 62.6589 71.8128 62.7061Z" fill="black"/>
</g>
<path d="M69.1852 51.1836C68.3965 51.3486 67.6568 51.6945 67.0245 52.1941C66.3922 52.6936 65.8845 53.3332 65.5415 54.0623C65.1971 54.7601 65.0254 55.5305 65.0408 56.3085C65.0563 57.0865 65.2585 57.8494 65.6304 58.533C66.3812 58.3379 67.0807 57.9821 67.6804 57.4901C68.2802 56.9981 68.7659 56.3817 69.104 55.6835C69.4421 54.9853 69.6244 54.222 69.6385 53.4464C69.6525 52.6707 69.4978 51.9013 69.1852 51.1914V51.1836Z" fill="#455A64"/>
<path d="M68.5013 52.795C68.3568 53.0905 68.1902 53.3747 68.0028 53.645C67.6821 54.1667 67.2571 54.8893 66.8436 55.72C66.4302 56.5508 66.094 57.3197 65.8699 57.8877C65.7652 58.2001 65.636 58.5038 65.4835 58.7958C65.5302 58.4674 65.6158 58.1457 65.7385 57.8375C65.9953 57.0799 66.3051 56.3413 66.6659 55.6273C67.0274 54.914 67.4366 54.2259 67.8908 53.5678C68.0619 53.2862 68.2669 53.0266 68.5013 52.795Z" fill="#263238"/>
<path d="M67.4696 64.3831C67.6323 63.8588 67.6709 63.3038 67.5824 62.762C67.4939 62.2202 67.2807 61.7063 66.9596 61.261C66.6574 60.8225 66.2536 60.4638 65.7825 60.2155C65.3115 59.9672 64.7873 59.8367 64.2548 59.8352C64.122 60.3475 64.1023 60.8826 64.1971 61.4034C64.2918 61.9241 64.4988 62.418 64.8036 62.8507C65.1084 63.2834 65.5037 63.6446 65.962 63.9092C66.4204 64.1739 66.9309 64.3356 67.458 64.3831H67.4696Z" fill="#455A64"/>
<path d="M66.7354 63.4442C66.6813 63.4712 66.2292 62.5439 65.5183 61.5122C64.8073 60.4805 64.1156 59.7038 64.162 59.6613C65.321 60.6918 66.2054 61.9945 66.7354 63.4519V63.4442Z" fill="#263238"/>
<g opacity="0.2">
<path d="M76.9326 58.873C76.7074 58.8648 76.4827 58.9016 76.2719 58.9812C74.8963 59.3908 73.7062 59.7772 72.2881 59.5801C72.176 59.5222 72.0524 59.6806 72.091 59.8004C72.1422 59.9154 72.2366 60.0056 72.3537 60.0515C72.7637 60.333 73.2562 60.469 73.7525 60.4379C74.0739 60.3338 74.3865 60.2046 74.6876 60.0515C75.414 59.812 76.2332 60.0979 76.9519 59.8197C77.1992 59.7231 77.4465 59.5067 77.4117 59.244C77.381 59.1396 77.3181 59.0477 77.2321 58.9811C77.1461 58.9145 77.0413 58.8767 76.9326 58.873Z" fill="black"/>
</g>
<g opacity="0.2">
<path d="M62.6629 52.7756L63.1729 52.8452C60.9333 52.87 58.6997 53.0833 56.4959 53.4827C56.322 53.5175 56.1095 53.5678 56.0515 53.7223C56.0205 53.8147 56.0256 53.9155 56.0657 54.0044C56.1058 54.0932 56.1781 54.1636 56.2679 54.2014C56.4489 54.2703 56.6444 54.2916 56.8359 54.2633L62.203 53.9116C63.1188 53.8498 64.1969 53.6953 64.6335 52.8838C63.9881 52.7321 63.321 52.6955 62.6629 52.7756Z" fill="black"/>
</g>
<g opacity="0.2">
<path d="M89.5177 58.0346C88.486 57.0609 87.1182 56.5431 85.789 56.0485L81.4342 54.4333C80.8507 54.2169 80.1282 54.0237 79.6645 54.4333L79.6954 54.8197C80.6305 54.9666 81.6274 55.1482 82.2881 55.8282C82.5354 56.0833 82.7364 56.4117 83.061 56.5508C83.6869 56.8174 84.4945 56.2881 85.0587 56.6667C85.3407 56.8561 85.4451 57.2231 85.7349 57.4395C86.1522 57.7564 86.7588 57.5864 87.2805 57.7332C87.4699 57.8052 87.6397 57.9209 87.7759 58.0709C87.9122 58.2209 88.0111 58.401 88.0645 58.5964C88.118 58.7919 88.1246 58.9972 88.0837 59.1957C88.0428 59.3942 87.9556 59.5802 87.8291 59.7386C87.52 60.0671 86.9829 60.3491 87.0911 60.7896C87.1993 61.2301 87.7982 61.2379 88.2503 61.1567C89.0734 61.0021 90.0355 60.7239 90.2867 59.928C90.476 59.2286 90.0355 58.5215 89.5177 58.0346Z" fill="black"/>
</g>
<path d="M95.7581 58.506C95.7581 58.506 95.7581 58.5871 95.7581 58.7494C95.7581 58.9117 95.7581 59.1551 95.7581 59.4642C95.7581 59.7734 95.7349 60.1675 95.7001 60.6234C95.7001 60.8514 95.6692 61.0987 95.6383 61.3615C95.6074 61.6242 95.5687 61.9063 95.5262 62.2C95.0265 65.5502 93.8878 68.7732 92.1722 71.6939C89.6272 76.0384 86.0824 79.713 81.8322 82.4126C80.6051 83.1838 79.33 83.8756 78.0145 84.4837C76.6353 85.1046 75.2152 85.63 73.7641 86.0564C72.2564 86.4843 70.7197 86.802 69.1659 87.0069C67.5632 87.1952 65.9488 87.2649 64.3359 87.2156C58.1715 87.002 52.154 85.277 46.8126 82.1924C46.5035 82.0172 46.2021 81.8356 45.9084 81.6475L45.0313 81.0873C44.471 80.7009 43.8991 80.3145 43.3775 79.8971C42.3394 79.1128 41.3509 78.265 40.4176 77.3585C38.7439 75.7349 37.2679 73.919 36.0204 71.9489C34.2115 69.0836 33.0107 65.8771 32.4925 62.5284C32.45 62.2309 32.4075 61.9527 32.3728 61.6899C32.338 61.4272 32.3264 61.1799 32.3071 60.948C32.2646 60.4921 32.2375 60.1018 32.2414 59.7888C32.2453 59.4758 32.2414 59.2401 32.2414 59.074C32.2371 58.9929 32.2371 58.9116 32.2414 58.8305C32.2414 58.8305 32.2414 58.9117 32.2414 59.074L32.2723 59.785C32.2723 60.1018 32.3109 60.4882 32.3573 60.9442C32.3805 61.1721 32.4075 61.4194 32.4307 61.6822C32.4539 61.9449 32.5157 62.2193 32.5621 62.5129C33.1062 65.8421 34.3209 69.026 36.1325 71.8716C37.3814 73.8314 38.8559 75.6379 40.5258 77.2542C41.4572 78.1523 42.4417 78.9936 43.4741 79.7735C43.9996 80.187 44.5637 80.5463 45.124 80.952L46.0011 81.5046C46.2909 81.6978 46.5885 81.891 46.8976 82.0455C52.2169 85.1032 58.204 86.8119 64.3359 87.0224C65.9386 87.0717 67.5427 87.002 69.135 86.8137C70.6783 86.6127 72.2048 86.2988 73.7023 85.8748C75.1434 85.4556 76.5544 84.9392 77.9256 84.3292C79.2346 83.7262 80.5033 83.0396 81.724 82.2735C85.9578 79.5996 89.4954 75.9575 92.0448 71.6475C93.7626 68.7445 94.9163 65.543 95.4451 62.2116C95.4876 61.9179 95.5301 61.6397 95.5687 61.3769C95.6074 61.1142 95.6151 60.8707 95.6344 60.6428C95.6769 60.1829 95.7117 59.7965 95.7117 59.4836C95.7117 59.1706 95.731 58.9349 95.7349 58.7687C95.7387 58.6026 95.7581 58.506 95.7581 58.506Z" fill="#263238"/>
<path d="M59.6218 19.8156C59.621 20.0714 59.5444 20.3213 59.4017 20.5337C59.259 20.746 59.0566 20.9114 58.82 21.0087C58.5834 21.1061 58.3233 21.1312 58.0724 21.0808C57.8216 21.0304 57.5913 20.9068 57.4107 20.7257C57.23 20.5445 57.1071 20.3138 57.0575 20.0628C57.0079 19.8118 57.0337 19.5518 57.1318 19.3155C57.2299 19.0792 57.3958 18.8772 57.6086 18.7352C57.8214 18.5931 58.0715 18.5173 58.3273 18.5173C58.4977 18.5173 58.6663 18.5509 58.8236 18.6162C58.9809 18.6815 59.1238 18.7772 59.244 18.8978C59.3643 19.0184 59.4595 19.1615 59.5244 19.319C59.5892 19.4765 59.6223 19.6453 59.6218 19.8156Z" fill="#455A64"/>
<path d="M74.3824 60.9983C74.3824 60.9983 72.9372 62.0029 73.5323 63.1389C74.1273 64.2749 75.6613 65.7742 78.4898 64.5184C81.3183 63.2626 79.5911 59.8545 79.5911 59.8545C79.5911 59.8545 77.775 58.6412 74.3824 60.9983Z" fill="#E0E0E0"/>
<g opacity="0.21">
<path d="M77.69 62.9728C78.2164 62.7018 78.6756 62.3165 79.0339 61.8452C79.3923 61.3738 79.6407 60.8284 79.7611 60.2487C79.6683 60.0052 79.5911 59.8622 79.5911 59.8622C79.5911 59.8622 77.775 58.6489 74.3824 61.0215C74.3824 61.0215 72.9372 62.0261 73.5323 63.1621C73.5709 63.2394 73.6173 63.3167 73.6637 63.394C75.009 63.7879 76.4553 63.6366 77.69 62.9728Z" fill="#263238"/>
</g>
<path d="M74.2239 60.1134L74.9967 62.2463C75.3887 62.3562 75.7994 62.3823 76.2021 62.3231C76.6049 62.2638 76.9907 62.1205 77.3344 61.9024C78.3777 61.1567 78.1072 60.7432 78.1072 60.7432L77.3344 58.5562C76.478 58.5143 75.6258 58.701 74.8653 59.0971C73.7988 59.7463 74.2239 60.1134 74.2239 60.1134Z" fill="#E0E0E0"/>
<g opacity="0.15">
<path d="M75.1668 61.9333C75.0663 61.9797 74.7997 61.6319 74.6142 61.1335C74.4287 60.635 74.4249 60.1791 74.5408 60.1598C74.6567 60.1404 74.8229 60.5152 75.0006 60.9905C75.1784 61.4658 75.275 61.8831 75.1668 61.9333Z" fill="white"/>
</g>
<g opacity="0.15">
<path d="M76.9944 58.8422C76.9944 58.8963 76.8553 58.9851 76.608 59.0624C76.3607 59.1397 75.9975 59.2054 75.6265 59.2943C75.4411 59.3406 75.2711 59.3909 75.1204 59.445C74.9863 59.492 74.8569 59.5515 74.734 59.6227C74.533 59.7425 74.4171 59.8584 74.3476 59.8275C74.278 59.7966 74.3476 59.615 74.533 59.3947C74.6505 59.2733 74.7876 59.1727 74.9388 59.0972C75.1186 59.0082 75.3078 58.9395 75.5029 58.8924C75.8414 58.8148 76.1873 58.7746 76.5346 58.7726C76.8167 58.761 76.9828 58.7765 76.9944 58.8422Z" fill="white"/>
</g>
<g opacity="0.14">
<path d="M79.8538 63.023C79.877 63.023 79.877 63.1505 79.792 63.3205C79.6684 63.5321 79.5073 63.7193 79.3167 63.8731C79.0605 64.102 78.7777 64.2992 78.4743 64.4604C78.3082 64.5532 78.1304 64.6382 77.9411 64.7232L77.659 64.843C77.5534 64.8853 77.4449 64.9201 77.3345 64.9473C76.9241 65.0353 76.501 65.0471 76.0864 64.9821C75.7349 64.9327 75.3956 64.8187 75.0856 64.6459C74.8733 64.5358 74.6715 64.4064 74.4828 64.2595C74.3514 64.1474 74.2857 64.0702 74.2973 64.0431C74.3089 64.0161 74.3978 64.0431 74.5485 64.1011C74.6992 64.159 74.9117 64.2634 75.1745 64.3638C75.4704 64.479 75.7815 64.5506 76.098 64.5764C76.4776 64.6148 76.8608 64.5939 77.234 64.5145C77.3286 64.4926 77.4215 64.4642 77.5122 64.4295L77.7943 64.3136C77.9759 64.2402 78.1536 64.1629 78.3159 64.0895C78.6096 63.955 78.8913 63.796 79.1583 63.6142C79.3426 63.5038 79.5149 63.3743 79.6722 63.2278C79.7688 63.0926 79.8267 63.0114 79.8538 63.023Z" fill="#263238"/>
</g>
<path d="M43.9803 56.3923C43.9803 56.3923 42.2221 56.4696 42.1139 57.7447C42.0058 59.0199 42.5004 61.1103 45.5607 61.5662C48.621 62.0222 48.9919 58.2162 48.9919 58.2162C48.9919 58.2162 48.107 56.2223 43.9803 56.3923Z" fill="#E0E0E0"/>
<g opacity="0.21">
<path d="M45.7152 59.8313C46.3047 59.8844 46.8986 59.8051 47.4535 59.5992C48.0083 59.3933 48.5102 59.066 48.9224 58.6412C48.9726 58.3862 48.9919 58.2162 48.9919 58.2162C48.9919 58.2162 48.107 56.2223 43.9687 56.3923C43.9687 56.3923 42.2105 56.4696 42.1024 57.7447C42.1024 57.8297 42.1024 57.9186 42.1024 58.0114C43.0195 59.0707 44.3181 59.7248 45.7152 59.8313Z" fill="#263238"/>
</g>
<path d="M44.3203 55.5577L43.8334 57.7641C44.1049 58.0683 44.4377 58.3117 44.81 58.4782C45.1823 58.6447 45.5856 58.7305 45.9934 58.7301C47.2724 58.6605 47.2685 58.1775 47.2685 58.1775L47.794 55.9209C47.0923 55.4275 46.2724 55.1288 45.4177 55.0554C44.158 55.0206 44.3203 55.5577 44.3203 55.5577Z" fill="#E0E0E0"/>
<g opacity="0.15">
<path d="M44.1425 57.6018C44.0304 57.6018 43.9918 57.1536 44.1039 56.632C44.2159 56.1103 44.4555 55.7239 44.5598 55.7703C44.6641 55.8167 44.61 56.2185 44.5096 56.717C44.4091 57.2154 44.2584 57.6173 44.1425 57.6018Z" fill="white"/>
</g>
<g opacity="0.15">
<path d="M47.3458 55.9634C47.3458 56.0175 47.1526 56.0098 46.8976 55.9364C46.6426 55.863 46.3025 55.7316 45.9432 55.608C45.7771 55.5502 45.6082 55.5012 45.437 55.4611C45.3007 55.4333 45.1625 55.4165 45.0235 55.4109C44.7878 55.4109 44.6371 55.4418 44.6024 55.3838C44.5676 55.3259 44.699 55.1984 44.9888 55.1211C45.153 55.0808 45.3229 55.069 45.4911 55.0863C45.6896 55.1078 45.8852 55.1505 46.0746 55.2138C46.4021 55.3321 46.7168 55.4836 47.0135 55.6659C47.2338 55.805 47.3651 55.9093 47.3458 55.9634Z" fill="white"/>
</g>
<g opacity="0.14">
<path d="M47.512 61.033C47.512 61.0562 47.4656 61.1567 47.3033 61.2533C47.085 61.3659 46.848 61.4379 46.6039 61.4658C46.2655 61.5206 45.9217 61.5348 45.5799 61.5083C45.3906 61.5083 45.1936 61.4735 44.9926 61.4426L44.6874 61.3962C44.5743 61.3762 44.4631 61.3464 44.3551 61.3074C43.962 61.1627 43.5991 60.9466 43.2847 60.6698C43.0145 60.4401 42.7892 60.1624 42.6201 59.8506C42.5002 59.6395 42.4019 59.4168 42.3265 59.186C42.2762 59.0199 42.2608 58.9194 42.2839 58.904C42.3071 58.8885 42.3728 58.9542 42.4656 59.0894C42.5583 59.2247 42.6858 59.4217 42.852 59.6458C43.0403 59.9029 43.2655 60.1308 43.5204 60.322C43.8222 60.5555 44.1568 60.743 44.5135 60.8785C44.6042 60.9101 44.6972 60.9347 44.7917 60.9519L45.0892 61.006C45.2863 61.0408 45.4756 61.0717 45.6534 61.0948C45.972 61.1395 46.2939 61.1577 46.6155 61.1489C46.8335 61.1523 47.0512 61.1316 47.2647 61.0871C47.4154 61.0523 47.4965 61.0098 47.512 61.033Z" fill="#263238"/>
</g>
<path d="M62.2107 24.2553C62.2866 24.2757 62.3575 24.3112 62.4194 24.3597C62.605 24.4898 62.754 24.6654 62.8521 24.8697C63.0098 25.192 63.0905 25.5465 63.0878 25.9053C63.0787 26.3781 62.9638 26.8428 62.7517 27.2654C62.4933 27.7678 62.1988 28.2507 61.8707 28.7105C61.4998 29.2235 61.2285 29.8015 61.0708 30.4146C60.9451 31.1013 61.0356 31.8101 61.3297 32.4432C61.6469 33.1263 62.0355 33.7739 62.4889 34.3752C62.946 35.0008 63.3128 35.6876 63.5786 36.4154C63.8239 37.1132 63.8239 37.8737 63.5786 38.5715C63.3153 39.1746 62.9283 39.7156 62.4426 40.1596C62.0279 40.5347 61.6405 40.9389 61.2833 41.3691C61.0255 41.6736 60.8417 42.0338 60.7465 42.4213C60.6513 42.8088 60.6472 43.2131 60.7347 43.6025C60.8079 43.8882 60.9575 44.1487 61.1674 44.3559C61.0993 44.3172 61.038 44.2676 60.9858 44.2091C60.8335 44.042 60.7212 43.8425 60.6574 43.6256C60.5609 43.2812 60.5411 42.9198 60.5994 42.5669C60.6852 42.0999 60.8813 41.6601 61.1713 41.2841C61.5256 40.8417 61.9131 40.4271 62.3305 40.0437C62.7948 39.6094 63.1633 39.083 63.4124 38.4981C63.6371 37.8389 63.6276 37.1224 63.3854 36.4695C63.1238 35.7612 62.7649 35.0927 62.3189 34.4834C61.8625 33.8648 61.4738 33.1989 61.1597 32.4973C60.8557 31.8272 60.7666 31.0794 60.9047 30.3566C61.0728 29.723 61.3586 29.1266 61.747 28.5985C62.0775 28.1487 62.3758 27.6761 62.6396 27.1843C62.8515 26.7829 62.9716 26.3394 62.9912 25.886C63.0019 25.5422 62.9359 25.2003 62.798 24.8852C62.6696 24.6212 62.465 24.4019 62.2107 24.2553Z" fill="#263238"/>
<path d="M68.8027 23.413C68.8797 23.4336 68.9519 23.469 69.0153 23.5173C69.1985 23.6489 69.346 23.8242 69.4442 24.0274C69.6011 24.3501 69.6829 24.7041 69.6837 25.0629C69.6731 25.536 69.5569 26.0007 69.3437 26.4231C69.0867 26.9254 68.7936 27.4084 68.4666 27.8682C68.0929 28.3801 67.8202 28.9584 67.6629 29.5722C67.5389 30.259 67.6293 30.9672 67.9217 31.6008C68.2404 32.2831 68.6289 32.9306 69.0809 33.5329C69.538 34.1585 69.9048 34.8453 70.1706 35.5731C70.4178 36.2705 70.4178 37.0317 70.1706 37.7292C69.9089 38.3332 69.5217 38.8745 69.0346 39.3173C68.6188 39.6912 68.2313 40.0954 67.8754 40.5267C67.6171 40.8311 67.4328 41.1911 67.3369 41.5786C67.2411 41.966 67.2362 42.3705 67.3228 42.7601C67.3968 43.0512 67.546 43.3178 67.7556 43.5329C67.6875 43.4942 67.6262 43.4446 67.574 43.3861C67.4226 43.2189 67.3116 43.0194 67.2494 42.8026C67.1496 42.4588 67.1284 42.097 67.1876 41.7439C67.2734 41.2768 67.4694 40.837 67.7595 40.461C68.1148 40.0184 68.5022 39.6026 68.9187 39.2168C69.3829 38.7834 69.7503 38.2566 69.9967 37.6712C70.2214 37.0121 70.2119 36.2955 69.9697 35.6426C69.7096 34.9336 69.3506 34.2649 68.9032 33.6565C68.4466 33.038 68.058 32.3721 67.744 31.6704C67.4389 31.0006 67.3485 30.2529 67.4851 29.5297C67.6529 28.8953 67.9401 28.2986 68.3313 27.7716C68.6598 27.3212 68.9567 26.8487 69.2201 26.3574C69.4324 25.9548 69.5525 25.51 69.5717 25.0552C69.5834 24.7126 69.5174 24.3717 69.3785 24.0583C69.2557 23.7903 69.0551 23.5654 68.8027 23.413Z" fill="#263238"/>
<path d="M47.8868 91.4467C47.804 90.9122 47.6107 90.4008 47.3193 89.9451C47.0279 89.4893 46.6448 89.0993 46.1944 88.7998C45.209 88.2048 43.5359 88.6685 43.5359 88.6685C43.1901 88.3129 42.8006 88.0026 42.3767 87.745C41.0861 87.061 38.6209 87.5286 37.9486 88.7689C36.9787 87.745 34.4709 87.9227 33.4045 88.9158C33.0584 89.2741 32.7597 89.6754 32.5157 90.1097C32.5157 90.1097 30.7808 90.0866 29.981 90.9173C29.6208 91.321 29.3493 91.7958 29.1843 92.3109C29.0192 92.8261 28.9642 93.3703 29.0227 93.9081C29.0459 94.364 29.0884 94.8277 29.1502 95.2914C29.5974 98.434 30.647 101.461 32.2414 104.206C32.3076 104.32 32.3812 104.43 32.4617 104.534C33.4933 105.887 34.9076 105.473 35.7074 105.013C36.0552 105.674 36.5807 106.312 37.3187 106.42C38.59 106.601 39.4864 106.103 40.1781 106.033C40.862 105.91 41.8589 106.165 43.0413 105.647C43.7253 105.353 44.0692 104.6 44.2353 103.873C45.124 104.113 46.6001 104.148 47.2492 102.579C47.3017 102.453 47.3455 102.324 47.3806 102.193C48.2248 99.1306 48.4688 95.9343 48.0993 92.7798C48.0568 92.3509 47.9834 91.8949 47.8868 91.4467Z" fill="#EE553F"/>
<g opacity="0.3">
<path d="M46.1982 88.8192C45.2091 88.2241 43.5398 88.6878 43.5398 88.6878C43.1934 88.3328 42.804 88.0226 42.3806 87.7643C41.0939 87.0804 38.6248 87.5518 37.9524 88.7883C36.9864 87.7643 34.4748 87.942 33.4122 88.9351C33.0622 89.2971 32.7597 89.7022 32.5119 90.1407C32.5119 90.1407 30.7808 90.1407 29.9771 90.9482C29.9308 90.9985 29.8882 91.0564 29.8457 91.1067C30.7306 90.8516 32.1641 91.1067 33.8063 92.2156C33.8063 92.2156 34.6062 90.6391 37.1719 91.1221C37.8758 91.261 38.6044 91.2035 39.2778 90.956C41.2871 90.1832 42.4386 90.8478 43.2307 92.0031C43.9146 92.9962 44.699 99.1477 44.2546 103.916C45.2091 104.175 46.8397 104.194 47.4 102.247C48.2578 99.2675 48.6442 95.0325 47.8907 91.4776C47.8096 90.941 47.6171 90.4272 47.3256 89.9694C47.0342 89.5115 46.6502 89.1197 46.1982 88.8192Z" fill="black"/>
</g>
<path d="M37.0675 88.3323C37.168 89.2796 36.9446 90.233 36.4338 91.0371C36.6816 91.0452 36.9283 91.0723 37.1719 91.1183C37.8758 91.2571 38.6043 91.1996 39.2777 90.9521C39.5077 90.865 39.7425 90.7914 39.981 90.7318C39.6013 90.1047 39.2694 89.4498 38.9879 88.7728C38.8965 88.5542 38.8203 88.3296 38.76 88.1005C38.5914 87.54 38.5715 86.9454 38.7022 86.375C38.833 85.8046 39.1099 85.278 39.5057 84.8469C38.4315 82.7913 36.7739 83.9235 36.7739 83.9235C36.7739 83.9235 36.4995 84.9783 36.9593 87.4358C37.0134 87.7322 37.0495 88.0316 37.0675 88.3323Z" fill="#455A64"/>
<g opacity="0.2">
<path d="M37.0675 88.3323C37.168 89.2796 36.9446 90.233 36.4338 91.0371C36.6816 91.0452 36.9283 91.0723 37.1719 91.1183C37.8758 91.2571 38.6043 91.1996 39.2777 90.9521C39.5077 90.865 39.7425 90.7914 39.981 90.7318C39.6013 90.1047 39.2694 89.4498 38.9879 88.7728C38.8965 88.5542 38.8203 88.3296 38.76 88.1005C38.5914 87.54 38.5715 86.9454 38.7022 86.375C38.833 85.8046 39.1099 85.278 39.5057 84.8469C38.4315 82.7913 36.7739 83.9235 36.7739 83.9235C36.7739 83.9235 36.4995 84.9783 36.9593 87.4358C37.0134 87.7322 37.0495 88.0316 37.0675 88.3323Z" fill="black"/>
</g>
<path d="M33.8064 92.2002C33.8566 92.2002 33.6132 92.9228 33.5243 94.109C33.4577 95.6684 33.6112 97.2293 33.9803 98.7458C34.3044 100.269 34.7095 101.775 35.1936 103.255C35.4164 103.864 35.6073 104.485 35.7654 105.114C35.6682 104.967 35.5891 104.808 35.5297 104.642C35.3945 104.337 35.2129 103.87 35.0081 103.321C34.4636 101.848 34.0297 100.337 33.7098 98.7999C33.3306 97.2684 33.2001 95.6858 33.3234 94.1129C33.3776 93.6366 33.4732 93.166 33.6093 92.7064C33.6482 92.5284 33.7147 92.3576 33.8064 92.2002Z" fill="#263238"/>
<path d="M40.0544 105.67C39.981 105.67 39.5251 102.679 39.0421 98.9738C38.5591 95.2682 38.2306 92.2543 38.304 92.2427C38.3775 92.2311 38.8334 95.2296 39.3164 98.939C39.7994 102.648 40.1317 105.659 40.0544 105.67Z" fill="#263238"/>
<path d="M41.4494 90.6739C41.6473 90.6539 41.8468 90.69 42.0251 90.7782C42.5297 90.9934 42.9474 91.3716 43.2114 91.8524C43.6109 92.5399 43.8734 93.2984 43.9842 94.0858C44.1504 94.9552 44.2972 95.9174 44.4015 96.9297C44.5826 98.6637 44.6239 100.409 44.5252 102.15C44.4865 102.815 44.4286 103.352 44.3822 103.723C44.3712 103.917 44.3361 104.109 44.2779 104.295C44.2315 104.295 44.301 103.468 44.3281 102.142C44.369 100.412 44.3006 98.6818 44.1233 96.9606C44.019 95.9521 43.8837 94.9977 43.7369 94.1322C43.6443 93.3688 43.4125 92.6288 43.053 91.949C42.8201 91.4907 42.45 91.1165 41.9942 90.8787C41.6542 90.7203 41.4455 90.6971 41.4494 90.6739Z" fill="#263238"/>
<path d="M41.1518 90.67C40.8142 90.6657 40.4775 90.7073 40.1511 90.7937C39.8458 90.8748 39.498 91.0101 39.0885 91.1414C38.6331 91.2791 38.1563 91.3315 37.6819 91.296C37.1874 91.2728 36.7159 91.1762 36.3179 91.1492C35.954 91.1257 35.5886 91.153 35.2322 91.2303C34.9069 91.309 34.5964 91.4395 34.3125 91.6167C34.2777 91.6167 34.5328 91.2303 35.1819 91.0294C35.5578 90.9181 35.9493 90.8685 36.3411 90.8826C36.7855 90.8826 37.2337 90.983 37.7129 91.0062C38.1557 91.0416 38.6013 91.0011 39.0305 90.8864C39.4169 90.7705 39.8033 90.6507 40.1202 90.5889C40.7423 90.4575 41.175 90.6353 41.1518 90.67Z" fill="#263238"/>
<path d="M43.25 89.0587C43.25 89.1438 42.6472 89.1669 42.0367 89.5379C41.4262 89.9088 41.1093 90.415 41.0398 90.3764C40.9702 90.3377 41.1982 89.7079 41.8937 89.2983C42.5892 88.8887 43.2693 88.9815 43.25 89.0587Z" fill="#263238"/>
<path d="M33.0335 89.9899C33.0142 89.9204 33.787 89.7272 34.7259 89.9281C35.6649 90.1291 36.2986 90.6082 36.2522 90.6623C36.2059 90.7164 35.5528 90.3802 34.668 90.1986C33.7831 90.017 33.0412 90.0711 33.0335 89.9899Z" fill="#263238"/>
<g opacity="0.2">
<path d="M33.899 80.9057C33.899 81.177 33.8186 81.4422 33.6679 81.6677C33.5171 81.8933 33.3029 82.0691 33.0522 82.173C32.8016 82.2768 32.5258 82.3039 32.2597 82.251C31.9936 82.1981 31.7492 82.0674 31.5573 81.8756C31.3655 81.6838 31.2349 81.4393 31.1819 81.1733C31.129 80.9072 31.1562 80.6314 31.26 80.3807C31.3638 80.1301 31.5396 79.9158 31.7652 79.7651C31.9908 79.6144 32.256 79.5339 32.5273 79.5339C32.8911 79.5339 33.24 79.6785 33.4973 79.9357C33.7545 80.1929 33.899 80.5418 33.899 80.9057Z" fill="black"/>
</g>
<g opacity="0.2">
<path d="M34.355 84.8972C35.0529 84.8972 35.6185 84.3782 35.6185 83.738C35.6185 83.0977 35.0529 82.5788 34.355 82.5788C33.6572 82.5788 33.0915 83.0977 33.0915 83.738C33.0915 84.3782 33.6572 84.8972 34.355 84.8972Z" fill="black"/>
</g>
<g opacity="0.2">
<path d="M36.7353 82.1305C37.3691 82.1305 37.8829 81.6167 37.8829 80.9829C37.8829 80.3491 37.3691 79.8353 36.7353 79.8353C36.1015 79.8353 35.5876 80.3491 35.5876 80.9829C35.5876 81.6167 36.1015 82.1305 36.7353 82.1305Z" fill="black"/>
</g>
<g opacity="0.2">
<path d="M35.576 78.6916C35.5768 78.8585 35.5279 79.0219 35.4357 79.161C35.3434 79.3001 35.2119 79.4087 35.0578 79.4729C34.9037 79.5372 34.734 79.5542 34.5703 79.5218C34.4065 79.4894 34.2561 79.4091 34.138 79.2911C34.02 79.173 33.9397 79.0226 33.9073 78.8588C33.8749 78.6951 33.8919 78.5254 33.9562 78.3713C34.0204 78.2172 34.129 78.0857 34.2681 77.9934C34.4072 77.9012 34.5706 77.8523 34.7375 77.8531C34.9596 77.8541 35.1723 77.9428 35.3293 78.0998C35.4863 78.2568 35.575 78.4695 35.576 78.6916Z" fill="black"/>
</g>
<path d="M71.1856 91.325C71.1856 91.325 68.6044 91.4371 68.4499 93.3073C68.2953 95.1774 69.0179 98.2416 73.5002 98.9101C77.9824 99.5786 78.5234 93.9989 78.5234 93.9989C78.5234 93.9989 77.2289 91.0739 71.1856 91.325Z" fill="#E0E0E0"/>
<g opacity="0.21">
<path d="M73.7281 96.3676C76.2088 96.4835 77.6849 95.4132 78.4229 94.6249C78.5002 94.2385 78.5272 93.9989 78.5272 93.9989C78.5272 93.9989 77.2289 91.0739 71.1856 91.325C71.1856 91.325 68.6044 91.4371 68.4499 93.3073C68.4499 93.4348 68.4499 93.5661 68.4306 93.6937C69.3734 94.7254 71.1779 96.2439 73.7281 96.3676Z" fill="#263238"/>
</g>
<path d="M71.6802 90.104L70.9422 93.3382C70.9422 93.3382 72.2289 94.8567 74.103 94.7524C75.977 94.6481 75.9731 93.9448 75.9731 93.9448L76.7459 90.6334C76.7459 90.6334 75.0883 89.4201 73.2683 89.3698C71.4484 89.3196 71.6802 90.104 71.6802 90.104Z" fill="#E0E0E0"/>
<g opacity="0.15">
<path d="M71.4213 93.0986C71.259 93.0754 71.2011 92.4378 71.3634 91.6766C71.5256 90.9154 71.8811 90.3435 72.0357 90.4131C72.1903 90.4826 72.1053 91.0738 71.9546 91.8041C71.8039 92.5344 71.5875 93.1256 71.4213 93.0986Z" fill="#E0E0E0"/>
</g>
<g opacity="0.15">
<path d="M76.1162 90.6952C76.0891 90.7763 75.8341 90.7647 75.4554 90.6566C75.0767 90.5484 74.5899 90.359 74.0605 90.1736C73.7939 90.0885 73.5427 90.0151 73.3186 89.9649C73.119 89.9216 72.916 89.8957 72.712 89.8876C72.3681 89.8876 72.1362 89.934 72.0937 89.8528C72.0512 89.7717 72.2405 89.5746 72.6579 89.4664C72.8991 89.4071 73.1488 89.3901 73.3959 89.4162C73.6879 89.4476 73.9756 89.5111 74.2537 89.6055C74.7341 89.7757 75.1941 89.9986 75.6254 90.2702C75.9539 90.4672 76.1432 90.6179 76.1162 90.6952Z" fill="#E0E0E0"/>
</g>
<path d="M81.9198 100.525C81.9198 100.525 83.4654 101.615 84.3889 100.603C85.3124 99.5902 86.2668 97.4881 83.9639 95.0925C81.6609 92.6968 78.8556 95.6952 78.8556 95.6952C78.8556 95.6952 78.3031 97.9711 81.9198 100.525Z" fill="#E0E0E0"/>
<g opacity="0.21">
<path d="M82.6965 96.468C82.2313 96.0366 81.6754 95.7149 81.0696 95.5263C80.4638 95.3378 79.8235 95.2872 79.1957 95.3784C78.9832 95.56 78.8556 95.6952 78.8556 95.6952C78.8556 95.6952 78.3031 97.9711 81.9198 100.525C81.9198 100.525 83.4654 101.615 84.3889 100.603C84.4507 100.533 84.5126 100.46 84.5744 100.378C84.4875 98.8786 83.8127 97.4735 82.6965 96.468Z" fill="#263238"/>
</g>
<path d="M81.0852 101.031L82.9593 99.4859C82.9283 99.0498 82.8051 98.6252 82.598 98.2402C82.3908 97.8552 82.1044 97.5186 81.7575 97.2525C80.6215 96.4796 80.3124 96.8854 80.3124 96.8854L78.3804 98.4619C78.6532 99.34 79.153 100.13 79.8294 100.753C80.8727 101.576 81.0852 101.031 81.0852 101.031Z" fill="#E0E0E0"/>
<path d="M71.6725 101.136C71.6725 101.136 70.4785 101.967 70.9693 102.902C71.46 103.837 72.7313 105.077 75.0651 104.038C77.399 102.998 75.9693 100.174 75.9693 100.174C75.9693 100.174 74.4662 99.1883 71.6725 101.136Z" fill="#E0E0E0"/>
<g opacity="0.21">
<path d="M74.4005 102.763C74.8345 102.538 75.213 102.22 75.5085 101.831C75.8039 101.442 76.0089 100.992 76.1084 100.514C76.0311 100.313 75.9693 100.185 75.9693 100.185C75.9693 100.185 74.4662 99.1883 71.6725 101.136C71.6725 101.136 70.4785 101.967 70.9693 102.902C71.004 102.967 71.0388 103.029 71.0813 103.095C72.1884 103.425 73.3808 103.305 74.4005 102.763Z" fill="#263238"/>
</g>
<path d="M71.5372 100.405L72.1632 102.164C72.487 102.254 72.8263 102.276 73.1591 102.228C73.4919 102.179 73.8108 102.061 74.0952 101.882C74.953 101.263 74.7366 100.931 74.7366 100.931L74.1029 99.1265C73.3965 99.0934 72.6939 99.248 72.0666 99.5747C71.1856 100.104 71.5372 100.405 71.5372 100.405Z" fill="#E0E0E0"/>
<path d="M54.7764 98.7883C54.7764 98.7883 50.3559 97.9305 49.5561 101.234C48.7562 104.538 52.7207 105.369 52.7207 105.369C52.7207 105.369 51.9904 107.652 55.8119 108.846C59.6334 110.04 60.3792 105.89 60.3792 105.89C60.3792 105.89 63.9727 107.069 64.2432 104.754C64.6489 101.323 61.8552 101.045 61.8552 101.045C61.8552 101.045 64.6103 97.6871 60.1087 96.354C55.6071 95.0209 54.7764 98.7883 54.7764 98.7883ZM59.5523 97.8107C62.1528 98.3594 60.441 101.601 60.441 101.601C60.441 101.601 63.3815 102.27 62.8019 104.005C62.2223 105.74 59.3243 104.608 59.3243 104.608C59.3243 104.608 60.3869 107.571 56.8243 107.606C53.2617 107.641 54.7339 104.573 54.7339 104.573C54.7339 104.573 51.8436 104.843 51.2292 102.092C50.6148 99.3409 55.611 100.16 55.611 100.16C55.7617 97.83 56.9479 97.2582 59.5523 97.8107Z" fill="#EE553F"/>
<g opacity="0.3">
<path d="M54.7764 98.7883C54.7764 98.7883 50.3559 97.9305 49.5561 101.234C48.7562 104.538 52.7207 105.369 52.7207 105.369C52.7207 105.369 51.9904 107.652 55.8119 108.846C59.6334 110.04 60.3792 105.89 60.3792 105.89C60.3792 105.89 63.9727 107.069 64.2432 104.754C64.6489 101.323 61.8552 101.045 61.8552 101.045C61.8552 101.045 64.6103 97.6871 60.1087 96.354C55.6071 95.0209 54.7764 98.7883 54.7764 98.7883ZM59.5523 97.8107C62.1528 98.3594 60.441 101.601 60.441 101.601C60.441 101.601 63.3815 102.27 62.8019 104.005C62.2223 105.74 59.3243 104.608 59.3243 104.608C59.3243 104.608 60.3869 107.571 56.8243 107.606C53.2617 107.641 54.7339 104.573 54.7339 104.573C54.7339 104.573 51.8436 104.843 51.2292 102.092C50.6148 99.3409 55.611 100.16 55.611 100.16C55.7617 97.83 56.9479 97.2582 59.5523 97.8107Z" fill="black"/>
</g>
<path d="M54.842 97.9344C54.842 97.9344 50.4215 97.0727 49.6217 100.376C48.8218 103.68 52.7863 104.511 52.7863 104.511C52.7863 104.511 52.056 106.795 55.8775 107.989C59.699 109.183 60.4487 105.036 60.4487 105.036C60.4487 105.036 64.0422 106.215 64.3127 103.9C64.7184 100.465 61.9247 100.191 61.9247 100.191C61.9247 100.191 64.6797 96.8331 60.1782 95.5C55.6766 94.167 54.842 97.9344 54.842 97.9344ZM59.6179 96.9529C62.2222 97.5055 60.5066 100.747 60.5066 100.747C60.5066 100.747 63.4471 101.416 62.8675 103.147C62.2879 104.878 59.3899 103.75 59.3899 103.75C59.3899 103.75 60.4525 106.713 56.8899 106.752C53.3273 106.791 54.7995 103.715 54.7995 103.715C54.7995 103.715 51.9092 103.985 51.2948 101.238C50.6804 98.4908 55.6766 99.3061 55.6766 99.3061C55.8118 96.9761 57.0135 96.4042 59.6179 96.9529Z" fill="#EE553F"/>
<path d="M91.1474 106.495C91.1474 106.495 105.869 103.403 105.483 102.36C105.097 101.317 92.1173 105.084 92.3453 104.957C92.5732 104.829 98.2572 101.661 97.3376 100.741C96.418 99.8214 90.6142 105.096 90.6142 105.096L91.1474 106.495Z" fill="#263238"/>
<path d="M86.9162 103.554C85.7276 103.954 84.582 104.472 83.4966 105.1C82.1104 105.846 80.7745 106.683 79.4973 107.604C78.1217 108.597 76.8273 109.617 75.6101 110.536C74.9996 110.996 74.4123 111.429 73.852 111.823C73.3067 112.209 72.7362 112.557 72.1441 112.866C71.5954 113.137 71.1124 113.376 70.6873 113.577C72.515 113.778 76.3404 113.272 80.2508 112.492L81.4602 112.244C83.9768 111.725 86.4637 111.071 88.91 110.285C89.4742 110.092 89.9649 109.899 90.39 109.725C90.6373 109.621 90.8614 109.516 91.0507 109.416C91.2176 109.331 91.3789 109.235 91.5337 109.13C91.8119 108.921 91.9201 108.743 91.839 108.577C91.839 108.577 92.2254 104.107 90.2084 102.461C89.9938 102.61 89.7598 102.73 89.5128 102.816C88.8753 103.067 87.9093 103.253 86.9162 103.554Z" fill="#EE553F"/>
<path d="M70.9772 111.158C71.3636 110.834 71.75 110.49 72.1364 110.119C71.4687 110.617 70.842 111.167 70.2624 111.765L70.131 111.916C70.3938 111.672 70.672 111.421 70.9772 111.158Z" fill="#EE553F"/>
<g opacity="0.3">
<path d="M73.3884 109.199C73.8392 108.883 74.3144 108.561 74.8142 108.233C74.3144 108.563 73.8392 108.885 73.3884 109.199Z" fill="black"/>
</g>
<g opacity="0.3">
<path d="M76.3636 107.256C76.8969 106.931 77.4417 106.607 77.9942 106.29C77.4301 106.607 76.8969 106.931 76.3636 107.256Z" fill="black"/>
</g>
<path d="M70.1272 111.916C69.9107 112.151 69.7344 112.42 69.6055 112.712C69.5736 112.783 69.5572 112.86 69.5572 112.938C69.5572 113.016 69.5736 113.093 69.6055 113.164C69.7047 113.313 69.8588 113.417 70.0344 113.454C70.2471 113.518 70.466 113.559 70.6874 113.577C71.1125 113.376 71.5955 113.137 72.1442 112.866C72.7362 112.557 73.3068 112.209 73.8521 111.823C74.4123 111.437 75.0113 110.996 75.6102 110.536C76.8274 109.617 78.1218 108.604 79.4974 107.604C80.774 106.676 82.11 105.833 83.4966 105.08C84.5821 104.452 85.7277 103.935 86.9163 103.535C87.9093 103.233 88.8754 103.048 89.5129 102.797C89.7599 102.711 89.9939 102.591 90.2084 102.441C89.7156 102.044 89.0988 101.832 88.4658 101.842C87.1056 101.842 84.3351 102.944 81.3212 104.47C80.7725 104.748 80.2161 105.038 79.6597 105.339C79.1033 105.641 78.5468 105.954 77.9943 106.27C77.4417 106.587 76.8969 106.912 76.3637 107.236C75.8304 107.561 75.3127 107.889 74.8181 108.214C74.3235 108.539 73.8443 108.863 73.3922 109.18C72.9401 109.497 72.5228 109.802 72.1364 110.1C71.75 110.486 71.3636 110.815 70.9772 111.139C70.672 111.421 70.3938 111.672 70.1272 111.916Z" fill="#EE553F"/>
<g opacity="0.3">
<path d="M70.1272 111.916C69.9107 112.151 69.7344 112.42 69.6055 112.712C69.5736 112.783 69.5572 112.86 69.5572 112.938C69.5572 113.016 69.5736 113.093 69.6055 113.164C69.7047 113.313 69.8588 113.417 70.0344 113.454C70.2471 113.518 70.466 113.559 70.6874 113.577C71.1125 113.376 71.5955 113.137 72.1442 112.866C72.7362 112.557 73.3068 112.209 73.8521 111.823C74.4123 111.437 75.0113 110.996 75.6102 110.536C76.8274 109.617 78.1218 108.604 79.4974 107.604C80.774 106.676 82.11 105.833 83.4966 105.08C84.5821 104.452 85.7277 103.935 86.9163 103.535C87.9093 103.233 88.8754 103.048 89.5129 102.797C89.7599 102.711 89.9939 102.591 90.2084 102.441C89.7156 102.044 89.0988 101.832 88.4658 101.842C87.1056 101.842 84.3351 102.944 81.3212 104.47C80.7725 104.748 80.2161 105.038 79.6597 105.339C79.1033 105.641 78.5468 105.954 77.9943 106.27C77.4417 106.587 76.8969 106.912 76.3637 107.236C75.8304 107.561 75.3127 107.889 74.8181 108.214C74.3235 108.539 73.8443 108.863 73.3922 109.18C72.9401 109.497 72.5228 109.802 72.1364 110.1C71.75 110.486 71.3636 110.815 70.9772 111.139C70.672 111.421 70.3938 111.672 70.1272 111.916Z" fill="black"/>
</g>
<g opacity="0.24">
<path d="M86.4526 110.219C86.3251 110.332 85.3861 109.172 84.9882 107.464C84.5902 105.757 84.4936 104.416 84.6327 104.373C84.7718 104.331 85.1698 105.687 85.5562 107.31C85.9426 108.933 86.5801 110.123 86.4526 110.219Z" fill="white"/>
</g>
<g opacity="0.24">
<path d="M88.3382 107.217C88.1875 107.236 87.8822 106.468 87.5886 105.447C87.2949 104.427 87.3567 103.515 87.5229 103.515C87.689 103.515 87.8591 104.311 88.1527 105.308C88.4464 106.305 88.5082 107.194 88.3382 107.217Z" fill="white"/>
</g>
<g opacity="0.24">
<path d="M88.8212 108.867C88.6667 108.902 88.4967 108.747 88.4348 108.523C88.373 108.299 88.4735 108.087 88.6319 108.052C88.7903 108.017 88.9565 108.172 89.0183 108.396C89.0801 108.62 88.9797 108.832 88.8212 108.867Z" fill="white"/>
</g>
<g opacity="0.24">
<path d="M83.1064 108.697C83.2687 108.658 83.516 109.246 83.6551 109.968C83.7942 110.691 83.883 111.263 83.7401 111.332C83.5971 111.402 83.2262 110.842 83.0832 110.088C82.9402 109.335 82.9557 108.736 83.1064 108.697Z" fill="white"/>
</g>
<g opacity="0.24">
<path d="M82.5809 108.26C82.4225 108.295 82.2177 107.855 82.1172 107.275C82.0168 106.695 82.0747 106.216 82.237 106.201C82.3993 106.185 82.6041 106.63 82.6968 107.186C82.7896 107.743 82.7355 108.222 82.5809 108.26Z" fill="white"/>
</g>
<g opacity="0.24">
<path d="M80.2973 107.318C80.421 107.341 80.4557 108.253 80.8267 109.362C81.1976 110.471 81.4411 111.417 81.2981 111.464C81.1551 111.51 80.7301 110.656 80.3591 109.501C79.9882 108.345 80.135 107.279 80.2973 107.318Z" fill="white"/>
</g>
<g opacity="0.24">
<path d="M78.7323 111.197C78.6164 111.317 78.3459 111.162 78.2493 110.888C78.1527 110.614 78.2493 110.432 78.3884 110.362C78.5275 110.293 78.74 110.486 78.8057 110.702C78.8397 110.784 78.8509 110.873 78.838 110.96C78.825 111.047 78.7885 111.129 78.7323 111.197Z" fill="white"/>
</g>
<g opacity="0.24">
<path d="M76.5685 112.434C76.4294 112.534 75.958 112.101 75.9541 111.468C75.9502 110.834 76.1241 110.366 76.2748 110.355C76.4255 110.343 76.5105 110.834 76.5337 111.394C76.5569 111.954 76.6883 112.349 76.5685 112.434Z" fill="white"/>
</g>
<path d="M42.8095 38.8072C42.7416 39.5228 42.841 40.2444 43.0998 40.915C43.3587 41.5856 43.7699 42.1869 44.301 42.6712C44.8038 43.1477 45.4139 43.4961 46.0797 43.6871C46.7455 43.8781 47.4475 43.9061 48.1264 43.7686C48.1581 43.0784 48.0392 42.3895 47.7779 41.7498C47.5166 41.1101 47.1192 40.535 46.6133 40.0644C46.1074 39.5937 45.5051 39.2389 44.8482 39.0245C44.1913 38.81 43.4957 38.7412 42.8095 38.8227V38.8072Z" fill="#455A64"/>
<path d="M43.9996 39.808C44.046 39.7733 44.8651 40.8397 46.0591 41.9796C47.2531 43.1195 48.3428 43.9116 48.308 43.9541C48.037 43.8359 47.7835 43.6812 47.5545 43.4943C46.398 42.6609 45.3663 41.6668 44.4903 40.5422C44.2912 40.3232 44.1259 40.0757 43.9996 39.808Z" fill="#263238"/>
<path d="M78.9148 26.0212C78.2088 25.8992 77.4841 25.9425 76.7975 26.1476C76.111 26.3528 75.4814 26.7142 74.9581 27.2036C74.4448 27.6685 74.0505 28.2498 73.8085 28.8986C73.5664 29.5475 73.4836 30.2449 73.567 30.9324C74.2523 31.0168 74.9477 30.9514 75.6052 30.7407C76.2627 30.5299 76.8666 30.1789 77.3752 29.7119C77.8837 29.2449 78.2848 28.673 78.5506 28.0358C78.8164 27.3985 78.9407 26.7112 78.9148 26.0212Z" fill="#455A64"/>
<path d="M77.8368 27.1263C77.8715 27.1765 76.7433 27.8991 75.5184 29.0081C74.2935 30.117 73.4202 31.1371 73.3738 31.0985C73.5137 30.8371 73.6892 30.5966 73.8955 30.3836C74.3537 29.8395 74.8509 29.3294 75.3831 28.8574C75.9112 28.3797 76.4729 27.9407 77.064 27.5436C77.3008 27.3691 77.561 27.2287 77.8368 27.1263Z" fill="#263238"/>
<path d="M71.6544 6C70.8093 6.24505 70.0329 6.68334 69.3864 7.2802C68.7399 7.87706 68.2411 8.61612 67.9295 9.43897C67.6119 10.227 67.4893 11.0801 67.5721 11.9257C67.6548 12.7713 67.9405 13.5845 68.4048 14.296C69.2063 14.0206 69.9383 13.5741 70.5501 12.9876C71.1619 12.4011 71.6389 11.6887 71.9481 10.8995C72.2572 10.1104 72.391 9.26345 72.3403 8.41744C72.2896 7.57144 72.0556 6.74657 71.6544 6Z" fill="#455A64"/>
<path d="M71.0593 7.8045C70.9245 8.13829 70.7643 8.46124 70.5801 8.77051C70.2749 9.3617 69.873 10.1886 69.4866 11.1237C69.1002 12.0588 68.8104 12.9321 68.6095 13.5696C68.523 13.9193 68.4093 14.2617 68.2694 14.5936C68.2973 14.2328 68.366 13.8763 68.4742 13.531C68.9129 11.8397 69.5797 10.2161 70.4565 8.70482C70.6225 8.38277 70.8247 8.08071 71.0593 7.8045Z" fill="#263238"/>
<g opacity="0.2">
<path d="M62.9808 110.784C62.0529 111.016 61.1913 111.459 60.4638 112.08C59.7363 112.701 59.1628 113.482 58.7884 114.362C58.4122 115.206 58.2439 116.127 58.2977 117.049C58.3515 117.971 58.6258 118.866 59.0975 119.66C59.9817 119.395 60.7975 118.941 61.4884 118.329C62.1793 117.717 62.7286 116.962 63.0981 116.116C63.4677 115.27 63.6486 114.354 63.6284 113.431C63.6081 112.509 63.3871 111.601 62.9808 110.773V110.784Z" fill="black"/>
</g>
<path d="M62.2351 112.724C62.0689 113.079 61.8791 113.422 61.6671 113.752C61.3116 114.382 60.8363 115.259 60.3765 116.26C59.9167 117.26 59.5651 118.192 59.3255 118.879C59.2132 119.254 59.0777 119.622 58.9198 119.981C58.965 119.585 59.0558 119.196 59.1902 118.821C59.7417 117.005 60.5345 115.272 61.5473 113.667C61.7415 113.328 61.9721 113.012 62.2351 112.724Z" fill="#263238"/>
<g opacity="0.2">
<path d="M51.5318 115.742C51.5646 116.697 51.8187 117.632 52.2739 118.473C52.7292 119.314 53.3732 120.037 54.1554 120.587C54.901 121.132 55.7665 121.489 56.6791 121.629C57.5917 121.769 58.5245 121.687 59.3989 121.391C59.3249 120.472 59.0517 119.581 58.5984 118.778C58.145 117.976 57.5224 117.282 56.7738 116.744C56.0252 116.207 55.1685 115.838 54.2632 115.665C53.358 115.492 52.4259 115.518 51.5318 115.742Z" fill="black"/>
</g>
<path d="M53.2745 116.866C53.5863 117.105 53.8831 117.363 54.1632 117.639C54.7003 118.122 55.4615 118.767 56.3464 119.424C57.2312 120.081 58.0697 120.626 58.6841 121.001C59.0285 121.189 59.3602 121.399 59.6772 121.631C59.3051 121.502 58.9487 121.332 58.6145 121.124C57.7842 120.664 56.9863 120.148 56.2266 119.579C55.465 119.013 54.7421 118.398 54.0627 117.736C53.7681 117.476 53.5037 117.185 53.2745 116.866Z" fill="#263238"/>
<path d="M48.0579 112.566C48.0579 113.664 46.5973 114.498 44.758 114.498C42.9188 114.498 41.4272 113.609 41.4272 112.516C41.4272 112.13 41.3925 111.531 41.3925 111.531C42.35 110.747 43.5244 110.275 44.758 110.178C46.1916 110.178 47.8183 110.387 48.0617 111.519C48.0617 111.534 48.0579 112.327 48.0579 112.566Z" fill="#FF9A6C"/>
<g opacity="0.3">
<path d="M48.0579 112.566C48.0579 113.664 46.5973 114.498 44.758 114.498C42.9188 114.498 41.4272 113.609 41.4272 112.516C41.4272 112.13 41.3925 111.531 41.3925 111.531C42.35 110.747 43.5244 110.275 44.758 110.178C46.1916 110.178 47.8183 110.387 48.0617 111.519C48.0617 111.534 48.0579 112.327 48.0579 112.566Z" fill="#EE553F"/>
</g>
<path d="M44.7271 113.617C46.5667 113.617 48.0579 112.73 48.0579 111.635C48.0579 110.54 46.5667 109.653 44.7271 109.653C42.8876 109.653 41.3964 110.54 41.3964 111.635C41.3964 112.73 42.8876 113.617 44.7271 113.617Z" fill="#FF9A6C"/>
<g opacity="0.3">
<path d="M46.6901 111.635C46.6901 112.269 45.8245 112.794 44.7581 112.794C43.6916 112.794 42.826 112.276 42.826 111.635C42.826 110.994 43.6916 110.476 44.7581 110.476C45.8245 110.476 46.6901 111.001 46.6901 111.635Z" fill="white"/>
</g>
<path d="M45.9945 111.635C45.9945 112.041 45.4419 112.369 44.758 112.369C44.0741 112.369 43.5254 112.041 43.5254 111.635C43.5254 111.229 44.0779 110.901 44.758 110.901C45.4381 110.901 45.9945 111.229 45.9945 111.635Z" fill="#FF9A6C"/>
<path d="M50.7511 111.214C50.4768 112.276 48.8577 112.728 47.0726 112.272C45.2874 111.817 44.0702 110.584 44.3407 109.525C44.4373 109.139 44.5532 108.563 44.5532 108.563C45.6744 108.041 46.9289 107.877 48.1468 108.092C49.534 108.447 51.0602 109.054 51.01 110.209C51.01 110.209 50.8091 110.982 50.7511 111.214Z" fill="#FF9A6C"/>
<g opacity="0.3">
<path d="M50.7511 111.214C50.4768 112.276 48.8577 112.728 47.0726 112.272C45.2874 111.817 44.0702 110.584 44.3407 109.525C44.4373 109.139 44.5532 108.563 44.5532 108.563C45.6744 108.041 46.9289 107.877 48.1468 108.092C49.534 108.447 51.0602 109.054 51.01 110.209C51.01 110.209 50.8091 110.982 50.7511 111.214Z" fill="#EE553F"/>
</g>
<path d="M50.983 110.31C50.7086 111.372 49.051 111.855 47.2619 111.403C45.4729 110.951 44.2557 109.718 44.5301 108.656C44.8044 107.593 46.4621 107.11 48.2473 107.562C50.0325 108.014 51.2535 109.251 50.983 110.31Z" fill="#FF9A6C"/>
<g opacity="0.3">
<path d="M49.6615 109.989C49.5031 110.603 48.5371 110.885 47.5015 110.623C46.4659 110.36 45.7588 109.641 45.9173 109.027C46.0757 108.412 47.0378 108.126 48.0734 108.393C49.1089 108.66 49.8161 109.355 49.6615 109.989Z" fill="white"/>
</g>
<path d="M48.9852 109.8C48.8847 110.186 48.2665 110.375 47.6057 110.205C46.945 110.035 46.489 109.579 46.5934 109.185C46.6977 108.791 47.3082 108.609 47.969 108.779C48.6297 108.949 49.0857 109.405 48.9852 109.8Z" fill="#FF9A6C"/>
<path d="M111.01 85.5528C111.01 85.5528 110.994 84.5491 107.839 84.0028C104.683 83.4565 98.7087 84.061 95.0754 77.4451C91.4422 70.8292 83.5364 55.5703 81.3869 51.47C79.2374 47.3696 74.6833 38.7034 70.7822 39.9929C70.7822 39.9929 66.7716 41.4509 70.405 45.7607C74.0385 50.0705 85.3879 63.1913 88.3246 70.9007C91.2614 78.6101 90.8484 87.3528 90.8484 87.3528C90.8484 87.3528 90.6592 97.3645 102.821 95.8165C102.818 95.82 112.211 93.461 111.01 85.5528ZM72.8039 43.4556C72.6266 43.4829 72.4456 43.4424 72.2968 43.3423C72.148 43.2421 72.0423 43.0896 72.0009 42.9152C71.9594 42.7407 71.9852 42.557 72.0731 42.4006C72.1609 42.2442 72.3044 42.1267 72.475 42.0713L72.6473 42.0384C72.8266 42.0332 73.0012 42.0957 73.1365 42.2134C73.2717 42.3311 73.3578 42.4954 73.3774 42.6736C73.3971 42.8519 73.3489 43.031 73.2425 43.1753C73.1362 43.3197 72.9793 43.4187 72.8033 43.4527L72.8039 43.4556Z" fill="#AE7461"/>
<path d="M90.8627 87.815C90.861 87.7676 90.8622 87.72 90.8663 87.6727C90.8719 87.5731 90.8761 87.4338 90.8854 87.2565C90.8993 86.8936 90.9224 86.3535 90.9286 85.6596C90.956 83.6984 90.8757 81.7372 90.688 79.7848C90.5661 78.5488 90.3977 77.1985 90.1126 75.7689C89.976 75.053 89.7992 74.3201 89.6238 73.5623C89.4484 72.8045 89.2042 72.0414 88.9192 71.2737L88.7167 70.6966C88.6454 70.5008 88.557 70.3114 88.4785 70.1262C88.3099 69.7428 88.1574 69.347 87.9698 68.961C87.5863 68.1936 87.2048 67.4044 86.756 66.6341C85.8938 65.0683 84.8999 63.5061 83.8539 61.9292C81.744 58.7788 79.5839 55.8812 77.5689 53.2762C75.5539 50.6711 73.6808 48.39 72.0908 46.4797C71.2954 45.5385 70.5613 44.6441 70.1929 43.7138C70.1816 43.6543 70.1435 43.6 70.1179 43.5464C70.0922 43.4928 70.0946 43.4246 70.0838 43.3682C70.0612 43.2494 70.0212 43.1369 69.9938 43.0251C69.9663 42.9141 69.9508 42.8004 69.9475 42.6861C69.9338 42.5782 69.9265 42.4696 69.9255 42.3608C69.9338 42.156 69.9652 41.9527 70.0192 41.7549C70.0473 41.6602 70.0725 41.5661 70.1053 41.4798L70.2284 41.2377C70.2629 41.1605 70.307 41.088 70.3596 41.0218L70.5037 40.825C70.6085 40.7126 70.7049 40.6049 70.8048 40.515C70.9703 40.3612 71.1503 40.2238 71.3422 40.1046C71.4613 40.0331 71.5849 39.9694 71.7123 39.9139C71.7555 39.8956 71.7998 39.88 71.845 39.867L71.7181 39.9282C71.637 39.9714 71.5107 40.0355 71.3568 40.1326C71.165 40.2519 70.985 40.3894 70.8194 40.543C70.7195 40.6329 70.6266 40.743 70.5248 40.8548L70.3891 41.047C70.3374 41.1131 70.2943 41.1854 70.2608 41.2623L70.146 41.4998C70.1162 41.5855 70.0935 41.6761 70.0648 41.7677C70.0151 41.9603 69.9867 42.1578 69.9801 42.3566C69.978 42.4586 69.9984 42.5655 70.0069 42.6747C70.014 42.7848 70.0348 42.8936 70.0687 42.9985L70.1607 43.335C70.1747 43.3922 70.1916 43.4485 70.2114 43.5039C70.2221 43.5604 70.2602 43.6147 70.2834 43.6718C70.6544 44.5832 71.3751 45.4556 72.1842 46.388C73.7789 48.2912 75.6651 50.576 77.6897 53.1669C79.7143 55.7578 81.8774 58.6548 83.9925 61.8165C85.042 63.3958 86.0365 64.961 86.8969 66.5333C87.3521 67.3054 87.7313 68.0982 88.1129 68.8721C88.3005 69.2581 88.4542 69.6598 88.6233 70.0463C88.7035 70.2403 88.792 70.4297 88.8615 70.6166C88.931 70.8035 88.995 71.0098 89.061 71.1943C89.3502 71.9673 89.5479 72.7455 89.7649 73.4954C89.9379 74.2567 90.1272 74.9903 90.2465 75.7126C90.5209 77.1504 90.6899 78.5037 90.8059 79.7408C90.9869 81.6971 91.0535 83.6623 91.0054 85.6264C90.9874 86.3226 90.9588 86.8669 90.932 87.2261C90.9203 87.4069 90.9055 87.539 90.8974 87.6422C90.8894 87.7453 90.8627 87.815 90.8627 87.815Z" fill="#263238"/>
<path d="M109.302 84.912C109.382 84.8946 109.463 84.8915 109.544 84.9028C109.776 84.9334 109.994 85.0282 110.175 85.1765C110.465 85.4127 110.66 85.7464 110.724 86.1155C110.787 86.6085 110.662 87.1072 110.374 87.5123C110.038 87.9944 109.58 88.38 109.048 88.6305C108.442 88.9123 107.817 89.1529 107.178 89.3506C105.725 89.8269 104.232 90.1726 102.717 90.3836C99.9617 90.7688 97.1618 90.6988 94.4292 90.1764C93.5966 90.024 92.7957 89.7324 92.0601 89.3138C91.7952 89.1599 91.5521 88.9712 91.3373 88.7528C91.3345 88.738 91.5881 88.9698 92.1051 89.259C92.843 89.6521 93.6392 89.9243 94.4634 90.0652C97.1863 90.5507 99.9686 90.6047 102.708 90.2252C104.21 90.0145 105.69 89.6764 107.134 89.2144C107.767 89.022 108.387 88.7875 108.989 88.5125C109.511 88.2789 109.963 87.9113 110.297 87.4469C110.579 87.0658 110.708 86.5931 110.66 86.1215C110.608 85.7701 110.429 85.4496 110.158 85.2197C109.99 85.0702 109.783 84.9701 109.561 84.9303C109.382 84.9091 109.304 84.9209 109.302 84.912Z" fill="#263238"/>
<g opacity="0.2">
<path d="M109.78 88.0106C110.039 87.9369 110.26 87.7666 110.398 87.5347C110.536 87.3028 110.58 87.027 110.521 86.7639C110.451 86.5027 110.319 86.2621 110.137 86.0623C109.954 85.8624 109.727 85.7091 109.473 85.6152C108.963 85.4307 108.424 85.3366 107.881 85.3372C106.324 85.2463 104.733 85.2358 103.158 85.2225C101.348 85.1742 99.5362 85.2269 97.732 85.3804C96.7444 85.4418 95.7762 85.6829 94.8751 86.0919C94.4312 86.302 94.0357 86.6021 93.7138 86.973C93.3919 87.344 93.1505 87.7777 93.0049 88.2468C92.8987 88.5794 92.9181 88.9393 93.0594 89.2586C93.2488 89.5632 93.5386 89.7921 93.8788 89.9058C94.7244 90.2555 95.6594 90.2988 96.5725 90.3401C100.872 90.5263 104.472 90.9632 109.792 88.0083" fill="black"/>
</g>
</g>
<defs>
<clipPath id="clip0_115_2294">
<rect width="128" height="128" fill="white"/>
</clipPath>
</defs>
</svg>
