<svg width="32" height="31" viewBox="0 0 32 31" fill="none" xmlns="http://www.w3.org/2000/svg">
<path fill-rule="evenodd" clip-rule="evenodd" d="M15.6667 31C24.2271 31 31.1667 24.0604 31.1667 15.5C31.1667 6.93959 24.2271 0 15.6667 0C7.10627 0 0.166687 6.93959 0.166687 15.5C0.166687 24.0604 7.10627 31 15.6667 31ZM26 11.16C26 7.85333 23.3134 5.16667 20.0067 5.16667H11.3267C9.73716 5.16667 8.21273 5.79811 7.08876 6.92207C5.96479 8.04604 5.33335 9.57047 5.33335 11.16V19.84C5.33335 23.1467 8.02002 25.8333 11.3267 25.8333H20.0067C21.5962 25.8333 23.1206 25.2019 24.2446 24.0779C25.3686 22.954 26 21.4295 26 19.84V11.16ZM8.48958 8.3229C9.18722 7.62526 10.1334 7.23333 11.12 7.23333H20.2134C22.2697 7.23333 23.9334 8.897 23.9334 10.9533V20.0467C23.9334 21.0333 23.5414 21.9795 22.8438 22.6771C22.1462 23.3747 21.2 23.7667 20.2134 23.7667H11.12C9.06369 23.7667 7.40002 22.103 7.40002 20.0467V10.9533C7.40002 9.96673 7.79195 9.02053 8.48958 8.3229ZM22.005 9.16165C21.7628 8.91942 21.4343 8.78333 21.0917 8.78333C20.7491 8.78333 20.4206 8.91942 20.1783 9.16165C19.9361 9.40389 19.8 9.73243 19.8 10.075C19.8 10.4176 19.9361 10.7461 20.1783 10.9883C20.4206 11.2306 20.7491 11.3667 21.0917 11.3667C21.4343 11.3667 21.7628 11.2306 22.005 10.9883C22.2473 10.7461 22.3834 10.4176 22.3834 10.075C22.3834 9.73243 22.2473 9.40389 22.005 9.16165ZM19.3201 11.8466C18.3511 10.8777 17.037 10.3333 15.6667 10.3333C14.2964 10.3333 12.9822 10.8777 12.0133 11.8466C11.0444 12.8156 10.5 14.1297 10.5 15.5C10.5 16.8703 11.0444 18.1844 12.0133 19.1534C12.9822 20.1223 14.2964 20.6667 15.6667 20.6667C17.037 20.6667 18.3511 20.1223 19.3201 19.1534C20.289 18.1844 20.8334 16.8703 20.8334 15.5C20.8334 14.1297 20.289 12.8156 19.3201 11.8466ZM13.4747 13.308C14.056 12.7266 14.8445 12.4 15.6667 12.4C16.4889 12.4 17.2774 12.7266 17.8587 13.308C18.4401 13.8893 18.7667 14.6778 18.7667 15.5C18.7667 16.3222 18.4401 17.1107 17.8587 17.692C17.2774 18.2734 16.4889 18.6 15.6667 18.6C14.8445 18.6 14.056 18.2734 13.4747 17.692C12.8933 17.1107 12.5667 16.3222 12.5667 15.5C12.5667 14.6778 12.8933 13.8893 13.4747 13.308Z" fill="white"/>
</svg>
