<svg width="32" height="31" viewBox="0 0 32 31" fill="none" xmlns="http://www.w3.org/2000/svg">
<path fill-rule="evenodd" clip-rule="evenodd" d="M15.5833 31C24.1437 31 31.0833 24.0604 31.0833 15.5C31.0833 6.93959 24.1437 0 15.5833 0C7.0229 0 0.083313 6.93959 0.083313 15.5C0.083313 24.0604 7.0229 31 15.5833 31ZM21.3958 15.5C21.3958 16.3783 21.3183 17.2308 21.215 18.0833H25.5808C25.7875 17.2567 25.9166 16.3913 25.9166 15.5C25.9166 14.6088 25.7875 13.7433 25.5808 12.9167H21.215C21.3183 13.7692 21.3958 14.6217 21.3958 15.5ZM20.7112 20.6667C20.2979 22.2813 19.7037 23.8313 18.9287 25.265C21.2849 24.4538 23.2702 22.8215 24.5216 20.6667H20.7112ZM12.5608 18.0833H18.6058C18.7221 17.2308 18.8125 16.3783 18.8125 15.5C18.8125 14.6217 18.7221 13.7563 18.6058 12.9167H12.5608C12.4316 13.7563 12.3541 14.6217 12.3541 15.5C12.3541 16.3783 12.4316 17.2308 12.5608 18.0833ZM13.1162 20.6667C13.6458 22.5138 14.5112 24.2317 15.5833 25.7817C16.6554 24.2317 17.5208 22.5138 18.0504 20.6667H13.1162ZM6.64498 10.3333H10.4166C10.8687 8.71875 11.45 7.16875 12.225 5.735C9.86742 6.53775 7.8835 8.17265 6.64498 10.3333ZM10.4166 20.6667H6.64498C7.89124 22.8208 9.87237 24.4534 12.225 25.265C11.45 23.8313 10.8687 22.2813 10.4166 20.6667ZM5.24998 15.5C5.24998 16.3913 5.37915 17.2567 5.58581 18.0833H9.95165C9.84831 17.2308 9.77081 16.3783 9.77081 15.5C9.77081 14.6217 9.84831 13.7692 9.95165 12.9167H5.58581C5.37915 13.7433 5.24998 14.6088 5.24998 15.5ZM18.0504 10.3333C17.5208 8.48625 16.6554 6.75542 15.5833 5.20542C14.5112 6.75542 13.6458 8.48625 13.1162 10.3333H18.0504ZM20.7112 10.3333H24.5216C23.2816 8.18917 21.3054 6.54875 18.9287 5.735C19.7083 7.18928 20.307 8.73355 20.7112 10.3333ZM2.66665 15.5C2.66665 8.39583 8.4404 2.58333 15.5833 2.58333C17.2796 2.58333 18.9592 2.91743 20.5263 3.56656C22.0934 4.21568 23.5174 5.16711 24.7168 6.36654C25.9162 7.56596 26.8676 8.98988 27.5168 10.557C28.1659 12.1241 28.5 13.8038 28.5 15.5C28.5 18.9257 27.1391 22.2111 24.7168 24.6335C22.2944 27.0558 19.009 28.4167 15.5833 28.4167C13.8871 28.4167 12.2074 28.0826 10.6403 27.4334C9.0732 26.7843 7.64927 25.8329 6.44985 24.6335C4.02751 22.2111 2.66665 18.9257 2.66665 15.5Z" fill="white"/>
</svg>
