<svg width="32" height="31" viewBox="0 0 32 31" fill="none" xmlns="http://www.w3.org/2000/svg">
<path fill-rule="evenodd" clip-rule="evenodd" d="M15.5417 31C24.1021 31 31.0417 24.0604 31.0417 15.5C31.0417 6.93959 24.1021 0 15.5417 0C6.98127 0 0.041687 6.93959 0.041687 15.5C0.041687 24.0604 6.98127 31 15.5417 31ZM19.2501 15.8875L13.2167 19.375V12.4L19.2501 15.8875ZM26.9807 12.4814C26.9109 11.5514 26.8063 10.819 26.6552 10.2726C26.3646 9.22638 25.6903 8.55212 24.6441 8.2615C23.4467 7.936 20.4126 7.75 15.5417 7.75L13.6933 7.81975C12.4146 7.81975 11.0312 7.85462 9.51994 7.936C7.98544 8.00575 6.98569 8.11038 6.43931 8.2615C5.39306 8.55212 4.71881 9.22638 4.42819 10.2726C4.10269 11.47 3.91669 13.3416 3.91669 15.8875L3.98644 16.864C3.98644 17.5615 4.02131 18.3636 4.10269 19.2936C4.17244 20.2236 4.27706 20.956 4.42819 21.5024C4.71881 22.5486 5.39306 23.2229 6.43931 23.5135C7.63669 23.839 10.6708 24.025 15.5417 24.025L17.3901 23.9553C18.6688 23.9553 20.0522 23.9204 21.5634 23.839C23.0979 23.7693 24.0977 23.6646 24.6441 23.5135C25.6903 23.2229 26.3646 22.5486 26.6552 21.5024C26.9807 20.305 27.1667 18.4334 27.1667 15.8875L27.0969 14.911C27.0969 14.2135 27.0621 13.4114 26.9807 12.4814Z" fill="white"/>
</svg>
